M48
; DRILL file {KiCad 5.1.4} date Sat 02 Nov 2019 22:09:49 JST
; FORMAT={-:-/ absolute / metric / decimal}
; #@! TF.CreationDate,2019-11-02T22:09:49+09:00
; #@! TF.GenerationSoftware,Kicad,Pcbnew,5.1.4
FMAT,2
METRIC
T1C0.300
T2C0.400
T3C0.500
T4C0.600
T5C0.620
T6C1.000
T7C1.040
T8C1.500
T9C2.200
T10C5.000
T11C1.200
T12C1.750
T13C3.048
T14C3.988
%
G90
G05
T1
X72.263Y-50.8
X79.121Y-61.468
X79.375Y-57.658
X79.629Y-41.148
X86.487Y-55.118
X87.503Y-97.536
X89.535Y-48.006
X93.091Y-48.006
X95.123Y-39.624
X95.377Y-51.308
X95.381Y-45.216
X96.647Y-40.386
X99.187Y-51.816
X102.997Y-51.816
X104.775Y-52.324
X105.791Y-97.028
X106.299Y-45.466
X106.299Y-49.276
X114.681Y-49.022
X114.935Y-55.626
X116.459Y-143.256
X116.713Y-53.34
X116.967Y-59.436
X117.475Y-78.232
X117.475Y-93.726
X117.475Y-133.604
X118.237Y-54.61
X120.269Y-80.772
X125.095Y-46.99
X125.095Y-48.768
X125.349Y-50.038
X125.603Y-48.006
X125.857Y-98.044
X125.857Y-135.382
X125.857Y-142.24
X126.111Y-49.343
X126.365Y-57.15
X127.127Y-57.912
X127.889Y-51.816
X128.143Y-57.658
X128.397Y-53.848
X128.397Y-58.674
X129.159Y-59.182
X130.683Y-49.022
X130.683Y-75.692
X130.683Y-78.994
X131.699Y-55.88
X132.563Y-76.556
X132.715Y-51.562
X132.715Y-142.244
X132.828Y-57.545
X134.239Y-98.552
X134.239Y-117.348
X135.763Y-76.531
X135.763Y-44.45
X135.95Y-45.212
X136.017Y-54.864
X137.287Y-154.432
X138.811Y-140.97
X141.351Y-53.086
X141.735Y-139.83
X142.621Y-134.496
X142.875Y-54.864
X142.875Y-55.88
X144.399Y-105.886
X144.907Y-63.754
X144.907Y-70.612
X145.669Y-44.45
X146.05Y-43.815
X147.193Y-63.246
X148.209Y-63.246
X149.733Y-65.278
X151.511Y-51.816
X152.273Y-52.578
X153.035Y-117.348
X153.289Y-79.502
X153.289Y-98.298
X159.385Y-63.5
X163.449Y-93.98
X163.957Y-35.814
X164.211Y-57.658
X168.402Y-54.229
X168.783Y-54.864
X169.037Y-55.626
X171.069Y-38.354
X171.857Y-38.38
X172.339Y-79.248
X172.339Y-98.298
X172.339Y-117.348
X172.847Y-54.864
X173.482Y-54.229
X185.801Y-119.888
X187.325Y-115.57
X187.833Y-131.064
X188.087Y-119.38
X188.341Y-139.192
X191.319Y-79.319
T2
X84.201Y-59.69
X85.217Y-59.69
X86.233Y-59.69
X87.249Y-59.69
X87.757Y-46.736
X88.265Y-59.69
X89.027Y-56.134
X90.043Y-56.134
X91.059Y-56.134
X91.313Y-104.394
X92.075Y-56.134
X95.631Y-60.452
X96.647Y-60.452
X97.663Y-60.452
X98.679Y-55.372
X98.679Y-56.642
X98.679Y-60.452
X99.695Y-55.372
X99.695Y-56.642
X99.695Y-60.452
X100.711Y-55.372
X100.711Y-56.642
X100.711Y-60.452
X103.251Y-104.394
X107.823Y-97.282
X116.713Y-61.976
X117.729Y-97.536
X118.491Y-49.322
X122.555Y-42.164
X124.587Y-55.372
X125.095Y-82.55
X126.873Y-91.186
X127.381Y-63.5
X129.667Y-93.98
X133.096Y-55.88
X135.001Y-138.43
X135.255Y-53.848
X136.271Y-60.198
X136.525Y-52.578
X137.033Y-149.86
X137.287Y-46.482
X137.287Y-53.848
X137.541Y-61.468
X139.489Y-46.662
X140.306Y-49.205
X143.129Y-59.944
X144.399Y-50.292
X145.669Y-59.944
X146.177Y-62.484
X147.447Y-155.194
X149.479Y-59.944
X149.479Y-62.484
X152.273Y-59.944
X152.273Y-62.484
X155.067Y-59.944
X155.067Y-62.484
X157.861Y-59.944
X157.861Y-62.484
X160.147Y-59.944
X160.655Y-64.516
X161.163Y-62.484
X161.417Y-51.054
X163.449Y-59.944
X164.211Y-67.818
X166.751Y-59.944
X166.751Y-67.818
X166.751Y-152.4
X167.259Y-62.484
X167.259Y-64.516
X168.529Y-50.546
X168.783Y-58.42
X169.545Y-53.086
X169.545Y-56.896
X169.545Y-61.214
X169.799Y-45.212
X169.799Y-49.784
X171.831Y-58.928
X172.339Y-49.784
X172.339Y-53.086
X172.339Y-56.642
X173.101Y-43.942
X173.609Y-32.766
X174.371Y-33.528
X174.371Y-45.212
X194.183Y-89.408
X199.771Y-114.554
X199.771Y-116.84
X199.771Y-119.126
X199.771Y-121.412
X199.771Y-123.698
X199.771Y-128.524
X199.771Y-130.81
X199.771Y-133.096
X199.771Y-135.382
X199.771Y-137.668
X199.771Y-139.954
X199.771Y-142.24
X199.771Y-144.526
X199.771Y-146.812
X168.373Y-35.738
X168.373Y-37.088
X169.223Y-35.738
X169.223Y-37.088
X170.073Y-35.738
X170.073Y-37.088
X170.923Y-35.738
X170.923Y-37.088
X171.773Y-35.738
X171.773Y-37.088
X172.623Y-35.738
X172.623Y-37.088
X173.473Y-35.738
X173.473Y-37.088
X174.323Y-35.738
X174.323Y-37.088
T3
X121.285Y-43.434
X129.413Y-35.56
T6
X150.725Y-40.688
X150.725Y-55.188
X153.225Y-55.188
X155.725Y-40.688
X155.725Y-55.188
X188.826Y-40.688
X188.826Y-55.188
X191.326Y-55.188
X193.826Y-40.688
X193.826Y-55.188
T7
X190.055Y-76.581
X192.595Y-76.581
X90.043Y-76.581
X92.583Y-76.581
X190.055Y-152.781
X192.595Y-152.781
X142.43Y-152.781
X144.97Y-152.781
X90.043Y-133.731
X92.583Y-133.731
X171.005Y-114.681
X173.546Y-114.681
X70.993Y-76.581
X73.533Y-76.581
X109.093Y-76.581
X111.633Y-76.581
X171.005Y-133.731
X173.546Y-133.731
X190.055Y-114.681
X192.595Y-114.681
X70.993Y-48.006
X73.533Y-48.006
X109.093Y-152.781
X111.633Y-152.781
X151.956Y-152.781
X154.495Y-152.781
X109.093Y-48.006
X111.633Y-48.006
X132.905Y-114.681
X135.445Y-114.681
X109.093Y-95.631
X111.633Y-95.631
X70.993Y-95.631
X73.533Y-95.631
X70.993Y-133.731
X73.533Y-133.731
X171.005Y-76.581
X173.546Y-76.581
X171.005Y-95.631
X173.546Y-95.631
X196.405Y-136.906
X196.405Y-139.446
X90.043Y-95.631
X92.583Y-95.631
X151.956Y-95.631
X154.495Y-95.631
X196.405Y-98.806
X196.405Y-101.346
X70.993Y-152.781
X73.533Y-152.781
X171.005Y-152.781
X173.546Y-152.781
X132.905Y-152.781
X135.445Y-152.781
X151.956Y-76.581
X154.495Y-76.581
X109.093Y-133.731
X111.633Y-133.731
X132.905Y-95.631
X135.445Y-95.631
X151.956Y-114.681
X154.495Y-114.681
X90.043Y-152.781
X92.583Y-152.781
X132.905Y-133.731
X135.445Y-133.731
X151.956Y-133.731
X154.495Y-133.731
T9
X181.8Y-61.976
X179.419Y-138.176
X122.269Y-100.076
X81.788Y-52.451
X81.788Y-138.176
X198.469Y-35.782
T10
X122.269Y-61.976
X122.269Y-138.176
T11
X125.349Y-34.656
X125.349Y-41.656
T12
X167.195Y-71.501
X177.355Y-71.501
X167.195Y-90.551
X177.355Y-90.551
X191.326Y-133.096
X191.326Y-143.256
X86.233Y-90.551
X96.393Y-90.551
X148.145Y-90.551
X158.305Y-90.551
X186.245Y-90.551
X196.405Y-90.551
X86.233Y-42.926
X96.393Y-42.926
X191.326Y-94.996
X191.326Y-105.156
X186.245Y-128.651
X196.405Y-128.651
X67.183Y-147.701
X77.343Y-147.701
X167.195Y-147.701
X177.355Y-147.701
X129.095Y-147.701
X139.255Y-147.701
X148.145Y-71.501
X158.305Y-71.501
X105.283Y-128.651
X115.443Y-128.651
X129.095Y-90.551
X139.255Y-90.551
X148.145Y-109.601
X158.305Y-109.601
X86.233Y-147.701
X96.393Y-147.701
X129.095Y-128.651
X139.255Y-128.651
X148.145Y-128.651
X158.305Y-128.651
X186.245Y-71.501
X196.405Y-71.501
X86.233Y-71.501
X96.393Y-71.501
X186.245Y-147.701
X196.405Y-147.701
X138.62Y-147.701
X148.78Y-147.701
X129.095Y-71.501
X139.255Y-71.501
X86.233Y-128.651
X96.393Y-128.651
X167.195Y-109.601
X177.355Y-109.601
X67.183Y-71.501
X77.343Y-71.501
X105.283Y-71.501
X115.443Y-71.501
X167.195Y-128.651
X177.355Y-128.651
X186.245Y-109.601
X196.405Y-109.601
X67.183Y-42.926
X77.343Y-42.926
X105.283Y-147.701
X115.443Y-147.701
X148.145Y-147.701
X158.305Y-147.701
X105.283Y-42.926
X115.443Y-42.926
X129.095Y-109.601
X139.255Y-109.601
X105.283Y-90.551
X115.443Y-90.551
X67.183Y-90.551
X77.343Y-90.551
X67.183Y-128.651
X77.343Y-128.651
T13
X198.31Y-126.238
X198.31Y-150.114
X198.31Y-88.138
X198.31Y-112.014
X131.762Y-154.686
X155.638Y-154.686
T14
X153.225Y-147.701
X110.363Y-42.926
X134.175Y-109.601
X110.363Y-90.551
X72.263Y-90.551
X72.263Y-128.651
X172.275Y-71.501
X172.275Y-90.551
X183.07Y-126.238
X183.07Y-150.114
X191.326Y-138.176
X91.313Y-90.551
X153.225Y-90.551
X191.326Y-90.551
X91.313Y-42.926
X183.07Y-88.138
X183.07Y-112.014
X191.326Y-100.076
X191.326Y-128.651
X72.263Y-147.701
X172.275Y-147.701
X134.175Y-147.701
X153.225Y-71.501
X110.363Y-128.651
X134.175Y-90.551
X153.225Y-109.601
X91.313Y-147.701
X134.175Y-128.651
X153.225Y-128.651
X191.326Y-71.501
X91.313Y-71.501
X191.326Y-147.701
X131.762Y-139.446
X143.701Y-147.701
X155.638Y-139.446
X134.175Y-71.501
X91.313Y-128.651
X172.275Y-109.601
X72.263Y-71.501
X110.363Y-71.501
X172.275Y-128.651
X191.326Y-109.601
X72.263Y-42.926
X110.363Y-147.701
T4
G00X167.023Y-33.128
M15
G01X167.023Y-32.328
M16
G05
G00X167.023Y-36.858
M15
G01X167.023Y-35.358
M16
G05
G00X175.673Y-33.128
M15
G01X175.673Y-32.328
M16
G05
G00X175.673Y-36.858
M15
G01X175.673Y-35.358
M16
G05
T5
G00X123.049Y-44.466
M15
G01X123.049Y-45.446
M16
G05
G00X127.249Y-35.966
M15
G01X127.249Y-36.946
M16
G05
G00X127.249Y-38.966
M15
G01X127.249Y-39.946
M16
G05
G00X127.249Y-42.966
M15
G01X127.249Y-43.946
M16
G05
T6
G00X106.303Y-40.386
M15
G01X106.803Y-40.386
M16
G05
G00X112.653Y-37.846
M15
G01X113.153Y-37.846
M16
G05
G00X130.115Y-107.061
M15
G01X130.615Y-107.061
M16
G05
G00X136.465Y-104.521
M15
G01X136.965Y-104.521
M16
G05
G00X106.303Y-88.011
M15
G01X106.803Y-88.011
M16
G05
G00X112.653Y-85.471
M15
G01X113.153Y-85.471
M16
G05
G00X68.203Y-88.011
M15
G01X68.703Y-88.011
M16
G05
G00X74.553Y-85.471
M15
G01X75.053Y-85.471
M16
G05
G00X68.203Y-126.111
M15
G01X68.703Y-126.111
M16
G05
G00X74.553Y-123.571
M15
G01X75.053Y-123.571
M16
G05
G00X168.215Y-68.961
M15
G01X168.715Y-68.961
M16
G05
G00X174.565Y-66.421
M15
G01X175.065Y-66.421
M16
G05
G00X168.215Y-88.011
M15
G01X168.715Y-88.011
M16
G05
G00X174.565Y-85.471
M15
G01X175.065Y-85.471
M16
G05
G00X186.245Y-135.886
M15
G01X186.245Y-135.386
M16
G05
G00X188.785Y-142.236
M15
G01X188.785Y-141.736
M16
G05
G00X87.253Y-88.011
M15
G01X87.753Y-88.011
M16
G05
G00X93.603Y-85.471
M15
G01X94.103Y-85.471
M16
G05
G00X149.165Y-88.011
M15
G01X149.665Y-88.011
M16
G05
G00X155.516Y-85.471
M15
G01X156.016Y-85.471
M16
G05
G00X187.266Y-88.011
M15
G01X187.766Y-88.011
M16
G05
G00X193.615Y-85.471
M15
G01X194.115Y-85.471
M16
G05
G00X87.253Y-40.386
M15
G01X87.753Y-40.386
M16
G05
G00X93.603Y-37.846
M15
G01X94.103Y-37.846
M16
G05
G00X186.245Y-97.786
M15
G01X186.245Y-97.286
M16
G05
G00X188.785Y-104.136
M15
G01X188.785Y-103.636
M16
G05
G00X187.266Y-126.111
M15
G01X187.766Y-126.111
M16
G05
G00X193.615Y-123.571
M15
G01X194.115Y-123.571
M16
G05
G00X68.203Y-145.161
M15
G01X68.703Y-145.161
M16
G05
G00X74.553Y-142.621
M15
G01X75.053Y-142.621
M16
G05
G00X168.215Y-145.161
M15
G01X168.715Y-145.161
M16
G05
G00X174.565Y-142.621
M15
G01X175.065Y-142.621
M16
G05
G00X130.115Y-145.161
M15
G01X130.615Y-145.161
M16
G05
G00X136.465Y-142.621
M15
G01X136.965Y-142.621
M16
G05
G00X149.165Y-68.961
M15
G01X149.665Y-68.961
M16
G05
G00X155.516Y-66.421
M15
G01X156.016Y-66.421
M16
G05
G00X106.303Y-126.111
M15
G01X106.803Y-126.111
M16
G05
G00X112.653Y-123.571
M15
G01X113.153Y-123.571
M16
G05
G00X130.115Y-88.011
M15
G01X130.615Y-88.011
M16
G05
G00X136.465Y-85.471
M15
G01X136.965Y-85.471
M16
G05
G00X149.165Y-107.061
M15
G01X149.665Y-107.061
M16
G05
G00X155.516Y-104.521
M15
G01X156.016Y-104.521
M16
G05
G00X87.253Y-145.161
M15
G01X87.753Y-145.161
M16
G05
G00X93.603Y-142.621
M15
G01X94.103Y-142.621
M16
G05
G00X130.115Y-126.111
M15
G01X130.615Y-126.111
M16
G05
G00X136.465Y-123.571
M15
G01X136.965Y-123.571
M16
G05
G00X149.165Y-126.111
M15
G01X149.665Y-126.111
M16
G05
G00X155.516Y-123.571
M15
G01X156.016Y-123.571
M16
G05
G00X187.266Y-68.961
M15
G01X187.766Y-68.961
M16
G05
G00X193.615Y-66.421
M15
G01X194.115Y-66.421
M16
G05
G00X87.253Y-68.961
M15
G01X87.753Y-68.961
M16
G05
G00X93.603Y-66.421
M15
G01X94.103Y-66.421
M16
G05
G00X187.266Y-145.161
M15
G01X187.766Y-145.161
M16
G05
G00X193.615Y-142.621
M15
G01X194.115Y-142.621
M16
G05
G00X139.641Y-145.161
M15
G01X140.141Y-145.161
M16
G05
G00X145.99Y-142.621
M15
G01X146.49Y-142.621
M16
G05
G00X130.115Y-68.961
M15
G01X130.615Y-68.961
M16
G05
G00X136.465Y-66.421
M15
G01X136.965Y-66.421
M16
G05
G00X87.253Y-126.111
M15
G01X87.753Y-126.111
M16
G05
G00X93.603Y-123.571
M15
G01X94.103Y-123.571
M16
G05
G00X168.215Y-107.061
M15
G01X168.715Y-107.061
M16
G05
G00X174.565Y-104.521
M15
G01X175.065Y-104.521
M16
G05
G00X68.203Y-68.961
M15
G01X68.703Y-68.961
M16
G05
G00X74.553Y-66.421
M15
G01X75.053Y-66.421
M16
G05
G00X106.303Y-68.961
M15
G01X106.803Y-68.961
M16
G05
G00X112.653Y-66.421
M15
G01X113.153Y-66.421
M16
G05
G00X168.215Y-126.111
M15
G01X168.715Y-126.111
M16
G05
G00X174.565Y-123.571
M15
G01X175.065Y-123.571
M16
G05
G00X187.266Y-107.061
M15
G01X187.766Y-107.061
M16
G05
G00X193.615Y-104.521
M15
G01X194.115Y-104.521
M16
G05
G00X68.203Y-40.386
M15
G01X68.703Y-40.386
M16
G05
G00X74.553Y-37.846
M15
G01X75.053Y-37.846
M16
G05
G00X106.303Y-145.161
M15
G01X106.803Y-145.161
M16
G05
G00X112.653Y-142.621
M15
G01X113.153Y-142.621
M16
G05
G00X149.165Y-145.161
M15
G01X149.665Y-145.161
M16
G05
G00X155.516Y-142.621
M15
G01X156.016Y-142.621
M16
G05
T8
G00X147.625Y-48.338
M15
G01X147.625Y-47.038
M16
G05
G00X158.826Y-48.338
M15
G01X158.826Y-47.038
M16
G05
G00X185.725Y-48.338
M15
G01X185.725Y-47.038
M16
G05
G00X196.925Y-48.338
M15
G01X196.925Y-47.038
M16
G05
T0
M30
