G04 #@! TF.GenerationSoftware,KiCad,Pcbnew,5.1.4*
G04 #@! TF.CreationDate,2019-11-02T22:09:46+09:00*
G04 #@! TF.ProjectId,Navpad,4e617670-6164-42e6-9b69-6361645f7063,rev?*
G04 #@! TF.SameCoordinates,Original*
G04 #@! TF.FileFunction,Legend,Bot*
G04 #@! TF.FilePolarity,Positive*
%FSLAX46Y46*%
G04 Gerber Fmt 4.6, Leading zero omitted, Abs format (unit mm)*
G04 Created by KiCad (PCBNEW 5.1.4) date 2019-11-02 22:09:46*
%MOMM*%
%LPD*%
G04 APERTURE LIST*
%ADD10C,0.120000*%
%ADD11C,0.150000*%
G04 APERTURE END LIST*
D10*
X76409733Y-136142000D02*
X76752267Y-136142000D01*
X76409733Y-137162000D02*
X76752267Y-137162000D01*
X72091733Y-51052000D02*
X72434267Y-51052000D01*
X72091733Y-52072000D02*
X72434267Y-52072000D01*
X115525733Y-50290000D02*
X115868267Y-50290000D01*
X115525733Y-51310000D02*
X115868267Y-51310000D01*
X153460267Y-80710500D02*
X153117733Y-80710500D01*
X153460267Y-79690500D02*
X153117733Y-79690500D01*
X172446767Y-80710500D02*
X172104233Y-80710500D01*
X172446767Y-79690500D02*
X172104233Y-79690500D01*
X191496767Y-80710500D02*
X191154233Y-80710500D01*
X191496767Y-79690500D02*
X191154233Y-79690500D01*
X183686267Y-101348000D02*
X183343733Y-101348000D01*
X183686267Y-100328000D02*
X183343733Y-100328000D01*
X77425733Y-78992000D02*
X77768267Y-78992000D01*
X77425733Y-80012000D02*
X77768267Y-80012000D01*
X96475733Y-78992000D02*
X96818267Y-78992000D01*
X96475733Y-80012000D02*
X96818267Y-80012000D01*
X115525733Y-78992000D02*
X115868267Y-78992000D01*
X115525733Y-80012000D02*
X115868267Y-80012000D01*
X134346767Y-99760500D02*
X134004233Y-99760500D01*
X134346767Y-98740500D02*
X134004233Y-98740500D01*
X153396767Y-99760500D02*
X153054233Y-99760500D01*
X153396767Y-98740500D02*
X153054233Y-98740500D01*
X172446767Y-99760500D02*
X172104233Y-99760500D01*
X172446767Y-98740500D02*
X172104233Y-98740500D01*
X77425733Y-98042000D02*
X77768267Y-98042000D01*
X77425733Y-99062000D02*
X77768267Y-99062000D01*
X96475733Y-98042000D02*
X96818267Y-98042000D01*
X96475733Y-99062000D02*
X96818267Y-99062000D01*
X115666733Y-98042000D02*
X116009267Y-98042000D01*
X115666733Y-99062000D02*
X116009267Y-99062000D01*
X134346767Y-118810500D02*
X134004233Y-118810500D01*
X134346767Y-117790500D02*
X134004233Y-117790500D01*
X153396767Y-118810500D02*
X153054233Y-118810500D01*
X153396767Y-117790500D02*
X153054233Y-117790500D01*
X172446767Y-118810500D02*
X172104233Y-118810500D01*
X172446767Y-117790500D02*
X172104233Y-117790500D01*
X183686267Y-120398000D02*
X183343733Y-120398000D01*
X183686267Y-119378000D02*
X183343733Y-119378000D01*
X191496767Y-118810500D02*
X191154233Y-118810500D01*
X191496767Y-117790500D02*
X191154233Y-117790500D01*
X96475733Y-136142000D02*
X96818267Y-136142000D01*
X96475733Y-137162000D02*
X96818267Y-137162000D01*
X115525733Y-136142000D02*
X115868267Y-136142000D01*
X115525733Y-137162000D02*
X115868267Y-137162000D01*
X129076267Y-135384000D02*
X128733733Y-135384000D01*
X129076267Y-134364000D02*
X128733733Y-134364000D01*
X148126267Y-135384000D02*
X147783733Y-135384000D01*
X148126267Y-134364000D02*
X147783733Y-134364000D01*
X167176267Y-135384000D02*
X166833733Y-135384000D01*
X167176267Y-134364000D02*
X166833733Y-134364000D01*
X127298267Y-154434000D02*
X126955733Y-154434000D01*
X127298267Y-153414000D02*
X126955733Y-153414000D01*
X77425733Y-153414000D02*
X77768267Y-153414000D01*
X77425733Y-154434000D02*
X77768267Y-154434000D01*
X96362733Y-153414000D02*
X96705267Y-153414000D01*
X96362733Y-154434000D02*
X96705267Y-154434000D01*
X115525733Y-153414000D02*
X115868267Y-153414000D01*
X115525733Y-154434000D02*
X115868267Y-154434000D01*
X148634267Y-154434000D02*
X148291733Y-154434000D01*
X148634267Y-153414000D02*
X148291733Y-153414000D01*
X167176267Y-154434000D02*
X166833733Y-154434000D01*
X167176267Y-153414000D02*
X166833733Y-153414000D01*
X186226267Y-154434000D02*
X185883733Y-154434000D01*
X186226267Y-153414000D02*
X185883733Y-153414000D01*
X94109000Y-50628733D02*
X94109000Y-50971267D01*
X93089000Y-50628733D02*
X93089000Y-50971267D01*
X138047000Y-53144267D02*
X138047000Y-52801733D01*
X139067000Y-53144267D02*
X139067000Y-52801733D01*
X79105000Y-49698000D02*
X79105000Y-45848000D01*
X77105000Y-49698000D02*
X77105000Y-45848000D01*
X79105000Y-49698000D02*
X77105000Y-49698000D01*
X98155000Y-49698000D02*
X98155000Y-45848000D01*
X96155000Y-49698000D02*
X96155000Y-45848000D01*
X98155000Y-49698000D02*
X96155000Y-49698000D01*
X105521000Y-49698000D02*
X105521000Y-45848000D01*
X103521000Y-49698000D02*
X103521000Y-45848000D01*
X105521000Y-49698000D02*
X103521000Y-49698000D01*
X141081000Y-78146000D02*
X141081000Y-74296000D01*
X139081000Y-78146000D02*
X139081000Y-74296000D01*
X141081000Y-78146000D02*
X139081000Y-78146000D01*
X160131000Y-78146000D02*
X160131000Y-74296000D01*
X158131000Y-78146000D02*
X158131000Y-74296000D01*
X160131000Y-78146000D02*
X158131000Y-78146000D01*
X179181000Y-78146000D02*
X179181000Y-74296000D01*
X177181000Y-78146000D02*
X177181000Y-74296000D01*
X179181000Y-78146000D02*
X177181000Y-78146000D01*
X198231000Y-78146000D02*
X198231000Y-74296000D01*
X196231000Y-78146000D02*
X196231000Y-74296000D01*
X198231000Y-78146000D02*
X196231000Y-78146000D01*
X79105000Y-78146000D02*
X79105000Y-74296000D01*
X77105000Y-78146000D02*
X77105000Y-74296000D01*
X79105000Y-78146000D02*
X77105000Y-78146000D01*
X98155000Y-78146000D02*
X98155000Y-74296000D01*
X96155000Y-78146000D02*
X96155000Y-74296000D01*
X98155000Y-78146000D02*
X96155000Y-78146000D01*
X117205000Y-78146000D02*
X117205000Y-74296000D01*
X115205000Y-78146000D02*
X115205000Y-74296000D01*
X117205000Y-78146000D02*
X115205000Y-78146000D01*
X141081000Y-97196000D02*
X141081000Y-93346000D01*
X139081000Y-97196000D02*
X139081000Y-93346000D01*
X141081000Y-97196000D02*
X139081000Y-97196000D01*
X160131000Y-97196000D02*
X160131000Y-93346000D01*
X158131000Y-97196000D02*
X158131000Y-93346000D01*
X160131000Y-97196000D02*
X158131000Y-97196000D01*
X179181000Y-97196000D02*
X179181000Y-93346000D01*
X177181000Y-97196000D02*
X177181000Y-93346000D01*
X179181000Y-97196000D02*
X177181000Y-97196000D01*
X184007000Y-97450000D02*
X184007000Y-93600000D01*
X182007000Y-97450000D02*
X182007000Y-93600000D01*
X184007000Y-97450000D02*
X182007000Y-97450000D01*
X79105000Y-88052000D02*
X79105000Y-84202000D01*
X77105000Y-88052000D02*
X77105000Y-84202000D01*
X79105000Y-88052000D02*
X77105000Y-88052000D01*
X98155000Y-88052000D02*
X98155000Y-84202000D01*
X96155000Y-88052000D02*
X96155000Y-84202000D01*
X98155000Y-88052000D02*
X96155000Y-88052000D01*
X117205000Y-88052000D02*
X117205000Y-84202000D01*
X115205000Y-88052000D02*
X115205000Y-84202000D01*
X117205000Y-88052000D02*
X115205000Y-88052000D01*
X141081000Y-107102000D02*
X141081000Y-103252000D01*
X139081000Y-107102000D02*
X139081000Y-103252000D01*
X141081000Y-107102000D02*
X139081000Y-107102000D01*
X160131000Y-107102000D02*
X160131000Y-103252000D01*
X158131000Y-107102000D02*
X158131000Y-103252000D01*
X160131000Y-107102000D02*
X158131000Y-107102000D01*
X179181000Y-107102000D02*
X179181000Y-103252000D01*
X177181000Y-107102000D02*
X177181000Y-103252000D01*
X179181000Y-107102000D02*
X177181000Y-107102000D01*
X184007000Y-107102000D02*
X184007000Y-103252000D01*
X182007000Y-107102000D02*
X182007000Y-103252000D01*
X184007000Y-107102000D02*
X182007000Y-107102000D01*
X79105000Y-135296000D02*
X79105000Y-131446000D01*
X77105000Y-135296000D02*
X77105000Y-131446000D01*
X79105000Y-135296000D02*
X77105000Y-135296000D01*
X98155000Y-135296000D02*
X98155000Y-131446000D01*
X96155000Y-135296000D02*
X96155000Y-131446000D01*
X98155000Y-135296000D02*
X96155000Y-135296000D01*
X117205000Y-135296000D02*
X117205000Y-131446000D01*
X115205000Y-135296000D02*
X115205000Y-131446000D01*
X117205000Y-135296000D02*
X115205000Y-135296000D01*
X141081000Y-135296000D02*
X141081000Y-131446000D01*
X139081000Y-135296000D02*
X139081000Y-131446000D01*
X141081000Y-135296000D02*
X139081000Y-135296000D01*
X160131000Y-135296000D02*
X160131000Y-131446000D01*
X158131000Y-135296000D02*
X158131000Y-131446000D01*
X160131000Y-135296000D02*
X158131000Y-135296000D01*
X179180999Y-135296000D02*
X179180999Y-131446000D01*
X177180999Y-135296000D02*
X177180999Y-131446000D01*
X179180999Y-135296000D02*
X177180999Y-135296000D01*
X184007000Y-135296000D02*
X184007000Y-131446000D01*
X182007000Y-135296000D02*
X182007000Y-131446000D01*
X184007000Y-135296000D02*
X182007000Y-135296000D01*
X79105000Y-145202000D02*
X79105000Y-141352000D01*
X77105000Y-145202000D02*
X77105000Y-141352000D01*
X79105000Y-145202000D02*
X77105000Y-145202000D01*
X98155000Y-145202000D02*
X98155000Y-141352000D01*
X96155000Y-145202000D02*
X96155000Y-141352000D01*
X98155000Y-145202000D02*
X96155000Y-145202000D01*
X117205000Y-145202000D02*
X117205000Y-141352000D01*
X115205000Y-145202000D02*
X115205000Y-141352000D01*
X117205000Y-145202000D02*
X115205000Y-145202000D01*
X141081000Y-140630000D02*
X141081000Y-136780000D01*
X139081000Y-140630000D02*
X139081000Y-136780000D01*
X141081000Y-140630000D02*
X139081000Y-140630000D01*
X160131000Y-145202000D02*
X160131000Y-141352000D01*
X158131000Y-145202000D02*
X158131000Y-141352000D01*
X160131000Y-145202000D02*
X158131000Y-145202000D01*
X179181000Y-145202000D02*
X179181000Y-141352000D01*
X177181000Y-145202000D02*
X177181000Y-141352000D01*
X179181000Y-145202000D02*
X177181000Y-145202000D01*
X184007000Y-145202000D02*
X184007000Y-141352000D01*
X182007000Y-145202000D02*
X182007000Y-141352000D01*
X184007000Y-145202000D02*
X182007000Y-145202000D01*
X161147000Y-44364000D02*
X161147000Y-40514000D01*
X159147000Y-44364000D02*
X159147000Y-40514000D01*
X161147000Y-44364000D02*
X159147000Y-44364000D01*
X199247000Y-44364000D02*
X199247000Y-40514000D01*
X197247000Y-44364000D02*
X197247000Y-40514000D01*
X199247000Y-44364000D02*
X197247000Y-44364000D01*
X131781733Y-58164000D02*
X132124267Y-58164000D01*
X131781733Y-59184000D02*
X132124267Y-59184000D01*
X89537000Y-50628733D02*
X89537000Y-50971267D01*
X88517000Y-50628733D02*
X88517000Y-50971267D01*
X132336000Y-79076733D02*
X132336000Y-79419267D01*
X131316000Y-79076733D02*
X131316000Y-79419267D01*
X137035000Y-79076733D02*
X137035000Y-79419267D01*
X136015000Y-79076733D02*
X136015000Y-79419267D01*
D11*
X77223857Y-138534380D02*
X77557190Y-138058190D01*
X77795285Y-138534380D02*
X77795285Y-137534380D01*
X77414333Y-137534380D01*
X77319095Y-137582000D01*
X77271476Y-137629619D01*
X77223857Y-137724857D01*
X77223857Y-137867714D01*
X77271476Y-137962952D01*
X77319095Y-138010571D01*
X77414333Y-138058190D01*
X77795285Y-138058190D01*
X76842904Y-137629619D02*
X76795285Y-137582000D01*
X76700047Y-137534380D01*
X76461952Y-137534380D01*
X76366714Y-137582000D01*
X76319095Y-137629619D01*
X76271476Y-137724857D01*
X76271476Y-137820095D01*
X76319095Y-137962952D01*
X76890523Y-138534380D01*
X76271476Y-138534380D01*
X75938142Y-137534380D02*
X75319095Y-137534380D01*
X75652428Y-137915333D01*
X75509571Y-137915333D01*
X75414333Y-137962952D01*
X75366714Y-138010571D01*
X75319095Y-138105809D01*
X75319095Y-138343904D01*
X75366714Y-138439142D01*
X75414333Y-138486761D01*
X75509571Y-138534380D01*
X75795285Y-138534380D01*
X75890523Y-138486761D01*
X75938142Y-138439142D01*
X72429666Y-53444380D02*
X72763000Y-52968190D01*
X73001095Y-53444380D02*
X73001095Y-52444380D01*
X72620142Y-52444380D01*
X72524904Y-52492000D01*
X72477285Y-52539619D01*
X72429666Y-52634857D01*
X72429666Y-52777714D01*
X72477285Y-52872952D01*
X72524904Y-52920571D01*
X72620142Y-52968190D01*
X73001095Y-52968190D01*
X71477285Y-53444380D02*
X72048714Y-53444380D01*
X71763000Y-53444380D02*
X71763000Y-52444380D01*
X71858238Y-52587238D01*
X71953476Y-52682476D01*
X72048714Y-52730095D01*
X115863666Y-52682380D02*
X116197000Y-52206190D01*
X116435095Y-52682380D02*
X116435095Y-51682380D01*
X116054142Y-51682380D01*
X115958904Y-51730000D01*
X115911285Y-51777619D01*
X115863666Y-51872857D01*
X115863666Y-52015714D01*
X115911285Y-52110952D01*
X115958904Y-52158571D01*
X116054142Y-52206190D01*
X116435095Y-52206190D01*
X115530333Y-51682380D02*
X114911285Y-51682380D01*
X115244619Y-52063333D01*
X115101761Y-52063333D01*
X115006523Y-52110952D01*
X114958904Y-52158571D01*
X114911285Y-52253809D01*
X114911285Y-52491904D01*
X114958904Y-52587142D01*
X115006523Y-52634761D01*
X115101761Y-52682380D01*
X115387476Y-52682380D01*
X115482714Y-52634761D01*
X115530333Y-52587142D01*
X153455666Y-79222880D02*
X153789000Y-78746690D01*
X154027095Y-79222880D02*
X154027095Y-78222880D01*
X153646142Y-78222880D01*
X153550904Y-78270500D01*
X153503285Y-78318119D01*
X153455666Y-78413357D01*
X153455666Y-78556214D01*
X153503285Y-78651452D01*
X153550904Y-78699071D01*
X153646142Y-78746690D01*
X154027095Y-78746690D01*
X152550904Y-78222880D02*
X153027095Y-78222880D01*
X153074714Y-78699071D01*
X153027095Y-78651452D01*
X152931857Y-78603833D01*
X152693761Y-78603833D01*
X152598523Y-78651452D01*
X152550904Y-78699071D01*
X152503285Y-78794309D01*
X152503285Y-79032404D01*
X152550904Y-79127642D01*
X152598523Y-79175261D01*
X152693761Y-79222880D01*
X152931857Y-79222880D01*
X153027095Y-79175261D01*
X153074714Y-79127642D01*
X172442166Y-79222880D02*
X172775500Y-78746690D01*
X173013595Y-79222880D02*
X173013595Y-78222880D01*
X172632642Y-78222880D01*
X172537404Y-78270500D01*
X172489785Y-78318119D01*
X172442166Y-78413357D01*
X172442166Y-78556214D01*
X172489785Y-78651452D01*
X172537404Y-78699071D01*
X172632642Y-78746690D01*
X173013595Y-78746690D01*
X171585023Y-78222880D02*
X171775500Y-78222880D01*
X171870738Y-78270500D01*
X171918357Y-78318119D01*
X172013595Y-78460976D01*
X172061214Y-78651452D01*
X172061214Y-79032404D01*
X172013595Y-79127642D01*
X171965976Y-79175261D01*
X171870738Y-79222880D01*
X171680261Y-79222880D01*
X171585023Y-79175261D01*
X171537404Y-79127642D01*
X171489785Y-79032404D01*
X171489785Y-78794309D01*
X171537404Y-78699071D01*
X171585023Y-78651452D01*
X171680261Y-78603833D01*
X171870738Y-78603833D01*
X171965976Y-78651452D01*
X172013595Y-78699071D01*
X172061214Y-78794309D01*
X191492166Y-79222880D02*
X191825500Y-78746690D01*
X192063595Y-79222880D02*
X192063595Y-78222880D01*
X191682642Y-78222880D01*
X191587404Y-78270500D01*
X191539785Y-78318119D01*
X191492166Y-78413357D01*
X191492166Y-78556214D01*
X191539785Y-78651452D01*
X191587404Y-78699071D01*
X191682642Y-78746690D01*
X192063595Y-78746690D01*
X191158833Y-78222880D02*
X190492166Y-78222880D01*
X190920738Y-79222880D01*
X183681666Y-99860380D02*
X184015000Y-99384190D01*
X184253095Y-99860380D02*
X184253095Y-98860380D01*
X183872142Y-98860380D01*
X183776904Y-98908000D01*
X183729285Y-98955619D01*
X183681666Y-99050857D01*
X183681666Y-99193714D01*
X183729285Y-99288952D01*
X183776904Y-99336571D01*
X183872142Y-99384190D01*
X184253095Y-99384190D01*
X183110238Y-99288952D02*
X183205476Y-99241333D01*
X183253095Y-99193714D01*
X183300714Y-99098476D01*
X183300714Y-99050857D01*
X183253095Y-98955619D01*
X183205476Y-98908000D01*
X183110238Y-98860380D01*
X182919761Y-98860380D01*
X182824523Y-98908000D01*
X182776904Y-98955619D01*
X182729285Y-99050857D01*
X182729285Y-99098476D01*
X182776904Y-99193714D01*
X182824523Y-99241333D01*
X182919761Y-99288952D01*
X183110238Y-99288952D01*
X183205476Y-99336571D01*
X183253095Y-99384190D01*
X183300714Y-99479428D01*
X183300714Y-99669904D01*
X183253095Y-99765142D01*
X183205476Y-99812761D01*
X183110238Y-99860380D01*
X182919761Y-99860380D01*
X182824523Y-99812761D01*
X182776904Y-99765142D01*
X182729285Y-99669904D01*
X182729285Y-99479428D01*
X182776904Y-99384190D01*
X182824523Y-99336571D01*
X182919761Y-99288952D01*
X77763666Y-81384380D02*
X78097000Y-80908190D01*
X78335095Y-81384380D02*
X78335095Y-80384380D01*
X77954142Y-80384380D01*
X77858904Y-80432000D01*
X77811285Y-80479619D01*
X77763666Y-80574857D01*
X77763666Y-80717714D01*
X77811285Y-80812952D01*
X77858904Y-80860571D01*
X77954142Y-80908190D01*
X78335095Y-80908190D01*
X77287476Y-81384380D02*
X77097000Y-81384380D01*
X77001761Y-81336761D01*
X76954142Y-81289142D01*
X76858904Y-81146285D01*
X76811285Y-80955809D01*
X76811285Y-80574857D01*
X76858904Y-80479619D01*
X76906523Y-80432000D01*
X77001761Y-80384380D01*
X77192238Y-80384380D01*
X77287476Y-80432000D01*
X77335095Y-80479619D01*
X77382714Y-80574857D01*
X77382714Y-80812952D01*
X77335095Y-80908190D01*
X77287476Y-80955809D01*
X77192238Y-81003428D01*
X77001761Y-81003428D01*
X76906523Y-80955809D01*
X76858904Y-80908190D01*
X76811285Y-80812952D01*
X97289857Y-81384380D02*
X97623190Y-80908190D01*
X97861285Y-81384380D02*
X97861285Y-80384380D01*
X97480333Y-80384380D01*
X97385095Y-80432000D01*
X97337476Y-80479619D01*
X97289857Y-80574857D01*
X97289857Y-80717714D01*
X97337476Y-80812952D01*
X97385095Y-80860571D01*
X97480333Y-80908190D01*
X97861285Y-80908190D01*
X96337476Y-81384380D02*
X96908904Y-81384380D01*
X96623190Y-81384380D02*
X96623190Y-80384380D01*
X96718428Y-80527238D01*
X96813666Y-80622476D01*
X96908904Y-80670095D01*
X95718428Y-80384380D02*
X95623190Y-80384380D01*
X95527952Y-80432000D01*
X95480333Y-80479619D01*
X95432714Y-80574857D01*
X95385095Y-80765333D01*
X95385095Y-81003428D01*
X95432714Y-81193904D01*
X95480333Y-81289142D01*
X95527952Y-81336761D01*
X95623190Y-81384380D01*
X95718428Y-81384380D01*
X95813666Y-81336761D01*
X95861285Y-81289142D01*
X95908904Y-81193904D01*
X95956523Y-81003428D01*
X95956523Y-80765333D01*
X95908904Y-80574857D01*
X95861285Y-80479619D01*
X95813666Y-80432000D01*
X95718428Y-80384380D01*
X116339857Y-81384380D02*
X116673190Y-80908190D01*
X116911285Y-81384380D02*
X116911285Y-80384380D01*
X116530333Y-80384380D01*
X116435095Y-80432000D01*
X116387476Y-80479619D01*
X116339857Y-80574857D01*
X116339857Y-80717714D01*
X116387476Y-80812952D01*
X116435095Y-80860571D01*
X116530333Y-80908190D01*
X116911285Y-80908190D01*
X115387476Y-81384380D02*
X115958904Y-81384380D01*
X115673190Y-81384380D02*
X115673190Y-80384380D01*
X115768428Y-80527238D01*
X115863666Y-80622476D01*
X115958904Y-80670095D01*
X114435095Y-81384380D02*
X115006523Y-81384380D01*
X114720809Y-81384380D02*
X114720809Y-80384380D01*
X114816047Y-80527238D01*
X114911285Y-80622476D01*
X115006523Y-80670095D01*
X134818357Y-98272880D02*
X135151690Y-97796690D01*
X135389785Y-98272880D02*
X135389785Y-97272880D01*
X135008833Y-97272880D01*
X134913595Y-97320500D01*
X134865976Y-97368119D01*
X134818357Y-97463357D01*
X134818357Y-97606214D01*
X134865976Y-97701452D01*
X134913595Y-97749071D01*
X135008833Y-97796690D01*
X135389785Y-97796690D01*
X133865976Y-98272880D02*
X134437404Y-98272880D01*
X134151690Y-98272880D02*
X134151690Y-97272880D01*
X134246928Y-97415738D01*
X134342166Y-97510976D01*
X134437404Y-97558595D01*
X133485023Y-97368119D02*
X133437404Y-97320500D01*
X133342166Y-97272880D01*
X133104071Y-97272880D01*
X133008833Y-97320500D01*
X132961214Y-97368119D01*
X132913595Y-97463357D01*
X132913595Y-97558595D01*
X132961214Y-97701452D01*
X133532642Y-98272880D01*
X132913595Y-98272880D01*
X153868357Y-98272880D02*
X154201690Y-97796690D01*
X154439785Y-98272880D02*
X154439785Y-97272880D01*
X154058833Y-97272880D01*
X153963595Y-97320500D01*
X153915976Y-97368119D01*
X153868357Y-97463357D01*
X153868357Y-97606214D01*
X153915976Y-97701452D01*
X153963595Y-97749071D01*
X154058833Y-97796690D01*
X154439785Y-97796690D01*
X152915976Y-98272880D02*
X153487404Y-98272880D01*
X153201690Y-98272880D02*
X153201690Y-97272880D01*
X153296928Y-97415738D01*
X153392166Y-97510976D01*
X153487404Y-97558595D01*
X152582642Y-97272880D02*
X151963595Y-97272880D01*
X152296928Y-97653833D01*
X152154071Y-97653833D01*
X152058833Y-97701452D01*
X152011214Y-97749071D01*
X151963595Y-97844309D01*
X151963595Y-98082404D01*
X152011214Y-98177642D01*
X152058833Y-98225261D01*
X152154071Y-98272880D01*
X152439785Y-98272880D01*
X152535023Y-98225261D01*
X152582642Y-98177642D01*
X172918357Y-98272880D02*
X173251690Y-97796690D01*
X173489785Y-98272880D02*
X173489785Y-97272880D01*
X173108833Y-97272880D01*
X173013595Y-97320500D01*
X172965976Y-97368119D01*
X172918357Y-97463357D01*
X172918357Y-97606214D01*
X172965976Y-97701452D01*
X173013595Y-97749071D01*
X173108833Y-97796690D01*
X173489785Y-97796690D01*
X171965976Y-98272880D02*
X172537404Y-98272880D01*
X172251690Y-98272880D02*
X172251690Y-97272880D01*
X172346928Y-97415738D01*
X172442166Y-97510976D01*
X172537404Y-97558595D01*
X171108833Y-97606214D02*
X171108833Y-98272880D01*
X171346928Y-97225261D02*
X171585023Y-97939547D01*
X170965976Y-97939547D01*
X78239857Y-100434380D02*
X78573190Y-99958190D01*
X78811285Y-100434380D02*
X78811285Y-99434380D01*
X78430333Y-99434380D01*
X78335095Y-99482000D01*
X78287476Y-99529619D01*
X78239857Y-99624857D01*
X78239857Y-99767714D01*
X78287476Y-99862952D01*
X78335095Y-99910571D01*
X78430333Y-99958190D01*
X78811285Y-99958190D01*
X77287476Y-100434380D02*
X77858904Y-100434380D01*
X77573190Y-100434380D02*
X77573190Y-99434380D01*
X77668428Y-99577238D01*
X77763666Y-99672476D01*
X77858904Y-99720095D01*
X76382714Y-99434380D02*
X76858904Y-99434380D01*
X76906523Y-99910571D01*
X76858904Y-99862952D01*
X76763666Y-99815333D01*
X76525571Y-99815333D01*
X76430333Y-99862952D01*
X76382714Y-99910571D01*
X76335095Y-100005809D01*
X76335095Y-100243904D01*
X76382714Y-100339142D01*
X76430333Y-100386761D01*
X76525571Y-100434380D01*
X76763666Y-100434380D01*
X76858904Y-100386761D01*
X76906523Y-100339142D01*
X97289857Y-100434380D02*
X97623190Y-99958190D01*
X97861285Y-100434380D02*
X97861285Y-99434380D01*
X97480333Y-99434380D01*
X97385095Y-99482000D01*
X97337476Y-99529619D01*
X97289857Y-99624857D01*
X97289857Y-99767714D01*
X97337476Y-99862952D01*
X97385095Y-99910571D01*
X97480333Y-99958190D01*
X97861285Y-99958190D01*
X96337476Y-100434380D02*
X96908904Y-100434380D01*
X96623190Y-100434380D02*
X96623190Y-99434380D01*
X96718428Y-99577238D01*
X96813666Y-99672476D01*
X96908904Y-99720095D01*
X95480333Y-99434380D02*
X95670809Y-99434380D01*
X95766047Y-99482000D01*
X95813666Y-99529619D01*
X95908904Y-99672476D01*
X95956523Y-99862952D01*
X95956523Y-100243904D01*
X95908904Y-100339142D01*
X95861285Y-100386761D01*
X95766047Y-100434380D01*
X95575571Y-100434380D01*
X95480333Y-100386761D01*
X95432714Y-100339142D01*
X95385095Y-100243904D01*
X95385095Y-100005809D01*
X95432714Y-99910571D01*
X95480333Y-99862952D01*
X95575571Y-99815333D01*
X95766047Y-99815333D01*
X95861285Y-99862952D01*
X95908904Y-99910571D01*
X95956523Y-100005809D01*
X116480857Y-100434380D02*
X116814190Y-99958190D01*
X117052285Y-100434380D02*
X117052285Y-99434380D01*
X116671333Y-99434380D01*
X116576095Y-99482000D01*
X116528476Y-99529619D01*
X116480857Y-99624857D01*
X116480857Y-99767714D01*
X116528476Y-99862952D01*
X116576095Y-99910571D01*
X116671333Y-99958190D01*
X117052285Y-99958190D01*
X115528476Y-100434380D02*
X116099904Y-100434380D01*
X115814190Y-100434380D02*
X115814190Y-99434380D01*
X115909428Y-99577238D01*
X116004666Y-99672476D01*
X116099904Y-99720095D01*
X115195142Y-99434380D02*
X114528476Y-99434380D01*
X114957047Y-100434380D01*
X134818357Y-117322880D02*
X135151690Y-116846690D01*
X135389785Y-117322880D02*
X135389785Y-116322880D01*
X135008833Y-116322880D01*
X134913595Y-116370500D01*
X134865976Y-116418119D01*
X134818357Y-116513357D01*
X134818357Y-116656214D01*
X134865976Y-116751452D01*
X134913595Y-116799071D01*
X135008833Y-116846690D01*
X135389785Y-116846690D01*
X133865976Y-117322880D02*
X134437404Y-117322880D01*
X134151690Y-117322880D02*
X134151690Y-116322880D01*
X134246928Y-116465738D01*
X134342166Y-116560976D01*
X134437404Y-116608595D01*
X133294547Y-116751452D02*
X133389785Y-116703833D01*
X133437404Y-116656214D01*
X133485023Y-116560976D01*
X133485023Y-116513357D01*
X133437404Y-116418119D01*
X133389785Y-116370500D01*
X133294547Y-116322880D01*
X133104071Y-116322880D01*
X133008833Y-116370500D01*
X132961214Y-116418119D01*
X132913595Y-116513357D01*
X132913595Y-116560976D01*
X132961214Y-116656214D01*
X133008833Y-116703833D01*
X133104071Y-116751452D01*
X133294547Y-116751452D01*
X133389785Y-116799071D01*
X133437404Y-116846690D01*
X133485023Y-116941928D01*
X133485023Y-117132404D01*
X133437404Y-117227642D01*
X133389785Y-117275261D01*
X133294547Y-117322880D01*
X133104071Y-117322880D01*
X133008833Y-117275261D01*
X132961214Y-117227642D01*
X132913595Y-117132404D01*
X132913595Y-116941928D01*
X132961214Y-116846690D01*
X133008833Y-116799071D01*
X133104071Y-116751452D01*
X153868357Y-117322880D02*
X154201690Y-116846690D01*
X154439785Y-117322880D02*
X154439785Y-116322880D01*
X154058833Y-116322880D01*
X153963595Y-116370500D01*
X153915976Y-116418119D01*
X153868357Y-116513357D01*
X153868357Y-116656214D01*
X153915976Y-116751452D01*
X153963595Y-116799071D01*
X154058833Y-116846690D01*
X154439785Y-116846690D01*
X152915976Y-117322880D02*
X153487404Y-117322880D01*
X153201690Y-117322880D02*
X153201690Y-116322880D01*
X153296928Y-116465738D01*
X153392166Y-116560976D01*
X153487404Y-116608595D01*
X152439785Y-117322880D02*
X152249309Y-117322880D01*
X152154071Y-117275261D01*
X152106452Y-117227642D01*
X152011214Y-117084785D01*
X151963595Y-116894309D01*
X151963595Y-116513357D01*
X152011214Y-116418119D01*
X152058833Y-116370500D01*
X152154071Y-116322880D01*
X152344547Y-116322880D01*
X152439785Y-116370500D01*
X152487404Y-116418119D01*
X152535023Y-116513357D01*
X152535023Y-116751452D01*
X152487404Y-116846690D01*
X152439785Y-116894309D01*
X152344547Y-116941928D01*
X152154071Y-116941928D01*
X152058833Y-116894309D01*
X152011214Y-116846690D01*
X151963595Y-116751452D01*
X172918357Y-117322880D02*
X173251690Y-116846690D01*
X173489785Y-117322880D02*
X173489785Y-116322880D01*
X173108833Y-116322880D01*
X173013595Y-116370500D01*
X172965976Y-116418119D01*
X172918357Y-116513357D01*
X172918357Y-116656214D01*
X172965976Y-116751452D01*
X173013595Y-116799071D01*
X173108833Y-116846690D01*
X173489785Y-116846690D01*
X172537404Y-116418119D02*
X172489785Y-116370500D01*
X172394547Y-116322880D01*
X172156452Y-116322880D01*
X172061214Y-116370500D01*
X172013595Y-116418119D01*
X171965976Y-116513357D01*
X171965976Y-116608595D01*
X172013595Y-116751452D01*
X172585023Y-117322880D01*
X171965976Y-117322880D01*
X171346928Y-116322880D02*
X171251690Y-116322880D01*
X171156452Y-116370500D01*
X171108833Y-116418119D01*
X171061214Y-116513357D01*
X171013595Y-116703833D01*
X171013595Y-116941928D01*
X171061214Y-117132404D01*
X171108833Y-117227642D01*
X171156452Y-117275261D01*
X171251690Y-117322880D01*
X171346928Y-117322880D01*
X171442166Y-117275261D01*
X171489785Y-117227642D01*
X171537404Y-117132404D01*
X171585023Y-116941928D01*
X171585023Y-116703833D01*
X171537404Y-116513357D01*
X171489785Y-116418119D01*
X171442166Y-116370500D01*
X171346928Y-116322880D01*
X184157857Y-118910380D02*
X184491190Y-118434190D01*
X184729285Y-118910380D02*
X184729285Y-117910380D01*
X184348333Y-117910380D01*
X184253095Y-117958000D01*
X184205476Y-118005619D01*
X184157857Y-118100857D01*
X184157857Y-118243714D01*
X184205476Y-118338952D01*
X184253095Y-118386571D01*
X184348333Y-118434190D01*
X184729285Y-118434190D01*
X183776904Y-118005619D02*
X183729285Y-117958000D01*
X183634047Y-117910380D01*
X183395952Y-117910380D01*
X183300714Y-117958000D01*
X183253095Y-118005619D01*
X183205476Y-118100857D01*
X183205476Y-118196095D01*
X183253095Y-118338952D01*
X183824523Y-118910380D01*
X183205476Y-118910380D01*
X182253095Y-118910380D02*
X182824523Y-118910380D01*
X182538809Y-118910380D02*
X182538809Y-117910380D01*
X182634047Y-118053238D01*
X182729285Y-118148476D01*
X182824523Y-118196095D01*
X191968357Y-117322880D02*
X192301690Y-116846690D01*
X192539785Y-117322880D02*
X192539785Y-116322880D01*
X192158833Y-116322880D01*
X192063595Y-116370500D01*
X192015976Y-116418119D01*
X191968357Y-116513357D01*
X191968357Y-116656214D01*
X192015976Y-116751452D01*
X192063595Y-116799071D01*
X192158833Y-116846690D01*
X192539785Y-116846690D01*
X191587404Y-116418119D02*
X191539785Y-116370500D01*
X191444547Y-116322880D01*
X191206452Y-116322880D01*
X191111214Y-116370500D01*
X191063595Y-116418119D01*
X191015976Y-116513357D01*
X191015976Y-116608595D01*
X191063595Y-116751452D01*
X191635023Y-117322880D01*
X191015976Y-117322880D01*
X190635023Y-116418119D02*
X190587404Y-116370500D01*
X190492166Y-116322880D01*
X190254071Y-116322880D01*
X190158833Y-116370500D01*
X190111214Y-116418119D01*
X190063595Y-116513357D01*
X190063595Y-116608595D01*
X190111214Y-116751452D01*
X190682642Y-117322880D01*
X190063595Y-117322880D01*
X97289857Y-138534380D02*
X97623190Y-138058190D01*
X97861285Y-138534380D02*
X97861285Y-137534380D01*
X97480333Y-137534380D01*
X97385095Y-137582000D01*
X97337476Y-137629619D01*
X97289857Y-137724857D01*
X97289857Y-137867714D01*
X97337476Y-137962952D01*
X97385095Y-138010571D01*
X97480333Y-138058190D01*
X97861285Y-138058190D01*
X96908904Y-137629619D02*
X96861285Y-137582000D01*
X96766047Y-137534380D01*
X96527952Y-137534380D01*
X96432714Y-137582000D01*
X96385095Y-137629619D01*
X96337476Y-137724857D01*
X96337476Y-137820095D01*
X96385095Y-137962952D01*
X96956523Y-138534380D01*
X96337476Y-138534380D01*
X95480333Y-137867714D02*
X95480333Y-138534380D01*
X95718428Y-137486761D02*
X95956523Y-138201047D01*
X95337476Y-138201047D01*
X116339857Y-138534380D02*
X116673190Y-138058190D01*
X116911285Y-138534380D02*
X116911285Y-137534380D01*
X116530333Y-137534380D01*
X116435095Y-137582000D01*
X116387476Y-137629619D01*
X116339857Y-137724857D01*
X116339857Y-137867714D01*
X116387476Y-137962952D01*
X116435095Y-138010571D01*
X116530333Y-138058190D01*
X116911285Y-138058190D01*
X115958904Y-137629619D02*
X115911285Y-137582000D01*
X115816047Y-137534380D01*
X115577952Y-137534380D01*
X115482714Y-137582000D01*
X115435095Y-137629619D01*
X115387476Y-137724857D01*
X115387476Y-137820095D01*
X115435095Y-137962952D01*
X116006523Y-138534380D01*
X115387476Y-138534380D01*
X114482714Y-137534380D02*
X114958904Y-137534380D01*
X115006523Y-138010571D01*
X114958904Y-137962952D01*
X114863666Y-137915333D01*
X114625571Y-137915333D01*
X114530333Y-137962952D01*
X114482714Y-138010571D01*
X114435095Y-138105809D01*
X114435095Y-138343904D01*
X114482714Y-138439142D01*
X114530333Y-138486761D01*
X114625571Y-138534380D01*
X114863666Y-138534380D01*
X114958904Y-138486761D01*
X115006523Y-138439142D01*
X129547857Y-133896380D02*
X129881190Y-133420190D01*
X130119285Y-133896380D02*
X130119285Y-132896380D01*
X129738333Y-132896380D01*
X129643095Y-132944000D01*
X129595476Y-132991619D01*
X129547857Y-133086857D01*
X129547857Y-133229714D01*
X129595476Y-133324952D01*
X129643095Y-133372571D01*
X129738333Y-133420190D01*
X130119285Y-133420190D01*
X129166904Y-132991619D02*
X129119285Y-132944000D01*
X129024047Y-132896380D01*
X128785952Y-132896380D01*
X128690714Y-132944000D01*
X128643095Y-132991619D01*
X128595476Y-133086857D01*
X128595476Y-133182095D01*
X128643095Y-133324952D01*
X129214523Y-133896380D01*
X128595476Y-133896380D01*
X127738333Y-132896380D02*
X127928809Y-132896380D01*
X128024047Y-132944000D01*
X128071666Y-132991619D01*
X128166904Y-133134476D01*
X128214523Y-133324952D01*
X128214523Y-133705904D01*
X128166904Y-133801142D01*
X128119285Y-133848761D01*
X128024047Y-133896380D01*
X127833571Y-133896380D01*
X127738333Y-133848761D01*
X127690714Y-133801142D01*
X127643095Y-133705904D01*
X127643095Y-133467809D01*
X127690714Y-133372571D01*
X127738333Y-133324952D01*
X127833571Y-133277333D01*
X128024047Y-133277333D01*
X128119285Y-133324952D01*
X128166904Y-133372571D01*
X128214523Y-133467809D01*
X148597857Y-133896380D02*
X148931190Y-133420190D01*
X149169285Y-133896380D02*
X149169285Y-132896380D01*
X148788333Y-132896380D01*
X148693095Y-132944000D01*
X148645476Y-132991619D01*
X148597857Y-133086857D01*
X148597857Y-133229714D01*
X148645476Y-133324952D01*
X148693095Y-133372571D01*
X148788333Y-133420190D01*
X149169285Y-133420190D01*
X148216904Y-132991619D02*
X148169285Y-132944000D01*
X148074047Y-132896380D01*
X147835952Y-132896380D01*
X147740714Y-132944000D01*
X147693095Y-132991619D01*
X147645476Y-133086857D01*
X147645476Y-133182095D01*
X147693095Y-133324952D01*
X148264523Y-133896380D01*
X147645476Y-133896380D01*
X147312142Y-132896380D02*
X146645476Y-132896380D01*
X147074047Y-133896380D01*
X167647857Y-133896380D02*
X167981190Y-133420190D01*
X168219285Y-133896380D02*
X168219285Y-132896380D01*
X167838333Y-132896380D01*
X167743095Y-132944000D01*
X167695476Y-132991619D01*
X167647857Y-133086857D01*
X167647857Y-133229714D01*
X167695476Y-133324952D01*
X167743095Y-133372571D01*
X167838333Y-133420190D01*
X168219285Y-133420190D01*
X167266904Y-132991619D02*
X167219285Y-132944000D01*
X167124047Y-132896380D01*
X166885952Y-132896380D01*
X166790714Y-132944000D01*
X166743095Y-132991619D01*
X166695476Y-133086857D01*
X166695476Y-133182095D01*
X166743095Y-133324952D01*
X167314523Y-133896380D01*
X166695476Y-133896380D01*
X166124047Y-133324952D02*
X166219285Y-133277333D01*
X166266904Y-133229714D01*
X166314523Y-133134476D01*
X166314523Y-133086857D01*
X166266904Y-132991619D01*
X166219285Y-132944000D01*
X166124047Y-132896380D01*
X165933571Y-132896380D01*
X165838333Y-132944000D01*
X165790714Y-132991619D01*
X165743095Y-133086857D01*
X165743095Y-133134476D01*
X165790714Y-133229714D01*
X165838333Y-133277333D01*
X165933571Y-133324952D01*
X166124047Y-133324952D01*
X166219285Y-133372571D01*
X166266904Y-133420190D01*
X166314523Y-133515428D01*
X166314523Y-133705904D01*
X166266904Y-133801142D01*
X166219285Y-133848761D01*
X166124047Y-133896380D01*
X165933571Y-133896380D01*
X165838333Y-133848761D01*
X165790714Y-133801142D01*
X165743095Y-133705904D01*
X165743095Y-133515428D01*
X165790714Y-133420190D01*
X165838333Y-133372571D01*
X165933571Y-133324952D01*
X127769857Y-152946380D02*
X128103190Y-152470190D01*
X128341285Y-152946380D02*
X128341285Y-151946380D01*
X127960333Y-151946380D01*
X127865095Y-151994000D01*
X127817476Y-152041619D01*
X127769857Y-152136857D01*
X127769857Y-152279714D01*
X127817476Y-152374952D01*
X127865095Y-152422571D01*
X127960333Y-152470190D01*
X128341285Y-152470190D01*
X127388904Y-152041619D02*
X127341285Y-151994000D01*
X127246047Y-151946380D01*
X127007952Y-151946380D01*
X126912714Y-151994000D01*
X126865095Y-152041619D01*
X126817476Y-152136857D01*
X126817476Y-152232095D01*
X126865095Y-152374952D01*
X127436523Y-152946380D01*
X126817476Y-152946380D01*
X126341285Y-152946380D02*
X126150809Y-152946380D01*
X126055571Y-152898761D01*
X126007952Y-152851142D01*
X125912714Y-152708285D01*
X125865095Y-152517809D01*
X125865095Y-152136857D01*
X125912714Y-152041619D01*
X125960333Y-151994000D01*
X126055571Y-151946380D01*
X126246047Y-151946380D01*
X126341285Y-151994000D01*
X126388904Y-152041619D01*
X126436523Y-152136857D01*
X126436523Y-152374952D01*
X126388904Y-152470190D01*
X126341285Y-152517809D01*
X126246047Y-152565428D01*
X126055571Y-152565428D01*
X125960333Y-152517809D01*
X125912714Y-152470190D01*
X125865095Y-152374952D01*
X78239857Y-152852380D02*
X78573190Y-152376190D01*
X78811285Y-152852380D02*
X78811285Y-151852380D01*
X78430333Y-151852380D01*
X78335095Y-151900000D01*
X78287476Y-151947619D01*
X78239857Y-152042857D01*
X78239857Y-152185714D01*
X78287476Y-152280952D01*
X78335095Y-152328571D01*
X78430333Y-152376190D01*
X78811285Y-152376190D01*
X77906523Y-151852380D02*
X77287476Y-151852380D01*
X77620809Y-152233333D01*
X77477952Y-152233333D01*
X77382714Y-152280952D01*
X77335095Y-152328571D01*
X77287476Y-152423809D01*
X77287476Y-152661904D01*
X77335095Y-152757142D01*
X77382714Y-152804761D01*
X77477952Y-152852380D01*
X77763666Y-152852380D01*
X77858904Y-152804761D01*
X77906523Y-152757142D01*
X76668428Y-151852380D02*
X76573190Y-151852380D01*
X76477952Y-151900000D01*
X76430333Y-151947619D01*
X76382714Y-152042857D01*
X76335095Y-152233333D01*
X76335095Y-152471428D01*
X76382714Y-152661904D01*
X76430333Y-152757142D01*
X76477952Y-152804761D01*
X76573190Y-152852380D01*
X76668428Y-152852380D01*
X76763666Y-152804761D01*
X76811285Y-152757142D01*
X76858904Y-152661904D01*
X76906523Y-152471428D01*
X76906523Y-152233333D01*
X76858904Y-152042857D01*
X76811285Y-151947619D01*
X76763666Y-151900000D01*
X76668428Y-151852380D01*
X97176857Y-152852380D02*
X97510190Y-152376190D01*
X97748285Y-152852380D02*
X97748285Y-151852380D01*
X97367333Y-151852380D01*
X97272095Y-151900000D01*
X97224476Y-151947619D01*
X97176857Y-152042857D01*
X97176857Y-152185714D01*
X97224476Y-152280952D01*
X97272095Y-152328571D01*
X97367333Y-152376190D01*
X97748285Y-152376190D01*
X96843523Y-151852380D02*
X96224476Y-151852380D01*
X96557809Y-152233333D01*
X96414952Y-152233333D01*
X96319714Y-152280952D01*
X96272095Y-152328571D01*
X96224476Y-152423809D01*
X96224476Y-152661904D01*
X96272095Y-152757142D01*
X96319714Y-152804761D01*
X96414952Y-152852380D01*
X96700666Y-152852380D01*
X96795904Y-152804761D01*
X96843523Y-152757142D01*
X95272095Y-152852380D02*
X95843523Y-152852380D01*
X95557809Y-152852380D02*
X95557809Y-151852380D01*
X95653047Y-151995238D01*
X95748285Y-152090476D01*
X95843523Y-152138095D01*
X116339857Y-152852380D02*
X116673190Y-152376190D01*
X116911285Y-152852380D02*
X116911285Y-151852380D01*
X116530333Y-151852380D01*
X116435095Y-151900000D01*
X116387476Y-151947619D01*
X116339857Y-152042857D01*
X116339857Y-152185714D01*
X116387476Y-152280952D01*
X116435095Y-152328571D01*
X116530333Y-152376190D01*
X116911285Y-152376190D01*
X116006523Y-151852380D02*
X115387476Y-151852380D01*
X115720809Y-152233333D01*
X115577952Y-152233333D01*
X115482714Y-152280952D01*
X115435095Y-152328571D01*
X115387476Y-152423809D01*
X115387476Y-152661904D01*
X115435095Y-152757142D01*
X115482714Y-152804761D01*
X115577952Y-152852380D01*
X115863666Y-152852380D01*
X115958904Y-152804761D01*
X116006523Y-152757142D01*
X115006523Y-151947619D02*
X114958904Y-151900000D01*
X114863666Y-151852380D01*
X114625571Y-151852380D01*
X114530333Y-151900000D01*
X114482714Y-151947619D01*
X114435095Y-152042857D01*
X114435095Y-152138095D01*
X114482714Y-152280952D01*
X115054142Y-152852380D01*
X114435095Y-152852380D01*
X149105857Y-152946380D02*
X149439190Y-152470190D01*
X149677285Y-152946380D02*
X149677285Y-151946380D01*
X149296333Y-151946380D01*
X149201095Y-151994000D01*
X149153476Y-152041619D01*
X149105857Y-152136857D01*
X149105857Y-152279714D01*
X149153476Y-152374952D01*
X149201095Y-152422571D01*
X149296333Y-152470190D01*
X149677285Y-152470190D01*
X148772523Y-151946380D02*
X148153476Y-151946380D01*
X148486809Y-152327333D01*
X148343952Y-152327333D01*
X148248714Y-152374952D01*
X148201095Y-152422571D01*
X148153476Y-152517809D01*
X148153476Y-152755904D01*
X148201095Y-152851142D01*
X148248714Y-152898761D01*
X148343952Y-152946380D01*
X148629666Y-152946380D01*
X148724904Y-152898761D01*
X148772523Y-152851142D01*
X147820142Y-151946380D02*
X147201095Y-151946380D01*
X147534428Y-152327333D01*
X147391571Y-152327333D01*
X147296333Y-152374952D01*
X147248714Y-152422571D01*
X147201095Y-152517809D01*
X147201095Y-152755904D01*
X147248714Y-152851142D01*
X147296333Y-152898761D01*
X147391571Y-152946380D01*
X147677285Y-152946380D01*
X147772523Y-152898761D01*
X147820142Y-152851142D01*
X167647857Y-152946380D02*
X167981190Y-152470190D01*
X168219285Y-152946380D02*
X168219285Y-151946380D01*
X167838333Y-151946380D01*
X167743095Y-151994000D01*
X167695476Y-152041619D01*
X167647857Y-152136857D01*
X167647857Y-152279714D01*
X167695476Y-152374952D01*
X167743095Y-152422571D01*
X167838333Y-152470190D01*
X168219285Y-152470190D01*
X167314523Y-151946380D02*
X166695476Y-151946380D01*
X167028809Y-152327333D01*
X166885952Y-152327333D01*
X166790714Y-152374952D01*
X166743095Y-152422571D01*
X166695476Y-152517809D01*
X166695476Y-152755904D01*
X166743095Y-152851142D01*
X166790714Y-152898761D01*
X166885952Y-152946380D01*
X167171666Y-152946380D01*
X167266904Y-152898761D01*
X167314523Y-152851142D01*
X165838333Y-152279714D02*
X165838333Y-152946380D01*
X166076428Y-151898761D02*
X166314523Y-152613047D01*
X165695476Y-152613047D01*
X186697857Y-152946380D02*
X187031190Y-152470190D01*
X187269285Y-152946380D02*
X187269285Y-151946380D01*
X186888333Y-151946380D01*
X186793095Y-151994000D01*
X186745476Y-152041619D01*
X186697857Y-152136857D01*
X186697857Y-152279714D01*
X186745476Y-152374952D01*
X186793095Y-152422571D01*
X186888333Y-152470190D01*
X187269285Y-152470190D01*
X186364523Y-151946380D02*
X185745476Y-151946380D01*
X186078809Y-152327333D01*
X185935952Y-152327333D01*
X185840714Y-152374952D01*
X185793095Y-152422571D01*
X185745476Y-152517809D01*
X185745476Y-152755904D01*
X185793095Y-152851142D01*
X185840714Y-152898761D01*
X185935952Y-152946380D01*
X186221666Y-152946380D01*
X186316904Y-152898761D01*
X186364523Y-152851142D01*
X184840714Y-151946380D02*
X185316904Y-151946380D01*
X185364523Y-152422571D01*
X185316904Y-152374952D01*
X185221666Y-152327333D01*
X184983571Y-152327333D01*
X184888333Y-152374952D01*
X184840714Y-152422571D01*
X184793095Y-152517809D01*
X184793095Y-152755904D01*
X184840714Y-152851142D01*
X184888333Y-152898761D01*
X184983571Y-152946380D01*
X185221666Y-152946380D01*
X185316904Y-152898761D01*
X185364523Y-152851142D01*
X94051380Y-53459142D02*
X93575190Y-53125809D01*
X94051380Y-52887714D02*
X93051380Y-52887714D01*
X93051380Y-53268666D01*
X93099000Y-53363904D01*
X93146619Y-53411523D01*
X93241857Y-53459142D01*
X93384714Y-53459142D01*
X93479952Y-53411523D01*
X93527571Y-53363904D01*
X93575190Y-53268666D01*
X93575190Y-52887714D01*
X93051380Y-54363904D02*
X93051380Y-53887714D01*
X93527571Y-53840095D01*
X93479952Y-53887714D01*
X93432333Y-53982952D01*
X93432333Y-54221047D01*
X93479952Y-54316285D01*
X93527571Y-54363904D01*
X93622809Y-54411523D01*
X93860904Y-54411523D01*
X93956142Y-54363904D01*
X94003761Y-54316285D01*
X94051380Y-54221047D01*
X94051380Y-53982952D01*
X94003761Y-53887714D01*
X93956142Y-53840095D01*
X93051380Y-55030571D02*
X93051380Y-55125809D01*
X93099000Y-55221047D01*
X93146619Y-55268666D01*
X93241857Y-55316285D01*
X93432333Y-55363904D01*
X93670428Y-55363904D01*
X93860904Y-55316285D01*
X93956142Y-55268666D01*
X94003761Y-55221047D01*
X94051380Y-55125809D01*
X94051380Y-55030571D01*
X94003761Y-54935333D01*
X93956142Y-54887714D01*
X93860904Y-54840095D01*
X93670428Y-54792476D01*
X93432333Y-54792476D01*
X93241857Y-54840095D01*
X93146619Y-54887714D01*
X93099000Y-54935333D01*
X93051380Y-55030571D01*
X140344142Y-52806333D02*
X140391761Y-52758714D01*
X140439380Y-52615857D01*
X140439380Y-52520619D01*
X140391761Y-52377761D01*
X140296523Y-52282523D01*
X140201285Y-52234904D01*
X140010809Y-52187285D01*
X139867952Y-52187285D01*
X139677476Y-52234904D01*
X139582238Y-52282523D01*
X139487000Y-52377761D01*
X139439380Y-52520619D01*
X139439380Y-52615857D01*
X139487000Y-52758714D01*
X139534619Y-52806333D01*
X139772714Y-53663476D02*
X140439380Y-53663476D01*
X139391761Y-53425380D02*
X140106047Y-53187285D01*
X140106047Y-53806333D01*
X80462380Y-46886904D02*
X79462380Y-46886904D01*
X79462380Y-47125000D01*
X79510000Y-47267857D01*
X79605238Y-47363095D01*
X79700476Y-47410714D01*
X79890952Y-47458333D01*
X80033809Y-47458333D01*
X80224285Y-47410714D01*
X80319523Y-47363095D01*
X80414761Y-47267857D01*
X80462380Y-47125000D01*
X80462380Y-46886904D01*
X80462380Y-48410714D02*
X80462380Y-47839285D01*
X80462380Y-48125000D02*
X79462380Y-48125000D01*
X79605238Y-48029761D01*
X79700476Y-47934523D01*
X79748095Y-47839285D01*
X99512380Y-46886904D02*
X98512380Y-46886904D01*
X98512380Y-47125000D01*
X98560000Y-47267857D01*
X98655238Y-47363095D01*
X98750476Y-47410714D01*
X98940952Y-47458333D01*
X99083809Y-47458333D01*
X99274285Y-47410714D01*
X99369523Y-47363095D01*
X99464761Y-47267857D01*
X99512380Y-47125000D01*
X99512380Y-46886904D01*
X98607619Y-47839285D02*
X98560000Y-47886904D01*
X98512380Y-47982142D01*
X98512380Y-48220238D01*
X98560000Y-48315476D01*
X98607619Y-48363095D01*
X98702857Y-48410714D01*
X98798095Y-48410714D01*
X98940952Y-48363095D01*
X99512380Y-47791666D01*
X99512380Y-48410714D01*
X106878380Y-46886904D02*
X105878380Y-46886904D01*
X105878380Y-47125000D01*
X105926000Y-47267857D01*
X106021238Y-47363095D01*
X106116476Y-47410714D01*
X106306952Y-47458333D01*
X106449809Y-47458333D01*
X106640285Y-47410714D01*
X106735523Y-47363095D01*
X106830761Y-47267857D01*
X106878380Y-47125000D01*
X106878380Y-46886904D01*
X105878380Y-47791666D02*
X105878380Y-48410714D01*
X106259333Y-48077380D01*
X106259333Y-48220238D01*
X106306952Y-48315476D01*
X106354571Y-48363095D01*
X106449809Y-48410714D01*
X106687904Y-48410714D01*
X106783142Y-48363095D01*
X106830761Y-48315476D01*
X106878380Y-48220238D01*
X106878380Y-47934523D01*
X106830761Y-47839285D01*
X106783142Y-47791666D01*
X142438380Y-75334904D02*
X141438380Y-75334904D01*
X141438380Y-75573000D01*
X141486000Y-75715857D01*
X141581238Y-75811095D01*
X141676476Y-75858714D01*
X141866952Y-75906333D01*
X142009809Y-75906333D01*
X142200285Y-75858714D01*
X142295523Y-75811095D01*
X142390761Y-75715857D01*
X142438380Y-75573000D01*
X142438380Y-75334904D01*
X141771714Y-76763476D02*
X142438380Y-76763476D01*
X141390761Y-76525380D02*
X142105047Y-76287285D01*
X142105047Y-76906333D01*
X161488380Y-75334904D02*
X160488380Y-75334904D01*
X160488380Y-75573000D01*
X160536000Y-75715857D01*
X160631238Y-75811095D01*
X160726476Y-75858714D01*
X160916952Y-75906333D01*
X161059809Y-75906333D01*
X161250285Y-75858714D01*
X161345523Y-75811095D01*
X161440761Y-75715857D01*
X161488380Y-75573000D01*
X161488380Y-75334904D01*
X160488380Y-76811095D02*
X160488380Y-76334904D01*
X160964571Y-76287285D01*
X160916952Y-76334904D01*
X160869333Y-76430142D01*
X160869333Y-76668238D01*
X160916952Y-76763476D01*
X160964571Y-76811095D01*
X161059809Y-76858714D01*
X161297904Y-76858714D01*
X161393142Y-76811095D01*
X161440761Y-76763476D01*
X161488380Y-76668238D01*
X161488380Y-76430142D01*
X161440761Y-76334904D01*
X161393142Y-76287285D01*
X180538380Y-75334904D02*
X179538380Y-75334904D01*
X179538380Y-75573000D01*
X179586000Y-75715857D01*
X179681238Y-75811095D01*
X179776476Y-75858714D01*
X179966952Y-75906333D01*
X180109809Y-75906333D01*
X180300285Y-75858714D01*
X180395523Y-75811095D01*
X180490761Y-75715857D01*
X180538380Y-75573000D01*
X180538380Y-75334904D01*
X179538380Y-76763476D02*
X179538380Y-76573000D01*
X179586000Y-76477761D01*
X179633619Y-76430142D01*
X179776476Y-76334904D01*
X179966952Y-76287285D01*
X180347904Y-76287285D01*
X180443142Y-76334904D01*
X180490761Y-76382523D01*
X180538380Y-76477761D01*
X180538380Y-76668238D01*
X180490761Y-76763476D01*
X180443142Y-76811095D01*
X180347904Y-76858714D01*
X180109809Y-76858714D01*
X180014571Y-76811095D01*
X179966952Y-76763476D01*
X179919333Y-76668238D01*
X179919333Y-76477761D01*
X179966952Y-76382523D01*
X180014571Y-76334904D01*
X180109809Y-76287285D01*
X199588380Y-75334904D02*
X198588380Y-75334904D01*
X198588380Y-75573000D01*
X198636000Y-75715857D01*
X198731238Y-75811095D01*
X198826476Y-75858714D01*
X199016952Y-75906333D01*
X199159809Y-75906333D01*
X199350285Y-75858714D01*
X199445523Y-75811095D01*
X199540761Y-75715857D01*
X199588380Y-75573000D01*
X199588380Y-75334904D01*
X198588380Y-76239666D02*
X198588380Y-76906333D01*
X199588380Y-76477761D01*
X80462380Y-75334904D02*
X79462380Y-75334904D01*
X79462380Y-75573000D01*
X79510000Y-75715857D01*
X79605238Y-75811095D01*
X79700476Y-75858714D01*
X79890952Y-75906333D01*
X80033809Y-75906333D01*
X80224285Y-75858714D01*
X80319523Y-75811095D01*
X80414761Y-75715857D01*
X80462380Y-75573000D01*
X80462380Y-75334904D01*
X79890952Y-76477761D02*
X79843333Y-76382523D01*
X79795714Y-76334904D01*
X79700476Y-76287285D01*
X79652857Y-76287285D01*
X79557619Y-76334904D01*
X79510000Y-76382523D01*
X79462380Y-76477761D01*
X79462380Y-76668238D01*
X79510000Y-76763476D01*
X79557619Y-76811095D01*
X79652857Y-76858714D01*
X79700476Y-76858714D01*
X79795714Y-76811095D01*
X79843333Y-76763476D01*
X79890952Y-76668238D01*
X79890952Y-76477761D01*
X79938571Y-76382523D01*
X79986190Y-76334904D01*
X80081428Y-76287285D01*
X80271904Y-76287285D01*
X80367142Y-76334904D01*
X80414761Y-76382523D01*
X80462380Y-76477761D01*
X80462380Y-76668238D01*
X80414761Y-76763476D01*
X80367142Y-76811095D01*
X80271904Y-76858714D01*
X80081428Y-76858714D01*
X79986190Y-76811095D01*
X79938571Y-76763476D01*
X79890952Y-76668238D01*
X99512380Y-75334904D02*
X98512380Y-75334904D01*
X98512380Y-75573000D01*
X98560000Y-75715857D01*
X98655238Y-75811095D01*
X98750476Y-75858714D01*
X98940952Y-75906333D01*
X99083809Y-75906333D01*
X99274285Y-75858714D01*
X99369523Y-75811095D01*
X99464761Y-75715857D01*
X99512380Y-75573000D01*
X99512380Y-75334904D01*
X99512380Y-76382523D02*
X99512380Y-76573000D01*
X99464761Y-76668238D01*
X99417142Y-76715857D01*
X99274285Y-76811095D01*
X99083809Y-76858714D01*
X98702857Y-76858714D01*
X98607619Y-76811095D01*
X98560000Y-76763476D01*
X98512380Y-76668238D01*
X98512380Y-76477761D01*
X98560000Y-76382523D01*
X98607619Y-76334904D01*
X98702857Y-76287285D01*
X98940952Y-76287285D01*
X99036190Y-76334904D01*
X99083809Y-76382523D01*
X99131428Y-76477761D01*
X99131428Y-76668238D01*
X99083809Y-76763476D01*
X99036190Y-76811095D01*
X98940952Y-76858714D01*
X118562380Y-74858714D02*
X117562380Y-74858714D01*
X117562380Y-75096809D01*
X117610000Y-75239666D01*
X117705238Y-75334904D01*
X117800476Y-75382523D01*
X117990952Y-75430142D01*
X118133809Y-75430142D01*
X118324285Y-75382523D01*
X118419523Y-75334904D01*
X118514761Y-75239666D01*
X118562380Y-75096809D01*
X118562380Y-74858714D01*
X118562380Y-76382523D02*
X118562380Y-75811095D01*
X118562380Y-76096809D02*
X117562380Y-76096809D01*
X117705238Y-76001571D01*
X117800476Y-75906333D01*
X117848095Y-75811095D01*
X117562380Y-77001571D02*
X117562380Y-77096809D01*
X117610000Y-77192047D01*
X117657619Y-77239666D01*
X117752857Y-77287285D01*
X117943333Y-77334904D01*
X118181428Y-77334904D01*
X118371904Y-77287285D01*
X118467142Y-77239666D01*
X118514761Y-77192047D01*
X118562380Y-77096809D01*
X118562380Y-77001571D01*
X118514761Y-76906333D01*
X118467142Y-76858714D01*
X118371904Y-76811095D01*
X118181428Y-76763476D01*
X117943333Y-76763476D01*
X117752857Y-76811095D01*
X117657619Y-76858714D01*
X117610000Y-76906333D01*
X117562380Y-77001571D01*
X142438380Y-93908714D02*
X141438380Y-93908714D01*
X141438380Y-94146809D01*
X141486000Y-94289666D01*
X141581238Y-94384904D01*
X141676476Y-94432523D01*
X141866952Y-94480142D01*
X142009809Y-94480142D01*
X142200285Y-94432523D01*
X142295523Y-94384904D01*
X142390761Y-94289666D01*
X142438380Y-94146809D01*
X142438380Y-93908714D01*
X142438380Y-95432523D02*
X142438380Y-94861095D01*
X142438380Y-95146809D02*
X141438380Y-95146809D01*
X141581238Y-95051571D01*
X141676476Y-94956333D01*
X141724095Y-94861095D01*
X142438380Y-96384904D02*
X142438380Y-95813476D01*
X142438380Y-96099190D02*
X141438380Y-96099190D01*
X141581238Y-96003952D01*
X141676476Y-95908714D01*
X141724095Y-95813476D01*
X161488380Y-93908714D02*
X160488380Y-93908714D01*
X160488380Y-94146809D01*
X160536000Y-94289666D01*
X160631238Y-94384904D01*
X160726476Y-94432523D01*
X160916952Y-94480142D01*
X161059809Y-94480142D01*
X161250285Y-94432523D01*
X161345523Y-94384904D01*
X161440761Y-94289666D01*
X161488380Y-94146809D01*
X161488380Y-93908714D01*
X161488380Y-95432523D02*
X161488380Y-94861095D01*
X161488380Y-95146809D02*
X160488380Y-95146809D01*
X160631238Y-95051571D01*
X160726476Y-94956333D01*
X160774095Y-94861095D01*
X160583619Y-95813476D02*
X160536000Y-95861095D01*
X160488380Y-95956333D01*
X160488380Y-96194428D01*
X160536000Y-96289666D01*
X160583619Y-96337285D01*
X160678857Y-96384904D01*
X160774095Y-96384904D01*
X160916952Y-96337285D01*
X161488380Y-95765857D01*
X161488380Y-96384904D01*
X180538380Y-93908714D02*
X179538380Y-93908714D01*
X179538380Y-94146809D01*
X179586000Y-94289666D01*
X179681238Y-94384904D01*
X179776476Y-94432523D01*
X179966952Y-94480142D01*
X180109809Y-94480142D01*
X180300285Y-94432523D01*
X180395523Y-94384904D01*
X180490761Y-94289666D01*
X180538380Y-94146809D01*
X180538380Y-93908714D01*
X180538380Y-95432523D02*
X180538380Y-94861095D01*
X180538380Y-95146809D02*
X179538380Y-95146809D01*
X179681238Y-95051571D01*
X179776476Y-94956333D01*
X179824095Y-94861095D01*
X179538380Y-95765857D02*
X179538380Y-96384904D01*
X179919333Y-96051571D01*
X179919333Y-96194428D01*
X179966952Y-96289666D01*
X180014571Y-96337285D01*
X180109809Y-96384904D01*
X180347904Y-96384904D01*
X180443142Y-96337285D01*
X180490761Y-96289666D01*
X180538380Y-96194428D01*
X180538380Y-95908714D01*
X180490761Y-95813476D01*
X180443142Y-95765857D01*
X185364380Y-94162714D02*
X184364380Y-94162714D01*
X184364380Y-94400809D01*
X184412000Y-94543666D01*
X184507238Y-94638904D01*
X184602476Y-94686523D01*
X184792952Y-94734142D01*
X184935809Y-94734142D01*
X185126285Y-94686523D01*
X185221523Y-94638904D01*
X185316761Y-94543666D01*
X185364380Y-94400809D01*
X185364380Y-94162714D01*
X185364380Y-95686523D02*
X185364380Y-95115095D01*
X185364380Y-95400809D02*
X184364380Y-95400809D01*
X184507238Y-95305571D01*
X184602476Y-95210333D01*
X184650095Y-95115095D01*
X184697714Y-96543666D02*
X185364380Y-96543666D01*
X184316761Y-96305571D02*
X185031047Y-96067476D01*
X185031047Y-96686523D01*
X80462380Y-84764714D02*
X79462380Y-84764714D01*
X79462380Y-85002809D01*
X79510000Y-85145666D01*
X79605238Y-85240904D01*
X79700476Y-85288523D01*
X79890952Y-85336142D01*
X80033809Y-85336142D01*
X80224285Y-85288523D01*
X80319523Y-85240904D01*
X80414761Y-85145666D01*
X80462380Y-85002809D01*
X80462380Y-84764714D01*
X80462380Y-86288523D02*
X80462380Y-85717095D01*
X80462380Y-86002809D02*
X79462380Y-86002809D01*
X79605238Y-85907571D01*
X79700476Y-85812333D01*
X79748095Y-85717095D01*
X79462380Y-87193285D02*
X79462380Y-86717095D01*
X79938571Y-86669476D01*
X79890952Y-86717095D01*
X79843333Y-86812333D01*
X79843333Y-87050428D01*
X79890952Y-87145666D01*
X79938571Y-87193285D01*
X80033809Y-87240904D01*
X80271904Y-87240904D01*
X80367142Y-87193285D01*
X80414761Y-87145666D01*
X80462380Y-87050428D01*
X80462380Y-86812333D01*
X80414761Y-86717095D01*
X80367142Y-86669476D01*
X99512380Y-84764714D02*
X98512380Y-84764714D01*
X98512380Y-85002809D01*
X98560000Y-85145666D01*
X98655238Y-85240904D01*
X98750476Y-85288523D01*
X98940952Y-85336142D01*
X99083809Y-85336142D01*
X99274285Y-85288523D01*
X99369523Y-85240904D01*
X99464761Y-85145666D01*
X99512380Y-85002809D01*
X99512380Y-84764714D01*
X99512380Y-86288523D02*
X99512380Y-85717095D01*
X99512380Y-86002809D02*
X98512380Y-86002809D01*
X98655238Y-85907571D01*
X98750476Y-85812333D01*
X98798095Y-85717095D01*
X98512380Y-87145666D02*
X98512380Y-86955190D01*
X98560000Y-86859952D01*
X98607619Y-86812333D01*
X98750476Y-86717095D01*
X98940952Y-86669476D01*
X99321904Y-86669476D01*
X99417142Y-86717095D01*
X99464761Y-86764714D01*
X99512380Y-86859952D01*
X99512380Y-87050428D01*
X99464761Y-87145666D01*
X99417142Y-87193285D01*
X99321904Y-87240904D01*
X99083809Y-87240904D01*
X98988571Y-87193285D01*
X98940952Y-87145666D01*
X98893333Y-87050428D01*
X98893333Y-86859952D01*
X98940952Y-86764714D01*
X98988571Y-86717095D01*
X99083809Y-86669476D01*
X118562380Y-84764714D02*
X117562380Y-84764714D01*
X117562380Y-85002809D01*
X117610000Y-85145666D01*
X117705238Y-85240904D01*
X117800476Y-85288523D01*
X117990952Y-85336142D01*
X118133809Y-85336142D01*
X118324285Y-85288523D01*
X118419523Y-85240904D01*
X118514761Y-85145666D01*
X118562380Y-85002809D01*
X118562380Y-84764714D01*
X118562380Y-86288523D02*
X118562380Y-85717095D01*
X118562380Y-86002809D02*
X117562380Y-86002809D01*
X117705238Y-85907571D01*
X117800476Y-85812333D01*
X117848095Y-85717095D01*
X117562380Y-86621857D02*
X117562380Y-87288523D01*
X118562380Y-86859952D01*
X142438380Y-103814714D02*
X141438380Y-103814714D01*
X141438380Y-104052809D01*
X141486000Y-104195666D01*
X141581238Y-104290904D01*
X141676476Y-104338523D01*
X141866952Y-104386142D01*
X142009809Y-104386142D01*
X142200285Y-104338523D01*
X142295523Y-104290904D01*
X142390761Y-104195666D01*
X142438380Y-104052809D01*
X142438380Y-103814714D01*
X142438380Y-105338523D02*
X142438380Y-104767095D01*
X142438380Y-105052809D02*
X141438380Y-105052809D01*
X141581238Y-104957571D01*
X141676476Y-104862333D01*
X141724095Y-104767095D01*
X141866952Y-105909952D02*
X141819333Y-105814714D01*
X141771714Y-105767095D01*
X141676476Y-105719476D01*
X141628857Y-105719476D01*
X141533619Y-105767095D01*
X141486000Y-105814714D01*
X141438380Y-105909952D01*
X141438380Y-106100428D01*
X141486000Y-106195666D01*
X141533619Y-106243285D01*
X141628857Y-106290904D01*
X141676476Y-106290904D01*
X141771714Y-106243285D01*
X141819333Y-106195666D01*
X141866952Y-106100428D01*
X141866952Y-105909952D01*
X141914571Y-105814714D01*
X141962190Y-105767095D01*
X142057428Y-105719476D01*
X142247904Y-105719476D01*
X142343142Y-105767095D01*
X142390761Y-105814714D01*
X142438380Y-105909952D01*
X142438380Y-106100428D01*
X142390761Y-106195666D01*
X142343142Y-106243285D01*
X142247904Y-106290904D01*
X142057428Y-106290904D01*
X141962190Y-106243285D01*
X141914571Y-106195666D01*
X141866952Y-106100428D01*
X161488380Y-103814714D02*
X160488380Y-103814714D01*
X160488380Y-104052809D01*
X160536000Y-104195666D01*
X160631238Y-104290904D01*
X160726476Y-104338523D01*
X160916952Y-104386142D01*
X161059809Y-104386142D01*
X161250285Y-104338523D01*
X161345523Y-104290904D01*
X161440761Y-104195666D01*
X161488380Y-104052809D01*
X161488380Y-103814714D01*
X161488380Y-105338523D02*
X161488380Y-104767095D01*
X161488380Y-105052809D02*
X160488380Y-105052809D01*
X160631238Y-104957571D01*
X160726476Y-104862333D01*
X160774095Y-104767095D01*
X161488380Y-105814714D02*
X161488380Y-106005190D01*
X161440761Y-106100428D01*
X161393142Y-106148047D01*
X161250285Y-106243285D01*
X161059809Y-106290904D01*
X160678857Y-106290904D01*
X160583619Y-106243285D01*
X160536000Y-106195666D01*
X160488380Y-106100428D01*
X160488380Y-105909952D01*
X160536000Y-105814714D01*
X160583619Y-105767095D01*
X160678857Y-105719476D01*
X160916952Y-105719476D01*
X161012190Y-105767095D01*
X161059809Y-105814714D01*
X161107428Y-105909952D01*
X161107428Y-106100428D01*
X161059809Y-106195666D01*
X161012190Y-106243285D01*
X160916952Y-106290904D01*
X180538380Y-103814714D02*
X179538380Y-103814714D01*
X179538380Y-104052809D01*
X179586000Y-104195666D01*
X179681238Y-104290904D01*
X179776476Y-104338523D01*
X179966952Y-104386142D01*
X180109809Y-104386142D01*
X180300285Y-104338523D01*
X180395523Y-104290904D01*
X180490761Y-104195666D01*
X180538380Y-104052809D01*
X180538380Y-103814714D01*
X179633619Y-104767095D02*
X179586000Y-104814714D01*
X179538380Y-104909952D01*
X179538380Y-105148047D01*
X179586000Y-105243285D01*
X179633619Y-105290904D01*
X179728857Y-105338523D01*
X179824095Y-105338523D01*
X179966952Y-105290904D01*
X180538380Y-104719476D01*
X180538380Y-105338523D01*
X179538380Y-105957571D02*
X179538380Y-106052809D01*
X179586000Y-106148047D01*
X179633619Y-106195666D01*
X179728857Y-106243285D01*
X179919333Y-106290904D01*
X180157428Y-106290904D01*
X180347904Y-106243285D01*
X180443142Y-106195666D01*
X180490761Y-106148047D01*
X180538380Y-106052809D01*
X180538380Y-105957571D01*
X180490761Y-105862333D01*
X180443142Y-105814714D01*
X180347904Y-105767095D01*
X180157428Y-105719476D01*
X179919333Y-105719476D01*
X179728857Y-105767095D01*
X179633619Y-105814714D01*
X179586000Y-105862333D01*
X179538380Y-105957571D01*
X185364380Y-103814714D02*
X184364380Y-103814714D01*
X184364380Y-104052809D01*
X184412000Y-104195666D01*
X184507238Y-104290904D01*
X184602476Y-104338523D01*
X184792952Y-104386142D01*
X184935809Y-104386142D01*
X185126285Y-104338523D01*
X185221523Y-104290904D01*
X185316761Y-104195666D01*
X185364380Y-104052809D01*
X185364380Y-103814714D01*
X184459619Y-104767095D02*
X184412000Y-104814714D01*
X184364380Y-104909952D01*
X184364380Y-105148047D01*
X184412000Y-105243285D01*
X184459619Y-105290904D01*
X184554857Y-105338523D01*
X184650095Y-105338523D01*
X184792952Y-105290904D01*
X185364380Y-104719476D01*
X185364380Y-105338523D01*
X185364380Y-106290904D02*
X185364380Y-105719476D01*
X185364380Y-106005190D02*
X184364380Y-106005190D01*
X184507238Y-105909952D01*
X184602476Y-105814714D01*
X184650095Y-105719476D01*
X80462380Y-132008714D02*
X79462380Y-132008714D01*
X79462380Y-132246809D01*
X79510000Y-132389666D01*
X79605238Y-132484904D01*
X79700476Y-132532523D01*
X79890952Y-132580142D01*
X80033809Y-132580142D01*
X80224285Y-132532523D01*
X80319523Y-132484904D01*
X80414761Y-132389666D01*
X80462380Y-132246809D01*
X80462380Y-132008714D01*
X79557619Y-132961095D02*
X79510000Y-133008714D01*
X79462380Y-133103952D01*
X79462380Y-133342047D01*
X79510000Y-133437285D01*
X79557619Y-133484904D01*
X79652857Y-133532523D01*
X79748095Y-133532523D01*
X79890952Y-133484904D01*
X80462380Y-132913476D01*
X80462380Y-133532523D01*
X79557619Y-133913476D02*
X79510000Y-133961095D01*
X79462380Y-134056333D01*
X79462380Y-134294428D01*
X79510000Y-134389666D01*
X79557619Y-134437285D01*
X79652857Y-134484904D01*
X79748095Y-134484904D01*
X79890952Y-134437285D01*
X80462380Y-133865857D01*
X80462380Y-134484904D01*
X99512380Y-132008714D02*
X98512380Y-132008714D01*
X98512380Y-132246809D01*
X98560000Y-132389666D01*
X98655238Y-132484904D01*
X98750476Y-132532523D01*
X98940952Y-132580142D01*
X99083809Y-132580142D01*
X99274285Y-132532523D01*
X99369523Y-132484904D01*
X99464761Y-132389666D01*
X99512380Y-132246809D01*
X99512380Y-132008714D01*
X98607619Y-132961095D02*
X98560000Y-133008714D01*
X98512380Y-133103952D01*
X98512380Y-133342047D01*
X98560000Y-133437285D01*
X98607619Y-133484904D01*
X98702857Y-133532523D01*
X98798095Y-133532523D01*
X98940952Y-133484904D01*
X99512380Y-132913476D01*
X99512380Y-133532523D01*
X98512380Y-133865857D02*
X98512380Y-134484904D01*
X98893333Y-134151571D01*
X98893333Y-134294428D01*
X98940952Y-134389666D01*
X98988571Y-134437285D01*
X99083809Y-134484904D01*
X99321904Y-134484904D01*
X99417142Y-134437285D01*
X99464761Y-134389666D01*
X99512380Y-134294428D01*
X99512380Y-134008714D01*
X99464761Y-133913476D01*
X99417142Y-133865857D01*
X118562380Y-132008714D02*
X117562380Y-132008714D01*
X117562380Y-132246809D01*
X117610000Y-132389666D01*
X117705238Y-132484904D01*
X117800476Y-132532523D01*
X117990952Y-132580142D01*
X118133809Y-132580142D01*
X118324285Y-132532523D01*
X118419523Y-132484904D01*
X118514761Y-132389666D01*
X118562380Y-132246809D01*
X118562380Y-132008714D01*
X117657619Y-132961095D02*
X117610000Y-133008714D01*
X117562380Y-133103952D01*
X117562380Y-133342047D01*
X117610000Y-133437285D01*
X117657619Y-133484904D01*
X117752857Y-133532523D01*
X117848095Y-133532523D01*
X117990952Y-133484904D01*
X118562380Y-132913476D01*
X118562380Y-133532523D01*
X117895714Y-134389666D02*
X118562380Y-134389666D01*
X117514761Y-134151571D02*
X118229047Y-133913476D01*
X118229047Y-134532523D01*
X142438380Y-132008714D02*
X141438380Y-132008714D01*
X141438380Y-132246809D01*
X141486000Y-132389666D01*
X141581238Y-132484904D01*
X141676476Y-132532523D01*
X141866952Y-132580142D01*
X142009809Y-132580142D01*
X142200285Y-132532523D01*
X142295523Y-132484904D01*
X142390761Y-132389666D01*
X142438380Y-132246809D01*
X142438380Y-132008714D01*
X141533619Y-132961095D02*
X141486000Y-133008714D01*
X141438380Y-133103952D01*
X141438380Y-133342047D01*
X141486000Y-133437285D01*
X141533619Y-133484904D01*
X141628857Y-133532523D01*
X141724095Y-133532523D01*
X141866952Y-133484904D01*
X142438380Y-132913476D01*
X142438380Y-133532523D01*
X141438380Y-134437285D02*
X141438380Y-133961095D01*
X141914571Y-133913476D01*
X141866952Y-133961095D01*
X141819333Y-134056333D01*
X141819333Y-134294428D01*
X141866952Y-134389666D01*
X141914571Y-134437285D01*
X142009809Y-134484904D01*
X142247904Y-134484904D01*
X142343142Y-134437285D01*
X142390761Y-134389666D01*
X142438380Y-134294428D01*
X142438380Y-134056333D01*
X142390761Y-133961095D01*
X142343142Y-133913476D01*
X161488380Y-132008714D02*
X160488380Y-132008714D01*
X160488380Y-132246809D01*
X160536000Y-132389666D01*
X160631238Y-132484904D01*
X160726476Y-132532523D01*
X160916952Y-132580142D01*
X161059809Y-132580142D01*
X161250285Y-132532523D01*
X161345523Y-132484904D01*
X161440761Y-132389666D01*
X161488380Y-132246809D01*
X161488380Y-132008714D01*
X160583619Y-132961095D02*
X160536000Y-133008714D01*
X160488380Y-133103952D01*
X160488380Y-133342047D01*
X160536000Y-133437285D01*
X160583619Y-133484904D01*
X160678857Y-133532523D01*
X160774095Y-133532523D01*
X160916952Y-133484904D01*
X161488380Y-132913476D01*
X161488380Y-133532523D01*
X160488380Y-134389666D02*
X160488380Y-134199190D01*
X160536000Y-134103952D01*
X160583619Y-134056333D01*
X160726476Y-133961095D01*
X160916952Y-133913476D01*
X161297904Y-133913476D01*
X161393142Y-133961095D01*
X161440761Y-134008714D01*
X161488380Y-134103952D01*
X161488380Y-134294428D01*
X161440761Y-134389666D01*
X161393142Y-134437285D01*
X161297904Y-134484904D01*
X161059809Y-134484904D01*
X160964571Y-134437285D01*
X160916952Y-134389666D01*
X160869333Y-134294428D01*
X160869333Y-134103952D01*
X160916952Y-134008714D01*
X160964571Y-133961095D01*
X161059809Y-133913476D01*
X180538379Y-132008714D02*
X179538379Y-132008714D01*
X179538379Y-132246809D01*
X179585999Y-132389666D01*
X179681237Y-132484904D01*
X179776475Y-132532523D01*
X179966951Y-132580142D01*
X180109808Y-132580142D01*
X180300284Y-132532523D01*
X180395522Y-132484904D01*
X180490760Y-132389666D01*
X180538379Y-132246809D01*
X180538379Y-132008714D01*
X179633618Y-132961095D02*
X179585999Y-133008714D01*
X179538379Y-133103952D01*
X179538379Y-133342047D01*
X179585999Y-133437285D01*
X179633618Y-133484904D01*
X179728856Y-133532523D01*
X179824094Y-133532523D01*
X179966951Y-133484904D01*
X180538379Y-132913476D01*
X180538379Y-133532523D01*
X179538379Y-133865857D02*
X179538379Y-134532523D01*
X180538379Y-134103952D01*
X185364380Y-132008714D02*
X184364380Y-132008714D01*
X184364380Y-132246809D01*
X184412000Y-132389666D01*
X184507238Y-132484904D01*
X184602476Y-132532523D01*
X184792952Y-132580142D01*
X184935809Y-132580142D01*
X185126285Y-132532523D01*
X185221523Y-132484904D01*
X185316761Y-132389666D01*
X185364380Y-132246809D01*
X185364380Y-132008714D01*
X184459619Y-132961095D02*
X184412000Y-133008714D01*
X184364380Y-133103952D01*
X184364380Y-133342047D01*
X184412000Y-133437285D01*
X184459619Y-133484904D01*
X184554857Y-133532523D01*
X184650095Y-133532523D01*
X184792952Y-133484904D01*
X185364380Y-132913476D01*
X185364380Y-133532523D01*
X184792952Y-134103952D02*
X184745333Y-134008714D01*
X184697714Y-133961095D01*
X184602476Y-133913476D01*
X184554857Y-133913476D01*
X184459619Y-133961095D01*
X184412000Y-134008714D01*
X184364380Y-134103952D01*
X184364380Y-134294428D01*
X184412000Y-134389666D01*
X184459619Y-134437285D01*
X184554857Y-134484904D01*
X184602476Y-134484904D01*
X184697714Y-134437285D01*
X184745333Y-134389666D01*
X184792952Y-134294428D01*
X184792952Y-134103952D01*
X184840571Y-134008714D01*
X184888190Y-133961095D01*
X184983428Y-133913476D01*
X185173904Y-133913476D01*
X185269142Y-133961095D01*
X185316761Y-134008714D01*
X185364380Y-134103952D01*
X185364380Y-134294428D01*
X185316761Y-134389666D01*
X185269142Y-134437285D01*
X185173904Y-134484904D01*
X184983428Y-134484904D01*
X184888190Y-134437285D01*
X184840571Y-134389666D01*
X184792952Y-134294428D01*
X80462380Y-141914714D02*
X79462380Y-141914714D01*
X79462380Y-142152809D01*
X79510000Y-142295666D01*
X79605238Y-142390904D01*
X79700476Y-142438523D01*
X79890952Y-142486142D01*
X80033809Y-142486142D01*
X80224285Y-142438523D01*
X80319523Y-142390904D01*
X80414761Y-142295666D01*
X80462380Y-142152809D01*
X80462380Y-141914714D01*
X79557619Y-142867095D02*
X79510000Y-142914714D01*
X79462380Y-143009952D01*
X79462380Y-143248047D01*
X79510000Y-143343285D01*
X79557619Y-143390904D01*
X79652857Y-143438523D01*
X79748095Y-143438523D01*
X79890952Y-143390904D01*
X80462380Y-142819476D01*
X80462380Y-143438523D01*
X80462380Y-143914714D02*
X80462380Y-144105190D01*
X80414761Y-144200428D01*
X80367142Y-144248047D01*
X80224285Y-144343285D01*
X80033809Y-144390904D01*
X79652857Y-144390904D01*
X79557619Y-144343285D01*
X79510000Y-144295666D01*
X79462380Y-144200428D01*
X79462380Y-144009952D01*
X79510000Y-143914714D01*
X79557619Y-143867095D01*
X79652857Y-143819476D01*
X79890952Y-143819476D01*
X79986190Y-143867095D01*
X80033809Y-143914714D01*
X80081428Y-144009952D01*
X80081428Y-144200428D01*
X80033809Y-144295666D01*
X79986190Y-144343285D01*
X79890952Y-144390904D01*
X99512380Y-141914714D02*
X98512380Y-141914714D01*
X98512380Y-142152809D01*
X98560000Y-142295666D01*
X98655238Y-142390904D01*
X98750476Y-142438523D01*
X98940952Y-142486142D01*
X99083809Y-142486142D01*
X99274285Y-142438523D01*
X99369523Y-142390904D01*
X99464761Y-142295666D01*
X99512380Y-142152809D01*
X99512380Y-141914714D01*
X98512380Y-142819476D02*
X98512380Y-143438523D01*
X98893333Y-143105190D01*
X98893333Y-143248047D01*
X98940952Y-143343285D01*
X98988571Y-143390904D01*
X99083809Y-143438523D01*
X99321904Y-143438523D01*
X99417142Y-143390904D01*
X99464761Y-143343285D01*
X99512380Y-143248047D01*
X99512380Y-142962333D01*
X99464761Y-142867095D01*
X99417142Y-142819476D01*
X98512380Y-144057571D02*
X98512380Y-144152809D01*
X98560000Y-144248047D01*
X98607619Y-144295666D01*
X98702857Y-144343285D01*
X98893333Y-144390904D01*
X99131428Y-144390904D01*
X99321904Y-144343285D01*
X99417142Y-144295666D01*
X99464761Y-144248047D01*
X99512380Y-144152809D01*
X99512380Y-144057571D01*
X99464761Y-143962333D01*
X99417142Y-143914714D01*
X99321904Y-143867095D01*
X99131428Y-143819476D01*
X98893333Y-143819476D01*
X98702857Y-143867095D01*
X98607619Y-143914714D01*
X98560000Y-143962333D01*
X98512380Y-144057571D01*
X118562380Y-141914714D02*
X117562380Y-141914714D01*
X117562380Y-142152809D01*
X117610000Y-142295666D01*
X117705238Y-142390904D01*
X117800476Y-142438523D01*
X117990952Y-142486142D01*
X118133809Y-142486142D01*
X118324285Y-142438523D01*
X118419523Y-142390904D01*
X118514761Y-142295666D01*
X118562380Y-142152809D01*
X118562380Y-141914714D01*
X117562380Y-142819476D02*
X117562380Y-143438523D01*
X117943333Y-143105190D01*
X117943333Y-143248047D01*
X117990952Y-143343285D01*
X118038571Y-143390904D01*
X118133809Y-143438523D01*
X118371904Y-143438523D01*
X118467142Y-143390904D01*
X118514761Y-143343285D01*
X118562380Y-143248047D01*
X118562380Y-142962333D01*
X118514761Y-142867095D01*
X118467142Y-142819476D01*
X118562380Y-144390904D02*
X118562380Y-143819476D01*
X118562380Y-144105190D02*
X117562380Y-144105190D01*
X117705238Y-144009952D01*
X117800476Y-143914714D01*
X117848095Y-143819476D01*
X142438380Y-137342714D02*
X141438380Y-137342714D01*
X141438380Y-137580809D01*
X141486000Y-137723666D01*
X141581238Y-137818904D01*
X141676476Y-137866523D01*
X141866952Y-137914142D01*
X142009809Y-137914142D01*
X142200285Y-137866523D01*
X142295523Y-137818904D01*
X142390761Y-137723666D01*
X142438380Y-137580809D01*
X142438380Y-137342714D01*
X141438380Y-138247476D02*
X141438380Y-138866523D01*
X141819333Y-138533190D01*
X141819333Y-138676047D01*
X141866952Y-138771285D01*
X141914571Y-138818904D01*
X142009809Y-138866523D01*
X142247904Y-138866523D01*
X142343142Y-138818904D01*
X142390761Y-138771285D01*
X142438380Y-138676047D01*
X142438380Y-138390333D01*
X142390761Y-138295095D01*
X142343142Y-138247476D01*
X141533619Y-139247476D02*
X141486000Y-139295095D01*
X141438380Y-139390333D01*
X141438380Y-139628428D01*
X141486000Y-139723666D01*
X141533619Y-139771285D01*
X141628857Y-139818904D01*
X141724095Y-139818904D01*
X141866952Y-139771285D01*
X142438380Y-139199857D01*
X142438380Y-139818904D01*
X161488380Y-141914714D02*
X160488380Y-141914714D01*
X160488380Y-142152809D01*
X160536000Y-142295666D01*
X160631238Y-142390904D01*
X160726476Y-142438523D01*
X160916952Y-142486142D01*
X161059809Y-142486142D01*
X161250285Y-142438523D01*
X161345523Y-142390904D01*
X161440761Y-142295666D01*
X161488380Y-142152809D01*
X161488380Y-141914714D01*
X160488380Y-142819476D02*
X160488380Y-143438523D01*
X160869333Y-143105190D01*
X160869333Y-143248047D01*
X160916952Y-143343285D01*
X160964571Y-143390904D01*
X161059809Y-143438523D01*
X161297904Y-143438523D01*
X161393142Y-143390904D01*
X161440761Y-143343285D01*
X161488380Y-143248047D01*
X161488380Y-142962333D01*
X161440761Y-142867095D01*
X161393142Y-142819476D01*
X160488380Y-143771857D02*
X160488380Y-144390904D01*
X160869333Y-144057571D01*
X160869333Y-144200428D01*
X160916952Y-144295666D01*
X160964571Y-144343285D01*
X161059809Y-144390904D01*
X161297904Y-144390904D01*
X161393142Y-144343285D01*
X161440761Y-144295666D01*
X161488380Y-144200428D01*
X161488380Y-143914714D01*
X161440761Y-143819476D01*
X161393142Y-143771857D01*
X180538380Y-141914714D02*
X179538380Y-141914714D01*
X179538380Y-142152809D01*
X179586000Y-142295666D01*
X179681238Y-142390904D01*
X179776476Y-142438523D01*
X179966952Y-142486142D01*
X180109809Y-142486142D01*
X180300285Y-142438523D01*
X180395523Y-142390904D01*
X180490761Y-142295666D01*
X180538380Y-142152809D01*
X180538380Y-141914714D01*
X179538380Y-142819476D02*
X179538380Y-143438523D01*
X179919333Y-143105190D01*
X179919333Y-143248047D01*
X179966952Y-143343285D01*
X180014571Y-143390904D01*
X180109809Y-143438523D01*
X180347904Y-143438523D01*
X180443142Y-143390904D01*
X180490761Y-143343285D01*
X180538380Y-143248047D01*
X180538380Y-142962333D01*
X180490761Y-142867095D01*
X180443142Y-142819476D01*
X179871714Y-144295666D02*
X180538380Y-144295666D01*
X179490761Y-144057571D02*
X180205047Y-143819476D01*
X180205047Y-144438523D01*
X185364380Y-141914714D02*
X184364380Y-141914714D01*
X184364380Y-142152809D01*
X184412000Y-142295666D01*
X184507238Y-142390904D01*
X184602476Y-142438523D01*
X184792952Y-142486142D01*
X184935809Y-142486142D01*
X185126285Y-142438523D01*
X185221523Y-142390904D01*
X185316761Y-142295666D01*
X185364380Y-142152809D01*
X185364380Y-141914714D01*
X184364380Y-142819476D02*
X184364380Y-143438523D01*
X184745333Y-143105190D01*
X184745333Y-143248047D01*
X184792952Y-143343285D01*
X184840571Y-143390904D01*
X184935809Y-143438523D01*
X185173904Y-143438523D01*
X185269142Y-143390904D01*
X185316761Y-143343285D01*
X185364380Y-143248047D01*
X185364380Y-142962333D01*
X185316761Y-142867095D01*
X185269142Y-142819476D01*
X184364380Y-144343285D02*
X184364380Y-143867095D01*
X184840571Y-143819476D01*
X184792952Y-143867095D01*
X184745333Y-143962333D01*
X184745333Y-144200428D01*
X184792952Y-144295666D01*
X184840571Y-144343285D01*
X184935809Y-144390904D01*
X185173904Y-144390904D01*
X185269142Y-144343285D01*
X185316761Y-144295666D01*
X185364380Y-144200428D01*
X185364380Y-143962333D01*
X185316761Y-143867095D01*
X185269142Y-143819476D01*
X162504380Y-41076714D02*
X161504380Y-41076714D01*
X161504380Y-41314809D01*
X161552000Y-41457666D01*
X161647238Y-41552904D01*
X161742476Y-41600523D01*
X161932952Y-41648142D01*
X162075809Y-41648142D01*
X162266285Y-41600523D01*
X162361523Y-41552904D01*
X162456761Y-41457666D01*
X162504380Y-41314809D01*
X162504380Y-41076714D01*
X161504380Y-41981476D02*
X161504380Y-42600523D01*
X161885333Y-42267190D01*
X161885333Y-42410047D01*
X161932952Y-42505285D01*
X161980571Y-42552904D01*
X162075809Y-42600523D01*
X162313904Y-42600523D01*
X162409142Y-42552904D01*
X162456761Y-42505285D01*
X162504380Y-42410047D01*
X162504380Y-42124333D01*
X162456761Y-42029095D01*
X162409142Y-41981476D01*
X161504380Y-43457666D02*
X161504380Y-43267190D01*
X161552000Y-43171952D01*
X161599619Y-43124333D01*
X161742476Y-43029095D01*
X161932952Y-42981476D01*
X162313904Y-42981476D01*
X162409142Y-43029095D01*
X162456761Y-43076714D01*
X162504380Y-43171952D01*
X162504380Y-43362428D01*
X162456761Y-43457666D01*
X162409142Y-43505285D01*
X162313904Y-43552904D01*
X162075809Y-43552904D01*
X161980571Y-43505285D01*
X161932952Y-43457666D01*
X161885333Y-43362428D01*
X161885333Y-43171952D01*
X161932952Y-43076714D01*
X161980571Y-43029095D01*
X162075809Y-42981476D01*
X196667380Y-41076714D02*
X195667380Y-41076714D01*
X195667380Y-41314809D01*
X195715000Y-41457666D01*
X195810238Y-41552904D01*
X195905476Y-41600523D01*
X196095952Y-41648142D01*
X196238809Y-41648142D01*
X196429285Y-41600523D01*
X196524523Y-41552904D01*
X196619761Y-41457666D01*
X196667380Y-41314809D01*
X196667380Y-41076714D01*
X195667380Y-41981476D02*
X195667380Y-42600523D01*
X196048333Y-42267190D01*
X196048333Y-42410047D01*
X196095952Y-42505285D01*
X196143571Y-42552904D01*
X196238809Y-42600523D01*
X196476904Y-42600523D01*
X196572142Y-42552904D01*
X196619761Y-42505285D01*
X196667380Y-42410047D01*
X196667380Y-42124333D01*
X196619761Y-42029095D01*
X196572142Y-41981476D01*
X195667380Y-42933857D02*
X195667380Y-43600523D01*
X196667380Y-43171952D01*
X132595857Y-60556380D02*
X132929190Y-60080190D01*
X133167285Y-60556380D02*
X133167285Y-59556380D01*
X132786333Y-59556380D01*
X132691095Y-59604000D01*
X132643476Y-59651619D01*
X132595857Y-59746857D01*
X132595857Y-59889714D01*
X132643476Y-59984952D01*
X132691095Y-60032571D01*
X132786333Y-60080190D01*
X133167285Y-60080190D01*
X131738714Y-59889714D02*
X131738714Y-60556380D01*
X131976809Y-59508761D02*
X132214904Y-60223047D01*
X131595857Y-60223047D01*
X131262523Y-59651619D02*
X131214904Y-59604000D01*
X131119666Y-59556380D01*
X130881571Y-59556380D01*
X130786333Y-59604000D01*
X130738714Y-59651619D01*
X130691095Y-59746857D01*
X130691095Y-59842095D01*
X130738714Y-59984952D01*
X131310142Y-60556380D01*
X130691095Y-60556380D01*
X89479380Y-53427333D02*
X89003190Y-53094000D01*
X89479380Y-52855904D02*
X88479380Y-52855904D01*
X88479380Y-53236857D01*
X88527000Y-53332095D01*
X88574619Y-53379714D01*
X88669857Y-53427333D01*
X88812714Y-53427333D01*
X88907952Y-53379714D01*
X88955571Y-53332095D01*
X89003190Y-53236857D01*
X89003190Y-52855904D01*
X88574619Y-53808285D02*
X88527000Y-53855904D01*
X88479380Y-53951142D01*
X88479380Y-54189238D01*
X88527000Y-54284476D01*
X88574619Y-54332095D01*
X88669857Y-54379714D01*
X88765095Y-54379714D01*
X88907952Y-54332095D01*
X89479380Y-53760666D01*
X89479380Y-54379714D01*
X130848380Y-79081333D02*
X130372190Y-78748000D01*
X130848380Y-78509904D02*
X129848380Y-78509904D01*
X129848380Y-78890857D01*
X129896000Y-78986095D01*
X129943619Y-79033714D01*
X130038857Y-79081333D01*
X130181714Y-79081333D01*
X130276952Y-79033714D01*
X130324571Y-78986095D01*
X130372190Y-78890857D01*
X130372190Y-78509904D01*
X130181714Y-79938476D02*
X130848380Y-79938476D01*
X129800761Y-79700380D02*
X130515047Y-79462285D01*
X130515047Y-80081333D01*
X135547380Y-78605142D02*
X135071190Y-78271809D01*
X135547380Y-78033714D02*
X134547380Y-78033714D01*
X134547380Y-78414666D01*
X134595000Y-78509904D01*
X134642619Y-78557523D01*
X134737857Y-78605142D01*
X134880714Y-78605142D01*
X134975952Y-78557523D01*
X135023571Y-78509904D01*
X135071190Y-78414666D01*
X135071190Y-78033714D01*
X134880714Y-79462285D02*
X135547380Y-79462285D01*
X134499761Y-79224190D02*
X135214047Y-78986095D01*
X135214047Y-79605142D01*
X135547380Y-80033714D02*
X135547380Y-80224190D01*
X135499761Y-80319428D01*
X135452142Y-80367047D01*
X135309285Y-80462285D01*
X135118809Y-80509904D01*
X134737857Y-80509904D01*
X134642619Y-80462285D01*
X134595000Y-80414666D01*
X134547380Y-80319428D01*
X134547380Y-80128952D01*
X134595000Y-80033714D01*
X134642619Y-79986095D01*
X134737857Y-79938476D01*
X134975952Y-79938476D01*
X135071190Y-79986095D01*
X135118809Y-80033714D01*
X135166428Y-80128952D01*
X135166428Y-80319428D01*
X135118809Y-80414666D01*
X135071190Y-80462285D01*
X134975952Y-80509904D01*
M02*
