G04 #@! TF.GenerationSoftware,KiCad,Pcbnew,5.1.4*
G04 #@! TF.CreationDate,2019-11-02T22:09:46+09:00*
G04 #@! TF.ProjectId,Navpad,4e617670-6164-42e6-9b69-6361645f7063,rev?*
G04 #@! TF.SameCoordinates,Original*
G04 #@! TF.FileFunction,Legend,Top*
G04 #@! TF.FilePolarity,Positive*
%FSLAX46Y46*%
G04 Gerber Fmt 4.6, Leading zero omitted, Abs format (unit mm)*
G04 Created by KiCad (PCBNEW 5.1.4) date 2019-11-02 22:09:46*
%MOMM*%
%LPD*%
G04 APERTURE LIST*
%ADD10C,0.100000*%
%ADD11C,0.150000*%
%ADD12C,0.120000*%
G04 APERTURE END LIST*
D10*
G36*
X177165000Y-38354000D02*
G01*
X176149000Y-38354000D01*
X176149000Y-37338000D01*
X177165000Y-38354000D01*
G37*
X177165000Y-38354000D02*
X176149000Y-38354000D01*
X176149000Y-37338000D01*
X177165000Y-38354000D01*
G36*
X134747000Y-62230000D02*
G01*
X131699000Y-62230000D01*
X133223000Y-60706000D01*
X134747000Y-62230000D01*
G37*
X134747000Y-62230000D02*
X131699000Y-62230000D01*
X133223000Y-60706000D01*
X134747000Y-62230000D01*
D11*
X188563595Y-57380166D02*
X189039785Y-57380166D01*
X188468357Y-57665880D02*
X188801690Y-56665880D01*
X189135023Y-57665880D01*
X191563595Y-57570642D02*
X191515976Y-57618261D01*
X191373119Y-57665880D01*
X191277880Y-57665880D01*
X191135023Y-57618261D01*
X191039785Y-57523023D01*
X190992166Y-57427785D01*
X190944547Y-57237309D01*
X190944547Y-57094452D01*
X190992166Y-56903976D01*
X191039785Y-56808738D01*
X191135023Y-56713500D01*
X191277880Y-56665880D01*
X191373119Y-56665880D01*
X191515976Y-56713500D01*
X191563595Y-56761119D01*
X193849309Y-57142071D02*
X193992166Y-57189690D01*
X194039785Y-57237309D01*
X194087404Y-57332547D01*
X194087404Y-57475404D01*
X194039785Y-57570642D01*
X193992166Y-57618261D01*
X193896928Y-57665880D01*
X193515976Y-57665880D01*
X193515976Y-56665880D01*
X193849309Y-56665880D01*
X193944547Y-56713500D01*
X193992166Y-56761119D01*
X194039785Y-56856357D01*
X194039785Y-56951595D01*
X193992166Y-57046833D01*
X193944547Y-57094452D01*
X193849309Y-57142071D01*
X193515976Y-57142071D01*
X149987404Y-38568261D02*
X150130261Y-38615880D01*
X150368357Y-38615880D01*
X150463595Y-38568261D01*
X150511214Y-38520642D01*
X150558833Y-38425404D01*
X150558833Y-38330166D01*
X150511214Y-38234928D01*
X150463595Y-38187309D01*
X150368357Y-38139690D01*
X150177880Y-38092071D01*
X150082642Y-38044452D01*
X150035023Y-37996833D01*
X149987404Y-37901595D01*
X149987404Y-37806357D01*
X150035023Y-37711119D01*
X150082642Y-37663500D01*
X150177880Y-37615880D01*
X150415976Y-37615880D01*
X150558833Y-37663500D01*
X150939785Y-37711119D02*
X150987404Y-37663500D01*
X151082642Y-37615880D01*
X151320738Y-37615880D01*
X151415976Y-37663500D01*
X151463595Y-37711119D01*
X151511214Y-37806357D01*
X151511214Y-37901595D01*
X151463595Y-38044452D01*
X150892166Y-38615880D01*
X151511214Y-38615880D01*
X154939785Y-38568261D02*
X155082642Y-38615880D01*
X155320738Y-38615880D01*
X155415976Y-38568261D01*
X155463595Y-38520642D01*
X155511214Y-38425404D01*
X155511214Y-38330166D01*
X155463595Y-38234928D01*
X155415976Y-38187309D01*
X155320738Y-38139690D01*
X155130261Y-38092071D01*
X155035023Y-38044452D01*
X154987404Y-37996833D01*
X154939785Y-37901595D01*
X154939785Y-37806357D01*
X154987404Y-37711119D01*
X155035023Y-37663500D01*
X155130261Y-37615880D01*
X155368357Y-37615880D01*
X155511214Y-37663500D01*
X156463595Y-38615880D02*
X155892166Y-38615880D01*
X156177880Y-38615880D02*
X156177880Y-37615880D01*
X156082642Y-37758738D01*
X155987404Y-37853976D01*
X155892166Y-37901595D01*
X188087404Y-38568261D02*
X188230261Y-38615880D01*
X188468357Y-38615880D01*
X188563595Y-38568261D01*
X188611214Y-38520642D01*
X188658833Y-38425404D01*
X188658833Y-38330166D01*
X188611214Y-38234928D01*
X188563595Y-38187309D01*
X188468357Y-38139690D01*
X188277880Y-38092071D01*
X188182642Y-38044452D01*
X188135023Y-37996833D01*
X188087404Y-37901595D01*
X188087404Y-37806357D01*
X188135023Y-37711119D01*
X188182642Y-37663500D01*
X188277880Y-37615880D01*
X188515976Y-37615880D01*
X188658833Y-37663500D01*
X189039785Y-37711119D02*
X189087404Y-37663500D01*
X189182642Y-37615880D01*
X189420738Y-37615880D01*
X189515976Y-37663500D01*
X189563595Y-37711119D01*
X189611214Y-37806357D01*
X189611214Y-37901595D01*
X189563595Y-38044452D01*
X188992166Y-38615880D01*
X189611214Y-38615880D01*
X193039785Y-38568261D02*
X193182642Y-38615880D01*
X193420738Y-38615880D01*
X193515976Y-38568261D01*
X193563595Y-38520642D01*
X193611214Y-38425404D01*
X193611214Y-38330166D01*
X193563595Y-38234928D01*
X193515976Y-38187309D01*
X193420738Y-38139690D01*
X193230261Y-38092071D01*
X193135023Y-38044452D01*
X193087404Y-37996833D01*
X193039785Y-37901595D01*
X193039785Y-37806357D01*
X193087404Y-37711119D01*
X193135023Y-37663500D01*
X193230261Y-37615880D01*
X193468357Y-37615880D01*
X193611214Y-37663500D01*
X194563595Y-38615880D02*
X193992166Y-38615880D01*
X194277880Y-38615880D02*
X194277880Y-37615880D01*
X194182642Y-37758738D01*
X194087404Y-37853976D01*
X193992166Y-37901595D01*
X150463595Y-57380166D02*
X150939785Y-57380166D01*
X150368357Y-57665880D02*
X150701690Y-56665880D01*
X151035023Y-57665880D01*
X153463595Y-57570642D02*
X153415976Y-57618261D01*
X153273119Y-57665880D01*
X153177880Y-57665880D01*
X153035023Y-57618261D01*
X152939785Y-57523023D01*
X152892166Y-57427785D01*
X152844547Y-57237309D01*
X152844547Y-57094452D01*
X152892166Y-56903976D01*
X152939785Y-56808738D01*
X153035023Y-56713500D01*
X153177880Y-56665880D01*
X153273119Y-56665880D01*
X153415976Y-56713500D01*
X153463595Y-56761119D01*
X155749309Y-57142071D02*
X155892166Y-57189690D01*
X155939785Y-57237309D01*
X155987404Y-57332547D01*
X155987404Y-57475404D01*
X155939785Y-57570642D01*
X155892166Y-57618261D01*
X155796928Y-57665880D01*
X155415976Y-57665880D01*
X155415976Y-56665880D01*
X155749309Y-56665880D01*
X155844547Y-56713500D01*
X155892166Y-56761119D01*
X155939785Y-56856357D01*
X155939785Y-56951595D01*
X155892166Y-57046833D01*
X155844547Y-57094452D01*
X155749309Y-57142071D01*
X155415976Y-57142071D01*
D12*
X143002000Y-39116000D02*
X142367000Y-39370000D01*
X144907000Y-38989000D02*
X144526000Y-38608000D01*
X144907000Y-37338000D02*
X144526000Y-37211000D01*
X144526000Y-36576000D02*
X144907000Y-35687000D01*
X147193000Y-34290000D02*
X141097000Y-34290000D01*
X147193000Y-40386000D02*
X147193000Y-34290000D01*
X141097000Y-40386000D02*
X147193000Y-40386000D01*
X141097000Y-34290000D02*
X141097000Y-40386000D01*
D11*
X141507595Y-39774761D02*
X141650452Y-39822380D01*
X141888547Y-39822380D01*
X141983785Y-39774761D01*
X142031404Y-39727142D01*
X142079023Y-39631904D01*
X142079023Y-39536666D01*
X142031404Y-39441428D01*
X141983785Y-39393809D01*
X141888547Y-39346190D01*
X141698071Y-39298571D01*
X141602833Y-39250952D01*
X141555214Y-39203333D01*
X141507595Y-39108095D01*
X141507595Y-39012857D01*
X141555214Y-38917619D01*
X141602833Y-38870000D01*
X141698071Y-38822380D01*
X141936166Y-38822380D01*
X142079023Y-38870000D01*
X145814023Y-36140380D02*
X145480690Y-35664190D01*
X145242595Y-36140380D02*
X145242595Y-35140380D01*
X145623547Y-35140380D01*
X145718785Y-35188000D01*
X145766404Y-35235619D01*
X145814023Y-35330857D01*
X145814023Y-35473714D01*
X145766404Y-35568952D01*
X145718785Y-35616571D01*
X145623547Y-35664190D01*
X145242595Y-35664190D01*
X146194976Y-35235619D02*
X146242595Y-35188000D01*
X146337833Y-35140380D01*
X146575928Y-35140380D01*
X146671166Y-35188000D01*
X146718785Y-35235619D01*
X146766404Y-35330857D01*
X146766404Y-35426095D01*
X146718785Y-35568952D01*
X146147357Y-36140380D01*
X146766404Y-36140380D01*
X145814023Y-37790380D02*
X145480690Y-37314190D01*
X145242595Y-37790380D02*
X145242595Y-36790380D01*
X145623547Y-36790380D01*
X145718785Y-36838000D01*
X145766404Y-36885619D01*
X145814023Y-36980857D01*
X145814023Y-37123714D01*
X145766404Y-37218952D01*
X145718785Y-37266571D01*
X145623547Y-37314190D01*
X145242595Y-37314190D01*
X146766404Y-37790380D02*
X146194976Y-37790380D01*
X146480690Y-37790380D02*
X146480690Y-36790380D01*
X146385452Y-36933238D01*
X146290214Y-37028476D01*
X146194976Y-37076095D01*
X145099738Y-38440380D02*
X145671166Y-38440380D01*
X145385452Y-39440380D02*
X145385452Y-38440380D01*
D12*
X144399000Y-34798000D02*
X144399000Y-35306000D01*
X142875000Y-34798000D02*
X144399000Y-34798000D01*
X142875000Y-35306000D02*
X142875000Y-34798000D01*
D11*
X143089380Y-38147523D02*
X143803666Y-38147523D01*
X143946523Y-38195142D01*
X144041761Y-38290380D01*
X144089380Y-38433238D01*
X144089380Y-38528476D01*
X144089380Y-37147523D02*
X144089380Y-37718952D01*
X144089380Y-37433238D02*
X143089380Y-37433238D01*
X143232238Y-37528476D01*
X143327476Y-37623714D01*
X143375095Y-37718952D01*
X144089380Y-36195142D02*
X144089380Y-36766571D01*
X144089380Y-36480857D02*
X143089380Y-36480857D01*
X143232238Y-36576095D01*
X143327476Y-36671333D01*
X143375095Y-36766571D01*
D12*
X144653000Y-35306000D02*
X142621000Y-35306000D01*
X144653000Y-39370000D02*
X144653000Y-35306000D01*
X142621000Y-39370000D02*
X144653000Y-39370000D01*
X142621000Y-35306000D02*
X142621000Y-39370000D01*
D11*
X87836809Y-109926380D02*
X87836809Y-108926380D01*
X88408238Y-109926380D01*
X88408238Y-108926380D01*
X89313000Y-109259714D02*
X89313000Y-109926380D01*
X88884428Y-109259714D02*
X88884428Y-109783523D01*
X88932047Y-109878761D01*
X89027285Y-109926380D01*
X89170142Y-109926380D01*
X89265380Y-109878761D01*
X89313000Y-109831142D01*
X89789190Y-109926380D02*
X89789190Y-109259714D01*
X89789190Y-109354952D02*
X89836809Y-109307333D01*
X89932047Y-109259714D01*
X90074904Y-109259714D01*
X90170142Y-109307333D01*
X90217761Y-109402571D01*
X90217761Y-109926380D01*
X90217761Y-109402571D02*
X90265380Y-109307333D01*
X90360619Y-109259714D01*
X90503476Y-109259714D01*
X90598714Y-109307333D01*
X90646333Y-109402571D01*
X90646333Y-109926380D01*
X92360619Y-109926380D02*
X91884428Y-109926380D01*
X91884428Y-108926380D01*
X92836809Y-109926380D02*
X92741571Y-109878761D01*
X92693952Y-109831142D01*
X92646333Y-109735904D01*
X92646333Y-109450190D01*
X92693952Y-109354952D01*
X92741571Y-109307333D01*
X92836809Y-109259714D01*
X92979666Y-109259714D01*
X93074904Y-109307333D01*
X93122523Y-109354952D01*
X93170142Y-109450190D01*
X93170142Y-109735904D01*
X93122523Y-109831142D01*
X93074904Y-109878761D01*
X92979666Y-109926380D01*
X92836809Y-109926380D01*
X94027285Y-109878761D02*
X93932047Y-109926380D01*
X93741571Y-109926380D01*
X93646333Y-109878761D01*
X93598714Y-109831142D01*
X93551095Y-109735904D01*
X93551095Y-109450190D01*
X93598714Y-109354952D01*
X93646333Y-109307333D01*
X93741571Y-109259714D01*
X93932047Y-109259714D01*
X94027285Y-109307333D01*
X94455857Y-109926380D02*
X94455857Y-108926380D01*
X94551095Y-109545428D02*
X94836809Y-109926380D01*
X94836809Y-109259714D02*
X94455857Y-109640666D01*
X99179571Y-109878761D02*
X99322428Y-109926380D01*
X99560523Y-109926380D01*
X99655761Y-109878761D01*
X99703380Y-109831142D01*
X99751000Y-109735904D01*
X99751000Y-109640666D01*
X99703380Y-109545428D01*
X99655761Y-109497809D01*
X99560523Y-109450190D01*
X99370047Y-109402571D01*
X99274809Y-109354952D01*
X99227190Y-109307333D01*
X99179571Y-109212095D01*
X99179571Y-109116857D01*
X99227190Y-109021619D01*
X99274809Y-108974000D01*
X99370047Y-108926380D01*
X99608142Y-108926380D01*
X99751000Y-108974000D01*
X100608142Y-109878761D02*
X100512904Y-109926380D01*
X100322428Y-109926380D01*
X100227190Y-109878761D01*
X100179571Y-109831142D01*
X100131952Y-109735904D01*
X100131952Y-109450190D01*
X100179571Y-109354952D01*
X100227190Y-109307333D01*
X100322428Y-109259714D01*
X100512904Y-109259714D01*
X100608142Y-109307333D01*
X101036714Y-109926380D02*
X101036714Y-109259714D01*
X101036714Y-109450190D02*
X101084333Y-109354952D01*
X101131952Y-109307333D01*
X101227190Y-109259714D01*
X101322428Y-109259714D01*
X101798619Y-109926380D02*
X101703380Y-109878761D01*
X101655761Y-109831142D01*
X101608142Y-109735904D01*
X101608142Y-109450190D01*
X101655761Y-109354952D01*
X101703380Y-109307333D01*
X101798619Y-109259714D01*
X101941476Y-109259714D01*
X102036714Y-109307333D01*
X102084333Y-109354952D01*
X102131952Y-109450190D01*
X102131952Y-109735904D01*
X102084333Y-109831142D01*
X102036714Y-109878761D01*
X101941476Y-109926380D01*
X101798619Y-109926380D01*
X102703380Y-109926380D02*
X102608142Y-109878761D01*
X102560523Y-109783523D01*
X102560523Y-108926380D01*
X103227190Y-109926380D02*
X103131952Y-109878761D01*
X103084333Y-109783523D01*
X103084333Y-108926380D01*
X104846238Y-109926380D02*
X104370047Y-109926380D01*
X104370047Y-108926380D01*
X105322428Y-109926380D02*
X105227190Y-109878761D01*
X105179571Y-109831142D01*
X105131952Y-109735904D01*
X105131952Y-109450190D01*
X105179571Y-109354952D01*
X105227190Y-109307333D01*
X105322428Y-109259714D01*
X105465285Y-109259714D01*
X105560523Y-109307333D01*
X105608142Y-109354952D01*
X105655761Y-109450190D01*
X105655761Y-109735904D01*
X105608142Y-109831142D01*
X105560523Y-109878761D01*
X105465285Y-109926380D01*
X105322428Y-109926380D01*
X106512904Y-109878761D02*
X106417666Y-109926380D01*
X106227190Y-109926380D01*
X106131952Y-109878761D01*
X106084333Y-109831142D01*
X106036714Y-109735904D01*
X106036714Y-109450190D01*
X106084333Y-109354952D01*
X106131952Y-109307333D01*
X106227190Y-109259714D01*
X106417666Y-109259714D01*
X106512904Y-109307333D01*
X106941476Y-109926380D02*
X106941476Y-108926380D01*
X107036714Y-109545428D02*
X107322428Y-109926380D01*
X107322428Y-109259714D02*
X106941476Y-109640666D01*
X76303571Y-109831142D02*
X76255952Y-109878761D01*
X76113095Y-109926380D01*
X76017857Y-109926380D01*
X75875000Y-109878761D01*
X75779761Y-109783523D01*
X75732142Y-109688285D01*
X75684523Y-109497809D01*
X75684523Y-109354952D01*
X75732142Y-109164476D01*
X75779761Y-109069238D01*
X75875000Y-108974000D01*
X76017857Y-108926380D01*
X76113095Y-108926380D01*
X76255952Y-108974000D01*
X76303571Y-109021619D01*
X77160714Y-109926380D02*
X77160714Y-109402571D01*
X77113095Y-109307333D01*
X77017857Y-109259714D01*
X76827380Y-109259714D01*
X76732142Y-109307333D01*
X77160714Y-109878761D02*
X77065476Y-109926380D01*
X76827380Y-109926380D01*
X76732142Y-109878761D01*
X76684523Y-109783523D01*
X76684523Y-109688285D01*
X76732142Y-109593047D01*
X76827380Y-109545428D01*
X77065476Y-109545428D01*
X77160714Y-109497809D01*
X77636904Y-109259714D02*
X77636904Y-110259714D01*
X77636904Y-109307333D02*
X77732142Y-109259714D01*
X77922619Y-109259714D01*
X78017857Y-109307333D01*
X78065476Y-109354952D01*
X78113095Y-109450190D01*
X78113095Y-109735904D01*
X78065476Y-109831142D01*
X78017857Y-109878761D01*
X77922619Y-109926380D01*
X77732142Y-109926380D01*
X77636904Y-109878761D01*
X78494047Y-109878761D02*
X78589285Y-109926380D01*
X78779761Y-109926380D01*
X78875000Y-109878761D01*
X78922619Y-109783523D01*
X78922619Y-109735904D01*
X78875000Y-109640666D01*
X78779761Y-109593047D01*
X78636904Y-109593047D01*
X78541666Y-109545428D01*
X78494047Y-109450190D01*
X78494047Y-109402571D01*
X78541666Y-109307333D01*
X78636904Y-109259714D01*
X78779761Y-109259714D01*
X78875000Y-109307333D01*
X80589285Y-109926380D02*
X80113095Y-109926380D01*
X80113095Y-108926380D01*
X81065476Y-109926380D02*
X80970238Y-109878761D01*
X80922619Y-109831142D01*
X80875000Y-109735904D01*
X80875000Y-109450190D01*
X80922619Y-109354952D01*
X80970238Y-109307333D01*
X81065476Y-109259714D01*
X81208333Y-109259714D01*
X81303571Y-109307333D01*
X81351190Y-109354952D01*
X81398809Y-109450190D01*
X81398809Y-109735904D01*
X81351190Y-109831142D01*
X81303571Y-109878761D01*
X81208333Y-109926380D01*
X81065476Y-109926380D01*
X82255952Y-109878761D02*
X82160714Y-109926380D01*
X81970238Y-109926380D01*
X81875000Y-109878761D01*
X81827380Y-109831142D01*
X81779761Y-109735904D01*
X81779761Y-109450190D01*
X81827380Y-109354952D01*
X81875000Y-109307333D01*
X81970238Y-109259714D01*
X82160714Y-109259714D01*
X82255952Y-109307333D01*
X82684523Y-109926380D02*
X82684523Y-108926380D01*
X82779761Y-109545428D02*
X83065476Y-109926380D01*
X83065476Y-109259714D02*
X82684523Y-109640666D01*
D12*
X129413000Y-37338000D02*
X130175000Y-37846000D01*
X129413000Y-36322000D02*
X129413000Y-37338000D01*
D11*
X165275500Y-102601000D02*
X165275500Y-104601000D01*
X167275500Y-102601000D02*
X165275500Y-102601000D01*
X165275500Y-116601000D02*
X167275500Y-116601000D01*
X165275500Y-114601000D02*
X165275500Y-116601000D01*
X179275500Y-116601000D02*
X179275500Y-114601000D01*
X177275500Y-116601000D02*
X179275500Y-116601000D01*
X179275500Y-102601000D02*
X179275500Y-104601000D01*
X177275500Y-102601000D02*
X179275500Y-102601000D01*
D12*
X156225500Y-47688500D02*
G75*
G03X156225500Y-47688500I-3000000J0D01*
G01*
X147325500Y-45688500D02*
X147325500Y-41588500D01*
X159125500Y-41588500D02*
X159125500Y-45688500D01*
X159125500Y-49688500D02*
X159125500Y-53788500D01*
X147325500Y-49688500D02*
X147325500Y-53788500D01*
X147325500Y-53788500D02*
X159125500Y-53788500D01*
X149425500Y-55188500D02*
X149125500Y-55488500D01*
X149125500Y-55488500D02*
X149125500Y-54888500D01*
X149125500Y-54888500D02*
X149425500Y-55188500D01*
X147325500Y-41588500D02*
X149725500Y-41588500D01*
X151925500Y-41588500D02*
X154525500Y-41588500D01*
X156725500Y-41588500D02*
X159125500Y-41588500D01*
X152725500Y-47688500D02*
X153725500Y-47688500D01*
X153225500Y-48188500D02*
X153225500Y-47188500D01*
D11*
X146225500Y-64501000D02*
X146225500Y-66501000D01*
X148225500Y-64501000D02*
X146225500Y-64501000D01*
X146225500Y-78501000D02*
X148225500Y-78501000D01*
X146225500Y-76501000D02*
X146225500Y-78501000D01*
X160225500Y-78501000D02*
X160225500Y-76501000D01*
X158225500Y-78501000D02*
X160225500Y-78501000D01*
X160225500Y-64501000D02*
X160225500Y-66501000D01*
X158225500Y-64501000D02*
X160225500Y-64501000D01*
X84313000Y-83551000D02*
X84313000Y-85551000D01*
X86313000Y-83551000D02*
X84313000Y-83551000D01*
X84313000Y-97551000D02*
X86313000Y-97551000D01*
X84313000Y-95551000D02*
X84313000Y-97551000D01*
X98313000Y-97551000D02*
X98313000Y-95551000D01*
X96313000Y-97551000D02*
X98313000Y-97551000D01*
X98313000Y-83551000D02*
X98313000Y-85551000D01*
X96313000Y-83551000D02*
X98313000Y-83551000D01*
D12*
X175943000Y-34688000D02*
X175943000Y-33788000D01*
X166753000Y-34688000D02*
X166753000Y-33788000D01*
X175943000Y-31088000D02*
X175943000Y-28358000D01*
X166753000Y-31088000D02*
X166753000Y-28358000D01*
X175823000Y-37768000D02*
X166873000Y-37768000D01*
X175943000Y-28358000D02*
X166753000Y-28358000D01*
X194325500Y-47688500D02*
G75*
G03X194325500Y-47688500I-3000000J0D01*
G01*
X185425500Y-45688500D02*
X185425500Y-41588500D01*
X197225500Y-41588500D02*
X197225500Y-45688500D01*
X197225500Y-49688500D02*
X197225500Y-53788500D01*
X185425500Y-49688500D02*
X185425500Y-53788500D01*
X185425500Y-53788500D02*
X197225500Y-53788500D01*
X187525500Y-55188500D02*
X187225500Y-55488500D01*
X187225500Y-55488500D02*
X187225500Y-54888500D01*
X187225500Y-54888500D02*
X187525500Y-55188500D01*
X185425500Y-41588500D02*
X187825500Y-41588500D01*
X190025500Y-41588500D02*
X192625500Y-41588500D01*
X194825500Y-41588500D02*
X197225500Y-41588500D01*
X190825500Y-47688500D02*
X191825500Y-47688500D01*
X191325500Y-48188500D02*
X191325500Y-47188500D01*
X140083000Y-40811267D02*
X140083000Y-40468733D01*
X139063000Y-40811267D02*
X139063000Y-40468733D01*
X143127000Y-47439733D02*
X143127000Y-47782267D01*
X144147000Y-47439733D02*
X144147000Y-47782267D01*
X144570267Y-52322000D02*
X144227733Y-52322000D01*
X144570267Y-53342000D02*
X144227733Y-53342000D01*
X140095480Y-57684271D02*
X139853271Y-57926480D01*
X140816729Y-58405520D02*
X140574520Y-58647729D01*
X122782729Y-53608480D02*
X122540520Y-53366271D01*
X122061480Y-54329729D02*
X121819271Y-54087520D01*
X130668520Y-44169729D02*
X130910729Y-43927520D01*
X129947271Y-43448480D02*
X130189480Y-43206271D01*
X127608729Y-59450480D02*
X127366520Y-59208271D01*
X126887480Y-60171729D02*
X126645271Y-59929520D01*
X165243000Y-52492000D02*
X165243000Y-48642000D01*
X167243000Y-52492000D02*
X167243000Y-48642000D01*
X165243000Y-52492000D02*
X167243000Y-52492000D01*
X175921000Y-41586000D02*
X175921000Y-38636000D01*
X172821000Y-39186000D02*
X172821000Y-41586000D01*
X167153000Y-43020064D02*
X167153000Y-41815936D01*
X165333000Y-43020064D02*
X165333000Y-41815936D01*
X125519250Y-138176000D02*
G75*
G03X125519250Y-138176000I-3250000J0D01*
G01*
X125519250Y-61976000D02*
G75*
G03X125519250Y-61976000I-3250000J0D01*
G01*
X120585000Y-44134000D02*
X120585000Y-42734000D01*
X121985000Y-44134000D02*
X120585000Y-44134000D01*
X121985000Y-42734000D02*
X121985000Y-44134000D01*
X120585000Y-42734000D02*
X121985000Y-42734000D01*
D11*
X127849000Y-33156000D02*
X127849000Y-31156000D01*
X122849000Y-31156000D02*
X122849000Y-33156000D01*
X127849000Y-31156000D02*
X122849000Y-31156000D01*
X128349000Y-33156000D02*
X128349000Y-45256000D01*
X122349000Y-45256000D02*
X128349000Y-45256000D01*
X122349000Y-33156000D02*
X122349000Y-45256000D01*
X128349000Y-33156000D02*
X122349000Y-33156000D01*
D12*
X128713000Y-36260000D02*
X128713000Y-34860000D01*
X130113000Y-36260000D02*
X128713000Y-36260000D01*
X130113000Y-34860000D02*
X130113000Y-36260000D01*
X128713000Y-34860000D02*
X130113000Y-34860000D01*
X130807000Y-35576000D02*
X133607000Y-35576000D01*
X133607000Y-35576000D02*
X133607000Y-37576000D01*
X133607000Y-37576000D02*
X130807000Y-37576000D01*
X130807000Y-37576000D02*
X130807000Y-35576000D01*
D11*
X65263000Y-35926000D02*
X65263000Y-37926000D01*
X67263000Y-35926000D02*
X65263000Y-35926000D01*
X65263000Y-49926000D02*
X67263000Y-49926000D01*
X65263000Y-47926000D02*
X65263000Y-49926000D01*
X79263000Y-49926000D02*
X79263000Y-47926000D01*
X77263000Y-49926000D02*
X79263000Y-49926000D01*
X79263000Y-35926000D02*
X79263000Y-37926000D01*
X77263000Y-35926000D02*
X79263000Y-35926000D01*
X103363000Y-35926000D02*
X103363000Y-37926000D01*
X105363000Y-35926000D02*
X103363000Y-35926000D01*
X103363000Y-49926000D02*
X105363000Y-49926000D01*
X103363000Y-47926000D02*
X103363000Y-49926000D01*
X117363000Y-49926000D02*
X117363000Y-47926000D01*
X115363000Y-49926000D02*
X117363000Y-49926000D01*
X117363000Y-35926000D02*
X117363000Y-37926000D01*
X115363000Y-35926000D02*
X117363000Y-35926000D01*
X165275500Y-64501000D02*
X165275500Y-66501000D01*
X167275500Y-64501000D02*
X165275500Y-64501000D01*
X165275500Y-78501000D02*
X167275500Y-78501000D01*
X165275500Y-76501000D02*
X165275500Y-78501000D01*
X179275500Y-78501000D02*
X179275500Y-76501000D01*
X177275500Y-78501000D02*
X179275500Y-78501000D01*
X179275500Y-64501000D02*
X179275500Y-66501000D01*
X177275500Y-64501000D02*
X179275500Y-64501000D01*
X184325500Y-64501000D02*
X184325500Y-66501000D01*
X186325500Y-64501000D02*
X184325500Y-64501000D01*
X184325500Y-78501000D02*
X186325500Y-78501000D01*
X184325500Y-76501000D02*
X184325500Y-78501000D01*
X198325500Y-78501000D02*
X198325500Y-76501000D01*
X196325500Y-78501000D02*
X198325500Y-78501000D01*
X198325500Y-64501000D02*
X198325500Y-66501000D01*
X196325500Y-64501000D02*
X198325500Y-64501000D01*
X65263000Y-64501000D02*
X65263000Y-66501000D01*
X67263000Y-64501000D02*
X65263000Y-64501000D01*
X65263000Y-78501000D02*
X67263000Y-78501000D01*
X65263000Y-76501000D02*
X65263000Y-78501000D01*
X79263000Y-78501000D02*
X79263000Y-76501000D01*
X77263000Y-78501000D02*
X79263000Y-78501000D01*
X79263000Y-64501000D02*
X79263000Y-66501000D01*
X77263000Y-64501000D02*
X79263000Y-64501000D01*
X84313000Y-64501000D02*
X84313000Y-66501000D01*
X86313000Y-64501000D02*
X84313000Y-64501000D01*
X84313000Y-78501000D02*
X86313000Y-78501000D01*
X84313000Y-76501000D02*
X84313000Y-78501000D01*
X98313000Y-78501000D02*
X98313000Y-76501000D01*
X96313000Y-78501000D02*
X98313000Y-78501000D01*
X98313000Y-64501000D02*
X98313000Y-66501000D01*
X96313000Y-64501000D02*
X98313000Y-64501000D01*
X103363000Y-64501000D02*
X103363000Y-66501000D01*
X105363000Y-64501000D02*
X103363000Y-64501000D01*
X103363000Y-78501000D02*
X105363000Y-78501000D01*
X103363000Y-76501000D02*
X103363000Y-78501000D01*
X117363000Y-78501000D02*
X117363000Y-76501000D01*
X115363000Y-78501000D02*
X117363000Y-78501000D01*
X117363000Y-64501000D02*
X117363000Y-66501000D01*
X115363000Y-64501000D02*
X117363000Y-64501000D01*
X127175500Y-83551000D02*
X127175500Y-85551000D01*
X129175500Y-83551000D02*
X127175500Y-83551000D01*
X127175500Y-97551000D02*
X129175500Y-97551000D01*
X127175500Y-95551000D02*
X127175500Y-97551000D01*
X141175500Y-97551000D02*
X141175500Y-95551000D01*
X139175500Y-97551000D02*
X141175500Y-97551000D01*
X141175500Y-83551000D02*
X141175500Y-85551000D01*
X139175500Y-83551000D02*
X141175500Y-83551000D01*
X146225500Y-83551000D02*
X146225500Y-85551000D01*
X148225500Y-83551000D02*
X146225500Y-83551000D01*
X146225500Y-97551000D02*
X148225500Y-97551000D01*
X146225500Y-95551000D02*
X146225500Y-97551000D01*
X160225500Y-97551000D02*
X160225500Y-95551000D01*
X158225500Y-97551000D02*
X160225500Y-97551000D01*
X160225500Y-83551000D02*
X160225500Y-85551000D01*
X158225500Y-83551000D02*
X160225500Y-83551000D01*
X165275500Y-83551000D02*
X165275500Y-85551000D01*
X167275500Y-83551000D02*
X165275500Y-83551000D01*
X165275500Y-97551000D02*
X167275500Y-97551000D01*
X165275500Y-95551000D02*
X165275500Y-97551000D01*
X179275500Y-97551000D02*
X179275500Y-95551000D01*
X177275500Y-97551000D02*
X179275500Y-97551000D01*
X179275500Y-83551000D02*
X179275500Y-85551000D01*
X177275500Y-83551000D02*
X179275500Y-83551000D01*
X65263000Y-83551000D02*
X65263000Y-85551000D01*
X67263000Y-83551000D02*
X65263000Y-83551000D01*
X65263000Y-97551000D02*
X67263000Y-97551000D01*
X65263000Y-95551000D02*
X65263000Y-97551000D01*
X79263000Y-97551000D02*
X79263000Y-95551000D01*
X77263000Y-97551000D02*
X79263000Y-97551000D01*
X79263000Y-83551000D02*
X79263000Y-85551000D01*
X77263000Y-83551000D02*
X79263000Y-83551000D01*
X103363000Y-83551000D02*
X103363000Y-85551000D01*
X105363000Y-83551000D02*
X103363000Y-83551000D01*
X103363000Y-97551000D02*
X105363000Y-97551000D01*
X103363000Y-95551000D02*
X103363000Y-97551000D01*
X117363000Y-97551000D02*
X117363000Y-95551000D01*
X115363000Y-97551000D02*
X117363000Y-97551000D01*
X117363000Y-83551000D02*
X117363000Y-85551000D01*
X115363000Y-83551000D02*
X117363000Y-83551000D01*
X127175500Y-102601000D02*
X127175500Y-104601000D01*
X129175500Y-102601000D02*
X127175500Y-102601000D01*
X127175500Y-116601000D02*
X129175500Y-116601000D01*
X127175500Y-114601000D02*
X127175500Y-116601000D01*
X141175500Y-116601000D02*
X141175500Y-114601000D01*
X139175500Y-116601000D02*
X141175500Y-116601000D01*
X141175500Y-102601000D02*
X141175500Y-104601000D01*
X139175500Y-102601000D02*
X141175500Y-102601000D01*
X146225500Y-102601000D02*
X146225500Y-104601000D01*
X148225500Y-102601000D02*
X146225500Y-102601000D01*
X146225500Y-116601000D02*
X148225500Y-116601000D01*
X146225500Y-114601000D02*
X146225500Y-116601000D01*
X160225500Y-116601000D02*
X160225500Y-114601000D01*
X158225500Y-116601000D02*
X160225500Y-116601000D01*
X160225500Y-102601000D02*
X160225500Y-104601000D01*
X158225500Y-102601000D02*
X160225500Y-102601000D01*
X184325500Y-102601000D02*
X184325500Y-104601000D01*
X186325500Y-102601000D02*
X184325500Y-102601000D01*
X184325500Y-116601000D02*
X186325500Y-116601000D01*
X184325500Y-114601000D02*
X184325500Y-116601000D01*
X198325500Y-116601000D02*
X198325500Y-114601000D01*
X196325500Y-116601000D02*
X198325500Y-116601000D01*
X198325500Y-102601000D02*
X198325500Y-104601000D01*
X196325500Y-102601000D02*
X198325500Y-102601000D01*
X65263000Y-121651000D02*
X65263000Y-123651000D01*
X67263000Y-121651000D02*
X65263000Y-121651000D01*
X65263000Y-135651000D02*
X67263000Y-135651000D01*
X65263000Y-133651000D02*
X65263000Y-135651000D01*
X79263000Y-135651000D02*
X79263000Y-133651000D01*
X77263000Y-135651000D02*
X79263000Y-135651000D01*
X79263000Y-121651000D02*
X79263000Y-123651000D01*
X77263000Y-121651000D02*
X79263000Y-121651000D01*
X84313000Y-121651000D02*
X84313000Y-123651000D01*
X86313000Y-121651000D02*
X84313000Y-121651000D01*
X84313000Y-135651000D02*
X86313000Y-135651000D01*
X84313000Y-133651000D02*
X84313000Y-135651000D01*
X98313000Y-135651000D02*
X98313000Y-133651000D01*
X96313000Y-135651000D02*
X98313000Y-135651000D01*
X98313000Y-121651000D02*
X98313000Y-123651000D01*
X96313000Y-121651000D02*
X98313000Y-121651000D01*
X103363000Y-121651000D02*
X103363000Y-123651000D01*
X105363000Y-121651000D02*
X103363000Y-121651000D01*
X103363000Y-135651000D02*
X105363000Y-135651000D01*
X103363000Y-133651000D02*
X103363000Y-135651000D01*
X117363000Y-135651000D02*
X117363000Y-133651000D01*
X115363000Y-135651000D02*
X117363000Y-135651000D01*
X117363000Y-121651000D02*
X117363000Y-123651000D01*
X115363000Y-121651000D02*
X117363000Y-121651000D01*
X127175500Y-121651000D02*
X127175500Y-123651000D01*
X129175500Y-121651000D02*
X127175500Y-121651000D01*
X127175500Y-135651000D02*
X129175500Y-135651000D01*
X127175500Y-133651000D02*
X127175500Y-135651000D01*
X141175500Y-135651000D02*
X141175500Y-133651000D01*
X139175500Y-135651000D02*
X141175500Y-135651000D01*
X141175500Y-121651000D02*
X141175500Y-123651000D01*
X139175500Y-121651000D02*
X141175500Y-121651000D01*
X146225500Y-121651000D02*
X146225500Y-123651000D01*
X148225500Y-121651000D02*
X146225500Y-121651000D01*
X146225500Y-135651000D02*
X148225500Y-135651000D01*
X146225500Y-133651000D02*
X146225500Y-135651000D01*
X160225500Y-135651000D02*
X160225500Y-133651000D01*
X158225500Y-135651000D02*
X160225500Y-135651000D01*
X160225500Y-121651000D02*
X160225500Y-123651000D01*
X158225500Y-121651000D02*
X160225500Y-121651000D01*
X165275500Y-121651000D02*
X165275500Y-123651000D01*
X167275500Y-121651000D02*
X165275500Y-121651000D01*
X165275500Y-135651000D02*
X167275500Y-135651000D01*
X165275500Y-133651000D02*
X165275500Y-135651000D01*
X179275500Y-135651000D02*
X179275500Y-133651000D01*
X177275500Y-135651000D02*
X179275500Y-135651000D01*
X179275500Y-121651000D02*
X179275500Y-123651000D01*
X177275500Y-121651000D02*
X179275500Y-121651000D01*
X65263000Y-140701000D02*
X65263000Y-142701000D01*
X67263000Y-140701000D02*
X65263000Y-140701000D01*
X65263000Y-154701000D02*
X67263000Y-154701000D01*
X65263000Y-152701000D02*
X65263000Y-154701000D01*
X79263000Y-154701000D02*
X79263000Y-152701000D01*
X77263000Y-154701000D02*
X79263000Y-154701000D01*
X79263000Y-140701000D02*
X79263000Y-142701000D01*
X77263000Y-140701000D02*
X79263000Y-140701000D01*
X84313000Y-140701000D02*
X84313000Y-142701000D01*
X86313000Y-140701000D02*
X84313000Y-140701000D01*
X84313000Y-154701000D02*
X86313000Y-154701000D01*
X84313000Y-152701000D02*
X84313000Y-154701000D01*
X98313000Y-154701000D02*
X98313000Y-152701000D01*
X96313000Y-154701000D02*
X98313000Y-154701000D01*
X98313000Y-140701000D02*
X98313000Y-142701000D01*
X96313000Y-140701000D02*
X98313000Y-140701000D01*
X103363000Y-140701000D02*
X103363000Y-142701000D01*
X105363000Y-140701000D02*
X103363000Y-140701000D01*
X103363000Y-154701000D02*
X105363000Y-154701000D01*
X103363000Y-152701000D02*
X103363000Y-154701000D01*
X117363000Y-154701000D02*
X117363000Y-152701000D01*
X115363000Y-154701000D02*
X117363000Y-154701000D01*
X117363000Y-140701000D02*
X117363000Y-142701000D01*
X115363000Y-140701000D02*
X117363000Y-140701000D01*
X127175500Y-140701000D02*
X127175500Y-142701000D01*
X129175500Y-140701000D02*
X127175500Y-140701000D01*
X127175500Y-154701000D02*
X129175500Y-154701000D01*
X127175500Y-152701000D02*
X127175500Y-154701000D01*
X141175500Y-154701000D02*
X141175500Y-152701000D01*
X139175500Y-154701000D02*
X141175500Y-154701000D01*
X141175500Y-140701000D02*
X141175500Y-142701000D01*
X139175500Y-140701000D02*
X141175500Y-140701000D01*
X146225500Y-140701000D02*
X146225500Y-142701000D01*
X148225500Y-140701000D02*
X146225500Y-140701000D01*
X146225500Y-154701000D02*
X148225500Y-154701000D01*
X146225500Y-152701000D02*
X146225500Y-154701000D01*
X160225500Y-154701000D02*
X160225500Y-152701000D01*
X158225500Y-154701000D02*
X160225500Y-154701000D01*
X160225500Y-140701000D02*
X160225500Y-142701000D01*
X158225500Y-140701000D02*
X160225500Y-140701000D01*
X165275500Y-140701000D02*
X165275500Y-142701000D01*
X167275500Y-140701000D02*
X165275500Y-140701000D01*
X165275500Y-154701000D02*
X167275500Y-154701000D01*
X165275500Y-152701000D02*
X165275500Y-154701000D01*
X179275500Y-154701000D02*
X179275500Y-152701000D01*
X177275500Y-154701000D02*
X179275500Y-154701000D01*
X179275500Y-140701000D02*
X179275500Y-142701000D01*
X177275500Y-140701000D02*
X179275500Y-140701000D01*
X184325500Y-140701000D02*
X184325500Y-142701000D01*
X186325500Y-140701000D02*
X184325500Y-140701000D01*
X184325500Y-154701000D02*
X186325500Y-154701000D01*
X184325500Y-152701000D02*
X184325500Y-154701000D01*
X198325500Y-154701000D02*
X198325500Y-152701000D01*
X196325500Y-154701000D02*
X198325500Y-154701000D01*
X198325500Y-140701000D02*
X198325500Y-142701000D01*
X196325500Y-140701000D02*
X198325500Y-140701000D01*
X184325500Y-107076000D02*
X186325500Y-107076000D01*
X184325500Y-105076000D02*
X184325500Y-107076000D01*
X198325500Y-107076000D02*
X198325500Y-105076000D01*
X196325500Y-107076000D02*
X198325500Y-107076000D01*
X198325500Y-93076000D02*
X196325500Y-93076000D01*
X198325500Y-95076000D02*
X198325500Y-93076000D01*
X184325500Y-93076000D02*
X186325500Y-93076000D01*
X184325500Y-95076000D02*
X184325500Y-93076000D01*
X184325500Y-145176000D02*
X186325500Y-145176000D01*
X184325500Y-143176000D02*
X184325500Y-145176000D01*
X198325500Y-145176000D02*
X198325500Y-143176000D01*
X196325500Y-145176000D02*
X198325500Y-145176000D01*
X198325500Y-131176000D02*
X196325500Y-131176000D01*
X198325500Y-133176000D02*
X198325500Y-131176000D01*
X184325500Y-131176000D02*
X186325500Y-131176000D01*
X184325500Y-133176000D02*
X184325500Y-131176000D01*
X136700500Y-140701000D02*
X136700500Y-142701000D01*
X138700500Y-140701000D02*
X136700500Y-140701000D01*
X136700500Y-154701000D02*
X138700500Y-154701000D01*
X136700500Y-152701000D02*
X136700500Y-154701000D01*
X150700500Y-154701000D02*
X150700500Y-152701000D01*
X148700500Y-154701000D02*
X150700500Y-154701000D01*
X150700500Y-140701000D02*
X150700500Y-142701000D01*
X148700500Y-140701000D02*
X150700500Y-140701000D01*
D12*
X76265500Y-55633500D02*
X77725500Y-55633500D01*
X76265500Y-58793500D02*
X78425500Y-58793500D01*
X76265500Y-58793500D02*
X76265500Y-57863500D01*
X76265500Y-55633500D02*
X76265500Y-56563500D01*
X144227733Y-51818000D02*
X144570267Y-51818000D01*
X144227733Y-50798000D02*
X144570267Y-50798000D01*
X179114267Y-35558000D02*
X178771733Y-35558000D01*
X179114267Y-36578000D02*
X178771733Y-36578000D01*
X179114267Y-37082000D02*
X178771733Y-37082000D01*
X179114267Y-38102000D02*
X178771733Y-38102000D01*
X170690000Y-42843267D02*
X170690000Y-42500733D01*
X169670000Y-42843267D02*
X169670000Y-42500733D01*
X172214000Y-42843267D02*
X172214000Y-42500733D01*
X171194000Y-42843267D02*
X171194000Y-42500733D01*
X162402733Y-35308000D02*
X162745267Y-35308000D01*
X162402733Y-34288000D02*
X162745267Y-34288000D01*
X99777733Y-58676000D02*
X100120267Y-58676000D01*
X99777733Y-57656000D02*
X100120267Y-57656000D01*
X90379733Y-58676000D02*
X90722267Y-58676000D01*
X90379733Y-57656000D02*
X90722267Y-57656000D01*
X120775000Y-39960733D02*
X120775000Y-40303267D01*
X121795000Y-39960733D02*
X121795000Y-40303267D01*
X120775000Y-46056733D02*
X120775000Y-46399267D01*
X121795000Y-46056733D02*
X121795000Y-46399267D01*
X123810520Y-51789729D02*
X124052729Y-51547520D01*
X123089271Y-51068480D02*
X123331480Y-50826271D01*
X111613000Y-59963500D02*
X109113000Y-59963500D01*
X113113000Y-58213500D02*
X113113000Y-56213500D01*
X111613000Y-54463500D02*
X109113000Y-54463500D01*
X107613000Y-58213500D02*
X107613000Y-56213500D01*
X112063000Y-59513500D02*
X111613000Y-59963500D01*
X108663000Y-59513500D02*
X109113000Y-59963500D01*
X108663000Y-54913500D02*
X109113000Y-54463500D01*
X112063000Y-54913500D02*
X111613000Y-54463500D01*
D11*
X133629586Y-59489969D02*
X134531148Y-60391530D01*
X125904445Y-52578000D02*
X126381742Y-53055297D01*
X133223000Y-45259445D02*
X133700297Y-45736742D01*
X140541555Y-52578000D02*
X140064258Y-52100703D01*
X133223000Y-59896555D02*
X132745703Y-59419258D01*
X140541555Y-52578000D02*
X140064258Y-53055297D01*
X133223000Y-45259445D02*
X132745703Y-45736742D01*
X125904445Y-52578000D02*
X126381742Y-52100703D01*
X133223000Y-59896555D02*
X133629586Y-59489969D01*
D12*
X138389000Y-42512000D02*
X138389000Y-47912000D01*
X142789000Y-42512000D02*
X138389000Y-42512000D01*
D11*
X196325500Y-121651000D02*
X198325500Y-121651000D01*
X198325500Y-121651000D02*
X198325500Y-123651000D01*
X196325500Y-135651000D02*
X198325500Y-135651000D01*
X198325500Y-135651000D02*
X198325500Y-133651000D01*
X184325500Y-133651000D02*
X184325500Y-135651000D01*
X184325500Y-135651000D02*
X186325500Y-135651000D01*
X186325500Y-121651000D02*
X184325500Y-121651000D01*
X184325500Y-121651000D02*
X184325500Y-123651000D01*
X196325500Y-83551000D02*
X198325500Y-83551000D01*
X198325500Y-83551000D02*
X198325500Y-85551000D01*
X196325500Y-97551000D02*
X198325500Y-97551000D01*
X198325500Y-97551000D02*
X198325500Y-95551000D01*
X184325500Y-95551000D02*
X184325500Y-97551000D01*
X184325500Y-97551000D02*
X186325500Y-97551000D01*
X186325500Y-83551000D02*
X184325500Y-83551000D01*
X184325500Y-83551000D02*
X184325500Y-85551000D01*
D12*
X79578017Y-104900000D02*
X79235483Y-104900000D01*
X79578017Y-105920000D02*
X79235483Y-105920000D01*
X91286000Y-49666000D02*
X91286000Y-47206000D01*
X89816000Y-49666000D02*
X91286000Y-49666000D01*
X89816000Y-47206000D02*
X89816000Y-49666000D01*
X135672500Y-78241000D02*
X135672500Y-75781000D01*
X134202500Y-78241000D02*
X135672500Y-78241000D01*
X134202500Y-75781000D02*
X134202500Y-78241000D01*
X92810000Y-49666000D02*
X92810000Y-47206000D01*
X91340000Y-49666000D02*
X92810000Y-49666000D01*
X91340000Y-47206000D02*
X91340000Y-49666000D01*
X77746750Y-107954750D02*
X80206750Y-107954750D01*
X77746750Y-106484750D02*
X77746750Y-107954750D01*
X80206750Y-106484750D02*
X77746750Y-106484750D01*
X134148500Y-78241000D02*
X134148500Y-75781000D01*
X132678500Y-78241000D02*
X134148500Y-78241000D01*
X132678500Y-75781000D02*
X132678500Y-78241000D01*
X89653000Y-107954750D02*
X92113000Y-107954750D01*
X89653000Y-106484750D02*
X89653000Y-107954750D01*
X92113000Y-106484750D02*
X89653000Y-106484750D01*
X101559250Y-107954750D02*
X104019250Y-107954750D01*
X101559250Y-106484750D02*
X101559250Y-107954750D01*
X104019250Y-106484750D02*
X101559250Y-106484750D01*
D11*
X96313000Y-35926000D02*
X98313000Y-35926000D01*
X98313000Y-35926000D02*
X98313000Y-37926000D01*
X96313000Y-49926000D02*
X98313000Y-49926000D01*
X98313000Y-49926000D02*
X98313000Y-47926000D01*
X84313000Y-47926000D02*
X84313000Y-49926000D01*
X84313000Y-49926000D02*
X86313000Y-49926000D01*
X86313000Y-35926000D02*
X84313000Y-35926000D01*
X84313000Y-35926000D02*
X84313000Y-37926000D01*
X139175500Y-64501000D02*
X141175500Y-64501000D01*
X141175500Y-64501000D02*
X141175500Y-66501000D01*
X139175500Y-78501000D02*
X141175500Y-78501000D01*
X141175500Y-78501000D02*
X141175500Y-76501000D01*
X127175500Y-76501000D02*
X127175500Y-78501000D01*
X127175500Y-78501000D02*
X129175500Y-78501000D01*
X129175500Y-64501000D02*
X127175500Y-64501000D01*
X127175500Y-64501000D02*
X127175500Y-66501000D01*
D12*
X95315500Y-55633500D02*
X96775500Y-55633500D01*
X95315500Y-58793500D02*
X97475500Y-58793500D01*
X95315500Y-58793500D02*
X95315500Y-57863500D01*
X95315500Y-55633500D02*
X95315500Y-56563500D01*
X85790500Y-55633500D02*
X87250500Y-55633500D01*
X85790500Y-58793500D02*
X87950500Y-58793500D01*
X85790500Y-58793500D02*
X85790500Y-57863500D01*
X85790500Y-55633500D02*
X85790500Y-56563500D01*
X91484267Y-104900000D02*
X91141733Y-104900000D01*
X91484267Y-105920000D02*
X91141733Y-105920000D01*
X103390517Y-104900000D02*
X103047983Y-104900000D01*
X103390517Y-105920000D02*
X103047983Y-105920000D01*
D11*
X146835761Y-44513333D02*
X146883380Y-44370476D01*
X146883380Y-44132380D01*
X146835761Y-44037142D01*
X146788142Y-43989523D01*
X146692904Y-43941904D01*
X146597666Y-43941904D01*
X146502428Y-43989523D01*
X146454809Y-44037142D01*
X146407190Y-44132380D01*
X146359571Y-44322857D01*
X146311952Y-44418095D01*
X146264333Y-44465714D01*
X146169095Y-44513333D01*
X146073857Y-44513333D01*
X145978619Y-44465714D01*
X145931000Y-44418095D01*
X145883380Y-44322857D01*
X145883380Y-44084761D01*
X145931000Y-43941904D01*
X145883380Y-43608571D02*
X146883380Y-43370476D01*
X146169095Y-43180000D01*
X146883380Y-42989523D01*
X145883380Y-42751428D01*
X145978619Y-42418095D02*
X145931000Y-42370476D01*
X145883380Y-42275238D01*
X145883380Y-42037142D01*
X145931000Y-41941904D01*
X145978619Y-41894285D01*
X146073857Y-41846666D01*
X146169095Y-41846666D01*
X146311952Y-41894285D01*
X146883380Y-42465714D01*
X146883380Y-41846666D01*
X168703666Y-38314380D02*
X168703666Y-39028666D01*
X168656047Y-39171523D01*
X168560809Y-39266761D01*
X168417952Y-39314380D01*
X168322714Y-39314380D01*
X169703666Y-39314380D02*
X169132238Y-39314380D01*
X169417952Y-39314380D02*
X169417952Y-38314380D01*
X169322714Y-38457238D01*
X169227476Y-38552476D01*
X169132238Y-38600095D01*
X184935761Y-44513333D02*
X184983380Y-44370476D01*
X184983380Y-44132380D01*
X184935761Y-44037142D01*
X184888142Y-43989523D01*
X184792904Y-43941904D01*
X184697666Y-43941904D01*
X184602428Y-43989523D01*
X184554809Y-44037142D01*
X184507190Y-44132380D01*
X184459571Y-44322857D01*
X184411952Y-44418095D01*
X184364333Y-44465714D01*
X184269095Y-44513333D01*
X184173857Y-44513333D01*
X184078619Y-44465714D01*
X184031000Y-44418095D01*
X183983380Y-44322857D01*
X183983380Y-44084761D01*
X184031000Y-43941904D01*
X183983380Y-43608571D02*
X184983380Y-43370476D01*
X184269095Y-43180000D01*
X184983380Y-42989523D01*
X183983380Y-42751428D01*
X183983380Y-42465714D02*
X183983380Y-41846666D01*
X184364333Y-42180000D01*
X184364333Y-42037142D01*
X184411952Y-41941904D01*
X184459571Y-41894285D01*
X184554809Y-41846666D01*
X184792904Y-41846666D01*
X184888142Y-41894285D01*
X184935761Y-41941904D01*
X184983380Y-42037142D01*
X184983380Y-42322857D01*
X184935761Y-42418095D01*
X184888142Y-42465714D01*
X138500142Y-40806666D02*
X138547761Y-40854285D01*
X138595380Y-40997142D01*
X138595380Y-41092380D01*
X138547761Y-41235238D01*
X138452523Y-41330476D01*
X138357285Y-41378095D01*
X138166809Y-41425714D01*
X138023952Y-41425714D01*
X137833476Y-41378095D01*
X137738238Y-41330476D01*
X137643000Y-41235238D01*
X137595380Y-41092380D01*
X137595380Y-40997142D01*
X137643000Y-40854285D01*
X137690619Y-40806666D01*
X138595380Y-39854285D02*
X138595380Y-40425714D01*
X138595380Y-40140000D02*
X137595380Y-40140000D01*
X137738238Y-40235238D01*
X137833476Y-40330476D01*
X137881095Y-40425714D01*
X145424142Y-47777666D02*
X145471761Y-47825285D01*
X145519380Y-47968142D01*
X145519380Y-48063380D01*
X145471761Y-48206238D01*
X145376523Y-48301476D01*
X145281285Y-48349095D01*
X145090809Y-48396714D01*
X144947952Y-48396714D01*
X144757476Y-48349095D01*
X144662238Y-48301476D01*
X144567000Y-48206238D01*
X144519380Y-48063380D01*
X144519380Y-47968142D01*
X144567000Y-47825285D01*
X144614619Y-47777666D01*
X144614619Y-47396714D02*
X144567000Y-47349095D01*
X144519380Y-47253857D01*
X144519380Y-47015761D01*
X144567000Y-46920523D01*
X144614619Y-46872904D01*
X144709857Y-46825285D01*
X144805095Y-46825285D01*
X144947952Y-46872904D01*
X145519380Y-47444333D01*
X145519380Y-46825285D01*
X144232333Y-54619142D02*
X144184714Y-54666761D01*
X144041857Y-54714380D01*
X143946619Y-54714380D01*
X143803761Y-54666761D01*
X143708523Y-54571523D01*
X143660904Y-54476285D01*
X143613285Y-54285809D01*
X143613285Y-54142952D01*
X143660904Y-53952476D01*
X143708523Y-53857238D01*
X143803761Y-53762000D01*
X143946619Y-53714380D01*
X144041857Y-53714380D01*
X144184714Y-53762000D01*
X144232333Y-53809619D01*
X144565666Y-53714380D02*
X145184714Y-53714380D01*
X144851380Y-54095333D01*
X144994238Y-54095333D01*
X145089476Y-54142952D01*
X145137095Y-54190571D01*
X145184714Y-54285809D01*
X145184714Y-54523904D01*
X145137095Y-54619142D01*
X145089476Y-54666761D01*
X144994238Y-54714380D01*
X144708523Y-54714380D01*
X144613285Y-54666761D01*
X144565666Y-54619142D01*
X141480850Y-59547552D02*
X141480850Y-59614895D01*
X141413506Y-59749582D01*
X141346163Y-59816926D01*
X141211475Y-59884269D01*
X141076788Y-59884269D01*
X140975773Y-59850598D01*
X140807414Y-59749582D01*
X140706399Y-59648567D01*
X140605384Y-59480208D01*
X140571712Y-59379193D01*
X140571712Y-59244506D01*
X140639056Y-59109819D01*
X140706399Y-59042475D01*
X140841086Y-58975132D01*
X140908430Y-58975132D01*
X141480850Y-58268025D02*
X141144132Y-58604743D01*
X141447178Y-58975132D01*
X141447178Y-58907788D01*
X141480850Y-58806773D01*
X141649208Y-58638414D01*
X141750224Y-58604743D01*
X141817567Y-58604743D01*
X141918582Y-58638414D01*
X142086941Y-58806773D01*
X142120613Y-58907788D01*
X142120613Y-58975132D01*
X142086941Y-59076147D01*
X141918582Y-59244506D01*
X141817567Y-59278178D01*
X141750224Y-59278178D01*
X120919447Y-54993850D02*
X120852104Y-54993850D01*
X120717417Y-54926506D01*
X120650073Y-54859163D01*
X120582730Y-54724475D01*
X120582730Y-54589788D01*
X120616401Y-54488773D01*
X120717417Y-54320414D01*
X120818432Y-54219399D01*
X120986791Y-54118384D01*
X121087806Y-54084712D01*
X121222493Y-54084712D01*
X121357180Y-54152056D01*
X121424524Y-54219399D01*
X121491867Y-54354086D01*
X121491867Y-54421430D01*
X122165302Y-54960178D02*
X122030615Y-54825491D01*
X121929600Y-54791819D01*
X121862256Y-54791819D01*
X121693898Y-54825491D01*
X121525539Y-54926506D01*
X121256165Y-55195880D01*
X121222493Y-55296895D01*
X121222493Y-55364239D01*
X121256165Y-55465254D01*
X121390852Y-55599941D01*
X121491867Y-55633613D01*
X121559211Y-55633613D01*
X121660226Y-55599941D01*
X121828585Y-55431582D01*
X121862256Y-55330567D01*
X121862256Y-55263224D01*
X121828585Y-55162208D01*
X121693898Y-55027521D01*
X121592882Y-54993850D01*
X121525539Y-54993850D01*
X121424524Y-55027521D01*
X129552524Y-43047226D02*
X129552524Y-43114569D01*
X129485180Y-43249256D01*
X129417837Y-43316600D01*
X129283149Y-43383943D01*
X129148462Y-43383943D01*
X129047447Y-43350272D01*
X128879088Y-43249256D01*
X128778073Y-43148241D01*
X128677058Y-42979882D01*
X128643386Y-42878867D01*
X128643386Y-42744180D01*
X128710730Y-42609493D01*
X128778073Y-42542149D01*
X128912760Y-42474806D01*
X128980104Y-42474806D01*
X129148462Y-42171760D02*
X129619867Y-41700356D01*
X130023928Y-42710508D01*
X128788610Y-61856687D02*
X128721267Y-61856687D01*
X128586580Y-61789343D01*
X128519236Y-61722000D01*
X128451893Y-61587312D01*
X128451893Y-61452625D01*
X128485564Y-61351610D01*
X128586580Y-61183251D01*
X128687595Y-61082236D01*
X128855954Y-60981221D01*
X128956969Y-60947549D01*
X129091656Y-60947549D01*
X129226343Y-61014893D01*
X129293687Y-61082236D01*
X129361030Y-61216923D01*
X129361030Y-61284267D01*
X129529389Y-61924030D02*
X129495717Y-61823015D01*
X129495717Y-61755671D01*
X129529389Y-61654656D01*
X129563061Y-61620984D01*
X129664076Y-61587312D01*
X129731419Y-61587312D01*
X129832435Y-61620984D01*
X129967122Y-61755671D01*
X130000793Y-61856687D01*
X130000793Y-61924030D01*
X129967122Y-62025045D01*
X129933450Y-62058717D01*
X129832435Y-62092389D01*
X129765091Y-62092389D01*
X129664076Y-62058717D01*
X129529389Y-61924030D01*
X129428374Y-61890358D01*
X129361030Y-61890358D01*
X129260015Y-61924030D01*
X129125328Y-62058717D01*
X129091656Y-62159732D01*
X129091656Y-62227076D01*
X129125328Y-62328091D01*
X129260015Y-62462778D01*
X129361030Y-62496450D01*
X129428374Y-62496450D01*
X129529389Y-62462778D01*
X129664076Y-62328091D01*
X129697748Y-62227076D01*
X129697748Y-62159732D01*
X129664076Y-62058717D01*
X164790380Y-51633285D02*
X163790380Y-51633285D01*
X163790380Y-51395190D01*
X163838000Y-51252333D01*
X163933238Y-51157095D01*
X164028476Y-51109476D01*
X164218952Y-51061857D01*
X164361809Y-51061857D01*
X164552285Y-51109476D01*
X164647523Y-51157095D01*
X164742761Y-51252333D01*
X164790380Y-51395190D01*
X164790380Y-51633285D01*
X163790380Y-50728523D02*
X163790380Y-50109476D01*
X164171333Y-50442809D01*
X164171333Y-50299952D01*
X164218952Y-50204714D01*
X164266571Y-50157095D01*
X164361809Y-50109476D01*
X164599904Y-50109476D01*
X164695142Y-50157095D01*
X164742761Y-50204714D01*
X164790380Y-50299952D01*
X164790380Y-50585666D01*
X164742761Y-50680904D01*
X164695142Y-50728523D01*
X164218952Y-49538047D02*
X164171333Y-49633285D01*
X164123714Y-49680904D01*
X164028476Y-49728523D01*
X163980857Y-49728523D01*
X163885619Y-49680904D01*
X163838000Y-49633285D01*
X163790380Y-49538047D01*
X163790380Y-49347571D01*
X163838000Y-49252333D01*
X163885619Y-49204714D01*
X163980857Y-49157095D01*
X164028476Y-49157095D01*
X164123714Y-49204714D01*
X164171333Y-49252333D01*
X164218952Y-49347571D01*
X164218952Y-49538047D01*
X164266571Y-49633285D01*
X164314190Y-49680904D01*
X164409428Y-49728523D01*
X164599904Y-49728523D01*
X164695142Y-49680904D01*
X164742761Y-49633285D01*
X164790380Y-49538047D01*
X164790380Y-49347571D01*
X164742761Y-49252333D01*
X164695142Y-49204714D01*
X164599904Y-49157095D01*
X164409428Y-49157095D01*
X164314190Y-49204714D01*
X164266571Y-49252333D01*
X164218952Y-49347571D01*
X177203380Y-41620285D02*
X176203380Y-41620285D01*
X176203380Y-41382190D01*
X176251000Y-41239333D01*
X176346238Y-41144095D01*
X176441476Y-41096476D01*
X176631952Y-41048857D01*
X176774809Y-41048857D01*
X176965285Y-41096476D01*
X177060523Y-41144095D01*
X177155761Y-41239333D01*
X177203380Y-41382190D01*
X177203380Y-41620285D01*
X176203380Y-40715523D02*
X176203380Y-40096476D01*
X176584333Y-40429809D01*
X176584333Y-40286952D01*
X176631952Y-40191714D01*
X176679571Y-40144095D01*
X176774809Y-40096476D01*
X177012904Y-40096476D01*
X177108142Y-40144095D01*
X177155761Y-40191714D01*
X177203380Y-40286952D01*
X177203380Y-40572666D01*
X177155761Y-40667904D01*
X177108142Y-40715523D01*
X177203380Y-39620285D02*
X177203380Y-39429809D01*
X177155761Y-39334571D01*
X177108142Y-39286952D01*
X176965285Y-39191714D01*
X176774809Y-39144095D01*
X176393857Y-39144095D01*
X176298619Y-39191714D01*
X176251000Y-39239333D01*
X176203380Y-39334571D01*
X176203380Y-39525047D01*
X176251000Y-39620285D01*
X176298619Y-39667904D01*
X176393857Y-39715523D01*
X176631952Y-39715523D01*
X176727190Y-39667904D01*
X176774809Y-39620285D01*
X176822428Y-39525047D01*
X176822428Y-39334571D01*
X176774809Y-39239333D01*
X176727190Y-39191714D01*
X176631952Y-39144095D01*
X164351571Y-42751333D02*
X164351571Y-43084666D01*
X164875380Y-43084666D02*
X163875380Y-43084666D01*
X163875380Y-42608476D01*
X164875380Y-41703714D02*
X164875380Y-42275142D01*
X164875380Y-41989428D02*
X163875380Y-41989428D01*
X164018238Y-42084666D01*
X164113476Y-42179904D01*
X164161095Y-42275142D01*
X119173666Y-42886380D02*
X119173666Y-43600666D01*
X119126047Y-43743523D01*
X119030809Y-43838761D01*
X118887952Y-43886380D01*
X118792714Y-43886380D01*
X119697476Y-43886380D02*
X119887952Y-43886380D01*
X119983190Y-43838761D01*
X120030809Y-43791142D01*
X120126047Y-43648285D01*
X120173666Y-43457809D01*
X120173666Y-43076857D01*
X120126047Y-42981619D01*
X120078428Y-42934000D01*
X119983190Y-42886380D01*
X119792714Y-42886380D01*
X119697476Y-42934000D01*
X119649857Y-42981619D01*
X119602238Y-43076857D01*
X119602238Y-43314952D01*
X119649857Y-43410190D01*
X119697476Y-43457809D01*
X119792714Y-43505428D01*
X119983190Y-43505428D01*
X120078428Y-43457809D01*
X120126047Y-43410190D01*
X120173666Y-43314952D01*
X124158476Y-45680380D02*
X124158476Y-46394666D01*
X124110857Y-46537523D01*
X124015619Y-46632761D01*
X123872761Y-46680380D01*
X123777523Y-46680380D01*
X125158476Y-46680380D02*
X124587047Y-46680380D01*
X124872761Y-46680380D02*
X124872761Y-45680380D01*
X124777523Y-45823238D01*
X124682285Y-45918476D01*
X124587047Y-45966095D01*
X126110857Y-46680380D02*
X125539428Y-46680380D01*
X125825142Y-46680380D02*
X125825142Y-45680380D01*
X125729904Y-45823238D01*
X125634666Y-45918476D01*
X125539428Y-45966095D01*
X129619476Y-38060380D02*
X129619476Y-38774666D01*
X129571857Y-38917523D01*
X129476619Y-39012761D01*
X129333761Y-39060380D01*
X129238523Y-39060380D01*
X130619476Y-39060380D02*
X130048047Y-39060380D01*
X130333761Y-39060380D02*
X130333761Y-38060380D01*
X130238523Y-38203238D01*
X130143285Y-38298476D01*
X130048047Y-38346095D01*
X131000428Y-38155619D02*
X131048047Y-38108000D01*
X131143285Y-38060380D01*
X131381380Y-38060380D01*
X131476619Y-38108000D01*
X131524238Y-38155619D01*
X131571857Y-38250857D01*
X131571857Y-38346095D01*
X131524238Y-38488952D01*
X130952809Y-39060380D01*
X131571857Y-39060380D01*
X131373666Y-34228380D02*
X131373666Y-34942666D01*
X131326047Y-35085523D01*
X131230809Y-35180761D01*
X131087952Y-35228380D01*
X130992714Y-35228380D01*
X131849857Y-35228380D02*
X131849857Y-34228380D01*
X132230809Y-34228380D01*
X132326047Y-34276000D01*
X132373666Y-34323619D01*
X132421285Y-34418857D01*
X132421285Y-34561714D01*
X132373666Y-34656952D01*
X132326047Y-34704571D01*
X132230809Y-34752190D01*
X131849857Y-34752190D01*
X133373666Y-35228380D02*
X132802238Y-35228380D01*
X133087952Y-35228380D02*
X133087952Y-34228380D01*
X132992714Y-34371238D01*
X132897476Y-34466476D01*
X132802238Y-34514095D01*
X189563595Y-113228380D02*
X189563595Y-112228380D01*
X189896928Y-112942666D01*
X190230261Y-112228380D01*
X190230261Y-113228380D01*
X190611214Y-112228380D02*
X191277880Y-113228380D01*
X191277880Y-112228380D02*
X190611214Y-113228380D01*
X191611214Y-112323619D02*
X191658833Y-112276000D01*
X191754071Y-112228380D01*
X191992166Y-112228380D01*
X192087404Y-112276000D01*
X192135023Y-112323619D01*
X192182642Y-112418857D01*
X192182642Y-112514095D01*
X192135023Y-112656952D01*
X191563595Y-113228380D01*
X192182642Y-113228380D01*
X193135023Y-113228380D02*
X192563595Y-113228380D01*
X192849309Y-113228380D02*
X192849309Y-112228380D01*
X192754071Y-112371238D01*
X192658833Y-112466476D01*
X192563595Y-112514095D01*
X132413595Y-151328380D02*
X132413595Y-150328380D01*
X132746928Y-151042666D01*
X133080261Y-150328380D01*
X133080261Y-151328380D01*
X133461214Y-150328380D02*
X134127880Y-151328380D01*
X134127880Y-150328380D02*
X133461214Y-151328380D01*
X134413595Y-150328380D02*
X135032642Y-150328380D01*
X134699309Y-150709333D01*
X134842166Y-150709333D01*
X134937404Y-150756952D01*
X134985023Y-150804571D01*
X135032642Y-150899809D01*
X135032642Y-151137904D01*
X134985023Y-151233142D01*
X134937404Y-151280761D01*
X134842166Y-151328380D01*
X134556452Y-151328380D01*
X134461214Y-151280761D01*
X134413595Y-151233142D01*
X135413595Y-150423619D02*
X135461214Y-150376000D01*
X135556452Y-150328380D01*
X135794547Y-150328380D01*
X135889785Y-150376000D01*
X135937404Y-150423619D01*
X135985023Y-150518857D01*
X135985023Y-150614095D01*
X135937404Y-150756952D01*
X135365976Y-151328380D01*
X135985023Y-151328380D01*
X151463595Y-151328380D02*
X151463595Y-150328380D01*
X151796928Y-151042666D01*
X152130261Y-150328380D01*
X152130261Y-151328380D01*
X152511214Y-150328380D02*
X153177880Y-151328380D01*
X153177880Y-150328380D02*
X152511214Y-151328380D01*
X153463595Y-150328380D02*
X154082642Y-150328380D01*
X153749309Y-150709333D01*
X153892166Y-150709333D01*
X153987404Y-150756952D01*
X154035023Y-150804571D01*
X154082642Y-150899809D01*
X154082642Y-151137904D01*
X154035023Y-151233142D01*
X153987404Y-151280761D01*
X153892166Y-151328380D01*
X153606452Y-151328380D01*
X153511214Y-151280761D01*
X153463595Y-151233142D01*
X154415976Y-150328380D02*
X155035023Y-150328380D01*
X154701690Y-150709333D01*
X154844547Y-150709333D01*
X154939785Y-150756952D01*
X154987404Y-150804571D01*
X155035023Y-150899809D01*
X155035023Y-151137904D01*
X154987404Y-151233142D01*
X154939785Y-151280761D01*
X154844547Y-151328380D01*
X154558833Y-151328380D01*
X154463595Y-151280761D01*
X154415976Y-151233142D01*
X189563595Y-151328380D02*
X189563595Y-150328380D01*
X189896928Y-151042666D01*
X190230261Y-150328380D01*
X190230261Y-151328380D01*
X190611214Y-150328380D02*
X191277880Y-151328380D01*
X191277880Y-150328380D02*
X190611214Y-151328380D01*
X191563595Y-150328380D02*
X192182642Y-150328380D01*
X191849309Y-150709333D01*
X191992166Y-150709333D01*
X192087404Y-150756952D01*
X192135023Y-150804571D01*
X192182642Y-150899809D01*
X192182642Y-151137904D01*
X192135023Y-151233142D01*
X192087404Y-151280761D01*
X191992166Y-151328380D01*
X191706452Y-151328380D01*
X191611214Y-151280761D01*
X191563595Y-151233142D01*
X193087404Y-150328380D02*
X192611214Y-150328380D01*
X192563595Y-150804571D01*
X192611214Y-150756952D01*
X192706452Y-150709333D01*
X192944547Y-150709333D01*
X193039785Y-150756952D01*
X193087404Y-150804571D01*
X193135023Y-150899809D01*
X193135023Y-151137904D01*
X193087404Y-151233142D01*
X193039785Y-151280761D01*
X192944547Y-151328380D01*
X192706452Y-151328380D01*
X192611214Y-151280761D01*
X192563595Y-151233142D01*
X194952880Y-102742666D02*
X193952880Y-102742666D01*
X194667166Y-102409333D01*
X193952880Y-102076000D01*
X194952880Y-102076000D01*
X193952880Y-101695047D02*
X194952880Y-101028380D01*
X193952880Y-101028380D02*
X194952880Y-101695047D01*
X194048119Y-100695047D02*
X194000500Y-100647428D01*
X193952880Y-100552190D01*
X193952880Y-100314095D01*
X194000500Y-100218857D01*
X194048119Y-100171238D01*
X194143357Y-100123619D01*
X194238595Y-100123619D01*
X194381452Y-100171238D01*
X194952880Y-100742666D01*
X194952880Y-100123619D01*
X193952880Y-99695047D02*
X194762404Y-99695047D01*
X194857642Y-99647428D01*
X194905261Y-99599809D01*
X194952880Y-99504571D01*
X194952880Y-99314095D01*
X194905261Y-99218857D01*
X194857642Y-99171238D01*
X194762404Y-99123619D01*
X193952880Y-99123619D01*
X195048119Y-98885523D02*
X195048119Y-98123619D01*
X194952880Y-97361714D02*
X194952880Y-97933142D01*
X194952880Y-97647428D02*
X193952880Y-97647428D01*
X194095738Y-97742666D01*
X194190976Y-97837904D01*
X194238595Y-97933142D01*
X194952880Y-140842666D02*
X193952880Y-140842666D01*
X194667166Y-140509333D01*
X193952880Y-140176000D01*
X194952880Y-140176000D01*
X193952880Y-139795047D02*
X194952880Y-139128380D01*
X193952880Y-139128380D02*
X194952880Y-139795047D01*
X194048119Y-138795047D02*
X194000500Y-138747428D01*
X193952880Y-138652190D01*
X193952880Y-138414095D01*
X194000500Y-138318857D01*
X194048119Y-138271238D01*
X194143357Y-138223619D01*
X194238595Y-138223619D01*
X194381452Y-138271238D01*
X194952880Y-138842666D01*
X194952880Y-138223619D01*
X193952880Y-137795047D02*
X194762404Y-137795047D01*
X194857642Y-137747428D01*
X194905261Y-137699809D01*
X194952880Y-137604571D01*
X194952880Y-137414095D01*
X194905261Y-137318857D01*
X194857642Y-137271238D01*
X194762404Y-137223619D01*
X193952880Y-137223619D01*
X195048119Y-136985523D02*
X195048119Y-136223619D01*
X194048119Y-136033142D02*
X194000500Y-135985523D01*
X193952880Y-135890285D01*
X193952880Y-135652190D01*
X194000500Y-135556952D01*
X194048119Y-135509333D01*
X194143357Y-135461714D01*
X194238595Y-135461714D01*
X194381452Y-135509333D01*
X194952880Y-136080761D01*
X194952880Y-135461714D01*
X141033833Y-151328380D02*
X141033833Y-150328380D01*
X141367166Y-151042666D01*
X141700500Y-150328380D01*
X141700500Y-151328380D01*
X142081452Y-150328380D02*
X142748119Y-151328380D01*
X142748119Y-150328380D02*
X142081452Y-151328380D01*
X143081452Y-150423619D02*
X143129071Y-150376000D01*
X143224309Y-150328380D01*
X143462404Y-150328380D01*
X143557642Y-150376000D01*
X143605261Y-150423619D01*
X143652880Y-150518857D01*
X143652880Y-150614095D01*
X143605261Y-150756952D01*
X143033833Y-151328380D01*
X143652880Y-151328380D01*
X144081452Y-150328380D02*
X144081452Y-151137904D01*
X144129071Y-151233142D01*
X144176690Y-151280761D01*
X144271928Y-151328380D01*
X144462404Y-151328380D01*
X144557642Y-151280761D01*
X144605261Y-151233142D01*
X144652880Y-151137904D01*
X144652880Y-150328380D01*
X144890976Y-151423619D02*
X145652880Y-151423619D01*
X145795738Y-150328380D02*
X146414785Y-150328380D01*
X146081452Y-150709333D01*
X146224309Y-150709333D01*
X146319547Y-150756952D01*
X146367166Y-150804571D01*
X146414785Y-150899809D01*
X146414785Y-151137904D01*
X146367166Y-151233142D01*
X146319547Y-151280761D01*
X146224309Y-151328380D01*
X145938595Y-151328380D01*
X145843357Y-151280761D01*
X145795738Y-151233142D01*
X76930261Y-60261119D02*
X76835023Y-60213500D01*
X76739785Y-60118261D01*
X76596928Y-59975404D01*
X76501690Y-59927785D01*
X76406452Y-59927785D01*
X76454071Y-60165880D02*
X76358833Y-60118261D01*
X76263595Y-60023023D01*
X76215976Y-59832547D01*
X76215976Y-59499214D01*
X76263595Y-59308738D01*
X76358833Y-59213500D01*
X76454071Y-59165880D01*
X76644547Y-59165880D01*
X76739785Y-59213500D01*
X76835023Y-59308738D01*
X76882642Y-59499214D01*
X76882642Y-59832547D01*
X76835023Y-60023023D01*
X76739785Y-60118261D01*
X76644547Y-60165880D01*
X76454071Y-60165880D01*
X77835023Y-60165880D02*
X77263595Y-60165880D01*
X77549309Y-60165880D02*
X77549309Y-59165880D01*
X77454071Y-59308738D01*
X77358833Y-59403976D01*
X77263595Y-59451595D01*
X143756142Y-50490380D02*
X143422809Y-50014190D01*
X143184714Y-50490380D02*
X143184714Y-49490380D01*
X143565666Y-49490380D01*
X143660904Y-49538000D01*
X143708523Y-49585619D01*
X143756142Y-49680857D01*
X143756142Y-49823714D01*
X143708523Y-49918952D01*
X143660904Y-49966571D01*
X143565666Y-50014190D01*
X143184714Y-50014190D01*
X144089476Y-49490380D02*
X144708523Y-49490380D01*
X144375190Y-49871333D01*
X144518047Y-49871333D01*
X144613285Y-49918952D01*
X144660904Y-49966571D01*
X144708523Y-50061809D01*
X144708523Y-50299904D01*
X144660904Y-50395142D01*
X144613285Y-50442761D01*
X144518047Y-50490380D01*
X144232333Y-50490380D01*
X144137095Y-50442761D01*
X144089476Y-50395142D01*
X145565666Y-49490380D02*
X145375190Y-49490380D01*
X145279952Y-49538000D01*
X145232333Y-49585619D01*
X145137095Y-49728476D01*
X145089476Y-49918952D01*
X145089476Y-50299904D01*
X145137095Y-50395142D01*
X145184714Y-50442761D01*
X145279952Y-50490380D01*
X145470428Y-50490380D01*
X145565666Y-50442761D01*
X145613285Y-50395142D01*
X145660904Y-50299904D01*
X145660904Y-50061809D01*
X145613285Y-49966571D01*
X145565666Y-49918952D01*
X145470428Y-49871333D01*
X145279952Y-49871333D01*
X145184714Y-49918952D01*
X145137095Y-49966571D01*
X145089476Y-50061809D01*
X181602142Y-36520380D02*
X181268809Y-36044190D01*
X181030714Y-36520380D02*
X181030714Y-35520380D01*
X181411666Y-35520380D01*
X181506904Y-35568000D01*
X181554523Y-35615619D01*
X181602142Y-35710857D01*
X181602142Y-35853714D01*
X181554523Y-35948952D01*
X181506904Y-35996571D01*
X181411666Y-36044190D01*
X181030714Y-36044190D01*
X181935476Y-35520380D02*
X182554523Y-35520380D01*
X182221190Y-35901333D01*
X182364047Y-35901333D01*
X182459285Y-35948952D01*
X182506904Y-35996571D01*
X182554523Y-36091809D01*
X182554523Y-36329904D01*
X182506904Y-36425142D01*
X182459285Y-36472761D01*
X182364047Y-36520380D01*
X182078333Y-36520380D01*
X181983095Y-36472761D01*
X181935476Y-36425142D01*
X182887857Y-35520380D02*
X183554523Y-35520380D01*
X183125952Y-36520380D01*
X181602142Y-38044380D02*
X181268809Y-37568190D01*
X181030714Y-38044380D02*
X181030714Y-37044380D01*
X181411666Y-37044380D01*
X181506904Y-37092000D01*
X181554523Y-37139619D01*
X181602142Y-37234857D01*
X181602142Y-37377714D01*
X181554523Y-37472952D01*
X181506904Y-37520571D01*
X181411666Y-37568190D01*
X181030714Y-37568190D01*
X181935476Y-37044380D02*
X182554523Y-37044380D01*
X182221190Y-37425333D01*
X182364047Y-37425333D01*
X182459285Y-37472952D01*
X182506904Y-37520571D01*
X182554523Y-37615809D01*
X182554523Y-37853904D01*
X182506904Y-37949142D01*
X182459285Y-37996761D01*
X182364047Y-38044380D01*
X182078333Y-38044380D01*
X181983095Y-37996761D01*
X181935476Y-37949142D01*
X183125952Y-37472952D02*
X183030714Y-37425333D01*
X182983095Y-37377714D01*
X182935476Y-37282476D01*
X182935476Y-37234857D01*
X182983095Y-37139619D01*
X183030714Y-37092000D01*
X183125952Y-37044380D01*
X183316428Y-37044380D01*
X183411666Y-37092000D01*
X183459285Y-37139619D01*
X183506904Y-37234857D01*
X183506904Y-37282476D01*
X183459285Y-37377714D01*
X183411666Y-37425333D01*
X183316428Y-37472952D01*
X183125952Y-37472952D01*
X183030714Y-37520571D01*
X182983095Y-37568190D01*
X182935476Y-37663428D01*
X182935476Y-37853904D01*
X182983095Y-37949142D01*
X183030714Y-37996761D01*
X183125952Y-38044380D01*
X183316428Y-38044380D01*
X183411666Y-37996761D01*
X183459285Y-37949142D01*
X183506904Y-37853904D01*
X183506904Y-37663428D01*
X183459285Y-37568190D01*
X183411666Y-37520571D01*
X183316428Y-37472952D01*
X170505380Y-46616857D02*
X170029190Y-46950190D01*
X170505380Y-47188285D02*
X169505380Y-47188285D01*
X169505380Y-46807333D01*
X169553000Y-46712095D01*
X169600619Y-46664476D01*
X169695857Y-46616857D01*
X169838714Y-46616857D01*
X169933952Y-46664476D01*
X169981571Y-46712095D01*
X170029190Y-46807333D01*
X170029190Y-47188285D01*
X169505380Y-46283523D02*
X169505380Y-45664476D01*
X169886333Y-45997809D01*
X169886333Y-45854952D01*
X169933952Y-45759714D01*
X169981571Y-45712095D01*
X170076809Y-45664476D01*
X170314904Y-45664476D01*
X170410142Y-45712095D01*
X170457761Y-45759714D01*
X170505380Y-45854952D01*
X170505380Y-46140666D01*
X170457761Y-46235904D01*
X170410142Y-46283523D01*
X170505380Y-45188285D02*
X170505380Y-44997809D01*
X170457761Y-44902571D01*
X170410142Y-44854952D01*
X170267285Y-44759714D01*
X170076809Y-44712095D01*
X169695857Y-44712095D01*
X169600619Y-44759714D01*
X169553000Y-44807333D01*
X169505380Y-44902571D01*
X169505380Y-45093047D01*
X169553000Y-45188285D01*
X169600619Y-45235904D01*
X169695857Y-45283523D01*
X169933952Y-45283523D01*
X170029190Y-45235904D01*
X170076809Y-45188285D01*
X170124428Y-45093047D01*
X170124428Y-44902571D01*
X170076809Y-44807333D01*
X170029190Y-44759714D01*
X169933952Y-44712095D01*
X172283380Y-46616857D02*
X171807190Y-46950190D01*
X172283380Y-47188285D02*
X171283380Y-47188285D01*
X171283380Y-46807333D01*
X171331000Y-46712095D01*
X171378619Y-46664476D01*
X171473857Y-46616857D01*
X171616714Y-46616857D01*
X171711952Y-46664476D01*
X171759571Y-46712095D01*
X171807190Y-46807333D01*
X171807190Y-47188285D01*
X171616714Y-45759714D02*
X172283380Y-45759714D01*
X171235761Y-45997809D02*
X171950047Y-46235904D01*
X171950047Y-45616857D01*
X171283380Y-45045428D02*
X171283380Y-44950190D01*
X171331000Y-44854952D01*
X171378619Y-44807333D01*
X171473857Y-44759714D01*
X171664333Y-44712095D01*
X171902428Y-44712095D01*
X172092904Y-44759714D01*
X172188142Y-44807333D01*
X172235761Y-44854952D01*
X172283380Y-44950190D01*
X172283380Y-45045428D01*
X172235761Y-45140666D01*
X172188142Y-45188285D01*
X172092904Y-45235904D01*
X171902428Y-45283523D01*
X171664333Y-45283523D01*
X171473857Y-45235904D01*
X171378619Y-45188285D01*
X171331000Y-45140666D01*
X171283380Y-45045428D01*
X162044142Y-36774380D02*
X161710809Y-36298190D01*
X161472714Y-36774380D02*
X161472714Y-35774380D01*
X161853666Y-35774380D01*
X161948904Y-35822000D01*
X161996523Y-35869619D01*
X162044142Y-35964857D01*
X162044142Y-36107714D01*
X161996523Y-36202952D01*
X161948904Y-36250571D01*
X161853666Y-36298190D01*
X161472714Y-36298190D01*
X162901285Y-36107714D02*
X162901285Y-36774380D01*
X162663190Y-35726761D02*
X162425095Y-36441047D01*
X163044142Y-36441047D01*
X163948904Y-36774380D02*
X163377476Y-36774380D01*
X163663190Y-36774380D02*
X163663190Y-35774380D01*
X163567952Y-35917238D01*
X163472714Y-36012476D01*
X163377476Y-36060095D01*
X99306142Y-57188380D02*
X98972809Y-56712190D01*
X98734714Y-57188380D02*
X98734714Y-56188380D01*
X99115666Y-56188380D01*
X99210904Y-56236000D01*
X99258523Y-56283619D01*
X99306142Y-56378857D01*
X99306142Y-56521714D01*
X99258523Y-56616952D01*
X99210904Y-56664571D01*
X99115666Y-56712190D01*
X98734714Y-56712190D01*
X100163285Y-56521714D02*
X100163285Y-57188380D01*
X99925190Y-56140761D02*
X99687095Y-56855047D01*
X100306142Y-56855047D01*
X100591857Y-56188380D02*
X101210904Y-56188380D01*
X100877571Y-56569333D01*
X101020428Y-56569333D01*
X101115666Y-56616952D01*
X101163285Y-56664571D01*
X101210904Y-56759809D01*
X101210904Y-56997904D01*
X101163285Y-57093142D01*
X101115666Y-57140761D01*
X101020428Y-57188380D01*
X100734714Y-57188380D01*
X100639476Y-57140761D01*
X100591857Y-57093142D01*
X89908142Y-57188380D02*
X89574809Y-56712190D01*
X89336714Y-57188380D02*
X89336714Y-56188380D01*
X89717666Y-56188380D01*
X89812904Y-56236000D01*
X89860523Y-56283619D01*
X89908142Y-56378857D01*
X89908142Y-56521714D01*
X89860523Y-56616952D01*
X89812904Y-56664571D01*
X89717666Y-56712190D01*
X89336714Y-56712190D01*
X90765285Y-56521714D02*
X90765285Y-57188380D01*
X90527190Y-56140761D02*
X90289095Y-56855047D01*
X90908142Y-56855047D01*
X91717666Y-56521714D02*
X91717666Y-57188380D01*
X91479571Y-56140761D02*
X91241476Y-56855047D01*
X91860523Y-56855047D01*
X121737380Y-37218857D02*
X121261190Y-37552190D01*
X121737380Y-37790285D02*
X120737380Y-37790285D01*
X120737380Y-37409333D01*
X120785000Y-37314095D01*
X120832619Y-37266476D01*
X120927857Y-37218857D01*
X121070714Y-37218857D01*
X121165952Y-37266476D01*
X121213571Y-37314095D01*
X121261190Y-37409333D01*
X121261190Y-37790285D01*
X121070714Y-36361714D02*
X121737380Y-36361714D01*
X120689761Y-36599809D02*
X121404047Y-36837904D01*
X121404047Y-36218857D01*
X120737380Y-35361714D02*
X120737380Y-35837904D01*
X121213571Y-35885523D01*
X121165952Y-35837904D01*
X121118333Y-35742666D01*
X121118333Y-35504571D01*
X121165952Y-35409333D01*
X121213571Y-35361714D01*
X121308809Y-35314095D01*
X121546904Y-35314095D01*
X121642142Y-35361714D01*
X121689761Y-35409333D01*
X121737380Y-35504571D01*
X121737380Y-35742666D01*
X121689761Y-35837904D01*
X121642142Y-35885523D01*
X121737380Y-50426857D02*
X121261190Y-50760190D01*
X121737380Y-50998285D02*
X120737380Y-50998285D01*
X120737380Y-50617333D01*
X120785000Y-50522095D01*
X120832619Y-50474476D01*
X120927857Y-50426857D01*
X121070714Y-50426857D01*
X121165952Y-50474476D01*
X121213571Y-50522095D01*
X121261190Y-50617333D01*
X121261190Y-50998285D01*
X121070714Y-49569714D02*
X121737380Y-49569714D01*
X120689761Y-49807809D02*
X121404047Y-50045904D01*
X121404047Y-49426857D01*
X120737380Y-48617333D02*
X120737380Y-48807809D01*
X120785000Y-48903047D01*
X120832619Y-48950666D01*
X120975476Y-49045904D01*
X121165952Y-49093523D01*
X121546904Y-49093523D01*
X121642142Y-49045904D01*
X121689761Y-48998285D01*
X121737380Y-48903047D01*
X121737380Y-48712571D01*
X121689761Y-48617333D01*
X121642142Y-48569714D01*
X121546904Y-48522095D01*
X121308809Y-48522095D01*
X121213571Y-48569714D01*
X121165952Y-48617333D01*
X121118333Y-48712571D01*
X121118333Y-48903047D01*
X121165952Y-48998285D01*
X121213571Y-49045904D01*
X121308809Y-49093523D01*
X125722312Y-49796450D02*
X125149893Y-49695435D01*
X125318251Y-50200511D02*
X124611145Y-49493404D01*
X124880519Y-49224030D01*
X124981534Y-49190358D01*
X125048877Y-49190358D01*
X125149893Y-49224030D01*
X125250908Y-49325045D01*
X125284580Y-49426061D01*
X125284580Y-49493404D01*
X125250908Y-49594419D01*
X124981534Y-49863793D01*
X125857000Y-48718954D02*
X126328404Y-49190358D01*
X125419267Y-48617938D02*
X125755984Y-49291374D01*
X126193717Y-48853641D01*
X125924343Y-48180206D02*
X126395748Y-47708801D01*
X126799809Y-48718954D01*
X109029666Y-61368261D02*
X109172523Y-61415880D01*
X109410619Y-61415880D01*
X109505857Y-61368261D01*
X109553476Y-61320642D01*
X109601095Y-61225404D01*
X109601095Y-61130166D01*
X109553476Y-61034928D01*
X109505857Y-60987309D01*
X109410619Y-60939690D01*
X109220142Y-60892071D01*
X109124904Y-60844452D01*
X109077285Y-60796833D01*
X109029666Y-60701595D01*
X109029666Y-60606357D01*
X109077285Y-60511119D01*
X109124904Y-60463500D01*
X109220142Y-60415880D01*
X109458238Y-60415880D01*
X109601095Y-60463500D01*
X109934428Y-60415880D02*
X110172523Y-61415880D01*
X110363000Y-60701595D01*
X110553476Y-61415880D01*
X110791571Y-60415880D01*
X111696333Y-61415880D02*
X111124904Y-61415880D01*
X111410619Y-61415880D02*
X111410619Y-60415880D01*
X111315380Y-60558738D01*
X111220142Y-60653976D01*
X111124904Y-60701595D01*
X130277477Y-59526026D02*
X129705057Y-60098446D01*
X129671385Y-60199461D01*
X129671385Y-60266805D01*
X129705057Y-60367820D01*
X129839744Y-60502507D01*
X129940759Y-60536179D01*
X130008103Y-60536179D01*
X130109118Y-60502507D01*
X130681538Y-59930087D01*
X130681538Y-61344301D02*
X130277477Y-60940240D01*
X130479507Y-61142270D02*
X131186614Y-60435164D01*
X131018255Y-60468835D01*
X130883568Y-60468835D01*
X130782553Y-60435164D01*
X143613190Y-43656190D02*
X144089380Y-43656190D01*
X143089380Y-43989523D02*
X143613190Y-43656190D01*
X143089380Y-43322857D01*
X144089380Y-42465714D02*
X144089380Y-43037142D01*
X144089380Y-42751428D02*
X143089380Y-42751428D01*
X143232238Y-42846666D01*
X143327476Y-42941904D01*
X143375095Y-43037142D01*
X189563595Y-132278380D02*
X189563595Y-131278380D01*
X189896928Y-131992666D01*
X190230261Y-131278380D01*
X190230261Y-132278380D01*
X190611214Y-131278380D02*
X191277880Y-132278380D01*
X191277880Y-131278380D02*
X190611214Y-132278380D01*
X191611214Y-131373619D02*
X191658833Y-131326000D01*
X191754071Y-131278380D01*
X191992166Y-131278380D01*
X192087404Y-131326000D01*
X192135023Y-131373619D01*
X192182642Y-131468857D01*
X192182642Y-131564095D01*
X192135023Y-131706952D01*
X191563595Y-132278380D01*
X192182642Y-132278380D01*
X192754071Y-131706952D02*
X192658833Y-131659333D01*
X192611214Y-131611714D01*
X192563595Y-131516476D01*
X192563595Y-131468857D01*
X192611214Y-131373619D01*
X192658833Y-131326000D01*
X192754071Y-131278380D01*
X192944547Y-131278380D01*
X193039785Y-131326000D01*
X193087404Y-131373619D01*
X193135023Y-131468857D01*
X193135023Y-131516476D01*
X193087404Y-131611714D01*
X193039785Y-131659333D01*
X192944547Y-131706952D01*
X192754071Y-131706952D01*
X192658833Y-131754571D01*
X192611214Y-131802190D01*
X192563595Y-131897428D01*
X192563595Y-132087904D01*
X192611214Y-132183142D01*
X192658833Y-132230761D01*
X192754071Y-132278380D01*
X192944547Y-132278380D01*
X193039785Y-132230761D01*
X193087404Y-132183142D01*
X193135023Y-132087904D01*
X193135023Y-131897428D01*
X193087404Y-131802190D01*
X193039785Y-131754571D01*
X192944547Y-131706952D01*
X189563595Y-94178380D02*
X189563595Y-93178380D01*
X189896928Y-93892666D01*
X190230261Y-93178380D01*
X190230261Y-94178380D01*
X190611214Y-93178380D02*
X191277880Y-94178380D01*
X191277880Y-93178380D02*
X190611214Y-94178380D01*
X192182642Y-94178380D02*
X191611214Y-94178380D01*
X191896928Y-94178380D02*
X191896928Y-93178380D01*
X191801690Y-93321238D01*
X191706452Y-93416476D01*
X191611214Y-93464095D01*
X193039785Y-93511714D02*
X193039785Y-94178380D01*
X192801690Y-93130761D02*
X192563595Y-93845047D01*
X193182642Y-93845047D01*
X82034142Y-105862380D02*
X81700809Y-105386190D01*
X81462714Y-105862380D02*
X81462714Y-104862380D01*
X81843666Y-104862380D01*
X81938904Y-104910000D01*
X81986523Y-104957619D01*
X82034142Y-105052857D01*
X82034142Y-105195714D01*
X81986523Y-105290952D01*
X81938904Y-105338571D01*
X81843666Y-105386190D01*
X81462714Y-105386190D01*
X82891285Y-105195714D02*
X82891285Y-105862380D01*
X82653190Y-104814761D02*
X82415095Y-105529047D01*
X83034142Y-105529047D01*
X83557952Y-105290952D02*
X83462714Y-105243333D01*
X83415095Y-105195714D01*
X83367476Y-105100476D01*
X83367476Y-105052857D01*
X83415095Y-104957619D01*
X83462714Y-104910000D01*
X83557952Y-104862380D01*
X83748428Y-104862380D01*
X83843666Y-104910000D01*
X83891285Y-104957619D01*
X83938904Y-105052857D01*
X83938904Y-105100476D01*
X83891285Y-105195714D01*
X83843666Y-105243333D01*
X83748428Y-105290952D01*
X83557952Y-105290952D01*
X83462714Y-105338571D01*
X83415095Y-105386190D01*
X83367476Y-105481428D01*
X83367476Y-105671904D01*
X83415095Y-105767142D01*
X83462714Y-105814761D01*
X83557952Y-105862380D01*
X83748428Y-105862380D01*
X83843666Y-105814761D01*
X83891285Y-105767142D01*
X83938904Y-105671904D01*
X83938904Y-105481428D01*
X83891285Y-105386190D01*
X83843666Y-105338571D01*
X83748428Y-105290952D01*
X91003380Y-53030285D02*
X90003380Y-53030285D01*
X90003380Y-52792190D01*
X90051000Y-52649333D01*
X90146238Y-52554095D01*
X90241476Y-52506476D01*
X90431952Y-52458857D01*
X90574809Y-52458857D01*
X90765285Y-52506476D01*
X90860523Y-52554095D01*
X90955761Y-52649333D01*
X91003380Y-52792190D01*
X91003380Y-53030285D01*
X90336714Y-51601714D02*
X91003380Y-51601714D01*
X89955761Y-51839809D02*
X90670047Y-52077904D01*
X90670047Y-51458857D01*
X90003380Y-50887428D02*
X90003380Y-50792190D01*
X90051000Y-50696952D01*
X90098619Y-50649333D01*
X90193857Y-50601714D01*
X90384333Y-50554095D01*
X90622428Y-50554095D01*
X90812904Y-50601714D01*
X90908142Y-50649333D01*
X90955761Y-50696952D01*
X91003380Y-50792190D01*
X91003380Y-50887428D01*
X90955761Y-50982666D01*
X90908142Y-51030285D01*
X90812904Y-51077904D01*
X90622428Y-51125523D01*
X90384333Y-51125523D01*
X90193857Y-51077904D01*
X90098619Y-51030285D01*
X90051000Y-50982666D01*
X90003380Y-50887428D01*
X135707380Y-81478285D02*
X134707380Y-81478285D01*
X134707380Y-81240190D01*
X134755000Y-81097333D01*
X134850238Y-81002095D01*
X134945476Y-80954476D01*
X135135952Y-80906857D01*
X135278809Y-80906857D01*
X135469285Y-80954476D01*
X135564523Y-81002095D01*
X135659761Y-81097333D01*
X135707380Y-81240190D01*
X135707380Y-81478285D01*
X135040714Y-80049714D02*
X135707380Y-80049714D01*
X134659761Y-80287809D02*
X135374047Y-80525904D01*
X135374047Y-79906857D01*
X135707380Y-79002095D02*
X135707380Y-79573523D01*
X135707380Y-79287809D02*
X134707380Y-79287809D01*
X134850238Y-79383047D01*
X134945476Y-79478285D01*
X134993095Y-79573523D01*
X92781380Y-53030285D02*
X91781380Y-53030285D01*
X91781380Y-52792190D01*
X91829000Y-52649333D01*
X91924238Y-52554095D01*
X92019476Y-52506476D01*
X92209952Y-52458857D01*
X92352809Y-52458857D01*
X92543285Y-52506476D01*
X92638523Y-52554095D01*
X92733761Y-52649333D01*
X92781380Y-52792190D01*
X92781380Y-53030285D01*
X92114714Y-51601714D02*
X92781380Y-51601714D01*
X91733761Y-51839809D02*
X92448047Y-52077904D01*
X92448047Y-51458857D01*
X91876619Y-51125523D02*
X91829000Y-51077904D01*
X91781380Y-50982666D01*
X91781380Y-50744571D01*
X91829000Y-50649333D01*
X91876619Y-50601714D01*
X91971857Y-50554095D01*
X92067095Y-50554095D01*
X92209952Y-50601714D01*
X92781380Y-51173142D01*
X92781380Y-50554095D01*
X81462714Y-107640380D02*
X81462714Y-106640380D01*
X81700809Y-106640380D01*
X81843666Y-106688000D01*
X81938904Y-106783238D01*
X81986523Y-106878476D01*
X82034142Y-107068952D01*
X82034142Y-107211809D01*
X81986523Y-107402285D01*
X81938904Y-107497523D01*
X81843666Y-107592761D01*
X81700809Y-107640380D01*
X81462714Y-107640380D01*
X82891285Y-106973714D02*
X82891285Y-107640380D01*
X82653190Y-106592761D02*
X82415095Y-107307047D01*
X83034142Y-107307047D01*
X83319857Y-106640380D02*
X83938904Y-106640380D01*
X83605571Y-107021333D01*
X83748428Y-107021333D01*
X83843666Y-107068952D01*
X83891285Y-107116571D01*
X83938904Y-107211809D01*
X83938904Y-107449904D01*
X83891285Y-107545142D01*
X83843666Y-107592761D01*
X83748428Y-107640380D01*
X83462714Y-107640380D01*
X83367476Y-107592761D01*
X83319857Y-107545142D01*
X133675380Y-81478285D02*
X132675380Y-81478285D01*
X132675380Y-81240190D01*
X132723000Y-81097333D01*
X132818238Y-81002095D01*
X132913476Y-80954476D01*
X133103952Y-80906857D01*
X133246809Y-80906857D01*
X133437285Y-80954476D01*
X133532523Y-81002095D01*
X133627761Y-81097333D01*
X133675380Y-81240190D01*
X133675380Y-81478285D01*
X133008714Y-80049714D02*
X133675380Y-80049714D01*
X132627761Y-80287809D02*
X133342047Y-80525904D01*
X133342047Y-79906857D01*
X133008714Y-79097333D02*
X133675380Y-79097333D01*
X132627761Y-79335428D02*
X133342047Y-79573523D01*
X133342047Y-78954476D01*
X93400714Y-107640380D02*
X93400714Y-106640380D01*
X93638809Y-106640380D01*
X93781666Y-106688000D01*
X93876904Y-106783238D01*
X93924523Y-106878476D01*
X93972142Y-107068952D01*
X93972142Y-107211809D01*
X93924523Y-107402285D01*
X93876904Y-107497523D01*
X93781666Y-107592761D01*
X93638809Y-107640380D01*
X93400714Y-107640380D01*
X94829285Y-106973714D02*
X94829285Y-107640380D01*
X94591190Y-106592761D02*
X94353095Y-107307047D01*
X94972142Y-107307047D01*
X95829285Y-106640380D02*
X95353095Y-106640380D01*
X95305476Y-107116571D01*
X95353095Y-107068952D01*
X95448333Y-107021333D01*
X95686428Y-107021333D01*
X95781666Y-107068952D01*
X95829285Y-107116571D01*
X95876904Y-107211809D01*
X95876904Y-107449904D01*
X95829285Y-107545142D01*
X95781666Y-107592761D01*
X95686428Y-107640380D01*
X95448333Y-107640380D01*
X95353095Y-107592761D01*
X95305476Y-107545142D01*
X105338714Y-107640380D02*
X105338714Y-106640380D01*
X105576809Y-106640380D01*
X105719666Y-106688000D01*
X105814904Y-106783238D01*
X105862523Y-106878476D01*
X105910142Y-107068952D01*
X105910142Y-107211809D01*
X105862523Y-107402285D01*
X105814904Y-107497523D01*
X105719666Y-107592761D01*
X105576809Y-107640380D01*
X105338714Y-107640380D01*
X106767285Y-106973714D02*
X106767285Y-107640380D01*
X106529190Y-106592761D02*
X106291095Y-107307047D01*
X106910142Y-107307047D01*
X107719666Y-106640380D02*
X107529190Y-106640380D01*
X107433952Y-106688000D01*
X107386333Y-106735619D01*
X107291095Y-106878476D01*
X107243476Y-107068952D01*
X107243476Y-107449904D01*
X107291095Y-107545142D01*
X107338714Y-107592761D01*
X107433952Y-107640380D01*
X107624428Y-107640380D01*
X107719666Y-107592761D01*
X107767285Y-107545142D01*
X107814904Y-107449904D01*
X107814904Y-107211809D01*
X107767285Y-107116571D01*
X107719666Y-107068952D01*
X107624428Y-107021333D01*
X107433952Y-107021333D01*
X107338714Y-107068952D01*
X107291095Y-107116571D01*
X107243476Y-107211809D01*
X95980261Y-60261119D02*
X95885023Y-60213500D01*
X95789785Y-60118261D01*
X95646928Y-59975404D01*
X95551690Y-59927785D01*
X95456452Y-59927785D01*
X95504071Y-60165880D02*
X95408833Y-60118261D01*
X95313595Y-60023023D01*
X95265976Y-59832547D01*
X95265976Y-59499214D01*
X95313595Y-59308738D01*
X95408833Y-59213500D01*
X95504071Y-59165880D01*
X95694547Y-59165880D01*
X95789785Y-59213500D01*
X95885023Y-59308738D01*
X95932642Y-59499214D01*
X95932642Y-59832547D01*
X95885023Y-60023023D01*
X95789785Y-60118261D01*
X95694547Y-60165880D01*
X95504071Y-60165880D01*
X96313595Y-59261119D02*
X96361214Y-59213500D01*
X96456452Y-59165880D01*
X96694547Y-59165880D01*
X96789785Y-59213500D01*
X96837404Y-59261119D01*
X96885023Y-59356357D01*
X96885023Y-59451595D01*
X96837404Y-59594452D01*
X96265976Y-60165880D01*
X96885023Y-60165880D01*
X86455261Y-60261119D02*
X86360023Y-60213500D01*
X86264785Y-60118261D01*
X86121928Y-59975404D01*
X86026690Y-59927785D01*
X85931452Y-59927785D01*
X85979071Y-60165880D02*
X85883833Y-60118261D01*
X85788595Y-60023023D01*
X85740976Y-59832547D01*
X85740976Y-59499214D01*
X85788595Y-59308738D01*
X85883833Y-59213500D01*
X85979071Y-59165880D01*
X86169547Y-59165880D01*
X86264785Y-59213500D01*
X86360023Y-59308738D01*
X86407642Y-59499214D01*
X86407642Y-59832547D01*
X86360023Y-60023023D01*
X86264785Y-60118261D01*
X86169547Y-60165880D01*
X85979071Y-60165880D01*
X86740976Y-59165880D02*
X87360023Y-59165880D01*
X87026690Y-59546833D01*
X87169547Y-59546833D01*
X87264785Y-59594452D01*
X87312404Y-59642071D01*
X87360023Y-59737309D01*
X87360023Y-59975404D01*
X87312404Y-60070642D01*
X87264785Y-60118261D01*
X87169547Y-60165880D01*
X86883833Y-60165880D01*
X86788595Y-60118261D01*
X86740976Y-60070642D01*
X93972142Y-106116380D02*
X93638809Y-105640190D01*
X93400714Y-106116380D02*
X93400714Y-105116380D01*
X93781666Y-105116380D01*
X93876904Y-105164000D01*
X93924523Y-105211619D01*
X93972142Y-105306857D01*
X93972142Y-105449714D01*
X93924523Y-105544952D01*
X93876904Y-105592571D01*
X93781666Y-105640190D01*
X93400714Y-105640190D01*
X94876904Y-105116380D02*
X94400714Y-105116380D01*
X94353095Y-105592571D01*
X94400714Y-105544952D01*
X94495952Y-105497333D01*
X94734047Y-105497333D01*
X94829285Y-105544952D01*
X94876904Y-105592571D01*
X94924523Y-105687809D01*
X94924523Y-105925904D01*
X94876904Y-106021142D01*
X94829285Y-106068761D01*
X94734047Y-106116380D01*
X94495952Y-106116380D01*
X94400714Y-106068761D01*
X94353095Y-106021142D01*
X95876904Y-106116380D02*
X95305476Y-106116380D01*
X95591190Y-106116380D02*
X95591190Y-105116380D01*
X95495952Y-105259238D01*
X95400714Y-105354476D01*
X95305476Y-105402095D01*
X105910142Y-105862380D02*
X105576809Y-105386190D01*
X105338714Y-105862380D02*
X105338714Y-104862380D01*
X105719666Y-104862380D01*
X105814904Y-104910000D01*
X105862523Y-104957619D01*
X105910142Y-105052857D01*
X105910142Y-105195714D01*
X105862523Y-105290952D01*
X105814904Y-105338571D01*
X105719666Y-105386190D01*
X105338714Y-105386190D01*
X106814904Y-104862380D02*
X106338714Y-104862380D01*
X106291095Y-105338571D01*
X106338714Y-105290952D01*
X106433952Y-105243333D01*
X106672047Y-105243333D01*
X106767285Y-105290952D01*
X106814904Y-105338571D01*
X106862523Y-105433809D01*
X106862523Y-105671904D01*
X106814904Y-105767142D01*
X106767285Y-105814761D01*
X106672047Y-105862380D01*
X106433952Y-105862380D01*
X106338714Y-105814761D01*
X106291095Y-105767142D01*
X107243476Y-104957619D02*
X107291095Y-104910000D01*
X107386333Y-104862380D01*
X107624428Y-104862380D01*
X107719666Y-104910000D01*
X107767285Y-104957619D01*
X107814904Y-105052857D01*
X107814904Y-105148095D01*
X107767285Y-105290952D01*
X107195857Y-105862380D01*
X107814904Y-105862380D01*
M02*
