G04 #@! TF.GenerationSoftware,KiCad,Pcbnew,5.1.4*
G04 #@! TF.CreationDate,2019-11-02T22:35:18+09:00*
G04 #@! TF.ProjectId,Navpad_bottom-32u4,4e617670-6164-45f6-926f-74746f6d2d33,rev?*
G04 #@! TF.SameCoordinates,Original*
G04 #@! TF.FileFunction,Copper,L1,Top*
G04 #@! TF.FilePolarity,Positive*
%FSLAX46Y46*%
G04 Gerber Fmt 4.6, Leading zero omitted, Abs format (unit mm)*
G04 Created by KiCad (PCBNEW 5.1.4) date 2019-11-02 22:35:18*
%MOMM*%
%LPD*%
G04 APERTURE LIST*
%ADD10C,0.010000*%
%ADD11C,4.400000*%
%ADD12C,0.600000*%
%ADD13C,0.254000*%
G04 APERTURE END LIST*
D10*
G36*
X127042333Y-144745207D02*
G01*
X127829671Y-144756435D01*
X128479607Y-144787840D01*
X129023378Y-144844290D01*
X129492221Y-144930652D01*
X129917374Y-145051796D01*
X130330073Y-145212588D01*
X130481779Y-145281194D01*
X131041667Y-145598906D01*
X131490644Y-145988424D01*
X131848047Y-146474588D01*
X132133208Y-147082240D01*
X132310896Y-147631191D01*
X132349903Y-147776140D01*
X132383130Y-147919106D01*
X132411137Y-148074700D01*
X132434487Y-148257529D01*
X132453740Y-148482203D01*
X132469456Y-148763333D01*
X132482197Y-149115526D01*
X132492523Y-149553393D01*
X132500996Y-150091543D01*
X132508176Y-150744585D01*
X132514624Y-151527129D01*
X132520901Y-152453784D01*
X132525672Y-153225500D01*
X132555585Y-158157334D01*
X130113349Y-158157334D01*
X130059508Y-157764516D01*
X130029956Y-157457923D01*
X130010399Y-157080639D01*
X130005666Y-156820938D01*
X130005666Y-156270177D01*
X129508776Y-156811589D01*
X128857766Y-157400237D01*
X128106373Y-157868673D01*
X127381000Y-158165563D01*
X126855396Y-158287724D01*
X126242844Y-158362128D01*
X125602841Y-158386825D01*
X124994887Y-158359870D01*
X124478478Y-158279314D01*
X124413354Y-158262695D01*
X123689646Y-157982766D01*
X123058485Y-157569066D01*
X122529732Y-157035594D01*
X122113243Y-156396352D01*
X121818878Y-155665337D01*
X121656495Y-154856551D01*
X121626388Y-154305000D01*
X121665888Y-153869005D01*
X124336703Y-153869005D01*
X124348927Y-154220534D01*
X124350258Y-154243223D01*
X124388870Y-154613945D01*
X124452531Y-154942813D01*
X124527898Y-155163849D01*
X124751640Y-155491742D01*
X125053393Y-155805034D01*
X125371846Y-156043237D01*
X125473123Y-156096415D01*
X125751618Y-156167017D01*
X126142856Y-156193859D01*
X126596818Y-156179887D01*
X127063483Y-156128048D01*
X127492831Y-156041290D01*
X127740550Y-155962847D01*
X128301184Y-155661336D01*
X128810852Y-155224916D01*
X129242494Y-154686315D01*
X129569053Y-154078262D01*
X129741193Y-153543000D01*
X129786611Y-153262046D01*
X129825708Y-152879405D01*
X129852088Y-152462722D01*
X129857294Y-152315334D01*
X129878666Y-151511000D01*
X128570774Y-151534196D01*
X127594415Y-151581851D01*
X126766473Y-151690372D01*
X126075712Y-151864193D01*
X125510898Y-152107744D01*
X125060794Y-152425459D01*
X124714166Y-152821770D01*
X124538371Y-153124953D01*
X124420042Y-153388882D01*
X124356613Y-153614344D01*
X124336703Y-153869005D01*
X121665888Y-153869005D01*
X121703438Y-153454543D01*
X121931697Y-152674563D01*
X122305688Y-151971323D01*
X122819934Y-151351089D01*
X123468957Y-150820125D01*
X124247281Y-150384695D01*
X125149427Y-150051065D01*
X125407054Y-149980889D01*
X125888155Y-149881763D01*
X126495990Y-149791869D01*
X127188038Y-149715322D01*
X127921777Y-149656239D01*
X128654685Y-149618734D01*
X129272057Y-149606837D01*
X129935447Y-149606000D01*
X129874293Y-148949834D01*
X129790906Y-148343678D01*
X129658867Y-147875915D01*
X129463977Y-147519145D01*
X129192042Y-147245971D01*
X128896329Y-147062415D01*
X128406394Y-146884662D01*
X127788935Y-146779038D01*
X127068907Y-146744032D01*
X126271270Y-146778133D01*
X125420981Y-146879831D01*
X124542997Y-147047614D01*
X123662277Y-147279971D01*
X123279950Y-147402403D01*
X122944171Y-147513786D01*
X122669030Y-147600711D01*
X122493714Y-147651013D01*
X122454450Y-147658667D01*
X122428826Y-147579255D01*
X122407535Y-147362010D01*
X122392549Y-147038412D01*
X122385842Y-146639944D01*
X122385666Y-146561402D01*
X122385666Y-145464137D01*
X122937681Y-145293637D01*
X123698857Y-145080024D01*
X124428396Y-144924755D01*
X125174155Y-144821434D01*
X125983995Y-144763669D01*
X126905773Y-144745064D01*
X127042333Y-144745207D01*
X127042333Y-144745207D01*
G37*
X127042333Y-144745207D02*
X127829671Y-144756435D01*
X128479607Y-144787840D01*
X129023378Y-144844290D01*
X129492221Y-144930652D01*
X129917374Y-145051796D01*
X130330073Y-145212588D01*
X130481779Y-145281194D01*
X131041667Y-145598906D01*
X131490644Y-145988424D01*
X131848047Y-146474588D01*
X132133208Y-147082240D01*
X132310896Y-147631191D01*
X132349903Y-147776140D01*
X132383130Y-147919106D01*
X132411137Y-148074700D01*
X132434487Y-148257529D01*
X132453740Y-148482203D01*
X132469456Y-148763333D01*
X132482197Y-149115526D01*
X132492523Y-149553393D01*
X132500996Y-150091543D01*
X132508176Y-150744585D01*
X132514624Y-151527129D01*
X132520901Y-152453784D01*
X132525672Y-153225500D01*
X132555585Y-158157334D01*
X130113349Y-158157334D01*
X130059508Y-157764516D01*
X130029956Y-157457923D01*
X130010399Y-157080639D01*
X130005666Y-156820938D01*
X130005666Y-156270177D01*
X129508776Y-156811589D01*
X128857766Y-157400237D01*
X128106373Y-157868673D01*
X127381000Y-158165563D01*
X126855396Y-158287724D01*
X126242844Y-158362128D01*
X125602841Y-158386825D01*
X124994887Y-158359870D01*
X124478478Y-158279314D01*
X124413354Y-158262695D01*
X123689646Y-157982766D01*
X123058485Y-157569066D01*
X122529732Y-157035594D01*
X122113243Y-156396352D01*
X121818878Y-155665337D01*
X121656495Y-154856551D01*
X121626388Y-154305000D01*
X121665888Y-153869005D01*
X124336703Y-153869005D01*
X124348927Y-154220534D01*
X124350258Y-154243223D01*
X124388870Y-154613945D01*
X124452531Y-154942813D01*
X124527898Y-155163849D01*
X124751640Y-155491742D01*
X125053393Y-155805034D01*
X125371846Y-156043237D01*
X125473123Y-156096415D01*
X125751618Y-156167017D01*
X126142856Y-156193859D01*
X126596818Y-156179887D01*
X127063483Y-156128048D01*
X127492831Y-156041290D01*
X127740550Y-155962847D01*
X128301184Y-155661336D01*
X128810852Y-155224916D01*
X129242494Y-154686315D01*
X129569053Y-154078262D01*
X129741193Y-153543000D01*
X129786611Y-153262046D01*
X129825708Y-152879405D01*
X129852088Y-152462722D01*
X129857294Y-152315334D01*
X129878666Y-151511000D01*
X128570774Y-151534196D01*
X127594415Y-151581851D01*
X126766473Y-151690372D01*
X126075712Y-151864193D01*
X125510898Y-152107744D01*
X125060794Y-152425459D01*
X124714166Y-152821770D01*
X124538371Y-153124953D01*
X124420042Y-153388882D01*
X124356613Y-153614344D01*
X124336703Y-153869005D01*
X121665888Y-153869005D01*
X121703438Y-153454543D01*
X121931697Y-152674563D01*
X122305688Y-151971323D01*
X122819934Y-151351089D01*
X123468957Y-150820125D01*
X124247281Y-150384695D01*
X125149427Y-150051065D01*
X125407054Y-149980889D01*
X125888155Y-149881763D01*
X126495990Y-149791869D01*
X127188038Y-149715322D01*
X127921777Y-149656239D01*
X128654685Y-149618734D01*
X129272057Y-149606837D01*
X129935447Y-149606000D01*
X129874293Y-148949834D01*
X129790906Y-148343678D01*
X129658867Y-147875915D01*
X129463977Y-147519145D01*
X129192042Y-147245971D01*
X128896329Y-147062415D01*
X128406394Y-146884662D01*
X127788935Y-146779038D01*
X127068907Y-146744032D01*
X126271270Y-146778133D01*
X125420981Y-146879831D01*
X124542997Y-147047614D01*
X123662277Y-147279971D01*
X123279950Y-147402403D01*
X122944171Y-147513786D01*
X122669030Y-147600711D01*
X122493714Y-147651013D01*
X122454450Y-147658667D01*
X122428826Y-147579255D01*
X122407535Y-147362010D01*
X122392549Y-147038412D01*
X122385842Y-146639944D01*
X122385666Y-146561402D01*
X122385666Y-145464137D01*
X122937681Y-145293637D01*
X123698857Y-145080024D01*
X124428396Y-144924755D01*
X125174155Y-144821434D01*
X125983995Y-144763669D01*
X126905773Y-144745064D01*
X127042333Y-144745207D01*
G36*
X169460333Y-144745207D02*
G01*
X170247671Y-144756435D01*
X170897607Y-144787840D01*
X171441378Y-144844290D01*
X171910221Y-144930652D01*
X172335374Y-145051796D01*
X172748073Y-145212588D01*
X172899779Y-145281194D01*
X173459667Y-145598906D01*
X173908644Y-145988424D01*
X174266047Y-146474588D01*
X174551208Y-147082240D01*
X174728896Y-147631191D01*
X174767903Y-147776140D01*
X174801130Y-147919106D01*
X174829137Y-148074700D01*
X174852487Y-148257529D01*
X174871740Y-148482203D01*
X174887456Y-148763333D01*
X174900197Y-149115526D01*
X174910523Y-149553393D01*
X174918996Y-150091543D01*
X174926176Y-150744585D01*
X174932624Y-151527129D01*
X174938901Y-152453784D01*
X174943672Y-153225500D01*
X174973585Y-158157334D01*
X172531349Y-158157334D01*
X172477508Y-157764516D01*
X172447956Y-157457923D01*
X172428399Y-157080639D01*
X172423666Y-156820938D01*
X172423666Y-156270177D01*
X171926776Y-156811589D01*
X171275766Y-157400237D01*
X170524373Y-157868673D01*
X169799000Y-158165563D01*
X169273396Y-158287724D01*
X168660844Y-158362128D01*
X168020841Y-158386825D01*
X167412887Y-158359870D01*
X166896478Y-158279314D01*
X166831354Y-158262695D01*
X166107646Y-157982766D01*
X165476485Y-157569066D01*
X164947732Y-157035594D01*
X164531243Y-156396352D01*
X164236878Y-155665337D01*
X164074495Y-154856551D01*
X164044388Y-154305000D01*
X164083888Y-153869005D01*
X166754703Y-153869005D01*
X166766927Y-154220534D01*
X166768258Y-154243223D01*
X166806870Y-154613945D01*
X166870531Y-154942813D01*
X166945898Y-155163849D01*
X167169640Y-155491742D01*
X167471393Y-155805034D01*
X167789846Y-156043237D01*
X167891123Y-156096415D01*
X168169618Y-156167017D01*
X168560856Y-156193859D01*
X169014818Y-156179887D01*
X169481483Y-156128048D01*
X169910831Y-156041290D01*
X170158550Y-155962847D01*
X170719184Y-155661336D01*
X171228852Y-155224916D01*
X171660494Y-154686315D01*
X171987053Y-154078262D01*
X172159193Y-153543000D01*
X172204611Y-153262046D01*
X172243708Y-152879405D01*
X172270088Y-152462722D01*
X172275294Y-152315334D01*
X172296666Y-151511000D01*
X170988774Y-151534196D01*
X170012415Y-151581851D01*
X169184473Y-151690372D01*
X168493712Y-151864193D01*
X167928898Y-152107744D01*
X167478794Y-152425459D01*
X167132166Y-152821770D01*
X166956371Y-153124953D01*
X166838042Y-153388882D01*
X166774613Y-153614344D01*
X166754703Y-153869005D01*
X164083888Y-153869005D01*
X164121438Y-153454543D01*
X164349697Y-152674563D01*
X164723688Y-151971323D01*
X165237934Y-151351089D01*
X165886957Y-150820125D01*
X166665281Y-150384695D01*
X167567427Y-150051065D01*
X167825054Y-149980889D01*
X168306155Y-149881763D01*
X168913990Y-149791869D01*
X169606038Y-149715322D01*
X170339777Y-149656239D01*
X171072685Y-149618734D01*
X171690057Y-149606837D01*
X172353447Y-149606000D01*
X172292293Y-148949834D01*
X172208906Y-148343678D01*
X172076867Y-147875915D01*
X171881977Y-147519145D01*
X171610042Y-147245971D01*
X171314329Y-147062415D01*
X170824394Y-146884662D01*
X170206935Y-146779038D01*
X169486907Y-146744032D01*
X168689270Y-146778133D01*
X167838981Y-146879831D01*
X166960997Y-147047614D01*
X166080277Y-147279971D01*
X165697950Y-147402403D01*
X165362171Y-147513786D01*
X165087030Y-147600711D01*
X164911714Y-147651013D01*
X164872450Y-147658667D01*
X164846826Y-147579255D01*
X164825535Y-147362010D01*
X164810549Y-147038412D01*
X164803842Y-146639944D01*
X164803666Y-146561402D01*
X164803666Y-145464137D01*
X165355681Y-145293637D01*
X166116857Y-145080024D01*
X166846396Y-144924755D01*
X167592155Y-144821434D01*
X168401995Y-144763669D01*
X169323773Y-144745064D01*
X169460333Y-144745207D01*
X169460333Y-144745207D01*
G37*
X169460333Y-144745207D02*
X170247671Y-144756435D01*
X170897607Y-144787840D01*
X171441378Y-144844290D01*
X171910221Y-144930652D01*
X172335374Y-145051796D01*
X172748073Y-145212588D01*
X172899779Y-145281194D01*
X173459667Y-145598906D01*
X173908644Y-145988424D01*
X174266047Y-146474588D01*
X174551208Y-147082240D01*
X174728896Y-147631191D01*
X174767903Y-147776140D01*
X174801130Y-147919106D01*
X174829137Y-148074700D01*
X174852487Y-148257529D01*
X174871740Y-148482203D01*
X174887456Y-148763333D01*
X174900197Y-149115526D01*
X174910523Y-149553393D01*
X174918996Y-150091543D01*
X174926176Y-150744585D01*
X174932624Y-151527129D01*
X174938901Y-152453784D01*
X174943672Y-153225500D01*
X174973585Y-158157334D01*
X172531349Y-158157334D01*
X172477508Y-157764516D01*
X172447956Y-157457923D01*
X172428399Y-157080639D01*
X172423666Y-156820938D01*
X172423666Y-156270177D01*
X171926776Y-156811589D01*
X171275766Y-157400237D01*
X170524373Y-157868673D01*
X169799000Y-158165563D01*
X169273396Y-158287724D01*
X168660844Y-158362128D01*
X168020841Y-158386825D01*
X167412887Y-158359870D01*
X166896478Y-158279314D01*
X166831354Y-158262695D01*
X166107646Y-157982766D01*
X165476485Y-157569066D01*
X164947732Y-157035594D01*
X164531243Y-156396352D01*
X164236878Y-155665337D01*
X164074495Y-154856551D01*
X164044388Y-154305000D01*
X164083888Y-153869005D01*
X166754703Y-153869005D01*
X166766927Y-154220534D01*
X166768258Y-154243223D01*
X166806870Y-154613945D01*
X166870531Y-154942813D01*
X166945898Y-155163849D01*
X167169640Y-155491742D01*
X167471393Y-155805034D01*
X167789846Y-156043237D01*
X167891123Y-156096415D01*
X168169618Y-156167017D01*
X168560856Y-156193859D01*
X169014818Y-156179887D01*
X169481483Y-156128048D01*
X169910831Y-156041290D01*
X170158550Y-155962847D01*
X170719184Y-155661336D01*
X171228852Y-155224916D01*
X171660494Y-154686315D01*
X171987053Y-154078262D01*
X172159193Y-153543000D01*
X172204611Y-153262046D01*
X172243708Y-152879405D01*
X172270088Y-152462722D01*
X172275294Y-152315334D01*
X172296666Y-151511000D01*
X170988774Y-151534196D01*
X170012415Y-151581851D01*
X169184473Y-151690372D01*
X168493712Y-151864193D01*
X167928898Y-152107744D01*
X167478794Y-152425459D01*
X167132166Y-152821770D01*
X166956371Y-153124953D01*
X166838042Y-153388882D01*
X166774613Y-153614344D01*
X166754703Y-153869005D01*
X164083888Y-153869005D01*
X164121438Y-153454543D01*
X164349697Y-152674563D01*
X164723688Y-151971323D01*
X165237934Y-151351089D01*
X165886957Y-150820125D01*
X166665281Y-150384695D01*
X167567427Y-150051065D01*
X167825054Y-149980889D01*
X168306155Y-149881763D01*
X168913990Y-149791869D01*
X169606038Y-149715322D01*
X170339777Y-149656239D01*
X171072685Y-149618734D01*
X171690057Y-149606837D01*
X172353447Y-149606000D01*
X172292293Y-148949834D01*
X172208906Y-148343678D01*
X172076867Y-147875915D01*
X171881977Y-147519145D01*
X171610042Y-147245971D01*
X171314329Y-147062415D01*
X170824394Y-146884662D01*
X170206935Y-146779038D01*
X169486907Y-146744032D01*
X168689270Y-146778133D01*
X167838981Y-146879831D01*
X166960997Y-147047614D01*
X166080277Y-147279971D01*
X165697950Y-147402403D01*
X165362171Y-147513786D01*
X165087030Y-147600711D01*
X164911714Y-147651013D01*
X164872450Y-147658667D01*
X164846826Y-147579255D01*
X164825535Y-147362010D01*
X164810549Y-147038412D01*
X164803842Y-146639944D01*
X164803666Y-146561402D01*
X164803666Y-145464137D01*
X165355681Y-145293637D01*
X166116857Y-145080024D01*
X166846396Y-144924755D01*
X167592155Y-144821434D01*
X168401995Y-144763669D01*
X169323773Y-144745064D01*
X169460333Y-144745207D01*
G36*
X189695666Y-158157334D02*
G01*
X187155666Y-158157334D01*
X187155666Y-157353000D01*
X187150697Y-157007372D01*
X187137341Y-156736141D01*
X187117924Y-156576077D01*
X187104770Y-156548667D01*
X187024421Y-156602523D01*
X186851088Y-156746997D01*
X186614905Y-156956448D01*
X186475507Y-157084146D01*
X185774182Y-157645579D01*
X185056548Y-158043680D01*
X184311921Y-158284355D01*
X184299843Y-158286935D01*
X183699421Y-158372499D01*
X183040375Y-158397814D01*
X182396796Y-158363176D01*
X181876272Y-158277222D01*
X181069544Y-157996794D01*
X180326214Y-157568177D01*
X179656633Y-157003994D01*
X179071150Y-156316865D01*
X178580117Y-155519411D01*
X178193883Y-154624255D01*
X177922799Y-153644017D01*
X177876413Y-153399746D01*
X177809718Y-152860567D01*
X177772880Y-152217197D01*
X177764641Y-151514387D01*
X177773399Y-151185399D01*
X180404865Y-151185399D01*
X180411789Y-152021589D01*
X180478043Y-152834625D01*
X180600364Y-153562511D01*
X180635375Y-153708588D01*
X180904201Y-154490209D01*
X181273383Y-155144566D01*
X181734058Y-155665948D01*
X182277361Y-156048643D01*
X182894426Y-156286940D01*
X183576389Y-156375128D01*
X184314385Y-156307494D01*
X184576711Y-156247931D01*
X185270716Y-155983236D01*
X185885993Y-155579471D01*
X186398652Y-155055431D01*
X186718508Y-154562865D01*
X186944000Y-154135667D01*
X186944000Y-148971000D01*
X186718508Y-148543802D01*
X186308744Y-147942295D01*
X185782974Y-147447447D01*
X185166922Y-147073255D01*
X184486312Y-146833714D01*
X183766866Y-146742821D01*
X183430333Y-146754747D01*
X182723799Y-146878693D01*
X182119340Y-147121122D01*
X181612457Y-147487534D01*
X181198655Y-147983432D01*
X180873435Y-148614317D01*
X180632300Y-149385693D01*
X180470754Y-150303060D01*
X180460536Y-150388050D01*
X180404865Y-151185399D01*
X177773399Y-151185399D01*
X177783742Y-150796888D01*
X177828927Y-150109449D01*
X177898936Y-149496821D01*
X177992512Y-149003754D01*
X178000929Y-148971000D01*
X178175646Y-148426889D01*
X178415378Y-147845128D01*
X178695275Y-147276087D01*
X178990490Y-146770137D01*
X179276172Y-146377648D01*
X179285839Y-146366416D01*
X179928139Y-145751283D01*
X180665098Y-145273538D01*
X181485210Y-144938650D01*
X182376967Y-144752088D01*
X182749137Y-144720323D01*
X183711143Y-144744571D01*
X184606449Y-144922864D01*
X185445647Y-145258587D01*
X186239330Y-145755120D01*
X186414293Y-145890610D01*
X186944000Y-146315752D01*
X186966075Y-142711543D01*
X186988151Y-139107334D01*
X189695666Y-139107334D01*
X189695666Y-158157334D01*
X189695666Y-158157334D01*
G37*
X189695666Y-158157334D02*
X187155666Y-158157334D01*
X187155666Y-157353000D01*
X187150697Y-157007372D01*
X187137341Y-156736141D01*
X187117924Y-156576077D01*
X187104770Y-156548667D01*
X187024421Y-156602523D01*
X186851088Y-156746997D01*
X186614905Y-156956448D01*
X186475507Y-157084146D01*
X185774182Y-157645579D01*
X185056548Y-158043680D01*
X184311921Y-158284355D01*
X184299843Y-158286935D01*
X183699421Y-158372499D01*
X183040375Y-158397814D01*
X182396796Y-158363176D01*
X181876272Y-158277222D01*
X181069544Y-157996794D01*
X180326214Y-157568177D01*
X179656633Y-157003994D01*
X179071150Y-156316865D01*
X178580117Y-155519411D01*
X178193883Y-154624255D01*
X177922799Y-153644017D01*
X177876413Y-153399746D01*
X177809718Y-152860567D01*
X177772880Y-152217197D01*
X177764641Y-151514387D01*
X177773399Y-151185399D01*
X180404865Y-151185399D01*
X180411789Y-152021589D01*
X180478043Y-152834625D01*
X180600364Y-153562511D01*
X180635375Y-153708588D01*
X180904201Y-154490209D01*
X181273383Y-155144566D01*
X181734058Y-155665948D01*
X182277361Y-156048643D01*
X182894426Y-156286940D01*
X183576389Y-156375128D01*
X184314385Y-156307494D01*
X184576711Y-156247931D01*
X185270716Y-155983236D01*
X185885993Y-155579471D01*
X186398652Y-155055431D01*
X186718508Y-154562865D01*
X186944000Y-154135667D01*
X186944000Y-148971000D01*
X186718508Y-148543802D01*
X186308744Y-147942295D01*
X185782974Y-147447447D01*
X185166922Y-147073255D01*
X184486312Y-146833714D01*
X183766866Y-146742821D01*
X183430333Y-146754747D01*
X182723799Y-146878693D01*
X182119340Y-147121122D01*
X181612457Y-147487534D01*
X181198655Y-147983432D01*
X180873435Y-148614317D01*
X180632300Y-149385693D01*
X180470754Y-150303060D01*
X180460536Y-150388050D01*
X180404865Y-151185399D01*
X177773399Y-151185399D01*
X177783742Y-150796888D01*
X177828927Y-150109449D01*
X177898936Y-149496821D01*
X177992512Y-149003754D01*
X178000929Y-148971000D01*
X178175646Y-148426889D01*
X178415378Y-147845128D01*
X178695275Y-147276087D01*
X178990490Y-146770137D01*
X179276172Y-146377648D01*
X179285839Y-146366416D01*
X179928139Y-145751283D01*
X180665098Y-145273538D01*
X181485210Y-144938650D01*
X182376967Y-144752088D01*
X182749137Y-144720323D01*
X183711143Y-144744571D01*
X184606449Y-144922864D01*
X185445647Y-145258587D01*
X186239330Y-145755120D01*
X186414293Y-145890610D01*
X186944000Y-146315752D01*
X186966075Y-142711543D01*
X186988151Y-139107334D01*
X189695666Y-139107334D01*
X189695666Y-158157334D01*
G36*
X107683149Y-139657667D02*
G01*
X111626574Y-146550617D01*
X115570000Y-153443567D01*
X115591661Y-146529450D01*
X115613323Y-139615334D01*
X118406333Y-139615334D01*
X118406333Y-158161428D01*
X117004379Y-158138214D01*
X115602426Y-158115000D01*
X107696000Y-144314334D01*
X107652676Y-158157334D01*
X104944333Y-158157334D01*
X104944333Y-139611139D01*
X107683149Y-139657667D01*
X107683149Y-139657667D01*
G37*
X107683149Y-139657667D02*
X111626574Y-146550617D01*
X115570000Y-153443567D01*
X115591661Y-146529450D01*
X115613323Y-139615334D01*
X118406333Y-139615334D01*
X118406333Y-158161428D01*
X117004379Y-158138214D01*
X115602426Y-158115000D01*
X107696000Y-144314334D01*
X107652676Y-158157334D01*
X104944333Y-158157334D01*
X104944333Y-139611139D01*
X107683149Y-139657667D01*
G36*
X137527848Y-145237165D02*
G01*
X137708013Y-145884504D01*
X137911832Y-146607824D01*
X138134954Y-147392347D01*
X138373029Y-148223294D01*
X138621705Y-149085886D01*
X138876632Y-149965344D01*
X139133461Y-150846889D01*
X139387841Y-151715744D01*
X139635420Y-152557129D01*
X139871849Y-153356265D01*
X140092778Y-154098374D01*
X140293855Y-154768676D01*
X140470731Y-155352394D01*
X140619055Y-155834749D01*
X140734476Y-156200961D01*
X140812645Y-156436252D01*
X140849210Y-156525844D01*
X140850881Y-156525724D01*
X140882766Y-156428876D01*
X140957211Y-156182488D01*
X141070353Y-155799861D01*
X141218329Y-155294300D01*
X141397275Y-154679110D01*
X141603329Y-153967594D01*
X141832628Y-153173055D01*
X142081308Y-152308798D01*
X142345508Y-151388127D01*
X142546586Y-150685846D01*
X144187333Y-144950025D01*
X145563166Y-144949679D01*
X146103614Y-144952755D01*
X146492903Y-144963221D01*
X146749101Y-144982468D01*
X146890275Y-145011885D01*
X146934494Y-145052862D01*
X146934487Y-145055167D01*
X146907320Y-145150089D01*
X146829955Y-145393207D01*
X146706451Y-145772309D01*
X146540866Y-146275186D01*
X146337261Y-146889628D01*
X146099694Y-147603423D01*
X145832225Y-148404363D01*
X145538913Y-149280237D01*
X145223817Y-150218834D01*
X144890996Y-151207944D01*
X144746058Y-151638000D01*
X142562142Y-158115000D01*
X140780931Y-158137822D01*
X140185741Y-158144462D01*
X139738029Y-158146049D01*
X139415978Y-158141077D01*
X139197771Y-158128039D01*
X139061589Y-158105428D01*
X138985615Y-158071739D01*
X138948031Y-158025464D01*
X138941715Y-158010822D01*
X138897205Y-157885468D01*
X138805284Y-157618171D01*
X138670868Y-157223577D01*
X138498872Y-156716329D01*
X138294213Y-156111073D01*
X138061806Y-155422454D01*
X137806567Y-154665117D01*
X137533413Y-153853706D01*
X137247259Y-153002867D01*
X136953021Y-152127244D01*
X136655615Y-151241483D01*
X136359957Y-150360228D01*
X136070964Y-149498124D01*
X135793550Y-148669816D01*
X135532632Y-147889949D01*
X135293126Y-147173168D01*
X135079949Y-146534117D01*
X134898014Y-145987442D01*
X134752240Y-145547788D01*
X134647541Y-145229800D01*
X134588834Y-145048121D01*
X134577666Y-145010071D01*
X134657741Y-144990114D01*
X134879613Y-144972913D01*
X135215755Y-144959634D01*
X135638638Y-144951442D01*
X136013020Y-144949334D01*
X137448373Y-144949334D01*
X137527848Y-145237165D01*
X137527848Y-145237165D01*
G37*
X137527848Y-145237165D02*
X137708013Y-145884504D01*
X137911832Y-146607824D01*
X138134954Y-147392347D01*
X138373029Y-148223294D01*
X138621705Y-149085886D01*
X138876632Y-149965344D01*
X139133461Y-150846889D01*
X139387841Y-151715744D01*
X139635420Y-152557129D01*
X139871849Y-153356265D01*
X140092778Y-154098374D01*
X140293855Y-154768676D01*
X140470731Y-155352394D01*
X140619055Y-155834749D01*
X140734476Y-156200961D01*
X140812645Y-156436252D01*
X140849210Y-156525844D01*
X140850881Y-156525724D01*
X140882766Y-156428876D01*
X140957211Y-156182488D01*
X141070353Y-155799861D01*
X141218329Y-155294300D01*
X141397275Y-154679110D01*
X141603329Y-153967594D01*
X141832628Y-153173055D01*
X142081308Y-152308798D01*
X142345508Y-151388127D01*
X142546586Y-150685846D01*
X144187333Y-144950025D01*
X145563166Y-144949679D01*
X146103614Y-144952755D01*
X146492903Y-144963221D01*
X146749101Y-144982468D01*
X146890275Y-145011885D01*
X146934494Y-145052862D01*
X146934487Y-145055167D01*
X146907320Y-145150089D01*
X146829955Y-145393207D01*
X146706451Y-145772309D01*
X146540866Y-146275186D01*
X146337261Y-146889628D01*
X146099694Y-147603423D01*
X145832225Y-148404363D01*
X145538913Y-149280237D01*
X145223817Y-150218834D01*
X144890996Y-151207944D01*
X144746058Y-151638000D01*
X142562142Y-158115000D01*
X140780931Y-158137822D01*
X140185741Y-158144462D01*
X139738029Y-158146049D01*
X139415978Y-158141077D01*
X139197771Y-158128039D01*
X139061589Y-158105428D01*
X138985615Y-158071739D01*
X138948031Y-158025464D01*
X138941715Y-158010822D01*
X138897205Y-157885468D01*
X138805284Y-157618171D01*
X138670868Y-157223577D01*
X138498872Y-156716329D01*
X138294213Y-156111073D01*
X138061806Y-155422454D01*
X137806567Y-154665117D01*
X137533413Y-153853706D01*
X137247259Y-153002867D01*
X136953021Y-152127244D01*
X136655615Y-151241483D01*
X136359957Y-150360228D01*
X136070964Y-149498124D01*
X135793550Y-148669816D01*
X135532632Y-147889949D01*
X135293126Y-147173168D01*
X135079949Y-146534117D01*
X134898014Y-145987442D01*
X134752240Y-145547788D01*
X134647541Y-145229800D01*
X134588834Y-145048121D01*
X134577666Y-145010071D01*
X134657741Y-144990114D01*
X134879613Y-144972913D01*
X135215755Y-144959634D01*
X135638638Y-144951442D01*
X136013020Y-144949334D01*
X137448373Y-144949334D01*
X137527848Y-145237165D01*
G36*
X153479500Y-139641315D02*
G01*
X154421618Y-139653204D01*
X155214343Y-139666220D01*
X155877612Y-139682010D01*
X156431364Y-139702217D01*
X156895537Y-139728485D01*
X157290069Y-139762460D01*
X157634899Y-139805785D01*
X157949966Y-139860105D01*
X158255208Y-139927065D01*
X158570562Y-140008308D01*
X158838713Y-140083316D01*
X159722850Y-140412524D01*
X160507331Y-140861043D01*
X161180509Y-141417502D01*
X161730735Y-142070533D01*
X162146362Y-142808767D01*
X162401704Y-143561056D01*
X162482745Y-144041787D01*
X162528701Y-144632468D01*
X162539557Y-145277386D01*
X162515296Y-145920831D01*
X162455905Y-146507089D01*
X162402594Y-146812000D01*
X162238866Y-147377263D01*
X161992421Y-147979153D01*
X161692677Y-148556836D01*
X161369050Y-149049479D01*
X161248371Y-149198917D01*
X160827561Y-149603203D01*
X160289624Y-149996817D01*
X159685287Y-150346777D01*
X159065281Y-150620104D01*
X159058638Y-150622534D01*
X158613307Y-150771604D01*
X158161707Y-150891904D01*
X157677054Y-150986982D01*
X157132568Y-151060390D01*
X156501466Y-151115678D01*
X155756967Y-151156397D01*
X154872288Y-151186096D01*
X154791833Y-151188174D01*
X152696333Y-151241260D01*
X152696333Y-158157334D01*
X149902333Y-158157334D01*
X149902333Y-149013334D01*
X152696333Y-149013334D01*
X154074387Y-149013334D01*
X154610187Y-149007524D01*
X155151751Y-148991547D01*
X155647713Y-148967581D01*
X156046706Y-148937804D01*
X156169887Y-148924478D01*
X157100284Y-148752018D01*
X157892370Y-148482000D01*
X158546513Y-148114038D01*
X159063080Y-147647748D01*
X159442437Y-147082743D01*
X159684950Y-146418638D01*
X159790988Y-145655047D01*
X159787836Y-145121870D01*
X159683134Y-144353959D01*
X159456642Y-143701167D01*
X159104125Y-143156731D01*
X158621347Y-142713890D01*
X158084283Y-142402341D01*
X157727232Y-142250165D01*
X157361033Y-142129154D01*
X156958522Y-142035038D01*
X156492531Y-141963547D01*
X155935894Y-141910412D01*
X155261444Y-141871361D01*
X154537833Y-141844927D01*
X152696333Y-141789908D01*
X152696333Y-149013334D01*
X149902333Y-149013334D01*
X149902333Y-139599820D01*
X153479500Y-139641315D01*
X153479500Y-139641315D01*
G37*
X153479500Y-139641315D02*
X154421618Y-139653204D01*
X155214343Y-139666220D01*
X155877612Y-139682010D01*
X156431364Y-139702217D01*
X156895537Y-139728485D01*
X157290069Y-139762460D01*
X157634899Y-139805785D01*
X157949966Y-139860105D01*
X158255208Y-139927065D01*
X158570562Y-140008308D01*
X158838713Y-140083316D01*
X159722850Y-140412524D01*
X160507331Y-140861043D01*
X161180509Y-141417502D01*
X161730735Y-142070533D01*
X162146362Y-142808767D01*
X162401704Y-143561056D01*
X162482745Y-144041787D01*
X162528701Y-144632468D01*
X162539557Y-145277386D01*
X162515296Y-145920831D01*
X162455905Y-146507089D01*
X162402594Y-146812000D01*
X162238866Y-147377263D01*
X161992421Y-147979153D01*
X161692677Y-148556836D01*
X161369050Y-149049479D01*
X161248371Y-149198917D01*
X160827561Y-149603203D01*
X160289624Y-149996817D01*
X159685287Y-150346777D01*
X159065281Y-150620104D01*
X159058638Y-150622534D01*
X158613307Y-150771604D01*
X158161707Y-150891904D01*
X157677054Y-150986982D01*
X157132568Y-151060390D01*
X156501466Y-151115678D01*
X155756967Y-151156397D01*
X154872288Y-151186096D01*
X154791833Y-151188174D01*
X152696333Y-151241260D01*
X152696333Y-158157334D01*
X149902333Y-158157334D01*
X149902333Y-149013334D01*
X152696333Y-149013334D01*
X154074387Y-149013334D01*
X154610187Y-149007524D01*
X155151751Y-148991547D01*
X155647713Y-148967581D01*
X156046706Y-148937804D01*
X156169887Y-148924478D01*
X157100284Y-148752018D01*
X157892370Y-148482000D01*
X158546513Y-148114038D01*
X159063080Y-147647748D01*
X159442437Y-147082743D01*
X159684950Y-146418638D01*
X159790988Y-145655047D01*
X159787836Y-145121870D01*
X159683134Y-144353959D01*
X159456642Y-143701167D01*
X159104125Y-143156731D01*
X158621347Y-142713890D01*
X158084283Y-142402341D01*
X157727232Y-142250165D01*
X157361033Y-142129154D01*
X156958522Y-142035038D01*
X156492531Y-141963547D01*
X155935894Y-141910412D01*
X155261444Y-141871361D01*
X154537833Y-141844927D01*
X152696333Y-141789908D01*
X152696333Y-149013334D01*
X149902333Y-149013334D01*
X149902333Y-139599820D01*
X153479500Y-139641315D01*
D11*
X122269250Y-61976000D03*
X203231750Y-159607250D03*
X162750500Y-159607250D03*
X100838000Y-159607250D03*
X60356750Y-159607250D03*
X203231750Y-138176000D03*
X122269250Y-138176000D03*
X60356750Y-138176000D03*
X203231750Y-81026000D03*
X60356750Y-81026000D03*
X203231750Y-31019750D03*
X155606750Y-30988000D03*
X133223000Y-31019750D03*
X117506750Y-30988000D03*
X60325000Y-30988000D03*
D12*
X171069000Y-152654000D03*
X90805000Y-152654000D03*
X76581000Y-154178000D03*
X133223000Y-152654000D03*
X128143000Y-152654000D03*
X158369000Y-145288000D03*
X103505000Y-145288000D03*
X185547000Y-153416000D03*
D13*
G36*
X115516973Y-29177831D02*
G01*
X115129732Y-29417976D01*
X114869109Y-29911877D01*
X114709849Y-30447133D01*
X114658072Y-31003174D01*
X114715769Y-31558632D01*
X114880722Y-32092161D01*
X115129732Y-32558024D01*
X115516975Y-32798170D01*
X117327145Y-30988000D01*
X117313003Y-30973858D01*
X117492608Y-30794253D01*
X117506750Y-30808395D01*
X117520893Y-30794253D01*
X117700498Y-30973858D01*
X117686355Y-30988000D01*
X119496525Y-32798170D01*
X119883768Y-32558024D01*
X120144391Y-32064123D01*
X120303651Y-31528867D01*
X120355428Y-30972826D01*
X120297731Y-30417368D01*
X120132778Y-29883839D01*
X119883768Y-29417976D01*
X119496527Y-29177831D01*
X119534608Y-29139750D01*
X131163392Y-29139750D01*
X131233223Y-29209581D01*
X130845982Y-29449726D01*
X130585359Y-29943627D01*
X130426099Y-30478883D01*
X130374322Y-31034924D01*
X130432019Y-31590382D01*
X130596972Y-32123911D01*
X130845982Y-32589774D01*
X131233225Y-32829920D01*
X133043395Y-31019750D01*
X133029253Y-31005608D01*
X133208858Y-30826003D01*
X133223000Y-30840145D01*
X133237143Y-30826003D01*
X133416748Y-31005608D01*
X133402605Y-31019750D01*
X135212775Y-32829920D01*
X135600018Y-32589774D01*
X135860641Y-32095873D01*
X136019901Y-31560617D01*
X136071678Y-31004576D01*
X136013981Y-30449118D01*
X135849028Y-29915589D01*
X135600018Y-29449726D01*
X135212777Y-29209581D01*
X135282608Y-29139750D01*
X153578892Y-29139750D01*
X153616973Y-29177831D01*
X153229732Y-29417976D01*
X152969109Y-29911877D01*
X152809849Y-30447133D01*
X152758072Y-31003174D01*
X152815769Y-31558632D01*
X152980722Y-32092161D01*
X153229732Y-32558024D01*
X153616975Y-32798170D01*
X155427145Y-30988000D01*
X155413003Y-30973858D01*
X155592608Y-30794253D01*
X155606750Y-30808395D01*
X155620893Y-30794253D01*
X155800498Y-30973858D01*
X155786355Y-30988000D01*
X157596525Y-32798170D01*
X157983768Y-32558024D01*
X158244391Y-32064123D01*
X158403651Y-31528867D01*
X158455428Y-30972826D01*
X158397731Y-30417368D01*
X158232778Y-29883839D01*
X157983768Y-29417976D01*
X157596527Y-29177831D01*
X157634608Y-29139750D01*
X201172142Y-29139750D01*
X201241973Y-29209581D01*
X200854732Y-29449726D01*
X200594109Y-29943627D01*
X200434849Y-30478883D01*
X200383072Y-31034924D01*
X200440769Y-31590382D01*
X200605722Y-32123911D01*
X200854732Y-32589774D01*
X201241975Y-32829920D01*
X203052145Y-31019750D01*
X203038003Y-31005608D01*
X203217608Y-30826003D01*
X203231750Y-30840145D01*
X203245893Y-30826003D01*
X203425498Y-31005608D01*
X203411355Y-31019750D01*
X203425498Y-31033893D01*
X203245893Y-31213498D01*
X203231750Y-31199355D01*
X201421580Y-33009525D01*
X201661726Y-33396768D01*
X202155627Y-33657391D01*
X202690883Y-33816651D01*
X203246924Y-33868428D01*
X203802382Y-33810731D01*
X204335911Y-33645778D01*
X204801774Y-33396768D01*
X205041919Y-33009527D01*
X205111751Y-33079359D01*
X205111751Y-78966391D01*
X205041919Y-79036223D01*
X204801774Y-78648982D01*
X204307873Y-78388359D01*
X203772617Y-78229099D01*
X203216576Y-78177322D01*
X202661118Y-78235019D01*
X202127589Y-78399972D01*
X201661726Y-78648982D01*
X201421580Y-79036225D01*
X203231750Y-80846395D01*
X203245893Y-80832253D01*
X203425498Y-81011858D01*
X203411355Y-81026000D01*
X203425498Y-81040143D01*
X203245893Y-81219748D01*
X203231750Y-81205605D01*
X201421580Y-83015775D01*
X201661726Y-83403018D01*
X202155627Y-83663641D01*
X202690883Y-83822901D01*
X203246924Y-83874678D01*
X203802382Y-83816981D01*
X204335911Y-83652028D01*
X204801774Y-83403018D01*
X205041919Y-83015777D01*
X205111751Y-83085609D01*
X205111750Y-136116392D01*
X205041919Y-136186223D01*
X204801774Y-135798982D01*
X204307873Y-135538359D01*
X203772617Y-135379099D01*
X203216576Y-135327322D01*
X202661118Y-135385019D01*
X202127589Y-135549972D01*
X201661726Y-135798982D01*
X201421580Y-136186225D01*
X203231750Y-137996395D01*
X203245893Y-137982253D01*
X203425498Y-138161858D01*
X203411355Y-138176000D01*
X203425498Y-138190143D01*
X203245893Y-138369748D01*
X203231750Y-138355605D01*
X201421580Y-140165775D01*
X201661726Y-140553018D01*
X202155627Y-140813641D01*
X202690883Y-140972901D01*
X203246924Y-141024678D01*
X203802382Y-140966981D01*
X204335911Y-140802028D01*
X204801774Y-140553018D01*
X205041919Y-140165777D01*
X205111750Y-140235608D01*
X205111750Y-157547642D01*
X205041919Y-157617473D01*
X204801774Y-157230232D01*
X204307873Y-156969609D01*
X203772617Y-156810349D01*
X203216576Y-156758572D01*
X202661118Y-156816269D01*
X202127589Y-156981222D01*
X201661726Y-157230232D01*
X201421580Y-157617475D01*
X203231750Y-159427645D01*
X203245893Y-159413503D01*
X203425498Y-159593108D01*
X203411355Y-159607250D01*
X203425498Y-159621393D01*
X203245893Y-159800998D01*
X203231750Y-159786855D01*
X203217608Y-159800998D01*
X203038003Y-159621393D01*
X203052145Y-159607250D01*
X201241975Y-157797080D01*
X200854732Y-158037226D01*
X200594109Y-158531127D01*
X200434849Y-159066383D01*
X200383072Y-159622424D01*
X200440769Y-160177882D01*
X200605722Y-160711411D01*
X200854732Y-161177274D01*
X201241973Y-161417419D01*
X201172142Y-161487250D01*
X164810108Y-161487250D01*
X164740277Y-161417419D01*
X165127518Y-161177274D01*
X165388141Y-160683373D01*
X165547401Y-160148117D01*
X165599178Y-159592076D01*
X165541481Y-159036618D01*
X165376528Y-158503089D01*
X165183742Y-158142414D01*
X165756802Y-158518031D01*
X165757284Y-158518283D01*
X165757707Y-158518623D01*
X165812901Y-158547412D01*
X165867451Y-158575982D01*
X165867966Y-158576134D01*
X165868453Y-158576388D01*
X165876765Y-158579670D01*
X166600473Y-158859599D01*
X166632941Y-158868632D01*
X166664461Y-158880552D01*
X166673104Y-158882822D01*
X166738228Y-158899440D01*
X166763925Y-158903379D01*
X166789016Y-158910228D01*
X166797836Y-158911667D01*
X167314244Y-158992222D01*
X167345087Y-158993982D01*
X167375615Y-158998784D01*
X167384539Y-158999242D01*
X167992493Y-159026197D01*
X168014551Y-159025017D01*
X168036588Y-159026632D01*
X168045520Y-159026349D01*
X168685522Y-159001652D01*
X168707228Y-158998675D01*
X168729137Y-158998474D01*
X168738015Y-158997458D01*
X169350567Y-158923054D01*
X169379804Y-158916559D01*
X169409565Y-158913071D01*
X169418283Y-158911108D01*
X169943887Y-158788947D01*
X169988156Y-158773976D01*
X170033134Y-158761199D01*
X170041427Y-158757871D01*
X170766800Y-158460981D01*
X170810621Y-158437819D01*
X170855340Y-158416451D01*
X170862956Y-158411776D01*
X171614349Y-157943340D01*
X171655829Y-157911464D01*
X171698336Y-157880898D01*
X171705006Y-157874951D01*
X171833948Y-157758361D01*
X171840460Y-157825920D01*
X171842078Y-157834163D01*
X171842284Y-157842562D01*
X171843436Y-157851424D01*
X171897277Y-158244242D01*
X171901165Y-158260557D01*
X171902685Y-158277258D01*
X171915618Y-158321199D01*
X171926234Y-158365746D01*
X171933215Y-158380991D01*
X171937951Y-158397082D01*
X171959171Y-158437672D01*
X171978239Y-158479311D01*
X171988051Y-158492914D01*
X171995820Y-158507774D01*
X172024513Y-158543462D01*
X172051311Y-158580612D01*
X172063577Y-158592048D01*
X172074086Y-158605119D01*
X172109178Y-158634565D01*
X172142669Y-158665790D01*
X172156919Y-158674624D01*
X172169770Y-158685407D01*
X172209911Y-158707475D01*
X172248831Y-158731602D01*
X172264528Y-158737501D01*
X172279226Y-158745581D01*
X172322879Y-158759428D01*
X172365754Y-158775540D01*
X172382304Y-158778278D01*
X172398286Y-158783348D01*
X172443797Y-158788453D01*
X172488984Y-158795930D01*
X172505743Y-158795402D01*
X172522413Y-158797272D01*
X172531349Y-158797334D01*
X174973585Y-158797334D01*
X175035073Y-158791305D01*
X175097320Y-158785259D01*
X175097604Y-158785174D01*
X175097895Y-158785145D01*
X175156747Y-158767376D01*
X175216928Y-158749267D01*
X175217192Y-158749127D01*
X175217470Y-158749043D01*
X175272176Y-158719956D01*
X175327267Y-158690728D01*
X175327494Y-158690543D01*
X175327756Y-158690404D01*
X175375737Y-158651271D01*
X175424135Y-158611873D01*
X175424326Y-158611642D01*
X175424551Y-158611459D01*
X175463620Y-158564232D01*
X175503841Y-158515704D01*
X175503983Y-158515442D01*
X175504169Y-158515217D01*
X175533494Y-158460981D01*
X175563350Y-158405885D01*
X175563438Y-158405600D01*
X175563577Y-158405344D01*
X175581849Y-158346318D01*
X175600395Y-158286598D01*
X175600426Y-158286305D01*
X175600513Y-158286024D01*
X175606979Y-158224499D01*
X175613565Y-158162389D01*
X175613565Y-158161835D01*
X175613569Y-158161802D01*
X175613566Y-158161764D01*
X175613573Y-158153453D01*
X175583660Y-153221618D01*
X175583660Y-153221544D01*
X175578889Y-152449827D01*
X175578886Y-152449798D01*
X175578886Y-152449449D01*
X175572609Y-151522794D01*
X175572603Y-151522739D01*
X175572602Y-151521856D01*
X175572529Y-151512953D01*
X177124642Y-151512953D01*
X177124685Y-151521889D01*
X177132924Y-152224699D01*
X177134029Y-152234755D01*
X177133478Y-152244857D01*
X177133927Y-152253782D01*
X177170765Y-152897152D01*
X177173334Y-152913599D01*
X177173523Y-152930258D01*
X177174559Y-152939134D01*
X177241254Y-153478313D01*
X177244810Y-153494156D01*
X177246043Y-153510355D01*
X177247649Y-153519145D01*
X177294035Y-153763416D01*
X177300188Y-153784386D01*
X177303630Y-153805976D01*
X177305953Y-153814605D01*
X177577036Y-154794843D01*
X177591245Y-154831745D01*
X177602766Y-154869573D01*
X177606249Y-154877802D01*
X177992483Y-155772958D01*
X178012702Y-155809527D01*
X178030512Y-155847336D01*
X178035145Y-155854978D01*
X178526178Y-156652432D01*
X178553228Y-156688040D01*
X178578259Y-156725104D01*
X178584007Y-156731946D01*
X179169490Y-157419074D01*
X179204224Y-157452577D01*
X179237453Y-157487615D01*
X179244247Y-157493420D01*
X179913828Y-158057603D01*
X179956806Y-158087160D01*
X179998809Y-158118092D01*
X180006519Y-158122609D01*
X180749849Y-158551226D01*
X180800631Y-158574228D01*
X180850986Y-158598320D01*
X180859406Y-158601312D01*
X181666134Y-158881740D01*
X181714903Y-158893510D01*
X181763195Y-158907154D01*
X181772001Y-158908671D01*
X182292525Y-158994625D01*
X182323179Y-158996648D01*
X182353481Y-159001709D01*
X182362400Y-159002251D01*
X183005979Y-159036889D01*
X183031015Y-159035787D01*
X183056009Y-159037623D01*
X183064940Y-159037342D01*
X183723986Y-159012027D01*
X183752292Y-159008150D01*
X183780858Y-159007297D01*
X183789713Y-159006098D01*
X184390135Y-158920534D01*
X184407252Y-158916358D01*
X184424786Y-158914621D01*
X184433538Y-158912815D01*
X184445616Y-158910235D01*
X184472539Y-158901665D01*
X184500231Y-158896025D01*
X184508753Y-158893335D01*
X185253380Y-158652660D01*
X185306065Y-158629739D01*
X185359167Y-158607615D01*
X185367011Y-158603334D01*
X186084645Y-158205233D01*
X186125326Y-158177149D01*
X186167134Y-158150742D01*
X186174149Y-158145205D01*
X186515666Y-157871810D01*
X186515666Y-158157334D01*
X186521543Y-158217272D01*
X186527002Y-158277258D01*
X186527636Y-158279413D01*
X186527855Y-158281644D01*
X186545240Y-158339225D01*
X186562268Y-158397082D01*
X186563309Y-158399074D01*
X186563957Y-158401219D01*
X186592242Y-158454416D01*
X186620137Y-158507774D01*
X186621540Y-158509519D01*
X186622596Y-158511505D01*
X186660671Y-158558188D01*
X186698403Y-158605119D01*
X186700125Y-158606564D01*
X186701541Y-158608300D01*
X186747870Y-158646627D01*
X186794087Y-158685407D01*
X186796057Y-158686490D01*
X186797783Y-158687918D01*
X186850675Y-158716517D01*
X186903543Y-158745581D01*
X186905686Y-158746261D01*
X186907656Y-158747326D01*
X186965171Y-158765130D01*
X187022603Y-158783348D01*
X187024831Y-158783598D01*
X187026976Y-158784262D01*
X187086843Y-158790554D01*
X187146730Y-158797272D01*
X187151045Y-158797302D01*
X187151198Y-158797318D01*
X187151351Y-158797304D01*
X187155666Y-158797334D01*
X189695666Y-158797334D01*
X189755604Y-158791457D01*
X189815590Y-158785998D01*
X189817745Y-158785364D01*
X189819976Y-158785145D01*
X189877557Y-158767760D01*
X189935414Y-158750732D01*
X189937406Y-158749691D01*
X189939551Y-158749043D01*
X189992748Y-158720758D01*
X190046106Y-158692863D01*
X190047851Y-158691460D01*
X190049837Y-158690404D01*
X190096520Y-158652329D01*
X190143451Y-158614597D01*
X190144896Y-158612875D01*
X190146632Y-158611459D01*
X190184959Y-158565130D01*
X190223739Y-158518913D01*
X190224822Y-158516943D01*
X190226250Y-158515217D01*
X190254849Y-158462325D01*
X190283913Y-158409457D01*
X190284593Y-158407314D01*
X190285658Y-158405344D01*
X190303462Y-158347829D01*
X190321680Y-158290397D01*
X190321930Y-158288169D01*
X190322594Y-158286024D01*
X190328886Y-158226157D01*
X190335604Y-158166270D01*
X190335634Y-158161955D01*
X190335650Y-158161802D01*
X190335636Y-158161649D01*
X190335666Y-158157334D01*
X190335666Y-139107334D01*
X190329789Y-139047396D01*
X190324330Y-138987410D01*
X190323696Y-138985255D01*
X190323477Y-138983024D01*
X190306092Y-138925443D01*
X190289064Y-138867586D01*
X190288023Y-138865594D01*
X190287375Y-138863449D01*
X190259090Y-138810252D01*
X190231195Y-138756894D01*
X190229792Y-138755149D01*
X190228736Y-138753163D01*
X190190661Y-138706480D01*
X190152929Y-138659549D01*
X190151207Y-138658104D01*
X190149791Y-138656368D01*
X190103462Y-138618041D01*
X190057245Y-138579261D01*
X190055275Y-138578178D01*
X190053549Y-138576750D01*
X190000657Y-138548151D01*
X189947789Y-138519087D01*
X189945646Y-138518407D01*
X189943676Y-138517342D01*
X189886161Y-138499538D01*
X189828729Y-138481320D01*
X189826501Y-138481070D01*
X189824356Y-138480406D01*
X189764489Y-138474114D01*
X189704602Y-138467396D01*
X189700287Y-138467366D01*
X189700134Y-138467350D01*
X189699981Y-138467364D01*
X189695666Y-138467334D01*
X186988151Y-138467334D01*
X186930175Y-138473019D01*
X186872080Y-138477947D01*
X186868029Y-138479112D01*
X186863841Y-138479523D01*
X186808123Y-138496345D01*
X186752042Y-138512478D01*
X186748291Y-138514410D01*
X186744266Y-138515625D01*
X186692834Y-138542971D01*
X186640998Y-138569668D01*
X186637702Y-138572285D01*
X186633980Y-138574264D01*
X186588820Y-138611096D01*
X186543175Y-138647337D01*
X186540445Y-138650550D01*
X186537185Y-138653209D01*
X186500069Y-138698075D01*
X186462303Y-138742527D01*
X186460250Y-138746208D01*
X186457567Y-138749451D01*
X186429882Y-138800654D01*
X186401459Y-138851612D01*
X186400159Y-138855625D01*
X186398159Y-138859324D01*
X186380931Y-138914977D01*
X186362964Y-138970439D01*
X186362469Y-138974618D01*
X186361223Y-138978644D01*
X186355132Y-139036602D01*
X186348280Y-139094478D01*
X186348171Y-139102831D01*
X186348167Y-139102866D01*
X186348170Y-139102897D01*
X186348163Y-139103414D01*
X186326087Y-142707623D01*
X186311768Y-145045513D01*
X185785083Y-144716016D01*
X185737985Y-144692605D01*
X185691637Y-144667749D01*
X185683364Y-144664373D01*
X184844166Y-144328650D01*
X184791987Y-144313487D01*
X184740197Y-144296995D01*
X184731445Y-144295189D01*
X183836139Y-144116896D01*
X183786069Y-144111932D01*
X183736202Y-144105061D01*
X183727270Y-144104774D01*
X182765264Y-144080526D01*
X182734480Y-144082763D01*
X182703619Y-144081943D01*
X182694710Y-144082641D01*
X182322540Y-144114406D01*
X182288812Y-144120644D01*
X182254671Y-144123881D01*
X182245912Y-144125650D01*
X181354155Y-144312212D01*
X181303078Y-144328234D01*
X181251560Y-144342824D01*
X181243264Y-144346145D01*
X180423152Y-144681033D01*
X180374102Y-144706908D01*
X180324493Y-144731700D01*
X180316961Y-144736509D01*
X179580002Y-145214254D01*
X179536349Y-145249044D01*
X179491968Y-145282929D01*
X179485471Y-145289065D01*
X178843171Y-145904198D01*
X178825980Y-145924229D01*
X178806636Y-145942193D01*
X178800760Y-145948925D01*
X178791093Y-145960157D01*
X178778645Y-145977857D01*
X178764037Y-145993827D01*
X178758729Y-146001015D01*
X178473047Y-146393504D01*
X178458917Y-146417539D01*
X178442265Y-146439910D01*
X178437708Y-146447597D01*
X178142493Y-146953546D01*
X178134851Y-146970189D01*
X178124987Y-146985618D01*
X178120987Y-146993609D01*
X177841090Y-147562650D01*
X177835191Y-147578353D01*
X177827112Y-147593050D01*
X177823650Y-147601288D01*
X177583918Y-148183050D01*
X177577786Y-148203366D01*
X177569081Y-148222733D01*
X177566290Y-148231222D01*
X177391573Y-148775333D01*
X177388507Y-148789512D01*
X177383353Y-148803071D01*
X177381069Y-148811711D01*
X177372652Y-148844465D01*
X177370195Y-148860314D01*
X177365462Y-148875655D01*
X177363735Y-148884423D01*
X177270159Y-149377490D01*
X177268438Y-149396596D01*
X177264151Y-149415286D01*
X177263074Y-149424157D01*
X177193065Y-150036785D01*
X177192889Y-150047758D01*
X177190953Y-150058560D01*
X177190305Y-150067473D01*
X177145120Y-150754912D01*
X177145378Y-150762950D01*
X177144268Y-150770924D01*
X177143969Y-150779856D01*
X177133626Y-151168367D01*
X177124868Y-151497356D01*
X177125424Y-151505159D01*
X177124642Y-151512953D01*
X175572529Y-151512953D01*
X175566154Y-150739312D01*
X175566144Y-150739217D01*
X175566137Y-150737548D01*
X175558957Y-150084507D01*
X175558942Y-150084373D01*
X175558917Y-150081468D01*
X175550444Y-149543318D01*
X175550426Y-149543160D01*
X175550345Y-149538305D01*
X175540019Y-149100437D01*
X175540013Y-149100385D01*
X175539779Y-149092388D01*
X175527038Y-148740195D01*
X175526792Y-148738372D01*
X175526895Y-148736536D01*
X175526458Y-148727611D01*
X175510742Y-148446481D01*
X175509972Y-148441506D01*
X175510104Y-148436468D01*
X175509403Y-148427559D01*
X175490150Y-148202886D01*
X175488537Y-148194180D01*
X175488401Y-148185322D01*
X175487330Y-148176450D01*
X175463980Y-147993621D01*
X175461326Y-147982014D01*
X175460536Y-147970128D01*
X175459014Y-147961322D01*
X175431007Y-147805728D01*
X175427835Y-147794521D01*
X175426478Y-147782942D01*
X175424515Y-147774223D01*
X175391288Y-147631258D01*
X175389173Y-147625003D01*
X175388178Y-147618473D01*
X175385916Y-147609828D01*
X175346909Y-147464878D01*
X175342809Y-147454006D01*
X175340485Y-147442620D01*
X175337792Y-147434099D01*
X175160104Y-146885148D01*
X175145819Y-146852351D01*
X175134323Y-146818465D01*
X175130583Y-146810349D01*
X174845422Y-146202697D01*
X174815840Y-146152955D01*
X174786943Y-146102743D01*
X174781700Y-146095507D01*
X174424296Y-145609343D01*
X174421541Y-145606275D01*
X174419392Y-145602762D01*
X174379841Y-145559834D01*
X174340845Y-145516405D01*
X174337552Y-145513934D01*
X174334757Y-145510901D01*
X174328048Y-145504998D01*
X173879071Y-145115481D01*
X173831006Y-145081394D01*
X173783269Y-145046745D01*
X173777272Y-145043286D01*
X173777186Y-145043225D01*
X173777098Y-145043185D01*
X173775528Y-145042280D01*
X173215640Y-144724568D01*
X173192948Y-144714478D01*
X173171610Y-144701791D01*
X173163494Y-144698052D01*
X173011787Y-144629446D01*
X172999869Y-144625404D01*
X172988716Y-144619552D01*
X172980413Y-144616251D01*
X172567714Y-144455459D01*
X172543044Y-144448531D01*
X172519333Y-144438804D01*
X172510756Y-144436295D01*
X172085603Y-144315151D01*
X172059919Y-144310481D01*
X172034937Y-144302921D01*
X172026160Y-144301241D01*
X171557317Y-144214879D01*
X171536632Y-144213129D01*
X171516344Y-144208695D01*
X171507462Y-144207711D01*
X170963692Y-144151261D01*
X170950472Y-144151186D01*
X170937418Y-144149079D01*
X170928496Y-144148586D01*
X170278560Y-144117181D01*
X170272129Y-144117499D01*
X170265731Y-144116689D01*
X170256797Y-144116500D01*
X169469459Y-144105272D01*
X169469425Y-144105275D01*
X169461003Y-144105207D01*
X169324443Y-144105064D01*
X169322119Y-144105289D01*
X169319794Y-144105076D01*
X169310858Y-144105194D01*
X168389080Y-144123799D01*
X168377265Y-144125199D01*
X168365378Y-144124717D01*
X168356461Y-144125291D01*
X167546620Y-144183056D01*
X167530024Y-144185887D01*
X167513185Y-144186324D01*
X167504325Y-144187489D01*
X166758566Y-144290810D01*
X166740455Y-144295154D01*
X166721921Y-144296976D01*
X166713168Y-144298776D01*
X165983629Y-144454045D01*
X165968366Y-144458891D01*
X165952551Y-144461474D01*
X165943931Y-144463829D01*
X165182755Y-144677442D01*
X165179162Y-144678841D01*
X165175365Y-144679563D01*
X165166809Y-144682141D01*
X164614794Y-144852641D01*
X164589861Y-144863104D01*
X164563918Y-144870739D01*
X164532406Y-144887213D01*
X164499618Y-144900972D01*
X164477189Y-144916080D01*
X164453226Y-144928608D01*
X164425511Y-144950891D01*
X164396022Y-144970755D01*
X164376960Y-144989927D01*
X164355881Y-145006874D01*
X164333023Y-145034115D01*
X164307953Y-145059329D01*
X164292974Y-145081844D01*
X164275593Y-145102558D01*
X164258462Y-145133720D01*
X164238767Y-145163323D01*
X164228448Y-145188314D01*
X164215419Y-145212014D01*
X164204667Y-145245911D01*
X164191097Y-145278775D01*
X164185828Y-145305300D01*
X164177652Y-145331074D01*
X164173688Y-145366412D01*
X164166760Y-145401287D01*
X164166743Y-145428322D01*
X164163728Y-145455201D01*
X164163666Y-145464137D01*
X164163666Y-146561402D01*
X164163674Y-146561487D01*
X164163668Y-146562836D01*
X164163844Y-146641378D01*
X164163864Y-146641573D01*
X164163844Y-146641779D01*
X164163933Y-146650715D01*
X164170640Y-147049182D01*
X164171209Y-147054122D01*
X164170883Y-147059090D01*
X164171234Y-147068019D01*
X164186220Y-147391617D01*
X164187945Y-147403514D01*
X164187777Y-147415534D01*
X164188587Y-147424434D01*
X164209878Y-147641679D01*
X164210190Y-147643255D01*
X164210198Y-147644858D01*
X164222304Y-147704453D01*
X164234133Y-147764207D01*
X164234744Y-147765690D01*
X164235064Y-147767264D01*
X164237749Y-147775787D01*
X164263373Y-147855199D01*
X164272172Y-147875451D01*
X164278346Y-147896661D01*
X164297011Y-147932622D01*
X164313146Y-147969760D01*
X164325709Y-147987915D01*
X164335887Y-148007524D01*
X164361180Y-148039173D01*
X164384223Y-148072471D01*
X164400080Y-148087846D01*
X164413867Y-148105098D01*
X164444813Y-148131221D01*
X164473896Y-148159422D01*
X164492435Y-148171423D01*
X164509312Y-148185670D01*
X164544759Y-148205294D01*
X164578750Y-148227297D01*
X164599260Y-148235466D01*
X164618590Y-148246167D01*
X164657176Y-148258533D01*
X164694791Y-148273514D01*
X164716498Y-148277544D01*
X164737537Y-148284286D01*
X164777781Y-148288920D01*
X164817599Y-148296312D01*
X164839684Y-148296049D01*
X164861624Y-148298575D01*
X164901998Y-148295305D01*
X164942496Y-148294822D01*
X164964102Y-148290275D01*
X164986122Y-148288492D01*
X164994905Y-148286843D01*
X165034169Y-148279189D01*
X165056564Y-148272500D01*
X165079616Y-148268597D01*
X165088222Y-148266192D01*
X165263539Y-148215890D01*
X165267313Y-148214395D01*
X165271292Y-148213612D01*
X165279831Y-148210979D01*
X165554973Y-148124054D01*
X165555066Y-148124014D01*
X165555171Y-148123992D01*
X165563672Y-148121238D01*
X165896248Y-148010916D01*
X166259620Y-147894554D01*
X167102871Y-147672083D01*
X167937159Y-147512650D01*
X168741016Y-147416505D01*
X169485033Y-147384697D01*
X170137184Y-147416403D01*
X170659995Y-147505836D01*
X171033418Y-147641318D01*
X171209112Y-147750376D01*
X171364046Y-147906015D01*
X171480566Y-148119321D01*
X171580922Y-148474844D01*
X171648698Y-148967515D01*
X171060354Y-148978853D01*
X171054645Y-148979524D01*
X171048905Y-148979176D01*
X171039977Y-148979570D01*
X170307069Y-149017075D01*
X170302223Y-149017802D01*
X170297321Y-149017648D01*
X170288408Y-149018304D01*
X169554669Y-149077387D01*
X169549659Y-149078289D01*
X169544566Y-149078281D01*
X169535678Y-149079201D01*
X168843629Y-149155748D01*
X168836495Y-149157253D01*
X168829206Y-149157509D01*
X168820357Y-149158755D01*
X168212522Y-149248649D01*
X168199321Y-149251944D01*
X168185767Y-149253187D01*
X168177003Y-149254930D01*
X167695901Y-149354056D01*
X167680956Y-149358694D01*
X167665489Y-149361099D01*
X167656851Y-149363388D01*
X167399224Y-149433564D01*
X167376968Y-149442035D01*
X167353840Y-149447756D01*
X167345437Y-149450798D01*
X166443291Y-149784428D01*
X166402474Y-149804244D01*
X166360639Y-149821850D01*
X166352811Y-149826159D01*
X165574487Y-150261589D01*
X165532075Y-150291093D01*
X165488666Y-150319161D01*
X165481710Y-150324772D01*
X164832687Y-150855736D01*
X164792168Y-150896095D01*
X164751004Y-150935759D01*
X164745252Y-150942598D01*
X164231006Y-151562832D01*
X164197064Y-151613035D01*
X164162876Y-151662956D01*
X164161132Y-151666182D01*
X164161046Y-151666308D01*
X164160985Y-151666452D01*
X164158625Y-151670816D01*
X163784634Y-152374056D01*
X163761450Y-152430292D01*
X163738029Y-152486249D01*
X163737084Y-152489395D01*
X163737027Y-152489534D01*
X163736997Y-152489687D01*
X163735459Y-152494808D01*
X163507200Y-153274788D01*
X163496485Y-153331430D01*
X163484917Y-153387901D01*
X163484049Y-153396795D01*
X163446511Y-153811131D01*
X163446498Y-153811259D01*
X163406998Y-154247254D01*
X163407308Y-154289137D01*
X163404914Y-154330957D01*
X163405339Y-154339883D01*
X163435446Y-154891434D01*
X163441738Y-154932434D01*
X163445319Y-154973759D01*
X163447017Y-154982532D01*
X163609400Y-155791318D01*
X163625309Y-155843510D01*
X163639923Y-155896086D01*
X163643203Y-155904398D01*
X163937568Y-156635413D01*
X163964265Y-156686623D01*
X163990190Y-156738202D01*
X163995016Y-156745723D01*
X164305538Y-157222324D01*
X163826623Y-156969609D01*
X163291367Y-156810349D01*
X162735326Y-156758572D01*
X162179868Y-156816269D01*
X161646339Y-156981222D01*
X161180476Y-157230232D01*
X160940330Y-157617475D01*
X162750500Y-159427645D01*
X162764643Y-159413503D01*
X162944248Y-159593108D01*
X162930105Y-159607250D01*
X162944248Y-159621393D01*
X162764643Y-159800998D01*
X162750500Y-159786855D01*
X162736358Y-159800998D01*
X162556753Y-159621393D01*
X162570895Y-159607250D01*
X160760725Y-157797080D01*
X160373482Y-158037226D01*
X160112859Y-158531127D01*
X159953599Y-159066383D01*
X159901822Y-159622424D01*
X159959519Y-160177882D01*
X160124472Y-160711411D01*
X160373482Y-161177274D01*
X160760723Y-161417419D01*
X160690892Y-161487250D01*
X102897608Y-161487250D01*
X102827777Y-161417419D01*
X103215018Y-161177274D01*
X103475641Y-160683373D01*
X103634901Y-160148117D01*
X103686678Y-159592076D01*
X103628981Y-159036618D01*
X103464028Y-158503089D01*
X103215018Y-158037226D01*
X102827775Y-157797080D01*
X101017605Y-159607250D01*
X101031748Y-159621393D01*
X100852143Y-159800998D01*
X100838000Y-159786855D01*
X100823858Y-159800998D01*
X100644253Y-159621393D01*
X100658395Y-159607250D01*
X98848225Y-157797080D01*
X98460982Y-158037226D01*
X98200359Y-158531127D01*
X98041099Y-159066383D01*
X97989322Y-159622424D01*
X98047019Y-160177882D01*
X98211972Y-160711411D01*
X98460982Y-161177274D01*
X98848223Y-161417419D01*
X98778392Y-161487250D01*
X62416358Y-161487250D01*
X62346527Y-161417419D01*
X62733768Y-161177274D01*
X62994391Y-160683373D01*
X63153651Y-160148117D01*
X63205428Y-159592076D01*
X63147731Y-159036618D01*
X62982778Y-158503089D01*
X62733768Y-158037226D01*
X62346525Y-157797080D01*
X60536355Y-159607250D01*
X60550498Y-159621393D01*
X60370893Y-159800998D01*
X60356750Y-159786855D01*
X60342608Y-159800998D01*
X60163003Y-159621393D01*
X60177145Y-159607250D01*
X60163003Y-159593108D01*
X60342608Y-159413503D01*
X60356750Y-159427645D01*
X62166920Y-157617475D01*
X99027830Y-157617475D01*
X100838000Y-159427645D01*
X102648170Y-157617475D01*
X102408024Y-157230232D01*
X101914123Y-156969609D01*
X101378867Y-156810349D01*
X100822826Y-156758572D01*
X100267368Y-156816269D01*
X99733839Y-156981222D01*
X99267976Y-157230232D01*
X99027830Y-157617475D01*
X62166920Y-157617475D01*
X61926774Y-157230232D01*
X61432873Y-156969609D01*
X60897617Y-156810349D01*
X60341576Y-156758572D01*
X59786118Y-156816269D01*
X59252589Y-156981222D01*
X58786726Y-157230232D01*
X58546581Y-157617473D01*
X58476750Y-157547642D01*
X58476750Y-140235608D01*
X58546581Y-140165777D01*
X58786726Y-140553018D01*
X59280627Y-140813641D01*
X59815883Y-140972901D01*
X60371924Y-141024678D01*
X60927382Y-140966981D01*
X61460911Y-140802028D01*
X61926774Y-140553018D01*
X62166920Y-140165775D01*
X60356750Y-138355605D01*
X60342608Y-138369748D01*
X60163003Y-138190143D01*
X60177145Y-138176000D01*
X60536355Y-138176000D01*
X62346525Y-139986170D01*
X62733768Y-139746024D01*
X62804944Y-139611139D01*
X104304333Y-139611139D01*
X104304333Y-158157334D01*
X104310210Y-158217272D01*
X104315669Y-158277258D01*
X104316303Y-158279413D01*
X104316522Y-158281644D01*
X104333907Y-158339225D01*
X104350935Y-158397082D01*
X104351976Y-158399074D01*
X104352624Y-158401219D01*
X104380909Y-158454416D01*
X104408804Y-158507774D01*
X104410207Y-158509519D01*
X104411263Y-158511505D01*
X104449338Y-158558188D01*
X104487070Y-158605119D01*
X104488792Y-158606564D01*
X104490208Y-158608300D01*
X104536537Y-158646627D01*
X104582754Y-158685407D01*
X104584724Y-158686490D01*
X104586450Y-158687918D01*
X104639342Y-158716517D01*
X104692210Y-158745581D01*
X104694353Y-158746261D01*
X104696323Y-158747326D01*
X104753838Y-158765130D01*
X104811270Y-158783348D01*
X104813498Y-158783598D01*
X104815643Y-158784262D01*
X104875510Y-158790554D01*
X104935397Y-158797272D01*
X104939712Y-158797302D01*
X104939865Y-158797318D01*
X104940018Y-158797304D01*
X104944333Y-158797334D01*
X107652676Y-158797334D01*
X107711630Y-158791553D01*
X107770632Y-158786370D01*
X107773753Y-158785462D01*
X107776986Y-158785145D01*
X107833662Y-158768033D01*
X107890566Y-158751479D01*
X107893452Y-158749982D01*
X107896561Y-158749043D01*
X107948893Y-158721218D01*
X108001438Y-158693957D01*
X108003972Y-158691933D01*
X108006847Y-158690404D01*
X108052763Y-158652955D01*
X108099028Y-158615996D01*
X108101127Y-158613510D01*
X108103642Y-158611459D01*
X108141344Y-158565885D01*
X108179615Y-158520564D01*
X108181192Y-158517717D01*
X108183260Y-158515217D01*
X108211393Y-158463186D01*
X108240131Y-158411297D01*
X108241125Y-158408199D01*
X108242668Y-158405344D01*
X108260184Y-158348758D01*
X108278270Y-158292356D01*
X108278642Y-158289132D01*
X108279604Y-158286024D01*
X108285794Y-158227125D01*
X108292583Y-158168273D01*
X108292647Y-158161926D01*
X108292660Y-158161802D01*
X108292649Y-158161685D01*
X108292673Y-158159337D01*
X108328519Y-146705856D01*
X115047103Y-158433145D01*
X115055030Y-158444295D01*
X115061168Y-158456526D01*
X115091164Y-158495125D01*
X115119474Y-158534949D01*
X115129413Y-158544345D01*
X115137812Y-158555153D01*
X115174740Y-158587196D01*
X115210241Y-158620757D01*
X115221817Y-158628044D01*
X115232154Y-158637014D01*
X115274592Y-158661268D01*
X115315945Y-158687301D01*
X115328718Y-158692202D01*
X115340599Y-158698992D01*
X115386933Y-158714539D01*
X115432562Y-158732046D01*
X115446047Y-158734373D01*
X115459017Y-158738725D01*
X115507484Y-158744976D01*
X115555648Y-158753288D01*
X115569324Y-158752952D01*
X115582896Y-158754702D01*
X115591830Y-158754912D01*
X116993783Y-158778126D01*
X118395737Y-158801340D01*
X118398805Y-158801090D01*
X118401865Y-158801412D01*
X118461042Y-158796027D01*
X118520232Y-158791211D01*
X118523190Y-158790371D01*
X118526257Y-158790092D01*
X118583287Y-158773307D01*
X118640388Y-158757094D01*
X118643127Y-158755695D01*
X118646081Y-158754826D01*
X118698683Y-158727326D01*
X118751630Y-158700289D01*
X118754052Y-158698380D01*
X118756773Y-158696957D01*
X118803064Y-158659739D01*
X118849718Y-158622957D01*
X118851714Y-158620623D01*
X118854118Y-158618691D01*
X118892378Y-158573094D01*
X118930919Y-158528046D01*
X118932425Y-158525368D01*
X118934406Y-158523007D01*
X118963067Y-158470873D01*
X118992138Y-158419172D01*
X118993095Y-158416252D01*
X118994580Y-158413551D01*
X119012554Y-158356887D01*
X119031044Y-158300480D01*
X119031416Y-158297425D01*
X119032347Y-158294491D01*
X119038976Y-158235398D01*
X119046155Y-158176491D01*
X119045927Y-158173428D01*
X119046271Y-158170364D01*
X119046333Y-158161428D01*
X119046333Y-154330957D01*
X120986914Y-154330957D01*
X120987339Y-154339883D01*
X121017446Y-154891434D01*
X121023738Y-154932434D01*
X121027319Y-154973759D01*
X121029017Y-154982532D01*
X121191400Y-155791318D01*
X121207309Y-155843510D01*
X121221923Y-155896086D01*
X121225203Y-155904398D01*
X121519568Y-156635413D01*
X121546265Y-156686623D01*
X121572190Y-156738202D01*
X121577016Y-156745723D01*
X121993504Y-157384965D01*
X122031359Y-157432239D01*
X122068931Y-157479737D01*
X122071482Y-157482347D01*
X122071577Y-157482465D01*
X122071696Y-157482565D01*
X122075178Y-157486127D01*
X122603931Y-158019599D01*
X122603982Y-158019642D01*
X122604021Y-158019689D01*
X122652421Y-158059792D01*
X122700097Y-158099309D01*
X122700150Y-158099338D01*
X122700201Y-158099380D01*
X122707641Y-158104331D01*
X123338802Y-158518031D01*
X123339284Y-158518283D01*
X123339707Y-158518623D01*
X123394901Y-158547412D01*
X123449451Y-158575982D01*
X123449966Y-158576134D01*
X123450453Y-158576388D01*
X123458765Y-158579670D01*
X124182473Y-158859599D01*
X124214941Y-158868632D01*
X124246461Y-158880552D01*
X124255104Y-158882822D01*
X124320228Y-158899440D01*
X124345925Y-158903379D01*
X124371016Y-158910228D01*
X124379836Y-158911667D01*
X124896244Y-158992222D01*
X124927087Y-158993982D01*
X124957615Y-158998784D01*
X124966539Y-158999242D01*
X125574493Y-159026197D01*
X125596551Y-159025017D01*
X125618588Y-159026632D01*
X125627520Y-159026349D01*
X126267522Y-159001652D01*
X126289228Y-158998675D01*
X126311137Y-158998474D01*
X126320015Y-158997458D01*
X126932567Y-158923054D01*
X126961804Y-158916559D01*
X126991565Y-158913071D01*
X127000283Y-158911108D01*
X127525887Y-158788947D01*
X127570156Y-158773976D01*
X127615134Y-158761199D01*
X127623427Y-158757871D01*
X128348800Y-158460981D01*
X128392621Y-158437819D01*
X128437340Y-158416451D01*
X128444956Y-158411776D01*
X129196349Y-157943340D01*
X129237829Y-157911464D01*
X129280336Y-157880898D01*
X129287006Y-157874951D01*
X129415948Y-157758361D01*
X129422460Y-157825920D01*
X129424078Y-157834163D01*
X129424284Y-157842562D01*
X129425436Y-157851424D01*
X129479277Y-158244242D01*
X129483165Y-158260557D01*
X129484685Y-158277258D01*
X129497618Y-158321199D01*
X129508234Y-158365746D01*
X129515215Y-158380991D01*
X129519951Y-158397082D01*
X129541171Y-158437672D01*
X129560239Y-158479311D01*
X129570051Y-158492914D01*
X129577820Y-158507774D01*
X129606513Y-158543462D01*
X129633311Y-158580612D01*
X129645577Y-158592048D01*
X129656086Y-158605119D01*
X129691178Y-158634565D01*
X129724669Y-158665790D01*
X129738919Y-158674624D01*
X129751770Y-158685407D01*
X129791911Y-158707475D01*
X129830831Y-158731602D01*
X129846528Y-158737501D01*
X129861226Y-158745581D01*
X129904879Y-158759428D01*
X129947754Y-158775540D01*
X129964304Y-158778278D01*
X129980286Y-158783348D01*
X130025797Y-158788453D01*
X130070984Y-158795930D01*
X130087743Y-158795402D01*
X130104413Y-158797272D01*
X130113349Y-158797334D01*
X132555585Y-158797334D01*
X132617073Y-158791305D01*
X132679320Y-158785259D01*
X132679604Y-158785174D01*
X132679895Y-158785145D01*
X132738747Y-158767376D01*
X132798928Y-158749267D01*
X132799192Y-158749127D01*
X132799470Y-158749043D01*
X132854176Y-158719956D01*
X132909267Y-158690728D01*
X132909494Y-158690543D01*
X132909756Y-158690404D01*
X132957737Y-158651271D01*
X133006135Y-158611873D01*
X133006326Y-158611642D01*
X133006551Y-158611459D01*
X133045620Y-158564232D01*
X133085841Y-158515704D01*
X133085983Y-158515442D01*
X133086169Y-158515217D01*
X133115494Y-158460981D01*
X133145350Y-158405885D01*
X133145438Y-158405600D01*
X133145577Y-158405344D01*
X133163849Y-158346318D01*
X133182395Y-158286598D01*
X133182426Y-158286305D01*
X133182513Y-158286024D01*
X133188979Y-158224499D01*
X133195565Y-158162389D01*
X133195565Y-158161835D01*
X133195569Y-158161802D01*
X133195566Y-158161764D01*
X133195573Y-158153453D01*
X133165660Y-153221618D01*
X133165660Y-153221544D01*
X133160889Y-152449827D01*
X133160886Y-152449798D01*
X133160886Y-152449449D01*
X133154609Y-151522794D01*
X133154603Y-151522739D01*
X133154602Y-151521856D01*
X133148154Y-150739312D01*
X133148144Y-150739217D01*
X133148137Y-150737548D01*
X133140957Y-150084507D01*
X133140942Y-150084373D01*
X133140917Y-150081468D01*
X133132444Y-149543318D01*
X133132426Y-149543160D01*
X133132345Y-149538305D01*
X133122019Y-149100437D01*
X133122013Y-149100385D01*
X133121779Y-149092388D01*
X133109038Y-148740195D01*
X133108792Y-148738372D01*
X133108895Y-148736536D01*
X133108458Y-148727611D01*
X133092742Y-148446481D01*
X133091972Y-148441506D01*
X133092104Y-148436468D01*
X133091403Y-148427559D01*
X133072150Y-148202886D01*
X133070537Y-148194180D01*
X133070401Y-148185322D01*
X133069330Y-148176450D01*
X133045980Y-147993621D01*
X133043326Y-147982014D01*
X133042536Y-147970128D01*
X133041014Y-147961322D01*
X133013007Y-147805728D01*
X133009835Y-147794521D01*
X133008478Y-147782942D01*
X133006515Y-147774223D01*
X132973288Y-147631258D01*
X132971173Y-147625003D01*
X132970178Y-147618473D01*
X132967916Y-147609828D01*
X132928909Y-147464878D01*
X132924809Y-147454006D01*
X132922485Y-147442620D01*
X132919792Y-147434099D01*
X132742104Y-146885148D01*
X132727819Y-146852351D01*
X132716323Y-146818465D01*
X132712583Y-146810349D01*
X132427422Y-146202697D01*
X132397840Y-146152955D01*
X132368943Y-146102743D01*
X132363700Y-146095507D01*
X132006296Y-145609343D01*
X132003541Y-145606275D01*
X132001392Y-145602762D01*
X131961841Y-145559834D01*
X131922845Y-145516405D01*
X131919552Y-145513934D01*
X131916757Y-145510901D01*
X131910048Y-145504998D01*
X131461071Y-145115481D01*
X131413006Y-145081394D01*
X131365269Y-145046745D01*
X131359272Y-145043286D01*
X131359186Y-145043225D01*
X131359098Y-145043185D01*
X131357528Y-145042280D01*
X131347893Y-145036812D01*
X133938225Y-145036812D01*
X133939755Y-145047707D01*
X133939517Y-145058697D01*
X133948426Y-145109448D01*
X133955597Y-145160504D01*
X133959213Y-145170890D01*
X133961114Y-145181721D01*
X133963571Y-145190313D01*
X133974739Y-145228363D01*
X133976311Y-145232263D01*
X133977151Y-145236387D01*
X133979839Y-145244909D01*
X134038546Y-145426588D01*
X134038606Y-145426727D01*
X134039644Y-145429953D01*
X134144343Y-145747941D01*
X134144373Y-145748009D01*
X134144761Y-145749207D01*
X134290535Y-146188861D01*
X134290553Y-146188902D01*
X134290760Y-146189538D01*
X134472695Y-146736212D01*
X134472704Y-146736233D01*
X134472837Y-146736640D01*
X134686014Y-147375691D01*
X134686024Y-147375714D01*
X134686116Y-147375995D01*
X134925622Y-148092776D01*
X134925629Y-148092791D01*
X134925700Y-148093009D01*
X135186618Y-148872876D01*
X135186625Y-148872891D01*
X135186682Y-148873066D01*
X135464096Y-149701374D01*
X135464100Y-149701382D01*
X135464151Y-149701539D01*
X135753144Y-150563643D01*
X135753148Y-150563653D01*
X135753195Y-150563795D01*
X136048853Y-151445050D01*
X136048901Y-151445195D01*
X136346307Y-152330956D01*
X136346313Y-152330970D01*
X136346357Y-152331103D01*
X136640595Y-153206726D01*
X136640647Y-153206883D01*
X136926801Y-154057722D01*
X136926808Y-154057737D01*
X136926860Y-154057896D01*
X137200014Y-154869308D01*
X137200021Y-154869323D01*
X137200084Y-154869515D01*
X137455323Y-155626852D01*
X137455329Y-155626865D01*
X137455410Y-155627111D01*
X137687817Y-156315730D01*
X137687828Y-156315755D01*
X137687935Y-156316078D01*
X137892594Y-156921334D01*
X137892608Y-156921365D01*
X137892767Y-156921845D01*
X138064763Y-157429093D01*
X138064785Y-157429141D01*
X138065052Y-157429944D01*
X138199468Y-157824539D01*
X138199513Y-157824637D01*
X138200071Y-157826298D01*
X138291992Y-158093595D01*
X138292044Y-158093709D01*
X138294096Y-158099617D01*
X138338606Y-158224971D01*
X138345708Y-158240098D01*
X138350575Y-158256085D01*
X138354058Y-158264315D01*
X138360373Y-158278957D01*
X138370525Y-158297322D01*
X138378209Y-158316845D01*
X138391368Y-158337356D01*
X138391688Y-158338037D01*
X138392603Y-158339280D01*
X138400677Y-158351866D01*
X138420803Y-158388272D01*
X138434324Y-158404309D01*
X138445657Y-158421974D01*
X138451242Y-158428950D01*
X138488826Y-158475225D01*
X138503789Y-158490354D01*
X138516682Y-158507287D01*
X138547615Y-158534668D01*
X138576659Y-158564034D01*
X138594276Y-158575969D01*
X138610212Y-158590075D01*
X138645874Y-158610926D01*
X138680068Y-158634092D01*
X138699665Y-158642377D01*
X138718039Y-158653120D01*
X138726183Y-158656799D01*
X138802157Y-158690488D01*
X138815380Y-158694865D01*
X138827786Y-158701193D01*
X138874572Y-158714456D01*
X138920736Y-158729736D01*
X138934553Y-158731460D01*
X138947956Y-158735260D01*
X138956762Y-158736785D01*
X139092943Y-158759396D01*
X139121991Y-158761339D01*
X139150682Y-158766305D01*
X139159599Y-158766900D01*
X139377806Y-158779938D01*
X139387521Y-158779568D01*
X139397165Y-158780801D01*
X139406099Y-158781001D01*
X139728149Y-158785973D01*
X139729755Y-158785841D01*
X139731361Y-158786015D01*
X139740298Y-158786045D01*
X140188010Y-158784458D01*
X140188167Y-158784442D01*
X140192880Y-158784422D01*
X140788070Y-158777782D01*
X140788135Y-158777775D01*
X140789130Y-158777769D01*
X142570341Y-158754947D01*
X142584989Y-158753321D01*
X142599729Y-158753896D01*
X142646976Y-158746441D01*
X142694485Y-158741167D01*
X142708543Y-158736725D01*
X142723108Y-158734427D01*
X142767997Y-158717941D01*
X142813588Y-158703536D01*
X142826515Y-158696449D01*
X142840357Y-158691365D01*
X142881183Y-158666477D01*
X142923113Y-158643489D01*
X142934420Y-158634023D01*
X142947009Y-158626349D01*
X142982235Y-158593995D01*
X143018889Y-158563310D01*
X143028135Y-158551837D01*
X143039001Y-158541857D01*
X143067274Y-158503272D01*
X143097267Y-158466056D01*
X143104113Y-158452997D01*
X143112828Y-158441104D01*
X143133062Y-158397778D01*
X143155263Y-158355431D01*
X143159441Y-158341295D01*
X143165682Y-158327932D01*
X143168596Y-158319484D01*
X145352512Y-151842485D01*
X145352514Y-151842476D01*
X145352541Y-151842398D01*
X145497479Y-151412342D01*
X145497484Y-151412320D01*
X145497577Y-151412050D01*
X145830398Y-150422939D01*
X145830404Y-150422913D01*
X145830540Y-150422517D01*
X146145637Y-149483920D01*
X146145646Y-149483883D01*
X146145788Y-149483467D01*
X146439100Y-148607593D01*
X146439107Y-148607561D01*
X146439271Y-148607082D01*
X146706740Y-147806142D01*
X146706749Y-147806103D01*
X146706944Y-147805530D01*
X146944511Y-147091734D01*
X146944521Y-147091690D01*
X146944776Y-147090938D01*
X147148381Y-146476496D01*
X147148397Y-146476423D01*
X147148759Y-146475350D01*
X147314344Y-145972473D01*
X147314366Y-145972373D01*
X147314973Y-145970554D01*
X147438477Y-145591452D01*
X147438511Y-145591298D01*
X147439821Y-145587278D01*
X147517186Y-145344160D01*
X147518217Y-145339330D01*
X147520097Y-145334763D01*
X147522616Y-145326189D01*
X147549783Y-145231267D01*
X147553609Y-145210362D01*
X147560094Y-145190131D01*
X147562187Y-145171970D01*
X147565492Y-145159823D01*
X147567135Y-145136456D01*
X147572269Y-145108401D01*
X147571962Y-145087159D01*
X147574395Y-145066046D01*
X147574484Y-145057111D01*
X147574491Y-145054806D01*
X147573562Y-145045025D01*
X147574251Y-145035224D01*
X147570816Y-145007951D01*
X147570462Y-144983508D01*
X147565512Y-144960279D01*
X147562680Y-144930459D01*
X147559869Y-144921045D01*
X147558641Y-144911297D01*
X147548701Y-144881379D01*
X147544432Y-144861345D01*
X147536576Y-144843040D01*
X147526941Y-144810775D01*
X147522358Y-144802091D01*
X147519258Y-144792762D01*
X147501785Y-144761980D01*
X147495169Y-144746564D01*
X147485953Y-144733118D01*
X147468637Y-144700312D01*
X147462446Y-144692673D01*
X147457599Y-144684135D01*
X147432162Y-144654644D01*
X147424549Y-144643537D01*
X147415225Y-144634416D01*
X147389986Y-144603277D01*
X147382438Y-144596994D01*
X147376019Y-144589552D01*
X147369506Y-144583432D01*
X147325287Y-144542455D01*
X147290386Y-144515944D01*
X147257094Y-144487439D01*
X147240755Y-144478244D01*
X147225823Y-144466901D01*
X147186437Y-144447674D01*
X147148242Y-144426178D01*
X147130424Y-144420330D01*
X147113578Y-144412106D01*
X147071213Y-144400896D01*
X147029565Y-144387226D01*
X147020830Y-144385343D01*
X146879656Y-144355926D01*
X146842593Y-144351919D01*
X146805952Y-144344998D01*
X146797046Y-144344266D01*
X146540848Y-144325019D01*
X146529893Y-144325268D01*
X146519035Y-144323754D01*
X146510103Y-144323452D01*
X146120814Y-144312986D01*
X146118500Y-144313150D01*
X146116192Y-144312878D01*
X146107257Y-144312765D01*
X145566809Y-144309689D01*
X145566652Y-144309703D01*
X145563005Y-144309679D01*
X144187172Y-144310025D01*
X144153679Y-144313318D01*
X144120028Y-144313574D01*
X144091678Y-144319413D01*
X144062865Y-144322245D01*
X144030642Y-144331982D01*
X143997689Y-144338769D01*
X143971016Y-144350001D01*
X143943299Y-144358377D01*
X143913584Y-144374186D01*
X143882573Y-144387245D01*
X143858588Y-144403445D01*
X143833028Y-144417044D01*
X143806949Y-144438325D01*
X143779066Y-144457158D01*
X143758683Y-144477710D01*
X143736253Y-144496013D01*
X143714809Y-144521947D01*
X143691109Y-144545844D01*
X143675105Y-144569966D01*
X143656659Y-144592275D01*
X143640657Y-144621888D01*
X143622055Y-144649926D01*
X143611042Y-144676693D01*
X143597279Y-144702163D01*
X143587337Y-144734310D01*
X143574530Y-144765437D01*
X143572013Y-144774011D01*
X141931327Y-150509619D01*
X141931309Y-150509680D01*
X141730336Y-151211595D01*
X141466136Y-152132265D01*
X141466135Y-152132272D01*
X141217741Y-152995533D01*
X141217722Y-152995598D01*
X140988605Y-153789508D01*
X140988588Y-153789566D01*
X140831272Y-154332786D01*
X140706006Y-153915204D01*
X140485360Y-153174044D01*
X140249384Y-152376439D01*
X140001954Y-151535560D01*
X139747678Y-150667061D01*
X139491086Y-149786329D01*
X139236528Y-148908144D01*
X138988201Y-148046761D01*
X138750315Y-147216473D01*
X138527608Y-146433410D01*
X138324321Y-145711978D01*
X138144548Y-145066046D01*
X138065288Y-144778993D01*
X138052125Y-144744766D01*
X138041771Y-144709586D01*
X138029760Y-144686611D01*
X138020453Y-144662411D01*
X138000890Y-144631389D01*
X137983902Y-144598894D01*
X137967657Y-144578688D01*
X137953827Y-144556758D01*
X137928617Y-144530132D01*
X137905636Y-144501549D01*
X137885773Y-144484882D01*
X137867950Y-144466058D01*
X137838046Y-144444835D01*
X137809952Y-144421261D01*
X137787230Y-144408769D01*
X137766090Y-144393766D01*
X137732638Y-144378757D01*
X137700496Y-144361087D01*
X137675780Y-144353247D01*
X137652128Y-144342635D01*
X137616391Y-144334408D01*
X137581436Y-144323320D01*
X137555670Y-144320430D01*
X137530407Y-144314614D01*
X137493762Y-144313485D01*
X137457309Y-144309396D01*
X137448373Y-144309334D01*
X136013020Y-144309334D01*
X136012871Y-144309349D01*
X136009417Y-144309344D01*
X135635180Y-144311451D01*
X135635150Y-144311451D01*
X135635034Y-144311452D01*
X135635025Y-144311453D01*
X135626242Y-144311562D01*
X135203359Y-144319754D01*
X135201397Y-144319985D01*
X135199423Y-144319842D01*
X135190492Y-144320133D01*
X134854350Y-144333412D01*
X134846740Y-144334463D01*
X134839059Y-144334199D01*
X134830145Y-144334828D01*
X134608272Y-144352029D01*
X134560129Y-144360547D01*
X134511654Y-144367010D01*
X134502969Y-144369110D01*
X134422894Y-144389067D01*
X134412530Y-144392757D01*
X134401716Y-144394733D01*
X134353777Y-144413672D01*
X134305221Y-144430957D01*
X134295779Y-144436584D01*
X134285546Y-144440627D01*
X134242174Y-144468532D01*
X134197926Y-144494904D01*
X134189758Y-144502257D01*
X134180504Y-144508211D01*
X134143398Y-144543991D01*
X134105094Y-144578473D01*
X134098503Y-144587282D01*
X134090590Y-144594912D01*
X134061142Y-144637215D01*
X134030264Y-144678483D01*
X134025513Y-144688396D01*
X134019228Y-144697425D01*
X133998555Y-144744648D01*
X133976283Y-144791122D01*
X133973547Y-144801775D01*
X133969137Y-144811848D01*
X133958030Y-144862184D01*
X133945209Y-144912101D01*
X133944594Y-144923078D01*
X133942224Y-144933820D01*
X133941107Y-144985349D01*
X133938225Y-145036812D01*
X131347893Y-145036812D01*
X130797640Y-144724568D01*
X130774948Y-144714478D01*
X130753610Y-144701791D01*
X130745494Y-144698052D01*
X130593787Y-144629446D01*
X130581869Y-144625404D01*
X130570716Y-144619552D01*
X130562413Y-144616251D01*
X130149714Y-144455459D01*
X130125044Y-144448531D01*
X130101333Y-144438804D01*
X130092756Y-144436295D01*
X129667603Y-144315151D01*
X129641919Y-144310481D01*
X129616937Y-144302921D01*
X129608160Y-144301241D01*
X129139317Y-144214879D01*
X129118632Y-144213129D01*
X129098344Y-144208695D01*
X129089462Y-144207711D01*
X128545692Y-144151261D01*
X128532472Y-144151186D01*
X128519418Y-144149079D01*
X128510496Y-144148586D01*
X127860560Y-144117181D01*
X127854129Y-144117499D01*
X127847731Y-144116689D01*
X127838797Y-144116500D01*
X127051459Y-144105272D01*
X127051425Y-144105275D01*
X127043003Y-144105207D01*
X126906443Y-144105064D01*
X126904119Y-144105289D01*
X126901794Y-144105076D01*
X126892858Y-144105194D01*
X125971080Y-144123799D01*
X125959265Y-144125199D01*
X125947378Y-144124717D01*
X125938461Y-144125291D01*
X125128620Y-144183056D01*
X125112024Y-144185887D01*
X125095185Y-144186324D01*
X125086325Y-144187489D01*
X124340566Y-144290810D01*
X124322455Y-144295154D01*
X124303921Y-144296976D01*
X124295168Y-144298776D01*
X123565629Y-144454045D01*
X123550366Y-144458891D01*
X123534551Y-144461474D01*
X123525931Y-144463829D01*
X122764755Y-144677442D01*
X122761162Y-144678841D01*
X122757365Y-144679563D01*
X122748809Y-144682141D01*
X122196794Y-144852641D01*
X122171861Y-144863104D01*
X122145918Y-144870739D01*
X122114406Y-144887213D01*
X122081618Y-144900972D01*
X122059189Y-144916080D01*
X122035226Y-144928608D01*
X122007511Y-144950891D01*
X121978022Y-144970755D01*
X121958960Y-144989927D01*
X121937881Y-145006874D01*
X121915023Y-145034115D01*
X121889953Y-145059329D01*
X121874974Y-145081844D01*
X121857593Y-145102558D01*
X121840462Y-145133720D01*
X121820767Y-145163323D01*
X121810448Y-145188314D01*
X121797419Y-145212014D01*
X121786667Y-145245911D01*
X121773097Y-145278775D01*
X121767828Y-145305300D01*
X121759652Y-145331074D01*
X121755688Y-145366412D01*
X121748760Y-145401287D01*
X121748743Y-145428322D01*
X121745728Y-145455201D01*
X121745666Y-145464137D01*
X121745666Y-146561402D01*
X121745674Y-146561487D01*
X121745668Y-146562836D01*
X121745844Y-146641378D01*
X121745864Y-146641573D01*
X121745844Y-146641779D01*
X121745933Y-146650715D01*
X121752640Y-147049182D01*
X121753209Y-147054122D01*
X121752883Y-147059090D01*
X121753234Y-147068019D01*
X121768220Y-147391617D01*
X121769945Y-147403514D01*
X121769777Y-147415534D01*
X121770587Y-147424434D01*
X121791878Y-147641679D01*
X121792190Y-147643255D01*
X121792198Y-147644858D01*
X121804304Y-147704453D01*
X121816133Y-147764207D01*
X121816744Y-147765690D01*
X121817064Y-147767264D01*
X121819749Y-147775787D01*
X121845373Y-147855199D01*
X121854172Y-147875451D01*
X121860346Y-147896661D01*
X121879011Y-147932622D01*
X121895146Y-147969760D01*
X121907709Y-147987915D01*
X121917887Y-148007524D01*
X121943180Y-148039173D01*
X121966223Y-148072471D01*
X121982080Y-148087846D01*
X121995867Y-148105098D01*
X122026813Y-148131221D01*
X122055896Y-148159422D01*
X122074435Y-148171423D01*
X122091312Y-148185670D01*
X122126759Y-148205294D01*
X122160750Y-148227297D01*
X122181260Y-148235466D01*
X122200590Y-148246167D01*
X122239176Y-148258533D01*
X122276791Y-148273514D01*
X122298498Y-148277544D01*
X122319537Y-148284286D01*
X122359781Y-148288920D01*
X122399599Y-148296312D01*
X122421684Y-148296049D01*
X122443624Y-148298575D01*
X122483998Y-148295305D01*
X122524496Y-148294822D01*
X122546102Y-148290275D01*
X122568122Y-148288492D01*
X122576905Y-148286843D01*
X122616169Y-148279189D01*
X122638564Y-148272500D01*
X122661616Y-148268597D01*
X122670222Y-148266192D01*
X122845539Y-148215890D01*
X122849313Y-148214395D01*
X122853292Y-148213612D01*
X122861831Y-148210979D01*
X123136973Y-148124054D01*
X123137066Y-148124014D01*
X123137171Y-148123992D01*
X123145672Y-148121238D01*
X123478248Y-148010916D01*
X123841620Y-147894554D01*
X124684871Y-147672083D01*
X125519159Y-147512650D01*
X126323016Y-147416505D01*
X127067033Y-147384697D01*
X127719184Y-147416403D01*
X128241995Y-147505836D01*
X128615418Y-147641318D01*
X128791112Y-147750376D01*
X128946046Y-147906015D01*
X129062566Y-148119321D01*
X129162922Y-148474844D01*
X129230698Y-148967515D01*
X128642354Y-148978853D01*
X128636645Y-148979524D01*
X128630905Y-148979176D01*
X128621977Y-148979570D01*
X127889069Y-149017075D01*
X127884223Y-149017802D01*
X127879321Y-149017648D01*
X127870408Y-149018304D01*
X127136669Y-149077387D01*
X127131659Y-149078289D01*
X127126566Y-149078281D01*
X127117678Y-149079201D01*
X126425629Y-149155748D01*
X126418495Y-149157253D01*
X126411206Y-149157509D01*
X126402357Y-149158755D01*
X125794522Y-149248649D01*
X125781321Y-149251944D01*
X125767767Y-149253187D01*
X125759003Y-149254930D01*
X125277901Y-149354056D01*
X125262956Y-149358694D01*
X125247489Y-149361099D01*
X125238851Y-149363388D01*
X124981224Y-149433564D01*
X124958968Y-149442035D01*
X124935840Y-149447756D01*
X124927437Y-149450798D01*
X124025291Y-149784428D01*
X123984474Y-149804244D01*
X123942639Y-149821850D01*
X123934811Y-149826159D01*
X123156487Y-150261589D01*
X123114075Y-150291093D01*
X123070666Y-150319161D01*
X123063710Y-150324772D01*
X122414687Y-150855736D01*
X122374168Y-150896095D01*
X122333004Y-150935759D01*
X122327252Y-150942598D01*
X121813006Y-151562832D01*
X121779064Y-151613035D01*
X121744876Y-151662956D01*
X121743132Y-151666182D01*
X121743046Y-151666308D01*
X121742985Y-151666452D01*
X121740625Y-151670816D01*
X121366634Y-152374056D01*
X121343450Y-152430292D01*
X121320029Y-152486249D01*
X121319084Y-152489395D01*
X121319027Y-152489534D01*
X121318997Y-152489687D01*
X121317459Y-152494808D01*
X121089200Y-153274788D01*
X121078485Y-153331430D01*
X121066917Y-153387901D01*
X121066049Y-153396795D01*
X121028511Y-153811131D01*
X121028498Y-153811259D01*
X120988998Y-154247254D01*
X120989308Y-154289137D01*
X120986914Y-154330957D01*
X119046333Y-154330957D01*
X119046333Y-140165775D01*
X120459080Y-140165775D01*
X120699226Y-140553018D01*
X121193127Y-140813641D01*
X121728383Y-140972901D01*
X122284424Y-141024678D01*
X122839882Y-140966981D01*
X123373411Y-140802028D01*
X123839274Y-140553018D01*
X124079420Y-140165775D01*
X122269250Y-138355605D01*
X120459080Y-140165775D01*
X119046333Y-140165775D01*
X119046333Y-139615334D01*
X119040456Y-139555396D01*
X119034997Y-139495410D01*
X119034363Y-139493255D01*
X119034144Y-139491024D01*
X119016759Y-139433443D01*
X118999731Y-139375586D01*
X118998690Y-139373594D01*
X118998042Y-139371449D01*
X118969757Y-139318252D01*
X118941862Y-139264894D01*
X118940459Y-139263149D01*
X118939403Y-139261163D01*
X118901328Y-139214480D01*
X118863596Y-139167549D01*
X118861874Y-139166104D01*
X118860458Y-139164368D01*
X118814129Y-139126041D01*
X118767912Y-139087261D01*
X118765942Y-139086178D01*
X118764216Y-139084750D01*
X118711324Y-139056151D01*
X118658456Y-139027087D01*
X118656313Y-139026407D01*
X118654343Y-139025342D01*
X118596828Y-139007538D01*
X118539396Y-138989320D01*
X118537168Y-138989070D01*
X118535023Y-138988406D01*
X118475156Y-138982114D01*
X118415269Y-138975396D01*
X118410954Y-138975366D01*
X118410801Y-138975350D01*
X118410648Y-138975364D01*
X118406333Y-138975334D01*
X115613323Y-138975334D01*
X115554403Y-138981111D01*
X115495369Y-138986297D01*
X115492244Y-138987206D01*
X115489013Y-138987523D01*
X115432375Y-139004623D01*
X115375435Y-139021188D01*
X115372547Y-139022686D01*
X115369438Y-139023625D01*
X115317103Y-139051451D01*
X115264563Y-139078710D01*
X115262029Y-139080734D01*
X115259152Y-139082264D01*
X115213231Y-139119717D01*
X115166973Y-139156670D01*
X115164873Y-139159157D01*
X115162357Y-139161209D01*
X115124665Y-139206771D01*
X115086385Y-139252102D01*
X115084807Y-139254951D01*
X115082739Y-139257451D01*
X115054610Y-139309474D01*
X115025869Y-139361369D01*
X115024875Y-139364468D01*
X115023331Y-139367324D01*
X115005819Y-139423895D01*
X114987729Y-139480310D01*
X114987357Y-139483537D01*
X114986395Y-139486644D01*
X114980207Y-139545521D01*
X114973416Y-139604393D01*
X114973352Y-139610742D01*
X114973339Y-139610866D01*
X114973350Y-139610983D01*
X114973326Y-139613329D01*
X114951664Y-146527445D01*
X114937498Y-151049152D01*
X112182090Y-146232809D01*
X108238665Y-139339859D01*
X108230709Y-139328653D01*
X108224553Y-139316374D01*
X108194620Y-139277821D01*
X108166356Y-139238011D01*
X108156379Y-139228567D01*
X108147952Y-139217714D01*
X108111087Y-139185699D01*
X108075641Y-139152148D01*
X108064020Y-139144822D01*
X108053645Y-139135812D01*
X108011279Y-139111575D01*
X107969978Y-139085539D01*
X107957151Y-139080608D01*
X107945227Y-139073787D01*
X107898963Y-139058242D01*
X107853388Y-139040724D01*
X107839845Y-139038378D01*
X107826826Y-139034004D01*
X107778414Y-139027739D01*
X107730314Y-139019408D01*
X107716585Y-139019737D01*
X107702953Y-139017973D01*
X107694020Y-139017759D01*
X104955204Y-138971231D01*
X104951995Y-138971491D01*
X104948801Y-138971155D01*
X104889795Y-138976525D01*
X104830705Y-138981307D01*
X104827613Y-138982183D01*
X104824409Y-138982475D01*
X104767487Y-138999228D01*
X104710534Y-139015373D01*
X104707674Y-139016832D01*
X104704585Y-139017741D01*
X104652060Y-139045201D01*
X104599268Y-139072130D01*
X104596739Y-139074122D01*
X104593893Y-139075610D01*
X104547715Y-139112737D01*
X104501146Y-139149419D01*
X104499057Y-139151859D01*
X104496548Y-139153876D01*
X104458401Y-139199338D01*
X104419905Y-139244295D01*
X104418330Y-139247093D01*
X104416260Y-139249560D01*
X104387665Y-139301574D01*
X104358639Y-139353143D01*
X104357637Y-139356194D01*
X104356086Y-139359016D01*
X104338162Y-139415520D01*
X104319681Y-139471819D01*
X104319290Y-139475014D01*
X104318319Y-139478076D01*
X104311713Y-139536967D01*
X104304517Y-139595801D01*
X104304754Y-139599005D01*
X104304395Y-139602203D01*
X104304333Y-139611139D01*
X62804944Y-139611139D01*
X62994391Y-139252123D01*
X63153651Y-138716867D01*
X63202602Y-138191174D01*
X119420572Y-138191174D01*
X119478269Y-138746632D01*
X119643222Y-139280161D01*
X119892232Y-139746024D01*
X120279475Y-139986170D01*
X122089645Y-138176000D01*
X122448855Y-138176000D01*
X124259025Y-139986170D01*
X124646268Y-139746024D01*
X124723417Y-139599820D01*
X149262333Y-139599820D01*
X149262333Y-158157334D01*
X149268210Y-158217272D01*
X149273669Y-158277258D01*
X149274303Y-158279413D01*
X149274522Y-158281644D01*
X149291907Y-158339225D01*
X149308935Y-158397082D01*
X149309976Y-158399074D01*
X149310624Y-158401219D01*
X149338909Y-158454416D01*
X149366804Y-158507774D01*
X149368207Y-158509519D01*
X149369263Y-158511505D01*
X149407338Y-158558188D01*
X149445070Y-158605119D01*
X149446792Y-158606564D01*
X149448208Y-158608300D01*
X149494537Y-158646627D01*
X149540754Y-158685407D01*
X149542724Y-158686490D01*
X149544450Y-158687918D01*
X149597342Y-158716517D01*
X149650210Y-158745581D01*
X149652353Y-158746261D01*
X149654323Y-158747326D01*
X149711838Y-158765130D01*
X149769270Y-158783348D01*
X149771498Y-158783598D01*
X149773643Y-158784262D01*
X149833510Y-158790554D01*
X149893397Y-158797272D01*
X149897712Y-158797302D01*
X149897865Y-158797318D01*
X149898018Y-158797304D01*
X149902333Y-158797334D01*
X152696333Y-158797334D01*
X152756271Y-158791457D01*
X152816257Y-158785998D01*
X152818412Y-158785364D01*
X152820643Y-158785145D01*
X152878224Y-158767760D01*
X152936081Y-158750732D01*
X152938073Y-158749691D01*
X152940218Y-158749043D01*
X152993415Y-158720758D01*
X153046773Y-158692863D01*
X153048518Y-158691460D01*
X153050504Y-158690404D01*
X153097187Y-158652329D01*
X153144118Y-158614597D01*
X153145563Y-158612875D01*
X153147299Y-158611459D01*
X153185626Y-158565130D01*
X153224406Y-158518913D01*
X153225489Y-158516943D01*
X153226917Y-158515217D01*
X153255516Y-158462325D01*
X153284580Y-158409457D01*
X153285260Y-158407314D01*
X153286325Y-158405344D01*
X153304129Y-158347829D01*
X153322347Y-158290397D01*
X153322597Y-158288169D01*
X153323261Y-158286024D01*
X153329553Y-158226157D01*
X153336271Y-158166270D01*
X153336301Y-158161955D01*
X153336317Y-158161802D01*
X153336303Y-158161649D01*
X153336333Y-158157334D01*
X153336333Y-151865252D01*
X154808041Y-151827969D01*
X154808061Y-151827967D01*
X154808357Y-151827961D01*
X154888813Y-151825883D01*
X154888969Y-151825864D01*
X154893761Y-151825736D01*
X155778440Y-151796037D01*
X155780708Y-151795738D01*
X155782992Y-151795868D01*
X155791918Y-151795442D01*
X156536418Y-151754723D01*
X156542381Y-151753807D01*
X156548412Y-151753954D01*
X156557320Y-151753236D01*
X157188421Y-151697948D01*
X157198727Y-151696018D01*
X157209215Y-151695784D01*
X157218080Y-151694652D01*
X157762565Y-151621244D01*
X157776853Y-151617872D01*
X157791478Y-151616670D01*
X157800259Y-151615011D01*
X158284912Y-151519933D01*
X158301088Y-151515080D01*
X158317798Y-151512578D01*
X158326449Y-151510338D01*
X158778050Y-151390037D01*
X158792687Y-151384560D01*
X158807967Y-151381282D01*
X158816461Y-151378505D01*
X159261792Y-151229435D01*
X159265809Y-151227637D01*
X159270088Y-151226595D01*
X159278501Y-151223583D01*
X159285144Y-151221153D01*
X159299760Y-151214121D01*
X159315247Y-151209271D01*
X159323449Y-151205723D01*
X159943454Y-150932396D01*
X159970161Y-150917353D01*
X159998242Y-150905042D01*
X160006006Y-150900618D01*
X160610343Y-150550658D01*
X160634502Y-150533314D01*
X160660303Y-150518542D01*
X160667551Y-150513316D01*
X161205488Y-150119702D01*
X161234055Y-150094166D01*
X161264470Y-150070868D01*
X161270957Y-150064722D01*
X161691767Y-149660436D01*
X161715097Y-149633166D01*
X161740625Y-149607924D01*
X161746287Y-149601011D01*
X161866966Y-149451573D01*
X161881776Y-149429047D01*
X161898998Y-149408304D01*
X161903956Y-149400870D01*
X162227583Y-148908227D01*
X162240781Y-148883090D01*
X162256587Y-148859501D01*
X162260758Y-148851598D01*
X162560502Y-148273915D01*
X162569562Y-148251291D01*
X162581253Y-148229907D01*
X162584696Y-148221661D01*
X162831141Y-147619771D01*
X162839658Y-147591323D01*
X162851053Y-147563886D01*
X162853598Y-147555320D01*
X163017326Y-146990057D01*
X163022892Y-146960183D01*
X163031430Y-146931018D01*
X163033030Y-146922226D01*
X163086341Y-146617316D01*
X163087745Y-146598720D01*
X163091684Y-146580478D01*
X163092646Y-146571594D01*
X163152037Y-145985336D01*
X163152088Y-145969519D01*
X163154443Y-145953872D01*
X163154842Y-145944945D01*
X163179103Y-145301500D01*
X163178322Y-145288508D01*
X163179555Y-145275550D01*
X163179466Y-145266614D01*
X163168610Y-144621696D01*
X163166892Y-144606766D01*
X163167404Y-144591739D01*
X163166773Y-144582825D01*
X163120817Y-143992144D01*
X163116601Y-143968351D01*
X163115265Y-143944220D01*
X163113840Y-143935398D01*
X163032799Y-143454667D01*
X163020563Y-143409534D01*
X163010559Y-143363835D01*
X163007746Y-143355353D01*
X162752404Y-142603064D01*
X162729792Y-142553097D01*
X162708381Y-142502605D01*
X162704051Y-142494788D01*
X162288424Y-141756553D01*
X162256640Y-141711127D01*
X162225876Y-141665026D01*
X162220165Y-141658152D01*
X161669939Y-141005121D01*
X161631968Y-140968088D01*
X161595116Y-140929956D01*
X161588268Y-140924214D01*
X160915090Y-140367755D01*
X160873349Y-140339624D01*
X160832717Y-140309931D01*
X160824990Y-140305442D01*
X160040509Y-139856923D01*
X159997046Y-139837428D01*
X159954527Y-139815928D01*
X159946174Y-139812752D01*
X159062038Y-139483544D01*
X159040426Y-139477825D01*
X159019707Y-139469442D01*
X159011118Y-139466975D01*
X158742967Y-139391967D01*
X158740865Y-139391595D01*
X158738866Y-139390834D01*
X158730228Y-139388545D01*
X158414874Y-139307302D01*
X158407822Y-139306204D01*
X158401057Y-139303905D01*
X158392342Y-139301930D01*
X158087100Y-139234970D01*
X158077140Y-139233787D01*
X158067498Y-139230989D01*
X158058702Y-139229410D01*
X157743636Y-139175090D01*
X157733462Y-139174346D01*
X157723541Y-139171953D01*
X157714682Y-139170777D01*
X157369852Y-139127452D01*
X157361790Y-139127232D01*
X157353877Y-139125648D01*
X157344979Y-139124820D01*
X156950447Y-139090845D01*
X156945500Y-139090904D01*
X156940616Y-139090074D01*
X156931698Y-139089507D01*
X156467524Y-139063239D01*
X156465565Y-139063320D01*
X156463631Y-139063031D01*
X156454703Y-139062643D01*
X155901777Y-139042466D01*
X155901776Y-139042466D01*
X155901758Y-139042465D01*
X155900951Y-139042436D01*
X155900901Y-139042439D01*
X155892844Y-139042191D01*
X155229575Y-139026401D01*
X155229416Y-139026413D01*
X155224850Y-139026306D01*
X154432125Y-139013290D01*
X154432000Y-139013300D01*
X154429694Y-139013255D01*
X153487576Y-139001366D01*
X153487536Y-139001369D01*
X153486924Y-139001358D01*
X149909756Y-138959863D01*
X149908275Y-138959991D01*
X149906801Y-138959836D01*
X149846117Y-138965358D01*
X149785313Y-138970609D01*
X149783887Y-138971021D01*
X149782409Y-138971156D01*
X149723822Y-138988399D01*
X149665328Y-139005322D01*
X149664013Y-139006002D01*
X149662585Y-139006422D01*
X149608534Y-139034679D01*
X149554369Y-139062678D01*
X149553205Y-139063605D01*
X149551893Y-139064291D01*
X149504338Y-139102525D01*
X149456665Y-139140495D01*
X149455709Y-139141623D01*
X149454548Y-139142557D01*
X149415245Y-139189397D01*
X149375936Y-139235807D01*
X149375217Y-139237100D01*
X149374260Y-139238241D01*
X149344820Y-139291792D01*
X149315257Y-139344983D01*
X149314802Y-139346394D01*
X149314086Y-139347697D01*
X149295645Y-139405834D01*
X149276940Y-139463867D01*
X149276768Y-139465343D01*
X149276319Y-139466757D01*
X149269513Y-139527433D01*
X149262444Y-139587929D01*
X149262561Y-139589404D01*
X149262395Y-139590884D01*
X149262333Y-139599820D01*
X124723417Y-139599820D01*
X124906891Y-139252123D01*
X125066151Y-138716867D01*
X125115102Y-138191174D01*
X200383072Y-138191174D01*
X200440769Y-138746632D01*
X200605722Y-139280161D01*
X200854732Y-139746024D01*
X201241975Y-139986170D01*
X203052145Y-138176000D01*
X201241975Y-136365830D01*
X200854732Y-136605976D01*
X200594109Y-137099877D01*
X200434849Y-137635133D01*
X200383072Y-138191174D01*
X125115102Y-138191174D01*
X125117928Y-138160826D01*
X125060231Y-137605368D01*
X124895278Y-137071839D01*
X124646268Y-136605976D01*
X124259025Y-136365830D01*
X122448855Y-138176000D01*
X122089645Y-138176000D01*
X120279475Y-136365830D01*
X119892232Y-136605976D01*
X119631609Y-137099877D01*
X119472349Y-137635133D01*
X119420572Y-138191174D01*
X63202602Y-138191174D01*
X63205428Y-138160826D01*
X63147731Y-137605368D01*
X62982778Y-137071839D01*
X62733768Y-136605976D01*
X62346525Y-136365830D01*
X60536355Y-138176000D01*
X60177145Y-138176000D01*
X60163003Y-138161858D01*
X60342608Y-137982253D01*
X60356750Y-137996395D01*
X62166920Y-136186225D01*
X120459080Y-136186225D01*
X122269250Y-137996395D01*
X124079420Y-136186225D01*
X123839274Y-135798982D01*
X123345373Y-135538359D01*
X122810117Y-135379099D01*
X122254076Y-135327322D01*
X121698618Y-135385019D01*
X121165089Y-135549972D01*
X120699226Y-135798982D01*
X120459080Y-136186225D01*
X62166920Y-136186225D01*
X61926774Y-135798982D01*
X61432873Y-135538359D01*
X60897617Y-135379099D01*
X60341576Y-135327322D01*
X59786118Y-135385019D01*
X59252589Y-135549972D01*
X58786726Y-135798982D01*
X58546581Y-136186223D01*
X58476750Y-136116392D01*
X58476750Y-83085608D01*
X58546581Y-83015777D01*
X58786726Y-83403018D01*
X59280627Y-83663641D01*
X59815883Y-83822901D01*
X60371924Y-83874678D01*
X60927382Y-83816981D01*
X61460911Y-83652028D01*
X61926774Y-83403018D01*
X62166920Y-83015775D01*
X60356750Y-81205605D01*
X60342608Y-81219748D01*
X60163003Y-81040143D01*
X60177145Y-81026000D01*
X60536355Y-81026000D01*
X62346525Y-82836170D01*
X62733768Y-82596024D01*
X62994391Y-82102123D01*
X63153651Y-81566867D01*
X63202602Y-81041174D01*
X200383072Y-81041174D01*
X200440769Y-81596632D01*
X200605722Y-82130161D01*
X200854732Y-82596024D01*
X201241975Y-82836170D01*
X203052145Y-81026000D01*
X201241975Y-79215830D01*
X200854732Y-79455976D01*
X200594109Y-79949877D01*
X200434849Y-80485133D01*
X200383072Y-81041174D01*
X63202602Y-81041174D01*
X63205428Y-81010826D01*
X63147731Y-80455368D01*
X62982778Y-79921839D01*
X62733768Y-79455976D01*
X62346525Y-79215830D01*
X60536355Y-81026000D01*
X60177145Y-81026000D01*
X60163003Y-81011858D01*
X60342608Y-80832253D01*
X60356750Y-80846395D01*
X62166920Y-79036225D01*
X61926774Y-78648982D01*
X61432873Y-78388359D01*
X60897617Y-78229099D01*
X60341576Y-78177322D01*
X59786118Y-78235019D01*
X59252589Y-78399972D01*
X58786726Y-78648982D01*
X58546581Y-79036223D01*
X58476750Y-78966392D01*
X58476750Y-63965775D01*
X120459080Y-63965775D01*
X120699226Y-64353018D01*
X121193127Y-64613641D01*
X121728383Y-64772901D01*
X122284424Y-64824678D01*
X122839882Y-64766981D01*
X123373411Y-64602028D01*
X123839274Y-64353018D01*
X124079420Y-63965775D01*
X122269250Y-62155605D01*
X120459080Y-63965775D01*
X58476750Y-63965775D01*
X58476750Y-61991174D01*
X119420572Y-61991174D01*
X119478269Y-62546632D01*
X119643222Y-63080161D01*
X119892232Y-63546024D01*
X120279475Y-63786170D01*
X122089645Y-61976000D01*
X122448855Y-61976000D01*
X124259025Y-63786170D01*
X124646268Y-63546024D01*
X124906891Y-63052123D01*
X125066151Y-62516867D01*
X125117928Y-61960826D01*
X125060231Y-61405368D01*
X124895278Y-60871839D01*
X124646268Y-60405976D01*
X124259025Y-60165830D01*
X122448855Y-61976000D01*
X122089645Y-61976000D01*
X120279475Y-60165830D01*
X119892232Y-60405976D01*
X119631609Y-60899877D01*
X119472349Y-61435133D01*
X119420572Y-61991174D01*
X58476750Y-61991174D01*
X58476750Y-59986225D01*
X120459080Y-59986225D01*
X122269250Y-61796395D01*
X124079420Y-59986225D01*
X123839274Y-59598982D01*
X123345373Y-59338359D01*
X122810117Y-59179099D01*
X122254076Y-59127322D01*
X121698618Y-59185019D01*
X121165089Y-59349972D01*
X120699226Y-59598982D01*
X120459080Y-59986225D01*
X58476750Y-59986225D01*
X58476750Y-33015858D01*
X58514831Y-32977777D01*
X58754976Y-33365018D01*
X59248877Y-33625641D01*
X59784133Y-33784901D01*
X60340174Y-33836678D01*
X60895632Y-33778981D01*
X61429161Y-33614028D01*
X61895024Y-33365018D01*
X62135170Y-32977775D01*
X115696580Y-32977775D01*
X115936726Y-33365018D01*
X116430627Y-33625641D01*
X116965883Y-33784901D01*
X117521924Y-33836678D01*
X118077382Y-33778981D01*
X118610911Y-33614028D01*
X119076774Y-33365018D01*
X119297230Y-33009525D01*
X131412830Y-33009525D01*
X131652976Y-33396768D01*
X132146877Y-33657391D01*
X132682133Y-33816651D01*
X133238174Y-33868428D01*
X133793632Y-33810731D01*
X134327161Y-33645778D01*
X134793024Y-33396768D01*
X135033170Y-33009525D01*
X135001420Y-32977775D01*
X153796580Y-32977775D01*
X154036726Y-33365018D01*
X154530627Y-33625641D01*
X155065883Y-33784901D01*
X155621924Y-33836678D01*
X156177382Y-33778981D01*
X156710911Y-33614028D01*
X157176774Y-33365018D01*
X157416920Y-32977775D01*
X155606750Y-31167605D01*
X153796580Y-32977775D01*
X135001420Y-32977775D01*
X133223000Y-31199355D01*
X131412830Y-33009525D01*
X119297230Y-33009525D01*
X119316920Y-32977775D01*
X117506750Y-31167605D01*
X115696580Y-32977775D01*
X62135170Y-32977775D01*
X60325000Y-31167605D01*
X60310858Y-31181748D01*
X60131253Y-31002143D01*
X60145395Y-30988000D01*
X60131253Y-30973858D01*
X60310858Y-30794253D01*
X60325000Y-30808395D01*
X60339143Y-30794253D01*
X60518748Y-30973858D01*
X60504605Y-30988000D01*
X62314775Y-32798170D01*
X62702018Y-32558024D01*
X62962641Y-32064123D01*
X63121901Y-31528867D01*
X63173678Y-30972826D01*
X63115981Y-30417368D01*
X62951028Y-29883839D01*
X62702018Y-29417976D01*
X62314777Y-29177831D01*
X62352858Y-29139750D01*
X115478892Y-29139750D01*
X115516973Y-29177831D01*
X115516973Y-29177831D01*
G37*
X115516973Y-29177831D02*
X115129732Y-29417976D01*
X114869109Y-29911877D01*
X114709849Y-30447133D01*
X114658072Y-31003174D01*
X114715769Y-31558632D01*
X114880722Y-32092161D01*
X115129732Y-32558024D01*
X115516975Y-32798170D01*
X117327145Y-30988000D01*
X117313003Y-30973858D01*
X117492608Y-30794253D01*
X117506750Y-30808395D01*
X117520893Y-30794253D01*
X117700498Y-30973858D01*
X117686355Y-30988000D01*
X119496525Y-32798170D01*
X119883768Y-32558024D01*
X120144391Y-32064123D01*
X120303651Y-31528867D01*
X120355428Y-30972826D01*
X120297731Y-30417368D01*
X120132778Y-29883839D01*
X119883768Y-29417976D01*
X119496527Y-29177831D01*
X119534608Y-29139750D01*
X131163392Y-29139750D01*
X131233223Y-29209581D01*
X130845982Y-29449726D01*
X130585359Y-29943627D01*
X130426099Y-30478883D01*
X130374322Y-31034924D01*
X130432019Y-31590382D01*
X130596972Y-32123911D01*
X130845982Y-32589774D01*
X131233225Y-32829920D01*
X133043395Y-31019750D01*
X133029253Y-31005608D01*
X133208858Y-30826003D01*
X133223000Y-30840145D01*
X133237143Y-30826003D01*
X133416748Y-31005608D01*
X133402605Y-31019750D01*
X135212775Y-32829920D01*
X135600018Y-32589774D01*
X135860641Y-32095873D01*
X136019901Y-31560617D01*
X136071678Y-31004576D01*
X136013981Y-30449118D01*
X135849028Y-29915589D01*
X135600018Y-29449726D01*
X135212777Y-29209581D01*
X135282608Y-29139750D01*
X153578892Y-29139750D01*
X153616973Y-29177831D01*
X153229732Y-29417976D01*
X152969109Y-29911877D01*
X152809849Y-30447133D01*
X152758072Y-31003174D01*
X152815769Y-31558632D01*
X152980722Y-32092161D01*
X153229732Y-32558024D01*
X153616975Y-32798170D01*
X155427145Y-30988000D01*
X155413003Y-30973858D01*
X155592608Y-30794253D01*
X155606750Y-30808395D01*
X155620893Y-30794253D01*
X155800498Y-30973858D01*
X155786355Y-30988000D01*
X157596525Y-32798170D01*
X157983768Y-32558024D01*
X158244391Y-32064123D01*
X158403651Y-31528867D01*
X158455428Y-30972826D01*
X158397731Y-30417368D01*
X158232778Y-29883839D01*
X157983768Y-29417976D01*
X157596527Y-29177831D01*
X157634608Y-29139750D01*
X201172142Y-29139750D01*
X201241973Y-29209581D01*
X200854732Y-29449726D01*
X200594109Y-29943627D01*
X200434849Y-30478883D01*
X200383072Y-31034924D01*
X200440769Y-31590382D01*
X200605722Y-32123911D01*
X200854732Y-32589774D01*
X201241975Y-32829920D01*
X203052145Y-31019750D01*
X203038003Y-31005608D01*
X203217608Y-30826003D01*
X203231750Y-30840145D01*
X203245893Y-30826003D01*
X203425498Y-31005608D01*
X203411355Y-31019750D01*
X203425498Y-31033893D01*
X203245893Y-31213498D01*
X203231750Y-31199355D01*
X201421580Y-33009525D01*
X201661726Y-33396768D01*
X202155627Y-33657391D01*
X202690883Y-33816651D01*
X203246924Y-33868428D01*
X203802382Y-33810731D01*
X204335911Y-33645778D01*
X204801774Y-33396768D01*
X205041919Y-33009527D01*
X205111751Y-33079359D01*
X205111751Y-78966391D01*
X205041919Y-79036223D01*
X204801774Y-78648982D01*
X204307873Y-78388359D01*
X203772617Y-78229099D01*
X203216576Y-78177322D01*
X202661118Y-78235019D01*
X202127589Y-78399972D01*
X201661726Y-78648982D01*
X201421580Y-79036225D01*
X203231750Y-80846395D01*
X203245893Y-80832253D01*
X203425498Y-81011858D01*
X203411355Y-81026000D01*
X203425498Y-81040143D01*
X203245893Y-81219748D01*
X203231750Y-81205605D01*
X201421580Y-83015775D01*
X201661726Y-83403018D01*
X202155627Y-83663641D01*
X202690883Y-83822901D01*
X203246924Y-83874678D01*
X203802382Y-83816981D01*
X204335911Y-83652028D01*
X204801774Y-83403018D01*
X205041919Y-83015777D01*
X205111751Y-83085609D01*
X205111750Y-136116392D01*
X205041919Y-136186223D01*
X204801774Y-135798982D01*
X204307873Y-135538359D01*
X203772617Y-135379099D01*
X203216576Y-135327322D01*
X202661118Y-135385019D01*
X202127589Y-135549972D01*
X201661726Y-135798982D01*
X201421580Y-136186225D01*
X203231750Y-137996395D01*
X203245893Y-137982253D01*
X203425498Y-138161858D01*
X203411355Y-138176000D01*
X203425498Y-138190143D01*
X203245893Y-138369748D01*
X203231750Y-138355605D01*
X201421580Y-140165775D01*
X201661726Y-140553018D01*
X202155627Y-140813641D01*
X202690883Y-140972901D01*
X203246924Y-141024678D01*
X203802382Y-140966981D01*
X204335911Y-140802028D01*
X204801774Y-140553018D01*
X205041919Y-140165777D01*
X205111750Y-140235608D01*
X205111750Y-157547642D01*
X205041919Y-157617473D01*
X204801774Y-157230232D01*
X204307873Y-156969609D01*
X203772617Y-156810349D01*
X203216576Y-156758572D01*
X202661118Y-156816269D01*
X202127589Y-156981222D01*
X201661726Y-157230232D01*
X201421580Y-157617475D01*
X203231750Y-159427645D01*
X203245893Y-159413503D01*
X203425498Y-159593108D01*
X203411355Y-159607250D01*
X203425498Y-159621393D01*
X203245893Y-159800998D01*
X203231750Y-159786855D01*
X203217608Y-159800998D01*
X203038003Y-159621393D01*
X203052145Y-159607250D01*
X201241975Y-157797080D01*
X200854732Y-158037226D01*
X200594109Y-158531127D01*
X200434849Y-159066383D01*
X200383072Y-159622424D01*
X200440769Y-160177882D01*
X200605722Y-160711411D01*
X200854732Y-161177274D01*
X201241973Y-161417419D01*
X201172142Y-161487250D01*
X164810108Y-161487250D01*
X164740277Y-161417419D01*
X165127518Y-161177274D01*
X165388141Y-160683373D01*
X165547401Y-160148117D01*
X165599178Y-159592076D01*
X165541481Y-159036618D01*
X165376528Y-158503089D01*
X165183742Y-158142414D01*
X165756802Y-158518031D01*
X165757284Y-158518283D01*
X165757707Y-158518623D01*
X165812901Y-158547412D01*
X165867451Y-158575982D01*
X165867966Y-158576134D01*
X165868453Y-158576388D01*
X165876765Y-158579670D01*
X166600473Y-158859599D01*
X166632941Y-158868632D01*
X166664461Y-158880552D01*
X166673104Y-158882822D01*
X166738228Y-158899440D01*
X166763925Y-158903379D01*
X166789016Y-158910228D01*
X166797836Y-158911667D01*
X167314244Y-158992222D01*
X167345087Y-158993982D01*
X167375615Y-158998784D01*
X167384539Y-158999242D01*
X167992493Y-159026197D01*
X168014551Y-159025017D01*
X168036588Y-159026632D01*
X168045520Y-159026349D01*
X168685522Y-159001652D01*
X168707228Y-158998675D01*
X168729137Y-158998474D01*
X168738015Y-158997458D01*
X169350567Y-158923054D01*
X169379804Y-158916559D01*
X169409565Y-158913071D01*
X169418283Y-158911108D01*
X169943887Y-158788947D01*
X169988156Y-158773976D01*
X170033134Y-158761199D01*
X170041427Y-158757871D01*
X170766800Y-158460981D01*
X170810621Y-158437819D01*
X170855340Y-158416451D01*
X170862956Y-158411776D01*
X171614349Y-157943340D01*
X171655829Y-157911464D01*
X171698336Y-157880898D01*
X171705006Y-157874951D01*
X171833948Y-157758361D01*
X171840460Y-157825920D01*
X171842078Y-157834163D01*
X171842284Y-157842562D01*
X171843436Y-157851424D01*
X171897277Y-158244242D01*
X171901165Y-158260557D01*
X171902685Y-158277258D01*
X171915618Y-158321199D01*
X171926234Y-158365746D01*
X171933215Y-158380991D01*
X171937951Y-158397082D01*
X171959171Y-158437672D01*
X171978239Y-158479311D01*
X171988051Y-158492914D01*
X171995820Y-158507774D01*
X172024513Y-158543462D01*
X172051311Y-158580612D01*
X172063577Y-158592048D01*
X172074086Y-158605119D01*
X172109178Y-158634565D01*
X172142669Y-158665790D01*
X172156919Y-158674624D01*
X172169770Y-158685407D01*
X172209911Y-158707475D01*
X172248831Y-158731602D01*
X172264528Y-158737501D01*
X172279226Y-158745581D01*
X172322879Y-158759428D01*
X172365754Y-158775540D01*
X172382304Y-158778278D01*
X172398286Y-158783348D01*
X172443797Y-158788453D01*
X172488984Y-158795930D01*
X172505743Y-158795402D01*
X172522413Y-158797272D01*
X172531349Y-158797334D01*
X174973585Y-158797334D01*
X175035073Y-158791305D01*
X175097320Y-158785259D01*
X175097604Y-158785174D01*
X175097895Y-158785145D01*
X175156747Y-158767376D01*
X175216928Y-158749267D01*
X175217192Y-158749127D01*
X175217470Y-158749043D01*
X175272176Y-158719956D01*
X175327267Y-158690728D01*
X175327494Y-158690543D01*
X175327756Y-158690404D01*
X175375737Y-158651271D01*
X175424135Y-158611873D01*
X175424326Y-158611642D01*
X175424551Y-158611459D01*
X175463620Y-158564232D01*
X175503841Y-158515704D01*
X175503983Y-158515442D01*
X175504169Y-158515217D01*
X175533494Y-158460981D01*
X175563350Y-158405885D01*
X175563438Y-158405600D01*
X175563577Y-158405344D01*
X175581849Y-158346318D01*
X175600395Y-158286598D01*
X175600426Y-158286305D01*
X175600513Y-158286024D01*
X175606979Y-158224499D01*
X175613565Y-158162389D01*
X175613565Y-158161835D01*
X175613569Y-158161802D01*
X175613566Y-158161764D01*
X175613573Y-158153453D01*
X175583660Y-153221618D01*
X175583660Y-153221544D01*
X175578889Y-152449827D01*
X175578886Y-152449798D01*
X175578886Y-152449449D01*
X175572609Y-151522794D01*
X175572603Y-151522739D01*
X175572602Y-151521856D01*
X175572529Y-151512953D01*
X177124642Y-151512953D01*
X177124685Y-151521889D01*
X177132924Y-152224699D01*
X177134029Y-152234755D01*
X177133478Y-152244857D01*
X177133927Y-152253782D01*
X177170765Y-152897152D01*
X177173334Y-152913599D01*
X177173523Y-152930258D01*
X177174559Y-152939134D01*
X177241254Y-153478313D01*
X177244810Y-153494156D01*
X177246043Y-153510355D01*
X177247649Y-153519145D01*
X177294035Y-153763416D01*
X177300188Y-153784386D01*
X177303630Y-153805976D01*
X177305953Y-153814605D01*
X177577036Y-154794843D01*
X177591245Y-154831745D01*
X177602766Y-154869573D01*
X177606249Y-154877802D01*
X177992483Y-155772958D01*
X178012702Y-155809527D01*
X178030512Y-155847336D01*
X178035145Y-155854978D01*
X178526178Y-156652432D01*
X178553228Y-156688040D01*
X178578259Y-156725104D01*
X178584007Y-156731946D01*
X179169490Y-157419074D01*
X179204224Y-157452577D01*
X179237453Y-157487615D01*
X179244247Y-157493420D01*
X179913828Y-158057603D01*
X179956806Y-158087160D01*
X179998809Y-158118092D01*
X180006519Y-158122609D01*
X180749849Y-158551226D01*
X180800631Y-158574228D01*
X180850986Y-158598320D01*
X180859406Y-158601312D01*
X181666134Y-158881740D01*
X181714903Y-158893510D01*
X181763195Y-158907154D01*
X181772001Y-158908671D01*
X182292525Y-158994625D01*
X182323179Y-158996648D01*
X182353481Y-159001709D01*
X182362400Y-159002251D01*
X183005979Y-159036889D01*
X183031015Y-159035787D01*
X183056009Y-159037623D01*
X183064940Y-159037342D01*
X183723986Y-159012027D01*
X183752292Y-159008150D01*
X183780858Y-159007297D01*
X183789713Y-159006098D01*
X184390135Y-158920534D01*
X184407252Y-158916358D01*
X184424786Y-158914621D01*
X184433538Y-158912815D01*
X184445616Y-158910235D01*
X184472539Y-158901665D01*
X184500231Y-158896025D01*
X184508753Y-158893335D01*
X185253380Y-158652660D01*
X185306065Y-158629739D01*
X185359167Y-158607615D01*
X185367011Y-158603334D01*
X186084645Y-158205233D01*
X186125326Y-158177149D01*
X186167134Y-158150742D01*
X186174149Y-158145205D01*
X186515666Y-157871810D01*
X186515666Y-158157334D01*
X186521543Y-158217272D01*
X186527002Y-158277258D01*
X186527636Y-158279413D01*
X186527855Y-158281644D01*
X186545240Y-158339225D01*
X186562268Y-158397082D01*
X186563309Y-158399074D01*
X186563957Y-158401219D01*
X186592242Y-158454416D01*
X186620137Y-158507774D01*
X186621540Y-158509519D01*
X186622596Y-158511505D01*
X186660671Y-158558188D01*
X186698403Y-158605119D01*
X186700125Y-158606564D01*
X186701541Y-158608300D01*
X186747870Y-158646627D01*
X186794087Y-158685407D01*
X186796057Y-158686490D01*
X186797783Y-158687918D01*
X186850675Y-158716517D01*
X186903543Y-158745581D01*
X186905686Y-158746261D01*
X186907656Y-158747326D01*
X186965171Y-158765130D01*
X187022603Y-158783348D01*
X187024831Y-158783598D01*
X187026976Y-158784262D01*
X187086843Y-158790554D01*
X187146730Y-158797272D01*
X187151045Y-158797302D01*
X187151198Y-158797318D01*
X187151351Y-158797304D01*
X187155666Y-158797334D01*
X189695666Y-158797334D01*
X189755604Y-158791457D01*
X189815590Y-158785998D01*
X189817745Y-158785364D01*
X189819976Y-158785145D01*
X189877557Y-158767760D01*
X189935414Y-158750732D01*
X189937406Y-158749691D01*
X189939551Y-158749043D01*
X189992748Y-158720758D01*
X190046106Y-158692863D01*
X190047851Y-158691460D01*
X190049837Y-158690404D01*
X190096520Y-158652329D01*
X190143451Y-158614597D01*
X190144896Y-158612875D01*
X190146632Y-158611459D01*
X190184959Y-158565130D01*
X190223739Y-158518913D01*
X190224822Y-158516943D01*
X190226250Y-158515217D01*
X190254849Y-158462325D01*
X190283913Y-158409457D01*
X190284593Y-158407314D01*
X190285658Y-158405344D01*
X190303462Y-158347829D01*
X190321680Y-158290397D01*
X190321930Y-158288169D01*
X190322594Y-158286024D01*
X190328886Y-158226157D01*
X190335604Y-158166270D01*
X190335634Y-158161955D01*
X190335650Y-158161802D01*
X190335636Y-158161649D01*
X190335666Y-158157334D01*
X190335666Y-139107334D01*
X190329789Y-139047396D01*
X190324330Y-138987410D01*
X190323696Y-138985255D01*
X190323477Y-138983024D01*
X190306092Y-138925443D01*
X190289064Y-138867586D01*
X190288023Y-138865594D01*
X190287375Y-138863449D01*
X190259090Y-138810252D01*
X190231195Y-138756894D01*
X190229792Y-138755149D01*
X190228736Y-138753163D01*
X190190661Y-138706480D01*
X190152929Y-138659549D01*
X190151207Y-138658104D01*
X190149791Y-138656368D01*
X190103462Y-138618041D01*
X190057245Y-138579261D01*
X190055275Y-138578178D01*
X190053549Y-138576750D01*
X190000657Y-138548151D01*
X189947789Y-138519087D01*
X189945646Y-138518407D01*
X189943676Y-138517342D01*
X189886161Y-138499538D01*
X189828729Y-138481320D01*
X189826501Y-138481070D01*
X189824356Y-138480406D01*
X189764489Y-138474114D01*
X189704602Y-138467396D01*
X189700287Y-138467366D01*
X189700134Y-138467350D01*
X189699981Y-138467364D01*
X189695666Y-138467334D01*
X186988151Y-138467334D01*
X186930175Y-138473019D01*
X186872080Y-138477947D01*
X186868029Y-138479112D01*
X186863841Y-138479523D01*
X186808123Y-138496345D01*
X186752042Y-138512478D01*
X186748291Y-138514410D01*
X186744266Y-138515625D01*
X186692834Y-138542971D01*
X186640998Y-138569668D01*
X186637702Y-138572285D01*
X186633980Y-138574264D01*
X186588820Y-138611096D01*
X186543175Y-138647337D01*
X186540445Y-138650550D01*
X186537185Y-138653209D01*
X186500069Y-138698075D01*
X186462303Y-138742527D01*
X186460250Y-138746208D01*
X186457567Y-138749451D01*
X186429882Y-138800654D01*
X186401459Y-138851612D01*
X186400159Y-138855625D01*
X186398159Y-138859324D01*
X186380931Y-138914977D01*
X186362964Y-138970439D01*
X186362469Y-138974618D01*
X186361223Y-138978644D01*
X186355132Y-139036602D01*
X186348280Y-139094478D01*
X186348171Y-139102831D01*
X186348167Y-139102866D01*
X186348170Y-139102897D01*
X186348163Y-139103414D01*
X186326087Y-142707623D01*
X186311768Y-145045513D01*
X185785083Y-144716016D01*
X185737985Y-144692605D01*
X185691637Y-144667749D01*
X185683364Y-144664373D01*
X184844166Y-144328650D01*
X184791987Y-144313487D01*
X184740197Y-144296995D01*
X184731445Y-144295189D01*
X183836139Y-144116896D01*
X183786069Y-144111932D01*
X183736202Y-144105061D01*
X183727270Y-144104774D01*
X182765264Y-144080526D01*
X182734480Y-144082763D01*
X182703619Y-144081943D01*
X182694710Y-144082641D01*
X182322540Y-144114406D01*
X182288812Y-144120644D01*
X182254671Y-144123881D01*
X182245912Y-144125650D01*
X181354155Y-144312212D01*
X181303078Y-144328234D01*
X181251560Y-144342824D01*
X181243264Y-144346145D01*
X180423152Y-144681033D01*
X180374102Y-144706908D01*
X180324493Y-144731700D01*
X180316961Y-144736509D01*
X179580002Y-145214254D01*
X179536349Y-145249044D01*
X179491968Y-145282929D01*
X179485471Y-145289065D01*
X178843171Y-145904198D01*
X178825980Y-145924229D01*
X178806636Y-145942193D01*
X178800760Y-145948925D01*
X178791093Y-145960157D01*
X178778645Y-145977857D01*
X178764037Y-145993827D01*
X178758729Y-146001015D01*
X178473047Y-146393504D01*
X178458917Y-146417539D01*
X178442265Y-146439910D01*
X178437708Y-146447597D01*
X178142493Y-146953546D01*
X178134851Y-146970189D01*
X178124987Y-146985618D01*
X178120987Y-146993609D01*
X177841090Y-147562650D01*
X177835191Y-147578353D01*
X177827112Y-147593050D01*
X177823650Y-147601288D01*
X177583918Y-148183050D01*
X177577786Y-148203366D01*
X177569081Y-148222733D01*
X177566290Y-148231222D01*
X177391573Y-148775333D01*
X177388507Y-148789512D01*
X177383353Y-148803071D01*
X177381069Y-148811711D01*
X177372652Y-148844465D01*
X177370195Y-148860314D01*
X177365462Y-148875655D01*
X177363735Y-148884423D01*
X177270159Y-149377490D01*
X177268438Y-149396596D01*
X177264151Y-149415286D01*
X177263074Y-149424157D01*
X177193065Y-150036785D01*
X177192889Y-150047758D01*
X177190953Y-150058560D01*
X177190305Y-150067473D01*
X177145120Y-150754912D01*
X177145378Y-150762950D01*
X177144268Y-150770924D01*
X177143969Y-150779856D01*
X177133626Y-151168367D01*
X177124868Y-151497356D01*
X177125424Y-151505159D01*
X177124642Y-151512953D01*
X175572529Y-151512953D01*
X175566154Y-150739312D01*
X175566144Y-150739217D01*
X175566137Y-150737548D01*
X175558957Y-150084507D01*
X175558942Y-150084373D01*
X175558917Y-150081468D01*
X175550444Y-149543318D01*
X175550426Y-149543160D01*
X175550345Y-149538305D01*
X175540019Y-149100437D01*
X175540013Y-149100385D01*
X175539779Y-149092388D01*
X175527038Y-148740195D01*
X175526792Y-148738372D01*
X175526895Y-148736536D01*
X175526458Y-148727611D01*
X175510742Y-148446481D01*
X175509972Y-148441506D01*
X175510104Y-148436468D01*
X175509403Y-148427559D01*
X175490150Y-148202886D01*
X175488537Y-148194180D01*
X175488401Y-148185322D01*
X175487330Y-148176450D01*
X175463980Y-147993621D01*
X175461326Y-147982014D01*
X175460536Y-147970128D01*
X175459014Y-147961322D01*
X175431007Y-147805728D01*
X175427835Y-147794521D01*
X175426478Y-147782942D01*
X175424515Y-147774223D01*
X175391288Y-147631258D01*
X175389173Y-147625003D01*
X175388178Y-147618473D01*
X175385916Y-147609828D01*
X175346909Y-147464878D01*
X175342809Y-147454006D01*
X175340485Y-147442620D01*
X175337792Y-147434099D01*
X175160104Y-146885148D01*
X175145819Y-146852351D01*
X175134323Y-146818465D01*
X175130583Y-146810349D01*
X174845422Y-146202697D01*
X174815840Y-146152955D01*
X174786943Y-146102743D01*
X174781700Y-146095507D01*
X174424296Y-145609343D01*
X174421541Y-145606275D01*
X174419392Y-145602762D01*
X174379841Y-145559834D01*
X174340845Y-145516405D01*
X174337552Y-145513934D01*
X174334757Y-145510901D01*
X174328048Y-145504998D01*
X173879071Y-145115481D01*
X173831006Y-145081394D01*
X173783269Y-145046745D01*
X173777272Y-145043286D01*
X173777186Y-145043225D01*
X173777098Y-145043185D01*
X173775528Y-145042280D01*
X173215640Y-144724568D01*
X173192948Y-144714478D01*
X173171610Y-144701791D01*
X173163494Y-144698052D01*
X173011787Y-144629446D01*
X172999869Y-144625404D01*
X172988716Y-144619552D01*
X172980413Y-144616251D01*
X172567714Y-144455459D01*
X172543044Y-144448531D01*
X172519333Y-144438804D01*
X172510756Y-144436295D01*
X172085603Y-144315151D01*
X172059919Y-144310481D01*
X172034937Y-144302921D01*
X172026160Y-144301241D01*
X171557317Y-144214879D01*
X171536632Y-144213129D01*
X171516344Y-144208695D01*
X171507462Y-144207711D01*
X170963692Y-144151261D01*
X170950472Y-144151186D01*
X170937418Y-144149079D01*
X170928496Y-144148586D01*
X170278560Y-144117181D01*
X170272129Y-144117499D01*
X170265731Y-144116689D01*
X170256797Y-144116500D01*
X169469459Y-144105272D01*
X169469425Y-144105275D01*
X169461003Y-144105207D01*
X169324443Y-144105064D01*
X169322119Y-144105289D01*
X169319794Y-144105076D01*
X169310858Y-144105194D01*
X168389080Y-144123799D01*
X168377265Y-144125199D01*
X168365378Y-144124717D01*
X168356461Y-144125291D01*
X167546620Y-144183056D01*
X167530024Y-144185887D01*
X167513185Y-144186324D01*
X167504325Y-144187489D01*
X166758566Y-144290810D01*
X166740455Y-144295154D01*
X166721921Y-144296976D01*
X166713168Y-144298776D01*
X165983629Y-144454045D01*
X165968366Y-144458891D01*
X165952551Y-144461474D01*
X165943931Y-144463829D01*
X165182755Y-144677442D01*
X165179162Y-144678841D01*
X165175365Y-144679563D01*
X165166809Y-144682141D01*
X164614794Y-144852641D01*
X164589861Y-144863104D01*
X164563918Y-144870739D01*
X164532406Y-144887213D01*
X164499618Y-144900972D01*
X164477189Y-144916080D01*
X164453226Y-144928608D01*
X164425511Y-144950891D01*
X164396022Y-144970755D01*
X164376960Y-144989927D01*
X164355881Y-145006874D01*
X164333023Y-145034115D01*
X164307953Y-145059329D01*
X164292974Y-145081844D01*
X164275593Y-145102558D01*
X164258462Y-145133720D01*
X164238767Y-145163323D01*
X164228448Y-145188314D01*
X164215419Y-145212014D01*
X164204667Y-145245911D01*
X164191097Y-145278775D01*
X164185828Y-145305300D01*
X164177652Y-145331074D01*
X164173688Y-145366412D01*
X164166760Y-145401287D01*
X164166743Y-145428322D01*
X164163728Y-145455201D01*
X164163666Y-145464137D01*
X164163666Y-146561402D01*
X164163674Y-146561487D01*
X164163668Y-146562836D01*
X164163844Y-146641378D01*
X164163864Y-146641573D01*
X164163844Y-146641779D01*
X164163933Y-146650715D01*
X164170640Y-147049182D01*
X164171209Y-147054122D01*
X164170883Y-147059090D01*
X164171234Y-147068019D01*
X164186220Y-147391617D01*
X164187945Y-147403514D01*
X164187777Y-147415534D01*
X164188587Y-147424434D01*
X164209878Y-147641679D01*
X164210190Y-147643255D01*
X164210198Y-147644858D01*
X164222304Y-147704453D01*
X164234133Y-147764207D01*
X164234744Y-147765690D01*
X164235064Y-147767264D01*
X164237749Y-147775787D01*
X164263373Y-147855199D01*
X164272172Y-147875451D01*
X164278346Y-147896661D01*
X164297011Y-147932622D01*
X164313146Y-147969760D01*
X164325709Y-147987915D01*
X164335887Y-148007524D01*
X164361180Y-148039173D01*
X164384223Y-148072471D01*
X164400080Y-148087846D01*
X164413867Y-148105098D01*
X164444813Y-148131221D01*
X164473896Y-148159422D01*
X164492435Y-148171423D01*
X164509312Y-148185670D01*
X164544759Y-148205294D01*
X164578750Y-148227297D01*
X164599260Y-148235466D01*
X164618590Y-148246167D01*
X164657176Y-148258533D01*
X164694791Y-148273514D01*
X164716498Y-148277544D01*
X164737537Y-148284286D01*
X164777781Y-148288920D01*
X164817599Y-148296312D01*
X164839684Y-148296049D01*
X164861624Y-148298575D01*
X164901998Y-148295305D01*
X164942496Y-148294822D01*
X164964102Y-148290275D01*
X164986122Y-148288492D01*
X164994905Y-148286843D01*
X165034169Y-148279189D01*
X165056564Y-148272500D01*
X165079616Y-148268597D01*
X165088222Y-148266192D01*
X165263539Y-148215890D01*
X165267313Y-148214395D01*
X165271292Y-148213612D01*
X165279831Y-148210979D01*
X165554973Y-148124054D01*
X165555066Y-148124014D01*
X165555171Y-148123992D01*
X165563672Y-148121238D01*
X165896248Y-148010916D01*
X166259620Y-147894554D01*
X167102871Y-147672083D01*
X167937159Y-147512650D01*
X168741016Y-147416505D01*
X169485033Y-147384697D01*
X170137184Y-147416403D01*
X170659995Y-147505836D01*
X171033418Y-147641318D01*
X171209112Y-147750376D01*
X171364046Y-147906015D01*
X171480566Y-148119321D01*
X171580922Y-148474844D01*
X171648698Y-148967515D01*
X171060354Y-148978853D01*
X171054645Y-148979524D01*
X171048905Y-148979176D01*
X171039977Y-148979570D01*
X170307069Y-149017075D01*
X170302223Y-149017802D01*
X170297321Y-149017648D01*
X170288408Y-149018304D01*
X169554669Y-149077387D01*
X169549659Y-149078289D01*
X169544566Y-149078281D01*
X169535678Y-149079201D01*
X168843629Y-149155748D01*
X168836495Y-149157253D01*
X168829206Y-149157509D01*
X168820357Y-149158755D01*
X168212522Y-149248649D01*
X168199321Y-149251944D01*
X168185767Y-149253187D01*
X168177003Y-149254930D01*
X167695901Y-149354056D01*
X167680956Y-149358694D01*
X167665489Y-149361099D01*
X167656851Y-149363388D01*
X167399224Y-149433564D01*
X167376968Y-149442035D01*
X167353840Y-149447756D01*
X167345437Y-149450798D01*
X166443291Y-149784428D01*
X166402474Y-149804244D01*
X166360639Y-149821850D01*
X166352811Y-149826159D01*
X165574487Y-150261589D01*
X165532075Y-150291093D01*
X165488666Y-150319161D01*
X165481710Y-150324772D01*
X164832687Y-150855736D01*
X164792168Y-150896095D01*
X164751004Y-150935759D01*
X164745252Y-150942598D01*
X164231006Y-151562832D01*
X164197064Y-151613035D01*
X164162876Y-151662956D01*
X164161132Y-151666182D01*
X164161046Y-151666308D01*
X164160985Y-151666452D01*
X164158625Y-151670816D01*
X163784634Y-152374056D01*
X163761450Y-152430292D01*
X163738029Y-152486249D01*
X163737084Y-152489395D01*
X163737027Y-152489534D01*
X163736997Y-152489687D01*
X163735459Y-152494808D01*
X163507200Y-153274788D01*
X163496485Y-153331430D01*
X163484917Y-153387901D01*
X163484049Y-153396795D01*
X163446511Y-153811131D01*
X163446498Y-153811259D01*
X163406998Y-154247254D01*
X163407308Y-154289137D01*
X163404914Y-154330957D01*
X163405339Y-154339883D01*
X163435446Y-154891434D01*
X163441738Y-154932434D01*
X163445319Y-154973759D01*
X163447017Y-154982532D01*
X163609400Y-155791318D01*
X163625309Y-155843510D01*
X163639923Y-155896086D01*
X163643203Y-155904398D01*
X163937568Y-156635413D01*
X163964265Y-156686623D01*
X163990190Y-156738202D01*
X163995016Y-156745723D01*
X164305538Y-157222324D01*
X163826623Y-156969609D01*
X163291367Y-156810349D01*
X162735326Y-156758572D01*
X162179868Y-156816269D01*
X161646339Y-156981222D01*
X161180476Y-157230232D01*
X160940330Y-157617475D01*
X162750500Y-159427645D01*
X162764643Y-159413503D01*
X162944248Y-159593108D01*
X162930105Y-159607250D01*
X162944248Y-159621393D01*
X162764643Y-159800998D01*
X162750500Y-159786855D01*
X162736358Y-159800998D01*
X162556753Y-159621393D01*
X162570895Y-159607250D01*
X160760725Y-157797080D01*
X160373482Y-158037226D01*
X160112859Y-158531127D01*
X159953599Y-159066383D01*
X159901822Y-159622424D01*
X159959519Y-160177882D01*
X160124472Y-160711411D01*
X160373482Y-161177274D01*
X160760723Y-161417419D01*
X160690892Y-161487250D01*
X102897608Y-161487250D01*
X102827777Y-161417419D01*
X103215018Y-161177274D01*
X103475641Y-160683373D01*
X103634901Y-160148117D01*
X103686678Y-159592076D01*
X103628981Y-159036618D01*
X103464028Y-158503089D01*
X103215018Y-158037226D01*
X102827775Y-157797080D01*
X101017605Y-159607250D01*
X101031748Y-159621393D01*
X100852143Y-159800998D01*
X100838000Y-159786855D01*
X100823858Y-159800998D01*
X100644253Y-159621393D01*
X100658395Y-159607250D01*
X98848225Y-157797080D01*
X98460982Y-158037226D01*
X98200359Y-158531127D01*
X98041099Y-159066383D01*
X97989322Y-159622424D01*
X98047019Y-160177882D01*
X98211972Y-160711411D01*
X98460982Y-161177274D01*
X98848223Y-161417419D01*
X98778392Y-161487250D01*
X62416358Y-161487250D01*
X62346527Y-161417419D01*
X62733768Y-161177274D01*
X62994391Y-160683373D01*
X63153651Y-160148117D01*
X63205428Y-159592076D01*
X63147731Y-159036618D01*
X62982778Y-158503089D01*
X62733768Y-158037226D01*
X62346525Y-157797080D01*
X60536355Y-159607250D01*
X60550498Y-159621393D01*
X60370893Y-159800998D01*
X60356750Y-159786855D01*
X60342608Y-159800998D01*
X60163003Y-159621393D01*
X60177145Y-159607250D01*
X60163003Y-159593108D01*
X60342608Y-159413503D01*
X60356750Y-159427645D01*
X62166920Y-157617475D01*
X99027830Y-157617475D01*
X100838000Y-159427645D01*
X102648170Y-157617475D01*
X102408024Y-157230232D01*
X101914123Y-156969609D01*
X101378867Y-156810349D01*
X100822826Y-156758572D01*
X100267368Y-156816269D01*
X99733839Y-156981222D01*
X99267976Y-157230232D01*
X99027830Y-157617475D01*
X62166920Y-157617475D01*
X61926774Y-157230232D01*
X61432873Y-156969609D01*
X60897617Y-156810349D01*
X60341576Y-156758572D01*
X59786118Y-156816269D01*
X59252589Y-156981222D01*
X58786726Y-157230232D01*
X58546581Y-157617473D01*
X58476750Y-157547642D01*
X58476750Y-140235608D01*
X58546581Y-140165777D01*
X58786726Y-140553018D01*
X59280627Y-140813641D01*
X59815883Y-140972901D01*
X60371924Y-141024678D01*
X60927382Y-140966981D01*
X61460911Y-140802028D01*
X61926774Y-140553018D01*
X62166920Y-140165775D01*
X60356750Y-138355605D01*
X60342608Y-138369748D01*
X60163003Y-138190143D01*
X60177145Y-138176000D01*
X60536355Y-138176000D01*
X62346525Y-139986170D01*
X62733768Y-139746024D01*
X62804944Y-139611139D01*
X104304333Y-139611139D01*
X104304333Y-158157334D01*
X104310210Y-158217272D01*
X104315669Y-158277258D01*
X104316303Y-158279413D01*
X104316522Y-158281644D01*
X104333907Y-158339225D01*
X104350935Y-158397082D01*
X104351976Y-158399074D01*
X104352624Y-158401219D01*
X104380909Y-158454416D01*
X104408804Y-158507774D01*
X104410207Y-158509519D01*
X104411263Y-158511505D01*
X104449338Y-158558188D01*
X104487070Y-158605119D01*
X104488792Y-158606564D01*
X104490208Y-158608300D01*
X104536537Y-158646627D01*
X104582754Y-158685407D01*
X104584724Y-158686490D01*
X104586450Y-158687918D01*
X104639342Y-158716517D01*
X104692210Y-158745581D01*
X104694353Y-158746261D01*
X104696323Y-158747326D01*
X104753838Y-158765130D01*
X104811270Y-158783348D01*
X104813498Y-158783598D01*
X104815643Y-158784262D01*
X104875510Y-158790554D01*
X104935397Y-158797272D01*
X104939712Y-158797302D01*
X104939865Y-158797318D01*
X104940018Y-158797304D01*
X104944333Y-158797334D01*
X107652676Y-158797334D01*
X107711630Y-158791553D01*
X107770632Y-158786370D01*
X107773753Y-158785462D01*
X107776986Y-158785145D01*
X107833662Y-158768033D01*
X107890566Y-158751479D01*
X107893452Y-158749982D01*
X107896561Y-158749043D01*
X107948893Y-158721218D01*
X108001438Y-158693957D01*
X108003972Y-158691933D01*
X108006847Y-158690404D01*
X108052763Y-158652955D01*
X108099028Y-158615996D01*
X108101127Y-158613510D01*
X108103642Y-158611459D01*
X108141344Y-158565885D01*
X108179615Y-158520564D01*
X108181192Y-158517717D01*
X108183260Y-158515217D01*
X108211393Y-158463186D01*
X108240131Y-158411297D01*
X108241125Y-158408199D01*
X108242668Y-158405344D01*
X108260184Y-158348758D01*
X108278270Y-158292356D01*
X108278642Y-158289132D01*
X108279604Y-158286024D01*
X108285794Y-158227125D01*
X108292583Y-158168273D01*
X108292647Y-158161926D01*
X108292660Y-158161802D01*
X108292649Y-158161685D01*
X108292673Y-158159337D01*
X108328519Y-146705856D01*
X115047103Y-158433145D01*
X115055030Y-158444295D01*
X115061168Y-158456526D01*
X115091164Y-158495125D01*
X115119474Y-158534949D01*
X115129413Y-158544345D01*
X115137812Y-158555153D01*
X115174740Y-158587196D01*
X115210241Y-158620757D01*
X115221817Y-158628044D01*
X115232154Y-158637014D01*
X115274592Y-158661268D01*
X115315945Y-158687301D01*
X115328718Y-158692202D01*
X115340599Y-158698992D01*
X115386933Y-158714539D01*
X115432562Y-158732046D01*
X115446047Y-158734373D01*
X115459017Y-158738725D01*
X115507484Y-158744976D01*
X115555648Y-158753288D01*
X115569324Y-158752952D01*
X115582896Y-158754702D01*
X115591830Y-158754912D01*
X116993783Y-158778126D01*
X118395737Y-158801340D01*
X118398805Y-158801090D01*
X118401865Y-158801412D01*
X118461042Y-158796027D01*
X118520232Y-158791211D01*
X118523190Y-158790371D01*
X118526257Y-158790092D01*
X118583287Y-158773307D01*
X118640388Y-158757094D01*
X118643127Y-158755695D01*
X118646081Y-158754826D01*
X118698683Y-158727326D01*
X118751630Y-158700289D01*
X118754052Y-158698380D01*
X118756773Y-158696957D01*
X118803064Y-158659739D01*
X118849718Y-158622957D01*
X118851714Y-158620623D01*
X118854118Y-158618691D01*
X118892378Y-158573094D01*
X118930919Y-158528046D01*
X118932425Y-158525368D01*
X118934406Y-158523007D01*
X118963067Y-158470873D01*
X118992138Y-158419172D01*
X118993095Y-158416252D01*
X118994580Y-158413551D01*
X119012554Y-158356887D01*
X119031044Y-158300480D01*
X119031416Y-158297425D01*
X119032347Y-158294491D01*
X119038976Y-158235398D01*
X119046155Y-158176491D01*
X119045927Y-158173428D01*
X119046271Y-158170364D01*
X119046333Y-158161428D01*
X119046333Y-154330957D01*
X120986914Y-154330957D01*
X120987339Y-154339883D01*
X121017446Y-154891434D01*
X121023738Y-154932434D01*
X121027319Y-154973759D01*
X121029017Y-154982532D01*
X121191400Y-155791318D01*
X121207309Y-155843510D01*
X121221923Y-155896086D01*
X121225203Y-155904398D01*
X121519568Y-156635413D01*
X121546265Y-156686623D01*
X121572190Y-156738202D01*
X121577016Y-156745723D01*
X121993504Y-157384965D01*
X122031359Y-157432239D01*
X122068931Y-157479737D01*
X122071482Y-157482347D01*
X122071577Y-157482465D01*
X122071696Y-157482565D01*
X122075178Y-157486127D01*
X122603931Y-158019599D01*
X122603982Y-158019642D01*
X122604021Y-158019689D01*
X122652421Y-158059792D01*
X122700097Y-158099309D01*
X122700150Y-158099338D01*
X122700201Y-158099380D01*
X122707641Y-158104331D01*
X123338802Y-158518031D01*
X123339284Y-158518283D01*
X123339707Y-158518623D01*
X123394901Y-158547412D01*
X123449451Y-158575982D01*
X123449966Y-158576134D01*
X123450453Y-158576388D01*
X123458765Y-158579670D01*
X124182473Y-158859599D01*
X124214941Y-158868632D01*
X124246461Y-158880552D01*
X124255104Y-158882822D01*
X124320228Y-158899440D01*
X124345925Y-158903379D01*
X124371016Y-158910228D01*
X124379836Y-158911667D01*
X124896244Y-158992222D01*
X124927087Y-158993982D01*
X124957615Y-158998784D01*
X124966539Y-158999242D01*
X125574493Y-159026197D01*
X125596551Y-159025017D01*
X125618588Y-159026632D01*
X125627520Y-159026349D01*
X126267522Y-159001652D01*
X126289228Y-158998675D01*
X126311137Y-158998474D01*
X126320015Y-158997458D01*
X126932567Y-158923054D01*
X126961804Y-158916559D01*
X126991565Y-158913071D01*
X127000283Y-158911108D01*
X127525887Y-158788947D01*
X127570156Y-158773976D01*
X127615134Y-158761199D01*
X127623427Y-158757871D01*
X128348800Y-158460981D01*
X128392621Y-158437819D01*
X128437340Y-158416451D01*
X128444956Y-158411776D01*
X129196349Y-157943340D01*
X129237829Y-157911464D01*
X129280336Y-157880898D01*
X129287006Y-157874951D01*
X129415948Y-157758361D01*
X129422460Y-157825920D01*
X129424078Y-157834163D01*
X129424284Y-157842562D01*
X129425436Y-157851424D01*
X129479277Y-158244242D01*
X129483165Y-158260557D01*
X129484685Y-158277258D01*
X129497618Y-158321199D01*
X129508234Y-158365746D01*
X129515215Y-158380991D01*
X129519951Y-158397082D01*
X129541171Y-158437672D01*
X129560239Y-158479311D01*
X129570051Y-158492914D01*
X129577820Y-158507774D01*
X129606513Y-158543462D01*
X129633311Y-158580612D01*
X129645577Y-158592048D01*
X129656086Y-158605119D01*
X129691178Y-158634565D01*
X129724669Y-158665790D01*
X129738919Y-158674624D01*
X129751770Y-158685407D01*
X129791911Y-158707475D01*
X129830831Y-158731602D01*
X129846528Y-158737501D01*
X129861226Y-158745581D01*
X129904879Y-158759428D01*
X129947754Y-158775540D01*
X129964304Y-158778278D01*
X129980286Y-158783348D01*
X130025797Y-158788453D01*
X130070984Y-158795930D01*
X130087743Y-158795402D01*
X130104413Y-158797272D01*
X130113349Y-158797334D01*
X132555585Y-158797334D01*
X132617073Y-158791305D01*
X132679320Y-158785259D01*
X132679604Y-158785174D01*
X132679895Y-158785145D01*
X132738747Y-158767376D01*
X132798928Y-158749267D01*
X132799192Y-158749127D01*
X132799470Y-158749043D01*
X132854176Y-158719956D01*
X132909267Y-158690728D01*
X132909494Y-158690543D01*
X132909756Y-158690404D01*
X132957737Y-158651271D01*
X133006135Y-158611873D01*
X133006326Y-158611642D01*
X133006551Y-158611459D01*
X133045620Y-158564232D01*
X133085841Y-158515704D01*
X133085983Y-158515442D01*
X133086169Y-158515217D01*
X133115494Y-158460981D01*
X133145350Y-158405885D01*
X133145438Y-158405600D01*
X133145577Y-158405344D01*
X133163849Y-158346318D01*
X133182395Y-158286598D01*
X133182426Y-158286305D01*
X133182513Y-158286024D01*
X133188979Y-158224499D01*
X133195565Y-158162389D01*
X133195565Y-158161835D01*
X133195569Y-158161802D01*
X133195566Y-158161764D01*
X133195573Y-158153453D01*
X133165660Y-153221618D01*
X133165660Y-153221544D01*
X133160889Y-152449827D01*
X133160886Y-152449798D01*
X133160886Y-152449449D01*
X133154609Y-151522794D01*
X133154603Y-151522739D01*
X133154602Y-151521856D01*
X133148154Y-150739312D01*
X133148144Y-150739217D01*
X133148137Y-150737548D01*
X133140957Y-150084507D01*
X133140942Y-150084373D01*
X133140917Y-150081468D01*
X133132444Y-149543318D01*
X133132426Y-149543160D01*
X133132345Y-149538305D01*
X133122019Y-149100437D01*
X133122013Y-149100385D01*
X133121779Y-149092388D01*
X133109038Y-148740195D01*
X133108792Y-148738372D01*
X133108895Y-148736536D01*
X133108458Y-148727611D01*
X133092742Y-148446481D01*
X133091972Y-148441506D01*
X133092104Y-148436468D01*
X133091403Y-148427559D01*
X133072150Y-148202886D01*
X133070537Y-148194180D01*
X133070401Y-148185322D01*
X133069330Y-148176450D01*
X133045980Y-147993621D01*
X133043326Y-147982014D01*
X133042536Y-147970128D01*
X133041014Y-147961322D01*
X133013007Y-147805728D01*
X133009835Y-147794521D01*
X133008478Y-147782942D01*
X133006515Y-147774223D01*
X132973288Y-147631258D01*
X132971173Y-147625003D01*
X132970178Y-147618473D01*
X132967916Y-147609828D01*
X132928909Y-147464878D01*
X132924809Y-147454006D01*
X132922485Y-147442620D01*
X132919792Y-147434099D01*
X132742104Y-146885148D01*
X132727819Y-146852351D01*
X132716323Y-146818465D01*
X132712583Y-146810349D01*
X132427422Y-146202697D01*
X132397840Y-146152955D01*
X132368943Y-146102743D01*
X132363700Y-146095507D01*
X132006296Y-145609343D01*
X132003541Y-145606275D01*
X132001392Y-145602762D01*
X131961841Y-145559834D01*
X131922845Y-145516405D01*
X131919552Y-145513934D01*
X131916757Y-145510901D01*
X131910048Y-145504998D01*
X131461071Y-145115481D01*
X131413006Y-145081394D01*
X131365269Y-145046745D01*
X131359272Y-145043286D01*
X131359186Y-145043225D01*
X131359098Y-145043185D01*
X131357528Y-145042280D01*
X131347893Y-145036812D01*
X133938225Y-145036812D01*
X133939755Y-145047707D01*
X133939517Y-145058697D01*
X133948426Y-145109448D01*
X133955597Y-145160504D01*
X133959213Y-145170890D01*
X133961114Y-145181721D01*
X133963571Y-145190313D01*
X133974739Y-145228363D01*
X133976311Y-145232263D01*
X133977151Y-145236387D01*
X133979839Y-145244909D01*
X134038546Y-145426588D01*
X134038606Y-145426727D01*
X134039644Y-145429953D01*
X134144343Y-145747941D01*
X134144373Y-145748009D01*
X134144761Y-145749207D01*
X134290535Y-146188861D01*
X134290553Y-146188902D01*
X134290760Y-146189538D01*
X134472695Y-146736212D01*
X134472704Y-146736233D01*
X134472837Y-146736640D01*
X134686014Y-147375691D01*
X134686024Y-147375714D01*
X134686116Y-147375995D01*
X134925622Y-148092776D01*
X134925629Y-148092791D01*
X134925700Y-148093009D01*
X135186618Y-148872876D01*
X135186625Y-148872891D01*
X135186682Y-148873066D01*
X135464096Y-149701374D01*
X135464100Y-149701382D01*
X135464151Y-149701539D01*
X135753144Y-150563643D01*
X135753148Y-150563653D01*
X135753195Y-150563795D01*
X136048853Y-151445050D01*
X136048901Y-151445195D01*
X136346307Y-152330956D01*
X136346313Y-152330970D01*
X136346357Y-152331103D01*
X136640595Y-153206726D01*
X136640647Y-153206883D01*
X136926801Y-154057722D01*
X136926808Y-154057737D01*
X136926860Y-154057896D01*
X137200014Y-154869308D01*
X137200021Y-154869323D01*
X137200084Y-154869515D01*
X137455323Y-155626852D01*
X137455329Y-155626865D01*
X137455410Y-155627111D01*
X137687817Y-156315730D01*
X137687828Y-156315755D01*
X137687935Y-156316078D01*
X137892594Y-156921334D01*
X137892608Y-156921365D01*
X137892767Y-156921845D01*
X138064763Y-157429093D01*
X138064785Y-157429141D01*
X138065052Y-157429944D01*
X138199468Y-157824539D01*
X138199513Y-157824637D01*
X138200071Y-157826298D01*
X138291992Y-158093595D01*
X138292044Y-158093709D01*
X138294096Y-158099617D01*
X138338606Y-158224971D01*
X138345708Y-158240098D01*
X138350575Y-158256085D01*
X138354058Y-158264315D01*
X138360373Y-158278957D01*
X138370525Y-158297322D01*
X138378209Y-158316845D01*
X138391368Y-158337356D01*
X138391688Y-158338037D01*
X138392603Y-158339280D01*
X138400677Y-158351866D01*
X138420803Y-158388272D01*
X138434324Y-158404309D01*
X138445657Y-158421974D01*
X138451242Y-158428950D01*
X138488826Y-158475225D01*
X138503789Y-158490354D01*
X138516682Y-158507287D01*
X138547615Y-158534668D01*
X138576659Y-158564034D01*
X138594276Y-158575969D01*
X138610212Y-158590075D01*
X138645874Y-158610926D01*
X138680068Y-158634092D01*
X138699665Y-158642377D01*
X138718039Y-158653120D01*
X138726183Y-158656799D01*
X138802157Y-158690488D01*
X138815380Y-158694865D01*
X138827786Y-158701193D01*
X138874572Y-158714456D01*
X138920736Y-158729736D01*
X138934553Y-158731460D01*
X138947956Y-158735260D01*
X138956762Y-158736785D01*
X139092943Y-158759396D01*
X139121991Y-158761339D01*
X139150682Y-158766305D01*
X139159599Y-158766900D01*
X139377806Y-158779938D01*
X139387521Y-158779568D01*
X139397165Y-158780801D01*
X139406099Y-158781001D01*
X139728149Y-158785973D01*
X139729755Y-158785841D01*
X139731361Y-158786015D01*
X139740298Y-158786045D01*
X140188010Y-158784458D01*
X140188167Y-158784442D01*
X140192880Y-158784422D01*
X140788070Y-158777782D01*
X140788135Y-158777775D01*
X140789130Y-158777769D01*
X142570341Y-158754947D01*
X142584989Y-158753321D01*
X142599729Y-158753896D01*
X142646976Y-158746441D01*
X142694485Y-158741167D01*
X142708543Y-158736725D01*
X142723108Y-158734427D01*
X142767997Y-158717941D01*
X142813588Y-158703536D01*
X142826515Y-158696449D01*
X142840357Y-158691365D01*
X142881183Y-158666477D01*
X142923113Y-158643489D01*
X142934420Y-158634023D01*
X142947009Y-158626349D01*
X142982235Y-158593995D01*
X143018889Y-158563310D01*
X143028135Y-158551837D01*
X143039001Y-158541857D01*
X143067274Y-158503272D01*
X143097267Y-158466056D01*
X143104113Y-158452997D01*
X143112828Y-158441104D01*
X143133062Y-158397778D01*
X143155263Y-158355431D01*
X143159441Y-158341295D01*
X143165682Y-158327932D01*
X143168596Y-158319484D01*
X145352512Y-151842485D01*
X145352514Y-151842476D01*
X145352541Y-151842398D01*
X145497479Y-151412342D01*
X145497484Y-151412320D01*
X145497577Y-151412050D01*
X145830398Y-150422939D01*
X145830404Y-150422913D01*
X145830540Y-150422517D01*
X146145637Y-149483920D01*
X146145646Y-149483883D01*
X146145788Y-149483467D01*
X146439100Y-148607593D01*
X146439107Y-148607561D01*
X146439271Y-148607082D01*
X146706740Y-147806142D01*
X146706749Y-147806103D01*
X146706944Y-147805530D01*
X146944511Y-147091734D01*
X146944521Y-147091690D01*
X146944776Y-147090938D01*
X147148381Y-146476496D01*
X147148397Y-146476423D01*
X147148759Y-146475350D01*
X147314344Y-145972473D01*
X147314366Y-145972373D01*
X147314973Y-145970554D01*
X147438477Y-145591452D01*
X147438511Y-145591298D01*
X147439821Y-145587278D01*
X147517186Y-145344160D01*
X147518217Y-145339330D01*
X147520097Y-145334763D01*
X147522616Y-145326189D01*
X147549783Y-145231267D01*
X147553609Y-145210362D01*
X147560094Y-145190131D01*
X147562187Y-145171970D01*
X147565492Y-145159823D01*
X147567135Y-145136456D01*
X147572269Y-145108401D01*
X147571962Y-145087159D01*
X147574395Y-145066046D01*
X147574484Y-145057111D01*
X147574491Y-145054806D01*
X147573562Y-145045025D01*
X147574251Y-145035224D01*
X147570816Y-145007951D01*
X147570462Y-144983508D01*
X147565512Y-144960279D01*
X147562680Y-144930459D01*
X147559869Y-144921045D01*
X147558641Y-144911297D01*
X147548701Y-144881379D01*
X147544432Y-144861345D01*
X147536576Y-144843040D01*
X147526941Y-144810775D01*
X147522358Y-144802091D01*
X147519258Y-144792762D01*
X147501785Y-144761980D01*
X147495169Y-144746564D01*
X147485953Y-144733118D01*
X147468637Y-144700312D01*
X147462446Y-144692673D01*
X147457599Y-144684135D01*
X147432162Y-144654644D01*
X147424549Y-144643537D01*
X147415225Y-144634416D01*
X147389986Y-144603277D01*
X147382438Y-144596994D01*
X147376019Y-144589552D01*
X147369506Y-144583432D01*
X147325287Y-144542455D01*
X147290386Y-144515944D01*
X147257094Y-144487439D01*
X147240755Y-144478244D01*
X147225823Y-144466901D01*
X147186437Y-144447674D01*
X147148242Y-144426178D01*
X147130424Y-144420330D01*
X147113578Y-144412106D01*
X147071213Y-144400896D01*
X147029565Y-144387226D01*
X147020830Y-144385343D01*
X146879656Y-144355926D01*
X146842593Y-144351919D01*
X146805952Y-144344998D01*
X146797046Y-144344266D01*
X146540848Y-144325019D01*
X146529893Y-144325268D01*
X146519035Y-144323754D01*
X146510103Y-144323452D01*
X146120814Y-144312986D01*
X146118500Y-144313150D01*
X146116192Y-144312878D01*
X146107257Y-144312765D01*
X145566809Y-144309689D01*
X145566652Y-144309703D01*
X145563005Y-144309679D01*
X144187172Y-144310025D01*
X144153679Y-144313318D01*
X144120028Y-144313574D01*
X144091678Y-144319413D01*
X144062865Y-144322245D01*
X144030642Y-144331982D01*
X143997689Y-144338769D01*
X143971016Y-144350001D01*
X143943299Y-144358377D01*
X143913584Y-144374186D01*
X143882573Y-144387245D01*
X143858588Y-144403445D01*
X143833028Y-144417044D01*
X143806949Y-144438325D01*
X143779066Y-144457158D01*
X143758683Y-144477710D01*
X143736253Y-144496013D01*
X143714809Y-144521947D01*
X143691109Y-144545844D01*
X143675105Y-144569966D01*
X143656659Y-144592275D01*
X143640657Y-144621888D01*
X143622055Y-144649926D01*
X143611042Y-144676693D01*
X143597279Y-144702163D01*
X143587337Y-144734310D01*
X143574530Y-144765437D01*
X143572013Y-144774011D01*
X141931327Y-150509619D01*
X141931309Y-150509680D01*
X141730336Y-151211595D01*
X141466136Y-152132265D01*
X141466135Y-152132272D01*
X141217741Y-152995533D01*
X141217722Y-152995598D01*
X140988605Y-153789508D01*
X140988588Y-153789566D01*
X140831272Y-154332786D01*
X140706006Y-153915204D01*
X140485360Y-153174044D01*
X140249384Y-152376439D01*
X140001954Y-151535560D01*
X139747678Y-150667061D01*
X139491086Y-149786329D01*
X139236528Y-148908144D01*
X138988201Y-148046761D01*
X138750315Y-147216473D01*
X138527608Y-146433410D01*
X138324321Y-145711978D01*
X138144548Y-145066046D01*
X138065288Y-144778993D01*
X138052125Y-144744766D01*
X138041771Y-144709586D01*
X138029760Y-144686611D01*
X138020453Y-144662411D01*
X138000890Y-144631389D01*
X137983902Y-144598894D01*
X137967657Y-144578688D01*
X137953827Y-144556758D01*
X137928617Y-144530132D01*
X137905636Y-144501549D01*
X137885773Y-144484882D01*
X137867950Y-144466058D01*
X137838046Y-144444835D01*
X137809952Y-144421261D01*
X137787230Y-144408769D01*
X137766090Y-144393766D01*
X137732638Y-144378757D01*
X137700496Y-144361087D01*
X137675780Y-144353247D01*
X137652128Y-144342635D01*
X137616391Y-144334408D01*
X137581436Y-144323320D01*
X137555670Y-144320430D01*
X137530407Y-144314614D01*
X137493762Y-144313485D01*
X137457309Y-144309396D01*
X137448373Y-144309334D01*
X136013020Y-144309334D01*
X136012871Y-144309349D01*
X136009417Y-144309344D01*
X135635180Y-144311451D01*
X135635150Y-144311451D01*
X135635034Y-144311452D01*
X135635025Y-144311453D01*
X135626242Y-144311562D01*
X135203359Y-144319754D01*
X135201397Y-144319985D01*
X135199423Y-144319842D01*
X135190492Y-144320133D01*
X134854350Y-144333412D01*
X134846740Y-144334463D01*
X134839059Y-144334199D01*
X134830145Y-144334828D01*
X134608272Y-144352029D01*
X134560129Y-144360547D01*
X134511654Y-144367010D01*
X134502969Y-144369110D01*
X134422894Y-144389067D01*
X134412530Y-144392757D01*
X134401716Y-144394733D01*
X134353777Y-144413672D01*
X134305221Y-144430957D01*
X134295779Y-144436584D01*
X134285546Y-144440627D01*
X134242174Y-144468532D01*
X134197926Y-144494904D01*
X134189758Y-144502257D01*
X134180504Y-144508211D01*
X134143398Y-144543991D01*
X134105094Y-144578473D01*
X134098503Y-144587282D01*
X134090590Y-144594912D01*
X134061142Y-144637215D01*
X134030264Y-144678483D01*
X134025513Y-144688396D01*
X134019228Y-144697425D01*
X133998555Y-144744648D01*
X133976283Y-144791122D01*
X133973547Y-144801775D01*
X133969137Y-144811848D01*
X133958030Y-144862184D01*
X133945209Y-144912101D01*
X133944594Y-144923078D01*
X133942224Y-144933820D01*
X133941107Y-144985349D01*
X133938225Y-145036812D01*
X131347893Y-145036812D01*
X130797640Y-144724568D01*
X130774948Y-144714478D01*
X130753610Y-144701791D01*
X130745494Y-144698052D01*
X130593787Y-144629446D01*
X130581869Y-144625404D01*
X130570716Y-144619552D01*
X130562413Y-144616251D01*
X130149714Y-144455459D01*
X130125044Y-144448531D01*
X130101333Y-144438804D01*
X130092756Y-144436295D01*
X129667603Y-144315151D01*
X129641919Y-144310481D01*
X129616937Y-144302921D01*
X129608160Y-144301241D01*
X129139317Y-144214879D01*
X129118632Y-144213129D01*
X129098344Y-144208695D01*
X129089462Y-144207711D01*
X128545692Y-144151261D01*
X128532472Y-144151186D01*
X128519418Y-144149079D01*
X128510496Y-144148586D01*
X127860560Y-144117181D01*
X127854129Y-144117499D01*
X127847731Y-144116689D01*
X127838797Y-144116500D01*
X127051459Y-144105272D01*
X127051425Y-144105275D01*
X127043003Y-144105207D01*
X126906443Y-144105064D01*
X126904119Y-144105289D01*
X126901794Y-144105076D01*
X126892858Y-144105194D01*
X125971080Y-144123799D01*
X125959265Y-144125199D01*
X125947378Y-144124717D01*
X125938461Y-144125291D01*
X125128620Y-144183056D01*
X125112024Y-144185887D01*
X125095185Y-144186324D01*
X125086325Y-144187489D01*
X124340566Y-144290810D01*
X124322455Y-144295154D01*
X124303921Y-144296976D01*
X124295168Y-144298776D01*
X123565629Y-144454045D01*
X123550366Y-144458891D01*
X123534551Y-144461474D01*
X123525931Y-144463829D01*
X122764755Y-144677442D01*
X122761162Y-144678841D01*
X122757365Y-144679563D01*
X122748809Y-144682141D01*
X122196794Y-144852641D01*
X122171861Y-144863104D01*
X122145918Y-144870739D01*
X122114406Y-144887213D01*
X122081618Y-144900972D01*
X122059189Y-144916080D01*
X122035226Y-144928608D01*
X122007511Y-144950891D01*
X121978022Y-144970755D01*
X121958960Y-144989927D01*
X121937881Y-145006874D01*
X121915023Y-145034115D01*
X121889953Y-145059329D01*
X121874974Y-145081844D01*
X121857593Y-145102558D01*
X121840462Y-145133720D01*
X121820767Y-145163323D01*
X121810448Y-145188314D01*
X121797419Y-145212014D01*
X121786667Y-145245911D01*
X121773097Y-145278775D01*
X121767828Y-145305300D01*
X121759652Y-145331074D01*
X121755688Y-145366412D01*
X121748760Y-145401287D01*
X121748743Y-145428322D01*
X121745728Y-145455201D01*
X121745666Y-145464137D01*
X121745666Y-146561402D01*
X121745674Y-146561487D01*
X121745668Y-146562836D01*
X121745844Y-146641378D01*
X121745864Y-146641573D01*
X121745844Y-146641779D01*
X121745933Y-146650715D01*
X121752640Y-147049182D01*
X121753209Y-147054122D01*
X121752883Y-147059090D01*
X121753234Y-147068019D01*
X121768220Y-147391617D01*
X121769945Y-147403514D01*
X121769777Y-147415534D01*
X121770587Y-147424434D01*
X121791878Y-147641679D01*
X121792190Y-147643255D01*
X121792198Y-147644858D01*
X121804304Y-147704453D01*
X121816133Y-147764207D01*
X121816744Y-147765690D01*
X121817064Y-147767264D01*
X121819749Y-147775787D01*
X121845373Y-147855199D01*
X121854172Y-147875451D01*
X121860346Y-147896661D01*
X121879011Y-147932622D01*
X121895146Y-147969760D01*
X121907709Y-147987915D01*
X121917887Y-148007524D01*
X121943180Y-148039173D01*
X121966223Y-148072471D01*
X121982080Y-148087846D01*
X121995867Y-148105098D01*
X122026813Y-148131221D01*
X122055896Y-148159422D01*
X122074435Y-148171423D01*
X122091312Y-148185670D01*
X122126759Y-148205294D01*
X122160750Y-148227297D01*
X122181260Y-148235466D01*
X122200590Y-148246167D01*
X122239176Y-148258533D01*
X122276791Y-148273514D01*
X122298498Y-148277544D01*
X122319537Y-148284286D01*
X122359781Y-148288920D01*
X122399599Y-148296312D01*
X122421684Y-148296049D01*
X122443624Y-148298575D01*
X122483998Y-148295305D01*
X122524496Y-148294822D01*
X122546102Y-148290275D01*
X122568122Y-148288492D01*
X122576905Y-148286843D01*
X122616169Y-148279189D01*
X122638564Y-148272500D01*
X122661616Y-148268597D01*
X122670222Y-148266192D01*
X122845539Y-148215890D01*
X122849313Y-148214395D01*
X122853292Y-148213612D01*
X122861831Y-148210979D01*
X123136973Y-148124054D01*
X123137066Y-148124014D01*
X123137171Y-148123992D01*
X123145672Y-148121238D01*
X123478248Y-148010916D01*
X123841620Y-147894554D01*
X124684871Y-147672083D01*
X125519159Y-147512650D01*
X126323016Y-147416505D01*
X127067033Y-147384697D01*
X127719184Y-147416403D01*
X128241995Y-147505836D01*
X128615418Y-147641318D01*
X128791112Y-147750376D01*
X128946046Y-147906015D01*
X129062566Y-148119321D01*
X129162922Y-148474844D01*
X129230698Y-148967515D01*
X128642354Y-148978853D01*
X128636645Y-148979524D01*
X128630905Y-148979176D01*
X128621977Y-148979570D01*
X127889069Y-149017075D01*
X127884223Y-149017802D01*
X127879321Y-149017648D01*
X127870408Y-149018304D01*
X127136669Y-149077387D01*
X127131659Y-149078289D01*
X127126566Y-149078281D01*
X127117678Y-149079201D01*
X126425629Y-149155748D01*
X126418495Y-149157253D01*
X126411206Y-149157509D01*
X126402357Y-149158755D01*
X125794522Y-149248649D01*
X125781321Y-149251944D01*
X125767767Y-149253187D01*
X125759003Y-149254930D01*
X125277901Y-149354056D01*
X125262956Y-149358694D01*
X125247489Y-149361099D01*
X125238851Y-149363388D01*
X124981224Y-149433564D01*
X124958968Y-149442035D01*
X124935840Y-149447756D01*
X124927437Y-149450798D01*
X124025291Y-149784428D01*
X123984474Y-149804244D01*
X123942639Y-149821850D01*
X123934811Y-149826159D01*
X123156487Y-150261589D01*
X123114075Y-150291093D01*
X123070666Y-150319161D01*
X123063710Y-150324772D01*
X122414687Y-150855736D01*
X122374168Y-150896095D01*
X122333004Y-150935759D01*
X122327252Y-150942598D01*
X121813006Y-151562832D01*
X121779064Y-151613035D01*
X121744876Y-151662956D01*
X121743132Y-151666182D01*
X121743046Y-151666308D01*
X121742985Y-151666452D01*
X121740625Y-151670816D01*
X121366634Y-152374056D01*
X121343450Y-152430292D01*
X121320029Y-152486249D01*
X121319084Y-152489395D01*
X121319027Y-152489534D01*
X121318997Y-152489687D01*
X121317459Y-152494808D01*
X121089200Y-153274788D01*
X121078485Y-153331430D01*
X121066917Y-153387901D01*
X121066049Y-153396795D01*
X121028511Y-153811131D01*
X121028498Y-153811259D01*
X120988998Y-154247254D01*
X120989308Y-154289137D01*
X120986914Y-154330957D01*
X119046333Y-154330957D01*
X119046333Y-140165775D01*
X120459080Y-140165775D01*
X120699226Y-140553018D01*
X121193127Y-140813641D01*
X121728383Y-140972901D01*
X122284424Y-141024678D01*
X122839882Y-140966981D01*
X123373411Y-140802028D01*
X123839274Y-140553018D01*
X124079420Y-140165775D01*
X122269250Y-138355605D01*
X120459080Y-140165775D01*
X119046333Y-140165775D01*
X119046333Y-139615334D01*
X119040456Y-139555396D01*
X119034997Y-139495410D01*
X119034363Y-139493255D01*
X119034144Y-139491024D01*
X119016759Y-139433443D01*
X118999731Y-139375586D01*
X118998690Y-139373594D01*
X118998042Y-139371449D01*
X118969757Y-139318252D01*
X118941862Y-139264894D01*
X118940459Y-139263149D01*
X118939403Y-139261163D01*
X118901328Y-139214480D01*
X118863596Y-139167549D01*
X118861874Y-139166104D01*
X118860458Y-139164368D01*
X118814129Y-139126041D01*
X118767912Y-139087261D01*
X118765942Y-139086178D01*
X118764216Y-139084750D01*
X118711324Y-139056151D01*
X118658456Y-139027087D01*
X118656313Y-139026407D01*
X118654343Y-139025342D01*
X118596828Y-139007538D01*
X118539396Y-138989320D01*
X118537168Y-138989070D01*
X118535023Y-138988406D01*
X118475156Y-138982114D01*
X118415269Y-138975396D01*
X118410954Y-138975366D01*
X118410801Y-138975350D01*
X118410648Y-138975364D01*
X118406333Y-138975334D01*
X115613323Y-138975334D01*
X115554403Y-138981111D01*
X115495369Y-138986297D01*
X115492244Y-138987206D01*
X115489013Y-138987523D01*
X115432375Y-139004623D01*
X115375435Y-139021188D01*
X115372547Y-139022686D01*
X115369438Y-139023625D01*
X115317103Y-139051451D01*
X115264563Y-139078710D01*
X115262029Y-139080734D01*
X115259152Y-139082264D01*
X115213231Y-139119717D01*
X115166973Y-139156670D01*
X115164873Y-139159157D01*
X115162357Y-139161209D01*
X115124665Y-139206771D01*
X115086385Y-139252102D01*
X115084807Y-139254951D01*
X115082739Y-139257451D01*
X115054610Y-139309474D01*
X115025869Y-139361369D01*
X115024875Y-139364468D01*
X115023331Y-139367324D01*
X115005819Y-139423895D01*
X114987729Y-139480310D01*
X114987357Y-139483537D01*
X114986395Y-139486644D01*
X114980207Y-139545521D01*
X114973416Y-139604393D01*
X114973352Y-139610742D01*
X114973339Y-139610866D01*
X114973350Y-139610983D01*
X114973326Y-139613329D01*
X114951664Y-146527445D01*
X114937498Y-151049152D01*
X112182090Y-146232809D01*
X108238665Y-139339859D01*
X108230709Y-139328653D01*
X108224553Y-139316374D01*
X108194620Y-139277821D01*
X108166356Y-139238011D01*
X108156379Y-139228567D01*
X108147952Y-139217714D01*
X108111087Y-139185699D01*
X108075641Y-139152148D01*
X108064020Y-139144822D01*
X108053645Y-139135812D01*
X108011279Y-139111575D01*
X107969978Y-139085539D01*
X107957151Y-139080608D01*
X107945227Y-139073787D01*
X107898963Y-139058242D01*
X107853388Y-139040724D01*
X107839845Y-139038378D01*
X107826826Y-139034004D01*
X107778414Y-139027739D01*
X107730314Y-139019408D01*
X107716585Y-139019737D01*
X107702953Y-139017973D01*
X107694020Y-139017759D01*
X104955204Y-138971231D01*
X104951995Y-138971491D01*
X104948801Y-138971155D01*
X104889795Y-138976525D01*
X104830705Y-138981307D01*
X104827613Y-138982183D01*
X104824409Y-138982475D01*
X104767487Y-138999228D01*
X104710534Y-139015373D01*
X104707674Y-139016832D01*
X104704585Y-139017741D01*
X104652060Y-139045201D01*
X104599268Y-139072130D01*
X104596739Y-139074122D01*
X104593893Y-139075610D01*
X104547715Y-139112737D01*
X104501146Y-139149419D01*
X104499057Y-139151859D01*
X104496548Y-139153876D01*
X104458401Y-139199338D01*
X104419905Y-139244295D01*
X104418330Y-139247093D01*
X104416260Y-139249560D01*
X104387665Y-139301574D01*
X104358639Y-139353143D01*
X104357637Y-139356194D01*
X104356086Y-139359016D01*
X104338162Y-139415520D01*
X104319681Y-139471819D01*
X104319290Y-139475014D01*
X104318319Y-139478076D01*
X104311713Y-139536967D01*
X104304517Y-139595801D01*
X104304754Y-139599005D01*
X104304395Y-139602203D01*
X104304333Y-139611139D01*
X62804944Y-139611139D01*
X62994391Y-139252123D01*
X63153651Y-138716867D01*
X63202602Y-138191174D01*
X119420572Y-138191174D01*
X119478269Y-138746632D01*
X119643222Y-139280161D01*
X119892232Y-139746024D01*
X120279475Y-139986170D01*
X122089645Y-138176000D01*
X122448855Y-138176000D01*
X124259025Y-139986170D01*
X124646268Y-139746024D01*
X124723417Y-139599820D01*
X149262333Y-139599820D01*
X149262333Y-158157334D01*
X149268210Y-158217272D01*
X149273669Y-158277258D01*
X149274303Y-158279413D01*
X149274522Y-158281644D01*
X149291907Y-158339225D01*
X149308935Y-158397082D01*
X149309976Y-158399074D01*
X149310624Y-158401219D01*
X149338909Y-158454416D01*
X149366804Y-158507774D01*
X149368207Y-158509519D01*
X149369263Y-158511505D01*
X149407338Y-158558188D01*
X149445070Y-158605119D01*
X149446792Y-158606564D01*
X149448208Y-158608300D01*
X149494537Y-158646627D01*
X149540754Y-158685407D01*
X149542724Y-158686490D01*
X149544450Y-158687918D01*
X149597342Y-158716517D01*
X149650210Y-158745581D01*
X149652353Y-158746261D01*
X149654323Y-158747326D01*
X149711838Y-158765130D01*
X149769270Y-158783348D01*
X149771498Y-158783598D01*
X149773643Y-158784262D01*
X149833510Y-158790554D01*
X149893397Y-158797272D01*
X149897712Y-158797302D01*
X149897865Y-158797318D01*
X149898018Y-158797304D01*
X149902333Y-158797334D01*
X152696333Y-158797334D01*
X152756271Y-158791457D01*
X152816257Y-158785998D01*
X152818412Y-158785364D01*
X152820643Y-158785145D01*
X152878224Y-158767760D01*
X152936081Y-158750732D01*
X152938073Y-158749691D01*
X152940218Y-158749043D01*
X152993415Y-158720758D01*
X153046773Y-158692863D01*
X153048518Y-158691460D01*
X153050504Y-158690404D01*
X153097187Y-158652329D01*
X153144118Y-158614597D01*
X153145563Y-158612875D01*
X153147299Y-158611459D01*
X153185626Y-158565130D01*
X153224406Y-158518913D01*
X153225489Y-158516943D01*
X153226917Y-158515217D01*
X153255516Y-158462325D01*
X153284580Y-158409457D01*
X153285260Y-158407314D01*
X153286325Y-158405344D01*
X153304129Y-158347829D01*
X153322347Y-158290397D01*
X153322597Y-158288169D01*
X153323261Y-158286024D01*
X153329553Y-158226157D01*
X153336271Y-158166270D01*
X153336301Y-158161955D01*
X153336317Y-158161802D01*
X153336303Y-158161649D01*
X153336333Y-158157334D01*
X153336333Y-151865252D01*
X154808041Y-151827969D01*
X154808061Y-151827967D01*
X154808357Y-151827961D01*
X154888813Y-151825883D01*
X154888969Y-151825864D01*
X154893761Y-151825736D01*
X155778440Y-151796037D01*
X155780708Y-151795738D01*
X155782992Y-151795868D01*
X155791918Y-151795442D01*
X156536418Y-151754723D01*
X156542381Y-151753807D01*
X156548412Y-151753954D01*
X156557320Y-151753236D01*
X157188421Y-151697948D01*
X157198727Y-151696018D01*
X157209215Y-151695784D01*
X157218080Y-151694652D01*
X157762565Y-151621244D01*
X157776853Y-151617872D01*
X157791478Y-151616670D01*
X157800259Y-151615011D01*
X158284912Y-151519933D01*
X158301088Y-151515080D01*
X158317798Y-151512578D01*
X158326449Y-151510338D01*
X158778050Y-151390037D01*
X158792687Y-151384560D01*
X158807967Y-151381282D01*
X158816461Y-151378505D01*
X159261792Y-151229435D01*
X159265809Y-151227637D01*
X159270088Y-151226595D01*
X159278501Y-151223583D01*
X159285144Y-151221153D01*
X159299760Y-151214121D01*
X159315247Y-151209271D01*
X159323449Y-151205723D01*
X159943454Y-150932396D01*
X159970161Y-150917353D01*
X159998242Y-150905042D01*
X160006006Y-150900618D01*
X160610343Y-150550658D01*
X160634502Y-150533314D01*
X160660303Y-150518542D01*
X160667551Y-150513316D01*
X161205488Y-150119702D01*
X161234055Y-150094166D01*
X161264470Y-150070868D01*
X161270957Y-150064722D01*
X161691767Y-149660436D01*
X161715097Y-149633166D01*
X161740625Y-149607924D01*
X161746287Y-149601011D01*
X161866966Y-149451573D01*
X161881776Y-149429047D01*
X161898998Y-149408304D01*
X161903956Y-149400870D01*
X162227583Y-148908227D01*
X162240781Y-148883090D01*
X162256587Y-148859501D01*
X162260758Y-148851598D01*
X162560502Y-148273915D01*
X162569562Y-148251291D01*
X162581253Y-148229907D01*
X162584696Y-148221661D01*
X162831141Y-147619771D01*
X162839658Y-147591323D01*
X162851053Y-147563886D01*
X162853598Y-147555320D01*
X163017326Y-146990057D01*
X163022892Y-146960183D01*
X163031430Y-146931018D01*
X163033030Y-146922226D01*
X163086341Y-146617316D01*
X163087745Y-146598720D01*
X163091684Y-146580478D01*
X163092646Y-146571594D01*
X163152037Y-145985336D01*
X163152088Y-145969519D01*
X163154443Y-145953872D01*
X163154842Y-145944945D01*
X163179103Y-145301500D01*
X163178322Y-145288508D01*
X163179555Y-145275550D01*
X163179466Y-145266614D01*
X163168610Y-144621696D01*
X163166892Y-144606766D01*
X163167404Y-144591739D01*
X163166773Y-144582825D01*
X163120817Y-143992144D01*
X163116601Y-143968351D01*
X163115265Y-143944220D01*
X163113840Y-143935398D01*
X163032799Y-143454667D01*
X163020563Y-143409534D01*
X163010559Y-143363835D01*
X163007746Y-143355353D01*
X162752404Y-142603064D01*
X162729792Y-142553097D01*
X162708381Y-142502605D01*
X162704051Y-142494788D01*
X162288424Y-141756553D01*
X162256640Y-141711127D01*
X162225876Y-141665026D01*
X162220165Y-141658152D01*
X161669939Y-141005121D01*
X161631968Y-140968088D01*
X161595116Y-140929956D01*
X161588268Y-140924214D01*
X160915090Y-140367755D01*
X160873349Y-140339624D01*
X160832717Y-140309931D01*
X160824990Y-140305442D01*
X160040509Y-139856923D01*
X159997046Y-139837428D01*
X159954527Y-139815928D01*
X159946174Y-139812752D01*
X159062038Y-139483544D01*
X159040426Y-139477825D01*
X159019707Y-139469442D01*
X159011118Y-139466975D01*
X158742967Y-139391967D01*
X158740865Y-139391595D01*
X158738866Y-139390834D01*
X158730228Y-139388545D01*
X158414874Y-139307302D01*
X158407822Y-139306204D01*
X158401057Y-139303905D01*
X158392342Y-139301930D01*
X158087100Y-139234970D01*
X158077140Y-139233787D01*
X158067498Y-139230989D01*
X158058702Y-139229410D01*
X157743636Y-139175090D01*
X157733462Y-139174346D01*
X157723541Y-139171953D01*
X157714682Y-139170777D01*
X157369852Y-139127452D01*
X157361790Y-139127232D01*
X157353877Y-139125648D01*
X157344979Y-139124820D01*
X156950447Y-139090845D01*
X156945500Y-139090904D01*
X156940616Y-139090074D01*
X156931698Y-139089507D01*
X156467524Y-139063239D01*
X156465565Y-139063320D01*
X156463631Y-139063031D01*
X156454703Y-139062643D01*
X155901777Y-139042466D01*
X155901776Y-139042466D01*
X155901758Y-139042465D01*
X155900951Y-139042436D01*
X155900901Y-139042439D01*
X155892844Y-139042191D01*
X155229575Y-139026401D01*
X155229416Y-139026413D01*
X155224850Y-139026306D01*
X154432125Y-139013290D01*
X154432000Y-139013300D01*
X154429694Y-139013255D01*
X153487576Y-139001366D01*
X153487536Y-139001369D01*
X153486924Y-139001358D01*
X149909756Y-138959863D01*
X149908275Y-138959991D01*
X149906801Y-138959836D01*
X149846117Y-138965358D01*
X149785313Y-138970609D01*
X149783887Y-138971021D01*
X149782409Y-138971156D01*
X149723822Y-138988399D01*
X149665328Y-139005322D01*
X149664013Y-139006002D01*
X149662585Y-139006422D01*
X149608534Y-139034679D01*
X149554369Y-139062678D01*
X149553205Y-139063605D01*
X149551893Y-139064291D01*
X149504338Y-139102525D01*
X149456665Y-139140495D01*
X149455709Y-139141623D01*
X149454548Y-139142557D01*
X149415245Y-139189397D01*
X149375936Y-139235807D01*
X149375217Y-139237100D01*
X149374260Y-139238241D01*
X149344820Y-139291792D01*
X149315257Y-139344983D01*
X149314802Y-139346394D01*
X149314086Y-139347697D01*
X149295645Y-139405834D01*
X149276940Y-139463867D01*
X149276768Y-139465343D01*
X149276319Y-139466757D01*
X149269513Y-139527433D01*
X149262444Y-139587929D01*
X149262561Y-139589404D01*
X149262395Y-139590884D01*
X149262333Y-139599820D01*
X124723417Y-139599820D01*
X124906891Y-139252123D01*
X125066151Y-138716867D01*
X125115102Y-138191174D01*
X200383072Y-138191174D01*
X200440769Y-138746632D01*
X200605722Y-139280161D01*
X200854732Y-139746024D01*
X201241975Y-139986170D01*
X203052145Y-138176000D01*
X201241975Y-136365830D01*
X200854732Y-136605976D01*
X200594109Y-137099877D01*
X200434849Y-137635133D01*
X200383072Y-138191174D01*
X125115102Y-138191174D01*
X125117928Y-138160826D01*
X125060231Y-137605368D01*
X124895278Y-137071839D01*
X124646268Y-136605976D01*
X124259025Y-136365830D01*
X122448855Y-138176000D01*
X122089645Y-138176000D01*
X120279475Y-136365830D01*
X119892232Y-136605976D01*
X119631609Y-137099877D01*
X119472349Y-137635133D01*
X119420572Y-138191174D01*
X63202602Y-138191174D01*
X63205428Y-138160826D01*
X63147731Y-137605368D01*
X62982778Y-137071839D01*
X62733768Y-136605976D01*
X62346525Y-136365830D01*
X60536355Y-138176000D01*
X60177145Y-138176000D01*
X60163003Y-138161858D01*
X60342608Y-137982253D01*
X60356750Y-137996395D01*
X62166920Y-136186225D01*
X120459080Y-136186225D01*
X122269250Y-137996395D01*
X124079420Y-136186225D01*
X123839274Y-135798982D01*
X123345373Y-135538359D01*
X122810117Y-135379099D01*
X122254076Y-135327322D01*
X121698618Y-135385019D01*
X121165089Y-135549972D01*
X120699226Y-135798982D01*
X120459080Y-136186225D01*
X62166920Y-136186225D01*
X61926774Y-135798982D01*
X61432873Y-135538359D01*
X60897617Y-135379099D01*
X60341576Y-135327322D01*
X59786118Y-135385019D01*
X59252589Y-135549972D01*
X58786726Y-135798982D01*
X58546581Y-136186223D01*
X58476750Y-136116392D01*
X58476750Y-83085608D01*
X58546581Y-83015777D01*
X58786726Y-83403018D01*
X59280627Y-83663641D01*
X59815883Y-83822901D01*
X60371924Y-83874678D01*
X60927382Y-83816981D01*
X61460911Y-83652028D01*
X61926774Y-83403018D01*
X62166920Y-83015775D01*
X60356750Y-81205605D01*
X60342608Y-81219748D01*
X60163003Y-81040143D01*
X60177145Y-81026000D01*
X60536355Y-81026000D01*
X62346525Y-82836170D01*
X62733768Y-82596024D01*
X62994391Y-82102123D01*
X63153651Y-81566867D01*
X63202602Y-81041174D01*
X200383072Y-81041174D01*
X200440769Y-81596632D01*
X200605722Y-82130161D01*
X200854732Y-82596024D01*
X201241975Y-82836170D01*
X203052145Y-81026000D01*
X201241975Y-79215830D01*
X200854732Y-79455976D01*
X200594109Y-79949877D01*
X200434849Y-80485133D01*
X200383072Y-81041174D01*
X63202602Y-81041174D01*
X63205428Y-81010826D01*
X63147731Y-80455368D01*
X62982778Y-79921839D01*
X62733768Y-79455976D01*
X62346525Y-79215830D01*
X60536355Y-81026000D01*
X60177145Y-81026000D01*
X60163003Y-81011858D01*
X60342608Y-80832253D01*
X60356750Y-80846395D01*
X62166920Y-79036225D01*
X61926774Y-78648982D01*
X61432873Y-78388359D01*
X60897617Y-78229099D01*
X60341576Y-78177322D01*
X59786118Y-78235019D01*
X59252589Y-78399972D01*
X58786726Y-78648982D01*
X58546581Y-79036223D01*
X58476750Y-78966392D01*
X58476750Y-63965775D01*
X120459080Y-63965775D01*
X120699226Y-64353018D01*
X121193127Y-64613641D01*
X121728383Y-64772901D01*
X122284424Y-64824678D01*
X122839882Y-64766981D01*
X123373411Y-64602028D01*
X123839274Y-64353018D01*
X124079420Y-63965775D01*
X122269250Y-62155605D01*
X120459080Y-63965775D01*
X58476750Y-63965775D01*
X58476750Y-61991174D01*
X119420572Y-61991174D01*
X119478269Y-62546632D01*
X119643222Y-63080161D01*
X119892232Y-63546024D01*
X120279475Y-63786170D01*
X122089645Y-61976000D01*
X122448855Y-61976000D01*
X124259025Y-63786170D01*
X124646268Y-63546024D01*
X124906891Y-63052123D01*
X125066151Y-62516867D01*
X125117928Y-61960826D01*
X125060231Y-61405368D01*
X124895278Y-60871839D01*
X124646268Y-60405976D01*
X124259025Y-60165830D01*
X122448855Y-61976000D01*
X122089645Y-61976000D01*
X120279475Y-60165830D01*
X119892232Y-60405976D01*
X119631609Y-60899877D01*
X119472349Y-61435133D01*
X119420572Y-61991174D01*
X58476750Y-61991174D01*
X58476750Y-59986225D01*
X120459080Y-59986225D01*
X122269250Y-61796395D01*
X124079420Y-59986225D01*
X123839274Y-59598982D01*
X123345373Y-59338359D01*
X122810117Y-59179099D01*
X122254076Y-59127322D01*
X121698618Y-59185019D01*
X121165089Y-59349972D01*
X120699226Y-59598982D01*
X120459080Y-59986225D01*
X58476750Y-59986225D01*
X58476750Y-33015858D01*
X58514831Y-32977777D01*
X58754976Y-33365018D01*
X59248877Y-33625641D01*
X59784133Y-33784901D01*
X60340174Y-33836678D01*
X60895632Y-33778981D01*
X61429161Y-33614028D01*
X61895024Y-33365018D01*
X62135170Y-32977775D01*
X115696580Y-32977775D01*
X115936726Y-33365018D01*
X116430627Y-33625641D01*
X116965883Y-33784901D01*
X117521924Y-33836678D01*
X118077382Y-33778981D01*
X118610911Y-33614028D01*
X119076774Y-33365018D01*
X119297230Y-33009525D01*
X131412830Y-33009525D01*
X131652976Y-33396768D01*
X132146877Y-33657391D01*
X132682133Y-33816651D01*
X133238174Y-33868428D01*
X133793632Y-33810731D01*
X134327161Y-33645778D01*
X134793024Y-33396768D01*
X135033170Y-33009525D01*
X135001420Y-32977775D01*
X153796580Y-32977775D01*
X154036726Y-33365018D01*
X154530627Y-33625641D01*
X155065883Y-33784901D01*
X155621924Y-33836678D01*
X156177382Y-33778981D01*
X156710911Y-33614028D01*
X157176774Y-33365018D01*
X157416920Y-32977775D01*
X155606750Y-31167605D01*
X153796580Y-32977775D01*
X135001420Y-32977775D01*
X133223000Y-31199355D01*
X131412830Y-33009525D01*
X119297230Y-33009525D01*
X119316920Y-32977775D01*
X117506750Y-31167605D01*
X115696580Y-32977775D01*
X62135170Y-32977775D01*
X60325000Y-31167605D01*
X60310858Y-31181748D01*
X60131253Y-31002143D01*
X60145395Y-30988000D01*
X60131253Y-30973858D01*
X60310858Y-30794253D01*
X60325000Y-30808395D01*
X60339143Y-30794253D01*
X60518748Y-30973858D01*
X60504605Y-30988000D01*
X62314775Y-32798170D01*
X62702018Y-32558024D01*
X62962641Y-32064123D01*
X63121901Y-31528867D01*
X63173678Y-30972826D01*
X63115981Y-30417368D01*
X62951028Y-29883839D01*
X62702018Y-29417976D01*
X62314777Y-29177831D01*
X62352858Y-29139750D01*
X115478892Y-29139750D01*
X115516973Y-29177831D01*
G36*
X184338300Y-147460102D02*
G01*
X184891608Y-147654839D01*
X185393282Y-147959558D01*
X185819182Y-148360409D01*
X186169313Y-148874378D01*
X186304000Y-149129544D01*
X186304000Y-153977123D01*
X186166007Y-154238553D01*
X185896599Y-154653432D01*
X185476946Y-155082400D01*
X184977694Y-155410026D01*
X184390895Y-155633832D01*
X184213888Y-155674022D01*
X183588369Y-155731348D01*
X183053016Y-155662119D01*
X182581462Y-155480015D01*
X182163972Y-155185941D01*
X181797646Y-154771341D01*
X181490369Y-154226707D01*
X181250582Y-153529519D01*
X181227867Y-153434743D01*
X181113714Y-152755463D01*
X181051573Y-151992904D01*
X181045050Y-151205071D01*
X181097869Y-150448564D01*
X181104088Y-150396836D01*
X181255452Y-149537290D01*
X181467727Y-148858236D01*
X181735213Y-148339347D01*
X182052434Y-147959192D01*
X182430554Y-147685859D01*
X182900103Y-147497538D01*
X183497277Y-147392777D01*
X183737904Y-147384250D01*
X184338300Y-147460102D01*
X184338300Y-147460102D01*
G37*
X184338300Y-147460102D02*
X184891608Y-147654839D01*
X185393282Y-147959558D01*
X185819182Y-148360409D01*
X186169313Y-148874378D01*
X186304000Y-149129544D01*
X186304000Y-153977123D01*
X186166007Y-154238553D01*
X185896599Y-154653432D01*
X185476946Y-155082400D01*
X184977694Y-155410026D01*
X184390895Y-155633832D01*
X184213888Y-155674022D01*
X183588369Y-155731348D01*
X183053016Y-155662119D01*
X182581462Y-155480015D01*
X182163972Y-155185941D01*
X181797646Y-154771341D01*
X181490369Y-154226707D01*
X181250582Y-153529519D01*
X181227867Y-153434743D01*
X181113714Y-152755463D01*
X181051573Y-151992904D01*
X181045050Y-151205071D01*
X181097869Y-150448564D01*
X181104088Y-150396836D01*
X181255452Y-149537290D01*
X181467727Y-148858236D01*
X181735213Y-148339347D01*
X182052434Y-147959192D01*
X182430554Y-147685859D01*
X182900103Y-147497538D01*
X183497277Y-147392777D01*
X183737904Y-147384250D01*
X184338300Y-147460102D01*
G36*
X129217595Y-152295529D02*
G01*
X129212802Y-152431206D01*
X129187768Y-152826637D01*
X129151828Y-153178377D01*
X129117115Y-153393112D01*
X128977636Y-153826816D01*
X128706407Y-154331845D01*
X128348985Y-154777832D01*
X127937306Y-155130347D01*
X127490204Y-155370801D01*
X127332385Y-155420775D01*
X126964571Y-155495099D01*
X126551577Y-155540976D01*
X126154945Y-155553184D01*
X125852974Y-155532466D01*
X125708537Y-155495850D01*
X125478327Y-155323652D01*
X125249943Y-155086535D01*
X125105580Y-154874972D01*
X125072498Y-154777950D01*
X125022527Y-154519802D01*
X124988313Y-154191307D01*
X124988274Y-154190636D01*
X124977572Y-153882874D01*
X124989756Y-153727028D01*
X125023344Y-153607638D01*
X125108740Y-153417166D01*
X125236722Y-153196443D01*
X125492255Y-152904284D01*
X125825519Y-152669043D01*
X126281839Y-152472275D01*
X126886554Y-152320107D01*
X127651697Y-152219817D01*
X128592064Y-152173919D01*
X129221122Y-152162762D01*
X129217595Y-152295529D01*
X129217595Y-152295529D01*
G37*
X129217595Y-152295529D02*
X129212802Y-152431206D01*
X129187768Y-152826637D01*
X129151828Y-153178377D01*
X129117115Y-153393112D01*
X128977636Y-153826816D01*
X128706407Y-154331845D01*
X128348985Y-154777832D01*
X127937306Y-155130347D01*
X127490204Y-155370801D01*
X127332385Y-155420775D01*
X126964571Y-155495099D01*
X126551577Y-155540976D01*
X126154945Y-155553184D01*
X125852974Y-155532466D01*
X125708537Y-155495850D01*
X125478327Y-155323652D01*
X125249943Y-155086535D01*
X125105580Y-154874972D01*
X125072498Y-154777950D01*
X125022527Y-154519802D01*
X124988313Y-154191307D01*
X124988274Y-154190636D01*
X124977572Y-153882874D01*
X124989756Y-153727028D01*
X125023344Y-153607638D01*
X125108740Y-153417166D01*
X125236722Y-153196443D01*
X125492255Y-152904284D01*
X125825519Y-152669043D01*
X126281839Y-152472275D01*
X126886554Y-152320107D01*
X127651697Y-152219817D01*
X128592064Y-152173919D01*
X129221122Y-152162762D01*
X129217595Y-152295529D01*
G36*
X154516722Y-142484582D02*
G01*
X155231239Y-142510684D01*
X155886972Y-142548651D01*
X156413529Y-142598915D01*
X156836960Y-142663877D01*
X157187421Y-142745822D01*
X157500965Y-142849433D01*
X157797163Y-142975673D01*
X158240012Y-143232568D01*
X158611305Y-143573146D01*
X158877367Y-143984060D01*
X159057609Y-144503551D01*
X159148093Y-145167183D01*
X159150726Y-145612705D01*
X159060406Y-146263113D01*
X158867866Y-146790370D01*
X158575699Y-147225516D01*
X158170599Y-147591188D01*
X157630023Y-147895268D01*
X156937857Y-148131223D01*
X156077002Y-148290793D01*
X155988468Y-148300371D01*
X155608446Y-148328732D01*
X155126889Y-148352002D01*
X154597242Y-148367627D01*
X154070952Y-148373334D01*
X153336333Y-148373334D01*
X153336333Y-142449315D01*
X154516722Y-142484582D01*
X154516722Y-142484582D01*
G37*
X154516722Y-142484582D02*
X155231239Y-142510684D01*
X155886972Y-142548651D01*
X156413529Y-142598915D01*
X156836960Y-142663877D01*
X157187421Y-142745822D01*
X157500965Y-142849433D01*
X157797163Y-142975673D01*
X158240012Y-143232568D01*
X158611305Y-143573146D01*
X158877367Y-143984060D01*
X159057609Y-144503551D01*
X159148093Y-145167183D01*
X159150726Y-145612705D01*
X159060406Y-146263113D01*
X158867866Y-146790370D01*
X158575699Y-147225516D01*
X158170599Y-147591188D01*
X157630023Y-147895268D01*
X156937857Y-148131223D01*
X156077002Y-148290793D01*
X155988468Y-148300371D01*
X155608446Y-148328732D01*
X155126889Y-148352002D01*
X154597242Y-148367627D01*
X154070952Y-148373334D01*
X153336333Y-148373334D01*
X153336333Y-142449315D01*
X154516722Y-142484582D01*
G36*
X171635595Y-152295529D02*
G01*
X171630802Y-152431206D01*
X171605768Y-152826637D01*
X171569828Y-153178377D01*
X171535115Y-153393112D01*
X171395636Y-153826816D01*
X171124407Y-154331845D01*
X170766985Y-154777832D01*
X170355306Y-155130347D01*
X169908204Y-155370801D01*
X169750385Y-155420775D01*
X169382571Y-155495099D01*
X168969577Y-155540976D01*
X168572945Y-155553184D01*
X168270974Y-155532466D01*
X168126537Y-155495850D01*
X167896327Y-155323652D01*
X167667943Y-155086535D01*
X167523580Y-154874972D01*
X167490498Y-154777950D01*
X167440527Y-154519802D01*
X167406313Y-154191307D01*
X167406274Y-154190636D01*
X167395572Y-153882874D01*
X167407756Y-153727028D01*
X167441344Y-153607638D01*
X167526740Y-153417166D01*
X167654722Y-153196443D01*
X167910255Y-152904284D01*
X168243519Y-152669043D01*
X168699839Y-152472275D01*
X169304554Y-152320107D01*
X170069697Y-152219817D01*
X171010064Y-152173919D01*
X171639122Y-152162762D01*
X171635595Y-152295529D01*
X171635595Y-152295529D01*
G37*
X171635595Y-152295529D02*
X171630802Y-152431206D01*
X171605768Y-152826637D01*
X171569828Y-153178377D01*
X171535115Y-153393112D01*
X171395636Y-153826816D01*
X171124407Y-154331845D01*
X170766985Y-154777832D01*
X170355306Y-155130347D01*
X169908204Y-155370801D01*
X169750385Y-155420775D01*
X169382571Y-155495099D01*
X168969577Y-155540976D01*
X168572945Y-155553184D01*
X168270974Y-155532466D01*
X168126537Y-155495850D01*
X167896327Y-155323652D01*
X167667943Y-155086535D01*
X167523580Y-154874972D01*
X167490498Y-154777950D01*
X167440527Y-154519802D01*
X167406313Y-154191307D01*
X167406274Y-154190636D01*
X167395572Y-153882874D01*
X167407756Y-153727028D01*
X167441344Y-153607638D01*
X167526740Y-153417166D01*
X167654722Y-153196443D01*
X167910255Y-152904284D01*
X168243519Y-152669043D01*
X168699839Y-152472275D01*
X169304554Y-152320107D01*
X170069697Y-152219817D01*
X171010064Y-152173919D01*
X171639122Y-152162762D01*
X171635595Y-152295529D01*
M02*
