G04 #@! TF.GenerationSoftware,KiCad,Pcbnew,5.1.4*
G04 #@! TF.CreationDate,2019-11-02T22:35:18+09:00*
G04 #@! TF.ProjectId,Navpad_bottom-32u4,4e617670-6164-45f6-926f-74746f6d2d33,rev?*
G04 #@! TF.SameCoordinates,Original*
G04 #@! TF.FileFunction,Copper,L2,Bot*
G04 #@! TF.FilePolarity,Positive*
%FSLAX46Y46*%
G04 Gerber Fmt 4.6, Leading zero omitted, Abs format (unit mm)*
G04 Created by KiCad (PCBNEW 5.1.4) date 2019-11-02 22:35:18*
%MOMM*%
%LPD*%
G04 APERTURE LIST*
%ADD10C,0.010000*%
%ADD11C,4.400000*%
%ADD12C,0.600000*%
%ADD13C,0.254000*%
G04 APERTURE END LIST*
D10*
G36*
X108394500Y-139641315D02*
G01*
X107452382Y-139653204D01*
X106659657Y-139666220D01*
X105996388Y-139682010D01*
X105442636Y-139702217D01*
X104978463Y-139728485D01*
X104583931Y-139762460D01*
X104239101Y-139805785D01*
X103924034Y-139860105D01*
X103618792Y-139927065D01*
X103303438Y-140008308D01*
X103035287Y-140083316D01*
X102151150Y-140412524D01*
X101366669Y-140861043D01*
X100693491Y-141417502D01*
X100143265Y-142070533D01*
X99727638Y-142808767D01*
X99472296Y-143561056D01*
X99391255Y-144041787D01*
X99345299Y-144632468D01*
X99334443Y-145277386D01*
X99358704Y-145920831D01*
X99418095Y-146507089D01*
X99471406Y-146812000D01*
X99635134Y-147377263D01*
X99881579Y-147979153D01*
X100181323Y-148556836D01*
X100504950Y-149049479D01*
X100625629Y-149198917D01*
X101046439Y-149603203D01*
X101584376Y-149996817D01*
X102188713Y-150346777D01*
X102808719Y-150620104D01*
X102815362Y-150622534D01*
X103260693Y-150771604D01*
X103712293Y-150891904D01*
X104196946Y-150986982D01*
X104741432Y-151060390D01*
X105372534Y-151115678D01*
X106117033Y-151156397D01*
X107001712Y-151186096D01*
X107082167Y-151188174D01*
X109177667Y-151241260D01*
X109177667Y-158157334D01*
X111971667Y-158157334D01*
X111971667Y-149013334D01*
X109177667Y-149013334D01*
X107799613Y-149013334D01*
X107263813Y-149007524D01*
X106722249Y-148991547D01*
X106226287Y-148967581D01*
X105827294Y-148937804D01*
X105704113Y-148924478D01*
X104773716Y-148752018D01*
X103981630Y-148482000D01*
X103327487Y-148114038D01*
X102810920Y-147647748D01*
X102431563Y-147082743D01*
X102189050Y-146418638D01*
X102083012Y-145655047D01*
X102086164Y-145121870D01*
X102190866Y-144353959D01*
X102417358Y-143701167D01*
X102769875Y-143156731D01*
X103252653Y-142713890D01*
X103789717Y-142402341D01*
X104146768Y-142250165D01*
X104512967Y-142129154D01*
X104915478Y-142035038D01*
X105381469Y-141963547D01*
X105938106Y-141910412D01*
X106612556Y-141871361D01*
X107336167Y-141844927D01*
X109177667Y-141789908D01*
X109177667Y-149013334D01*
X111971667Y-149013334D01*
X111971667Y-139599820D01*
X108394500Y-139641315D01*
X108394500Y-139641315D01*
G37*
X108394500Y-139641315D02*
X107452382Y-139653204D01*
X106659657Y-139666220D01*
X105996388Y-139682010D01*
X105442636Y-139702217D01*
X104978463Y-139728485D01*
X104583931Y-139762460D01*
X104239101Y-139805785D01*
X103924034Y-139860105D01*
X103618792Y-139927065D01*
X103303438Y-140008308D01*
X103035287Y-140083316D01*
X102151150Y-140412524D01*
X101366669Y-140861043D01*
X100693491Y-141417502D01*
X100143265Y-142070533D01*
X99727638Y-142808767D01*
X99472296Y-143561056D01*
X99391255Y-144041787D01*
X99345299Y-144632468D01*
X99334443Y-145277386D01*
X99358704Y-145920831D01*
X99418095Y-146507089D01*
X99471406Y-146812000D01*
X99635134Y-147377263D01*
X99881579Y-147979153D01*
X100181323Y-148556836D01*
X100504950Y-149049479D01*
X100625629Y-149198917D01*
X101046439Y-149603203D01*
X101584376Y-149996817D01*
X102188713Y-150346777D01*
X102808719Y-150620104D01*
X102815362Y-150622534D01*
X103260693Y-150771604D01*
X103712293Y-150891904D01*
X104196946Y-150986982D01*
X104741432Y-151060390D01*
X105372534Y-151115678D01*
X106117033Y-151156397D01*
X107001712Y-151186096D01*
X107082167Y-151188174D01*
X109177667Y-151241260D01*
X109177667Y-158157334D01*
X111971667Y-158157334D01*
X111971667Y-149013334D01*
X109177667Y-149013334D01*
X107799613Y-149013334D01*
X107263813Y-149007524D01*
X106722249Y-148991547D01*
X106226287Y-148967581D01*
X105827294Y-148937804D01*
X105704113Y-148924478D01*
X104773716Y-148752018D01*
X103981630Y-148482000D01*
X103327487Y-148114038D01*
X102810920Y-147647748D01*
X102431563Y-147082743D01*
X102189050Y-146418638D01*
X102083012Y-145655047D01*
X102086164Y-145121870D01*
X102190866Y-144353959D01*
X102417358Y-143701167D01*
X102769875Y-143156731D01*
X103252653Y-142713890D01*
X103789717Y-142402341D01*
X104146768Y-142250165D01*
X104512967Y-142129154D01*
X104915478Y-142035038D01*
X105381469Y-141963547D01*
X105938106Y-141910412D01*
X106612556Y-141871361D01*
X107336167Y-141844927D01*
X109177667Y-141789908D01*
X109177667Y-149013334D01*
X111971667Y-149013334D01*
X111971667Y-139599820D01*
X108394500Y-139641315D01*
G36*
X124346152Y-145237165D02*
G01*
X124165987Y-145884504D01*
X123962168Y-146607824D01*
X123739046Y-147392347D01*
X123500971Y-148223294D01*
X123252295Y-149085886D01*
X122997368Y-149965344D01*
X122740539Y-150846889D01*
X122486159Y-151715744D01*
X122238580Y-152557129D01*
X122002151Y-153356265D01*
X121781222Y-154098374D01*
X121580145Y-154768676D01*
X121403269Y-155352394D01*
X121254945Y-155834749D01*
X121139524Y-156200961D01*
X121061355Y-156436252D01*
X121024790Y-156525844D01*
X121023119Y-156525724D01*
X120991234Y-156428876D01*
X120916789Y-156182488D01*
X120803647Y-155799861D01*
X120655671Y-155294300D01*
X120476725Y-154679110D01*
X120270671Y-153967594D01*
X120041372Y-153173055D01*
X119792692Y-152308798D01*
X119528492Y-151388127D01*
X119327414Y-150685846D01*
X117686667Y-144950025D01*
X116310834Y-144949679D01*
X115770386Y-144952755D01*
X115381097Y-144963221D01*
X115124899Y-144982468D01*
X114983725Y-145011885D01*
X114939506Y-145052862D01*
X114939513Y-145055167D01*
X114966680Y-145150089D01*
X115044045Y-145393207D01*
X115167549Y-145772309D01*
X115333134Y-146275186D01*
X115536739Y-146889628D01*
X115774306Y-147603423D01*
X116041775Y-148404363D01*
X116335087Y-149280237D01*
X116650183Y-150218834D01*
X116983004Y-151207944D01*
X117127942Y-151638000D01*
X119311858Y-158115000D01*
X121093069Y-158137822D01*
X121688259Y-158144462D01*
X122135971Y-158146049D01*
X122458022Y-158141077D01*
X122676229Y-158128039D01*
X122812411Y-158105428D01*
X122888385Y-158071739D01*
X122925969Y-158025464D01*
X122932285Y-158010822D01*
X122976795Y-157885468D01*
X123068716Y-157618171D01*
X123203132Y-157223577D01*
X123375128Y-156716329D01*
X123579787Y-156111073D01*
X123812194Y-155422454D01*
X124067433Y-154665117D01*
X124340587Y-153853706D01*
X124626741Y-153002867D01*
X124920979Y-152127244D01*
X125218385Y-151241483D01*
X125514043Y-150360228D01*
X125803036Y-149498124D01*
X126080450Y-148669816D01*
X126341368Y-147889949D01*
X126580874Y-147173168D01*
X126794051Y-146534117D01*
X126975986Y-145987442D01*
X127121760Y-145547788D01*
X127226459Y-145229800D01*
X127285166Y-145048121D01*
X127296334Y-145010071D01*
X127216259Y-144990114D01*
X126994387Y-144972913D01*
X126658245Y-144959634D01*
X126235362Y-144951442D01*
X125860980Y-144949334D01*
X124425627Y-144949334D01*
X124346152Y-145237165D01*
X124346152Y-145237165D01*
G37*
X124346152Y-145237165D02*
X124165987Y-145884504D01*
X123962168Y-146607824D01*
X123739046Y-147392347D01*
X123500971Y-148223294D01*
X123252295Y-149085886D01*
X122997368Y-149965344D01*
X122740539Y-150846889D01*
X122486159Y-151715744D01*
X122238580Y-152557129D01*
X122002151Y-153356265D01*
X121781222Y-154098374D01*
X121580145Y-154768676D01*
X121403269Y-155352394D01*
X121254945Y-155834749D01*
X121139524Y-156200961D01*
X121061355Y-156436252D01*
X121024790Y-156525844D01*
X121023119Y-156525724D01*
X120991234Y-156428876D01*
X120916789Y-156182488D01*
X120803647Y-155799861D01*
X120655671Y-155294300D01*
X120476725Y-154679110D01*
X120270671Y-153967594D01*
X120041372Y-153173055D01*
X119792692Y-152308798D01*
X119528492Y-151388127D01*
X119327414Y-150685846D01*
X117686667Y-144950025D01*
X116310834Y-144949679D01*
X115770386Y-144952755D01*
X115381097Y-144963221D01*
X115124899Y-144982468D01*
X114983725Y-145011885D01*
X114939506Y-145052862D01*
X114939513Y-145055167D01*
X114966680Y-145150089D01*
X115044045Y-145393207D01*
X115167549Y-145772309D01*
X115333134Y-146275186D01*
X115536739Y-146889628D01*
X115774306Y-147603423D01*
X116041775Y-148404363D01*
X116335087Y-149280237D01*
X116650183Y-150218834D01*
X116983004Y-151207944D01*
X117127942Y-151638000D01*
X119311858Y-158115000D01*
X121093069Y-158137822D01*
X121688259Y-158144462D01*
X122135971Y-158146049D01*
X122458022Y-158141077D01*
X122676229Y-158128039D01*
X122812411Y-158105428D01*
X122888385Y-158071739D01*
X122925969Y-158025464D01*
X122932285Y-158010822D01*
X122976795Y-157885468D01*
X123068716Y-157618171D01*
X123203132Y-157223577D01*
X123375128Y-156716329D01*
X123579787Y-156111073D01*
X123812194Y-155422454D01*
X124067433Y-154665117D01*
X124340587Y-153853706D01*
X124626741Y-153002867D01*
X124920979Y-152127244D01*
X125218385Y-151241483D01*
X125514043Y-150360228D01*
X125803036Y-149498124D01*
X126080450Y-148669816D01*
X126341368Y-147889949D01*
X126580874Y-147173168D01*
X126794051Y-146534117D01*
X126975986Y-145987442D01*
X127121760Y-145547788D01*
X127226459Y-145229800D01*
X127285166Y-145048121D01*
X127296334Y-145010071D01*
X127216259Y-144990114D01*
X126994387Y-144972913D01*
X126658245Y-144959634D01*
X126235362Y-144951442D01*
X125860980Y-144949334D01*
X124425627Y-144949334D01*
X124346152Y-145237165D01*
G36*
X154190851Y-139657667D02*
G01*
X150247426Y-146550617D01*
X146304000Y-153443567D01*
X146282339Y-146529450D01*
X146260677Y-139615334D01*
X143467667Y-139615334D01*
X143467667Y-158161428D01*
X144869621Y-158138214D01*
X146271574Y-158115000D01*
X154178000Y-144314334D01*
X154221324Y-158157334D01*
X156929667Y-158157334D01*
X156929667Y-139611139D01*
X154190851Y-139657667D01*
X154190851Y-139657667D01*
G37*
X154190851Y-139657667D02*
X150247426Y-146550617D01*
X146304000Y-153443567D01*
X146282339Y-146529450D01*
X146260677Y-139615334D01*
X143467667Y-139615334D01*
X143467667Y-158161428D01*
X144869621Y-158138214D01*
X146271574Y-158115000D01*
X154178000Y-144314334D01*
X154221324Y-158157334D01*
X156929667Y-158157334D01*
X156929667Y-139611139D01*
X154190851Y-139657667D01*
G36*
X72178334Y-158157334D02*
G01*
X74718334Y-158157334D01*
X74718334Y-157353000D01*
X74723303Y-157007372D01*
X74736659Y-156736141D01*
X74756076Y-156576077D01*
X74769230Y-156548667D01*
X74849579Y-156602523D01*
X75022912Y-156746997D01*
X75259095Y-156956448D01*
X75398493Y-157084146D01*
X76099818Y-157645579D01*
X76817452Y-158043680D01*
X77562079Y-158284355D01*
X77574157Y-158286935D01*
X78174579Y-158372499D01*
X78833625Y-158397814D01*
X79477204Y-158363176D01*
X79997728Y-158277222D01*
X80804456Y-157996794D01*
X81547786Y-157568177D01*
X82217367Y-157003994D01*
X82802850Y-156316865D01*
X83293883Y-155519411D01*
X83680117Y-154624255D01*
X83951201Y-153644017D01*
X83997587Y-153399746D01*
X84064282Y-152860567D01*
X84101120Y-152217197D01*
X84109359Y-151514387D01*
X84100601Y-151185399D01*
X81469135Y-151185399D01*
X81462211Y-152021589D01*
X81395957Y-152834625D01*
X81273636Y-153562511D01*
X81238625Y-153708588D01*
X80969799Y-154490209D01*
X80600617Y-155144566D01*
X80139942Y-155665948D01*
X79596639Y-156048643D01*
X78979574Y-156286940D01*
X78297611Y-156375128D01*
X77559615Y-156307494D01*
X77297289Y-156247931D01*
X76603284Y-155983236D01*
X75988007Y-155579471D01*
X75475348Y-155055431D01*
X75155492Y-154562865D01*
X74930000Y-154135667D01*
X74930000Y-148971000D01*
X75155492Y-148543802D01*
X75565256Y-147942295D01*
X76091026Y-147447447D01*
X76707078Y-147073255D01*
X77387688Y-146833714D01*
X78107134Y-146742821D01*
X78443667Y-146754747D01*
X79150201Y-146878693D01*
X79754660Y-147121122D01*
X80261543Y-147487534D01*
X80675345Y-147983432D01*
X81000565Y-148614317D01*
X81241700Y-149385693D01*
X81403246Y-150303060D01*
X81413464Y-150388050D01*
X81469135Y-151185399D01*
X84100601Y-151185399D01*
X84090258Y-150796888D01*
X84045073Y-150109449D01*
X83975064Y-149496821D01*
X83881488Y-149003754D01*
X83873071Y-148971000D01*
X83698354Y-148426889D01*
X83458622Y-147845128D01*
X83178725Y-147276087D01*
X82883510Y-146770137D01*
X82597828Y-146377648D01*
X82588161Y-146366416D01*
X81945861Y-145751283D01*
X81208902Y-145273538D01*
X80388790Y-144938650D01*
X79497033Y-144752088D01*
X79124863Y-144720323D01*
X78162857Y-144744571D01*
X77267551Y-144922864D01*
X76428353Y-145258587D01*
X75634670Y-145755120D01*
X75459707Y-145890610D01*
X74930000Y-146315752D01*
X74907925Y-142711543D01*
X74885849Y-139107334D01*
X72178334Y-139107334D01*
X72178334Y-158157334D01*
X72178334Y-158157334D01*
G37*
X72178334Y-158157334D02*
X74718334Y-158157334D01*
X74718334Y-157353000D01*
X74723303Y-157007372D01*
X74736659Y-156736141D01*
X74756076Y-156576077D01*
X74769230Y-156548667D01*
X74849579Y-156602523D01*
X75022912Y-156746997D01*
X75259095Y-156956448D01*
X75398493Y-157084146D01*
X76099818Y-157645579D01*
X76817452Y-158043680D01*
X77562079Y-158284355D01*
X77574157Y-158286935D01*
X78174579Y-158372499D01*
X78833625Y-158397814D01*
X79477204Y-158363176D01*
X79997728Y-158277222D01*
X80804456Y-157996794D01*
X81547786Y-157568177D01*
X82217367Y-157003994D01*
X82802850Y-156316865D01*
X83293883Y-155519411D01*
X83680117Y-154624255D01*
X83951201Y-153644017D01*
X83997587Y-153399746D01*
X84064282Y-152860567D01*
X84101120Y-152217197D01*
X84109359Y-151514387D01*
X84100601Y-151185399D01*
X81469135Y-151185399D01*
X81462211Y-152021589D01*
X81395957Y-152834625D01*
X81273636Y-153562511D01*
X81238625Y-153708588D01*
X80969799Y-154490209D01*
X80600617Y-155144566D01*
X80139942Y-155665948D01*
X79596639Y-156048643D01*
X78979574Y-156286940D01*
X78297611Y-156375128D01*
X77559615Y-156307494D01*
X77297289Y-156247931D01*
X76603284Y-155983236D01*
X75988007Y-155579471D01*
X75475348Y-155055431D01*
X75155492Y-154562865D01*
X74930000Y-154135667D01*
X74930000Y-148971000D01*
X75155492Y-148543802D01*
X75565256Y-147942295D01*
X76091026Y-147447447D01*
X76707078Y-147073255D01*
X77387688Y-146833714D01*
X78107134Y-146742821D01*
X78443667Y-146754747D01*
X79150201Y-146878693D01*
X79754660Y-147121122D01*
X80261543Y-147487534D01*
X80675345Y-147983432D01*
X81000565Y-148614317D01*
X81241700Y-149385693D01*
X81403246Y-150303060D01*
X81413464Y-150388050D01*
X81469135Y-151185399D01*
X84100601Y-151185399D01*
X84090258Y-150796888D01*
X84045073Y-150109449D01*
X83975064Y-149496821D01*
X83881488Y-149003754D01*
X83873071Y-148971000D01*
X83698354Y-148426889D01*
X83458622Y-147845128D01*
X83178725Y-147276087D01*
X82883510Y-146770137D01*
X82597828Y-146377648D01*
X82588161Y-146366416D01*
X81945861Y-145751283D01*
X81208902Y-145273538D01*
X80388790Y-144938650D01*
X79497033Y-144752088D01*
X79124863Y-144720323D01*
X78162857Y-144744571D01*
X77267551Y-144922864D01*
X76428353Y-145258587D01*
X75634670Y-145755120D01*
X75459707Y-145890610D01*
X74930000Y-146315752D01*
X74907925Y-142711543D01*
X74885849Y-139107334D01*
X72178334Y-139107334D01*
X72178334Y-158157334D01*
G36*
X92413667Y-144745207D02*
G01*
X91626329Y-144756435D01*
X90976393Y-144787840D01*
X90432622Y-144844290D01*
X89963779Y-144930652D01*
X89538626Y-145051796D01*
X89125927Y-145212588D01*
X88974221Y-145281194D01*
X88414333Y-145598906D01*
X87965356Y-145988424D01*
X87607953Y-146474588D01*
X87322792Y-147082240D01*
X87145104Y-147631191D01*
X87106097Y-147776140D01*
X87072870Y-147919106D01*
X87044863Y-148074700D01*
X87021513Y-148257529D01*
X87002260Y-148482203D01*
X86986544Y-148763333D01*
X86973803Y-149115526D01*
X86963477Y-149553393D01*
X86955004Y-150091543D01*
X86947824Y-150744585D01*
X86941376Y-151527129D01*
X86935099Y-152453784D01*
X86930328Y-153225500D01*
X86900415Y-158157334D01*
X89342651Y-158157334D01*
X89396492Y-157764516D01*
X89426044Y-157457923D01*
X89445601Y-157080639D01*
X89450334Y-156820938D01*
X89450334Y-156270177D01*
X89947224Y-156811589D01*
X90598234Y-157400237D01*
X91349627Y-157868673D01*
X92075000Y-158165563D01*
X92600604Y-158287724D01*
X93213156Y-158362128D01*
X93853159Y-158386825D01*
X94461113Y-158359870D01*
X94977522Y-158279314D01*
X95042646Y-158262695D01*
X95766354Y-157982766D01*
X96397515Y-157569066D01*
X96926268Y-157035594D01*
X97342757Y-156396352D01*
X97637122Y-155665337D01*
X97799505Y-154856551D01*
X97829612Y-154305000D01*
X97790112Y-153869005D01*
X95119297Y-153869005D01*
X95107073Y-154220534D01*
X95105742Y-154243223D01*
X95067130Y-154613945D01*
X95003469Y-154942813D01*
X94928102Y-155163849D01*
X94704360Y-155491742D01*
X94402607Y-155805034D01*
X94084154Y-156043237D01*
X93982877Y-156096415D01*
X93704382Y-156167017D01*
X93313144Y-156193859D01*
X92859182Y-156179887D01*
X92392517Y-156128048D01*
X91963169Y-156041290D01*
X91715450Y-155962847D01*
X91154816Y-155661336D01*
X90645148Y-155224916D01*
X90213506Y-154686315D01*
X89886947Y-154078262D01*
X89714807Y-153543000D01*
X89669389Y-153262046D01*
X89630292Y-152879405D01*
X89603912Y-152462722D01*
X89598706Y-152315334D01*
X89577334Y-151511000D01*
X90885226Y-151534196D01*
X91861585Y-151581851D01*
X92689527Y-151690372D01*
X93380288Y-151864193D01*
X93945102Y-152107744D01*
X94395206Y-152425459D01*
X94741834Y-152821770D01*
X94917629Y-153124953D01*
X95035958Y-153388882D01*
X95099387Y-153614344D01*
X95119297Y-153869005D01*
X97790112Y-153869005D01*
X97752562Y-153454543D01*
X97524303Y-152674563D01*
X97150312Y-151971323D01*
X96636066Y-151351089D01*
X95987043Y-150820125D01*
X95208719Y-150384695D01*
X94306573Y-150051065D01*
X94048946Y-149980889D01*
X93567845Y-149881763D01*
X92960010Y-149791869D01*
X92267962Y-149715322D01*
X91534223Y-149656239D01*
X90801315Y-149618734D01*
X90183943Y-149606837D01*
X89520553Y-149606000D01*
X89581707Y-148949834D01*
X89665094Y-148343678D01*
X89797133Y-147875915D01*
X89992023Y-147519145D01*
X90263958Y-147245971D01*
X90559671Y-147062415D01*
X91049606Y-146884662D01*
X91667065Y-146779038D01*
X92387093Y-146744032D01*
X93184730Y-146778133D01*
X94035019Y-146879831D01*
X94913003Y-147047614D01*
X95793723Y-147279971D01*
X96176050Y-147402403D01*
X96511829Y-147513786D01*
X96786970Y-147600711D01*
X96962286Y-147651013D01*
X97001550Y-147658667D01*
X97027174Y-147579255D01*
X97048465Y-147362010D01*
X97063451Y-147038412D01*
X97070158Y-146639944D01*
X97070334Y-146561402D01*
X97070334Y-145464137D01*
X96518319Y-145293637D01*
X95757143Y-145080024D01*
X95027604Y-144924755D01*
X94281845Y-144821434D01*
X93472005Y-144763669D01*
X92550227Y-144745064D01*
X92413667Y-144745207D01*
X92413667Y-144745207D01*
G37*
X92413667Y-144745207D02*
X91626329Y-144756435D01*
X90976393Y-144787840D01*
X90432622Y-144844290D01*
X89963779Y-144930652D01*
X89538626Y-145051796D01*
X89125927Y-145212588D01*
X88974221Y-145281194D01*
X88414333Y-145598906D01*
X87965356Y-145988424D01*
X87607953Y-146474588D01*
X87322792Y-147082240D01*
X87145104Y-147631191D01*
X87106097Y-147776140D01*
X87072870Y-147919106D01*
X87044863Y-148074700D01*
X87021513Y-148257529D01*
X87002260Y-148482203D01*
X86986544Y-148763333D01*
X86973803Y-149115526D01*
X86963477Y-149553393D01*
X86955004Y-150091543D01*
X86947824Y-150744585D01*
X86941376Y-151527129D01*
X86935099Y-152453784D01*
X86930328Y-153225500D01*
X86900415Y-158157334D01*
X89342651Y-158157334D01*
X89396492Y-157764516D01*
X89426044Y-157457923D01*
X89445601Y-157080639D01*
X89450334Y-156820938D01*
X89450334Y-156270177D01*
X89947224Y-156811589D01*
X90598234Y-157400237D01*
X91349627Y-157868673D01*
X92075000Y-158165563D01*
X92600604Y-158287724D01*
X93213156Y-158362128D01*
X93853159Y-158386825D01*
X94461113Y-158359870D01*
X94977522Y-158279314D01*
X95042646Y-158262695D01*
X95766354Y-157982766D01*
X96397515Y-157569066D01*
X96926268Y-157035594D01*
X97342757Y-156396352D01*
X97637122Y-155665337D01*
X97799505Y-154856551D01*
X97829612Y-154305000D01*
X97790112Y-153869005D01*
X95119297Y-153869005D01*
X95107073Y-154220534D01*
X95105742Y-154243223D01*
X95067130Y-154613945D01*
X95003469Y-154942813D01*
X94928102Y-155163849D01*
X94704360Y-155491742D01*
X94402607Y-155805034D01*
X94084154Y-156043237D01*
X93982877Y-156096415D01*
X93704382Y-156167017D01*
X93313144Y-156193859D01*
X92859182Y-156179887D01*
X92392517Y-156128048D01*
X91963169Y-156041290D01*
X91715450Y-155962847D01*
X91154816Y-155661336D01*
X90645148Y-155224916D01*
X90213506Y-154686315D01*
X89886947Y-154078262D01*
X89714807Y-153543000D01*
X89669389Y-153262046D01*
X89630292Y-152879405D01*
X89603912Y-152462722D01*
X89598706Y-152315334D01*
X89577334Y-151511000D01*
X90885226Y-151534196D01*
X91861585Y-151581851D01*
X92689527Y-151690372D01*
X93380288Y-151864193D01*
X93945102Y-152107744D01*
X94395206Y-152425459D01*
X94741834Y-152821770D01*
X94917629Y-153124953D01*
X95035958Y-153388882D01*
X95099387Y-153614344D01*
X95119297Y-153869005D01*
X97790112Y-153869005D01*
X97752562Y-153454543D01*
X97524303Y-152674563D01*
X97150312Y-151971323D01*
X96636066Y-151351089D01*
X95987043Y-150820125D01*
X95208719Y-150384695D01*
X94306573Y-150051065D01*
X94048946Y-149980889D01*
X93567845Y-149881763D01*
X92960010Y-149791869D01*
X92267962Y-149715322D01*
X91534223Y-149656239D01*
X90801315Y-149618734D01*
X90183943Y-149606837D01*
X89520553Y-149606000D01*
X89581707Y-148949834D01*
X89665094Y-148343678D01*
X89797133Y-147875915D01*
X89992023Y-147519145D01*
X90263958Y-147245971D01*
X90559671Y-147062415D01*
X91049606Y-146884662D01*
X91667065Y-146779038D01*
X92387093Y-146744032D01*
X93184730Y-146778133D01*
X94035019Y-146879831D01*
X94913003Y-147047614D01*
X95793723Y-147279971D01*
X96176050Y-147402403D01*
X96511829Y-147513786D01*
X96786970Y-147600711D01*
X96962286Y-147651013D01*
X97001550Y-147658667D01*
X97027174Y-147579255D01*
X97048465Y-147362010D01*
X97063451Y-147038412D01*
X97070158Y-146639944D01*
X97070334Y-146561402D01*
X97070334Y-145464137D01*
X96518319Y-145293637D01*
X95757143Y-145080024D01*
X95027604Y-144924755D01*
X94281845Y-144821434D01*
X93472005Y-144763669D01*
X92550227Y-144745064D01*
X92413667Y-144745207D01*
G36*
X134831667Y-144745207D02*
G01*
X134044329Y-144756435D01*
X133394393Y-144787840D01*
X132850622Y-144844290D01*
X132381779Y-144930652D01*
X131956626Y-145051796D01*
X131543927Y-145212588D01*
X131392221Y-145281194D01*
X130832333Y-145598906D01*
X130383356Y-145988424D01*
X130025953Y-146474588D01*
X129740792Y-147082240D01*
X129563104Y-147631191D01*
X129524097Y-147776140D01*
X129490870Y-147919106D01*
X129462863Y-148074700D01*
X129439513Y-148257529D01*
X129420260Y-148482203D01*
X129404544Y-148763333D01*
X129391803Y-149115526D01*
X129381477Y-149553393D01*
X129373004Y-150091543D01*
X129365824Y-150744585D01*
X129359376Y-151527129D01*
X129353099Y-152453784D01*
X129348328Y-153225500D01*
X129318415Y-158157334D01*
X131760651Y-158157334D01*
X131814492Y-157764516D01*
X131844044Y-157457923D01*
X131863601Y-157080639D01*
X131868334Y-156820938D01*
X131868334Y-156270177D01*
X132365224Y-156811589D01*
X133016234Y-157400237D01*
X133767627Y-157868673D01*
X134493000Y-158165563D01*
X135018604Y-158287724D01*
X135631156Y-158362128D01*
X136271159Y-158386825D01*
X136879113Y-158359870D01*
X137395522Y-158279314D01*
X137460646Y-158262695D01*
X138184354Y-157982766D01*
X138815515Y-157569066D01*
X139344268Y-157035594D01*
X139760757Y-156396352D01*
X140055122Y-155665337D01*
X140217505Y-154856551D01*
X140247612Y-154305000D01*
X140208112Y-153869005D01*
X137537297Y-153869005D01*
X137525073Y-154220534D01*
X137523742Y-154243223D01*
X137485130Y-154613945D01*
X137421469Y-154942813D01*
X137346102Y-155163849D01*
X137122360Y-155491742D01*
X136820607Y-155805034D01*
X136502154Y-156043237D01*
X136400877Y-156096415D01*
X136122382Y-156167017D01*
X135731144Y-156193859D01*
X135277182Y-156179887D01*
X134810517Y-156128048D01*
X134381169Y-156041290D01*
X134133450Y-155962847D01*
X133572816Y-155661336D01*
X133063148Y-155224916D01*
X132631506Y-154686315D01*
X132304947Y-154078262D01*
X132132807Y-153543000D01*
X132087389Y-153262046D01*
X132048292Y-152879405D01*
X132021912Y-152462722D01*
X132016706Y-152315334D01*
X131995334Y-151511000D01*
X133303226Y-151534196D01*
X134279585Y-151581851D01*
X135107527Y-151690372D01*
X135798288Y-151864193D01*
X136363102Y-152107744D01*
X136813206Y-152425459D01*
X137159834Y-152821770D01*
X137335629Y-153124953D01*
X137453958Y-153388882D01*
X137517387Y-153614344D01*
X137537297Y-153869005D01*
X140208112Y-153869005D01*
X140170562Y-153454543D01*
X139942303Y-152674563D01*
X139568312Y-151971323D01*
X139054066Y-151351089D01*
X138405043Y-150820125D01*
X137626719Y-150384695D01*
X136724573Y-150051065D01*
X136466946Y-149980889D01*
X135985845Y-149881763D01*
X135378010Y-149791869D01*
X134685962Y-149715322D01*
X133952223Y-149656239D01*
X133219315Y-149618734D01*
X132601943Y-149606837D01*
X131938553Y-149606000D01*
X131999707Y-148949834D01*
X132083094Y-148343678D01*
X132215133Y-147875915D01*
X132410023Y-147519145D01*
X132681958Y-147245971D01*
X132977671Y-147062415D01*
X133467606Y-146884662D01*
X134085065Y-146779038D01*
X134805093Y-146744032D01*
X135602730Y-146778133D01*
X136453019Y-146879831D01*
X137331003Y-147047614D01*
X138211723Y-147279971D01*
X138594050Y-147402403D01*
X138929829Y-147513786D01*
X139204970Y-147600711D01*
X139380286Y-147651013D01*
X139419550Y-147658667D01*
X139445174Y-147579255D01*
X139466465Y-147362010D01*
X139481451Y-147038412D01*
X139488158Y-146639944D01*
X139488334Y-146561402D01*
X139488334Y-145464137D01*
X138936319Y-145293637D01*
X138175143Y-145080024D01*
X137445604Y-144924755D01*
X136699845Y-144821434D01*
X135890005Y-144763669D01*
X134968227Y-144745064D01*
X134831667Y-144745207D01*
X134831667Y-144745207D01*
G37*
X134831667Y-144745207D02*
X134044329Y-144756435D01*
X133394393Y-144787840D01*
X132850622Y-144844290D01*
X132381779Y-144930652D01*
X131956626Y-145051796D01*
X131543927Y-145212588D01*
X131392221Y-145281194D01*
X130832333Y-145598906D01*
X130383356Y-145988424D01*
X130025953Y-146474588D01*
X129740792Y-147082240D01*
X129563104Y-147631191D01*
X129524097Y-147776140D01*
X129490870Y-147919106D01*
X129462863Y-148074700D01*
X129439513Y-148257529D01*
X129420260Y-148482203D01*
X129404544Y-148763333D01*
X129391803Y-149115526D01*
X129381477Y-149553393D01*
X129373004Y-150091543D01*
X129365824Y-150744585D01*
X129359376Y-151527129D01*
X129353099Y-152453784D01*
X129348328Y-153225500D01*
X129318415Y-158157334D01*
X131760651Y-158157334D01*
X131814492Y-157764516D01*
X131844044Y-157457923D01*
X131863601Y-157080639D01*
X131868334Y-156820938D01*
X131868334Y-156270177D01*
X132365224Y-156811589D01*
X133016234Y-157400237D01*
X133767627Y-157868673D01*
X134493000Y-158165563D01*
X135018604Y-158287724D01*
X135631156Y-158362128D01*
X136271159Y-158386825D01*
X136879113Y-158359870D01*
X137395522Y-158279314D01*
X137460646Y-158262695D01*
X138184354Y-157982766D01*
X138815515Y-157569066D01*
X139344268Y-157035594D01*
X139760757Y-156396352D01*
X140055122Y-155665337D01*
X140217505Y-154856551D01*
X140247612Y-154305000D01*
X140208112Y-153869005D01*
X137537297Y-153869005D01*
X137525073Y-154220534D01*
X137523742Y-154243223D01*
X137485130Y-154613945D01*
X137421469Y-154942813D01*
X137346102Y-155163849D01*
X137122360Y-155491742D01*
X136820607Y-155805034D01*
X136502154Y-156043237D01*
X136400877Y-156096415D01*
X136122382Y-156167017D01*
X135731144Y-156193859D01*
X135277182Y-156179887D01*
X134810517Y-156128048D01*
X134381169Y-156041290D01*
X134133450Y-155962847D01*
X133572816Y-155661336D01*
X133063148Y-155224916D01*
X132631506Y-154686315D01*
X132304947Y-154078262D01*
X132132807Y-153543000D01*
X132087389Y-153262046D01*
X132048292Y-152879405D01*
X132021912Y-152462722D01*
X132016706Y-152315334D01*
X131995334Y-151511000D01*
X133303226Y-151534196D01*
X134279585Y-151581851D01*
X135107527Y-151690372D01*
X135798288Y-151864193D01*
X136363102Y-152107744D01*
X136813206Y-152425459D01*
X137159834Y-152821770D01*
X137335629Y-153124953D01*
X137453958Y-153388882D01*
X137517387Y-153614344D01*
X137537297Y-153869005D01*
X140208112Y-153869005D01*
X140170562Y-153454543D01*
X139942303Y-152674563D01*
X139568312Y-151971323D01*
X139054066Y-151351089D01*
X138405043Y-150820125D01*
X137626719Y-150384695D01*
X136724573Y-150051065D01*
X136466946Y-149980889D01*
X135985845Y-149881763D01*
X135378010Y-149791869D01*
X134685962Y-149715322D01*
X133952223Y-149656239D01*
X133219315Y-149618734D01*
X132601943Y-149606837D01*
X131938553Y-149606000D01*
X131999707Y-148949834D01*
X132083094Y-148343678D01*
X132215133Y-147875915D01*
X132410023Y-147519145D01*
X132681958Y-147245971D01*
X132977671Y-147062415D01*
X133467606Y-146884662D01*
X134085065Y-146779038D01*
X134805093Y-146744032D01*
X135602730Y-146778133D01*
X136453019Y-146879831D01*
X137331003Y-147047614D01*
X138211723Y-147279971D01*
X138594050Y-147402403D01*
X138929829Y-147513786D01*
X139204970Y-147600711D01*
X139380286Y-147651013D01*
X139419550Y-147658667D01*
X139445174Y-147579255D01*
X139466465Y-147362010D01*
X139481451Y-147038412D01*
X139488158Y-146639944D01*
X139488334Y-146561402D01*
X139488334Y-145464137D01*
X138936319Y-145293637D01*
X138175143Y-145080024D01*
X137445604Y-144924755D01*
X136699845Y-144821434D01*
X135890005Y-144763669D01*
X134968227Y-144745064D01*
X134831667Y-144745207D01*
D11*
X122269250Y-61976000D03*
X203231750Y-159607250D03*
X162750500Y-159607250D03*
X100838000Y-159607250D03*
X60356750Y-159607250D03*
X203231750Y-138176000D03*
X122269250Y-138176000D03*
X60356750Y-138176000D03*
X203231750Y-81026000D03*
X60356750Y-81026000D03*
X203231750Y-31019750D03*
X155606750Y-30988000D03*
X133223000Y-31019750D03*
X117506750Y-30988000D03*
X60325000Y-30988000D03*
D12*
X171069000Y-152654000D03*
X90805000Y-152654000D03*
X76581000Y-154178000D03*
X133223000Y-152654000D03*
X128143000Y-152654000D03*
X158369000Y-145288000D03*
X103505000Y-145288000D03*
X185547000Y-153416000D03*
D13*
G36*
X115516973Y-29177831D02*
G01*
X115129732Y-29417976D01*
X114869109Y-29911877D01*
X114709849Y-30447133D01*
X114658072Y-31003174D01*
X114715769Y-31558632D01*
X114880722Y-32092161D01*
X115129732Y-32558024D01*
X115516975Y-32798170D01*
X117327145Y-30988000D01*
X117313003Y-30973858D01*
X117492608Y-30794253D01*
X117506750Y-30808395D01*
X117520893Y-30794253D01*
X117700498Y-30973858D01*
X117686355Y-30988000D01*
X119496525Y-32798170D01*
X119883768Y-32558024D01*
X120144391Y-32064123D01*
X120303651Y-31528867D01*
X120355428Y-30972826D01*
X120297731Y-30417368D01*
X120132778Y-29883839D01*
X119883768Y-29417976D01*
X119496527Y-29177831D01*
X119534608Y-29139750D01*
X131163392Y-29139750D01*
X131233223Y-29209581D01*
X130845982Y-29449726D01*
X130585359Y-29943627D01*
X130426099Y-30478883D01*
X130374322Y-31034924D01*
X130432019Y-31590382D01*
X130596972Y-32123911D01*
X130845982Y-32589774D01*
X131233225Y-32829920D01*
X133043395Y-31019750D01*
X133029253Y-31005608D01*
X133208858Y-30826003D01*
X133223000Y-30840145D01*
X133237143Y-30826003D01*
X133416748Y-31005608D01*
X133402605Y-31019750D01*
X135212775Y-32829920D01*
X135600018Y-32589774D01*
X135860641Y-32095873D01*
X136019901Y-31560617D01*
X136071678Y-31004576D01*
X136013981Y-30449118D01*
X135849028Y-29915589D01*
X135600018Y-29449726D01*
X135212777Y-29209581D01*
X135282608Y-29139750D01*
X153578892Y-29139750D01*
X153616973Y-29177831D01*
X153229732Y-29417976D01*
X152969109Y-29911877D01*
X152809849Y-30447133D01*
X152758072Y-31003174D01*
X152815769Y-31558632D01*
X152980722Y-32092161D01*
X153229732Y-32558024D01*
X153616975Y-32798170D01*
X155427145Y-30988000D01*
X155413003Y-30973858D01*
X155592608Y-30794253D01*
X155606750Y-30808395D01*
X155620893Y-30794253D01*
X155800498Y-30973858D01*
X155786355Y-30988000D01*
X157596525Y-32798170D01*
X157983768Y-32558024D01*
X158244391Y-32064123D01*
X158403651Y-31528867D01*
X158455428Y-30972826D01*
X158397731Y-30417368D01*
X158232778Y-29883839D01*
X157983768Y-29417976D01*
X157596527Y-29177831D01*
X157634608Y-29139750D01*
X201172142Y-29139750D01*
X201241973Y-29209581D01*
X200854732Y-29449726D01*
X200594109Y-29943627D01*
X200434849Y-30478883D01*
X200383072Y-31034924D01*
X200440769Y-31590382D01*
X200605722Y-32123911D01*
X200854732Y-32589774D01*
X201241975Y-32829920D01*
X203052145Y-31019750D01*
X203038003Y-31005608D01*
X203217608Y-30826003D01*
X203231750Y-30840145D01*
X203245893Y-30826003D01*
X203425498Y-31005608D01*
X203411355Y-31019750D01*
X203425498Y-31033893D01*
X203245893Y-31213498D01*
X203231750Y-31199355D01*
X201421580Y-33009525D01*
X201661726Y-33396768D01*
X202155627Y-33657391D01*
X202690883Y-33816651D01*
X203246924Y-33868428D01*
X203802382Y-33810731D01*
X204335911Y-33645778D01*
X204801774Y-33396768D01*
X205041919Y-33009527D01*
X205111751Y-33079359D01*
X205111751Y-78966391D01*
X205041919Y-79036223D01*
X204801774Y-78648982D01*
X204307873Y-78388359D01*
X203772617Y-78229099D01*
X203216576Y-78177322D01*
X202661118Y-78235019D01*
X202127589Y-78399972D01*
X201661726Y-78648982D01*
X201421580Y-79036225D01*
X203231750Y-80846395D01*
X203245893Y-80832253D01*
X203425498Y-81011858D01*
X203411355Y-81026000D01*
X203425498Y-81040143D01*
X203245893Y-81219748D01*
X203231750Y-81205605D01*
X201421580Y-83015775D01*
X201661726Y-83403018D01*
X202155627Y-83663641D01*
X202690883Y-83822901D01*
X203246924Y-83874678D01*
X203802382Y-83816981D01*
X204335911Y-83652028D01*
X204801774Y-83403018D01*
X205041919Y-83015777D01*
X205111751Y-83085609D01*
X205111750Y-136116392D01*
X205041919Y-136186223D01*
X204801774Y-135798982D01*
X204307873Y-135538359D01*
X203772617Y-135379099D01*
X203216576Y-135327322D01*
X202661118Y-135385019D01*
X202127589Y-135549972D01*
X201661726Y-135798982D01*
X201421580Y-136186225D01*
X203231750Y-137996395D01*
X203245893Y-137982253D01*
X203425498Y-138161858D01*
X203411355Y-138176000D01*
X203425498Y-138190143D01*
X203245893Y-138369748D01*
X203231750Y-138355605D01*
X201421580Y-140165775D01*
X201661726Y-140553018D01*
X202155627Y-140813641D01*
X202690883Y-140972901D01*
X203246924Y-141024678D01*
X203802382Y-140966981D01*
X204335911Y-140802028D01*
X204801774Y-140553018D01*
X205041919Y-140165777D01*
X205111750Y-140235608D01*
X205111750Y-157547642D01*
X205041919Y-157617473D01*
X204801774Y-157230232D01*
X204307873Y-156969609D01*
X203772617Y-156810349D01*
X203216576Y-156758572D01*
X202661118Y-156816269D01*
X202127589Y-156981222D01*
X201661726Y-157230232D01*
X201421580Y-157617475D01*
X203231750Y-159427645D01*
X203245893Y-159413503D01*
X203425498Y-159593108D01*
X203411355Y-159607250D01*
X203425498Y-159621393D01*
X203245893Y-159800998D01*
X203231750Y-159786855D01*
X203217608Y-159800998D01*
X203038003Y-159621393D01*
X203052145Y-159607250D01*
X201241975Y-157797080D01*
X200854732Y-158037226D01*
X200594109Y-158531127D01*
X200434849Y-159066383D01*
X200383072Y-159622424D01*
X200440769Y-160177882D01*
X200605722Y-160711411D01*
X200854732Y-161177274D01*
X201241973Y-161417419D01*
X201172142Y-161487250D01*
X164810108Y-161487250D01*
X164740277Y-161417419D01*
X165127518Y-161177274D01*
X165388141Y-160683373D01*
X165547401Y-160148117D01*
X165599178Y-159592076D01*
X165541481Y-159036618D01*
X165376528Y-158503089D01*
X165127518Y-158037226D01*
X164740275Y-157797080D01*
X162930105Y-159607250D01*
X162944248Y-159621393D01*
X162764643Y-159800998D01*
X162750500Y-159786855D01*
X162736358Y-159800998D01*
X162556753Y-159621393D01*
X162570895Y-159607250D01*
X160760725Y-157797080D01*
X160373482Y-158037226D01*
X160112859Y-158531127D01*
X159953599Y-159066383D01*
X159901822Y-159622424D01*
X159959519Y-160177882D01*
X160124472Y-160711411D01*
X160373482Y-161177274D01*
X160760723Y-161417419D01*
X160690892Y-161487250D01*
X102897608Y-161487250D01*
X102827777Y-161417419D01*
X103215018Y-161177274D01*
X103475641Y-160683373D01*
X103634901Y-160148117D01*
X103686678Y-159592076D01*
X103628981Y-159036618D01*
X103464028Y-158503089D01*
X103215018Y-158037226D01*
X102827775Y-157797080D01*
X101017605Y-159607250D01*
X101031748Y-159621393D01*
X100852143Y-159800998D01*
X100838000Y-159786855D01*
X100823858Y-159800998D01*
X100644253Y-159621393D01*
X100658395Y-159607250D01*
X98848225Y-157797080D01*
X98460982Y-158037226D01*
X98200359Y-158531127D01*
X98041099Y-159066383D01*
X97989322Y-159622424D01*
X98047019Y-160177882D01*
X98211972Y-160711411D01*
X98460982Y-161177274D01*
X98848223Y-161417419D01*
X98778392Y-161487250D01*
X62416358Y-161487250D01*
X62346527Y-161417419D01*
X62733768Y-161177274D01*
X62994391Y-160683373D01*
X63153651Y-160148117D01*
X63205428Y-159592076D01*
X63147731Y-159036618D01*
X62982778Y-158503089D01*
X62733768Y-158037226D01*
X62346525Y-157797080D01*
X60536355Y-159607250D01*
X60550498Y-159621393D01*
X60370893Y-159800998D01*
X60356750Y-159786855D01*
X60342608Y-159800998D01*
X60163003Y-159621393D01*
X60177145Y-159607250D01*
X60163003Y-159593108D01*
X60342608Y-159413503D01*
X60356750Y-159427645D01*
X62166920Y-157617475D01*
X61926774Y-157230232D01*
X61432873Y-156969609D01*
X60897617Y-156810349D01*
X60341576Y-156758572D01*
X59786118Y-156816269D01*
X59252589Y-156981222D01*
X58786726Y-157230232D01*
X58546581Y-157617473D01*
X58476750Y-157547642D01*
X58476750Y-140235608D01*
X58546581Y-140165777D01*
X58786726Y-140553018D01*
X59280627Y-140813641D01*
X59815883Y-140972901D01*
X60371924Y-141024678D01*
X60927382Y-140966981D01*
X61460911Y-140802028D01*
X61926774Y-140553018D01*
X62166920Y-140165775D01*
X60356750Y-138355605D01*
X60342608Y-138369748D01*
X60163003Y-138190143D01*
X60177145Y-138176000D01*
X60536355Y-138176000D01*
X62346525Y-139986170D01*
X62733768Y-139746024D01*
X62994391Y-139252123D01*
X63037471Y-139107334D01*
X71538334Y-139107334D01*
X71538334Y-158157334D01*
X71544211Y-158217272D01*
X71549670Y-158277258D01*
X71550304Y-158279413D01*
X71550523Y-158281644D01*
X71567908Y-158339225D01*
X71584936Y-158397082D01*
X71585977Y-158399074D01*
X71586625Y-158401219D01*
X71614910Y-158454416D01*
X71642805Y-158507774D01*
X71644208Y-158509519D01*
X71645264Y-158511505D01*
X71683339Y-158558188D01*
X71721071Y-158605119D01*
X71722793Y-158606564D01*
X71724209Y-158608300D01*
X71770538Y-158646627D01*
X71816755Y-158685407D01*
X71818725Y-158686490D01*
X71820451Y-158687918D01*
X71873343Y-158716517D01*
X71926211Y-158745581D01*
X71928354Y-158746261D01*
X71930324Y-158747326D01*
X71987839Y-158765130D01*
X72045271Y-158783348D01*
X72047499Y-158783598D01*
X72049644Y-158784262D01*
X72109511Y-158790554D01*
X72169398Y-158797272D01*
X72173713Y-158797302D01*
X72173866Y-158797318D01*
X72174019Y-158797304D01*
X72178334Y-158797334D01*
X74718334Y-158797334D01*
X74778272Y-158791457D01*
X74838258Y-158785998D01*
X74840413Y-158785364D01*
X74842644Y-158785145D01*
X74900225Y-158767760D01*
X74958082Y-158750732D01*
X74960074Y-158749691D01*
X74962219Y-158749043D01*
X75015416Y-158720758D01*
X75068774Y-158692863D01*
X75070519Y-158691460D01*
X75072505Y-158690404D01*
X75119188Y-158652329D01*
X75166119Y-158614597D01*
X75167564Y-158612875D01*
X75169300Y-158611459D01*
X75207627Y-158565130D01*
X75246407Y-158518913D01*
X75247490Y-158516943D01*
X75248918Y-158515217D01*
X75277517Y-158462325D01*
X75306581Y-158409457D01*
X75307261Y-158407314D01*
X75308326Y-158405344D01*
X75326130Y-158347829D01*
X75344348Y-158290397D01*
X75344598Y-158288169D01*
X75345262Y-158286024D01*
X75351554Y-158226157D01*
X75358272Y-158166270D01*
X75358302Y-158161955D01*
X75358318Y-158161802D01*
X75358304Y-158161649D01*
X75358334Y-158157334D01*
X75358334Y-157871810D01*
X75699851Y-158145205D01*
X75741275Y-158172187D01*
X75781571Y-158200844D01*
X75789355Y-158205233D01*
X76506989Y-158603334D01*
X76559736Y-158626180D01*
X76612136Y-158649853D01*
X76620620Y-158652660D01*
X77365247Y-158893335D01*
X77392846Y-158899358D01*
X77419658Y-158908308D01*
X77428384Y-158910235D01*
X77440461Y-158912815D01*
X77457967Y-158914796D01*
X77475027Y-158919212D01*
X77483865Y-158920534D01*
X78084287Y-159006098D01*
X78112837Y-159007349D01*
X78141087Y-159011622D01*
X78150014Y-159012027D01*
X78809060Y-159037342D01*
X78834073Y-159035856D01*
X78859094Y-159037307D01*
X78868021Y-159036889D01*
X79511599Y-159002251D01*
X79541968Y-158997614D01*
X79572648Y-158996019D01*
X79581475Y-158994625D01*
X80101999Y-158908671D01*
X80150471Y-158895704D01*
X80199405Y-158884616D01*
X80207866Y-158881740D01*
X81014593Y-158601312D01*
X81065237Y-158577946D01*
X81116379Y-158555636D01*
X81124151Y-158551226D01*
X81813991Y-158153452D01*
X86260427Y-158153452D01*
X86266049Y-158214603D01*
X86271751Y-158277258D01*
X86271835Y-158277545D01*
X86271862Y-158277834D01*
X86289199Y-158336543D01*
X86307017Y-158397082D01*
X86307156Y-158397347D01*
X86307238Y-158397626D01*
X86336016Y-158452552D01*
X86364886Y-158507774D01*
X86365069Y-158508002D01*
X86365207Y-158508265D01*
X86404080Y-158556522D01*
X86443152Y-158605119D01*
X86443381Y-158605311D01*
X86443563Y-158605537D01*
X86490799Y-158645099D01*
X86538836Y-158685407D01*
X86539094Y-158685549D01*
X86539320Y-158685738D01*
X86593492Y-158715454D01*
X86648292Y-158745581D01*
X86648576Y-158745671D01*
X86648831Y-158745811D01*
X86708008Y-158764524D01*
X86767352Y-158783348D01*
X86767642Y-158783381D01*
X86767925Y-158783470D01*
X86829456Y-158790315D01*
X86891479Y-158797272D01*
X86892037Y-158797276D01*
X86892065Y-158797279D01*
X86892097Y-158797276D01*
X86900415Y-158797334D01*
X89342651Y-158797334D01*
X89359339Y-158795698D01*
X89376095Y-158796460D01*
X89421392Y-158789613D01*
X89466961Y-158785145D01*
X89483011Y-158780299D01*
X89499598Y-158777792D01*
X89542698Y-158762278D01*
X89586536Y-158749043D01*
X89601345Y-158741169D01*
X89617123Y-158735490D01*
X89656379Y-158711908D01*
X89696822Y-158690404D01*
X89709817Y-158679805D01*
X89724195Y-158671168D01*
X89758134Y-158640399D01*
X89793617Y-158611459D01*
X89804305Y-158598540D01*
X89816732Y-158587273D01*
X89844047Y-158550500D01*
X89873235Y-158515217D01*
X89881210Y-158500467D01*
X89891212Y-158487002D01*
X89910860Y-158445630D01*
X89932643Y-158405344D01*
X89937603Y-158389320D01*
X89944797Y-158374173D01*
X89956035Y-158329776D01*
X89969579Y-158286024D01*
X89971332Y-158269349D01*
X89975448Y-158253087D01*
X89976723Y-158244242D01*
X90030564Y-157851424D01*
X90030887Y-157843027D01*
X90032620Y-157834809D01*
X90033540Y-157825920D01*
X90040052Y-157758361D01*
X90168994Y-157874951D01*
X90211055Y-157906097D01*
X90252100Y-157938560D01*
X90259651Y-157943340D01*
X91011043Y-158411776D01*
X91055455Y-158433765D01*
X91098953Y-158457539D01*
X91107200Y-158460981D01*
X91832572Y-158757871D01*
X91877346Y-158771269D01*
X91921423Y-158786864D01*
X91930113Y-158788947D01*
X92455717Y-158911108D01*
X92485419Y-158915010D01*
X92514570Y-158921915D01*
X92523433Y-158923054D01*
X93135985Y-158997458D01*
X93157888Y-158997965D01*
X93179551Y-159001245D01*
X93188477Y-159001652D01*
X93828480Y-159026349D01*
X93850530Y-159025043D01*
X93872577Y-159026531D01*
X93881507Y-159026197D01*
X94489461Y-158999242D01*
X94520044Y-158994868D01*
X94550917Y-158993539D01*
X94559755Y-158992223D01*
X95076164Y-158911667D01*
X95101342Y-158905171D01*
X95127098Y-158901590D01*
X95135772Y-158899441D01*
X95200896Y-158882822D01*
X95232583Y-158871341D01*
X95265171Y-158862764D01*
X95273527Y-158859599D01*
X95997236Y-158579669D01*
X95997722Y-158579424D01*
X95998244Y-158579278D01*
X96053841Y-158551142D01*
X96108777Y-158523456D01*
X96109201Y-158523126D01*
X96109690Y-158522878D01*
X96117198Y-158518031D01*
X96748359Y-158104331D01*
X96748410Y-158104290D01*
X96748465Y-158104261D01*
X96797241Y-158064968D01*
X96845644Y-158025991D01*
X96845684Y-158025943D01*
X96845735Y-158025902D01*
X96852069Y-158019599D01*
X97250635Y-157617475D01*
X99027830Y-157617475D01*
X100838000Y-159427645D01*
X102648170Y-157617475D01*
X102408024Y-157230232D01*
X101914123Y-156969609D01*
X101378867Y-156810349D01*
X100822826Y-156758572D01*
X100267368Y-156816269D01*
X99733839Y-156981222D01*
X99267976Y-157230232D01*
X99027830Y-157617475D01*
X97250635Y-157617475D01*
X97380822Y-157486127D01*
X97419034Y-157439183D01*
X97457565Y-157392418D01*
X97459578Y-157389375D01*
X97459674Y-157389257D01*
X97459747Y-157389119D01*
X97462495Y-157384965D01*
X97878984Y-156745724D01*
X97905631Y-156694503D01*
X97933036Y-156643679D01*
X97936432Y-156635413D01*
X98230797Y-155904398D01*
X98246143Y-155852034D01*
X98262780Y-155800067D01*
X98264600Y-155791318D01*
X98426983Y-154982532D01*
X98431139Y-154941271D01*
X98438005Y-154900353D01*
X98438554Y-154891434D01*
X98468661Y-154339883D01*
X98466852Y-154298038D01*
X98467746Y-154256160D01*
X98467002Y-154247255D01*
X98427502Y-153811259D01*
X98427500Y-153811250D01*
X98389951Y-153396796D01*
X98379174Y-153340177D01*
X98369250Y-153283382D01*
X98366800Y-153274788D01*
X98138541Y-152494808D01*
X98115884Y-152438482D01*
X98093507Y-152381975D01*
X98091982Y-152379060D01*
X98091928Y-152378925D01*
X98091846Y-152378799D01*
X98089365Y-152374056D01*
X97715375Y-151670816D01*
X97681870Y-151620396D01*
X97648650Y-151569751D01*
X97646326Y-151566909D01*
X97646244Y-151566785D01*
X97646137Y-151566677D01*
X97642994Y-151562833D01*
X97128748Y-150942598D01*
X97088154Y-150902375D01*
X97048191Y-150861442D01*
X97041313Y-150855736D01*
X96392290Y-150324772D01*
X96349304Y-150296118D01*
X96307282Y-150266006D01*
X96299513Y-150261589D01*
X95521189Y-149826159D01*
X95479613Y-149807974D01*
X95439069Y-149787586D01*
X95430709Y-149784428D01*
X94528563Y-149450798D01*
X94505526Y-149444756D01*
X94483382Y-149435972D01*
X94474777Y-149433564D01*
X94217149Y-149363388D01*
X94201722Y-149360768D01*
X94186838Y-149355920D01*
X94178099Y-149354056D01*
X93696998Y-149254930D01*
X93683466Y-149253498D01*
X93670308Y-149250018D01*
X93661477Y-149248649D01*
X93053643Y-149158755D01*
X93046357Y-149158397D01*
X93039246Y-149156793D01*
X93030371Y-149155749D01*
X92338323Y-149079201D01*
X92333230Y-149079138D01*
X92328233Y-149078166D01*
X92319331Y-149077387D01*
X91585592Y-149018304D01*
X91580692Y-149018389D01*
X91575852Y-149017594D01*
X91566931Y-149017075D01*
X90834023Y-148979570D01*
X90828279Y-148979838D01*
X90822579Y-148979087D01*
X90813646Y-148978853D01*
X90225302Y-148967515D01*
X90293078Y-148474844D01*
X90393434Y-148119318D01*
X90509953Y-147906017D01*
X90664888Y-147750376D01*
X90840586Y-147641316D01*
X91214004Y-147505836D01*
X91736816Y-147416403D01*
X92388967Y-147384697D01*
X93132983Y-147416505D01*
X93936841Y-147512650D01*
X94771129Y-147672083D01*
X95614384Y-147894556D01*
X95977665Y-148010889D01*
X96310328Y-148121238D01*
X96310431Y-148121261D01*
X96310525Y-148121303D01*
X96319028Y-148124054D01*
X96594169Y-148210980D01*
X96598136Y-148211818D01*
X96601889Y-148213366D01*
X96610462Y-148215890D01*
X96785778Y-148266192D01*
X96808768Y-148270415D01*
X96831072Y-148277418D01*
X96839831Y-148279189D01*
X96879095Y-148286843D01*
X96901086Y-148288934D01*
X96922629Y-148293782D01*
X96963118Y-148294831D01*
X97003441Y-148298664D01*
X97025412Y-148296444D01*
X97047493Y-148297016D01*
X97087422Y-148290179D01*
X97127714Y-148286108D01*
X97148836Y-148279663D01*
X97170607Y-148275935D01*
X97208442Y-148261475D01*
X97247182Y-148249654D01*
X97266650Y-148239229D01*
X97287283Y-148231343D01*
X97321594Y-148209806D01*
X97357294Y-148190688D01*
X97374366Y-148176680D01*
X97393074Y-148164937D01*
X97422551Y-148137143D01*
X97453856Y-148111457D01*
X97467878Y-148094405D01*
X97483953Y-148079248D01*
X97507469Y-148046259D01*
X97533189Y-148014981D01*
X97543636Y-147995522D01*
X97556456Y-147977538D01*
X97573114Y-147940617D01*
X97592272Y-147904933D01*
X97598739Y-147883819D01*
X97607824Y-147863684D01*
X97610627Y-147855199D01*
X97636251Y-147775787D01*
X97636593Y-147774215D01*
X97637224Y-147772743D01*
X97649863Y-147713273D01*
X97662825Y-147653740D01*
X97662855Y-147652136D01*
X97663189Y-147650566D01*
X97664122Y-147641679D01*
X97685413Y-147424434D01*
X97685412Y-147412414D01*
X97687304Y-147400541D01*
X97687780Y-147391617D01*
X97702766Y-147068019D01*
X97702510Y-147063052D01*
X97703148Y-147058117D01*
X97703360Y-147049183D01*
X97710067Y-146650715D01*
X97710051Y-146650516D01*
X97710074Y-146650314D01*
X97710156Y-146641378D01*
X97710332Y-146562836D01*
X97710325Y-146562759D01*
X97710334Y-146561402D01*
X97710334Y-145464137D01*
X97707695Y-145437226D01*
X97708056Y-145410186D01*
X97701615Y-145375215D01*
X97698145Y-145339827D01*
X97690329Y-145313939D01*
X97685431Y-145287346D01*
X97677208Y-145266614D01*
X98694534Y-145266614D01*
X98695586Y-145279585D01*
X98694623Y-145292568D01*
X98694897Y-145301500D01*
X98719158Y-145944945D01*
X98721294Y-145960620D01*
X98721124Y-145976439D01*
X98721963Y-145985336D01*
X98781354Y-146571595D01*
X98785037Y-146589884D01*
X98786181Y-146608502D01*
X98787659Y-146617315D01*
X98840969Y-146922226D01*
X98849099Y-146951508D01*
X98854247Y-146981456D01*
X98856674Y-146990057D01*
X99020402Y-147555319D01*
X99031407Y-147582899D01*
X99039530Y-147611478D01*
X99042859Y-147619771D01*
X99289304Y-148221661D01*
X99300695Y-148243204D01*
X99309438Y-148265954D01*
X99313498Y-148273915D01*
X99613242Y-148851598D01*
X99628716Y-148875404D01*
X99641562Y-148900724D01*
X99646417Y-148908227D01*
X99970044Y-149400869D01*
X99986973Y-149421848D01*
X100001468Y-149444581D01*
X100007034Y-149451573D01*
X100127713Y-149601011D01*
X100152882Y-149626602D01*
X100175832Y-149654200D01*
X100182233Y-149660436D01*
X100603043Y-150064722D01*
X100633130Y-150088443D01*
X100661337Y-150114375D01*
X100668512Y-150119702D01*
X101206448Y-150513315D01*
X101232039Y-150528446D01*
X101255955Y-150546126D01*
X101263657Y-150550658D01*
X101867995Y-150900618D01*
X101895892Y-150913316D01*
X101922394Y-150928735D01*
X101930545Y-150932396D01*
X102550551Y-151205723D01*
X102565964Y-151210788D01*
X102580485Y-151218025D01*
X102588856Y-151221153D01*
X102595499Y-151223583D01*
X102599760Y-151224684D01*
X102603754Y-151226539D01*
X102612208Y-151229435D01*
X103057540Y-151378505D01*
X103072774Y-151381996D01*
X103087332Y-151387677D01*
X103095951Y-151390038D01*
X103547551Y-151510338D01*
X103564221Y-151513073D01*
X103580331Y-151518152D01*
X103589088Y-151519933D01*
X104073741Y-151615011D01*
X104088350Y-151616417D01*
X104102587Y-151619988D01*
X104111434Y-151621244D01*
X104655920Y-151694652D01*
X104666399Y-151695032D01*
X104676682Y-151697107D01*
X104685578Y-151697948D01*
X105316680Y-151753236D01*
X105322710Y-151753174D01*
X105328663Y-151754173D01*
X105337583Y-151754723D01*
X106082082Y-151795442D01*
X106084365Y-151795344D01*
X106086631Y-151795675D01*
X106095560Y-151796037D01*
X106980239Y-151825736D01*
X106980397Y-151825726D01*
X106985188Y-151825883D01*
X107065643Y-151827961D01*
X107065664Y-151827959D01*
X107065959Y-151827969D01*
X108537667Y-151865252D01*
X108537667Y-158157334D01*
X108543544Y-158217272D01*
X108549003Y-158277258D01*
X108549637Y-158279413D01*
X108549856Y-158281644D01*
X108567241Y-158339225D01*
X108584269Y-158397082D01*
X108585310Y-158399074D01*
X108585958Y-158401219D01*
X108614243Y-158454416D01*
X108642138Y-158507774D01*
X108643541Y-158509519D01*
X108644597Y-158511505D01*
X108682672Y-158558188D01*
X108720404Y-158605119D01*
X108722126Y-158606564D01*
X108723542Y-158608300D01*
X108769871Y-158646627D01*
X108816088Y-158685407D01*
X108818058Y-158686490D01*
X108819784Y-158687918D01*
X108872676Y-158716517D01*
X108925544Y-158745581D01*
X108927687Y-158746261D01*
X108929657Y-158747326D01*
X108987172Y-158765130D01*
X109044604Y-158783348D01*
X109046832Y-158783598D01*
X109048977Y-158784262D01*
X109108844Y-158790554D01*
X109168731Y-158797272D01*
X109173046Y-158797302D01*
X109173199Y-158797318D01*
X109173352Y-158797304D01*
X109177667Y-158797334D01*
X111971667Y-158797334D01*
X112031605Y-158791457D01*
X112091591Y-158785998D01*
X112093746Y-158785364D01*
X112095977Y-158785145D01*
X112153558Y-158767760D01*
X112211415Y-158750732D01*
X112213407Y-158749691D01*
X112215552Y-158749043D01*
X112268749Y-158720758D01*
X112322107Y-158692863D01*
X112323852Y-158691460D01*
X112325838Y-158690404D01*
X112372521Y-158652329D01*
X112419452Y-158614597D01*
X112420897Y-158612875D01*
X112422633Y-158611459D01*
X112460960Y-158565130D01*
X112499740Y-158518913D01*
X112500823Y-158516943D01*
X112502251Y-158515217D01*
X112530850Y-158462325D01*
X112559914Y-158409457D01*
X112560594Y-158407314D01*
X112561659Y-158405344D01*
X112579463Y-158347829D01*
X112597681Y-158290397D01*
X112597931Y-158288169D01*
X112598595Y-158286024D01*
X112604887Y-158226157D01*
X112611605Y-158166270D01*
X112611635Y-158161955D01*
X112611651Y-158161802D01*
X112611637Y-158161649D01*
X112611667Y-158157334D01*
X112611667Y-145054806D01*
X114299509Y-145054806D01*
X114299516Y-145057111D01*
X114301654Y-145078252D01*
X114301050Y-145099492D01*
X114305744Y-145127329D01*
X114307076Y-145151002D01*
X114310263Y-145163398D01*
X114312082Y-145181383D01*
X114318285Y-145201704D01*
X114321818Y-145222659D01*
X114324217Y-145231267D01*
X114351384Y-145326189D01*
X114353201Y-145330784D01*
X114354164Y-145335626D01*
X114356814Y-145344160D01*
X114434179Y-145587279D01*
X114434243Y-145587427D01*
X114435523Y-145591452D01*
X114559027Y-145970553D01*
X114559070Y-145970652D01*
X114559656Y-145972473D01*
X114725241Y-146475350D01*
X114725267Y-146475410D01*
X114725619Y-146476496D01*
X114929224Y-147090937D01*
X114929245Y-147090984D01*
X114929489Y-147091735D01*
X115167056Y-147805530D01*
X115167072Y-147805566D01*
X115167260Y-147806142D01*
X115434729Y-148607083D01*
X115434744Y-148607118D01*
X115434900Y-148607593D01*
X115728212Y-149483467D01*
X115728225Y-149483495D01*
X115728364Y-149483920D01*
X116043460Y-150422517D01*
X116043471Y-150422541D01*
X116043602Y-150422940D01*
X116376423Y-151412050D01*
X116376430Y-151412065D01*
X116376521Y-151412342D01*
X116521459Y-151842398D01*
X116521461Y-151842404D01*
X116521488Y-151842484D01*
X118705404Y-158319484D01*
X118711455Y-158332927D01*
X118715437Y-158347126D01*
X118737050Y-158389789D01*
X118756672Y-158433383D01*
X118765219Y-158445394D01*
X118771883Y-158458550D01*
X118801375Y-158496209D01*
X118829087Y-158535156D01*
X118839801Y-158545276D01*
X118848896Y-158556890D01*
X118885134Y-158588097D01*
X118919889Y-158620926D01*
X118932372Y-158628776D01*
X118943543Y-158638397D01*
X118985154Y-158661972D01*
X119025623Y-158687424D01*
X119039384Y-158692697D01*
X119052219Y-158699969D01*
X119097632Y-158715017D01*
X119142259Y-158732118D01*
X119156784Y-158734618D01*
X119170786Y-158739258D01*
X119218254Y-158745200D01*
X119265354Y-158753307D01*
X119280084Y-158752939D01*
X119294724Y-158754771D01*
X119303659Y-158754947D01*
X121084869Y-158777769D01*
X121084929Y-158777764D01*
X121085930Y-158777782D01*
X121681120Y-158784422D01*
X121681277Y-158784408D01*
X121685990Y-158784458D01*
X122133703Y-158786045D01*
X122135306Y-158785894D01*
X122136915Y-158786049D01*
X122145850Y-158785973D01*
X122467901Y-158781001D01*
X122477559Y-158779903D01*
X122487271Y-158780409D01*
X122496194Y-158779938D01*
X122714401Y-158766900D01*
X122743158Y-158762335D01*
X122772231Y-158760798D01*
X122781056Y-158759396D01*
X122917238Y-158736785D01*
X122930695Y-158733172D01*
X122944533Y-158731641D01*
X122990909Y-158717007D01*
X123037873Y-158704399D01*
X123050360Y-158698247D01*
X123063649Y-158694054D01*
X123071843Y-158690488D01*
X123147817Y-158656799D01*
X123166337Y-158646315D01*
X123186051Y-158638303D01*
X123220565Y-158615617D01*
X123256514Y-158595266D01*
X123272647Y-158581383D01*
X123290428Y-158569695D01*
X123319880Y-158540736D01*
X123351190Y-158513792D01*
X123364316Y-158497044D01*
X123379492Y-158482122D01*
X123385174Y-158475225D01*
X123422758Y-158428950D01*
X123434336Y-158411446D01*
X123448080Y-158395598D01*
X123468713Y-158359474D01*
X123491667Y-158324772D01*
X123499621Y-158305362D01*
X123510030Y-158287138D01*
X123513626Y-158278957D01*
X123519942Y-158264315D01*
X123525031Y-158248400D01*
X123532345Y-158233371D01*
X123535394Y-158224971D01*
X123560788Y-158153452D01*
X128678427Y-158153452D01*
X128684049Y-158214603D01*
X128689751Y-158277258D01*
X128689835Y-158277545D01*
X128689862Y-158277834D01*
X128707199Y-158336543D01*
X128725017Y-158397082D01*
X128725156Y-158397347D01*
X128725238Y-158397626D01*
X128754016Y-158452552D01*
X128782886Y-158507774D01*
X128783069Y-158508002D01*
X128783207Y-158508265D01*
X128822080Y-158556522D01*
X128861152Y-158605119D01*
X128861381Y-158605311D01*
X128861563Y-158605537D01*
X128908799Y-158645099D01*
X128956836Y-158685407D01*
X128957094Y-158685549D01*
X128957320Y-158685738D01*
X129011492Y-158715454D01*
X129066292Y-158745581D01*
X129066576Y-158745671D01*
X129066831Y-158745811D01*
X129126008Y-158764524D01*
X129185352Y-158783348D01*
X129185642Y-158783381D01*
X129185925Y-158783470D01*
X129247456Y-158790315D01*
X129309479Y-158797272D01*
X129310037Y-158797276D01*
X129310065Y-158797279D01*
X129310097Y-158797276D01*
X129318415Y-158797334D01*
X131760651Y-158797334D01*
X131777339Y-158795698D01*
X131794095Y-158796460D01*
X131839392Y-158789613D01*
X131884961Y-158785145D01*
X131901011Y-158780299D01*
X131917598Y-158777792D01*
X131960698Y-158762278D01*
X132004536Y-158749043D01*
X132019345Y-158741169D01*
X132035123Y-158735490D01*
X132074379Y-158711908D01*
X132114822Y-158690404D01*
X132127817Y-158679805D01*
X132142195Y-158671168D01*
X132176134Y-158640399D01*
X132211617Y-158611459D01*
X132222305Y-158598540D01*
X132234732Y-158587273D01*
X132262047Y-158550500D01*
X132291235Y-158515217D01*
X132299210Y-158500467D01*
X132309212Y-158487002D01*
X132328860Y-158445630D01*
X132350643Y-158405344D01*
X132355603Y-158389320D01*
X132362797Y-158374173D01*
X132374035Y-158329776D01*
X132387579Y-158286024D01*
X132389332Y-158269349D01*
X132393448Y-158253087D01*
X132394723Y-158244242D01*
X132448564Y-157851424D01*
X132448887Y-157843027D01*
X132450620Y-157834809D01*
X132451540Y-157825920D01*
X132458052Y-157758361D01*
X132586994Y-157874951D01*
X132629055Y-157906097D01*
X132670100Y-157938560D01*
X132677651Y-157943340D01*
X133429043Y-158411776D01*
X133473455Y-158433765D01*
X133516953Y-158457539D01*
X133525200Y-158460981D01*
X134250572Y-158757871D01*
X134295346Y-158771269D01*
X134339423Y-158786864D01*
X134348113Y-158788947D01*
X134873717Y-158911108D01*
X134903419Y-158915010D01*
X134932570Y-158921915D01*
X134941433Y-158923054D01*
X135553985Y-158997458D01*
X135575888Y-158997965D01*
X135597551Y-159001245D01*
X135606477Y-159001652D01*
X136246480Y-159026349D01*
X136268530Y-159025043D01*
X136290577Y-159026531D01*
X136299507Y-159026197D01*
X136907461Y-158999242D01*
X136938044Y-158994868D01*
X136968917Y-158993539D01*
X136977755Y-158992223D01*
X137494164Y-158911667D01*
X137519342Y-158905171D01*
X137545098Y-158901590D01*
X137553772Y-158899441D01*
X137618896Y-158882822D01*
X137650583Y-158871341D01*
X137683171Y-158862764D01*
X137691527Y-158859599D01*
X138415236Y-158579669D01*
X138415722Y-158579424D01*
X138416244Y-158579278D01*
X138471841Y-158551142D01*
X138526777Y-158523456D01*
X138527201Y-158523126D01*
X138527690Y-158522878D01*
X138535198Y-158518031D01*
X139166359Y-158104331D01*
X139166410Y-158104290D01*
X139166465Y-158104261D01*
X139215241Y-158064968D01*
X139263644Y-158025991D01*
X139263684Y-158025943D01*
X139263735Y-158025902D01*
X139270069Y-158019599D01*
X139798822Y-157486127D01*
X139837034Y-157439183D01*
X139875565Y-157392418D01*
X139877578Y-157389375D01*
X139877674Y-157389257D01*
X139877747Y-157389119D01*
X139880495Y-157384965D01*
X140296984Y-156745724D01*
X140323631Y-156694503D01*
X140351036Y-156643679D01*
X140354432Y-156635413D01*
X140648797Y-155904398D01*
X140664143Y-155852034D01*
X140680780Y-155800067D01*
X140682600Y-155791318D01*
X140844983Y-154982532D01*
X140849139Y-154941271D01*
X140856005Y-154900353D01*
X140856554Y-154891434D01*
X140886661Y-154339883D01*
X140884852Y-154298038D01*
X140885746Y-154256160D01*
X140885002Y-154247255D01*
X140845502Y-153811259D01*
X140845500Y-153811250D01*
X140807951Y-153396796D01*
X140797174Y-153340177D01*
X140787250Y-153283382D01*
X140784800Y-153274788D01*
X140556541Y-152494808D01*
X140533884Y-152438482D01*
X140511507Y-152381975D01*
X140509982Y-152379060D01*
X140509928Y-152378925D01*
X140509846Y-152378799D01*
X140507365Y-152374056D01*
X140133375Y-151670816D01*
X140099870Y-151620396D01*
X140066650Y-151569751D01*
X140064326Y-151566909D01*
X140064244Y-151566785D01*
X140064137Y-151566677D01*
X140060994Y-151562833D01*
X139546748Y-150942598D01*
X139506154Y-150902375D01*
X139466191Y-150861442D01*
X139459313Y-150855736D01*
X138810290Y-150324772D01*
X138767304Y-150296118D01*
X138725282Y-150266006D01*
X138717513Y-150261589D01*
X137939189Y-149826159D01*
X137897613Y-149807974D01*
X137857069Y-149787586D01*
X137848709Y-149784428D01*
X136946563Y-149450798D01*
X136923526Y-149444756D01*
X136901382Y-149435972D01*
X136892777Y-149433564D01*
X136635149Y-149363388D01*
X136619722Y-149360768D01*
X136604838Y-149355920D01*
X136596099Y-149354056D01*
X136114998Y-149254930D01*
X136101466Y-149253498D01*
X136088308Y-149250018D01*
X136079477Y-149248649D01*
X135471643Y-149158755D01*
X135464357Y-149158397D01*
X135457246Y-149156793D01*
X135448371Y-149155749D01*
X134756323Y-149079201D01*
X134751230Y-149079138D01*
X134746233Y-149078166D01*
X134737331Y-149077387D01*
X134003592Y-149018304D01*
X133998692Y-149018389D01*
X133993852Y-149017594D01*
X133984931Y-149017075D01*
X133252023Y-148979570D01*
X133246279Y-148979838D01*
X133240579Y-148979087D01*
X133231646Y-148978853D01*
X132643302Y-148967515D01*
X132711078Y-148474844D01*
X132811434Y-148119318D01*
X132927953Y-147906017D01*
X133082888Y-147750376D01*
X133258586Y-147641316D01*
X133632004Y-147505836D01*
X134154816Y-147416403D01*
X134806967Y-147384697D01*
X135550983Y-147416505D01*
X136354841Y-147512650D01*
X137189129Y-147672083D01*
X138032384Y-147894556D01*
X138395665Y-148010889D01*
X138728328Y-148121238D01*
X138728431Y-148121261D01*
X138728525Y-148121303D01*
X138737028Y-148124054D01*
X139012169Y-148210980D01*
X139016136Y-148211818D01*
X139019889Y-148213366D01*
X139028462Y-148215890D01*
X139203778Y-148266192D01*
X139226768Y-148270415D01*
X139249072Y-148277418D01*
X139257831Y-148279189D01*
X139297095Y-148286843D01*
X139319086Y-148288934D01*
X139340629Y-148293782D01*
X139381118Y-148294831D01*
X139421441Y-148298664D01*
X139443412Y-148296444D01*
X139465493Y-148297016D01*
X139505422Y-148290179D01*
X139545714Y-148286108D01*
X139566836Y-148279663D01*
X139588607Y-148275935D01*
X139626442Y-148261475D01*
X139665182Y-148249654D01*
X139684650Y-148239229D01*
X139705283Y-148231343D01*
X139739594Y-148209806D01*
X139775294Y-148190688D01*
X139792366Y-148176680D01*
X139811074Y-148164937D01*
X139840551Y-148137143D01*
X139871856Y-148111457D01*
X139885878Y-148094405D01*
X139901953Y-148079248D01*
X139925469Y-148046259D01*
X139951189Y-148014981D01*
X139961636Y-147995522D01*
X139974456Y-147977538D01*
X139991114Y-147940617D01*
X140010272Y-147904933D01*
X140016739Y-147883819D01*
X140025824Y-147863684D01*
X140028627Y-147855199D01*
X140054251Y-147775787D01*
X140054593Y-147774215D01*
X140055224Y-147772743D01*
X140067863Y-147713273D01*
X140080825Y-147653740D01*
X140080855Y-147652136D01*
X140081189Y-147650566D01*
X140082122Y-147641679D01*
X140103413Y-147424434D01*
X140103412Y-147412414D01*
X140105304Y-147400541D01*
X140105780Y-147391617D01*
X140120766Y-147068019D01*
X140120510Y-147063052D01*
X140121148Y-147058117D01*
X140121360Y-147049183D01*
X140128067Y-146650715D01*
X140128051Y-146650516D01*
X140128074Y-146650314D01*
X140128156Y-146641378D01*
X140128332Y-146562836D01*
X140128325Y-146562759D01*
X140128334Y-146561402D01*
X140128334Y-145464137D01*
X140125695Y-145437226D01*
X140126056Y-145410186D01*
X140119615Y-145375215D01*
X140116145Y-145339827D01*
X140108329Y-145313939D01*
X140103431Y-145287346D01*
X140090320Y-145254292D01*
X140080043Y-145220252D01*
X140067349Y-145196378D01*
X140057378Y-145171239D01*
X140038097Y-145141361D01*
X140021404Y-145109966D01*
X140004313Y-145089011D01*
X139989650Y-145066289D01*
X139964928Y-145040721D01*
X139942459Y-145013171D01*
X139921630Y-144995940D01*
X139902827Y-144976493D01*
X139873608Y-144956212D01*
X139846217Y-144933553D01*
X139822433Y-144920693D01*
X139800215Y-144905272D01*
X139767618Y-144891055D01*
X139736344Y-144874145D01*
X139710518Y-144866150D01*
X139685725Y-144855337D01*
X139677206Y-144852641D01*
X139125191Y-144682141D01*
X139121411Y-144681368D01*
X139117832Y-144679916D01*
X139109246Y-144677442D01*
X138348069Y-144463829D01*
X138332302Y-144461027D01*
X138317098Y-144455965D01*
X138308371Y-144454045D01*
X137578832Y-144298776D01*
X137560328Y-144296695D01*
X137542276Y-144292098D01*
X137533433Y-144290810D01*
X136787675Y-144187489D01*
X136770845Y-144186817D01*
X136754289Y-144183754D01*
X136745380Y-144183056D01*
X135935540Y-144125291D01*
X135923647Y-144125607D01*
X135911853Y-144124042D01*
X135902920Y-144123799D01*
X134981142Y-144105194D01*
X134978814Y-144105375D01*
X134976493Y-144105117D01*
X134967557Y-144105064D01*
X134830997Y-144105207D01*
X134830959Y-144105211D01*
X134822541Y-144105272D01*
X134035203Y-144116500D01*
X134028804Y-144117220D01*
X134022368Y-144116811D01*
X134013440Y-144117181D01*
X133363504Y-144148586D01*
X133350426Y-144150509D01*
X133337203Y-144150400D01*
X133328308Y-144151261D01*
X132784537Y-144207711D01*
X132764196Y-144211859D01*
X132743483Y-144213321D01*
X132734683Y-144214879D01*
X132265840Y-144301241D01*
X132240756Y-144308451D01*
X132215008Y-144312762D01*
X132206397Y-144315151D01*
X131781244Y-144436295D01*
X131757406Y-144445688D01*
X131732635Y-144452272D01*
X131724287Y-144455459D01*
X131311587Y-144616251D01*
X131300361Y-144621943D01*
X131288381Y-144625820D01*
X131280213Y-144629446D01*
X131128507Y-144698052D01*
X131106993Y-144710440D01*
X131084163Y-144720212D01*
X131076360Y-144724568D01*
X130516472Y-145042280D01*
X130468285Y-145076239D01*
X130419719Y-145109672D01*
X130414457Y-145114173D01*
X130414372Y-145114233D01*
X130414306Y-145114302D01*
X130412928Y-145115481D01*
X129963952Y-145504999D01*
X129961116Y-145507992D01*
X129957788Y-145510417D01*
X129918183Y-145553304D01*
X129878042Y-145595668D01*
X129875845Y-145599149D01*
X129873047Y-145602179D01*
X129867704Y-145609342D01*
X129510301Y-146095507D01*
X129480735Y-146145259D01*
X129450431Y-146194634D01*
X129446578Y-146202697D01*
X129161417Y-146810349D01*
X129149452Y-146844062D01*
X129134706Y-146876666D01*
X129131895Y-146885149D01*
X128954208Y-147434099D01*
X128951726Y-147445447D01*
X128947473Y-147456265D01*
X128945091Y-147464878D01*
X128906084Y-147609827D01*
X128904999Y-147616340D01*
X128902795Y-147622568D01*
X128900712Y-147631258D01*
X128867485Y-147774224D01*
X128865968Y-147785775D01*
X128862637Y-147796944D01*
X128860993Y-147805727D01*
X128832986Y-147961322D01*
X128832030Y-147973189D01*
X128829213Y-147984765D01*
X128828020Y-147993621D01*
X128804670Y-148176450D01*
X128804411Y-148185300D01*
X128802675Y-148193988D01*
X128801850Y-148202886D01*
X128782597Y-148427560D01*
X128782659Y-148432592D01*
X128781818Y-148437562D01*
X128781258Y-148446481D01*
X128765542Y-148727611D01*
X128765619Y-148729443D01*
X128765347Y-148731268D01*
X128764962Y-148740196D01*
X128752221Y-149092388D01*
X128752225Y-149092453D01*
X128751981Y-149100437D01*
X128741655Y-149538304D01*
X128741666Y-149538458D01*
X128741556Y-149543317D01*
X128733083Y-150081468D01*
X128733095Y-150081612D01*
X128733043Y-150084507D01*
X128725863Y-150737549D01*
X128725871Y-150737643D01*
X128725846Y-150739311D01*
X128719398Y-151521856D01*
X128719403Y-151521912D01*
X128719391Y-151522794D01*
X128713114Y-152449449D01*
X128713116Y-152449468D01*
X128713111Y-152449827D01*
X128708340Y-153221543D01*
X128708341Y-153221552D01*
X128708340Y-153221618D01*
X128678427Y-158153452D01*
X123560788Y-158153452D01*
X123579904Y-158099616D01*
X123579935Y-158099490D01*
X123582008Y-158093595D01*
X123673929Y-157826298D01*
X123673951Y-157826204D01*
X123674532Y-157824538D01*
X123808948Y-157429944D01*
X123808961Y-157429889D01*
X123809237Y-157429093D01*
X123981233Y-156921845D01*
X123981241Y-156921812D01*
X123981406Y-156921334D01*
X124186065Y-156316078D01*
X124186069Y-156316059D01*
X124186183Y-156315730D01*
X124418590Y-155627111D01*
X124418595Y-155627091D01*
X124418677Y-155626852D01*
X124673916Y-154869515D01*
X124673919Y-154869501D01*
X124673986Y-154869307D01*
X124947140Y-154057896D01*
X124947142Y-154057888D01*
X124947199Y-154057722D01*
X125233353Y-153206882D01*
X125233356Y-153206868D01*
X125233405Y-153206726D01*
X125527643Y-152331103D01*
X125527644Y-152331099D01*
X125527693Y-152330956D01*
X125825099Y-151445195D01*
X125825103Y-151445179D01*
X125825147Y-151445050D01*
X126120805Y-150563795D01*
X126120807Y-150563785D01*
X126120856Y-150563643D01*
X126409849Y-149701539D01*
X126409852Y-149701526D01*
X126409904Y-149701374D01*
X126687319Y-148873066D01*
X126687323Y-148873048D01*
X126687382Y-148872876D01*
X126948300Y-148093009D01*
X126948303Y-148092994D01*
X126948378Y-148092776D01*
X127187884Y-147375995D01*
X127187888Y-147375979D01*
X127187986Y-147375691D01*
X127401163Y-146736639D01*
X127401169Y-146736612D01*
X127401305Y-146736213D01*
X127583240Y-146189538D01*
X127583250Y-146189496D01*
X127583465Y-146188861D01*
X127729239Y-145749207D01*
X127729256Y-145749130D01*
X127729657Y-145747941D01*
X127834356Y-145429953D01*
X127834388Y-145429810D01*
X127835454Y-145426588D01*
X127894161Y-145244909D01*
X127895058Y-145240800D01*
X127896685Y-145236920D01*
X127899261Y-145228363D01*
X127910429Y-145190313D01*
X127912483Y-145179502D01*
X127916241Y-145169174D01*
X127924118Y-145118262D01*
X127933743Y-145067602D01*
X127933658Y-145056602D01*
X127935339Y-145045737D01*
X127933176Y-144994249D01*
X127932778Y-144942700D01*
X127930558Y-144931928D01*
X127930097Y-144920941D01*
X127917977Y-144870863D01*
X127907572Y-144820363D01*
X127903301Y-144810223D01*
X127900715Y-144799540D01*
X127879089Y-144752748D01*
X127859082Y-144705253D01*
X127852930Y-144696147D01*
X127848313Y-144686157D01*
X127818000Y-144644443D01*
X127789159Y-144601753D01*
X127781351Y-144594011D01*
X127774885Y-144585113D01*
X127737046Y-144550080D01*
X127700464Y-144513807D01*
X127691306Y-144507732D01*
X127683230Y-144500255D01*
X127639311Y-144473242D01*
X127596376Y-144444762D01*
X127586204Y-144440578D01*
X127576837Y-144434817D01*
X127528514Y-144416851D01*
X127480859Y-144397250D01*
X127470076Y-144395123D01*
X127459761Y-144391288D01*
X127451106Y-144389067D01*
X127371031Y-144369110D01*
X127322657Y-144361971D01*
X127274632Y-144352781D01*
X127265728Y-144352029D01*
X127043856Y-144334828D01*
X127036179Y-144334984D01*
X127028576Y-144333826D01*
X127019650Y-144333412D01*
X126683508Y-144320133D01*
X126681537Y-144320248D01*
X126679573Y-144319989D01*
X126670640Y-144319754D01*
X126247909Y-144311565D01*
X126247901Y-144311564D01*
X126247788Y-144311563D01*
X126247758Y-144311562D01*
X126247756Y-144311562D01*
X126238966Y-144311452D01*
X125864584Y-144309344D01*
X125864433Y-144309358D01*
X125860980Y-144309334D01*
X124425627Y-144309334D01*
X124389140Y-144312912D01*
X124352464Y-144313529D01*
X124327113Y-144318994D01*
X124301317Y-144321523D01*
X124266217Y-144332120D01*
X124230363Y-144339849D01*
X124206557Y-144350133D01*
X124181742Y-144357625D01*
X124149371Y-144374837D01*
X124115698Y-144389383D01*
X124094345Y-144404094D01*
X124071456Y-144416264D01*
X124043037Y-144439443D01*
X124012839Y-144460247D01*
X123994752Y-144478823D01*
X123974661Y-144495209D01*
X123951288Y-144523462D01*
X123925703Y-144549739D01*
X123911567Y-144571476D01*
X123895043Y-144591451D01*
X123877603Y-144623706D01*
X123857609Y-144654452D01*
X123847964Y-144678521D01*
X123835635Y-144701324D01*
X123824793Y-144736347D01*
X123811150Y-144770396D01*
X123808712Y-144778993D01*
X123729413Y-145066187D01*
X123549679Y-145711978D01*
X123346392Y-146433410D01*
X123123625Y-147216682D01*
X122885799Y-148046761D01*
X122637448Y-148908227D01*
X122382807Y-149786697D01*
X122126091Y-150667855D01*
X121872023Y-151535641D01*
X121624725Y-152376071D01*
X121388756Y-153173654D01*
X121168002Y-153915176D01*
X121042728Y-154332786D01*
X120885412Y-153789566D01*
X120885410Y-153789561D01*
X120656277Y-152995597D01*
X120407886Y-152132343D01*
X120407864Y-152132265D01*
X120143664Y-151211594D01*
X120143661Y-151211587D01*
X119942691Y-150509679D01*
X119942688Y-150509672D01*
X118301987Y-144774011D01*
X118289620Y-144742717D01*
X118280125Y-144710426D01*
X118266718Y-144684765D01*
X118256080Y-144657847D01*
X118237869Y-144629549D01*
X118222284Y-144599720D01*
X118204150Y-144577153D01*
X118188485Y-144552812D01*
X118165129Y-144528594D01*
X118144043Y-144502355D01*
X118121867Y-144483738D01*
X118101776Y-144462906D01*
X118074158Y-144443685D01*
X118048379Y-144422043D01*
X118023008Y-144408087D01*
X117999254Y-144391555D01*
X117968436Y-144378068D01*
X117938938Y-144361841D01*
X117911337Y-144353078D01*
X117884827Y-144341476D01*
X117851969Y-144334229D01*
X117819887Y-144324044D01*
X117791118Y-144320810D01*
X117762853Y-144314576D01*
X117729214Y-144313850D01*
X117695764Y-144310089D01*
X117686828Y-144310025D01*
X116310995Y-144309679D01*
X116310843Y-144309694D01*
X116307192Y-144309689D01*
X115766743Y-144312765D01*
X115764434Y-144313005D01*
X115762121Y-144312808D01*
X115753186Y-144312986D01*
X115363897Y-144323452D01*
X115353021Y-144324814D01*
X115342067Y-144324412D01*
X115333152Y-144325019D01*
X115076954Y-144344266D01*
X115040219Y-144350675D01*
X115003104Y-144354164D01*
X114994344Y-144355926D01*
X114853170Y-144385343D01*
X114811354Y-144398424D01*
X114768817Y-144409046D01*
X114751850Y-144417038D01*
X114733960Y-144422634D01*
X114695475Y-144443591D01*
X114655818Y-144462270D01*
X114640729Y-144473403D01*
X114624264Y-144482369D01*
X114590580Y-144510404D01*
X114555309Y-144536427D01*
X114548712Y-144542456D01*
X114504494Y-144583432D01*
X114497977Y-144590778D01*
X114490334Y-144596961D01*
X114464533Y-144627900D01*
X114455246Y-144636735D01*
X114447608Y-144647551D01*
X114421599Y-144676867D01*
X114416633Y-144685338D01*
X114410337Y-144692888D01*
X114392455Y-144725651D01*
X114383194Y-144738765D01*
X114376460Y-144753868D01*
X114358432Y-144784623D01*
X114355206Y-144793898D01*
X114350496Y-144802527D01*
X114340337Y-144834894D01*
X114332333Y-144852847D01*
X114327844Y-144872559D01*
X114317396Y-144902596D01*
X114316031Y-144912334D01*
X114313091Y-144921701D01*
X114309814Y-144951734D01*
X114304599Y-144974636D01*
X114303912Y-144998795D01*
X114300058Y-145026293D01*
X114300610Y-145036100D01*
X114299544Y-145045869D01*
X114299509Y-145054806D01*
X112611667Y-145054806D01*
X112611667Y-140165775D01*
X120459080Y-140165775D01*
X120699226Y-140553018D01*
X121193127Y-140813641D01*
X121728383Y-140972901D01*
X122284424Y-141024678D01*
X122839882Y-140966981D01*
X123373411Y-140802028D01*
X123839274Y-140553018D01*
X124079420Y-140165775D01*
X122269250Y-138355605D01*
X120459080Y-140165775D01*
X112611667Y-140165775D01*
X112611667Y-139599820D01*
X112611522Y-139598341D01*
X112611660Y-139596864D01*
X112605422Y-139536133D01*
X112599478Y-139475510D01*
X112599050Y-139474093D01*
X112598898Y-139472612D01*
X112580931Y-139414079D01*
X112563376Y-139355935D01*
X112562683Y-139354631D01*
X112562245Y-139353205D01*
X112533349Y-139299462D01*
X112504737Y-139245649D01*
X112503795Y-139244494D01*
X112503095Y-139243192D01*
X112464315Y-139196087D01*
X112425792Y-139148854D01*
X112424654Y-139147913D01*
X112423706Y-139146761D01*
X112376366Y-139107966D01*
X112329550Y-139069236D01*
X112328247Y-139068532D01*
X112327097Y-139067589D01*
X112273184Y-139038759D01*
X112219677Y-139009828D01*
X112218264Y-139009391D01*
X112216950Y-139008688D01*
X112158579Y-138990915D01*
X112100357Y-138972892D01*
X112098877Y-138972736D01*
X112097460Y-138972305D01*
X112036724Y-138966204D01*
X111976135Y-138959836D01*
X111974663Y-138959970D01*
X111973180Y-138959821D01*
X111964244Y-138959863D01*
X108387077Y-139001358D01*
X108387036Y-139001363D01*
X108386424Y-139001366D01*
X107444306Y-139013255D01*
X107444186Y-139013268D01*
X107441875Y-139013290D01*
X106649150Y-139026306D01*
X106648990Y-139026324D01*
X106644425Y-139026401D01*
X105981156Y-139042191D01*
X105981098Y-139042198D01*
X105973050Y-139042436D01*
X105419297Y-139062643D01*
X105417362Y-139062904D01*
X105415401Y-139062796D01*
X105406476Y-139063239D01*
X104942303Y-139089507D01*
X104937411Y-139090268D01*
X104932461Y-139090140D01*
X104923553Y-139090845D01*
X104529021Y-139124820D01*
X104521091Y-139126293D01*
X104513022Y-139126400D01*
X104504148Y-139127452D01*
X104159318Y-139170777D01*
X104149365Y-139173031D01*
X104139181Y-139173633D01*
X104130364Y-139175090D01*
X103815297Y-139229410D01*
X103805626Y-139232070D01*
X103795642Y-139233115D01*
X103786900Y-139234970D01*
X103481658Y-139301930D01*
X103474871Y-139304132D01*
X103467795Y-139305132D01*
X103459126Y-139307302D01*
X103143772Y-139388545D01*
X103141770Y-139389275D01*
X103139655Y-139389619D01*
X103131033Y-139391967D01*
X102862882Y-139466975D01*
X102842050Y-139475067D01*
X102820358Y-139480484D01*
X102811962Y-139483544D01*
X101927825Y-139812752D01*
X101885012Y-139833655D01*
X101841279Y-139852541D01*
X101833491Y-139856923D01*
X101049010Y-140305442D01*
X101007967Y-140334565D01*
X100965837Y-140362110D01*
X100958910Y-140367755D01*
X100285732Y-140924214D01*
X100248341Y-140961838D01*
X100209866Y-140998328D01*
X100204061Y-141005121D01*
X99653835Y-141658152D01*
X99622420Y-141703832D01*
X99590014Y-141748797D01*
X99585576Y-141756553D01*
X99169949Y-142494787D01*
X99147837Y-142544971D01*
X99124527Y-142594622D01*
X99121596Y-142603064D01*
X98866254Y-143355353D01*
X98855614Y-143400901D01*
X98842747Y-143445865D01*
X98841201Y-143454667D01*
X98760160Y-143935398D01*
X98758488Y-143959499D01*
X98753938Y-143983240D01*
X98753183Y-143992144D01*
X98707227Y-144582825D01*
X98707529Y-144597854D01*
X98705602Y-144612763D01*
X98705390Y-144621697D01*
X98694534Y-145266614D01*
X97677208Y-145266614D01*
X97672320Y-145254292D01*
X97662043Y-145220252D01*
X97649349Y-145196378D01*
X97639378Y-145171239D01*
X97620097Y-145141361D01*
X97603404Y-145109966D01*
X97586313Y-145089011D01*
X97571650Y-145066289D01*
X97546928Y-145040721D01*
X97524459Y-145013171D01*
X97503630Y-144995940D01*
X97484827Y-144976493D01*
X97455608Y-144956212D01*
X97428217Y-144933553D01*
X97404433Y-144920693D01*
X97382215Y-144905272D01*
X97349618Y-144891055D01*
X97318344Y-144874145D01*
X97292518Y-144866150D01*
X97267725Y-144855337D01*
X97259206Y-144852641D01*
X96707191Y-144682141D01*
X96703411Y-144681368D01*
X96699832Y-144679916D01*
X96691246Y-144677442D01*
X95930069Y-144463829D01*
X95914302Y-144461027D01*
X95899098Y-144455965D01*
X95890371Y-144454045D01*
X95160832Y-144298776D01*
X95142328Y-144296695D01*
X95124276Y-144292098D01*
X95115433Y-144290810D01*
X94369675Y-144187489D01*
X94352845Y-144186817D01*
X94336289Y-144183754D01*
X94327380Y-144183056D01*
X93517540Y-144125291D01*
X93505647Y-144125607D01*
X93493853Y-144124042D01*
X93484920Y-144123799D01*
X92563142Y-144105194D01*
X92560814Y-144105375D01*
X92558493Y-144105117D01*
X92549557Y-144105064D01*
X92412997Y-144105207D01*
X92412959Y-144105211D01*
X92404541Y-144105272D01*
X91617203Y-144116500D01*
X91610804Y-144117220D01*
X91604368Y-144116811D01*
X91595440Y-144117181D01*
X90945504Y-144148586D01*
X90932426Y-144150509D01*
X90919203Y-144150400D01*
X90910308Y-144151261D01*
X90366537Y-144207711D01*
X90346196Y-144211859D01*
X90325483Y-144213321D01*
X90316683Y-144214879D01*
X89847840Y-144301241D01*
X89822756Y-144308451D01*
X89797008Y-144312762D01*
X89788397Y-144315151D01*
X89363244Y-144436295D01*
X89339406Y-144445688D01*
X89314635Y-144452272D01*
X89306287Y-144455459D01*
X88893587Y-144616251D01*
X88882361Y-144621943D01*
X88870381Y-144625820D01*
X88862213Y-144629446D01*
X88710507Y-144698052D01*
X88688993Y-144710440D01*
X88666163Y-144720212D01*
X88658360Y-144724568D01*
X88098472Y-145042280D01*
X88050285Y-145076239D01*
X88001719Y-145109672D01*
X87996457Y-145114173D01*
X87996372Y-145114233D01*
X87996306Y-145114302D01*
X87994928Y-145115481D01*
X87545952Y-145504999D01*
X87543116Y-145507992D01*
X87539788Y-145510417D01*
X87500183Y-145553304D01*
X87460042Y-145595668D01*
X87457845Y-145599149D01*
X87455047Y-145602179D01*
X87449704Y-145609342D01*
X87092301Y-146095507D01*
X87062735Y-146145259D01*
X87032431Y-146194634D01*
X87028578Y-146202697D01*
X86743417Y-146810349D01*
X86731452Y-146844062D01*
X86716706Y-146876666D01*
X86713895Y-146885149D01*
X86536208Y-147434099D01*
X86533726Y-147445447D01*
X86529473Y-147456265D01*
X86527091Y-147464878D01*
X86488084Y-147609827D01*
X86486999Y-147616340D01*
X86484795Y-147622568D01*
X86482712Y-147631258D01*
X86449485Y-147774224D01*
X86447968Y-147785775D01*
X86444637Y-147796944D01*
X86442993Y-147805727D01*
X86414986Y-147961322D01*
X86414030Y-147973189D01*
X86411213Y-147984765D01*
X86410020Y-147993621D01*
X86386670Y-148176450D01*
X86386411Y-148185300D01*
X86384675Y-148193988D01*
X86383850Y-148202886D01*
X86364597Y-148427560D01*
X86364659Y-148432592D01*
X86363818Y-148437562D01*
X86363258Y-148446481D01*
X86347542Y-148727611D01*
X86347619Y-148729443D01*
X86347347Y-148731268D01*
X86346962Y-148740196D01*
X86334221Y-149092388D01*
X86334225Y-149092453D01*
X86333981Y-149100437D01*
X86323655Y-149538304D01*
X86323666Y-149538458D01*
X86323556Y-149543317D01*
X86315083Y-150081468D01*
X86315095Y-150081612D01*
X86315043Y-150084507D01*
X86307863Y-150737549D01*
X86307871Y-150737643D01*
X86307846Y-150739311D01*
X86301398Y-151521856D01*
X86301403Y-151521912D01*
X86301391Y-151522794D01*
X86295114Y-152449449D01*
X86295116Y-152449468D01*
X86295111Y-152449827D01*
X86290340Y-153221543D01*
X86290341Y-153221552D01*
X86290340Y-153221618D01*
X86260427Y-158153452D01*
X81813991Y-158153452D01*
X81867481Y-158122609D01*
X81909900Y-158092275D01*
X81953298Y-158063314D01*
X81960172Y-158057603D01*
X82629753Y-157493420D01*
X82663456Y-157458862D01*
X82698667Y-157425836D01*
X82704510Y-157419075D01*
X83289993Y-156731946D01*
X83315537Y-156695238D01*
X83343084Y-156660009D01*
X83347822Y-156652432D01*
X83838855Y-155854979D01*
X83857189Y-155817425D01*
X83877920Y-155781138D01*
X83881517Y-155772958D01*
X84267751Y-154877802D01*
X84279797Y-154840144D01*
X84294522Y-154803440D01*
X84296963Y-154794843D01*
X84568047Y-153814606D01*
X84571788Y-153793078D01*
X84578237Y-153772184D01*
X84579965Y-153763416D01*
X84626351Y-153519146D01*
X84627809Y-153502972D01*
X84631588Y-153487174D01*
X84632746Y-153478313D01*
X84699441Y-152939135D01*
X84699863Y-152922491D01*
X84702663Y-152906070D01*
X84703235Y-152897152D01*
X84740073Y-152253782D01*
X84739663Y-152243677D01*
X84740909Y-152233634D01*
X84741076Y-152224699D01*
X84749315Y-151521889D01*
X84748643Y-151514091D01*
X84749308Y-151506291D01*
X84749132Y-151497356D01*
X84740374Y-151168368D01*
X84740374Y-151168367D01*
X84730031Y-150779856D01*
X84729033Y-150771874D01*
X84729404Y-150763832D01*
X84728880Y-150754911D01*
X84683695Y-150067473D01*
X84681911Y-150056649D01*
X84681888Y-150045670D01*
X84680935Y-150036785D01*
X84610926Y-149424157D01*
X84606899Y-149405405D01*
X84605446Y-149386280D01*
X84603841Y-149377490D01*
X84510265Y-148884423D01*
X84505748Y-148869022D01*
X84503512Y-148853135D01*
X84501348Y-148844464D01*
X84492931Y-148811711D01*
X84487970Y-148798088D01*
X84485100Y-148783859D01*
X84482427Y-148775332D01*
X84307710Y-148231222D01*
X84299280Y-148211742D01*
X84293430Y-148191336D01*
X84290082Y-148183050D01*
X84050350Y-147601289D01*
X84042479Y-147586482D01*
X84036798Y-147570696D01*
X84032910Y-147562650D01*
X83753013Y-146993609D01*
X83743363Y-146978040D01*
X83735956Y-146961296D01*
X83731507Y-146953546D01*
X83436292Y-146447596D01*
X83419957Y-146424999D01*
X83406162Y-146400765D01*
X83400953Y-146393504D01*
X83115271Y-146001015D01*
X83100893Y-145984849D01*
X83088689Y-145966970D01*
X83082907Y-145960157D01*
X83073240Y-145948925D01*
X83054150Y-145930694D01*
X83037240Y-145910424D01*
X83030829Y-145904198D01*
X82388529Y-145289065D01*
X82344635Y-145254571D01*
X82301463Y-145219167D01*
X82293999Y-145214254D01*
X81557039Y-144736509D01*
X81507777Y-144711024D01*
X81459097Y-144684469D01*
X81450848Y-144681033D01*
X80630736Y-144346145D01*
X80579420Y-144330835D01*
X80528579Y-144314103D01*
X80519845Y-144312212D01*
X79628088Y-144125650D01*
X79593994Y-144121936D01*
X79560358Y-144115228D01*
X79551459Y-144114406D01*
X79179290Y-144082641D01*
X79148424Y-144083030D01*
X79117672Y-144080363D01*
X79108737Y-144080526D01*
X78146730Y-144104774D01*
X78096776Y-144110947D01*
X78046636Y-144115212D01*
X78037860Y-144116896D01*
X77142555Y-144295189D01*
X77090558Y-144310950D01*
X77038154Y-144325388D01*
X77029834Y-144328650D01*
X76190636Y-144664373D01*
X76143957Y-144688573D01*
X76096526Y-144711329D01*
X76088917Y-144716016D01*
X75562232Y-145045513D01*
X75547913Y-142707623D01*
X75525837Y-139103414D01*
X75519794Y-139045445D01*
X75514513Y-138987410D01*
X75513323Y-138983368D01*
X75512887Y-138979181D01*
X75495712Y-138923528D01*
X75479247Y-138867586D01*
X75477294Y-138863850D01*
X75476053Y-138859829D01*
X75448371Y-138808527D01*
X75421378Y-138756894D01*
X75418742Y-138753616D01*
X75416740Y-138749905D01*
X75379633Y-138704973D01*
X75343112Y-138659549D01*
X75339881Y-138656838D01*
X75337203Y-138653595D01*
X75292131Y-138616771D01*
X75247428Y-138579261D01*
X75243732Y-138577229D01*
X75240475Y-138574568D01*
X75189094Y-138547192D01*
X75137972Y-138519087D01*
X75133955Y-138517813D01*
X75130241Y-138515834D01*
X75074481Y-138498947D01*
X75018912Y-138481320D01*
X75014727Y-138480851D01*
X75010697Y-138479630D01*
X74952749Y-138473898D01*
X74894785Y-138467396D01*
X74886427Y-138467338D01*
X74886397Y-138467335D01*
X74886370Y-138467338D01*
X74885849Y-138467334D01*
X72178334Y-138467334D01*
X72118396Y-138473211D01*
X72058410Y-138478670D01*
X72056255Y-138479304D01*
X72054024Y-138479523D01*
X71996443Y-138496908D01*
X71938586Y-138513936D01*
X71936594Y-138514977D01*
X71934449Y-138515625D01*
X71881252Y-138543910D01*
X71827894Y-138571805D01*
X71826149Y-138573208D01*
X71824163Y-138574264D01*
X71777480Y-138612339D01*
X71730549Y-138650071D01*
X71729104Y-138651793D01*
X71727368Y-138653209D01*
X71689041Y-138699538D01*
X71650261Y-138745755D01*
X71649178Y-138747725D01*
X71647750Y-138749451D01*
X71619151Y-138802343D01*
X71590087Y-138855211D01*
X71589407Y-138857354D01*
X71588342Y-138859324D01*
X71570538Y-138916839D01*
X71552320Y-138974271D01*
X71552070Y-138976499D01*
X71551406Y-138978644D01*
X71545114Y-139038511D01*
X71538396Y-139098398D01*
X71538366Y-139102713D01*
X71538350Y-139102866D01*
X71538364Y-139103019D01*
X71538334Y-139107334D01*
X63037471Y-139107334D01*
X63153651Y-138716867D01*
X63202602Y-138191174D01*
X119420572Y-138191174D01*
X119478269Y-138746632D01*
X119643222Y-139280161D01*
X119892232Y-139746024D01*
X120279475Y-139986170D01*
X122089645Y-138176000D01*
X122448855Y-138176000D01*
X124259025Y-139986170D01*
X124646268Y-139746024D01*
X124715230Y-139615334D01*
X142827667Y-139615334D01*
X142827667Y-158161428D01*
X142827968Y-158164494D01*
X142827697Y-158167556D01*
X142834056Y-158226588D01*
X142839856Y-158285738D01*
X142840745Y-158288684D01*
X142841075Y-158291744D01*
X142858794Y-158348463D01*
X142875958Y-158405313D01*
X142877402Y-158408029D01*
X142878320Y-158410967D01*
X142906691Y-158463114D01*
X142934597Y-158515599D01*
X142936545Y-158517987D01*
X142938013Y-158520686D01*
X142975997Y-158566360D01*
X143013542Y-158612394D01*
X143015909Y-158614353D01*
X143017880Y-158616722D01*
X143064085Y-158654206D01*
X143109784Y-158692012D01*
X143112487Y-158693473D01*
X143114880Y-158695415D01*
X143167488Y-158723212D01*
X143219657Y-158751420D01*
X143222592Y-158752328D01*
X143225318Y-158753769D01*
X143282251Y-158770796D01*
X143338977Y-158788356D01*
X143342042Y-158788678D01*
X143344987Y-158789559D01*
X143404118Y-158795202D01*
X143463199Y-158801412D01*
X143466261Y-158801133D01*
X143469327Y-158801426D01*
X143478263Y-158801340D01*
X144880217Y-158778126D01*
X146282170Y-158754912D01*
X146295762Y-158753352D01*
X146309435Y-158753879D01*
X146357712Y-158746240D01*
X146406261Y-158740667D01*
X146419289Y-158736497D01*
X146432807Y-158734358D01*
X146478688Y-158717484D01*
X146525222Y-158702590D01*
X146537193Y-158695969D01*
X146550037Y-158691245D01*
X146591758Y-158665787D01*
X146634522Y-158642133D01*
X146644981Y-158633310D01*
X146656660Y-158626184D01*
X146692631Y-158593116D01*
X146729997Y-158561597D01*
X146738546Y-158550907D01*
X146748615Y-158541651D01*
X146777482Y-158502222D01*
X146808010Y-158464050D01*
X146814316Y-158451911D01*
X146822401Y-158440868D01*
X146826897Y-158433145D01*
X153545481Y-146705857D01*
X153581327Y-158159337D01*
X153587293Y-158218277D01*
X153592660Y-158277258D01*
X153593578Y-158280377D01*
X153593905Y-158283608D01*
X153611191Y-158340220D01*
X153627926Y-158397082D01*
X153629433Y-158399964D01*
X153630381Y-158403070D01*
X153658371Y-158455318D01*
X153685795Y-158507774D01*
X153687827Y-158510302D01*
X153689365Y-158513172D01*
X153726950Y-158558962D01*
X153764061Y-158605119D01*
X153766555Y-158607212D01*
X153768613Y-158609719D01*
X153814327Y-158647297D01*
X153859745Y-158685407D01*
X153862593Y-158686973D01*
X153865103Y-158689036D01*
X153917282Y-158717038D01*
X153969201Y-158745581D01*
X153972300Y-158746564D01*
X153975162Y-158748100D01*
X154031825Y-158765446D01*
X154088261Y-158783348D01*
X154091487Y-158783710D01*
X154094597Y-158784662D01*
X154153523Y-158790669D01*
X154212388Y-158797272D01*
X154218732Y-158797316D01*
X154218859Y-158797329D01*
X154218979Y-158797318D01*
X154221324Y-158797334D01*
X156929667Y-158797334D01*
X156989605Y-158791457D01*
X157049591Y-158785998D01*
X157051746Y-158785364D01*
X157053977Y-158785145D01*
X157111558Y-158767760D01*
X157169415Y-158750732D01*
X157171407Y-158749691D01*
X157173552Y-158749043D01*
X157226749Y-158720758D01*
X157280107Y-158692863D01*
X157281852Y-158691460D01*
X157283838Y-158690404D01*
X157330521Y-158652329D01*
X157377452Y-158614597D01*
X157378897Y-158612875D01*
X157380633Y-158611459D01*
X157418960Y-158565130D01*
X157457740Y-158518913D01*
X157458823Y-158516943D01*
X157460251Y-158515217D01*
X157488850Y-158462325D01*
X157517914Y-158409457D01*
X157518594Y-158407314D01*
X157519659Y-158405344D01*
X157537463Y-158347829D01*
X157555681Y-158290397D01*
X157555931Y-158288169D01*
X157556595Y-158286024D01*
X157562887Y-158226157D01*
X157569605Y-158166270D01*
X157569635Y-158161955D01*
X157569651Y-158161802D01*
X157569637Y-158161649D01*
X157569667Y-158157334D01*
X157569667Y-157617475D01*
X160940330Y-157617475D01*
X162750500Y-159427645D01*
X164560670Y-157617475D01*
X164320524Y-157230232D01*
X163826623Y-156969609D01*
X163291367Y-156810349D01*
X162735326Y-156758572D01*
X162179868Y-156816269D01*
X161646339Y-156981222D01*
X161180476Y-157230232D01*
X160940330Y-157617475D01*
X157569667Y-157617475D01*
X157569667Y-139611139D01*
X157569353Y-139607934D01*
X157569634Y-139604736D01*
X157563266Y-139545856D01*
X157557478Y-139486829D01*
X157556549Y-139483751D01*
X157556203Y-139480554D01*
X157538494Y-139423952D01*
X157521376Y-139367254D01*
X157519868Y-139364418D01*
X157518907Y-139361346D01*
X157490569Y-139309314D01*
X157462737Y-139256968D01*
X157460701Y-139254472D01*
X157459166Y-139251653D01*
X157421268Y-139206122D01*
X157383792Y-139160173D01*
X157381317Y-139158125D01*
X157379258Y-139155652D01*
X157333161Y-139118288D01*
X157287550Y-139080555D01*
X157284726Y-139079028D01*
X157282224Y-139077000D01*
X157229714Y-139049283D01*
X157177677Y-139021147D01*
X157174611Y-139020198D01*
X157171762Y-139018694D01*
X157114935Y-139001725D01*
X157058357Y-138984211D01*
X157055157Y-138983875D01*
X157052077Y-138982955D01*
X156993073Y-138977350D01*
X156934135Y-138971155D01*
X156930935Y-138971446D01*
X156927732Y-138971142D01*
X156918796Y-138971231D01*
X154179980Y-139017759D01*
X154166323Y-139019333D01*
X154152602Y-139018812D01*
X154104402Y-139026468D01*
X154055895Y-139032058D01*
X154042814Y-139036251D01*
X154029242Y-139038407D01*
X153983425Y-139055289D01*
X153936950Y-139070186D01*
X153924932Y-139076840D01*
X153912038Y-139081591D01*
X153870382Y-139107044D01*
X153827676Y-139130690D01*
X153817178Y-139139553D01*
X153805454Y-139146717D01*
X153769533Y-139179779D01*
X153732236Y-139211268D01*
X153723660Y-139222000D01*
X153713550Y-139231306D01*
X153684727Y-139270724D01*
X153654265Y-139308848D01*
X153647940Y-139321036D01*
X153639826Y-139332133D01*
X153635335Y-139339859D01*
X149691910Y-146232809D01*
X146936502Y-151049152D01*
X146922336Y-146527445D01*
X146900674Y-139613329D01*
X146894711Y-139554417D01*
X146889341Y-139495410D01*
X146888422Y-139492287D01*
X146888095Y-139489058D01*
X146870821Y-139432483D01*
X146854075Y-139375586D01*
X146852568Y-139372702D01*
X146851619Y-139369596D01*
X146823637Y-139317364D01*
X146796206Y-139264894D01*
X146794172Y-139262365D01*
X146792635Y-139259495D01*
X146755041Y-139213694D01*
X146717940Y-139167549D01*
X146715448Y-139165458D01*
X146713387Y-139162947D01*
X146667656Y-139125356D01*
X146622256Y-139087261D01*
X146619406Y-139085694D01*
X146616896Y-139083631D01*
X146564761Y-139055653D01*
X146512800Y-139027087D01*
X146509696Y-139026103D01*
X146506837Y-139024568D01*
X146450232Y-139007240D01*
X146393740Y-138989320D01*
X146390511Y-138988958D01*
X146387402Y-138988006D01*
X146328498Y-138982001D01*
X146269613Y-138975396D01*
X146263267Y-138975352D01*
X146263140Y-138975339D01*
X146263020Y-138975350D01*
X146260677Y-138975334D01*
X143467667Y-138975334D01*
X143407729Y-138981211D01*
X143347743Y-138986670D01*
X143345588Y-138987304D01*
X143343357Y-138987523D01*
X143285776Y-139004908D01*
X143227919Y-139021936D01*
X143225927Y-139022977D01*
X143223782Y-139023625D01*
X143170585Y-139051910D01*
X143117227Y-139079805D01*
X143115482Y-139081208D01*
X143113496Y-139082264D01*
X143066813Y-139120339D01*
X143019882Y-139158071D01*
X143018437Y-139159793D01*
X143016701Y-139161209D01*
X142978374Y-139207538D01*
X142939594Y-139253755D01*
X142938511Y-139255725D01*
X142937083Y-139257451D01*
X142908484Y-139310343D01*
X142879420Y-139363211D01*
X142878740Y-139365354D01*
X142877675Y-139367324D01*
X142859871Y-139424839D01*
X142841653Y-139482271D01*
X142841403Y-139484499D01*
X142840739Y-139486644D01*
X142834447Y-139546511D01*
X142827729Y-139606398D01*
X142827699Y-139610713D01*
X142827683Y-139610866D01*
X142827697Y-139611019D01*
X142827667Y-139615334D01*
X124715230Y-139615334D01*
X124906891Y-139252123D01*
X125066151Y-138716867D01*
X125115102Y-138191174D01*
X200383072Y-138191174D01*
X200440769Y-138746632D01*
X200605722Y-139280161D01*
X200854732Y-139746024D01*
X201241975Y-139986170D01*
X203052145Y-138176000D01*
X201241975Y-136365830D01*
X200854732Y-136605976D01*
X200594109Y-137099877D01*
X200434849Y-137635133D01*
X200383072Y-138191174D01*
X125115102Y-138191174D01*
X125117928Y-138160826D01*
X125060231Y-137605368D01*
X124895278Y-137071839D01*
X124646268Y-136605976D01*
X124259025Y-136365830D01*
X122448855Y-138176000D01*
X122089645Y-138176000D01*
X120279475Y-136365830D01*
X119892232Y-136605976D01*
X119631609Y-137099877D01*
X119472349Y-137635133D01*
X119420572Y-138191174D01*
X63202602Y-138191174D01*
X63205428Y-138160826D01*
X63147731Y-137605368D01*
X62982778Y-137071839D01*
X62733768Y-136605976D01*
X62346525Y-136365830D01*
X60536355Y-138176000D01*
X60177145Y-138176000D01*
X60163003Y-138161858D01*
X60342608Y-137982253D01*
X60356750Y-137996395D01*
X62166920Y-136186225D01*
X120459080Y-136186225D01*
X122269250Y-137996395D01*
X124079420Y-136186225D01*
X123839274Y-135798982D01*
X123345373Y-135538359D01*
X122810117Y-135379099D01*
X122254076Y-135327322D01*
X121698618Y-135385019D01*
X121165089Y-135549972D01*
X120699226Y-135798982D01*
X120459080Y-136186225D01*
X62166920Y-136186225D01*
X61926774Y-135798982D01*
X61432873Y-135538359D01*
X60897617Y-135379099D01*
X60341576Y-135327322D01*
X59786118Y-135385019D01*
X59252589Y-135549972D01*
X58786726Y-135798982D01*
X58546581Y-136186223D01*
X58476750Y-136116392D01*
X58476750Y-83085608D01*
X58546581Y-83015777D01*
X58786726Y-83403018D01*
X59280627Y-83663641D01*
X59815883Y-83822901D01*
X60371924Y-83874678D01*
X60927382Y-83816981D01*
X61460911Y-83652028D01*
X61926774Y-83403018D01*
X62166920Y-83015775D01*
X60356750Y-81205605D01*
X60342608Y-81219748D01*
X60163003Y-81040143D01*
X60177145Y-81026000D01*
X60536355Y-81026000D01*
X62346525Y-82836170D01*
X62733768Y-82596024D01*
X62994391Y-82102123D01*
X63153651Y-81566867D01*
X63202602Y-81041174D01*
X200383072Y-81041174D01*
X200440769Y-81596632D01*
X200605722Y-82130161D01*
X200854732Y-82596024D01*
X201241975Y-82836170D01*
X203052145Y-81026000D01*
X201241975Y-79215830D01*
X200854732Y-79455976D01*
X200594109Y-79949877D01*
X200434849Y-80485133D01*
X200383072Y-81041174D01*
X63202602Y-81041174D01*
X63205428Y-81010826D01*
X63147731Y-80455368D01*
X62982778Y-79921839D01*
X62733768Y-79455976D01*
X62346525Y-79215830D01*
X60536355Y-81026000D01*
X60177145Y-81026000D01*
X60163003Y-81011858D01*
X60342608Y-80832253D01*
X60356750Y-80846395D01*
X62166920Y-79036225D01*
X61926774Y-78648982D01*
X61432873Y-78388359D01*
X60897617Y-78229099D01*
X60341576Y-78177322D01*
X59786118Y-78235019D01*
X59252589Y-78399972D01*
X58786726Y-78648982D01*
X58546581Y-79036223D01*
X58476750Y-78966392D01*
X58476750Y-63965775D01*
X120459080Y-63965775D01*
X120699226Y-64353018D01*
X121193127Y-64613641D01*
X121728383Y-64772901D01*
X122284424Y-64824678D01*
X122839882Y-64766981D01*
X123373411Y-64602028D01*
X123839274Y-64353018D01*
X124079420Y-63965775D01*
X122269250Y-62155605D01*
X120459080Y-63965775D01*
X58476750Y-63965775D01*
X58476750Y-61991174D01*
X119420572Y-61991174D01*
X119478269Y-62546632D01*
X119643222Y-63080161D01*
X119892232Y-63546024D01*
X120279475Y-63786170D01*
X122089645Y-61976000D01*
X122448855Y-61976000D01*
X124259025Y-63786170D01*
X124646268Y-63546024D01*
X124906891Y-63052123D01*
X125066151Y-62516867D01*
X125117928Y-61960826D01*
X125060231Y-61405368D01*
X124895278Y-60871839D01*
X124646268Y-60405976D01*
X124259025Y-60165830D01*
X122448855Y-61976000D01*
X122089645Y-61976000D01*
X120279475Y-60165830D01*
X119892232Y-60405976D01*
X119631609Y-60899877D01*
X119472349Y-61435133D01*
X119420572Y-61991174D01*
X58476750Y-61991174D01*
X58476750Y-59986225D01*
X120459080Y-59986225D01*
X122269250Y-61796395D01*
X124079420Y-59986225D01*
X123839274Y-59598982D01*
X123345373Y-59338359D01*
X122810117Y-59179099D01*
X122254076Y-59127322D01*
X121698618Y-59185019D01*
X121165089Y-59349972D01*
X120699226Y-59598982D01*
X120459080Y-59986225D01*
X58476750Y-59986225D01*
X58476750Y-33015858D01*
X58514831Y-32977777D01*
X58754976Y-33365018D01*
X59248877Y-33625641D01*
X59784133Y-33784901D01*
X60340174Y-33836678D01*
X60895632Y-33778981D01*
X61429161Y-33614028D01*
X61895024Y-33365018D01*
X62135170Y-32977775D01*
X115696580Y-32977775D01*
X115936726Y-33365018D01*
X116430627Y-33625641D01*
X116965883Y-33784901D01*
X117521924Y-33836678D01*
X118077382Y-33778981D01*
X118610911Y-33614028D01*
X119076774Y-33365018D01*
X119297230Y-33009525D01*
X131412830Y-33009525D01*
X131652976Y-33396768D01*
X132146877Y-33657391D01*
X132682133Y-33816651D01*
X133238174Y-33868428D01*
X133793632Y-33810731D01*
X134327161Y-33645778D01*
X134793024Y-33396768D01*
X135033170Y-33009525D01*
X135001420Y-32977775D01*
X153796580Y-32977775D01*
X154036726Y-33365018D01*
X154530627Y-33625641D01*
X155065883Y-33784901D01*
X155621924Y-33836678D01*
X156177382Y-33778981D01*
X156710911Y-33614028D01*
X157176774Y-33365018D01*
X157416920Y-32977775D01*
X155606750Y-31167605D01*
X153796580Y-32977775D01*
X135001420Y-32977775D01*
X133223000Y-31199355D01*
X131412830Y-33009525D01*
X119297230Y-33009525D01*
X119316920Y-32977775D01*
X117506750Y-31167605D01*
X115696580Y-32977775D01*
X62135170Y-32977775D01*
X60325000Y-31167605D01*
X60310858Y-31181748D01*
X60131253Y-31002143D01*
X60145395Y-30988000D01*
X60131253Y-30973858D01*
X60310858Y-30794253D01*
X60325000Y-30808395D01*
X60339143Y-30794253D01*
X60518748Y-30973858D01*
X60504605Y-30988000D01*
X62314775Y-32798170D01*
X62702018Y-32558024D01*
X62962641Y-32064123D01*
X63121901Y-31528867D01*
X63173678Y-30972826D01*
X63115981Y-30417368D01*
X62951028Y-29883839D01*
X62702018Y-29417976D01*
X62314777Y-29177831D01*
X62352858Y-29139750D01*
X115478892Y-29139750D01*
X115516973Y-29177831D01*
X115516973Y-29177831D01*
G37*
X115516973Y-29177831D02*
X115129732Y-29417976D01*
X114869109Y-29911877D01*
X114709849Y-30447133D01*
X114658072Y-31003174D01*
X114715769Y-31558632D01*
X114880722Y-32092161D01*
X115129732Y-32558024D01*
X115516975Y-32798170D01*
X117327145Y-30988000D01*
X117313003Y-30973858D01*
X117492608Y-30794253D01*
X117506750Y-30808395D01*
X117520893Y-30794253D01*
X117700498Y-30973858D01*
X117686355Y-30988000D01*
X119496525Y-32798170D01*
X119883768Y-32558024D01*
X120144391Y-32064123D01*
X120303651Y-31528867D01*
X120355428Y-30972826D01*
X120297731Y-30417368D01*
X120132778Y-29883839D01*
X119883768Y-29417976D01*
X119496527Y-29177831D01*
X119534608Y-29139750D01*
X131163392Y-29139750D01*
X131233223Y-29209581D01*
X130845982Y-29449726D01*
X130585359Y-29943627D01*
X130426099Y-30478883D01*
X130374322Y-31034924D01*
X130432019Y-31590382D01*
X130596972Y-32123911D01*
X130845982Y-32589774D01*
X131233225Y-32829920D01*
X133043395Y-31019750D01*
X133029253Y-31005608D01*
X133208858Y-30826003D01*
X133223000Y-30840145D01*
X133237143Y-30826003D01*
X133416748Y-31005608D01*
X133402605Y-31019750D01*
X135212775Y-32829920D01*
X135600018Y-32589774D01*
X135860641Y-32095873D01*
X136019901Y-31560617D01*
X136071678Y-31004576D01*
X136013981Y-30449118D01*
X135849028Y-29915589D01*
X135600018Y-29449726D01*
X135212777Y-29209581D01*
X135282608Y-29139750D01*
X153578892Y-29139750D01*
X153616973Y-29177831D01*
X153229732Y-29417976D01*
X152969109Y-29911877D01*
X152809849Y-30447133D01*
X152758072Y-31003174D01*
X152815769Y-31558632D01*
X152980722Y-32092161D01*
X153229732Y-32558024D01*
X153616975Y-32798170D01*
X155427145Y-30988000D01*
X155413003Y-30973858D01*
X155592608Y-30794253D01*
X155606750Y-30808395D01*
X155620893Y-30794253D01*
X155800498Y-30973858D01*
X155786355Y-30988000D01*
X157596525Y-32798170D01*
X157983768Y-32558024D01*
X158244391Y-32064123D01*
X158403651Y-31528867D01*
X158455428Y-30972826D01*
X158397731Y-30417368D01*
X158232778Y-29883839D01*
X157983768Y-29417976D01*
X157596527Y-29177831D01*
X157634608Y-29139750D01*
X201172142Y-29139750D01*
X201241973Y-29209581D01*
X200854732Y-29449726D01*
X200594109Y-29943627D01*
X200434849Y-30478883D01*
X200383072Y-31034924D01*
X200440769Y-31590382D01*
X200605722Y-32123911D01*
X200854732Y-32589774D01*
X201241975Y-32829920D01*
X203052145Y-31019750D01*
X203038003Y-31005608D01*
X203217608Y-30826003D01*
X203231750Y-30840145D01*
X203245893Y-30826003D01*
X203425498Y-31005608D01*
X203411355Y-31019750D01*
X203425498Y-31033893D01*
X203245893Y-31213498D01*
X203231750Y-31199355D01*
X201421580Y-33009525D01*
X201661726Y-33396768D01*
X202155627Y-33657391D01*
X202690883Y-33816651D01*
X203246924Y-33868428D01*
X203802382Y-33810731D01*
X204335911Y-33645778D01*
X204801774Y-33396768D01*
X205041919Y-33009527D01*
X205111751Y-33079359D01*
X205111751Y-78966391D01*
X205041919Y-79036223D01*
X204801774Y-78648982D01*
X204307873Y-78388359D01*
X203772617Y-78229099D01*
X203216576Y-78177322D01*
X202661118Y-78235019D01*
X202127589Y-78399972D01*
X201661726Y-78648982D01*
X201421580Y-79036225D01*
X203231750Y-80846395D01*
X203245893Y-80832253D01*
X203425498Y-81011858D01*
X203411355Y-81026000D01*
X203425498Y-81040143D01*
X203245893Y-81219748D01*
X203231750Y-81205605D01*
X201421580Y-83015775D01*
X201661726Y-83403018D01*
X202155627Y-83663641D01*
X202690883Y-83822901D01*
X203246924Y-83874678D01*
X203802382Y-83816981D01*
X204335911Y-83652028D01*
X204801774Y-83403018D01*
X205041919Y-83015777D01*
X205111751Y-83085609D01*
X205111750Y-136116392D01*
X205041919Y-136186223D01*
X204801774Y-135798982D01*
X204307873Y-135538359D01*
X203772617Y-135379099D01*
X203216576Y-135327322D01*
X202661118Y-135385019D01*
X202127589Y-135549972D01*
X201661726Y-135798982D01*
X201421580Y-136186225D01*
X203231750Y-137996395D01*
X203245893Y-137982253D01*
X203425498Y-138161858D01*
X203411355Y-138176000D01*
X203425498Y-138190143D01*
X203245893Y-138369748D01*
X203231750Y-138355605D01*
X201421580Y-140165775D01*
X201661726Y-140553018D01*
X202155627Y-140813641D01*
X202690883Y-140972901D01*
X203246924Y-141024678D01*
X203802382Y-140966981D01*
X204335911Y-140802028D01*
X204801774Y-140553018D01*
X205041919Y-140165777D01*
X205111750Y-140235608D01*
X205111750Y-157547642D01*
X205041919Y-157617473D01*
X204801774Y-157230232D01*
X204307873Y-156969609D01*
X203772617Y-156810349D01*
X203216576Y-156758572D01*
X202661118Y-156816269D01*
X202127589Y-156981222D01*
X201661726Y-157230232D01*
X201421580Y-157617475D01*
X203231750Y-159427645D01*
X203245893Y-159413503D01*
X203425498Y-159593108D01*
X203411355Y-159607250D01*
X203425498Y-159621393D01*
X203245893Y-159800998D01*
X203231750Y-159786855D01*
X203217608Y-159800998D01*
X203038003Y-159621393D01*
X203052145Y-159607250D01*
X201241975Y-157797080D01*
X200854732Y-158037226D01*
X200594109Y-158531127D01*
X200434849Y-159066383D01*
X200383072Y-159622424D01*
X200440769Y-160177882D01*
X200605722Y-160711411D01*
X200854732Y-161177274D01*
X201241973Y-161417419D01*
X201172142Y-161487250D01*
X164810108Y-161487250D01*
X164740277Y-161417419D01*
X165127518Y-161177274D01*
X165388141Y-160683373D01*
X165547401Y-160148117D01*
X165599178Y-159592076D01*
X165541481Y-159036618D01*
X165376528Y-158503089D01*
X165127518Y-158037226D01*
X164740275Y-157797080D01*
X162930105Y-159607250D01*
X162944248Y-159621393D01*
X162764643Y-159800998D01*
X162750500Y-159786855D01*
X162736358Y-159800998D01*
X162556753Y-159621393D01*
X162570895Y-159607250D01*
X160760725Y-157797080D01*
X160373482Y-158037226D01*
X160112859Y-158531127D01*
X159953599Y-159066383D01*
X159901822Y-159622424D01*
X159959519Y-160177882D01*
X160124472Y-160711411D01*
X160373482Y-161177274D01*
X160760723Y-161417419D01*
X160690892Y-161487250D01*
X102897608Y-161487250D01*
X102827777Y-161417419D01*
X103215018Y-161177274D01*
X103475641Y-160683373D01*
X103634901Y-160148117D01*
X103686678Y-159592076D01*
X103628981Y-159036618D01*
X103464028Y-158503089D01*
X103215018Y-158037226D01*
X102827775Y-157797080D01*
X101017605Y-159607250D01*
X101031748Y-159621393D01*
X100852143Y-159800998D01*
X100838000Y-159786855D01*
X100823858Y-159800998D01*
X100644253Y-159621393D01*
X100658395Y-159607250D01*
X98848225Y-157797080D01*
X98460982Y-158037226D01*
X98200359Y-158531127D01*
X98041099Y-159066383D01*
X97989322Y-159622424D01*
X98047019Y-160177882D01*
X98211972Y-160711411D01*
X98460982Y-161177274D01*
X98848223Y-161417419D01*
X98778392Y-161487250D01*
X62416358Y-161487250D01*
X62346527Y-161417419D01*
X62733768Y-161177274D01*
X62994391Y-160683373D01*
X63153651Y-160148117D01*
X63205428Y-159592076D01*
X63147731Y-159036618D01*
X62982778Y-158503089D01*
X62733768Y-158037226D01*
X62346525Y-157797080D01*
X60536355Y-159607250D01*
X60550498Y-159621393D01*
X60370893Y-159800998D01*
X60356750Y-159786855D01*
X60342608Y-159800998D01*
X60163003Y-159621393D01*
X60177145Y-159607250D01*
X60163003Y-159593108D01*
X60342608Y-159413503D01*
X60356750Y-159427645D01*
X62166920Y-157617475D01*
X61926774Y-157230232D01*
X61432873Y-156969609D01*
X60897617Y-156810349D01*
X60341576Y-156758572D01*
X59786118Y-156816269D01*
X59252589Y-156981222D01*
X58786726Y-157230232D01*
X58546581Y-157617473D01*
X58476750Y-157547642D01*
X58476750Y-140235608D01*
X58546581Y-140165777D01*
X58786726Y-140553018D01*
X59280627Y-140813641D01*
X59815883Y-140972901D01*
X60371924Y-141024678D01*
X60927382Y-140966981D01*
X61460911Y-140802028D01*
X61926774Y-140553018D01*
X62166920Y-140165775D01*
X60356750Y-138355605D01*
X60342608Y-138369748D01*
X60163003Y-138190143D01*
X60177145Y-138176000D01*
X60536355Y-138176000D01*
X62346525Y-139986170D01*
X62733768Y-139746024D01*
X62994391Y-139252123D01*
X63037471Y-139107334D01*
X71538334Y-139107334D01*
X71538334Y-158157334D01*
X71544211Y-158217272D01*
X71549670Y-158277258D01*
X71550304Y-158279413D01*
X71550523Y-158281644D01*
X71567908Y-158339225D01*
X71584936Y-158397082D01*
X71585977Y-158399074D01*
X71586625Y-158401219D01*
X71614910Y-158454416D01*
X71642805Y-158507774D01*
X71644208Y-158509519D01*
X71645264Y-158511505D01*
X71683339Y-158558188D01*
X71721071Y-158605119D01*
X71722793Y-158606564D01*
X71724209Y-158608300D01*
X71770538Y-158646627D01*
X71816755Y-158685407D01*
X71818725Y-158686490D01*
X71820451Y-158687918D01*
X71873343Y-158716517D01*
X71926211Y-158745581D01*
X71928354Y-158746261D01*
X71930324Y-158747326D01*
X71987839Y-158765130D01*
X72045271Y-158783348D01*
X72047499Y-158783598D01*
X72049644Y-158784262D01*
X72109511Y-158790554D01*
X72169398Y-158797272D01*
X72173713Y-158797302D01*
X72173866Y-158797318D01*
X72174019Y-158797304D01*
X72178334Y-158797334D01*
X74718334Y-158797334D01*
X74778272Y-158791457D01*
X74838258Y-158785998D01*
X74840413Y-158785364D01*
X74842644Y-158785145D01*
X74900225Y-158767760D01*
X74958082Y-158750732D01*
X74960074Y-158749691D01*
X74962219Y-158749043D01*
X75015416Y-158720758D01*
X75068774Y-158692863D01*
X75070519Y-158691460D01*
X75072505Y-158690404D01*
X75119188Y-158652329D01*
X75166119Y-158614597D01*
X75167564Y-158612875D01*
X75169300Y-158611459D01*
X75207627Y-158565130D01*
X75246407Y-158518913D01*
X75247490Y-158516943D01*
X75248918Y-158515217D01*
X75277517Y-158462325D01*
X75306581Y-158409457D01*
X75307261Y-158407314D01*
X75308326Y-158405344D01*
X75326130Y-158347829D01*
X75344348Y-158290397D01*
X75344598Y-158288169D01*
X75345262Y-158286024D01*
X75351554Y-158226157D01*
X75358272Y-158166270D01*
X75358302Y-158161955D01*
X75358318Y-158161802D01*
X75358304Y-158161649D01*
X75358334Y-158157334D01*
X75358334Y-157871810D01*
X75699851Y-158145205D01*
X75741275Y-158172187D01*
X75781571Y-158200844D01*
X75789355Y-158205233D01*
X76506989Y-158603334D01*
X76559736Y-158626180D01*
X76612136Y-158649853D01*
X76620620Y-158652660D01*
X77365247Y-158893335D01*
X77392846Y-158899358D01*
X77419658Y-158908308D01*
X77428384Y-158910235D01*
X77440461Y-158912815D01*
X77457967Y-158914796D01*
X77475027Y-158919212D01*
X77483865Y-158920534D01*
X78084287Y-159006098D01*
X78112837Y-159007349D01*
X78141087Y-159011622D01*
X78150014Y-159012027D01*
X78809060Y-159037342D01*
X78834073Y-159035856D01*
X78859094Y-159037307D01*
X78868021Y-159036889D01*
X79511599Y-159002251D01*
X79541968Y-158997614D01*
X79572648Y-158996019D01*
X79581475Y-158994625D01*
X80101999Y-158908671D01*
X80150471Y-158895704D01*
X80199405Y-158884616D01*
X80207866Y-158881740D01*
X81014593Y-158601312D01*
X81065237Y-158577946D01*
X81116379Y-158555636D01*
X81124151Y-158551226D01*
X81813991Y-158153452D01*
X86260427Y-158153452D01*
X86266049Y-158214603D01*
X86271751Y-158277258D01*
X86271835Y-158277545D01*
X86271862Y-158277834D01*
X86289199Y-158336543D01*
X86307017Y-158397082D01*
X86307156Y-158397347D01*
X86307238Y-158397626D01*
X86336016Y-158452552D01*
X86364886Y-158507774D01*
X86365069Y-158508002D01*
X86365207Y-158508265D01*
X86404080Y-158556522D01*
X86443152Y-158605119D01*
X86443381Y-158605311D01*
X86443563Y-158605537D01*
X86490799Y-158645099D01*
X86538836Y-158685407D01*
X86539094Y-158685549D01*
X86539320Y-158685738D01*
X86593492Y-158715454D01*
X86648292Y-158745581D01*
X86648576Y-158745671D01*
X86648831Y-158745811D01*
X86708008Y-158764524D01*
X86767352Y-158783348D01*
X86767642Y-158783381D01*
X86767925Y-158783470D01*
X86829456Y-158790315D01*
X86891479Y-158797272D01*
X86892037Y-158797276D01*
X86892065Y-158797279D01*
X86892097Y-158797276D01*
X86900415Y-158797334D01*
X89342651Y-158797334D01*
X89359339Y-158795698D01*
X89376095Y-158796460D01*
X89421392Y-158789613D01*
X89466961Y-158785145D01*
X89483011Y-158780299D01*
X89499598Y-158777792D01*
X89542698Y-158762278D01*
X89586536Y-158749043D01*
X89601345Y-158741169D01*
X89617123Y-158735490D01*
X89656379Y-158711908D01*
X89696822Y-158690404D01*
X89709817Y-158679805D01*
X89724195Y-158671168D01*
X89758134Y-158640399D01*
X89793617Y-158611459D01*
X89804305Y-158598540D01*
X89816732Y-158587273D01*
X89844047Y-158550500D01*
X89873235Y-158515217D01*
X89881210Y-158500467D01*
X89891212Y-158487002D01*
X89910860Y-158445630D01*
X89932643Y-158405344D01*
X89937603Y-158389320D01*
X89944797Y-158374173D01*
X89956035Y-158329776D01*
X89969579Y-158286024D01*
X89971332Y-158269349D01*
X89975448Y-158253087D01*
X89976723Y-158244242D01*
X90030564Y-157851424D01*
X90030887Y-157843027D01*
X90032620Y-157834809D01*
X90033540Y-157825920D01*
X90040052Y-157758361D01*
X90168994Y-157874951D01*
X90211055Y-157906097D01*
X90252100Y-157938560D01*
X90259651Y-157943340D01*
X91011043Y-158411776D01*
X91055455Y-158433765D01*
X91098953Y-158457539D01*
X91107200Y-158460981D01*
X91832572Y-158757871D01*
X91877346Y-158771269D01*
X91921423Y-158786864D01*
X91930113Y-158788947D01*
X92455717Y-158911108D01*
X92485419Y-158915010D01*
X92514570Y-158921915D01*
X92523433Y-158923054D01*
X93135985Y-158997458D01*
X93157888Y-158997965D01*
X93179551Y-159001245D01*
X93188477Y-159001652D01*
X93828480Y-159026349D01*
X93850530Y-159025043D01*
X93872577Y-159026531D01*
X93881507Y-159026197D01*
X94489461Y-158999242D01*
X94520044Y-158994868D01*
X94550917Y-158993539D01*
X94559755Y-158992223D01*
X95076164Y-158911667D01*
X95101342Y-158905171D01*
X95127098Y-158901590D01*
X95135772Y-158899441D01*
X95200896Y-158882822D01*
X95232583Y-158871341D01*
X95265171Y-158862764D01*
X95273527Y-158859599D01*
X95997236Y-158579669D01*
X95997722Y-158579424D01*
X95998244Y-158579278D01*
X96053841Y-158551142D01*
X96108777Y-158523456D01*
X96109201Y-158523126D01*
X96109690Y-158522878D01*
X96117198Y-158518031D01*
X96748359Y-158104331D01*
X96748410Y-158104290D01*
X96748465Y-158104261D01*
X96797241Y-158064968D01*
X96845644Y-158025991D01*
X96845684Y-158025943D01*
X96845735Y-158025902D01*
X96852069Y-158019599D01*
X97250635Y-157617475D01*
X99027830Y-157617475D01*
X100838000Y-159427645D01*
X102648170Y-157617475D01*
X102408024Y-157230232D01*
X101914123Y-156969609D01*
X101378867Y-156810349D01*
X100822826Y-156758572D01*
X100267368Y-156816269D01*
X99733839Y-156981222D01*
X99267976Y-157230232D01*
X99027830Y-157617475D01*
X97250635Y-157617475D01*
X97380822Y-157486127D01*
X97419034Y-157439183D01*
X97457565Y-157392418D01*
X97459578Y-157389375D01*
X97459674Y-157389257D01*
X97459747Y-157389119D01*
X97462495Y-157384965D01*
X97878984Y-156745724D01*
X97905631Y-156694503D01*
X97933036Y-156643679D01*
X97936432Y-156635413D01*
X98230797Y-155904398D01*
X98246143Y-155852034D01*
X98262780Y-155800067D01*
X98264600Y-155791318D01*
X98426983Y-154982532D01*
X98431139Y-154941271D01*
X98438005Y-154900353D01*
X98438554Y-154891434D01*
X98468661Y-154339883D01*
X98466852Y-154298038D01*
X98467746Y-154256160D01*
X98467002Y-154247255D01*
X98427502Y-153811259D01*
X98427500Y-153811250D01*
X98389951Y-153396796D01*
X98379174Y-153340177D01*
X98369250Y-153283382D01*
X98366800Y-153274788D01*
X98138541Y-152494808D01*
X98115884Y-152438482D01*
X98093507Y-152381975D01*
X98091982Y-152379060D01*
X98091928Y-152378925D01*
X98091846Y-152378799D01*
X98089365Y-152374056D01*
X97715375Y-151670816D01*
X97681870Y-151620396D01*
X97648650Y-151569751D01*
X97646326Y-151566909D01*
X97646244Y-151566785D01*
X97646137Y-151566677D01*
X97642994Y-151562833D01*
X97128748Y-150942598D01*
X97088154Y-150902375D01*
X97048191Y-150861442D01*
X97041313Y-150855736D01*
X96392290Y-150324772D01*
X96349304Y-150296118D01*
X96307282Y-150266006D01*
X96299513Y-150261589D01*
X95521189Y-149826159D01*
X95479613Y-149807974D01*
X95439069Y-149787586D01*
X95430709Y-149784428D01*
X94528563Y-149450798D01*
X94505526Y-149444756D01*
X94483382Y-149435972D01*
X94474777Y-149433564D01*
X94217149Y-149363388D01*
X94201722Y-149360768D01*
X94186838Y-149355920D01*
X94178099Y-149354056D01*
X93696998Y-149254930D01*
X93683466Y-149253498D01*
X93670308Y-149250018D01*
X93661477Y-149248649D01*
X93053643Y-149158755D01*
X93046357Y-149158397D01*
X93039246Y-149156793D01*
X93030371Y-149155749D01*
X92338323Y-149079201D01*
X92333230Y-149079138D01*
X92328233Y-149078166D01*
X92319331Y-149077387D01*
X91585592Y-149018304D01*
X91580692Y-149018389D01*
X91575852Y-149017594D01*
X91566931Y-149017075D01*
X90834023Y-148979570D01*
X90828279Y-148979838D01*
X90822579Y-148979087D01*
X90813646Y-148978853D01*
X90225302Y-148967515D01*
X90293078Y-148474844D01*
X90393434Y-148119318D01*
X90509953Y-147906017D01*
X90664888Y-147750376D01*
X90840586Y-147641316D01*
X91214004Y-147505836D01*
X91736816Y-147416403D01*
X92388967Y-147384697D01*
X93132983Y-147416505D01*
X93936841Y-147512650D01*
X94771129Y-147672083D01*
X95614384Y-147894556D01*
X95977665Y-148010889D01*
X96310328Y-148121238D01*
X96310431Y-148121261D01*
X96310525Y-148121303D01*
X96319028Y-148124054D01*
X96594169Y-148210980D01*
X96598136Y-148211818D01*
X96601889Y-148213366D01*
X96610462Y-148215890D01*
X96785778Y-148266192D01*
X96808768Y-148270415D01*
X96831072Y-148277418D01*
X96839831Y-148279189D01*
X96879095Y-148286843D01*
X96901086Y-148288934D01*
X96922629Y-148293782D01*
X96963118Y-148294831D01*
X97003441Y-148298664D01*
X97025412Y-148296444D01*
X97047493Y-148297016D01*
X97087422Y-148290179D01*
X97127714Y-148286108D01*
X97148836Y-148279663D01*
X97170607Y-148275935D01*
X97208442Y-148261475D01*
X97247182Y-148249654D01*
X97266650Y-148239229D01*
X97287283Y-148231343D01*
X97321594Y-148209806D01*
X97357294Y-148190688D01*
X97374366Y-148176680D01*
X97393074Y-148164937D01*
X97422551Y-148137143D01*
X97453856Y-148111457D01*
X97467878Y-148094405D01*
X97483953Y-148079248D01*
X97507469Y-148046259D01*
X97533189Y-148014981D01*
X97543636Y-147995522D01*
X97556456Y-147977538D01*
X97573114Y-147940617D01*
X97592272Y-147904933D01*
X97598739Y-147883819D01*
X97607824Y-147863684D01*
X97610627Y-147855199D01*
X97636251Y-147775787D01*
X97636593Y-147774215D01*
X97637224Y-147772743D01*
X97649863Y-147713273D01*
X97662825Y-147653740D01*
X97662855Y-147652136D01*
X97663189Y-147650566D01*
X97664122Y-147641679D01*
X97685413Y-147424434D01*
X97685412Y-147412414D01*
X97687304Y-147400541D01*
X97687780Y-147391617D01*
X97702766Y-147068019D01*
X97702510Y-147063052D01*
X97703148Y-147058117D01*
X97703360Y-147049183D01*
X97710067Y-146650715D01*
X97710051Y-146650516D01*
X97710074Y-146650314D01*
X97710156Y-146641378D01*
X97710332Y-146562836D01*
X97710325Y-146562759D01*
X97710334Y-146561402D01*
X97710334Y-145464137D01*
X97707695Y-145437226D01*
X97708056Y-145410186D01*
X97701615Y-145375215D01*
X97698145Y-145339827D01*
X97690329Y-145313939D01*
X97685431Y-145287346D01*
X97677208Y-145266614D01*
X98694534Y-145266614D01*
X98695586Y-145279585D01*
X98694623Y-145292568D01*
X98694897Y-145301500D01*
X98719158Y-145944945D01*
X98721294Y-145960620D01*
X98721124Y-145976439D01*
X98721963Y-145985336D01*
X98781354Y-146571595D01*
X98785037Y-146589884D01*
X98786181Y-146608502D01*
X98787659Y-146617315D01*
X98840969Y-146922226D01*
X98849099Y-146951508D01*
X98854247Y-146981456D01*
X98856674Y-146990057D01*
X99020402Y-147555319D01*
X99031407Y-147582899D01*
X99039530Y-147611478D01*
X99042859Y-147619771D01*
X99289304Y-148221661D01*
X99300695Y-148243204D01*
X99309438Y-148265954D01*
X99313498Y-148273915D01*
X99613242Y-148851598D01*
X99628716Y-148875404D01*
X99641562Y-148900724D01*
X99646417Y-148908227D01*
X99970044Y-149400869D01*
X99986973Y-149421848D01*
X100001468Y-149444581D01*
X100007034Y-149451573D01*
X100127713Y-149601011D01*
X100152882Y-149626602D01*
X100175832Y-149654200D01*
X100182233Y-149660436D01*
X100603043Y-150064722D01*
X100633130Y-150088443D01*
X100661337Y-150114375D01*
X100668512Y-150119702D01*
X101206448Y-150513315D01*
X101232039Y-150528446D01*
X101255955Y-150546126D01*
X101263657Y-150550658D01*
X101867995Y-150900618D01*
X101895892Y-150913316D01*
X101922394Y-150928735D01*
X101930545Y-150932396D01*
X102550551Y-151205723D01*
X102565964Y-151210788D01*
X102580485Y-151218025D01*
X102588856Y-151221153D01*
X102595499Y-151223583D01*
X102599760Y-151224684D01*
X102603754Y-151226539D01*
X102612208Y-151229435D01*
X103057540Y-151378505D01*
X103072774Y-151381996D01*
X103087332Y-151387677D01*
X103095951Y-151390038D01*
X103547551Y-151510338D01*
X103564221Y-151513073D01*
X103580331Y-151518152D01*
X103589088Y-151519933D01*
X104073741Y-151615011D01*
X104088350Y-151616417D01*
X104102587Y-151619988D01*
X104111434Y-151621244D01*
X104655920Y-151694652D01*
X104666399Y-151695032D01*
X104676682Y-151697107D01*
X104685578Y-151697948D01*
X105316680Y-151753236D01*
X105322710Y-151753174D01*
X105328663Y-151754173D01*
X105337583Y-151754723D01*
X106082082Y-151795442D01*
X106084365Y-151795344D01*
X106086631Y-151795675D01*
X106095560Y-151796037D01*
X106980239Y-151825736D01*
X106980397Y-151825726D01*
X106985188Y-151825883D01*
X107065643Y-151827961D01*
X107065664Y-151827959D01*
X107065959Y-151827969D01*
X108537667Y-151865252D01*
X108537667Y-158157334D01*
X108543544Y-158217272D01*
X108549003Y-158277258D01*
X108549637Y-158279413D01*
X108549856Y-158281644D01*
X108567241Y-158339225D01*
X108584269Y-158397082D01*
X108585310Y-158399074D01*
X108585958Y-158401219D01*
X108614243Y-158454416D01*
X108642138Y-158507774D01*
X108643541Y-158509519D01*
X108644597Y-158511505D01*
X108682672Y-158558188D01*
X108720404Y-158605119D01*
X108722126Y-158606564D01*
X108723542Y-158608300D01*
X108769871Y-158646627D01*
X108816088Y-158685407D01*
X108818058Y-158686490D01*
X108819784Y-158687918D01*
X108872676Y-158716517D01*
X108925544Y-158745581D01*
X108927687Y-158746261D01*
X108929657Y-158747326D01*
X108987172Y-158765130D01*
X109044604Y-158783348D01*
X109046832Y-158783598D01*
X109048977Y-158784262D01*
X109108844Y-158790554D01*
X109168731Y-158797272D01*
X109173046Y-158797302D01*
X109173199Y-158797318D01*
X109173352Y-158797304D01*
X109177667Y-158797334D01*
X111971667Y-158797334D01*
X112031605Y-158791457D01*
X112091591Y-158785998D01*
X112093746Y-158785364D01*
X112095977Y-158785145D01*
X112153558Y-158767760D01*
X112211415Y-158750732D01*
X112213407Y-158749691D01*
X112215552Y-158749043D01*
X112268749Y-158720758D01*
X112322107Y-158692863D01*
X112323852Y-158691460D01*
X112325838Y-158690404D01*
X112372521Y-158652329D01*
X112419452Y-158614597D01*
X112420897Y-158612875D01*
X112422633Y-158611459D01*
X112460960Y-158565130D01*
X112499740Y-158518913D01*
X112500823Y-158516943D01*
X112502251Y-158515217D01*
X112530850Y-158462325D01*
X112559914Y-158409457D01*
X112560594Y-158407314D01*
X112561659Y-158405344D01*
X112579463Y-158347829D01*
X112597681Y-158290397D01*
X112597931Y-158288169D01*
X112598595Y-158286024D01*
X112604887Y-158226157D01*
X112611605Y-158166270D01*
X112611635Y-158161955D01*
X112611651Y-158161802D01*
X112611637Y-158161649D01*
X112611667Y-158157334D01*
X112611667Y-145054806D01*
X114299509Y-145054806D01*
X114299516Y-145057111D01*
X114301654Y-145078252D01*
X114301050Y-145099492D01*
X114305744Y-145127329D01*
X114307076Y-145151002D01*
X114310263Y-145163398D01*
X114312082Y-145181383D01*
X114318285Y-145201704D01*
X114321818Y-145222659D01*
X114324217Y-145231267D01*
X114351384Y-145326189D01*
X114353201Y-145330784D01*
X114354164Y-145335626D01*
X114356814Y-145344160D01*
X114434179Y-145587279D01*
X114434243Y-145587427D01*
X114435523Y-145591452D01*
X114559027Y-145970553D01*
X114559070Y-145970652D01*
X114559656Y-145972473D01*
X114725241Y-146475350D01*
X114725267Y-146475410D01*
X114725619Y-146476496D01*
X114929224Y-147090937D01*
X114929245Y-147090984D01*
X114929489Y-147091735D01*
X115167056Y-147805530D01*
X115167072Y-147805566D01*
X115167260Y-147806142D01*
X115434729Y-148607083D01*
X115434744Y-148607118D01*
X115434900Y-148607593D01*
X115728212Y-149483467D01*
X115728225Y-149483495D01*
X115728364Y-149483920D01*
X116043460Y-150422517D01*
X116043471Y-150422541D01*
X116043602Y-150422940D01*
X116376423Y-151412050D01*
X116376430Y-151412065D01*
X116376521Y-151412342D01*
X116521459Y-151842398D01*
X116521461Y-151842404D01*
X116521488Y-151842484D01*
X118705404Y-158319484D01*
X118711455Y-158332927D01*
X118715437Y-158347126D01*
X118737050Y-158389789D01*
X118756672Y-158433383D01*
X118765219Y-158445394D01*
X118771883Y-158458550D01*
X118801375Y-158496209D01*
X118829087Y-158535156D01*
X118839801Y-158545276D01*
X118848896Y-158556890D01*
X118885134Y-158588097D01*
X118919889Y-158620926D01*
X118932372Y-158628776D01*
X118943543Y-158638397D01*
X118985154Y-158661972D01*
X119025623Y-158687424D01*
X119039384Y-158692697D01*
X119052219Y-158699969D01*
X119097632Y-158715017D01*
X119142259Y-158732118D01*
X119156784Y-158734618D01*
X119170786Y-158739258D01*
X119218254Y-158745200D01*
X119265354Y-158753307D01*
X119280084Y-158752939D01*
X119294724Y-158754771D01*
X119303659Y-158754947D01*
X121084869Y-158777769D01*
X121084929Y-158777764D01*
X121085930Y-158777782D01*
X121681120Y-158784422D01*
X121681277Y-158784408D01*
X121685990Y-158784458D01*
X122133703Y-158786045D01*
X122135306Y-158785894D01*
X122136915Y-158786049D01*
X122145850Y-158785973D01*
X122467901Y-158781001D01*
X122477559Y-158779903D01*
X122487271Y-158780409D01*
X122496194Y-158779938D01*
X122714401Y-158766900D01*
X122743158Y-158762335D01*
X122772231Y-158760798D01*
X122781056Y-158759396D01*
X122917238Y-158736785D01*
X122930695Y-158733172D01*
X122944533Y-158731641D01*
X122990909Y-158717007D01*
X123037873Y-158704399D01*
X123050360Y-158698247D01*
X123063649Y-158694054D01*
X123071843Y-158690488D01*
X123147817Y-158656799D01*
X123166337Y-158646315D01*
X123186051Y-158638303D01*
X123220565Y-158615617D01*
X123256514Y-158595266D01*
X123272647Y-158581383D01*
X123290428Y-158569695D01*
X123319880Y-158540736D01*
X123351190Y-158513792D01*
X123364316Y-158497044D01*
X123379492Y-158482122D01*
X123385174Y-158475225D01*
X123422758Y-158428950D01*
X123434336Y-158411446D01*
X123448080Y-158395598D01*
X123468713Y-158359474D01*
X123491667Y-158324772D01*
X123499621Y-158305362D01*
X123510030Y-158287138D01*
X123513626Y-158278957D01*
X123519942Y-158264315D01*
X123525031Y-158248400D01*
X123532345Y-158233371D01*
X123535394Y-158224971D01*
X123560788Y-158153452D01*
X128678427Y-158153452D01*
X128684049Y-158214603D01*
X128689751Y-158277258D01*
X128689835Y-158277545D01*
X128689862Y-158277834D01*
X128707199Y-158336543D01*
X128725017Y-158397082D01*
X128725156Y-158397347D01*
X128725238Y-158397626D01*
X128754016Y-158452552D01*
X128782886Y-158507774D01*
X128783069Y-158508002D01*
X128783207Y-158508265D01*
X128822080Y-158556522D01*
X128861152Y-158605119D01*
X128861381Y-158605311D01*
X128861563Y-158605537D01*
X128908799Y-158645099D01*
X128956836Y-158685407D01*
X128957094Y-158685549D01*
X128957320Y-158685738D01*
X129011492Y-158715454D01*
X129066292Y-158745581D01*
X129066576Y-158745671D01*
X129066831Y-158745811D01*
X129126008Y-158764524D01*
X129185352Y-158783348D01*
X129185642Y-158783381D01*
X129185925Y-158783470D01*
X129247456Y-158790315D01*
X129309479Y-158797272D01*
X129310037Y-158797276D01*
X129310065Y-158797279D01*
X129310097Y-158797276D01*
X129318415Y-158797334D01*
X131760651Y-158797334D01*
X131777339Y-158795698D01*
X131794095Y-158796460D01*
X131839392Y-158789613D01*
X131884961Y-158785145D01*
X131901011Y-158780299D01*
X131917598Y-158777792D01*
X131960698Y-158762278D01*
X132004536Y-158749043D01*
X132019345Y-158741169D01*
X132035123Y-158735490D01*
X132074379Y-158711908D01*
X132114822Y-158690404D01*
X132127817Y-158679805D01*
X132142195Y-158671168D01*
X132176134Y-158640399D01*
X132211617Y-158611459D01*
X132222305Y-158598540D01*
X132234732Y-158587273D01*
X132262047Y-158550500D01*
X132291235Y-158515217D01*
X132299210Y-158500467D01*
X132309212Y-158487002D01*
X132328860Y-158445630D01*
X132350643Y-158405344D01*
X132355603Y-158389320D01*
X132362797Y-158374173D01*
X132374035Y-158329776D01*
X132387579Y-158286024D01*
X132389332Y-158269349D01*
X132393448Y-158253087D01*
X132394723Y-158244242D01*
X132448564Y-157851424D01*
X132448887Y-157843027D01*
X132450620Y-157834809D01*
X132451540Y-157825920D01*
X132458052Y-157758361D01*
X132586994Y-157874951D01*
X132629055Y-157906097D01*
X132670100Y-157938560D01*
X132677651Y-157943340D01*
X133429043Y-158411776D01*
X133473455Y-158433765D01*
X133516953Y-158457539D01*
X133525200Y-158460981D01*
X134250572Y-158757871D01*
X134295346Y-158771269D01*
X134339423Y-158786864D01*
X134348113Y-158788947D01*
X134873717Y-158911108D01*
X134903419Y-158915010D01*
X134932570Y-158921915D01*
X134941433Y-158923054D01*
X135553985Y-158997458D01*
X135575888Y-158997965D01*
X135597551Y-159001245D01*
X135606477Y-159001652D01*
X136246480Y-159026349D01*
X136268530Y-159025043D01*
X136290577Y-159026531D01*
X136299507Y-159026197D01*
X136907461Y-158999242D01*
X136938044Y-158994868D01*
X136968917Y-158993539D01*
X136977755Y-158992223D01*
X137494164Y-158911667D01*
X137519342Y-158905171D01*
X137545098Y-158901590D01*
X137553772Y-158899441D01*
X137618896Y-158882822D01*
X137650583Y-158871341D01*
X137683171Y-158862764D01*
X137691527Y-158859599D01*
X138415236Y-158579669D01*
X138415722Y-158579424D01*
X138416244Y-158579278D01*
X138471841Y-158551142D01*
X138526777Y-158523456D01*
X138527201Y-158523126D01*
X138527690Y-158522878D01*
X138535198Y-158518031D01*
X139166359Y-158104331D01*
X139166410Y-158104290D01*
X139166465Y-158104261D01*
X139215241Y-158064968D01*
X139263644Y-158025991D01*
X139263684Y-158025943D01*
X139263735Y-158025902D01*
X139270069Y-158019599D01*
X139798822Y-157486127D01*
X139837034Y-157439183D01*
X139875565Y-157392418D01*
X139877578Y-157389375D01*
X139877674Y-157389257D01*
X139877747Y-157389119D01*
X139880495Y-157384965D01*
X140296984Y-156745724D01*
X140323631Y-156694503D01*
X140351036Y-156643679D01*
X140354432Y-156635413D01*
X140648797Y-155904398D01*
X140664143Y-155852034D01*
X140680780Y-155800067D01*
X140682600Y-155791318D01*
X140844983Y-154982532D01*
X140849139Y-154941271D01*
X140856005Y-154900353D01*
X140856554Y-154891434D01*
X140886661Y-154339883D01*
X140884852Y-154298038D01*
X140885746Y-154256160D01*
X140885002Y-154247255D01*
X140845502Y-153811259D01*
X140845500Y-153811250D01*
X140807951Y-153396796D01*
X140797174Y-153340177D01*
X140787250Y-153283382D01*
X140784800Y-153274788D01*
X140556541Y-152494808D01*
X140533884Y-152438482D01*
X140511507Y-152381975D01*
X140509982Y-152379060D01*
X140509928Y-152378925D01*
X140509846Y-152378799D01*
X140507365Y-152374056D01*
X140133375Y-151670816D01*
X140099870Y-151620396D01*
X140066650Y-151569751D01*
X140064326Y-151566909D01*
X140064244Y-151566785D01*
X140064137Y-151566677D01*
X140060994Y-151562833D01*
X139546748Y-150942598D01*
X139506154Y-150902375D01*
X139466191Y-150861442D01*
X139459313Y-150855736D01*
X138810290Y-150324772D01*
X138767304Y-150296118D01*
X138725282Y-150266006D01*
X138717513Y-150261589D01*
X137939189Y-149826159D01*
X137897613Y-149807974D01*
X137857069Y-149787586D01*
X137848709Y-149784428D01*
X136946563Y-149450798D01*
X136923526Y-149444756D01*
X136901382Y-149435972D01*
X136892777Y-149433564D01*
X136635149Y-149363388D01*
X136619722Y-149360768D01*
X136604838Y-149355920D01*
X136596099Y-149354056D01*
X136114998Y-149254930D01*
X136101466Y-149253498D01*
X136088308Y-149250018D01*
X136079477Y-149248649D01*
X135471643Y-149158755D01*
X135464357Y-149158397D01*
X135457246Y-149156793D01*
X135448371Y-149155749D01*
X134756323Y-149079201D01*
X134751230Y-149079138D01*
X134746233Y-149078166D01*
X134737331Y-149077387D01*
X134003592Y-149018304D01*
X133998692Y-149018389D01*
X133993852Y-149017594D01*
X133984931Y-149017075D01*
X133252023Y-148979570D01*
X133246279Y-148979838D01*
X133240579Y-148979087D01*
X133231646Y-148978853D01*
X132643302Y-148967515D01*
X132711078Y-148474844D01*
X132811434Y-148119318D01*
X132927953Y-147906017D01*
X133082888Y-147750376D01*
X133258586Y-147641316D01*
X133632004Y-147505836D01*
X134154816Y-147416403D01*
X134806967Y-147384697D01*
X135550983Y-147416505D01*
X136354841Y-147512650D01*
X137189129Y-147672083D01*
X138032384Y-147894556D01*
X138395665Y-148010889D01*
X138728328Y-148121238D01*
X138728431Y-148121261D01*
X138728525Y-148121303D01*
X138737028Y-148124054D01*
X139012169Y-148210980D01*
X139016136Y-148211818D01*
X139019889Y-148213366D01*
X139028462Y-148215890D01*
X139203778Y-148266192D01*
X139226768Y-148270415D01*
X139249072Y-148277418D01*
X139257831Y-148279189D01*
X139297095Y-148286843D01*
X139319086Y-148288934D01*
X139340629Y-148293782D01*
X139381118Y-148294831D01*
X139421441Y-148298664D01*
X139443412Y-148296444D01*
X139465493Y-148297016D01*
X139505422Y-148290179D01*
X139545714Y-148286108D01*
X139566836Y-148279663D01*
X139588607Y-148275935D01*
X139626442Y-148261475D01*
X139665182Y-148249654D01*
X139684650Y-148239229D01*
X139705283Y-148231343D01*
X139739594Y-148209806D01*
X139775294Y-148190688D01*
X139792366Y-148176680D01*
X139811074Y-148164937D01*
X139840551Y-148137143D01*
X139871856Y-148111457D01*
X139885878Y-148094405D01*
X139901953Y-148079248D01*
X139925469Y-148046259D01*
X139951189Y-148014981D01*
X139961636Y-147995522D01*
X139974456Y-147977538D01*
X139991114Y-147940617D01*
X140010272Y-147904933D01*
X140016739Y-147883819D01*
X140025824Y-147863684D01*
X140028627Y-147855199D01*
X140054251Y-147775787D01*
X140054593Y-147774215D01*
X140055224Y-147772743D01*
X140067863Y-147713273D01*
X140080825Y-147653740D01*
X140080855Y-147652136D01*
X140081189Y-147650566D01*
X140082122Y-147641679D01*
X140103413Y-147424434D01*
X140103412Y-147412414D01*
X140105304Y-147400541D01*
X140105780Y-147391617D01*
X140120766Y-147068019D01*
X140120510Y-147063052D01*
X140121148Y-147058117D01*
X140121360Y-147049183D01*
X140128067Y-146650715D01*
X140128051Y-146650516D01*
X140128074Y-146650314D01*
X140128156Y-146641378D01*
X140128332Y-146562836D01*
X140128325Y-146562759D01*
X140128334Y-146561402D01*
X140128334Y-145464137D01*
X140125695Y-145437226D01*
X140126056Y-145410186D01*
X140119615Y-145375215D01*
X140116145Y-145339827D01*
X140108329Y-145313939D01*
X140103431Y-145287346D01*
X140090320Y-145254292D01*
X140080043Y-145220252D01*
X140067349Y-145196378D01*
X140057378Y-145171239D01*
X140038097Y-145141361D01*
X140021404Y-145109966D01*
X140004313Y-145089011D01*
X139989650Y-145066289D01*
X139964928Y-145040721D01*
X139942459Y-145013171D01*
X139921630Y-144995940D01*
X139902827Y-144976493D01*
X139873608Y-144956212D01*
X139846217Y-144933553D01*
X139822433Y-144920693D01*
X139800215Y-144905272D01*
X139767618Y-144891055D01*
X139736344Y-144874145D01*
X139710518Y-144866150D01*
X139685725Y-144855337D01*
X139677206Y-144852641D01*
X139125191Y-144682141D01*
X139121411Y-144681368D01*
X139117832Y-144679916D01*
X139109246Y-144677442D01*
X138348069Y-144463829D01*
X138332302Y-144461027D01*
X138317098Y-144455965D01*
X138308371Y-144454045D01*
X137578832Y-144298776D01*
X137560328Y-144296695D01*
X137542276Y-144292098D01*
X137533433Y-144290810D01*
X136787675Y-144187489D01*
X136770845Y-144186817D01*
X136754289Y-144183754D01*
X136745380Y-144183056D01*
X135935540Y-144125291D01*
X135923647Y-144125607D01*
X135911853Y-144124042D01*
X135902920Y-144123799D01*
X134981142Y-144105194D01*
X134978814Y-144105375D01*
X134976493Y-144105117D01*
X134967557Y-144105064D01*
X134830997Y-144105207D01*
X134830959Y-144105211D01*
X134822541Y-144105272D01*
X134035203Y-144116500D01*
X134028804Y-144117220D01*
X134022368Y-144116811D01*
X134013440Y-144117181D01*
X133363504Y-144148586D01*
X133350426Y-144150509D01*
X133337203Y-144150400D01*
X133328308Y-144151261D01*
X132784537Y-144207711D01*
X132764196Y-144211859D01*
X132743483Y-144213321D01*
X132734683Y-144214879D01*
X132265840Y-144301241D01*
X132240756Y-144308451D01*
X132215008Y-144312762D01*
X132206397Y-144315151D01*
X131781244Y-144436295D01*
X131757406Y-144445688D01*
X131732635Y-144452272D01*
X131724287Y-144455459D01*
X131311587Y-144616251D01*
X131300361Y-144621943D01*
X131288381Y-144625820D01*
X131280213Y-144629446D01*
X131128507Y-144698052D01*
X131106993Y-144710440D01*
X131084163Y-144720212D01*
X131076360Y-144724568D01*
X130516472Y-145042280D01*
X130468285Y-145076239D01*
X130419719Y-145109672D01*
X130414457Y-145114173D01*
X130414372Y-145114233D01*
X130414306Y-145114302D01*
X130412928Y-145115481D01*
X129963952Y-145504999D01*
X129961116Y-145507992D01*
X129957788Y-145510417D01*
X129918183Y-145553304D01*
X129878042Y-145595668D01*
X129875845Y-145599149D01*
X129873047Y-145602179D01*
X129867704Y-145609342D01*
X129510301Y-146095507D01*
X129480735Y-146145259D01*
X129450431Y-146194634D01*
X129446578Y-146202697D01*
X129161417Y-146810349D01*
X129149452Y-146844062D01*
X129134706Y-146876666D01*
X129131895Y-146885149D01*
X128954208Y-147434099D01*
X128951726Y-147445447D01*
X128947473Y-147456265D01*
X128945091Y-147464878D01*
X128906084Y-147609827D01*
X128904999Y-147616340D01*
X128902795Y-147622568D01*
X128900712Y-147631258D01*
X128867485Y-147774224D01*
X128865968Y-147785775D01*
X128862637Y-147796944D01*
X128860993Y-147805727D01*
X128832986Y-147961322D01*
X128832030Y-147973189D01*
X128829213Y-147984765D01*
X128828020Y-147993621D01*
X128804670Y-148176450D01*
X128804411Y-148185300D01*
X128802675Y-148193988D01*
X128801850Y-148202886D01*
X128782597Y-148427560D01*
X128782659Y-148432592D01*
X128781818Y-148437562D01*
X128781258Y-148446481D01*
X128765542Y-148727611D01*
X128765619Y-148729443D01*
X128765347Y-148731268D01*
X128764962Y-148740196D01*
X128752221Y-149092388D01*
X128752225Y-149092453D01*
X128751981Y-149100437D01*
X128741655Y-149538304D01*
X128741666Y-149538458D01*
X128741556Y-149543317D01*
X128733083Y-150081468D01*
X128733095Y-150081612D01*
X128733043Y-150084507D01*
X128725863Y-150737549D01*
X128725871Y-150737643D01*
X128725846Y-150739311D01*
X128719398Y-151521856D01*
X128719403Y-151521912D01*
X128719391Y-151522794D01*
X128713114Y-152449449D01*
X128713116Y-152449468D01*
X128713111Y-152449827D01*
X128708340Y-153221543D01*
X128708341Y-153221552D01*
X128708340Y-153221618D01*
X128678427Y-158153452D01*
X123560788Y-158153452D01*
X123579904Y-158099616D01*
X123579935Y-158099490D01*
X123582008Y-158093595D01*
X123673929Y-157826298D01*
X123673951Y-157826204D01*
X123674532Y-157824538D01*
X123808948Y-157429944D01*
X123808961Y-157429889D01*
X123809237Y-157429093D01*
X123981233Y-156921845D01*
X123981241Y-156921812D01*
X123981406Y-156921334D01*
X124186065Y-156316078D01*
X124186069Y-156316059D01*
X124186183Y-156315730D01*
X124418590Y-155627111D01*
X124418595Y-155627091D01*
X124418677Y-155626852D01*
X124673916Y-154869515D01*
X124673919Y-154869501D01*
X124673986Y-154869307D01*
X124947140Y-154057896D01*
X124947142Y-154057888D01*
X124947199Y-154057722D01*
X125233353Y-153206882D01*
X125233356Y-153206868D01*
X125233405Y-153206726D01*
X125527643Y-152331103D01*
X125527644Y-152331099D01*
X125527693Y-152330956D01*
X125825099Y-151445195D01*
X125825103Y-151445179D01*
X125825147Y-151445050D01*
X126120805Y-150563795D01*
X126120807Y-150563785D01*
X126120856Y-150563643D01*
X126409849Y-149701539D01*
X126409852Y-149701526D01*
X126409904Y-149701374D01*
X126687319Y-148873066D01*
X126687323Y-148873048D01*
X126687382Y-148872876D01*
X126948300Y-148093009D01*
X126948303Y-148092994D01*
X126948378Y-148092776D01*
X127187884Y-147375995D01*
X127187888Y-147375979D01*
X127187986Y-147375691D01*
X127401163Y-146736639D01*
X127401169Y-146736612D01*
X127401305Y-146736213D01*
X127583240Y-146189538D01*
X127583250Y-146189496D01*
X127583465Y-146188861D01*
X127729239Y-145749207D01*
X127729256Y-145749130D01*
X127729657Y-145747941D01*
X127834356Y-145429953D01*
X127834388Y-145429810D01*
X127835454Y-145426588D01*
X127894161Y-145244909D01*
X127895058Y-145240800D01*
X127896685Y-145236920D01*
X127899261Y-145228363D01*
X127910429Y-145190313D01*
X127912483Y-145179502D01*
X127916241Y-145169174D01*
X127924118Y-145118262D01*
X127933743Y-145067602D01*
X127933658Y-145056602D01*
X127935339Y-145045737D01*
X127933176Y-144994249D01*
X127932778Y-144942700D01*
X127930558Y-144931928D01*
X127930097Y-144920941D01*
X127917977Y-144870863D01*
X127907572Y-144820363D01*
X127903301Y-144810223D01*
X127900715Y-144799540D01*
X127879089Y-144752748D01*
X127859082Y-144705253D01*
X127852930Y-144696147D01*
X127848313Y-144686157D01*
X127818000Y-144644443D01*
X127789159Y-144601753D01*
X127781351Y-144594011D01*
X127774885Y-144585113D01*
X127737046Y-144550080D01*
X127700464Y-144513807D01*
X127691306Y-144507732D01*
X127683230Y-144500255D01*
X127639311Y-144473242D01*
X127596376Y-144444762D01*
X127586204Y-144440578D01*
X127576837Y-144434817D01*
X127528514Y-144416851D01*
X127480859Y-144397250D01*
X127470076Y-144395123D01*
X127459761Y-144391288D01*
X127451106Y-144389067D01*
X127371031Y-144369110D01*
X127322657Y-144361971D01*
X127274632Y-144352781D01*
X127265728Y-144352029D01*
X127043856Y-144334828D01*
X127036179Y-144334984D01*
X127028576Y-144333826D01*
X127019650Y-144333412D01*
X126683508Y-144320133D01*
X126681537Y-144320248D01*
X126679573Y-144319989D01*
X126670640Y-144319754D01*
X126247909Y-144311565D01*
X126247901Y-144311564D01*
X126247788Y-144311563D01*
X126247758Y-144311562D01*
X126247756Y-144311562D01*
X126238966Y-144311452D01*
X125864584Y-144309344D01*
X125864433Y-144309358D01*
X125860980Y-144309334D01*
X124425627Y-144309334D01*
X124389140Y-144312912D01*
X124352464Y-144313529D01*
X124327113Y-144318994D01*
X124301317Y-144321523D01*
X124266217Y-144332120D01*
X124230363Y-144339849D01*
X124206557Y-144350133D01*
X124181742Y-144357625D01*
X124149371Y-144374837D01*
X124115698Y-144389383D01*
X124094345Y-144404094D01*
X124071456Y-144416264D01*
X124043037Y-144439443D01*
X124012839Y-144460247D01*
X123994752Y-144478823D01*
X123974661Y-144495209D01*
X123951288Y-144523462D01*
X123925703Y-144549739D01*
X123911567Y-144571476D01*
X123895043Y-144591451D01*
X123877603Y-144623706D01*
X123857609Y-144654452D01*
X123847964Y-144678521D01*
X123835635Y-144701324D01*
X123824793Y-144736347D01*
X123811150Y-144770396D01*
X123808712Y-144778993D01*
X123729413Y-145066187D01*
X123549679Y-145711978D01*
X123346392Y-146433410D01*
X123123625Y-147216682D01*
X122885799Y-148046761D01*
X122637448Y-148908227D01*
X122382807Y-149786697D01*
X122126091Y-150667855D01*
X121872023Y-151535641D01*
X121624725Y-152376071D01*
X121388756Y-153173654D01*
X121168002Y-153915176D01*
X121042728Y-154332786D01*
X120885412Y-153789566D01*
X120885410Y-153789561D01*
X120656277Y-152995597D01*
X120407886Y-152132343D01*
X120407864Y-152132265D01*
X120143664Y-151211594D01*
X120143661Y-151211587D01*
X119942691Y-150509679D01*
X119942688Y-150509672D01*
X118301987Y-144774011D01*
X118289620Y-144742717D01*
X118280125Y-144710426D01*
X118266718Y-144684765D01*
X118256080Y-144657847D01*
X118237869Y-144629549D01*
X118222284Y-144599720D01*
X118204150Y-144577153D01*
X118188485Y-144552812D01*
X118165129Y-144528594D01*
X118144043Y-144502355D01*
X118121867Y-144483738D01*
X118101776Y-144462906D01*
X118074158Y-144443685D01*
X118048379Y-144422043D01*
X118023008Y-144408087D01*
X117999254Y-144391555D01*
X117968436Y-144378068D01*
X117938938Y-144361841D01*
X117911337Y-144353078D01*
X117884827Y-144341476D01*
X117851969Y-144334229D01*
X117819887Y-144324044D01*
X117791118Y-144320810D01*
X117762853Y-144314576D01*
X117729214Y-144313850D01*
X117695764Y-144310089D01*
X117686828Y-144310025D01*
X116310995Y-144309679D01*
X116310843Y-144309694D01*
X116307192Y-144309689D01*
X115766743Y-144312765D01*
X115764434Y-144313005D01*
X115762121Y-144312808D01*
X115753186Y-144312986D01*
X115363897Y-144323452D01*
X115353021Y-144324814D01*
X115342067Y-144324412D01*
X115333152Y-144325019D01*
X115076954Y-144344266D01*
X115040219Y-144350675D01*
X115003104Y-144354164D01*
X114994344Y-144355926D01*
X114853170Y-144385343D01*
X114811354Y-144398424D01*
X114768817Y-144409046D01*
X114751850Y-144417038D01*
X114733960Y-144422634D01*
X114695475Y-144443591D01*
X114655818Y-144462270D01*
X114640729Y-144473403D01*
X114624264Y-144482369D01*
X114590580Y-144510404D01*
X114555309Y-144536427D01*
X114548712Y-144542456D01*
X114504494Y-144583432D01*
X114497977Y-144590778D01*
X114490334Y-144596961D01*
X114464533Y-144627900D01*
X114455246Y-144636735D01*
X114447608Y-144647551D01*
X114421599Y-144676867D01*
X114416633Y-144685338D01*
X114410337Y-144692888D01*
X114392455Y-144725651D01*
X114383194Y-144738765D01*
X114376460Y-144753868D01*
X114358432Y-144784623D01*
X114355206Y-144793898D01*
X114350496Y-144802527D01*
X114340337Y-144834894D01*
X114332333Y-144852847D01*
X114327844Y-144872559D01*
X114317396Y-144902596D01*
X114316031Y-144912334D01*
X114313091Y-144921701D01*
X114309814Y-144951734D01*
X114304599Y-144974636D01*
X114303912Y-144998795D01*
X114300058Y-145026293D01*
X114300610Y-145036100D01*
X114299544Y-145045869D01*
X114299509Y-145054806D01*
X112611667Y-145054806D01*
X112611667Y-140165775D01*
X120459080Y-140165775D01*
X120699226Y-140553018D01*
X121193127Y-140813641D01*
X121728383Y-140972901D01*
X122284424Y-141024678D01*
X122839882Y-140966981D01*
X123373411Y-140802028D01*
X123839274Y-140553018D01*
X124079420Y-140165775D01*
X122269250Y-138355605D01*
X120459080Y-140165775D01*
X112611667Y-140165775D01*
X112611667Y-139599820D01*
X112611522Y-139598341D01*
X112611660Y-139596864D01*
X112605422Y-139536133D01*
X112599478Y-139475510D01*
X112599050Y-139474093D01*
X112598898Y-139472612D01*
X112580931Y-139414079D01*
X112563376Y-139355935D01*
X112562683Y-139354631D01*
X112562245Y-139353205D01*
X112533349Y-139299462D01*
X112504737Y-139245649D01*
X112503795Y-139244494D01*
X112503095Y-139243192D01*
X112464315Y-139196087D01*
X112425792Y-139148854D01*
X112424654Y-139147913D01*
X112423706Y-139146761D01*
X112376366Y-139107966D01*
X112329550Y-139069236D01*
X112328247Y-139068532D01*
X112327097Y-139067589D01*
X112273184Y-139038759D01*
X112219677Y-139009828D01*
X112218264Y-139009391D01*
X112216950Y-139008688D01*
X112158579Y-138990915D01*
X112100357Y-138972892D01*
X112098877Y-138972736D01*
X112097460Y-138972305D01*
X112036724Y-138966204D01*
X111976135Y-138959836D01*
X111974663Y-138959970D01*
X111973180Y-138959821D01*
X111964244Y-138959863D01*
X108387077Y-139001358D01*
X108387036Y-139001363D01*
X108386424Y-139001366D01*
X107444306Y-139013255D01*
X107444186Y-139013268D01*
X107441875Y-139013290D01*
X106649150Y-139026306D01*
X106648990Y-139026324D01*
X106644425Y-139026401D01*
X105981156Y-139042191D01*
X105981098Y-139042198D01*
X105973050Y-139042436D01*
X105419297Y-139062643D01*
X105417362Y-139062904D01*
X105415401Y-139062796D01*
X105406476Y-139063239D01*
X104942303Y-139089507D01*
X104937411Y-139090268D01*
X104932461Y-139090140D01*
X104923553Y-139090845D01*
X104529021Y-139124820D01*
X104521091Y-139126293D01*
X104513022Y-139126400D01*
X104504148Y-139127452D01*
X104159318Y-139170777D01*
X104149365Y-139173031D01*
X104139181Y-139173633D01*
X104130364Y-139175090D01*
X103815297Y-139229410D01*
X103805626Y-139232070D01*
X103795642Y-139233115D01*
X103786900Y-139234970D01*
X103481658Y-139301930D01*
X103474871Y-139304132D01*
X103467795Y-139305132D01*
X103459126Y-139307302D01*
X103143772Y-139388545D01*
X103141770Y-139389275D01*
X103139655Y-139389619D01*
X103131033Y-139391967D01*
X102862882Y-139466975D01*
X102842050Y-139475067D01*
X102820358Y-139480484D01*
X102811962Y-139483544D01*
X101927825Y-139812752D01*
X101885012Y-139833655D01*
X101841279Y-139852541D01*
X101833491Y-139856923D01*
X101049010Y-140305442D01*
X101007967Y-140334565D01*
X100965837Y-140362110D01*
X100958910Y-140367755D01*
X100285732Y-140924214D01*
X100248341Y-140961838D01*
X100209866Y-140998328D01*
X100204061Y-141005121D01*
X99653835Y-141658152D01*
X99622420Y-141703832D01*
X99590014Y-141748797D01*
X99585576Y-141756553D01*
X99169949Y-142494787D01*
X99147837Y-142544971D01*
X99124527Y-142594622D01*
X99121596Y-142603064D01*
X98866254Y-143355353D01*
X98855614Y-143400901D01*
X98842747Y-143445865D01*
X98841201Y-143454667D01*
X98760160Y-143935398D01*
X98758488Y-143959499D01*
X98753938Y-143983240D01*
X98753183Y-143992144D01*
X98707227Y-144582825D01*
X98707529Y-144597854D01*
X98705602Y-144612763D01*
X98705390Y-144621697D01*
X98694534Y-145266614D01*
X97677208Y-145266614D01*
X97672320Y-145254292D01*
X97662043Y-145220252D01*
X97649349Y-145196378D01*
X97639378Y-145171239D01*
X97620097Y-145141361D01*
X97603404Y-145109966D01*
X97586313Y-145089011D01*
X97571650Y-145066289D01*
X97546928Y-145040721D01*
X97524459Y-145013171D01*
X97503630Y-144995940D01*
X97484827Y-144976493D01*
X97455608Y-144956212D01*
X97428217Y-144933553D01*
X97404433Y-144920693D01*
X97382215Y-144905272D01*
X97349618Y-144891055D01*
X97318344Y-144874145D01*
X97292518Y-144866150D01*
X97267725Y-144855337D01*
X97259206Y-144852641D01*
X96707191Y-144682141D01*
X96703411Y-144681368D01*
X96699832Y-144679916D01*
X96691246Y-144677442D01*
X95930069Y-144463829D01*
X95914302Y-144461027D01*
X95899098Y-144455965D01*
X95890371Y-144454045D01*
X95160832Y-144298776D01*
X95142328Y-144296695D01*
X95124276Y-144292098D01*
X95115433Y-144290810D01*
X94369675Y-144187489D01*
X94352845Y-144186817D01*
X94336289Y-144183754D01*
X94327380Y-144183056D01*
X93517540Y-144125291D01*
X93505647Y-144125607D01*
X93493853Y-144124042D01*
X93484920Y-144123799D01*
X92563142Y-144105194D01*
X92560814Y-144105375D01*
X92558493Y-144105117D01*
X92549557Y-144105064D01*
X92412997Y-144105207D01*
X92412959Y-144105211D01*
X92404541Y-144105272D01*
X91617203Y-144116500D01*
X91610804Y-144117220D01*
X91604368Y-144116811D01*
X91595440Y-144117181D01*
X90945504Y-144148586D01*
X90932426Y-144150509D01*
X90919203Y-144150400D01*
X90910308Y-144151261D01*
X90366537Y-144207711D01*
X90346196Y-144211859D01*
X90325483Y-144213321D01*
X90316683Y-144214879D01*
X89847840Y-144301241D01*
X89822756Y-144308451D01*
X89797008Y-144312762D01*
X89788397Y-144315151D01*
X89363244Y-144436295D01*
X89339406Y-144445688D01*
X89314635Y-144452272D01*
X89306287Y-144455459D01*
X88893587Y-144616251D01*
X88882361Y-144621943D01*
X88870381Y-144625820D01*
X88862213Y-144629446D01*
X88710507Y-144698052D01*
X88688993Y-144710440D01*
X88666163Y-144720212D01*
X88658360Y-144724568D01*
X88098472Y-145042280D01*
X88050285Y-145076239D01*
X88001719Y-145109672D01*
X87996457Y-145114173D01*
X87996372Y-145114233D01*
X87996306Y-145114302D01*
X87994928Y-145115481D01*
X87545952Y-145504999D01*
X87543116Y-145507992D01*
X87539788Y-145510417D01*
X87500183Y-145553304D01*
X87460042Y-145595668D01*
X87457845Y-145599149D01*
X87455047Y-145602179D01*
X87449704Y-145609342D01*
X87092301Y-146095507D01*
X87062735Y-146145259D01*
X87032431Y-146194634D01*
X87028578Y-146202697D01*
X86743417Y-146810349D01*
X86731452Y-146844062D01*
X86716706Y-146876666D01*
X86713895Y-146885149D01*
X86536208Y-147434099D01*
X86533726Y-147445447D01*
X86529473Y-147456265D01*
X86527091Y-147464878D01*
X86488084Y-147609827D01*
X86486999Y-147616340D01*
X86484795Y-147622568D01*
X86482712Y-147631258D01*
X86449485Y-147774224D01*
X86447968Y-147785775D01*
X86444637Y-147796944D01*
X86442993Y-147805727D01*
X86414986Y-147961322D01*
X86414030Y-147973189D01*
X86411213Y-147984765D01*
X86410020Y-147993621D01*
X86386670Y-148176450D01*
X86386411Y-148185300D01*
X86384675Y-148193988D01*
X86383850Y-148202886D01*
X86364597Y-148427560D01*
X86364659Y-148432592D01*
X86363818Y-148437562D01*
X86363258Y-148446481D01*
X86347542Y-148727611D01*
X86347619Y-148729443D01*
X86347347Y-148731268D01*
X86346962Y-148740196D01*
X86334221Y-149092388D01*
X86334225Y-149092453D01*
X86333981Y-149100437D01*
X86323655Y-149538304D01*
X86323666Y-149538458D01*
X86323556Y-149543317D01*
X86315083Y-150081468D01*
X86315095Y-150081612D01*
X86315043Y-150084507D01*
X86307863Y-150737549D01*
X86307871Y-150737643D01*
X86307846Y-150739311D01*
X86301398Y-151521856D01*
X86301403Y-151521912D01*
X86301391Y-151522794D01*
X86295114Y-152449449D01*
X86295116Y-152449468D01*
X86295111Y-152449827D01*
X86290340Y-153221543D01*
X86290341Y-153221552D01*
X86290340Y-153221618D01*
X86260427Y-158153452D01*
X81813991Y-158153452D01*
X81867481Y-158122609D01*
X81909900Y-158092275D01*
X81953298Y-158063314D01*
X81960172Y-158057603D01*
X82629753Y-157493420D01*
X82663456Y-157458862D01*
X82698667Y-157425836D01*
X82704510Y-157419075D01*
X83289993Y-156731946D01*
X83315537Y-156695238D01*
X83343084Y-156660009D01*
X83347822Y-156652432D01*
X83838855Y-155854979D01*
X83857189Y-155817425D01*
X83877920Y-155781138D01*
X83881517Y-155772958D01*
X84267751Y-154877802D01*
X84279797Y-154840144D01*
X84294522Y-154803440D01*
X84296963Y-154794843D01*
X84568047Y-153814606D01*
X84571788Y-153793078D01*
X84578237Y-153772184D01*
X84579965Y-153763416D01*
X84626351Y-153519146D01*
X84627809Y-153502972D01*
X84631588Y-153487174D01*
X84632746Y-153478313D01*
X84699441Y-152939135D01*
X84699863Y-152922491D01*
X84702663Y-152906070D01*
X84703235Y-152897152D01*
X84740073Y-152253782D01*
X84739663Y-152243677D01*
X84740909Y-152233634D01*
X84741076Y-152224699D01*
X84749315Y-151521889D01*
X84748643Y-151514091D01*
X84749308Y-151506291D01*
X84749132Y-151497356D01*
X84740374Y-151168368D01*
X84740374Y-151168367D01*
X84730031Y-150779856D01*
X84729033Y-150771874D01*
X84729404Y-150763832D01*
X84728880Y-150754911D01*
X84683695Y-150067473D01*
X84681911Y-150056649D01*
X84681888Y-150045670D01*
X84680935Y-150036785D01*
X84610926Y-149424157D01*
X84606899Y-149405405D01*
X84605446Y-149386280D01*
X84603841Y-149377490D01*
X84510265Y-148884423D01*
X84505748Y-148869022D01*
X84503512Y-148853135D01*
X84501348Y-148844464D01*
X84492931Y-148811711D01*
X84487970Y-148798088D01*
X84485100Y-148783859D01*
X84482427Y-148775332D01*
X84307710Y-148231222D01*
X84299280Y-148211742D01*
X84293430Y-148191336D01*
X84290082Y-148183050D01*
X84050350Y-147601289D01*
X84042479Y-147586482D01*
X84036798Y-147570696D01*
X84032910Y-147562650D01*
X83753013Y-146993609D01*
X83743363Y-146978040D01*
X83735956Y-146961296D01*
X83731507Y-146953546D01*
X83436292Y-146447596D01*
X83419957Y-146424999D01*
X83406162Y-146400765D01*
X83400953Y-146393504D01*
X83115271Y-146001015D01*
X83100893Y-145984849D01*
X83088689Y-145966970D01*
X83082907Y-145960157D01*
X83073240Y-145948925D01*
X83054150Y-145930694D01*
X83037240Y-145910424D01*
X83030829Y-145904198D01*
X82388529Y-145289065D01*
X82344635Y-145254571D01*
X82301463Y-145219167D01*
X82293999Y-145214254D01*
X81557039Y-144736509D01*
X81507777Y-144711024D01*
X81459097Y-144684469D01*
X81450848Y-144681033D01*
X80630736Y-144346145D01*
X80579420Y-144330835D01*
X80528579Y-144314103D01*
X80519845Y-144312212D01*
X79628088Y-144125650D01*
X79593994Y-144121936D01*
X79560358Y-144115228D01*
X79551459Y-144114406D01*
X79179290Y-144082641D01*
X79148424Y-144083030D01*
X79117672Y-144080363D01*
X79108737Y-144080526D01*
X78146730Y-144104774D01*
X78096776Y-144110947D01*
X78046636Y-144115212D01*
X78037860Y-144116896D01*
X77142555Y-144295189D01*
X77090558Y-144310950D01*
X77038154Y-144325388D01*
X77029834Y-144328650D01*
X76190636Y-144664373D01*
X76143957Y-144688573D01*
X76096526Y-144711329D01*
X76088917Y-144716016D01*
X75562232Y-145045513D01*
X75547913Y-142707623D01*
X75525837Y-139103414D01*
X75519794Y-139045445D01*
X75514513Y-138987410D01*
X75513323Y-138983368D01*
X75512887Y-138979181D01*
X75495712Y-138923528D01*
X75479247Y-138867586D01*
X75477294Y-138863850D01*
X75476053Y-138859829D01*
X75448371Y-138808527D01*
X75421378Y-138756894D01*
X75418742Y-138753616D01*
X75416740Y-138749905D01*
X75379633Y-138704973D01*
X75343112Y-138659549D01*
X75339881Y-138656838D01*
X75337203Y-138653595D01*
X75292131Y-138616771D01*
X75247428Y-138579261D01*
X75243732Y-138577229D01*
X75240475Y-138574568D01*
X75189094Y-138547192D01*
X75137972Y-138519087D01*
X75133955Y-138517813D01*
X75130241Y-138515834D01*
X75074481Y-138498947D01*
X75018912Y-138481320D01*
X75014727Y-138480851D01*
X75010697Y-138479630D01*
X74952749Y-138473898D01*
X74894785Y-138467396D01*
X74886427Y-138467338D01*
X74886397Y-138467335D01*
X74886370Y-138467338D01*
X74885849Y-138467334D01*
X72178334Y-138467334D01*
X72118396Y-138473211D01*
X72058410Y-138478670D01*
X72056255Y-138479304D01*
X72054024Y-138479523D01*
X71996443Y-138496908D01*
X71938586Y-138513936D01*
X71936594Y-138514977D01*
X71934449Y-138515625D01*
X71881252Y-138543910D01*
X71827894Y-138571805D01*
X71826149Y-138573208D01*
X71824163Y-138574264D01*
X71777480Y-138612339D01*
X71730549Y-138650071D01*
X71729104Y-138651793D01*
X71727368Y-138653209D01*
X71689041Y-138699538D01*
X71650261Y-138745755D01*
X71649178Y-138747725D01*
X71647750Y-138749451D01*
X71619151Y-138802343D01*
X71590087Y-138855211D01*
X71589407Y-138857354D01*
X71588342Y-138859324D01*
X71570538Y-138916839D01*
X71552320Y-138974271D01*
X71552070Y-138976499D01*
X71551406Y-138978644D01*
X71545114Y-139038511D01*
X71538396Y-139098398D01*
X71538366Y-139102713D01*
X71538350Y-139102866D01*
X71538364Y-139103019D01*
X71538334Y-139107334D01*
X63037471Y-139107334D01*
X63153651Y-138716867D01*
X63202602Y-138191174D01*
X119420572Y-138191174D01*
X119478269Y-138746632D01*
X119643222Y-139280161D01*
X119892232Y-139746024D01*
X120279475Y-139986170D01*
X122089645Y-138176000D01*
X122448855Y-138176000D01*
X124259025Y-139986170D01*
X124646268Y-139746024D01*
X124715230Y-139615334D01*
X142827667Y-139615334D01*
X142827667Y-158161428D01*
X142827968Y-158164494D01*
X142827697Y-158167556D01*
X142834056Y-158226588D01*
X142839856Y-158285738D01*
X142840745Y-158288684D01*
X142841075Y-158291744D01*
X142858794Y-158348463D01*
X142875958Y-158405313D01*
X142877402Y-158408029D01*
X142878320Y-158410967D01*
X142906691Y-158463114D01*
X142934597Y-158515599D01*
X142936545Y-158517987D01*
X142938013Y-158520686D01*
X142975997Y-158566360D01*
X143013542Y-158612394D01*
X143015909Y-158614353D01*
X143017880Y-158616722D01*
X143064085Y-158654206D01*
X143109784Y-158692012D01*
X143112487Y-158693473D01*
X143114880Y-158695415D01*
X143167488Y-158723212D01*
X143219657Y-158751420D01*
X143222592Y-158752328D01*
X143225318Y-158753769D01*
X143282251Y-158770796D01*
X143338977Y-158788356D01*
X143342042Y-158788678D01*
X143344987Y-158789559D01*
X143404118Y-158795202D01*
X143463199Y-158801412D01*
X143466261Y-158801133D01*
X143469327Y-158801426D01*
X143478263Y-158801340D01*
X144880217Y-158778126D01*
X146282170Y-158754912D01*
X146295762Y-158753352D01*
X146309435Y-158753879D01*
X146357712Y-158746240D01*
X146406261Y-158740667D01*
X146419289Y-158736497D01*
X146432807Y-158734358D01*
X146478688Y-158717484D01*
X146525222Y-158702590D01*
X146537193Y-158695969D01*
X146550037Y-158691245D01*
X146591758Y-158665787D01*
X146634522Y-158642133D01*
X146644981Y-158633310D01*
X146656660Y-158626184D01*
X146692631Y-158593116D01*
X146729997Y-158561597D01*
X146738546Y-158550907D01*
X146748615Y-158541651D01*
X146777482Y-158502222D01*
X146808010Y-158464050D01*
X146814316Y-158451911D01*
X146822401Y-158440868D01*
X146826897Y-158433145D01*
X153545481Y-146705857D01*
X153581327Y-158159337D01*
X153587293Y-158218277D01*
X153592660Y-158277258D01*
X153593578Y-158280377D01*
X153593905Y-158283608D01*
X153611191Y-158340220D01*
X153627926Y-158397082D01*
X153629433Y-158399964D01*
X153630381Y-158403070D01*
X153658371Y-158455318D01*
X153685795Y-158507774D01*
X153687827Y-158510302D01*
X153689365Y-158513172D01*
X153726950Y-158558962D01*
X153764061Y-158605119D01*
X153766555Y-158607212D01*
X153768613Y-158609719D01*
X153814327Y-158647297D01*
X153859745Y-158685407D01*
X153862593Y-158686973D01*
X153865103Y-158689036D01*
X153917282Y-158717038D01*
X153969201Y-158745581D01*
X153972300Y-158746564D01*
X153975162Y-158748100D01*
X154031825Y-158765446D01*
X154088261Y-158783348D01*
X154091487Y-158783710D01*
X154094597Y-158784662D01*
X154153523Y-158790669D01*
X154212388Y-158797272D01*
X154218732Y-158797316D01*
X154218859Y-158797329D01*
X154218979Y-158797318D01*
X154221324Y-158797334D01*
X156929667Y-158797334D01*
X156989605Y-158791457D01*
X157049591Y-158785998D01*
X157051746Y-158785364D01*
X157053977Y-158785145D01*
X157111558Y-158767760D01*
X157169415Y-158750732D01*
X157171407Y-158749691D01*
X157173552Y-158749043D01*
X157226749Y-158720758D01*
X157280107Y-158692863D01*
X157281852Y-158691460D01*
X157283838Y-158690404D01*
X157330521Y-158652329D01*
X157377452Y-158614597D01*
X157378897Y-158612875D01*
X157380633Y-158611459D01*
X157418960Y-158565130D01*
X157457740Y-158518913D01*
X157458823Y-158516943D01*
X157460251Y-158515217D01*
X157488850Y-158462325D01*
X157517914Y-158409457D01*
X157518594Y-158407314D01*
X157519659Y-158405344D01*
X157537463Y-158347829D01*
X157555681Y-158290397D01*
X157555931Y-158288169D01*
X157556595Y-158286024D01*
X157562887Y-158226157D01*
X157569605Y-158166270D01*
X157569635Y-158161955D01*
X157569651Y-158161802D01*
X157569637Y-158161649D01*
X157569667Y-158157334D01*
X157569667Y-157617475D01*
X160940330Y-157617475D01*
X162750500Y-159427645D01*
X164560670Y-157617475D01*
X164320524Y-157230232D01*
X163826623Y-156969609D01*
X163291367Y-156810349D01*
X162735326Y-156758572D01*
X162179868Y-156816269D01*
X161646339Y-156981222D01*
X161180476Y-157230232D01*
X160940330Y-157617475D01*
X157569667Y-157617475D01*
X157569667Y-139611139D01*
X157569353Y-139607934D01*
X157569634Y-139604736D01*
X157563266Y-139545856D01*
X157557478Y-139486829D01*
X157556549Y-139483751D01*
X157556203Y-139480554D01*
X157538494Y-139423952D01*
X157521376Y-139367254D01*
X157519868Y-139364418D01*
X157518907Y-139361346D01*
X157490569Y-139309314D01*
X157462737Y-139256968D01*
X157460701Y-139254472D01*
X157459166Y-139251653D01*
X157421268Y-139206122D01*
X157383792Y-139160173D01*
X157381317Y-139158125D01*
X157379258Y-139155652D01*
X157333161Y-139118288D01*
X157287550Y-139080555D01*
X157284726Y-139079028D01*
X157282224Y-139077000D01*
X157229714Y-139049283D01*
X157177677Y-139021147D01*
X157174611Y-139020198D01*
X157171762Y-139018694D01*
X157114935Y-139001725D01*
X157058357Y-138984211D01*
X157055157Y-138983875D01*
X157052077Y-138982955D01*
X156993073Y-138977350D01*
X156934135Y-138971155D01*
X156930935Y-138971446D01*
X156927732Y-138971142D01*
X156918796Y-138971231D01*
X154179980Y-139017759D01*
X154166323Y-139019333D01*
X154152602Y-139018812D01*
X154104402Y-139026468D01*
X154055895Y-139032058D01*
X154042814Y-139036251D01*
X154029242Y-139038407D01*
X153983425Y-139055289D01*
X153936950Y-139070186D01*
X153924932Y-139076840D01*
X153912038Y-139081591D01*
X153870382Y-139107044D01*
X153827676Y-139130690D01*
X153817178Y-139139553D01*
X153805454Y-139146717D01*
X153769533Y-139179779D01*
X153732236Y-139211268D01*
X153723660Y-139222000D01*
X153713550Y-139231306D01*
X153684727Y-139270724D01*
X153654265Y-139308848D01*
X153647940Y-139321036D01*
X153639826Y-139332133D01*
X153635335Y-139339859D01*
X149691910Y-146232809D01*
X146936502Y-151049152D01*
X146922336Y-146527445D01*
X146900674Y-139613329D01*
X146894711Y-139554417D01*
X146889341Y-139495410D01*
X146888422Y-139492287D01*
X146888095Y-139489058D01*
X146870821Y-139432483D01*
X146854075Y-139375586D01*
X146852568Y-139372702D01*
X146851619Y-139369596D01*
X146823637Y-139317364D01*
X146796206Y-139264894D01*
X146794172Y-139262365D01*
X146792635Y-139259495D01*
X146755041Y-139213694D01*
X146717940Y-139167549D01*
X146715448Y-139165458D01*
X146713387Y-139162947D01*
X146667656Y-139125356D01*
X146622256Y-139087261D01*
X146619406Y-139085694D01*
X146616896Y-139083631D01*
X146564761Y-139055653D01*
X146512800Y-139027087D01*
X146509696Y-139026103D01*
X146506837Y-139024568D01*
X146450232Y-139007240D01*
X146393740Y-138989320D01*
X146390511Y-138988958D01*
X146387402Y-138988006D01*
X146328498Y-138982001D01*
X146269613Y-138975396D01*
X146263267Y-138975352D01*
X146263140Y-138975339D01*
X146263020Y-138975350D01*
X146260677Y-138975334D01*
X143467667Y-138975334D01*
X143407729Y-138981211D01*
X143347743Y-138986670D01*
X143345588Y-138987304D01*
X143343357Y-138987523D01*
X143285776Y-139004908D01*
X143227919Y-139021936D01*
X143225927Y-139022977D01*
X143223782Y-139023625D01*
X143170585Y-139051910D01*
X143117227Y-139079805D01*
X143115482Y-139081208D01*
X143113496Y-139082264D01*
X143066813Y-139120339D01*
X143019882Y-139158071D01*
X143018437Y-139159793D01*
X143016701Y-139161209D01*
X142978374Y-139207538D01*
X142939594Y-139253755D01*
X142938511Y-139255725D01*
X142937083Y-139257451D01*
X142908484Y-139310343D01*
X142879420Y-139363211D01*
X142878740Y-139365354D01*
X142877675Y-139367324D01*
X142859871Y-139424839D01*
X142841653Y-139482271D01*
X142841403Y-139484499D01*
X142840739Y-139486644D01*
X142834447Y-139546511D01*
X142827729Y-139606398D01*
X142827699Y-139610713D01*
X142827683Y-139610866D01*
X142827697Y-139611019D01*
X142827667Y-139615334D01*
X124715230Y-139615334D01*
X124906891Y-139252123D01*
X125066151Y-138716867D01*
X125115102Y-138191174D01*
X200383072Y-138191174D01*
X200440769Y-138746632D01*
X200605722Y-139280161D01*
X200854732Y-139746024D01*
X201241975Y-139986170D01*
X203052145Y-138176000D01*
X201241975Y-136365830D01*
X200854732Y-136605976D01*
X200594109Y-137099877D01*
X200434849Y-137635133D01*
X200383072Y-138191174D01*
X125115102Y-138191174D01*
X125117928Y-138160826D01*
X125060231Y-137605368D01*
X124895278Y-137071839D01*
X124646268Y-136605976D01*
X124259025Y-136365830D01*
X122448855Y-138176000D01*
X122089645Y-138176000D01*
X120279475Y-136365830D01*
X119892232Y-136605976D01*
X119631609Y-137099877D01*
X119472349Y-137635133D01*
X119420572Y-138191174D01*
X63202602Y-138191174D01*
X63205428Y-138160826D01*
X63147731Y-137605368D01*
X62982778Y-137071839D01*
X62733768Y-136605976D01*
X62346525Y-136365830D01*
X60536355Y-138176000D01*
X60177145Y-138176000D01*
X60163003Y-138161858D01*
X60342608Y-137982253D01*
X60356750Y-137996395D01*
X62166920Y-136186225D01*
X120459080Y-136186225D01*
X122269250Y-137996395D01*
X124079420Y-136186225D01*
X123839274Y-135798982D01*
X123345373Y-135538359D01*
X122810117Y-135379099D01*
X122254076Y-135327322D01*
X121698618Y-135385019D01*
X121165089Y-135549972D01*
X120699226Y-135798982D01*
X120459080Y-136186225D01*
X62166920Y-136186225D01*
X61926774Y-135798982D01*
X61432873Y-135538359D01*
X60897617Y-135379099D01*
X60341576Y-135327322D01*
X59786118Y-135385019D01*
X59252589Y-135549972D01*
X58786726Y-135798982D01*
X58546581Y-136186223D01*
X58476750Y-136116392D01*
X58476750Y-83085608D01*
X58546581Y-83015777D01*
X58786726Y-83403018D01*
X59280627Y-83663641D01*
X59815883Y-83822901D01*
X60371924Y-83874678D01*
X60927382Y-83816981D01*
X61460911Y-83652028D01*
X61926774Y-83403018D01*
X62166920Y-83015775D01*
X60356750Y-81205605D01*
X60342608Y-81219748D01*
X60163003Y-81040143D01*
X60177145Y-81026000D01*
X60536355Y-81026000D01*
X62346525Y-82836170D01*
X62733768Y-82596024D01*
X62994391Y-82102123D01*
X63153651Y-81566867D01*
X63202602Y-81041174D01*
X200383072Y-81041174D01*
X200440769Y-81596632D01*
X200605722Y-82130161D01*
X200854732Y-82596024D01*
X201241975Y-82836170D01*
X203052145Y-81026000D01*
X201241975Y-79215830D01*
X200854732Y-79455976D01*
X200594109Y-79949877D01*
X200434849Y-80485133D01*
X200383072Y-81041174D01*
X63202602Y-81041174D01*
X63205428Y-81010826D01*
X63147731Y-80455368D01*
X62982778Y-79921839D01*
X62733768Y-79455976D01*
X62346525Y-79215830D01*
X60536355Y-81026000D01*
X60177145Y-81026000D01*
X60163003Y-81011858D01*
X60342608Y-80832253D01*
X60356750Y-80846395D01*
X62166920Y-79036225D01*
X61926774Y-78648982D01*
X61432873Y-78388359D01*
X60897617Y-78229099D01*
X60341576Y-78177322D01*
X59786118Y-78235019D01*
X59252589Y-78399972D01*
X58786726Y-78648982D01*
X58546581Y-79036223D01*
X58476750Y-78966392D01*
X58476750Y-63965775D01*
X120459080Y-63965775D01*
X120699226Y-64353018D01*
X121193127Y-64613641D01*
X121728383Y-64772901D01*
X122284424Y-64824678D01*
X122839882Y-64766981D01*
X123373411Y-64602028D01*
X123839274Y-64353018D01*
X124079420Y-63965775D01*
X122269250Y-62155605D01*
X120459080Y-63965775D01*
X58476750Y-63965775D01*
X58476750Y-61991174D01*
X119420572Y-61991174D01*
X119478269Y-62546632D01*
X119643222Y-63080161D01*
X119892232Y-63546024D01*
X120279475Y-63786170D01*
X122089645Y-61976000D01*
X122448855Y-61976000D01*
X124259025Y-63786170D01*
X124646268Y-63546024D01*
X124906891Y-63052123D01*
X125066151Y-62516867D01*
X125117928Y-61960826D01*
X125060231Y-61405368D01*
X124895278Y-60871839D01*
X124646268Y-60405976D01*
X124259025Y-60165830D01*
X122448855Y-61976000D01*
X122089645Y-61976000D01*
X120279475Y-60165830D01*
X119892232Y-60405976D01*
X119631609Y-60899877D01*
X119472349Y-61435133D01*
X119420572Y-61991174D01*
X58476750Y-61991174D01*
X58476750Y-59986225D01*
X120459080Y-59986225D01*
X122269250Y-61796395D01*
X124079420Y-59986225D01*
X123839274Y-59598982D01*
X123345373Y-59338359D01*
X122810117Y-59179099D01*
X122254076Y-59127322D01*
X121698618Y-59185019D01*
X121165089Y-59349972D01*
X120699226Y-59598982D01*
X120459080Y-59986225D01*
X58476750Y-59986225D01*
X58476750Y-33015858D01*
X58514831Y-32977777D01*
X58754976Y-33365018D01*
X59248877Y-33625641D01*
X59784133Y-33784901D01*
X60340174Y-33836678D01*
X60895632Y-33778981D01*
X61429161Y-33614028D01*
X61895024Y-33365018D01*
X62135170Y-32977775D01*
X115696580Y-32977775D01*
X115936726Y-33365018D01*
X116430627Y-33625641D01*
X116965883Y-33784901D01*
X117521924Y-33836678D01*
X118077382Y-33778981D01*
X118610911Y-33614028D01*
X119076774Y-33365018D01*
X119297230Y-33009525D01*
X131412830Y-33009525D01*
X131652976Y-33396768D01*
X132146877Y-33657391D01*
X132682133Y-33816651D01*
X133238174Y-33868428D01*
X133793632Y-33810731D01*
X134327161Y-33645778D01*
X134793024Y-33396768D01*
X135033170Y-33009525D01*
X135001420Y-32977775D01*
X153796580Y-32977775D01*
X154036726Y-33365018D01*
X154530627Y-33625641D01*
X155065883Y-33784901D01*
X155621924Y-33836678D01*
X156177382Y-33778981D01*
X156710911Y-33614028D01*
X157176774Y-33365018D01*
X157416920Y-32977775D01*
X155606750Y-31167605D01*
X153796580Y-32977775D01*
X135001420Y-32977775D01*
X133223000Y-31199355D01*
X131412830Y-33009525D01*
X119297230Y-33009525D01*
X119316920Y-32977775D01*
X117506750Y-31167605D01*
X115696580Y-32977775D01*
X62135170Y-32977775D01*
X60325000Y-31167605D01*
X60310858Y-31181748D01*
X60131253Y-31002143D01*
X60145395Y-30988000D01*
X60131253Y-30973858D01*
X60310858Y-30794253D01*
X60325000Y-30808395D01*
X60339143Y-30794253D01*
X60518748Y-30973858D01*
X60504605Y-30988000D01*
X62314775Y-32798170D01*
X62702018Y-32558024D01*
X62962641Y-32064123D01*
X63121901Y-31528867D01*
X63173678Y-30972826D01*
X63115981Y-30417368D01*
X62951028Y-29883839D01*
X62702018Y-29417976D01*
X62314777Y-29177831D01*
X62352858Y-29139750D01*
X115478892Y-29139750D01*
X115516973Y-29177831D01*
G36*
X78376723Y-147392777D02*
G01*
X78973896Y-147497538D01*
X79443447Y-147685860D01*
X79821566Y-147959192D01*
X80138786Y-148339347D01*
X80406275Y-148858241D01*
X80618548Y-149537288D01*
X80769911Y-150396833D01*
X80776131Y-150448564D01*
X80828950Y-151205071D01*
X80822427Y-151992904D01*
X80760286Y-152755465D01*
X80646133Y-153434743D01*
X80623417Y-153529522D01*
X80383631Y-154226707D01*
X80076352Y-154771344D01*
X79710028Y-155185940D01*
X79292537Y-155480016D01*
X78820984Y-155662119D01*
X78285631Y-155731348D01*
X77660110Y-155674022D01*
X77483104Y-155633831D01*
X76896301Y-155410023D01*
X76397054Y-155082400D01*
X75977400Y-154653430D01*
X75707993Y-154238553D01*
X75570000Y-153977123D01*
X75570000Y-149129544D01*
X75704683Y-148874384D01*
X76054818Y-148360409D01*
X76480720Y-147959556D01*
X76982392Y-147654839D01*
X77535700Y-147460102D01*
X78136096Y-147384250D01*
X78376723Y-147392777D01*
X78376723Y-147392777D01*
G37*
X78376723Y-147392777D02*
X78973896Y-147497538D01*
X79443447Y-147685860D01*
X79821566Y-147959192D01*
X80138786Y-148339347D01*
X80406275Y-148858241D01*
X80618548Y-149537288D01*
X80769911Y-150396833D01*
X80776131Y-150448564D01*
X80828950Y-151205071D01*
X80822427Y-151992904D01*
X80760286Y-152755465D01*
X80646133Y-153434743D01*
X80623417Y-153529522D01*
X80383631Y-154226707D01*
X80076352Y-154771344D01*
X79710028Y-155185940D01*
X79292537Y-155480016D01*
X78820984Y-155662119D01*
X78285631Y-155731348D01*
X77660110Y-155674022D01*
X77483104Y-155633831D01*
X76896301Y-155410023D01*
X76397054Y-155082400D01*
X75977400Y-154653430D01*
X75707993Y-154238553D01*
X75570000Y-153977123D01*
X75570000Y-149129544D01*
X75704683Y-148874384D01*
X76054818Y-148360409D01*
X76480720Y-147959556D01*
X76982392Y-147654839D01*
X77535700Y-147460102D01*
X78136096Y-147384250D01*
X78376723Y-147392777D01*
G36*
X90863934Y-152173919D02*
G01*
X91804305Y-152219817D01*
X92569446Y-152320107D01*
X93174161Y-152472275D01*
X93630485Y-152669045D01*
X93963743Y-152904282D01*
X94219278Y-153196443D01*
X94347262Y-153417169D01*
X94432656Y-153607640D01*
X94466244Y-153727028D01*
X94478428Y-153882874D01*
X94467726Y-154190636D01*
X94467687Y-154191309D01*
X94433473Y-154519802D01*
X94383502Y-154777950D01*
X94350421Y-154874970D01*
X94206057Y-155086535D01*
X93977674Y-155323651D01*
X93747463Y-155495850D01*
X93603026Y-155532466D01*
X93301055Y-155553184D01*
X92904434Y-155540977D01*
X92491429Y-155495099D01*
X92123612Y-155420775D01*
X91965797Y-155370801D01*
X91518695Y-155130348D01*
X91107017Y-154777835D01*
X90749592Y-154331841D01*
X90478364Y-153826816D01*
X90338885Y-153393113D01*
X90304172Y-153178378D01*
X90268232Y-152826637D01*
X90243198Y-152431206D01*
X90238405Y-152295529D01*
X90234878Y-152162762D01*
X90863934Y-152173919D01*
X90863934Y-152173919D01*
G37*
X90863934Y-152173919D02*
X91804305Y-152219817D01*
X92569446Y-152320107D01*
X93174161Y-152472275D01*
X93630485Y-152669045D01*
X93963743Y-152904282D01*
X94219278Y-153196443D01*
X94347262Y-153417169D01*
X94432656Y-153607640D01*
X94466244Y-153727028D01*
X94478428Y-153882874D01*
X94467726Y-154190636D01*
X94467687Y-154191309D01*
X94433473Y-154519802D01*
X94383502Y-154777950D01*
X94350421Y-154874970D01*
X94206057Y-155086535D01*
X93977674Y-155323651D01*
X93747463Y-155495850D01*
X93603026Y-155532466D01*
X93301055Y-155553184D01*
X92904434Y-155540977D01*
X92491429Y-155495099D01*
X92123612Y-155420775D01*
X91965797Y-155370801D01*
X91518695Y-155130348D01*
X91107017Y-154777835D01*
X90749592Y-154331841D01*
X90478364Y-153826816D01*
X90338885Y-153393113D01*
X90304172Y-153178378D01*
X90268232Y-152826637D01*
X90243198Y-152431206D01*
X90238405Y-152295529D01*
X90234878Y-152162762D01*
X90863934Y-152173919D01*
G36*
X133281934Y-152173919D02*
G01*
X134222305Y-152219817D01*
X134987446Y-152320107D01*
X135592161Y-152472275D01*
X136048485Y-152669045D01*
X136381743Y-152904282D01*
X136637278Y-153196443D01*
X136765262Y-153417169D01*
X136850656Y-153607640D01*
X136884244Y-153727028D01*
X136896428Y-153882874D01*
X136885726Y-154190636D01*
X136885687Y-154191309D01*
X136851473Y-154519802D01*
X136801502Y-154777950D01*
X136768421Y-154874970D01*
X136624057Y-155086535D01*
X136395674Y-155323651D01*
X136165463Y-155495850D01*
X136021026Y-155532466D01*
X135719055Y-155553184D01*
X135322434Y-155540977D01*
X134909429Y-155495099D01*
X134541612Y-155420775D01*
X134383797Y-155370801D01*
X133936695Y-155130348D01*
X133525017Y-154777835D01*
X133167592Y-154331841D01*
X132896364Y-153826816D01*
X132756885Y-153393113D01*
X132722172Y-153178378D01*
X132686232Y-152826637D01*
X132661198Y-152431206D01*
X132656405Y-152295529D01*
X132652878Y-152162762D01*
X133281934Y-152173919D01*
X133281934Y-152173919D01*
G37*
X133281934Y-152173919D02*
X134222305Y-152219817D01*
X134987446Y-152320107D01*
X135592161Y-152472275D01*
X136048485Y-152669045D01*
X136381743Y-152904282D01*
X136637278Y-153196443D01*
X136765262Y-153417169D01*
X136850656Y-153607640D01*
X136884244Y-153727028D01*
X136896428Y-153882874D01*
X136885726Y-154190636D01*
X136885687Y-154191309D01*
X136851473Y-154519802D01*
X136801502Y-154777950D01*
X136768421Y-154874970D01*
X136624057Y-155086535D01*
X136395674Y-155323651D01*
X136165463Y-155495850D01*
X136021026Y-155532466D01*
X135719055Y-155553184D01*
X135322434Y-155540977D01*
X134909429Y-155495099D01*
X134541612Y-155420775D01*
X134383797Y-155370801D01*
X133936695Y-155130348D01*
X133525017Y-154777835D01*
X133167592Y-154331841D01*
X132896364Y-153826816D01*
X132756885Y-153393113D01*
X132722172Y-153178378D01*
X132686232Y-152826637D01*
X132661198Y-152431206D01*
X132656405Y-152295529D01*
X132652878Y-152162762D01*
X133281934Y-152173919D01*
G36*
X108537667Y-148373334D02*
G01*
X107803048Y-148373334D01*
X107276759Y-148367627D01*
X106747109Y-148352002D01*
X106265554Y-148328732D01*
X105885532Y-148300371D01*
X105796998Y-148290793D01*
X104936140Y-148131223D01*
X104243980Y-147895269D01*
X103703398Y-147591186D01*
X103298300Y-147225515D01*
X103006134Y-146790370D01*
X102813594Y-146263113D01*
X102723274Y-145612706D01*
X102725907Y-145167183D01*
X102816392Y-144503547D01*
X102996634Y-143984058D01*
X103262695Y-143573146D01*
X103633989Y-143232567D01*
X104076832Y-142975676D01*
X104373032Y-142849435D01*
X104686579Y-142745822D01*
X105037042Y-142663876D01*
X105460471Y-142598915D01*
X105987028Y-142548651D01*
X106642763Y-142510684D01*
X107357278Y-142484582D01*
X108537667Y-142449315D01*
X108537667Y-148373334D01*
X108537667Y-148373334D01*
G37*
X108537667Y-148373334D02*
X107803048Y-148373334D01*
X107276759Y-148367627D01*
X106747109Y-148352002D01*
X106265554Y-148328732D01*
X105885532Y-148300371D01*
X105796998Y-148290793D01*
X104936140Y-148131223D01*
X104243980Y-147895269D01*
X103703398Y-147591186D01*
X103298300Y-147225515D01*
X103006134Y-146790370D01*
X102813594Y-146263113D01*
X102723274Y-145612706D01*
X102725907Y-145167183D01*
X102816392Y-144503547D01*
X102996634Y-143984058D01*
X103262695Y-143573146D01*
X103633989Y-143232567D01*
X104076832Y-142975676D01*
X104373032Y-142849435D01*
X104686579Y-142745822D01*
X105037042Y-142663876D01*
X105460471Y-142598915D01*
X105987028Y-142548651D01*
X106642763Y-142510684D01*
X107357278Y-142484582D01*
X108537667Y-142449315D01*
X108537667Y-148373334D01*
M02*
