M48
; DRILL file {KiCad 5.1.4} date Sat 02 Nov 2019 22:35:22 JST
; FORMAT={-:-/ absolute / metric / decimal}
; #@! TF.CreationDate,2019-11-02T22:35:22+09:00
; #@! TF.GenerationSoftware,Kicad,Pcbnew,5.1.4
FMAT,2
METRIC
T1C0.400
T2C2.200
%
G90
G05
T1
X76.581Y-154.178
X90.805Y-152.654
X103.505Y-145.288
X128.143Y-152.654
X133.223Y-152.654
X158.369Y-145.288
X171.069Y-152.654
X185.547Y-153.416
T2
X203.232Y-31.02
X203.232Y-159.607
X117.507Y-30.988
X122.269Y-61.976
X155.607Y-30.988
X122.269Y-138.176
X203.232Y-81.026
X203.232Y-138.176
X60.357Y-138.176
X60.325Y-30.988
X60.357Y-81.026
X133.223Y-31.02
X100.838Y-159.607
X162.75Y-159.607
X60.357Y-159.607
T0
M30
