G04 #@! TF.GenerationSoftware,KiCad,Pcbnew,5.1.5*
G04 #@! TF.CreationDate,2019-12-12T01:12:10+09:00*
G04 #@! TF.ProjectId,Navpad_top-32u4,4e617670-6164-45f7-946f-702d33327534,rev?*
G04 #@! TF.SameCoordinates,Original*
G04 #@! TF.FileFunction,Soldermask,Bot*
G04 #@! TF.FilePolarity,Negative*
%FSLAX46Y46*%
G04 Gerber Fmt 4.6, Leading zero omitted, Abs format (unit mm)*
G04 Created by KiCad (PCBNEW 5.1.5) date 2019-12-12 01:12:10*
%MOMM*%
%LPD*%
G04 APERTURE LIST*
%ADD10C,0.100000*%
G04 APERTURE END LIST*
D10*
G36*
X101113880Y-157367026D02*
G01*
X101494593Y-157442754D01*
X101904249Y-157612439D01*
X102272929Y-157858784D01*
X102586466Y-158172321D01*
X102832811Y-158541001D01*
X103002496Y-158950657D01*
X103089000Y-159385546D01*
X103089000Y-159828954D01*
X103002496Y-160263843D01*
X102832811Y-160673499D01*
X102586466Y-161042179D01*
X102272929Y-161355716D01*
X101904249Y-161602061D01*
X101494593Y-161771746D01*
X101113880Y-161847474D01*
X101059705Y-161858250D01*
X100616295Y-161858250D01*
X100562120Y-161847474D01*
X100181407Y-161771746D01*
X99771751Y-161602061D01*
X99403071Y-161355716D01*
X99089534Y-161042179D01*
X98843189Y-160673499D01*
X98673504Y-160263843D01*
X98587000Y-159828954D01*
X98587000Y-159385546D01*
X98673504Y-158950657D01*
X98843189Y-158541001D01*
X99089534Y-158172321D01*
X99403071Y-157858784D01*
X99771751Y-157612439D01*
X100181407Y-157442754D01*
X100562120Y-157367026D01*
X100616295Y-157356250D01*
X101059705Y-157356250D01*
X101113880Y-157367026D01*
G37*
G36*
X60632630Y-157367026D02*
G01*
X61013343Y-157442754D01*
X61422999Y-157612439D01*
X61791679Y-157858784D01*
X62105216Y-158172321D01*
X62351561Y-158541001D01*
X62521246Y-158950657D01*
X62607750Y-159385546D01*
X62607750Y-159828954D01*
X62521246Y-160263843D01*
X62351561Y-160673499D01*
X62105216Y-161042179D01*
X61791679Y-161355716D01*
X61422999Y-161602061D01*
X61013343Y-161771746D01*
X60632630Y-161847474D01*
X60578455Y-161858250D01*
X60135045Y-161858250D01*
X60080870Y-161847474D01*
X59700157Y-161771746D01*
X59290501Y-161602061D01*
X58921821Y-161355716D01*
X58608284Y-161042179D01*
X58361939Y-160673499D01*
X58192254Y-160263843D01*
X58105750Y-159828954D01*
X58105750Y-159385546D01*
X58192254Y-158950657D01*
X58361939Y-158541001D01*
X58608284Y-158172321D01*
X58921821Y-157858784D01*
X59290501Y-157612439D01*
X59700157Y-157442754D01*
X60080870Y-157367026D01*
X60135045Y-157356250D01*
X60578455Y-157356250D01*
X60632630Y-157367026D01*
G37*
G36*
X203507630Y-157367026D02*
G01*
X203888343Y-157442754D01*
X204297999Y-157612439D01*
X204666679Y-157858784D01*
X204980216Y-158172321D01*
X205226561Y-158541001D01*
X205396246Y-158950657D01*
X205482750Y-159385546D01*
X205482750Y-159828954D01*
X205396246Y-160263843D01*
X205226561Y-160673499D01*
X204980216Y-161042179D01*
X204666679Y-161355716D01*
X204297999Y-161602061D01*
X203888343Y-161771746D01*
X203507630Y-161847474D01*
X203453455Y-161858250D01*
X203010045Y-161858250D01*
X202955870Y-161847474D01*
X202575157Y-161771746D01*
X202165501Y-161602061D01*
X201796821Y-161355716D01*
X201483284Y-161042179D01*
X201236939Y-160673499D01*
X201067254Y-160263843D01*
X200980750Y-159828954D01*
X200980750Y-159385546D01*
X201067254Y-158950657D01*
X201236939Y-158541001D01*
X201483284Y-158172321D01*
X201796821Y-157858784D01*
X202165501Y-157612439D01*
X202575157Y-157442754D01*
X202955870Y-157367026D01*
X203010045Y-157356250D01*
X203453455Y-157356250D01*
X203507630Y-157367026D01*
G37*
G36*
X163026380Y-157367026D02*
G01*
X163407093Y-157442754D01*
X163816749Y-157612439D01*
X164185429Y-157858784D01*
X164498966Y-158172321D01*
X164745311Y-158541001D01*
X164914996Y-158950657D01*
X165001500Y-159385546D01*
X165001500Y-159828954D01*
X164914996Y-160263843D01*
X164745311Y-160673499D01*
X164498966Y-161042179D01*
X164185429Y-161355716D01*
X163816749Y-161602061D01*
X163407093Y-161771746D01*
X163026380Y-161847474D01*
X162972205Y-161858250D01*
X162528795Y-161858250D01*
X162474620Y-161847474D01*
X162093907Y-161771746D01*
X161684251Y-161602061D01*
X161315571Y-161355716D01*
X161002034Y-161042179D01*
X160755689Y-160673499D01*
X160586004Y-160263843D01*
X160499500Y-159828954D01*
X160499500Y-159385546D01*
X160586004Y-158950657D01*
X160755689Y-158541001D01*
X161002034Y-158172321D01*
X161315571Y-157858784D01*
X161684251Y-157612439D01*
X162093907Y-157442754D01*
X162474620Y-157367026D01*
X162528795Y-157356250D01*
X162972205Y-157356250D01*
X163026380Y-157367026D01*
G37*
G36*
X203507630Y-135935776D02*
G01*
X203888343Y-136011504D01*
X204297999Y-136181189D01*
X204666679Y-136427534D01*
X204980216Y-136741071D01*
X205226561Y-137109751D01*
X205396246Y-137519407D01*
X205482750Y-137954296D01*
X205482750Y-138397704D01*
X205396246Y-138832593D01*
X205226561Y-139242249D01*
X204980216Y-139610929D01*
X204666679Y-139924466D01*
X204297999Y-140170811D01*
X203888343Y-140340496D01*
X203507630Y-140416224D01*
X203453455Y-140427000D01*
X203010045Y-140427000D01*
X202955870Y-140416224D01*
X202575157Y-140340496D01*
X202165501Y-140170811D01*
X201796821Y-139924466D01*
X201483284Y-139610929D01*
X201236939Y-139242249D01*
X201067254Y-138832593D01*
X200980750Y-138397704D01*
X200980750Y-137954296D01*
X201067254Y-137519407D01*
X201236939Y-137109751D01*
X201483284Y-136741071D01*
X201796821Y-136427534D01*
X202165501Y-136181189D01*
X202575157Y-136011504D01*
X202955870Y-135935776D01*
X203010045Y-135925000D01*
X203453455Y-135925000D01*
X203507630Y-135935776D01*
G37*
G36*
X122545130Y-135935776D02*
G01*
X122925843Y-136011504D01*
X123335499Y-136181189D01*
X123704179Y-136427534D01*
X124017716Y-136741071D01*
X124264061Y-137109751D01*
X124433746Y-137519407D01*
X124520250Y-137954296D01*
X124520250Y-138397704D01*
X124433746Y-138832593D01*
X124264061Y-139242249D01*
X124017716Y-139610929D01*
X123704179Y-139924466D01*
X123335499Y-140170811D01*
X122925843Y-140340496D01*
X122545130Y-140416224D01*
X122490955Y-140427000D01*
X122047545Y-140427000D01*
X121993370Y-140416224D01*
X121612657Y-140340496D01*
X121203001Y-140170811D01*
X120834321Y-139924466D01*
X120520784Y-139610929D01*
X120274439Y-139242249D01*
X120104754Y-138832593D01*
X120018250Y-138397704D01*
X120018250Y-137954296D01*
X120104754Y-137519407D01*
X120274439Y-137109751D01*
X120520784Y-136741071D01*
X120834321Y-136427534D01*
X121203001Y-136181189D01*
X121612657Y-136011504D01*
X121993370Y-135935776D01*
X122047545Y-135925000D01*
X122490955Y-135925000D01*
X122545130Y-135935776D01*
G37*
G36*
X60632630Y-135935776D02*
G01*
X61013343Y-136011504D01*
X61422999Y-136181189D01*
X61791679Y-136427534D01*
X62105216Y-136741071D01*
X62351561Y-137109751D01*
X62521246Y-137519407D01*
X62607750Y-137954296D01*
X62607750Y-138397704D01*
X62521246Y-138832593D01*
X62351561Y-139242249D01*
X62105216Y-139610929D01*
X61791679Y-139924466D01*
X61422999Y-140170811D01*
X61013343Y-140340496D01*
X60632630Y-140416224D01*
X60578455Y-140427000D01*
X60135045Y-140427000D01*
X60080870Y-140416224D01*
X59700157Y-140340496D01*
X59290501Y-140170811D01*
X58921821Y-139924466D01*
X58608284Y-139610929D01*
X58361939Y-139242249D01*
X58192254Y-138832593D01*
X58105750Y-138397704D01*
X58105750Y-137954296D01*
X58192254Y-137519407D01*
X58361939Y-137109751D01*
X58608284Y-136741071D01*
X58921821Y-136427534D01*
X59290501Y-136181189D01*
X59700157Y-136011504D01*
X60080870Y-135935776D01*
X60135045Y-135925000D01*
X60578455Y-135925000D01*
X60632630Y-135935776D01*
G37*
G36*
X60632630Y-78785776D02*
G01*
X61013343Y-78861504D01*
X61422999Y-79031189D01*
X61791679Y-79277534D01*
X62105216Y-79591071D01*
X62351561Y-79959751D01*
X62521246Y-80369407D01*
X62607750Y-80804296D01*
X62607750Y-81247704D01*
X62521246Y-81682593D01*
X62351561Y-82092249D01*
X62105216Y-82460929D01*
X61791679Y-82774466D01*
X61422999Y-83020811D01*
X61013343Y-83190496D01*
X60632630Y-83266224D01*
X60578455Y-83277000D01*
X60135045Y-83277000D01*
X60080870Y-83266224D01*
X59700157Y-83190496D01*
X59290501Y-83020811D01*
X58921821Y-82774466D01*
X58608284Y-82460929D01*
X58361939Y-82092249D01*
X58192254Y-81682593D01*
X58105750Y-81247704D01*
X58105750Y-80804296D01*
X58192254Y-80369407D01*
X58361939Y-79959751D01*
X58608284Y-79591071D01*
X58921821Y-79277534D01*
X59290501Y-79031189D01*
X59700157Y-78861504D01*
X60080870Y-78785776D01*
X60135045Y-78775000D01*
X60578455Y-78775000D01*
X60632630Y-78785776D01*
G37*
G36*
X203507630Y-78785776D02*
G01*
X203888343Y-78861504D01*
X204297999Y-79031189D01*
X204666679Y-79277534D01*
X204980216Y-79591071D01*
X205226561Y-79959751D01*
X205396246Y-80369407D01*
X205482750Y-80804296D01*
X205482750Y-81247704D01*
X205396246Y-81682593D01*
X205226561Y-82092249D01*
X204980216Y-82460929D01*
X204666679Y-82774466D01*
X204297999Y-83020811D01*
X203888343Y-83190496D01*
X203507630Y-83266224D01*
X203453455Y-83277000D01*
X203010045Y-83277000D01*
X202955870Y-83266224D01*
X202575157Y-83190496D01*
X202165501Y-83020811D01*
X201796821Y-82774466D01*
X201483284Y-82460929D01*
X201236939Y-82092249D01*
X201067254Y-81682593D01*
X200980750Y-81247704D01*
X200980750Y-80804296D01*
X201067254Y-80369407D01*
X201236939Y-79959751D01*
X201483284Y-79591071D01*
X201796821Y-79277534D01*
X202165501Y-79031189D01*
X202575157Y-78861504D01*
X202955870Y-78785776D01*
X203010045Y-78775000D01*
X203453455Y-78775000D01*
X203507630Y-78785776D01*
G37*
G36*
X122545130Y-59735776D02*
G01*
X122925843Y-59811504D01*
X123335499Y-59981189D01*
X123704179Y-60227534D01*
X124017716Y-60541071D01*
X124264061Y-60909751D01*
X124433746Y-61319407D01*
X124520250Y-61754296D01*
X124520250Y-62197704D01*
X124433746Y-62632593D01*
X124264061Y-63042249D01*
X124017716Y-63410929D01*
X123704179Y-63724466D01*
X123335499Y-63970811D01*
X122925843Y-64140496D01*
X122545130Y-64216224D01*
X122490955Y-64227000D01*
X122047545Y-64227000D01*
X121993370Y-64216224D01*
X121612657Y-64140496D01*
X121203001Y-63970811D01*
X120834321Y-63724466D01*
X120520784Y-63410929D01*
X120274439Y-63042249D01*
X120104754Y-62632593D01*
X120018250Y-62197704D01*
X120018250Y-61754296D01*
X120104754Y-61319407D01*
X120274439Y-60909751D01*
X120520784Y-60541071D01*
X120834321Y-60227534D01*
X121203001Y-59981189D01*
X121612657Y-59811504D01*
X121993370Y-59735776D01*
X122047545Y-59725000D01*
X122490955Y-59725000D01*
X122545130Y-59735776D01*
G37*
G36*
X190185214Y-39450389D02*
G01*
X190266145Y-39483912D01*
X190338980Y-39532579D01*
X190400921Y-39594520D01*
X190449588Y-39667355D01*
X190483111Y-39748286D01*
X190500200Y-39834201D01*
X190500200Y-39921799D01*
X190483111Y-40007714D01*
X190449588Y-40088645D01*
X190400921Y-40161480D01*
X190338980Y-40223421D01*
X190266145Y-40272088D01*
X190266144Y-40272089D01*
X190266143Y-40272089D01*
X190185214Y-40305611D01*
X190099301Y-40322700D01*
X190011699Y-40322700D01*
X189925786Y-40305611D01*
X189844857Y-40272089D01*
X189844856Y-40272089D01*
X189844855Y-40272088D01*
X189772020Y-40223421D01*
X189710079Y-40161480D01*
X189661412Y-40088645D01*
X189627889Y-40007714D01*
X189610800Y-39921799D01*
X189610800Y-39834201D01*
X189627889Y-39748286D01*
X189661412Y-39667355D01*
X189710079Y-39594520D01*
X189772020Y-39532579D01*
X189844855Y-39483912D01*
X189925786Y-39450389D01*
X190011699Y-39433300D01*
X190099301Y-39433300D01*
X190185214Y-39450389D01*
G37*
G36*
X155895214Y-39450389D02*
G01*
X155976145Y-39483912D01*
X156048980Y-39532579D01*
X156110921Y-39594520D01*
X156159588Y-39667355D01*
X156193111Y-39748286D01*
X156210200Y-39834201D01*
X156210200Y-39921799D01*
X156193111Y-40007714D01*
X156159588Y-40088645D01*
X156110921Y-40161480D01*
X156048980Y-40223421D01*
X155976145Y-40272088D01*
X155976144Y-40272089D01*
X155976143Y-40272089D01*
X155895214Y-40305611D01*
X155809301Y-40322700D01*
X155721699Y-40322700D01*
X155635786Y-40305611D01*
X155554857Y-40272089D01*
X155554856Y-40272089D01*
X155554855Y-40272088D01*
X155482020Y-40223421D01*
X155420079Y-40161480D01*
X155371412Y-40088645D01*
X155337889Y-40007714D01*
X155320800Y-39921799D01*
X155320800Y-39834201D01*
X155337889Y-39748286D01*
X155371412Y-39667355D01*
X155420079Y-39594520D01*
X155482020Y-39532579D01*
X155554855Y-39483912D01*
X155635786Y-39450389D01*
X155721699Y-39433300D01*
X155809301Y-39433300D01*
X155895214Y-39450389D01*
G37*
G36*
X152085214Y-39450389D02*
G01*
X152166145Y-39483912D01*
X152238980Y-39532579D01*
X152300921Y-39594520D01*
X152349588Y-39667355D01*
X152383111Y-39748286D01*
X152400200Y-39834201D01*
X152400200Y-39921799D01*
X152383111Y-40007714D01*
X152349588Y-40088645D01*
X152300921Y-40161480D01*
X152238980Y-40223421D01*
X152166145Y-40272088D01*
X152166144Y-40272089D01*
X152166143Y-40272089D01*
X152085214Y-40305611D01*
X151999301Y-40322700D01*
X151911699Y-40322700D01*
X151825786Y-40305611D01*
X151744857Y-40272089D01*
X151744856Y-40272089D01*
X151744855Y-40272088D01*
X151672020Y-40223421D01*
X151610079Y-40161480D01*
X151561412Y-40088645D01*
X151527889Y-40007714D01*
X151510800Y-39921799D01*
X151510800Y-39834201D01*
X151527889Y-39748286D01*
X151561412Y-39667355D01*
X151610079Y-39594520D01*
X151672020Y-39532579D01*
X151744855Y-39483912D01*
X151825786Y-39450389D01*
X151911699Y-39433300D01*
X151999301Y-39433300D01*
X152085214Y-39450389D01*
G37*
G36*
X154625214Y-39450389D02*
G01*
X154706145Y-39483912D01*
X154778980Y-39532579D01*
X154840921Y-39594520D01*
X154889588Y-39667355D01*
X154923111Y-39748286D01*
X154940200Y-39834201D01*
X154940200Y-39921799D01*
X154923111Y-40007714D01*
X154889588Y-40088645D01*
X154840921Y-40161480D01*
X154778980Y-40223421D01*
X154706145Y-40272088D01*
X154706144Y-40272089D01*
X154706143Y-40272089D01*
X154625214Y-40305611D01*
X154539301Y-40322700D01*
X154451699Y-40322700D01*
X154365786Y-40305611D01*
X154284857Y-40272089D01*
X154284856Y-40272089D01*
X154284855Y-40272088D01*
X154212020Y-40223421D01*
X154150079Y-40161480D01*
X154101412Y-40088645D01*
X154067889Y-40007714D01*
X154050800Y-39921799D01*
X154050800Y-39834201D01*
X154067889Y-39748286D01*
X154101412Y-39667355D01*
X154150079Y-39594520D01*
X154212020Y-39532579D01*
X154284855Y-39483912D01*
X154365786Y-39450389D01*
X154451699Y-39433300D01*
X154539301Y-39433300D01*
X154625214Y-39450389D01*
G37*
G36*
X153355214Y-39450389D02*
G01*
X153436145Y-39483912D01*
X153508980Y-39532579D01*
X153570921Y-39594520D01*
X153619588Y-39667355D01*
X153653111Y-39748286D01*
X153670200Y-39834201D01*
X153670200Y-39921799D01*
X153653111Y-40007714D01*
X153619588Y-40088645D01*
X153570921Y-40161480D01*
X153508980Y-40223421D01*
X153436145Y-40272088D01*
X153436144Y-40272089D01*
X153436143Y-40272089D01*
X153355214Y-40305611D01*
X153269301Y-40322700D01*
X153181699Y-40322700D01*
X153095786Y-40305611D01*
X153014857Y-40272089D01*
X153014856Y-40272089D01*
X153014855Y-40272088D01*
X152942020Y-40223421D01*
X152880079Y-40161480D01*
X152831412Y-40088645D01*
X152797889Y-40007714D01*
X152780800Y-39921799D01*
X152780800Y-39834201D01*
X152797889Y-39748286D01*
X152831412Y-39667355D01*
X152880079Y-39594520D01*
X152942020Y-39532579D01*
X153014855Y-39483912D01*
X153095786Y-39450389D01*
X153181699Y-39433300D01*
X153269301Y-39433300D01*
X153355214Y-39450389D01*
G37*
G36*
X191455214Y-39450389D02*
G01*
X191536145Y-39483912D01*
X191608980Y-39532579D01*
X191670921Y-39594520D01*
X191719588Y-39667355D01*
X191753111Y-39748286D01*
X191770200Y-39834201D01*
X191770200Y-39921799D01*
X191753111Y-40007714D01*
X191719588Y-40088645D01*
X191670921Y-40161480D01*
X191608980Y-40223421D01*
X191536145Y-40272088D01*
X191536144Y-40272089D01*
X191536143Y-40272089D01*
X191455214Y-40305611D01*
X191369301Y-40322700D01*
X191281699Y-40322700D01*
X191195786Y-40305611D01*
X191114857Y-40272089D01*
X191114856Y-40272089D01*
X191114855Y-40272088D01*
X191042020Y-40223421D01*
X190980079Y-40161480D01*
X190931412Y-40088645D01*
X190897889Y-40007714D01*
X190880800Y-39921799D01*
X190880800Y-39834201D01*
X190897889Y-39748286D01*
X190931412Y-39667355D01*
X190980079Y-39594520D01*
X191042020Y-39532579D01*
X191114855Y-39483912D01*
X191195786Y-39450389D01*
X191281699Y-39433300D01*
X191369301Y-39433300D01*
X191455214Y-39450389D01*
G37*
G36*
X192725214Y-39450389D02*
G01*
X192806145Y-39483912D01*
X192878980Y-39532579D01*
X192940921Y-39594520D01*
X192989588Y-39667355D01*
X193023111Y-39748286D01*
X193040200Y-39834201D01*
X193040200Y-39921799D01*
X193023111Y-40007714D01*
X192989588Y-40088645D01*
X192940921Y-40161480D01*
X192878980Y-40223421D01*
X192806145Y-40272088D01*
X192806144Y-40272089D01*
X192806143Y-40272089D01*
X192725214Y-40305611D01*
X192639301Y-40322700D01*
X192551699Y-40322700D01*
X192465786Y-40305611D01*
X192384857Y-40272089D01*
X192384856Y-40272089D01*
X192384855Y-40272088D01*
X192312020Y-40223421D01*
X192250079Y-40161480D01*
X192201412Y-40088645D01*
X192167889Y-40007714D01*
X192150800Y-39921799D01*
X192150800Y-39834201D01*
X192167889Y-39748286D01*
X192201412Y-39667355D01*
X192250079Y-39594520D01*
X192312020Y-39532579D01*
X192384855Y-39483912D01*
X192465786Y-39450389D01*
X192551699Y-39433300D01*
X192639301Y-39433300D01*
X192725214Y-39450389D01*
G37*
G36*
X193995214Y-39450389D02*
G01*
X194076145Y-39483912D01*
X194148980Y-39532579D01*
X194210921Y-39594520D01*
X194259588Y-39667355D01*
X194293111Y-39748286D01*
X194310200Y-39834201D01*
X194310200Y-39921799D01*
X194293111Y-40007714D01*
X194259588Y-40088645D01*
X194210921Y-40161480D01*
X194148980Y-40223421D01*
X194076145Y-40272088D01*
X194076144Y-40272089D01*
X194076143Y-40272089D01*
X193995214Y-40305611D01*
X193909301Y-40322700D01*
X193821699Y-40322700D01*
X193735786Y-40305611D01*
X193654857Y-40272089D01*
X193654856Y-40272089D01*
X193654855Y-40272088D01*
X193582020Y-40223421D01*
X193520079Y-40161480D01*
X193471412Y-40088645D01*
X193437889Y-40007714D01*
X193420800Y-39921799D01*
X193420800Y-39834201D01*
X193437889Y-39748286D01*
X193471412Y-39667355D01*
X193520079Y-39594520D01*
X193582020Y-39532579D01*
X193654855Y-39483912D01*
X193735786Y-39450389D01*
X193821699Y-39433300D01*
X193909301Y-39433300D01*
X193995214Y-39450389D01*
G37*
G36*
X188915214Y-39450389D02*
G01*
X188996145Y-39483912D01*
X189068980Y-39532579D01*
X189130921Y-39594520D01*
X189179588Y-39667355D01*
X189213111Y-39748286D01*
X189230200Y-39834201D01*
X189230200Y-39921799D01*
X189213111Y-40007714D01*
X189179588Y-40088645D01*
X189130921Y-40161480D01*
X189068980Y-40223421D01*
X188996145Y-40272088D01*
X188996144Y-40272089D01*
X188996143Y-40272089D01*
X188915214Y-40305611D01*
X188829301Y-40322700D01*
X188741699Y-40322700D01*
X188655786Y-40305611D01*
X188574857Y-40272089D01*
X188574856Y-40272089D01*
X188574855Y-40272088D01*
X188502020Y-40223421D01*
X188440079Y-40161480D01*
X188391412Y-40088645D01*
X188357889Y-40007714D01*
X188340800Y-39921799D01*
X188340800Y-39834201D01*
X188357889Y-39748286D01*
X188391412Y-39667355D01*
X188440079Y-39594520D01*
X188502020Y-39532579D01*
X188574855Y-39483912D01*
X188655786Y-39450389D01*
X188741699Y-39433300D01*
X188829301Y-39433300D01*
X188915214Y-39450389D01*
G37*
G36*
X150815214Y-39450389D02*
G01*
X150896145Y-39483912D01*
X150968980Y-39532579D01*
X151030921Y-39594520D01*
X151079588Y-39667355D01*
X151113111Y-39748286D01*
X151130200Y-39834201D01*
X151130200Y-39921799D01*
X151113111Y-40007714D01*
X151079588Y-40088645D01*
X151030921Y-40161480D01*
X150968980Y-40223421D01*
X150896145Y-40272088D01*
X150896144Y-40272089D01*
X150896143Y-40272089D01*
X150815214Y-40305611D01*
X150729301Y-40322700D01*
X150641699Y-40322700D01*
X150555786Y-40305611D01*
X150474857Y-40272089D01*
X150474856Y-40272089D01*
X150474855Y-40272088D01*
X150402020Y-40223421D01*
X150340079Y-40161480D01*
X150291412Y-40088645D01*
X150257889Y-40007714D01*
X150240800Y-39921799D01*
X150240800Y-39834201D01*
X150257889Y-39748286D01*
X150291412Y-39667355D01*
X150340079Y-39594520D01*
X150402020Y-39532579D01*
X150474855Y-39483912D01*
X150555786Y-39450389D01*
X150641699Y-39433300D01*
X150729301Y-39433300D01*
X150815214Y-39450389D01*
G37*
G36*
X203507630Y-28779526D02*
G01*
X203888343Y-28855254D01*
X204297999Y-29024939D01*
X204666679Y-29271284D01*
X204980216Y-29584821D01*
X205226561Y-29953501D01*
X205396246Y-30363157D01*
X205482750Y-30798046D01*
X205482750Y-31241454D01*
X205396246Y-31676343D01*
X205226561Y-32085999D01*
X204980216Y-32454679D01*
X204666679Y-32768216D01*
X204297999Y-33014561D01*
X203888343Y-33184246D01*
X203507630Y-33259974D01*
X203453455Y-33270750D01*
X203010045Y-33270750D01*
X202955870Y-33259974D01*
X202575157Y-33184246D01*
X202165501Y-33014561D01*
X201796821Y-32768216D01*
X201483284Y-32454679D01*
X201236939Y-32085999D01*
X201067254Y-31676343D01*
X200980750Y-31241454D01*
X200980750Y-30798046D01*
X201067254Y-30363157D01*
X201236939Y-29953501D01*
X201483284Y-29584821D01*
X201796821Y-29271284D01*
X202165501Y-29024939D01*
X202575157Y-28855254D01*
X202955870Y-28779526D01*
X203010045Y-28768750D01*
X203453455Y-28768750D01*
X203507630Y-28779526D01*
G37*
G36*
X133498880Y-28779526D02*
G01*
X133879593Y-28855254D01*
X134289249Y-29024939D01*
X134657929Y-29271284D01*
X134971466Y-29584821D01*
X135217811Y-29953501D01*
X135387496Y-30363157D01*
X135474000Y-30798046D01*
X135474000Y-31241454D01*
X135387496Y-31676343D01*
X135217811Y-32085999D01*
X134971466Y-32454679D01*
X134657929Y-32768216D01*
X134289249Y-33014561D01*
X133879593Y-33184246D01*
X133498880Y-33259974D01*
X133444705Y-33270750D01*
X133001295Y-33270750D01*
X132947120Y-33259974D01*
X132566407Y-33184246D01*
X132156751Y-33014561D01*
X131788071Y-32768216D01*
X131474534Y-32454679D01*
X131228189Y-32085999D01*
X131058504Y-31676343D01*
X130972000Y-31241454D01*
X130972000Y-30798046D01*
X131058504Y-30363157D01*
X131228189Y-29953501D01*
X131474534Y-29584821D01*
X131788071Y-29271284D01*
X132156751Y-29024939D01*
X132566407Y-28855254D01*
X132947120Y-28779526D01*
X133001295Y-28768750D01*
X133444705Y-28768750D01*
X133498880Y-28779526D01*
G37*
G36*
X155882630Y-28747776D02*
G01*
X156263343Y-28823504D01*
X156672999Y-28993189D01*
X157041679Y-29239534D01*
X157355216Y-29553071D01*
X157601561Y-29921751D01*
X157771246Y-30331407D01*
X157857750Y-30766296D01*
X157857750Y-31209704D01*
X157771246Y-31644593D01*
X157601561Y-32054249D01*
X157355216Y-32422929D01*
X157041679Y-32736466D01*
X156672999Y-32982811D01*
X156263343Y-33152496D01*
X155882630Y-33228224D01*
X155828455Y-33239000D01*
X155385045Y-33239000D01*
X155330870Y-33228224D01*
X154950157Y-33152496D01*
X154540501Y-32982811D01*
X154171821Y-32736466D01*
X153858284Y-32422929D01*
X153611939Y-32054249D01*
X153442254Y-31644593D01*
X153355750Y-31209704D01*
X153355750Y-30766296D01*
X153442254Y-30331407D01*
X153611939Y-29921751D01*
X153858284Y-29553071D01*
X154171821Y-29239534D01*
X154540501Y-28993189D01*
X154950157Y-28823504D01*
X155330870Y-28747776D01*
X155385045Y-28737000D01*
X155828455Y-28737000D01*
X155882630Y-28747776D01*
G37*
G36*
X117782630Y-28747776D02*
G01*
X118163343Y-28823504D01*
X118572999Y-28993189D01*
X118941679Y-29239534D01*
X119255216Y-29553071D01*
X119501561Y-29921751D01*
X119671246Y-30331407D01*
X119757750Y-30766296D01*
X119757750Y-31209704D01*
X119671246Y-31644593D01*
X119501561Y-32054249D01*
X119255216Y-32422929D01*
X118941679Y-32736466D01*
X118572999Y-32982811D01*
X118163343Y-33152496D01*
X117782630Y-33228224D01*
X117728455Y-33239000D01*
X117285045Y-33239000D01*
X117230870Y-33228224D01*
X116850157Y-33152496D01*
X116440501Y-32982811D01*
X116071821Y-32736466D01*
X115758284Y-32422929D01*
X115511939Y-32054249D01*
X115342254Y-31644593D01*
X115255750Y-31209704D01*
X115255750Y-30766296D01*
X115342254Y-30331407D01*
X115511939Y-29921751D01*
X115758284Y-29553071D01*
X116071821Y-29239534D01*
X116440501Y-28993189D01*
X116850157Y-28823504D01*
X117230870Y-28747776D01*
X117285045Y-28737000D01*
X117728455Y-28737000D01*
X117782630Y-28747776D01*
G37*
G36*
X60600880Y-28747776D02*
G01*
X60981593Y-28823504D01*
X61391249Y-28993189D01*
X61759929Y-29239534D01*
X62073466Y-29553071D01*
X62319811Y-29921751D01*
X62489496Y-30331407D01*
X62576000Y-30766296D01*
X62576000Y-31209704D01*
X62489496Y-31644593D01*
X62319811Y-32054249D01*
X62073466Y-32422929D01*
X61759929Y-32736466D01*
X61391249Y-32982811D01*
X60981593Y-33152496D01*
X60600880Y-33228224D01*
X60546705Y-33239000D01*
X60103295Y-33239000D01*
X60049120Y-33228224D01*
X59668407Y-33152496D01*
X59258751Y-32982811D01*
X58890071Y-32736466D01*
X58576534Y-32422929D01*
X58330189Y-32054249D01*
X58160504Y-31644593D01*
X58074000Y-31209704D01*
X58074000Y-30766296D01*
X58160504Y-30331407D01*
X58330189Y-29921751D01*
X58576534Y-29553071D01*
X58890071Y-29239534D01*
X59258751Y-28993189D01*
X59668407Y-28823504D01*
X60049120Y-28747776D01*
X60103295Y-28737000D01*
X60546705Y-28737000D01*
X60600880Y-28747776D01*
G37*
M02*
