M48
; DRILL file {KiCad 5.1.5} date Thu 12 Dec 2019 01:12:12 JST
; FORMAT={-:-/ absolute / metric / decimal}
; #@! TF.CreationDate,2019-12-12T01:12:12+09:00
; #@! TF.GenerationSoftware,Kicad,Pcbnew,5.1.5
FMAT,2
METRIC
T1C2.200
T2C0.787
%
G90
G05
T1
X60.357Y-81.026
X155.607Y-30.988
X133.223Y-31.02
X117.507Y-30.988
X60.357Y-159.607
X100.838Y-159.607
X203.232Y-159.607
X122.269Y-61.976
X60.357Y-138.176
X60.325Y-30.988
X162.75Y-159.607
X203.232Y-138.176
X203.232Y-31.02
X203.232Y-81.026
X122.269Y-138.176
T2
X150.685Y-39.878
X151.956Y-39.878
X153.225Y-39.878
X154.495Y-39.878
X155.766Y-39.878
X188.785Y-39.878
X190.055Y-39.878
X191.326Y-39.878
X192.595Y-39.878
X193.865Y-39.878
T0
M30
