G04 #@! TF.GenerationSoftware,KiCad,Pcbnew,5.1.5*
G04 #@! TF.CreationDate,2019-12-12T01:12:10+09:00*
G04 #@! TF.ProjectId,Navpad_top-32u4,4e617670-6164-45f7-946f-702d33327534,rev?*
G04 #@! TF.SameCoordinates,Original*
G04 #@! TF.FileFunction,Copper,L1,Top*
G04 #@! TF.FilePolarity,Positive*
%FSLAX46Y46*%
G04 Gerber Fmt 4.6, Leading zero omitted, Abs format (unit mm)*
G04 Created by KiCad (PCBNEW 5.1.5) date 2019-12-12 01:12:10*
%MOMM*%
%LPD*%
G04 APERTURE LIST*
%ADD10C,4.400000*%
%ADD11C,0.254000*%
G04 APERTURE END LIST*
D10*
X122269250Y-61976000D03*
X203231750Y-159607250D03*
X162750500Y-159607250D03*
X100838000Y-159607250D03*
X60356750Y-159607250D03*
X203231750Y-138176000D03*
X122269250Y-138176000D03*
X60356750Y-138176000D03*
X203231750Y-81026000D03*
X60356750Y-81026000D03*
X203231750Y-31019750D03*
X155606750Y-30988000D03*
X133223000Y-31019750D03*
X117506750Y-30988000D03*
X60325000Y-30988000D03*
D11*
G36*
X115516973Y-29177831D02*
G01*
X115129732Y-29417976D01*
X114869109Y-29911877D01*
X114709849Y-30447133D01*
X114658072Y-31003174D01*
X114715769Y-31558632D01*
X114880722Y-32092161D01*
X115129732Y-32558024D01*
X115516975Y-32798170D01*
X117327145Y-30988000D01*
X117313003Y-30973858D01*
X117492608Y-30794253D01*
X117506750Y-30808395D01*
X117520893Y-30794253D01*
X117700498Y-30973858D01*
X117686355Y-30988000D01*
X117700498Y-31002143D01*
X117520893Y-31181748D01*
X117506750Y-31167605D01*
X115696580Y-32977775D01*
X115936726Y-33365018D01*
X116430627Y-33625641D01*
X116965883Y-33784901D01*
X117521924Y-33836678D01*
X118077382Y-33778981D01*
X118610911Y-33614028D01*
X119076774Y-33365018D01*
X119316919Y-32977777D01*
X119386750Y-33047608D01*
X119386751Y-45244419D01*
X119389552Y-45272855D01*
X119389497Y-45280682D01*
X119390396Y-45289853D01*
X119416304Y-45536357D01*
X119428339Y-45594986D01*
X119439542Y-45653716D01*
X119442206Y-45662538D01*
X119515501Y-45899314D01*
X119538681Y-45954457D01*
X119561089Y-46009920D01*
X119565415Y-46018054D01*
X119565417Y-46018059D01*
X119565420Y-46018064D01*
X119683303Y-46236086D01*
X119716738Y-46285654D01*
X119749509Y-46335735D01*
X119755334Y-46342876D01*
X119913327Y-46533856D01*
X119955762Y-46575995D01*
X119997625Y-46618745D01*
X120004726Y-46624618D01*
X120196803Y-46781273D01*
X120246625Y-46814374D01*
X120295987Y-46848173D01*
X120304093Y-46852556D01*
X120522941Y-46968919D01*
X120578229Y-46991707D01*
X120633225Y-47015279D01*
X120642028Y-47018003D01*
X120879309Y-47089643D01*
X120937996Y-47101264D01*
X120996502Y-47113700D01*
X121005665Y-47114663D01*
X121005667Y-47114663D01*
X121252345Y-47138850D01*
X121252358Y-47138850D01*
X121284331Y-47141999D01*
X129445419Y-47142001D01*
X129473865Y-47139199D01*
X129481686Y-47139254D01*
X129490857Y-47138354D01*
X129737360Y-47112445D01*
X129795949Y-47100418D01*
X129854714Y-47089209D01*
X129863536Y-47086545D01*
X130100313Y-47013251D01*
X130155451Y-46990073D01*
X130210923Y-46967661D01*
X130219054Y-46963337D01*
X130219058Y-46963335D01*
X130219061Y-46963333D01*
X130437090Y-46845445D01*
X130486656Y-46812011D01*
X130536734Y-46779242D01*
X130543875Y-46773417D01*
X130734856Y-46615425D01*
X130776997Y-46572988D01*
X130819747Y-46531125D01*
X130825620Y-46524024D01*
X130982275Y-46331945D01*
X131015364Y-46282141D01*
X131049174Y-46232763D01*
X131053557Y-46224657D01*
X131169920Y-46005809D01*
X131192724Y-45950483D01*
X131216280Y-45895522D01*
X131219005Y-45886719D01*
X131290644Y-45649438D01*
X131302263Y-45590758D01*
X131314700Y-45532248D01*
X131315663Y-45523083D01*
X131339850Y-45276405D01*
X131339850Y-45276402D01*
X131343000Y-45244419D01*
X131343000Y-39624000D01*
X146275807Y-39624000D01*
X146279001Y-39656429D01*
X146279000Y-56101581D01*
X146275807Y-56134000D01*
X146288550Y-56263383D01*
X146326290Y-56387793D01*
X146387575Y-56502450D01*
X146391738Y-56507522D01*
X146470052Y-56602948D01*
X146570550Y-56685425D01*
X146685207Y-56746710D01*
X146809617Y-56784450D01*
X146939000Y-56797193D01*
X146971419Y-56794000D01*
X159479581Y-56794000D01*
X159512000Y-56797193D01*
X159544419Y-56794000D01*
X159641383Y-56784450D01*
X159765793Y-56746710D01*
X159880450Y-56685425D01*
X159980948Y-56602948D01*
X160063425Y-56502450D01*
X160124710Y-56387793D01*
X160162450Y-56263383D01*
X160175193Y-56134000D01*
X160172000Y-56101581D01*
X160172000Y-39656419D01*
X160175193Y-39624000D01*
X184375807Y-39624000D01*
X184379001Y-39656429D01*
X184379000Y-56101581D01*
X184375807Y-56134000D01*
X184388550Y-56263383D01*
X184426290Y-56387793D01*
X184487575Y-56502450D01*
X184491738Y-56507522D01*
X184570052Y-56602948D01*
X184670550Y-56685425D01*
X184785207Y-56746710D01*
X184909617Y-56784450D01*
X185039000Y-56797193D01*
X185071419Y-56794000D01*
X197579581Y-56794000D01*
X197612000Y-56797193D01*
X197644419Y-56794000D01*
X197741383Y-56784450D01*
X197865793Y-56746710D01*
X197980450Y-56685425D01*
X198080948Y-56602948D01*
X198163425Y-56502450D01*
X198224710Y-56387793D01*
X198262450Y-56263383D01*
X198275193Y-56134000D01*
X198272000Y-56101581D01*
X198272000Y-39656419D01*
X198275193Y-39624000D01*
X198262450Y-39494617D01*
X198224710Y-39370207D01*
X198163425Y-39255550D01*
X198080948Y-39155052D01*
X197980450Y-39072575D01*
X197865793Y-39011290D01*
X197741383Y-38973550D01*
X197644419Y-38964000D01*
X197612000Y-38960807D01*
X197579581Y-38964000D01*
X194384963Y-38964000D01*
X194353806Y-38967069D01*
X194352772Y-38966378D01*
X194165561Y-38888833D01*
X193966818Y-38849300D01*
X193764182Y-38849300D01*
X193565439Y-38888833D01*
X193378228Y-38966378D01*
X193230500Y-39065087D01*
X193082772Y-38966378D01*
X192895561Y-38888833D01*
X192696818Y-38849300D01*
X192494182Y-38849300D01*
X192295439Y-38888833D01*
X192108228Y-38966378D01*
X191960500Y-39065087D01*
X191812772Y-38966378D01*
X191625561Y-38888833D01*
X191426818Y-38849300D01*
X191224182Y-38849300D01*
X191025439Y-38888833D01*
X190838228Y-38966378D01*
X190690500Y-39065087D01*
X190542772Y-38966378D01*
X190355561Y-38888833D01*
X190156818Y-38849300D01*
X189954182Y-38849300D01*
X189755439Y-38888833D01*
X189568228Y-38966378D01*
X189420500Y-39065087D01*
X189272772Y-38966378D01*
X189085561Y-38888833D01*
X188886818Y-38849300D01*
X188684182Y-38849300D01*
X188485439Y-38888833D01*
X188298228Y-38966378D01*
X188296601Y-38967465D01*
X188261418Y-38964000D01*
X185071419Y-38964000D01*
X185039000Y-38960807D01*
X185006581Y-38964000D01*
X184909617Y-38973550D01*
X184785207Y-39011290D01*
X184670550Y-39072575D01*
X184570052Y-39155052D01*
X184487575Y-39255550D01*
X184426290Y-39370207D01*
X184388550Y-39494617D01*
X184375807Y-39624000D01*
X160175193Y-39624000D01*
X160162450Y-39494617D01*
X160124710Y-39370207D01*
X160063425Y-39255550D01*
X159980948Y-39155052D01*
X159880450Y-39072575D01*
X159765793Y-39011290D01*
X159641383Y-38973550D01*
X159544419Y-38964000D01*
X159512000Y-38960807D01*
X159479581Y-38964000D01*
X156284963Y-38964000D01*
X156253806Y-38967069D01*
X156252772Y-38966378D01*
X156065561Y-38888833D01*
X155866818Y-38849300D01*
X155664182Y-38849300D01*
X155465439Y-38888833D01*
X155278228Y-38966378D01*
X155130500Y-39065087D01*
X154982772Y-38966378D01*
X154795561Y-38888833D01*
X154596818Y-38849300D01*
X154394182Y-38849300D01*
X154195439Y-38888833D01*
X154008228Y-38966378D01*
X153860500Y-39065087D01*
X153712772Y-38966378D01*
X153525561Y-38888833D01*
X153326818Y-38849300D01*
X153124182Y-38849300D01*
X152925439Y-38888833D01*
X152738228Y-38966378D01*
X152590500Y-39065087D01*
X152442772Y-38966378D01*
X152255561Y-38888833D01*
X152056818Y-38849300D01*
X151854182Y-38849300D01*
X151655439Y-38888833D01*
X151468228Y-38966378D01*
X151320500Y-39065087D01*
X151172772Y-38966378D01*
X150985561Y-38888833D01*
X150786818Y-38849300D01*
X150584182Y-38849300D01*
X150385439Y-38888833D01*
X150198228Y-38966378D01*
X150196601Y-38967465D01*
X150161418Y-38964000D01*
X146971419Y-38964000D01*
X146939000Y-38960807D01*
X146906581Y-38964000D01*
X146809617Y-38973550D01*
X146685207Y-39011290D01*
X146570550Y-39072575D01*
X146470052Y-39155052D01*
X146387575Y-39255550D01*
X146326290Y-39370207D01*
X146288550Y-39494617D01*
X146275807Y-39624000D01*
X131343000Y-39624000D01*
X131343000Y-33079358D01*
X131412831Y-33009527D01*
X131652976Y-33396768D01*
X132146877Y-33657391D01*
X132682133Y-33816651D01*
X133238174Y-33868428D01*
X133793632Y-33810731D01*
X134327161Y-33645778D01*
X134793024Y-33396768D01*
X135033170Y-33009525D01*
X135001420Y-32977775D01*
X153796580Y-32977775D01*
X154036726Y-33365018D01*
X154530627Y-33625641D01*
X155065883Y-33784901D01*
X155621924Y-33836678D01*
X156177382Y-33778981D01*
X156710911Y-33614028D01*
X157176774Y-33365018D01*
X157416920Y-32977775D01*
X155606750Y-31167605D01*
X153796580Y-32977775D01*
X135001420Y-32977775D01*
X133223000Y-31199355D01*
X133208858Y-31213498D01*
X133029253Y-31033893D01*
X133043395Y-31019750D01*
X133029253Y-31005608D01*
X133208858Y-30826003D01*
X133223000Y-30840145D01*
X133237143Y-30826003D01*
X133416748Y-31005608D01*
X133402605Y-31019750D01*
X135212775Y-32829920D01*
X135600018Y-32589774D01*
X135860641Y-32095873D01*
X136019901Y-31560617D01*
X136071678Y-31004576D01*
X136013981Y-30449118D01*
X135849028Y-29915589D01*
X135600018Y-29449726D01*
X135212777Y-29209581D01*
X135282608Y-29139750D01*
X153578892Y-29139750D01*
X153616973Y-29177831D01*
X153229732Y-29417976D01*
X152969109Y-29911877D01*
X152809849Y-30447133D01*
X152758072Y-31003174D01*
X152815769Y-31558632D01*
X152980722Y-32092161D01*
X153229732Y-32558024D01*
X153616975Y-32798170D01*
X155427145Y-30988000D01*
X155413003Y-30973858D01*
X155592608Y-30794253D01*
X155606750Y-30808395D01*
X155620893Y-30794253D01*
X155800498Y-30973858D01*
X155786355Y-30988000D01*
X157596525Y-32798170D01*
X157983768Y-32558024D01*
X158244391Y-32064123D01*
X158403651Y-31528867D01*
X158455428Y-30972826D01*
X158397731Y-30417368D01*
X158232778Y-29883839D01*
X157983768Y-29417976D01*
X157596527Y-29177831D01*
X157634608Y-29139750D01*
X163448471Y-29139750D01*
X163845295Y-29178659D01*
X164195958Y-29284530D01*
X164519375Y-29456494D01*
X164803234Y-29688004D01*
X165036715Y-29970236D01*
X165210933Y-30292445D01*
X165319252Y-30642364D01*
X165360750Y-31037193D01*
X165360751Y-37370419D01*
X165363552Y-37398855D01*
X165363497Y-37406682D01*
X165364396Y-37415853D01*
X165390304Y-37662357D01*
X165402339Y-37720986D01*
X165413542Y-37779716D01*
X165416206Y-37788538D01*
X165489501Y-38025314D01*
X165512681Y-38080457D01*
X165535089Y-38135920D01*
X165539415Y-38144054D01*
X165539417Y-38144059D01*
X165539420Y-38144064D01*
X165657303Y-38362086D01*
X165690738Y-38411654D01*
X165723509Y-38461735D01*
X165729334Y-38468876D01*
X165887327Y-38659856D01*
X165929762Y-38701995D01*
X165971625Y-38744745D01*
X165978726Y-38750618D01*
X166170803Y-38907273D01*
X166220625Y-38940374D01*
X166269987Y-38974173D01*
X166278093Y-38978556D01*
X166496941Y-39094919D01*
X166552229Y-39117707D01*
X166607225Y-39141279D01*
X166616028Y-39144003D01*
X166853309Y-39215643D01*
X166911996Y-39227264D01*
X166970502Y-39239700D01*
X166979665Y-39240663D01*
X166979667Y-39240663D01*
X167226345Y-39264850D01*
X167226358Y-39264850D01*
X167258331Y-39267999D01*
X175419419Y-39268001D01*
X175447865Y-39265199D01*
X175455686Y-39265254D01*
X175464857Y-39264354D01*
X175711360Y-39238445D01*
X175769949Y-39226418D01*
X175828714Y-39215209D01*
X175837536Y-39212545D01*
X176074313Y-39139251D01*
X176129451Y-39116073D01*
X176184923Y-39093661D01*
X176193054Y-39089337D01*
X176193058Y-39089335D01*
X176193061Y-39089333D01*
X176411090Y-38971445D01*
X176460656Y-38938011D01*
X176510734Y-38905242D01*
X176517875Y-38899417D01*
X176708856Y-38741425D01*
X176750997Y-38698988D01*
X176793747Y-38657125D01*
X176799620Y-38650024D01*
X176956275Y-38457945D01*
X176989364Y-38408141D01*
X177023174Y-38358763D01*
X177027557Y-38350657D01*
X177143920Y-38131809D01*
X177166724Y-38076483D01*
X177190280Y-38021522D01*
X177193005Y-38012719D01*
X177264644Y-37775438D01*
X177276263Y-37716758D01*
X177288700Y-37658248D01*
X177289663Y-37649083D01*
X177313850Y-37402405D01*
X177313850Y-37402402D01*
X177317000Y-37370419D01*
X177317000Y-31052029D01*
X177355909Y-30655205D01*
X177461780Y-30304542D01*
X177633744Y-29981125D01*
X177865254Y-29697266D01*
X178147486Y-29463785D01*
X178469695Y-29289567D01*
X178819614Y-29181248D01*
X179214443Y-29139750D01*
X201172142Y-29139750D01*
X201241973Y-29209581D01*
X200854732Y-29449726D01*
X200594109Y-29943627D01*
X200434849Y-30478883D01*
X200383072Y-31034924D01*
X200440769Y-31590382D01*
X200605722Y-32123911D01*
X200854732Y-32589774D01*
X201241975Y-32829920D01*
X203052145Y-31019750D01*
X203038003Y-31005608D01*
X203217608Y-30826003D01*
X203231750Y-30840145D01*
X203245893Y-30826003D01*
X203425498Y-31005608D01*
X203411355Y-31019750D01*
X203425498Y-31033893D01*
X203245893Y-31213498D01*
X203231750Y-31199355D01*
X201421580Y-33009525D01*
X201661726Y-33396768D01*
X202155627Y-33657391D01*
X202690883Y-33816651D01*
X203246924Y-33868428D01*
X203802382Y-33810731D01*
X204335911Y-33645778D01*
X204801774Y-33396768D01*
X205041919Y-33009527D01*
X205111751Y-33079359D01*
X205111751Y-78966391D01*
X205041919Y-79036223D01*
X204801774Y-78648982D01*
X204307873Y-78388359D01*
X203772617Y-78229099D01*
X203216576Y-78177322D01*
X202661118Y-78235019D01*
X202127589Y-78399972D01*
X201661726Y-78648982D01*
X201421580Y-79036225D01*
X203231750Y-80846395D01*
X203245893Y-80832253D01*
X203425498Y-81011858D01*
X203411355Y-81026000D01*
X203425498Y-81040143D01*
X203245893Y-81219748D01*
X203231750Y-81205605D01*
X201421580Y-83015775D01*
X201661726Y-83403018D01*
X202155627Y-83663641D01*
X202690883Y-83822901D01*
X203246924Y-83874678D01*
X203802382Y-83816981D01*
X204335911Y-83652028D01*
X204801774Y-83403018D01*
X205041919Y-83015777D01*
X205111751Y-83085609D01*
X205111750Y-136116392D01*
X205041919Y-136186223D01*
X204801774Y-135798982D01*
X204307873Y-135538359D01*
X203772617Y-135379099D01*
X203216576Y-135327322D01*
X202661118Y-135385019D01*
X202127589Y-135549972D01*
X201661726Y-135798982D01*
X201421580Y-136186225D01*
X203231750Y-137996395D01*
X203245893Y-137982253D01*
X203425498Y-138161858D01*
X203411355Y-138176000D01*
X203425498Y-138190143D01*
X203245893Y-138369748D01*
X203231750Y-138355605D01*
X201421580Y-140165775D01*
X201661726Y-140553018D01*
X202155627Y-140813641D01*
X202690883Y-140972901D01*
X203246924Y-141024678D01*
X203802382Y-140966981D01*
X204335911Y-140802028D01*
X204801774Y-140553018D01*
X205041919Y-140165777D01*
X205111750Y-140235608D01*
X205111750Y-157547642D01*
X205041919Y-157617473D01*
X204801774Y-157230232D01*
X204307873Y-156969609D01*
X203772617Y-156810349D01*
X203216576Y-156758572D01*
X202661118Y-156816269D01*
X202127589Y-156981222D01*
X201661726Y-157230232D01*
X201421580Y-157617475D01*
X203231750Y-159427645D01*
X203245893Y-159413503D01*
X203425498Y-159593108D01*
X203411355Y-159607250D01*
X203425498Y-159621393D01*
X203245893Y-159800998D01*
X203231750Y-159786855D01*
X203217608Y-159800998D01*
X203038003Y-159621393D01*
X203052145Y-159607250D01*
X201241975Y-157797080D01*
X200854732Y-158037226D01*
X200594109Y-158531127D01*
X200434849Y-159066383D01*
X200383072Y-159622424D01*
X200440769Y-160177882D01*
X200605722Y-160711411D01*
X200854732Y-161177274D01*
X201241973Y-161417419D01*
X201172142Y-161487250D01*
X164810108Y-161487250D01*
X164740277Y-161417419D01*
X165127518Y-161177274D01*
X165388141Y-160683373D01*
X165547401Y-160148117D01*
X165599178Y-159592076D01*
X165541481Y-159036618D01*
X165376528Y-158503089D01*
X165127518Y-158037226D01*
X164740275Y-157797080D01*
X162930105Y-159607250D01*
X162944248Y-159621393D01*
X162764643Y-159800998D01*
X162750500Y-159786855D01*
X162736358Y-159800998D01*
X162556753Y-159621393D01*
X162570895Y-159607250D01*
X160760725Y-157797080D01*
X160373482Y-158037226D01*
X160112859Y-158531127D01*
X159953599Y-159066383D01*
X159901822Y-159622424D01*
X159959519Y-160177882D01*
X160124472Y-160711411D01*
X160373482Y-161177274D01*
X160760723Y-161417419D01*
X160690892Y-161487250D01*
X102897608Y-161487250D01*
X102827777Y-161417419D01*
X103215018Y-161177274D01*
X103475641Y-160683373D01*
X103634901Y-160148117D01*
X103686678Y-159592076D01*
X103628981Y-159036618D01*
X103464028Y-158503089D01*
X103215018Y-158037226D01*
X102827775Y-157797080D01*
X101017605Y-159607250D01*
X101031748Y-159621393D01*
X100852143Y-159800998D01*
X100838000Y-159786855D01*
X100823858Y-159800998D01*
X100644253Y-159621393D01*
X100658395Y-159607250D01*
X98848225Y-157797080D01*
X98460982Y-158037226D01*
X98200359Y-158531127D01*
X98041099Y-159066383D01*
X97989322Y-159622424D01*
X98047019Y-160177882D01*
X98211972Y-160711411D01*
X98460982Y-161177274D01*
X98848223Y-161417419D01*
X98778392Y-161487250D01*
X62416358Y-161487250D01*
X62346527Y-161417419D01*
X62733768Y-161177274D01*
X62994391Y-160683373D01*
X63153651Y-160148117D01*
X63205428Y-159592076D01*
X63147731Y-159036618D01*
X62982778Y-158503089D01*
X62733768Y-158037226D01*
X62346525Y-157797080D01*
X60536355Y-159607250D01*
X60550498Y-159621393D01*
X60370893Y-159800998D01*
X60356750Y-159786855D01*
X60342608Y-159800998D01*
X60163003Y-159621393D01*
X60177145Y-159607250D01*
X60163003Y-159593108D01*
X60342608Y-159413503D01*
X60356750Y-159427645D01*
X62166920Y-157617475D01*
X99027830Y-157617475D01*
X100838000Y-159427645D01*
X102648170Y-157617475D01*
X160940330Y-157617475D01*
X162750500Y-159427645D01*
X164560670Y-157617475D01*
X164320524Y-157230232D01*
X163826623Y-156969609D01*
X163291367Y-156810349D01*
X162735326Y-156758572D01*
X162179868Y-156816269D01*
X161646339Y-156981222D01*
X161180476Y-157230232D01*
X160940330Y-157617475D01*
X102648170Y-157617475D01*
X102408024Y-157230232D01*
X101914123Y-156969609D01*
X101378867Y-156810349D01*
X100822826Y-156758572D01*
X100267368Y-156816269D01*
X99733839Y-156981222D01*
X99267976Y-157230232D01*
X99027830Y-157617475D01*
X62166920Y-157617475D01*
X61926774Y-157230232D01*
X61432873Y-156969609D01*
X60897617Y-156810349D01*
X60341576Y-156758572D01*
X59786118Y-156816269D01*
X59252589Y-156981222D01*
X58786726Y-157230232D01*
X58546581Y-157617473D01*
X58476750Y-157547642D01*
X58476750Y-140235608D01*
X58546581Y-140165777D01*
X58786726Y-140553018D01*
X59280627Y-140813641D01*
X59815883Y-140972901D01*
X60371924Y-141024678D01*
X60927382Y-140966981D01*
X61460911Y-140802028D01*
X61649920Y-140701000D01*
X64599807Y-140701000D01*
X64603000Y-140733419D01*
X64603001Y-154668571D01*
X64599807Y-154701000D01*
X64612550Y-154830383D01*
X64650290Y-154954793D01*
X64711575Y-155069450D01*
X64794052Y-155169948D01*
X64894550Y-155252425D01*
X65009207Y-155313710D01*
X65133617Y-155351450D01*
X65230581Y-155361000D01*
X65263000Y-155364193D01*
X65295419Y-155361000D01*
X79230581Y-155361000D01*
X79263000Y-155364193D01*
X79295419Y-155361000D01*
X79392383Y-155351450D01*
X79516793Y-155313710D01*
X79631450Y-155252425D01*
X79731948Y-155169948D01*
X79814425Y-155069450D01*
X79875710Y-154954793D01*
X79913450Y-154830383D01*
X79926193Y-154701000D01*
X79923000Y-154668581D01*
X79923000Y-140733419D01*
X79926193Y-140701000D01*
X83649807Y-140701000D01*
X83653000Y-140733419D01*
X83653001Y-154668571D01*
X83649807Y-154701000D01*
X83662550Y-154830383D01*
X83700290Y-154954793D01*
X83761575Y-155069450D01*
X83844052Y-155169948D01*
X83944550Y-155252425D01*
X84059207Y-155313710D01*
X84183617Y-155351450D01*
X84280581Y-155361000D01*
X84313000Y-155364193D01*
X84345419Y-155361000D01*
X98280581Y-155361000D01*
X98313000Y-155364193D01*
X98345419Y-155361000D01*
X98442383Y-155351450D01*
X98566793Y-155313710D01*
X98681450Y-155252425D01*
X98781948Y-155169948D01*
X98864425Y-155069450D01*
X98925710Y-154954793D01*
X98963450Y-154830383D01*
X98976193Y-154701000D01*
X98973000Y-154668581D01*
X98973000Y-140733419D01*
X98976193Y-140701000D01*
X102699807Y-140701000D01*
X102703000Y-140733419D01*
X102703001Y-154668571D01*
X102699807Y-154701000D01*
X102712550Y-154830383D01*
X102750290Y-154954793D01*
X102811575Y-155069450D01*
X102894052Y-155169948D01*
X102994550Y-155252425D01*
X103109207Y-155313710D01*
X103233617Y-155351450D01*
X103330581Y-155361000D01*
X103363000Y-155364193D01*
X103395419Y-155361000D01*
X117330581Y-155361000D01*
X117363000Y-155364193D01*
X117395419Y-155361000D01*
X117492383Y-155351450D01*
X117616793Y-155313710D01*
X117731450Y-155252425D01*
X117831948Y-155169948D01*
X117914425Y-155069450D01*
X117975710Y-154954793D01*
X118013450Y-154830383D01*
X118026193Y-154701000D01*
X118023000Y-154668581D01*
X118023000Y-140733419D01*
X118026193Y-140701000D01*
X118013450Y-140571617D01*
X117975710Y-140447207D01*
X117914425Y-140332550D01*
X117831948Y-140232052D01*
X117751190Y-140165775D01*
X120459080Y-140165775D01*
X120699226Y-140553018D01*
X121193127Y-140813641D01*
X121728383Y-140972901D01*
X122284424Y-141024678D01*
X122839882Y-140966981D01*
X123373411Y-140802028D01*
X123562420Y-140701000D01*
X126512307Y-140701000D01*
X126515500Y-140733419D01*
X126515501Y-154668571D01*
X126512307Y-154701000D01*
X126525050Y-154830383D01*
X126562790Y-154954793D01*
X126624075Y-155069450D01*
X126706552Y-155169948D01*
X126807050Y-155252425D01*
X126921707Y-155313710D01*
X127046117Y-155351450D01*
X127143081Y-155361000D01*
X127175500Y-155364193D01*
X127207919Y-155361000D01*
X160193081Y-155361000D01*
X160225500Y-155364193D01*
X160257919Y-155361000D01*
X160354883Y-155351450D01*
X160479293Y-155313710D01*
X160593950Y-155252425D01*
X160694448Y-155169948D01*
X160776925Y-155069450D01*
X160838210Y-154954793D01*
X160875950Y-154830383D01*
X160888693Y-154701000D01*
X160885500Y-154668581D01*
X160885500Y-140733419D01*
X160888693Y-140701000D01*
X164612307Y-140701000D01*
X164615500Y-140733419D01*
X164615501Y-154668571D01*
X164612307Y-154701000D01*
X164625050Y-154830383D01*
X164662790Y-154954793D01*
X164724075Y-155069450D01*
X164806552Y-155169948D01*
X164907050Y-155252425D01*
X165021707Y-155313710D01*
X165146117Y-155351450D01*
X165243081Y-155361000D01*
X165275500Y-155364193D01*
X165307919Y-155361000D01*
X179243081Y-155361000D01*
X179275500Y-155364193D01*
X179307919Y-155361000D01*
X179404883Y-155351450D01*
X179529293Y-155313710D01*
X179643950Y-155252425D01*
X179744448Y-155169948D01*
X179826925Y-155069450D01*
X179888210Y-154954793D01*
X179925950Y-154830383D01*
X179938693Y-154701000D01*
X179935500Y-154668581D01*
X179935500Y-140733419D01*
X179938693Y-140701000D01*
X179925950Y-140571617D01*
X179888210Y-140447207D01*
X179826925Y-140332550D01*
X179744448Y-140232052D01*
X179643950Y-140149575D01*
X179529293Y-140088290D01*
X179404883Y-140050550D01*
X179307919Y-140041000D01*
X179275500Y-140037807D01*
X179243081Y-140041000D01*
X165307919Y-140041000D01*
X165275500Y-140037807D01*
X165243081Y-140041000D01*
X165146117Y-140050550D01*
X165021707Y-140088290D01*
X164907050Y-140149575D01*
X164806552Y-140232052D01*
X164724075Y-140332550D01*
X164662790Y-140447207D01*
X164625050Y-140571617D01*
X164612307Y-140701000D01*
X160888693Y-140701000D01*
X160875950Y-140571617D01*
X160838210Y-140447207D01*
X160776925Y-140332550D01*
X160694448Y-140232052D01*
X160593950Y-140149575D01*
X160479293Y-140088290D01*
X160354883Y-140050550D01*
X160257919Y-140041000D01*
X160225500Y-140037807D01*
X160193081Y-140041000D01*
X159791000Y-140041000D01*
X159791000Y-139533419D01*
X159794193Y-139501000D01*
X159781450Y-139371617D01*
X159743710Y-139247207D01*
X159682425Y-139132550D01*
X159599948Y-139032052D01*
X159499450Y-138949575D01*
X159384793Y-138888290D01*
X159260383Y-138850550D01*
X159163419Y-138841000D01*
X159131000Y-138837807D01*
X159098581Y-138841000D01*
X152132919Y-138841000D01*
X152100500Y-138837807D01*
X152068081Y-138841000D01*
X151971117Y-138850550D01*
X151846707Y-138888290D01*
X151732050Y-138949575D01*
X151631552Y-139032052D01*
X151549075Y-139132550D01*
X151487790Y-139247207D01*
X151450050Y-139371617D01*
X151437307Y-139501000D01*
X151440500Y-139533420D01*
X151440500Y-140041000D01*
X135960500Y-140041000D01*
X135960500Y-139533419D01*
X135963693Y-139501000D01*
X135950950Y-139371617D01*
X135913210Y-139247207D01*
X135851925Y-139132550D01*
X135769448Y-139032052D01*
X135668950Y-138949575D01*
X135554293Y-138888290D01*
X135429883Y-138850550D01*
X135332919Y-138841000D01*
X135300500Y-138837807D01*
X135268081Y-138841000D01*
X128302419Y-138841000D01*
X128270000Y-138837807D01*
X128237581Y-138841000D01*
X128140617Y-138850550D01*
X128016207Y-138888290D01*
X127901550Y-138949575D01*
X127801052Y-139032052D01*
X127718575Y-139132550D01*
X127657290Y-139247207D01*
X127619550Y-139371617D01*
X127606807Y-139501000D01*
X127610000Y-139533420D01*
X127610000Y-140041000D01*
X127207919Y-140041000D01*
X127175500Y-140037807D01*
X127143081Y-140041000D01*
X127046117Y-140050550D01*
X126921707Y-140088290D01*
X126807050Y-140149575D01*
X126706552Y-140232052D01*
X126624075Y-140332550D01*
X126562790Y-140447207D01*
X126525050Y-140571617D01*
X126512307Y-140701000D01*
X123562420Y-140701000D01*
X123839274Y-140553018D01*
X124079420Y-140165775D01*
X122269250Y-138355605D01*
X120459080Y-140165775D01*
X117751190Y-140165775D01*
X117731450Y-140149575D01*
X117616793Y-140088290D01*
X117492383Y-140050550D01*
X117395419Y-140041000D01*
X117363000Y-140037807D01*
X117330581Y-140041000D01*
X103395419Y-140041000D01*
X103363000Y-140037807D01*
X103330581Y-140041000D01*
X103233617Y-140050550D01*
X103109207Y-140088290D01*
X102994550Y-140149575D01*
X102894052Y-140232052D01*
X102811575Y-140332550D01*
X102750290Y-140447207D01*
X102712550Y-140571617D01*
X102699807Y-140701000D01*
X98976193Y-140701000D01*
X98963450Y-140571617D01*
X98925710Y-140447207D01*
X98864425Y-140332550D01*
X98781948Y-140232052D01*
X98681450Y-140149575D01*
X98566793Y-140088290D01*
X98442383Y-140050550D01*
X98345419Y-140041000D01*
X98313000Y-140037807D01*
X98280581Y-140041000D01*
X84345419Y-140041000D01*
X84313000Y-140037807D01*
X84280581Y-140041000D01*
X84183617Y-140050550D01*
X84059207Y-140088290D01*
X83944550Y-140149575D01*
X83844052Y-140232052D01*
X83761575Y-140332550D01*
X83700290Y-140447207D01*
X83662550Y-140571617D01*
X83649807Y-140701000D01*
X79926193Y-140701000D01*
X79913450Y-140571617D01*
X79875710Y-140447207D01*
X79814425Y-140332550D01*
X79731948Y-140232052D01*
X79631450Y-140149575D01*
X79516793Y-140088290D01*
X79392383Y-140050550D01*
X79295419Y-140041000D01*
X79263000Y-140037807D01*
X79230581Y-140041000D01*
X65295419Y-140041000D01*
X65263000Y-140037807D01*
X65230581Y-140041000D01*
X65133617Y-140050550D01*
X65009207Y-140088290D01*
X64894550Y-140149575D01*
X64794052Y-140232052D01*
X64711575Y-140332550D01*
X64650290Y-140447207D01*
X64612550Y-140571617D01*
X64599807Y-140701000D01*
X61649920Y-140701000D01*
X61926774Y-140553018D01*
X62166920Y-140165775D01*
X60356750Y-138355605D01*
X60342608Y-138369748D01*
X60163003Y-138190143D01*
X60177145Y-138176000D01*
X60536355Y-138176000D01*
X62346525Y-139986170D01*
X62733768Y-139746024D01*
X62994391Y-139252123D01*
X63153651Y-138716867D01*
X63202602Y-138191174D01*
X119420572Y-138191174D01*
X119478269Y-138746632D01*
X119643222Y-139280161D01*
X119892232Y-139746024D01*
X120279475Y-139986170D01*
X122089645Y-138176000D01*
X122448855Y-138176000D01*
X124259025Y-139986170D01*
X124646268Y-139746024D01*
X124906891Y-139252123D01*
X125066151Y-138716867D01*
X125117928Y-138160826D01*
X125060231Y-137605368D01*
X124895278Y-137071839D01*
X124646268Y-136605976D01*
X124259025Y-136365830D01*
X122448855Y-138176000D01*
X122089645Y-138176000D01*
X120279475Y-136365830D01*
X119892232Y-136605976D01*
X119631609Y-137099877D01*
X119472349Y-137635133D01*
X119420572Y-138191174D01*
X63202602Y-138191174D01*
X63205428Y-138160826D01*
X63147731Y-137605368D01*
X62982778Y-137071839D01*
X62733768Y-136605976D01*
X62346525Y-136365830D01*
X60536355Y-138176000D01*
X60177145Y-138176000D01*
X60163003Y-138161858D01*
X60342608Y-137982253D01*
X60356750Y-137996395D01*
X62166920Y-136186225D01*
X61926774Y-135798982D01*
X61432873Y-135538359D01*
X60897617Y-135379099D01*
X60341576Y-135327322D01*
X59786118Y-135385019D01*
X59252589Y-135549972D01*
X58786726Y-135798982D01*
X58546581Y-136186223D01*
X58476750Y-136116392D01*
X58476750Y-121651000D01*
X64599807Y-121651000D01*
X64603000Y-121683419D01*
X64603001Y-135618571D01*
X64599807Y-135651000D01*
X64612550Y-135780383D01*
X64650290Y-135904793D01*
X64711575Y-136019450D01*
X64794052Y-136119948D01*
X64894550Y-136202425D01*
X65009207Y-136263710D01*
X65133617Y-136301450D01*
X65230581Y-136311000D01*
X65263000Y-136314193D01*
X65295419Y-136311000D01*
X79230581Y-136311000D01*
X79263000Y-136314193D01*
X79295419Y-136311000D01*
X79392383Y-136301450D01*
X79516793Y-136263710D01*
X79631450Y-136202425D01*
X79731948Y-136119948D01*
X79814425Y-136019450D01*
X79875710Y-135904793D01*
X79913450Y-135780383D01*
X79926193Y-135651000D01*
X79923000Y-135618581D01*
X79923000Y-121683419D01*
X79926193Y-121651000D01*
X83649807Y-121651000D01*
X83653000Y-121683419D01*
X83653001Y-135618571D01*
X83649807Y-135651000D01*
X83662550Y-135780383D01*
X83700290Y-135904793D01*
X83761575Y-136019450D01*
X83844052Y-136119948D01*
X83944550Y-136202425D01*
X84059207Y-136263710D01*
X84183617Y-136301450D01*
X84280581Y-136311000D01*
X84313000Y-136314193D01*
X84345419Y-136311000D01*
X98280581Y-136311000D01*
X98313000Y-136314193D01*
X98345419Y-136311000D01*
X98442383Y-136301450D01*
X98566793Y-136263710D01*
X98681450Y-136202425D01*
X98781948Y-136119948D01*
X98864425Y-136019450D01*
X98925710Y-135904793D01*
X98963450Y-135780383D01*
X98976193Y-135651000D01*
X98973000Y-135618581D01*
X98973000Y-121683419D01*
X98976193Y-121651000D01*
X102699807Y-121651000D01*
X102703000Y-121683419D01*
X102703001Y-135618571D01*
X102699807Y-135651000D01*
X102712550Y-135780383D01*
X102750290Y-135904793D01*
X102811575Y-136019450D01*
X102894052Y-136119948D01*
X102994550Y-136202425D01*
X103109207Y-136263710D01*
X103233617Y-136301450D01*
X103330581Y-136311000D01*
X103363000Y-136314193D01*
X103395419Y-136311000D01*
X117330581Y-136311000D01*
X117363000Y-136314193D01*
X117395419Y-136311000D01*
X117492383Y-136301450D01*
X117616793Y-136263710D01*
X117731450Y-136202425D01*
X117751189Y-136186225D01*
X120459080Y-136186225D01*
X122269250Y-137996395D01*
X124079420Y-136186225D01*
X123839274Y-135798982D01*
X123345373Y-135538359D01*
X122810117Y-135379099D01*
X122254076Y-135327322D01*
X121698618Y-135385019D01*
X121165089Y-135549972D01*
X120699226Y-135798982D01*
X120459080Y-136186225D01*
X117751189Y-136186225D01*
X117831948Y-136119948D01*
X117914425Y-136019450D01*
X117975710Y-135904793D01*
X118013450Y-135780383D01*
X118026193Y-135651000D01*
X118023000Y-135618581D01*
X118023000Y-121683419D01*
X118026193Y-121651000D01*
X126512307Y-121651000D01*
X126515500Y-121683419D01*
X126515501Y-135618571D01*
X126512307Y-135651000D01*
X126525050Y-135780383D01*
X126562790Y-135904793D01*
X126624075Y-136019450D01*
X126706552Y-136119948D01*
X126807050Y-136202425D01*
X126921707Y-136263710D01*
X127046117Y-136301450D01*
X127143081Y-136311000D01*
X127175500Y-136314193D01*
X127207919Y-136311000D01*
X141143081Y-136311000D01*
X141175500Y-136314193D01*
X141207919Y-136311000D01*
X141304883Y-136301450D01*
X141429293Y-136263710D01*
X141543950Y-136202425D01*
X141644448Y-136119948D01*
X141726925Y-136019450D01*
X141788210Y-135904793D01*
X141825950Y-135780383D01*
X141838693Y-135651000D01*
X141835500Y-135618581D01*
X141835500Y-121683419D01*
X141838693Y-121651000D01*
X145562307Y-121651000D01*
X145565500Y-121683419D01*
X145565501Y-135618571D01*
X145562307Y-135651000D01*
X145575050Y-135780383D01*
X145612790Y-135904793D01*
X145674075Y-136019450D01*
X145756552Y-136119948D01*
X145857050Y-136202425D01*
X145971707Y-136263710D01*
X146096117Y-136301450D01*
X146193081Y-136311000D01*
X146225500Y-136314193D01*
X146257919Y-136311000D01*
X160193081Y-136311000D01*
X160225500Y-136314193D01*
X160257919Y-136311000D01*
X160354883Y-136301450D01*
X160479293Y-136263710D01*
X160593950Y-136202425D01*
X160694448Y-136119948D01*
X160776925Y-136019450D01*
X160838210Y-135904793D01*
X160875950Y-135780383D01*
X160888693Y-135651000D01*
X160885500Y-135618581D01*
X160885500Y-121683419D01*
X160888693Y-121651000D01*
X164612307Y-121651000D01*
X164615500Y-121683419D01*
X164615501Y-135618571D01*
X164612307Y-135651000D01*
X164625050Y-135780383D01*
X164662790Y-135904793D01*
X164724075Y-136019450D01*
X164806552Y-136119948D01*
X164907050Y-136202425D01*
X165021707Y-136263710D01*
X165146117Y-136301450D01*
X165243081Y-136311000D01*
X165275500Y-136314193D01*
X165307919Y-136311000D01*
X179243081Y-136311000D01*
X179275500Y-136314193D01*
X179307919Y-136311000D01*
X179404883Y-136301450D01*
X179529293Y-136263710D01*
X179643950Y-136202425D01*
X179744448Y-136119948D01*
X179826925Y-136019450D01*
X179888210Y-135904793D01*
X179925950Y-135780383D01*
X179938693Y-135651000D01*
X179935500Y-135618581D01*
X179935500Y-122745500D01*
X182462307Y-122745500D01*
X182465500Y-122777918D01*
X182465499Y-129743591D01*
X182462307Y-129776000D01*
X182465499Y-129808412D01*
X182465499Y-129808418D01*
X182475049Y-129905382D01*
X182512789Y-130029792D01*
X182574074Y-130144449D01*
X182656551Y-130244948D01*
X182757049Y-130327425D01*
X182871706Y-130388710D01*
X182996116Y-130426450D01*
X183125499Y-130439193D01*
X183157927Y-130435999D01*
X183665500Y-130436000D01*
X183665501Y-145916001D01*
X183157912Y-145916000D01*
X183125499Y-145912808D01*
X183093090Y-145916000D01*
X183093081Y-145916000D01*
X182996117Y-145925550D01*
X182871707Y-145963290D01*
X182757050Y-146024575D01*
X182757048Y-146024576D01*
X182757049Y-146024576D01*
X182656551Y-146107053D01*
X182574074Y-146207551D01*
X182512789Y-146322208D01*
X182475049Y-146446618D01*
X182465499Y-146543582D01*
X182465499Y-146543591D01*
X182462307Y-146576000D01*
X182465499Y-146608412D01*
X182465501Y-153574071D01*
X182462307Y-153606500D01*
X182475050Y-153735883D01*
X182512790Y-153860293D01*
X182574075Y-153974950D01*
X182656552Y-154075448D01*
X182757050Y-154157925D01*
X182871707Y-154219210D01*
X182996117Y-154256950D01*
X183093081Y-154266500D01*
X183093088Y-154266500D01*
X183125500Y-154269692D01*
X183157909Y-154266500D01*
X183665501Y-154266500D01*
X183665501Y-154668571D01*
X183662307Y-154701000D01*
X183675050Y-154830383D01*
X183712790Y-154954793D01*
X183774075Y-155069450D01*
X183856552Y-155169948D01*
X183957050Y-155252425D01*
X184071707Y-155313710D01*
X184196117Y-155351450D01*
X184293081Y-155361000D01*
X184325500Y-155364193D01*
X184357919Y-155361000D01*
X198293081Y-155361000D01*
X198325500Y-155364193D01*
X198357919Y-155361000D01*
X198454883Y-155351450D01*
X198579293Y-155313710D01*
X198693950Y-155252425D01*
X198794448Y-155169948D01*
X198876925Y-155069450D01*
X198938210Y-154954793D01*
X198975950Y-154830383D01*
X198988693Y-154701000D01*
X198985500Y-154668581D01*
X198985500Y-138191174D01*
X200383072Y-138191174D01*
X200440769Y-138746632D01*
X200605722Y-139280161D01*
X200854732Y-139746024D01*
X201241975Y-139986170D01*
X203052145Y-138176000D01*
X201241975Y-136365830D01*
X200854732Y-136605976D01*
X200594109Y-137099877D01*
X200434849Y-137635133D01*
X200383072Y-138191174D01*
X198985500Y-138191174D01*
X198985500Y-121683419D01*
X198988693Y-121651000D01*
X198975950Y-121521617D01*
X198938210Y-121397207D01*
X198876925Y-121282550D01*
X198794448Y-121182052D01*
X198693950Y-121099575D01*
X198579293Y-121038290D01*
X198454883Y-121000550D01*
X198357919Y-120991000D01*
X198325500Y-120987807D01*
X198293081Y-120991000D01*
X184357919Y-120991000D01*
X184325500Y-120987807D01*
X184293081Y-120991000D01*
X184196117Y-121000550D01*
X184071707Y-121038290D01*
X183957050Y-121099575D01*
X183856552Y-121182052D01*
X183774075Y-121282550D01*
X183712790Y-121397207D01*
X183675050Y-121521617D01*
X183662307Y-121651000D01*
X183665500Y-121683420D01*
X183665500Y-122085500D01*
X183157927Y-122085501D01*
X183125499Y-122082307D01*
X182996117Y-122095050D01*
X182871707Y-122132790D01*
X182757050Y-122194075D01*
X182757048Y-122194076D01*
X182757049Y-122194076D01*
X182656551Y-122276553D01*
X182574074Y-122377051D01*
X182512789Y-122491708D01*
X182475049Y-122616118D01*
X182462307Y-122745500D01*
X179935500Y-122745500D01*
X179935500Y-121683419D01*
X179938693Y-121651000D01*
X179925950Y-121521617D01*
X179888210Y-121397207D01*
X179826925Y-121282550D01*
X179744448Y-121182052D01*
X179643950Y-121099575D01*
X179529293Y-121038290D01*
X179404883Y-121000550D01*
X179307919Y-120991000D01*
X179275500Y-120987807D01*
X179243081Y-120991000D01*
X165307919Y-120991000D01*
X165275500Y-120987807D01*
X165243081Y-120991000D01*
X165146117Y-121000550D01*
X165021707Y-121038290D01*
X164907050Y-121099575D01*
X164806552Y-121182052D01*
X164724075Y-121282550D01*
X164662790Y-121397207D01*
X164625050Y-121521617D01*
X164612307Y-121651000D01*
X160888693Y-121651000D01*
X160875950Y-121521617D01*
X160838210Y-121397207D01*
X160776925Y-121282550D01*
X160694448Y-121182052D01*
X160593950Y-121099575D01*
X160479293Y-121038290D01*
X160354883Y-121000550D01*
X160257919Y-120991000D01*
X160225500Y-120987807D01*
X160193081Y-120991000D01*
X146257919Y-120991000D01*
X146225500Y-120987807D01*
X146193081Y-120991000D01*
X146096117Y-121000550D01*
X145971707Y-121038290D01*
X145857050Y-121099575D01*
X145756552Y-121182052D01*
X145674075Y-121282550D01*
X145612790Y-121397207D01*
X145575050Y-121521617D01*
X145562307Y-121651000D01*
X141838693Y-121651000D01*
X141825950Y-121521617D01*
X141788210Y-121397207D01*
X141726925Y-121282550D01*
X141644448Y-121182052D01*
X141543950Y-121099575D01*
X141429293Y-121038290D01*
X141304883Y-121000550D01*
X141207919Y-120991000D01*
X141175500Y-120987807D01*
X141143081Y-120991000D01*
X127207919Y-120991000D01*
X127175500Y-120987807D01*
X127143081Y-120991000D01*
X127046117Y-121000550D01*
X126921707Y-121038290D01*
X126807050Y-121099575D01*
X126706552Y-121182052D01*
X126624075Y-121282550D01*
X126562790Y-121397207D01*
X126525050Y-121521617D01*
X126512307Y-121651000D01*
X118026193Y-121651000D01*
X118013450Y-121521617D01*
X117975710Y-121397207D01*
X117914425Y-121282550D01*
X117831948Y-121182052D01*
X117731450Y-121099575D01*
X117616793Y-121038290D01*
X117492383Y-121000550D01*
X117395419Y-120991000D01*
X117363000Y-120987807D01*
X117330581Y-120991000D01*
X103395419Y-120991000D01*
X103363000Y-120987807D01*
X103330581Y-120991000D01*
X103233617Y-121000550D01*
X103109207Y-121038290D01*
X102994550Y-121099575D01*
X102894052Y-121182052D01*
X102811575Y-121282550D01*
X102750290Y-121397207D01*
X102712550Y-121521617D01*
X102699807Y-121651000D01*
X98976193Y-121651000D01*
X98963450Y-121521617D01*
X98925710Y-121397207D01*
X98864425Y-121282550D01*
X98781948Y-121182052D01*
X98681450Y-121099575D01*
X98566793Y-121038290D01*
X98442383Y-121000550D01*
X98345419Y-120991000D01*
X98313000Y-120987807D01*
X98280581Y-120991000D01*
X84345419Y-120991000D01*
X84313000Y-120987807D01*
X84280581Y-120991000D01*
X84183617Y-121000550D01*
X84059207Y-121038290D01*
X83944550Y-121099575D01*
X83844052Y-121182052D01*
X83761575Y-121282550D01*
X83700290Y-121397207D01*
X83662550Y-121521617D01*
X83649807Y-121651000D01*
X79926193Y-121651000D01*
X79913450Y-121521617D01*
X79875710Y-121397207D01*
X79814425Y-121282550D01*
X79731948Y-121182052D01*
X79631450Y-121099575D01*
X79516793Y-121038290D01*
X79392383Y-121000550D01*
X79295419Y-120991000D01*
X79263000Y-120987807D01*
X79230581Y-120991000D01*
X65295419Y-120991000D01*
X65263000Y-120987807D01*
X65230581Y-120991000D01*
X65133617Y-121000550D01*
X65009207Y-121038290D01*
X64894550Y-121099575D01*
X64794052Y-121182052D01*
X64711575Y-121282550D01*
X64650290Y-121397207D01*
X64612550Y-121521617D01*
X64599807Y-121651000D01*
X58476750Y-121651000D01*
X58476750Y-106996867D01*
X77434390Y-106996867D01*
X77434390Y-107379133D01*
X77508966Y-107754055D01*
X77655254Y-108107224D01*
X77867630Y-108425067D01*
X78137933Y-108695370D01*
X78455776Y-108907746D01*
X78808945Y-109054034D01*
X79183867Y-109128610D01*
X79566133Y-109128610D01*
X79941055Y-109054034D01*
X80294224Y-108907746D01*
X80612067Y-108695370D01*
X80882370Y-108425067D01*
X81094746Y-108107224D01*
X81241034Y-107754055D01*
X81315610Y-107379133D01*
X81315610Y-106996867D01*
X89372390Y-106996867D01*
X89372390Y-107379133D01*
X89446966Y-107754055D01*
X89593254Y-108107224D01*
X89805630Y-108425067D01*
X90075933Y-108695370D01*
X90393776Y-108907746D01*
X90746945Y-109054034D01*
X91121867Y-109128610D01*
X91504133Y-109128610D01*
X91879055Y-109054034D01*
X92232224Y-108907746D01*
X92550067Y-108695370D01*
X92820370Y-108425067D01*
X93032746Y-108107224D01*
X93179034Y-107754055D01*
X93253610Y-107379133D01*
X93253610Y-106996867D01*
X101310390Y-106996867D01*
X101310390Y-107379133D01*
X101384966Y-107754055D01*
X101531254Y-108107224D01*
X101743630Y-108425067D01*
X102013933Y-108695370D01*
X102331776Y-108907746D01*
X102684945Y-109054034D01*
X103059867Y-109128610D01*
X103442133Y-109128610D01*
X103817055Y-109054034D01*
X104170224Y-108907746D01*
X104488067Y-108695370D01*
X104758370Y-108425067D01*
X104970746Y-108107224D01*
X105117034Y-107754055D01*
X105191610Y-107379133D01*
X105191610Y-106996867D01*
X105117034Y-106621945D01*
X104970746Y-106268776D01*
X104758370Y-105950933D01*
X104488067Y-105680630D01*
X104170224Y-105468254D01*
X103817055Y-105321966D01*
X103442133Y-105247390D01*
X103059867Y-105247390D01*
X102684945Y-105321966D01*
X102331776Y-105468254D01*
X102013933Y-105680630D01*
X101743630Y-105950933D01*
X101531254Y-106268776D01*
X101384966Y-106621945D01*
X101310390Y-106996867D01*
X93253610Y-106996867D01*
X93179034Y-106621945D01*
X93032746Y-106268776D01*
X92820370Y-105950933D01*
X92550067Y-105680630D01*
X92232224Y-105468254D01*
X91879055Y-105321966D01*
X91504133Y-105247390D01*
X91121867Y-105247390D01*
X90746945Y-105321966D01*
X90393776Y-105468254D01*
X90075933Y-105680630D01*
X89805630Y-105950933D01*
X89593254Y-106268776D01*
X89446966Y-106621945D01*
X89372390Y-106996867D01*
X81315610Y-106996867D01*
X81241034Y-106621945D01*
X81094746Y-106268776D01*
X80882370Y-105950933D01*
X80612067Y-105680630D01*
X80294224Y-105468254D01*
X79941055Y-105321966D01*
X79566133Y-105247390D01*
X79183867Y-105247390D01*
X78808945Y-105321966D01*
X78455776Y-105468254D01*
X78137933Y-105680630D01*
X77867630Y-105950933D01*
X77655254Y-106268776D01*
X77508966Y-106621945D01*
X77434390Y-106996867D01*
X58476750Y-106996867D01*
X58476750Y-102601000D01*
X126512307Y-102601000D01*
X126515500Y-102633419D01*
X126515501Y-116568571D01*
X126512307Y-116601000D01*
X126525050Y-116730383D01*
X126562790Y-116854793D01*
X126624075Y-116969450D01*
X126706552Y-117069948D01*
X126807050Y-117152425D01*
X126921707Y-117213710D01*
X127046117Y-117251450D01*
X127143081Y-117261000D01*
X127175500Y-117264193D01*
X127207919Y-117261000D01*
X141143081Y-117261000D01*
X141175500Y-117264193D01*
X141207919Y-117261000D01*
X141304883Y-117251450D01*
X141429293Y-117213710D01*
X141543950Y-117152425D01*
X141644448Y-117069948D01*
X141726925Y-116969450D01*
X141788210Y-116854793D01*
X141825950Y-116730383D01*
X141838693Y-116601000D01*
X141835500Y-116568581D01*
X141835500Y-102633419D01*
X141838693Y-102601000D01*
X145562307Y-102601000D01*
X145565500Y-102633419D01*
X145565501Y-116568571D01*
X145562307Y-116601000D01*
X145575050Y-116730383D01*
X145612790Y-116854793D01*
X145674075Y-116969450D01*
X145756552Y-117069948D01*
X145857050Y-117152425D01*
X145971707Y-117213710D01*
X146096117Y-117251450D01*
X146193081Y-117261000D01*
X146225500Y-117264193D01*
X146257919Y-117261000D01*
X160193081Y-117261000D01*
X160225500Y-117264193D01*
X160257919Y-117261000D01*
X160354883Y-117251450D01*
X160479293Y-117213710D01*
X160593950Y-117152425D01*
X160694448Y-117069948D01*
X160776925Y-116969450D01*
X160838210Y-116854793D01*
X160875950Y-116730383D01*
X160888693Y-116601000D01*
X160885500Y-116568581D01*
X160885500Y-102633419D01*
X160888693Y-102601000D01*
X164612307Y-102601000D01*
X164615500Y-102633419D01*
X164615501Y-116568571D01*
X164612307Y-116601000D01*
X164625050Y-116730383D01*
X164662790Y-116854793D01*
X164724075Y-116969450D01*
X164806552Y-117069948D01*
X164907050Y-117152425D01*
X165021707Y-117213710D01*
X165146117Y-117251450D01*
X165243081Y-117261000D01*
X165275500Y-117264193D01*
X165307919Y-117261000D01*
X179243081Y-117261000D01*
X179275500Y-117264193D01*
X179307919Y-117261000D01*
X179404883Y-117251450D01*
X179529293Y-117213710D01*
X179643950Y-117152425D01*
X179744448Y-117069948D01*
X179826925Y-116969450D01*
X179888210Y-116854793D01*
X179925950Y-116730383D01*
X179938693Y-116601000D01*
X179935500Y-116568581D01*
X179935500Y-102633419D01*
X179938693Y-102601000D01*
X179925950Y-102471617D01*
X179888210Y-102347207D01*
X179826925Y-102232550D01*
X179744448Y-102132052D01*
X179643950Y-102049575D01*
X179529293Y-101988290D01*
X179404883Y-101950550D01*
X179307919Y-101941000D01*
X179275500Y-101937807D01*
X179243081Y-101941000D01*
X165307919Y-101941000D01*
X165275500Y-101937807D01*
X165243081Y-101941000D01*
X165146117Y-101950550D01*
X165021707Y-101988290D01*
X164907050Y-102049575D01*
X164806552Y-102132052D01*
X164724075Y-102232550D01*
X164662790Y-102347207D01*
X164625050Y-102471617D01*
X164612307Y-102601000D01*
X160888693Y-102601000D01*
X160875950Y-102471617D01*
X160838210Y-102347207D01*
X160776925Y-102232550D01*
X160694448Y-102132052D01*
X160593950Y-102049575D01*
X160479293Y-101988290D01*
X160354883Y-101950550D01*
X160257919Y-101941000D01*
X160225500Y-101937807D01*
X160193081Y-101941000D01*
X146257919Y-101941000D01*
X146225500Y-101937807D01*
X146193081Y-101941000D01*
X146096117Y-101950550D01*
X145971707Y-101988290D01*
X145857050Y-102049575D01*
X145756552Y-102132052D01*
X145674075Y-102232550D01*
X145612790Y-102347207D01*
X145575050Y-102471617D01*
X145562307Y-102601000D01*
X141838693Y-102601000D01*
X141825950Y-102471617D01*
X141788210Y-102347207D01*
X141726925Y-102232550D01*
X141644448Y-102132052D01*
X141543950Y-102049575D01*
X141429293Y-101988290D01*
X141304883Y-101950550D01*
X141207919Y-101941000D01*
X141175500Y-101937807D01*
X141143081Y-101941000D01*
X127207919Y-101941000D01*
X127175500Y-101937807D01*
X127143081Y-101941000D01*
X127046117Y-101950550D01*
X126921707Y-101988290D01*
X126807050Y-102049575D01*
X126706552Y-102132052D01*
X126624075Y-102232550D01*
X126562790Y-102347207D01*
X126525050Y-102471617D01*
X126512307Y-102601000D01*
X58476750Y-102601000D01*
X58476750Y-83085608D01*
X58546581Y-83015777D01*
X58786726Y-83403018D01*
X59280627Y-83663641D01*
X59815883Y-83822901D01*
X60371924Y-83874678D01*
X60927382Y-83816981D01*
X61460911Y-83652028D01*
X61649920Y-83551000D01*
X64599807Y-83551000D01*
X64603000Y-83583419D01*
X64603001Y-97518571D01*
X64599807Y-97551000D01*
X64612550Y-97680383D01*
X64650290Y-97804793D01*
X64711575Y-97919450D01*
X64794052Y-98019948D01*
X64894550Y-98102425D01*
X65009207Y-98163710D01*
X65133617Y-98201450D01*
X65230581Y-98211000D01*
X65263000Y-98214193D01*
X65295419Y-98211000D01*
X79230581Y-98211000D01*
X79263000Y-98214193D01*
X79295419Y-98211000D01*
X79392383Y-98201450D01*
X79516793Y-98163710D01*
X79631450Y-98102425D01*
X79731948Y-98019948D01*
X79814425Y-97919450D01*
X79875710Y-97804793D01*
X79913450Y-97680383D01*
X79926193Y-97551000D01*
X79923000Y-97518581D01*
X79923000Y-83583419D01*
X79926193Y-83551000D01*
X83649807Y-83551000D01*
X83653000Y-83583419D01*
X83653001Y-97518571D01*
X83649807Y-97551000D01*
X83662550Y-97680383D01*
X83700290Y-97804793D01*
X83761575Y-97919450D01*
X83844052Y-98019948D01*
X83944550Y-98102425D01*
X84059207Y-98163710D01*
X84183617Y-98201450D01*
X84280581Y-98211000D01*
X84313000Y-98214193D01*
X84345419Y-98211000D01*
X98280581Y-98211000D01*
X98313000Y-98214193D01*
X98345419Y-98211000D01*
X98442383Y-98201450D01*
X98566793Y-98163710D01*
X98681450Y-98102425D01*
X98781948Y-98019948D01*
X98864425Y-97919450D01*
X98925710Y-97804793D01*
X98963450Y-97680383D01*
X98976193Y-97551000D01*
X98973000Y-97518581D01*
X98973000Y-83583419D01*
X98976193Y-83551000D01*
X102699807Y-83551000D01*
X102703000Y-83583419D01*
X102703001Y-97518571D01*
X102699807Y-97551000D01*
X102712550Y-97680383D01*
X102750290Y-97804793D01*
X102811575Y-97919450D01*
X102894052Y-98019948D01*
X102994550Y-98102425D01*
X103109207Y-98163710D01*
X103233617Y-98201450D01*
X103330581Y-98211000D01*
X103363000Y-98214193D01*
X103395419Y-98211000D01*
X117330581Y-98211000D01*
X117363000Y-98214193D01*
X117395419Y-98211000D01*
X117492383Y-98201450D01*
X117616793Y-98163710D01*
X117731450Y-98102425D01*
X117831948Y-98019948D01*
X117914425Y-97919450D01*
X117975710Y-97804793D01*
X118013450Y-97680383D01*
X118026193Y-97551000D01*
X118023000Y-97518581D01*
X118023000Y-83583419D01*
X118026193Y-83551000D01*
X126512307Y-83551000D01*
X126515500Y-83583419D01*
X126515501Y-97518571D01*
X126512307Y-97551000D01*
X126525050Y-97680383D01*
X126562790Y-97804793D01*
X126624075Y-97919450D01*
X126706552Y-98019948D01*
X126807050Y-98102425D01*
X126921707Y-98163710D01*
X127046117Y-98201450D01*
X127143081Y-98211000D01*
X127175500Y-98214193D01*
X127207919Y-98211000D01*
X141143081Y-98211000D01*
X141175500Y-98214193D01*
X141207919Y-98211000D01*
X141304883Y-98201450D01*
X141429293Y-98163710D01*
X141543950Y-98102425D01*
X141644448Y-98019948D01*
X141726925Y-97919450D01*
X141788210Y-97804793D01*
X141825950Y-97680383D01*
X141838693Y-97551000D01*
X141835500Y-97518581D01*
X141835500Y-83583419D01*
X141838693Y-83551000D01*
X145562307Y-83551000D01*
X145565500Y-83583419D01*
X145565501Y-97518571D01*
X145562307Y-97551000D01*
X145575050Y-97680383D01*
X145612790Y-97804793D01*
X145674075Y-97919450D01*
X145756552Y-98019948D01*
X145857050Y-98102425D01*
X145971707Y-98163710D01*
X146096117Y-98201450D01*
X146193081Y-98211000D01*
X146225500Y-98214193D01*
X146257919Y-98211000D01*
X160193081Y-98211000D01*
X160225500Y-98214193D01*
X160257919Y-98211000D01*
X160354883Y-98201450D01*
X160479293Y-98163710D01*
X160593950Y-98102425D01*
X160694448Y-98019948D01*
X160776925Y-97919450D01*
X160838210Y-97804793D01*
X160875950Y-97680383D01*
X160888693Y-97551000D01*
X160885500Y-97518581D01*
X160885500Y-83583419D01*
X160888693Y-83551000D01*
X164612307Y-83551000D01*
X164615500Y-83583419D01*
X164615501Y-97518571D01*
X164612307Y-97551000D01*
X164625050Y-97680383D01*
X164662790Y-97804793D01*
X164724075Y-97919450D01*
X164806552Y-98019948D01*
X164907050Y-98102425D01*
X165021707Y-98163710D01*
X165146117Y-98201450D01*
X165243081Y-98211000D01*
X165275500Y-98214193D01*
X165307919Y-98211000D01*
X179243081Y-98211000D01*
X179275500Y-98214193D01*
X179307919Y-98211000D01*
X179404883Y-98201450D01*
X179529293Y-98163710D01*
X179643950Y-98102425D01*
X179744448Y-98019948D01*
X179826925Y-97919450D01*
X179888210Y-97804793D01*
X179925950Y-97680383D01*
X179938693Y-97551000D01*
X179935500Y-97518581D01*
X179935500Y-84645500D01*
X182462307Y-84645500D01*
X182465500Y-84677918D01*
X182465499Y-91643591D01*
X182462307Y-91676000D01*
X182465499Y-91708412D01*
X182465499Y-91708418D01*
X182475049Y-91805382D01*
X182512789Y-91929792D01*
X182574074Y-92044449D01*
X182656551Y-92144948D01*
X182757049Y-92227425D01*
X182871706Y-92288710D01*
X182996116Y-92326450D01*
X183125499Y-92339193D01*
X183157927Y-92335999D01*
X183665500Y-92336000D01*
X183665501Y-107816001D01*
X183157912Y-107816000D01*
X183125499Y-107812808D01*
X183093090Y-107816000D01*
X183093081Y-107816000D01*
X182996117Y-107825550D01*
X182871707Y-107863290D01*
X182757050Y-107924575D01*
X182757048Y-107924576D01*
X182757049Y-107924576D01*
X182656551Y-108007053D01*
X182574074Y-108107551D01*
X182512789Y-108222208D01*
X182475049Y-108346618D01*
X182465499Y-108443582D01*
X182465499Y-108443591D01*
X182462307Y-108476000D01*
X182465499Y-108508412D01*
X182465501Y-115474071D01*
X182462307Y-115506500D01*
X182475050Y-115635883D01*
X182512790Y-115760293D01*
X182574075Y-115874950D01*
X182656552Y-115975448D01*
X182757050Y-116057925D01*
X182871707Y-116119210D01*
X182996117Y-116156950D01*
X183093081Y-116166500D01*
X183093088Y-116166500D01*
X183125500Y-116169692D01*
X183157909Y-116166500D01*
X183665501Y-116166500D01*
X183665501Y-116568571D01*
X183662307Y-116601000D01*
X183675050Y-116730383D01*
X183712790Y-116854793D01*
X183774075Y-116969450D01*
X183856552Y-117069948D01*
X183957050Y-117152425D01*
X184071707Y-117213710D01*
X184196117Y-117251450D01*
X184293081Y-117261000D01*
X184325500Y-117264193D01*
X184357919Y-117261000D01*
X198293081Y-117261000D01*
X198325500Y-117264193D01*
X198357919Y-117261000D01*
X198454883Y-117251450D01*
X198579293Y-117213710D01*
X198693950Y-117152425D01*
X198794448Y-117069948D01*
X198876925Y-116969450D01*
X198938210Y-116854793D01*
X198975950Y-116730383D01*
X198988693Y-116601000D01*
X198985500Y-116568581D01*
X198985500Y-83583419D01*
X198988693Y-83551000D01*
X198975950Y-83421617D01*
X198938210Y-83297207D01*
X198876925Y-83182550D01*
X198794448Y-83082052D01*
X198693950Y-82999575D01*
X198579293Y-82938290D01*
X198454883Y-82900550D01*
X198357919Y-82891000D01*
X198325500Y-82887807D01*
X198293081Y-82891000D01*
X184357919Y-82891000D01*
X184325500Y-82887807D01*
X184293081Y-82891000D01*
X184196117Y-82900550D01*
X184071707Y-82938290D01*
X183957050Y-82999575D01*
X183856552Y-83082052D01*
X183774075Y-83182550D01*
X183712790Y-83297207D01*
X183675050Y-83421617D01*
X183662307Y-83551000D01*
X183665500Y-83583420D01*
X183665500Y-83985500D01*
X183157927Y-83985501D01*
X183125499Y-83982307D01*
X182996117Y-83995050D01*
X182871707Y-84032790D01*
X182757050Y-84094075D01*
X182757048Y-84094076D01*
X182757049Y-84094076D01*
X182656551Y-84176553D01*
X182574074Y-84277051D01*
X182512789Y-84391708D01*
X182475049Y-84516118D01*
X182462307Y-84645500D01*
X179935500Y-84645500D01*
X179935500Y-83583419D01*
X179938693Y-83551000D01*
X179925950Y-83421617D01*
X179888210Y-83297207D01*
X179826925Y-83182550D01*
X179744448Y-83082052D01*
X179643950Y-82999575D01*
X179529293Y-82938290D01*
X179404883Y-82900550D01*
X179307919Y-82891000D01*
X179275500Y-82887807D01*
X179243081Y-82891000D01*
X165307919Y-82891000D01*
X165275500Y-82887807D01*
X165243081Y-82891000D01*
X165146117Y-82900550D01*
X165021707Y-82938290D01*
X164907050Y-82999575D01*
X164806552Y-83082052D01*
X164724075Y-83182550D01*
X164662790Y-83297207D01*
X164625050Y-83421617D01*
X164612307Y-83551000D01*
X160888693Y-83551000D01*
X160875950Y-83421617D01*
X160838210Y-83297207D01*
X160776925Y-83182550D01*
X160694448Y-83082052D01*
X160593950Y-82999575D01*
X160479293Y-82938290D01*
X160354883Y-82900550D01*
X160257919Y-82891000D01*
X160225500Y-82887807D01*
X160193081Y-82891000D01*
X146257919Y-82891000D01*
X146225500Y-82887807D01*
X146193081Y-82891000D01*
X146096117Y-82900550D01*
X145971707Y-82938290D01*
X145857050Y-82999575D01*
X145756552Y-83082052D01*
X145674075Y-83182550D01*
X145612790Y-83297207D01*
X145575050Y-83421617D01*
X145562307Y-83551000D01*
X141838693Y-83551000D01*
X141825950Y-83421617D01*
X141788210Y-83297207D01*
X141726925Y-83182550D01*
X141644448Y-83082052D01*
X141543950Y-82999575D01*
X141429293Y-82938290D01*
X141304883Y-82900550D01*
X141207919Y-82891000D01*
X141175500Y-82887807D01*
X141143081Y-82891000D01*
X127207919Y-82891000D01*
X127175500Y-82887807D01*
X127143081Y-82891000D01*
X127046117Y-82900550D01*
X126921707Y-82938290D01*
X126807050Y-82999575D01*
X126706552Y-83082052D01*
X126624075Y-83182550D01*
X126562790Y-83297207D01*
X126525050Y-83421617D01*
X126512307Y-83551000D01*
X118026193Y-83551000D01*
X118013450Y-83421617D01*
X117975710Y-83297207D01*
X117914425Y-83182550D01*
X117831948Y-83082052D01*
X117731450Y-82999575D01*
X117616793Y-82938290D01*
X117492383Y-82900550D01*
X117395419Y-82891000D01*
X117363000Y-82887807D01*
X117330581Y-82891000D01*
X103395419Y-82891000D01*
X103363000Y-82887807D01*
X103330581Y-82891000D01*
X103233617Y-82900550D01*
X103109207Y-82938290D01*
X102994550Y-82999575D01*
X102894052Y-83082052D01*
X102811575Y-83182550D01*
X102750290Y-83297207D01*
X102712550Y-83421617D01*
X102699807Y-83551000D01*
X98976193Y-83551000D01*
X98963450Y-83421617D01*
X98925710Y-83297207D01*
X98864425Y-83182550D01*
X98781948Y-83082052D01*
X98681450Y-82999575D01*
X98566793Y-82938290D01*
X98442383Y-82900550D01*
X98345419Y-82891000D01*
X98313000Y-82887807D01*
X98280581Y-82891000D01*
X84345419Y-82891000D01*
X84313000Y-82887807D01*
X84280581Y-82891000D01*
X84183617Y-82900550D01*
X84059207Y-82938290D01*
X83944550Y-82999575D01*
X83844052Y-83082052D01*
X83761575Y-83182550D01*
X83700290Y-83297207D01*
X83662550Y-83421617D01*
X83649807Y-83551000D01*
X79926193Y-83551000D01*
X79913450Y-83421617D01*
X79875710Y-83297207D01*
X79814425Y-83182550D01*
X79731948Y-83082052D01*
X79631450Y-82999575D01*
X79516793Y-82938290D01*
X79392383Y-82900550D01*
X79295419Y-82891000D01*
X79263000Y-82887807D01*
X79230581Y-82891000D01*
X65295419Y-82891000D01*
X65263000Y-82887807D01*
X65230581Y-82891000D01*
X65133617Y-82900550D01*
X65009207Y-82938290D01*
X64894550Y-82999575D01*
X64794052Y-83082052D01*
X64711575Y-83182550D01*
X64650290Y-83297207D01*
X64612550Y-83421617D01*
X64599807Y-83551000D01*
X61649920Y-83551000D01*
X61926774Y-83403018D01*
X62166920Y-83015775D01*
X60356750Y-81205605D01*
X60342608Y-81219748D01*
X60163003Y-81040143D01*
X60177145Y-81026000D01*
X60536355Y-81026000D01*
X62346525Y-82836170D01*
X62733768Y-82596024D01*
X62994391Y-82102123D01*
X63153651Y-81566867D01*
X63202602Y-81041174D01*
X200383072Y-81041174D01*
X200440769Y-81596632D01*
X200605722Y-82130161D01*
X200854732Y-82596024D01*
X201241975Y-82836170D01*
X203052145Y-81026000D01*
X201241975Y-79215830D01*
X200854732Y-79455976D01*
X200594109Y-79949877D01*
X200434849Y-80485133D01*
X200383072Y-81041174D01*
X63202602Y-81041174D01*
X63205428Y-81010826D01*
X63147731Y-80455368D01*
X62982778Y-79921839D01*
X62733768Y-79455976D01*
X62346525Y-79215830D01*
X60536355Y-81026000D01*
X60177145Y-81026000D01*
X60163003Y-81011858D01*
X60342608Y-80832253D01*
X60356750Y-80846395D01*
X62166920Y-79036225D01*
X61926774Y-78648982D01*
X61432873Y-78388359D01*
X60897617Y-78229099D01*
X60341576Y-78177322D01*
X59786118Y-78235019D01*
X59252589Y-78399972D01*
X58786726Y-78648982D01*
X58546581Y-79036223D01*
X58476750Y-78966392D01*
X58476750Y-64501000D01*
X64599807Y-64501000D01*
X64603000Y-64533419D01*
X64603001Y-78468571D01*
X64599807Y-78501000D01*
X64612550Y-78630383D01*
X64650290Y-78754793D01*
X64711575Y-78869450D01*
X64794052Y-78969948D01*
X64894550Y-79052425D01*
X65009207Y-79113710D01*
X65133617Y-79151450D01*
X65230581Y-79161000D01*
X65263000Y-79164193D01*
X65295419Y-79161000D01*
X79230581Y-79161000D01*
X79263000Y-79164193D01*
X79295419Y-79161000D01*
X79392383Y-79151450D01*
X79516793Y-79113710D01*
X79631450Y-79052425D01*
X79731948Y-78969948D01*
X79814425Y-78869450D01*
X79875710Y-78754793D01*
X79913450Y-78630383D01*
X79926193Y-78501000D01*
X79923000Y-78468581D01*
X79923000Y-64533419D01*
X79926193Y-64501000D01*
X83649807Y-64501000D01*
X83653000Y-64533419D01*
X83653001Y-78468571D01*
X83649807Y-78501000D01*
X83662550Y-78630383D01*
X83700290Y-78754793D01*
X83761575Y-78869450D01*
X83844052Y-78969948D01*
X83944550Y-79052425D01*
X84059207Y-79113710D01*
X84183617Y-79151450D01*
X84280581Y-79161000D01*
X84313000Y-79164193D01*
X84345419Y-79161000D01*
X98280581Y-79161000D01*
X98313000Y-79164193D01*
X98345419Y-79161000D01*
X98442383Y-79151450D01*
X98566793Y-79113710D01*
X98681450Y-79052425D01*
X98781948Y-78969948D01*
X98864425Y-78869450D01*
X98925710Y-78754793D01*
X98963450Y-78630383D01*
X98976193Y-78501000D01*
X98973000Y-78468581D01*
X98973000Y-64533419D01*
X98976193Y-64501000D01*
X102699807Y-64501000D01*
X102703000Y-64533419D01*
X102703001Y-78468571D01*
X102699807Y-78501000D01*
X102712550Y-78630383D01*
X102750290Y-78754793D01*
X102811575Y-78869450D01*
X102894052Y-78969948D01*
X102994550Y-79052425D01*
X103109207Y-79113710D01*
X103233617Y-79151450D01*
X103330581Y-79161000D01*
X103363000Y-79164193D01*
X103395419Y-79161000D01*
X117330581Y-79161000D01*
X117363000Y-79164193D01*
X117395419Y-79161000D01*
X117492383Y-79151450D01*
X117616793Y-79113710D01*
X117731450Y-79052425D01*
X117831948Y-78969948D01*
X117914425Y-78869450D01*
X117975710Y-78754793D01*
X118013450Y-78630383D01*
X118026193Y-78501000D01*
X118023000Y-78468581D01*
X118023000Y-64533419D01*
X118026193Y-64501000D01*
X118013450Y-64371617D01*
X117975710Y-64247207D01*
X117914425Y-64132550D01*
X117831948Y-64032052D01*
X117751190Y-63965775D01*
X120459080Y-63965775D01*
X120699226Y-64353018D01*
X121193127Y-64613641D01*
X121728383Y-64772901D01*
X122284424Y-64824678D01*
X122839882Y-64766981D01*
X123373411Y-64602028D01*
X123562420Y-64501000D01*
X126512307Y-64501000D01*
X126515500Y-64533419D01*
X126515501Y-78468571D01*
X126512307Y-78501000D01*
X126525050Y-78630383D01*
X126562790Y-78754793D01*
X126624075Y-78869450D01*
X126706552Y-78969948D01*
X126807050Y-79052425D01*
X126921707Y-79113710D01*
X127046117Y-79151450D01*
X127143081Y-79161000D01*
X127175500Y-79164193D01*
X127207919Y-79161000D01*
X141143081Y-79161000D01*
X141175500Y-79164193D01*
X141207919Y-79161000D01*
X141304883Y-79151450D01*
X141429293Y-79113710D01*
X141543950Y-79052425D01*
X141644448Y-78969948D01*
X141726925Y-78869450D01*
X141788210Y-78754793D01*
X141825950Y-78630383D01*
X141838693Y-78501000D01*
X141835500Y-78468581D01*
X141835500Y-64533419D01*
X141838693Y-64501000D01*
X145562307Y-64501000D01*
X145565500Y-64533419D01*
X145565501Y-78468571D01*
X145562307Y-78501000D01*
X145575050Y-78630383D01*
X145612790Y-78754793D01*
X145674075Y-78869450D01*
X145756552Y-78969948D01*
X145857050Y-79052425D01*
X145971707Y-79113710D01*
X146096117Y-79151450D01*
X146193081Y-79161000D01*
X146225500Y-79164193D01*
X146257919Y-79161000D01*
X160193081Y-79161000D01*
X160225500Y-79164193D01*
X160257919Y-79161000D01*
X160354883Y-79151450D01*
X160479293Y-79113710D01*
X160593950Y-79052425D01*
X160694448Y-78969948D01*
X160776925Y-78869450D01*
X160838210Y-78754793D01*
X160875950Y-78630383D01*
X160888693Y-78501000D01*
X160885500Y-78468581D01*
X160885500Y-64533419D01*
X160888693Y-64501000D01*
X164612307Y-64501000D01*
X164615500Y-64533419D01*
X164615501Y-78468571D01*
X164612307Y-78501000D01*
X164625050Y-78630383D01*
X164662790Y-78754793D01*
X164724075Y-78869450D01*
X164806552Y-78969948D01*
X164907050Y-79052425D01*
X165021707Y-79113710D01*
X165146117Y-79151450D01*
X165243081Y-79161000D01*
X165275500Y-79164193D01*
X165307919Y-79161000D01*
X179243081Y-79161000D01*
X179275500Y-79164193D01*
X179307919Y-79161000D01*
X179404883Y-79151450D01*
X179529293Y-79113710D01*
X179643950Y-79052425D01*
X179744448Y-78969948D01*
X179826925Y-78869450D01*
X179888210Y-78754793D01*
X179925950Y-78630383D01*
X179938693Y-78501000D01*
X179935500Y-78468581D01*
X179935500Y-64533419D01*
X179938693Y-64501000D01*
X183662307Y-64501000D01*
X183665500Y-64533419D01*
X183665501Y-78468571D01*
X183662307Y-78501000D01*
X183675050Y-78630383D01*
X183712790Y-78754793D01*
X183774075Y-78869450D01*
X183856552Y-78969948D01*
X183957050Y-79052425D01*
X184071707Y-79113710D01*
X184196117Y-79151450D01*
X184293081Y-79161000D01*
X184325500Y-79164193D01*
X184357919Y-79161000D01*
X198293081Y-79161000D01*
X198325500Y-79164193D01*
X198357919Y-79161000D01*
X198454883Y-79151450D01*
X198579293Y-79113710D01*
X198693950Y-79052425D01*
X198794448Y-78969948D01*
X198876925Y-78869450D01*
X198938210Y-78754793D01*
X198975950Y-78630383D01*
X198988693Y-78501000D01*
X198985500Y-78468581D01*
X198985500Y-64533419D01*
X198988693Y-64501000D01*
X198975950Y-64371617D01*
X198938210Y-64247207D01*
X198876925Y-64132550D01*
X198794448Y-64032052D01*
X198693950Y-63949575D01*
X198579293Y-63888290D01*
X198454883Y-63850550D01*
X198357919Y-63841000D01*
X198325500Y-63837807D01*
X198293081Y-63841000D01*
X184357919Y-63841000D01*
X184325500Y-63837807D01*
X184293081Y-63841000D01*
X184196117Y-63850550D01*
X184071707Y-63888290D01*
X183957050Y-63949575D01*
X183856552Y-64032052D01*
X183774075Y-64132550D01*
X183712790Y-64247207D01*
X183675050Y-64371617D01*
X183662307Y-64501000D01*
X179938693Y-64501000D01*
X179925950Y-64371617D01*
X179888210Y-64247207D01*
X179826925Y-64132550D01*
X179744448Y-64032052D01*
X179643950Y-63949575D01*
X179529293Y-63888290D01*
X179404883Y-63850550D01*
X179307919Y-63841000D01*
X179275500Y-63837807D01*
X179243081Y-63841000D01*
X165307919Y-63841000D01*
X165275500Y-63837807D01*
X165243081Y-63841000D01*
X165146117Y-63850550D01*
X165021707Y-63888290D01*
X164907050Y-63949575D01*
X164806552Y-64032052D01*
X164724075Y-64132550D01*
X164662790Y-64247207D01*
X164625050Y-64371617D01*
X164612307Y-64501000D01*
X160888693Y-64501000D01*
X160875950Y-64371617D01*
X160838210Y-64247207D01*
X160776925Y-64132550D01*
X160694448Y-64032052D01*
X160593950Y-63949575D01*
X160479293Y-63888290D01*
X160354883Y-63850550D01*
X160257919Y-63841000D01*
X160225500Y-63837807D01*
X160193081Y-63841000D01*
X146257919Y-63841000D01*
X146225500Y-63837807D01*
X146193081Y-63841000D01*
X146096117Y-63850550D01*
X145971707Y-63888290D01*
X145857050Y-63949575D01*
X145756552Y-64032052D01*
X145674075Y-64132550D01*
X145612790Y-64247207D01*
X145575050Y-64371617D01*
X145562307Y-64501000D01*
X141838693Y-64501000D01*
X141825950Y-64371617D01*
X141788210Y-64247207D01*
X141726925Y-64132550D01*
X141644448Y-64032052D01*
X141543950Y-63949575D01*
X141429293Y-63888290D01*
X141304883Y-63850550D01*
X141207919Y-63841000D01*
X141175500Y-63837807D01*
X141143081Y-63841000D01*
X127207919Y-63841000D01*
X127175500Y-63837807D01*
X127143081Y-63841000D01*
X127046117Y-63850550D01*
X126921707Y-63888290D01*
X126807050Y-63949575D01*
X126706552Y-64032052D01*
X126624075Y-64132550D01*
X126562790Y-64247207D01*
X126525050Y-64371617D01*
X126512307Y-64501000D01*
X123562420Y-64501000D01*
X123839274Y-64353018D01*
X124079420Y-63965775D01*
X122269250Y-62155605D01*
X120459080Y-63965775D01*
X117751190Y-63965775D01*
X117731450Y-63949575D01*
X117616793Y-63888290D01*
X117492383Y-63850550D01*
X117395419Y-63841000D01*
X117363000Y-63837807D01*
X117330581Y-63841000D01*
X103395419Y-63841000D01*
X103363000Y-63837807D01*
X103330581Y-63841000D01*
X103233617Y-63850550D01*
X103109207Y-63888290D01*
X102994550Y-63949575D01*
X102894052Y-64032052D01*
X102811575Y-64132550D01*
X102750290Y-64247207D01*
X102712550Y-64371617D01*
X102699807Y-64501000D01*
X98976193Y-64501000D01*
X98963450Y-64371617D01*
X98925710Y-64247207D01*
X98864425Y-64132550D01*
X98781948Y-64032052D01*
X98681450Y-63949575D01*
X98566793Y-63888290D01*
X98442383Y-63850550D01*
X98345419Y-63841000D01*
X98313000Y-63837807D01*
X98280581Y-63841000D01*
X84345419Y-63841000D01*
X84313000Y-63837807D01*
X84280581Y-63841000D01*
X84183617Y-63850550D01*
X84059207Y-63888290D01*
X83944550Y-63949575D01*
X83844052Y-64032052D01*
X83761575Y-64132550D01*
X83700290Y-64247207D01*
X83662550Y-64371617D01*
X83649807Y-64501000D01*
X79926193Y-64501000D01*
X79913450Y-64371617D01*
X79875710Y-64247207D01*
X79814425Y-64132550D01*
X79731948Y-64032052D01*
X79631450Y-63949575D01*
X79516793Y-63888290D01*
X79392383Y-63850550D01*
X79295419Y-63841000D01*
X79263000Y-63837807D01*
X79230581Y-63841000D01*
X65295419Y-63841000D01*
X65263000Y-63837807D01*
X65230581Y-63841000D01*
X65133617Y-63850550D01*
X65009207Y-63888290D01*
X64894550Y-63949575D01*
X64794052Y-64032052D01*
X64711575Y-64132550D01*
X64650290Y-64247207D01*
X64612550Y-64371617D01*
X64599807Y-64501000D01*
X58476750Y-64501000D01*
X58476750Y-61991174D01*
X119420572Y-61991174D01*
X119478269Y-62546632D01*
X119643222Y-63080161D01*
X119892232Y-63546024D01*
X120279475Y-63786170D01*
X122089645Y-61976000D01*
X122448855Y-61976000D01*
X124259025Y-63786170D01*
X124646268Y-63546024D01*
X124906891Y-63052123D01*
X125066151Y-62516867D01*
X125117928Y-61960826D01*
X125060231Y-61405368D01*
X124895278Y-60871839D01*
X124646268Y-60405976D01*
X124259025Y-60165830D01*
X122448855Y-61976000D01*
X122089645Y-61976000D01*
X120279475Y-60165830D01*
X119892232Y-60405976D01*
X119631609Y-60899877D01*
X119472349Y-61435133D01*
X119420572Y-61991174D01*
X58476750Y-61991174D01*
X58476750Y-59986225D01*
X120459080Y-59986225D01*
X122269250Y-61796395D01*
X124079420Y-59986225D01*
X123839274Y-59598982D01*
X123345373Y-59338359D01*
X122810117Y-59179099D01*
X122254076Y-59127322D01*
X121698618Y-59185019D01*
X121165089Y-59349972D01*
X120699226Y-59598982D01*
X120459080Y-59986225D01*
X58476750Y-59986225D01*
X58476750Y-57003694D01*
X108232807Y-57003694D01*
X108232807Y-57423306D01*
X108314669Y-57834854D01*
X108475248Y-58222525D01*
X108708371Y-58571419D01*
X109005081Y-58868129D01*
X109353975Y-59101252D01*
X109741646Y-59261831D01*
X110153194Y-59343693D01*
X110572806Y-59343693D01*
X110984354Y-59261831D01*
X111372025Y-59101252D01*
X111720919Y-58868129D01*
X112017629Y-58571419D01*
X112250752Y-58222525D01*
X112411331Y-57834854D01*
X112493193Y-57423306D01*
X112493193Y-57003694D01*
X112411331Y-56592146D01*
X112250752Y-56204475D01*
X112017629Y-55855581D01*
X111720919Y-55558871D01*
X111372025Y-55325748D01*
X110984354Y-55165169D01*
X110572806Y-55083307D01*
X110153194Y-55083307D01*
X109741646Y-55165169D01*
X109353975Y-55325748D01*
X109005081Y-55558871D01*
X108708371Y-55855581D01*
X108475248Y-56204475D01*
X108314669Y-56592146D01*
X108232807Y-57003694D01*
X58476750Y-57003694D01*
X58476750Y-35926000D01*
X64599807Y-35926000D01*
X64603000Y-35958419D01*
X64603001Y-49893571D01*
X64599807Y-49926000D01*
X64612550Y-50055383D01*
X64650290Y-50179793D01*
X64711575Y-50294450D01*
X64794052Y-50394948D01*
X64894550Y-50477425D01*
X65009207Y-50538710D01*
X65133617Y-50576450D01*
X65230581Y-50586000D01*
X65263000Y-50589193D01*
X65295419Y-50586000D01*
X79230581Y-50586000D01*
X79263000Y-50589193D01*
X79295419Y-50586000D01*
X79392383Y-50576450D01*
X79516793Y-50538710D01*
X79631450Y-50477425D01*
X79731948Y-50394948D01*
X79814425Y-50294450D01*
X79875710Y-50179793D01*
X79913450Y-50055383D01*
X79926193Y-49926000D01*
X79923000Y-49893581D01*
X79923000Y-35958419D01*
X79926193Y-35926000D01*
X83649807Y-35926000D01*
X83653000Y-35958419D01*
X83653001Y-49893571D01*
X83649807Y-49926000D01*
X83662550Y-50055383D01*
X83700290Y-50179793D01*
X83761575Y-50294450D01*
X83844052Y-50394948D01*
X83944550Y-50477425D01*
X84059207Y-50538710D01*
X84183617Y-50576450D01*
X84280581Y-50586000D01*
X84313000Y-50589193D01*
X84345419Y-50586000D01*
X98280581Y-50586000D01*
X98313000Y-50589193D01*
X98345419Y-50586000D01*
X98442383Y-50576450D01*
X98566793Y-50538710D01*
X98681450Y-50477425D01*
X98781948Y-50394948D01*
X98864425Y-50294450D01*
X98925710Y-50179793D01*
X98963450Y-50055383D01*
X98976193Y-49926000D01*
X98973000Y-49893581D01*
X98973000Y-35958419D01*
X98976193Y-35926000D01*
X102699807Y-35926000D01*
X102703000Y-35958419D01*
X102703001Y-49893571D01*
X102699807Y-49926000D01*
X102712550Y-50055383D01*
X102750290Y-50179793D01*
X102811575Y-50294450D01*
X102894052Y-50394948D01*
X102994550Y-50477425D01*
X103109207Y-50538710D01*
X103233617Y-50576450D01*
X103330581Y-50586000D01*
X103363000Y-50589193D01*
X103395419Y-50586000D01*
X117330581Y-50586000D01*
X117363000Y-50589193D01*
X117395419Y-50586000D01*
X117492383Y-50576450D01*
X117616793Y-50538710D01*
X117731450Y-50477425D01*
X117831948Y-50394948D01*
X117914425Y-50294450D01*
X117975710Y-50179793D01*
X118013450Y-50055383D01*
X118026193Y-49926000D01*
X118023000Y-49893581D01*
X118023000Y-35958419D01*
X118026193Y-35926000D01*
X118013450Y-35796617D01*
X117975710Y-35672207D01*
X117914425Y-35557550D01*
X117831948Y-35457052D01*
X117731450Y-35374575D01*
X117616793Y-35313290D01*
X117492383Y-35275550D01*
X117395419Y-35266000D01*
X117363000Y-35262807D01*
X117330581Y-35266000D01*
X103395419Y-35266000D01*
X103363000Y-35262807D01*
X103330581Y-35266000D01*
X103233617Y-35275550D01*
X103109207Y-35313290D01*
X102994550Y-35374575D01*
X102894052Y-35457052D01*
X102811575Y-35557550D01*
X102750290Y-35672207D01*
X102712550Y-35796617D01*
X102699807Y-35926000D01*
X98976193Y-35926000D01*
X98963450Y-35796617D01*
X98925710Y-35672207D01*
X98864425Y-35557550D01*
X98781948Y-35457052D01*
X98681450Y-35374575D01*
X98566793Y-35313290D01*
X98442383Y-35275550D01*
X98345419Y-35266000D01*
X98313000Y-35262807D01*
X98280581Y-35266000D01*
X84345419Y-35266000D01*
X84313000Y-35262807D01*
X84280581Y-35266000D01*
X84183617Y-35275550D01*
X84059207Y-35313290D01*
X83944550Y-35374575D01*
X83844052Y-35457052D01*
X83761575Y-35557550D01*
X83700290Y-35672207D01*
X83662550Y-35796617D01*
X83649807Y-35926000D01*
X79926193Y-35926000D01*
X79913450Y-35796617D01*
X79875710Y-35672207D01*
X79814425Y-35557550D01*
X79731948Y-35457052D01*
X79631450Y-35374575D01*
X79516793Y-35313290D01*
X79392383Y-35275550D01*
X79295419Y-35266000D01*
X79263000Y-35262807D01*
X79230581Y-35266000D01*
X65295419Y-35266000D01*
X65263000Y-35262807D01*
X65230581Y-35266000D01*
X65133617Y-35275550D01*
X65009207Y-35313290D01*
X64894550Y-35374575D01*
X64794052Y-35457052D01*
X64711575Y-35557550D01*
X64650290Y-35672207D01*
X64612550Y-35796617D01*
X64599807Y-35926000D01*
X58476750Y-35926000D01*
X58476750Y-33015858D01*
X58514831Y-32977777D01*
X58754976Y-33365018D01*
X59248877Y-33625641D01*
X59784133Y-33784901D01*
X60340174Y-33836678D01*
X60895632Y-33778981D01*
X61429161Y-33614028D01*
X61895024Y-33365018D01*
X62135170Y-32977775D01*
X60325000Y-31167605D01*
X60310858Y-31181748D01*
X60131253Y-31002143D01*
X60145395Y-30988000D01*
X60131253Y-30973858D01*
X60310858Y-30794253D01*
X60325000Y-30808395D01*
X60339143Y-30794253D01*
X60518748Y-30973858D01*
X60504605Y-30988000D01*
X62314775Y-32798170D01*
X62702018Y-32558024D01*
X62962641Y-32064123D01*
X63121901Y-31528867D01*
X63173678Y-30972826D01*
X63115981Y-30417368D01*
X62951028Y-29883839D01*
X62702018Y-29417976D01*
X62314777Y-29177831D01*
X62352858Y-29139750D01*
X115478892Y-29139750D01*
X115516973Y-29177831D01*
G37*
X115516973Y-29177831D02*
X115129732Y-29417976D01*
X114869109Y-29911877D01*
X114709849Y-30447133D01*
X114658072Y-31003174D01*
X114715769Y-31558632D01*
X114880722Y-32092161D01*
X115129732Y-32558024D01*
X115516975Y-32798170D01*
X117327145Y-30988000D01*
X117313003Y-30973858D01*
X117492608Y-30794253D01*
X117506750Y-30808395D01*
X117520893Y-30794253D01*
X117700498Y-30973858D01*
X117686355Y-30988000D01*
X117700498Y-31002143D01*
X117520893Y-31181748D01*
X117506750Y-31167605D01*
X115696580Y-32977775D01*
X115936726Y-33365018D01*
X116430627Y-33625641D01*
X116965883Y-33784901D01*
X117521924Y-33836678D01*
X118077382Y-33778981D01*
X118610911Y-33614028D01*
X119076774Y-33365018D01*
X119316919Y-32977777D01*
X119386750Y-33047608D01*
X119386751Y-45244419D01*
X119389552Y-45272855D01*
X119389497Y-45280682D01*
X119390396Y-45289853D01*
X119416304Y-45536357D01*
X119428339Y-45594986D01*
X119439542Y-45653716D01*
X119442206Y-45662538D01*
X119515501Y-45899314D01*
X119538681Y-45954457D01*
X119561089Y-46009920D01*
X119565415Y-46018054D01*
X119565417Y-46018059D01*
X119565420Y-46018064D01*
X119683303Y-46236086D01*
X119716738Y-46285654D01*
X119749509Y-46335735D01*
X119755334Y-46342876D01*
X119913327Y-46533856D01*
X119955762Y-46575995D01*
X119997625Y-46618745D01*
X120004726Y-46624618D01*
X120196803Y-46781273D01*
X120246625Y-46814374D01*
X120295987Y-46848173D01*
X120304093Y-46852556D01*
X120522941Y-46968919D01*
X120578229Y-46991707D01*
X120633225Y-47015279D01*
X120642028Y-47018003D01*
X120879309Y-47089643D01*
X120937996Y-47101264D01*
X120996502Y-47113700D01*
X121005665Y-47114663D01*
X121005667Y-47114663D01*
X121252345Y-47138850D01*
X121252358Y-47138850D01*
X121284331Y-47141999D01*
X129445419Y-47142001D01*
X129473865Y-47139199D01*
X129481686Y-47139254D01*
X129490857Y-47138354D01*
X129737360Y-47112445D01*
X129795949Y-47100418D01*
X129854714Y-47089209D01*
X129863536Y-47086545D01*
X130100313Y-47013251D01*
X130155451Y-46990073D01*
X130210923Y-46967661D01*
X130219054Y-46963337D01*
X130219058Y-46963335D01*
X130219061Y-46963333D01*
X130437090Y-46845445D01*
X130486656Y-46812011D01*
X130536734Y-46779242D01*
X130543875Y-46773417D01*
X130734856Y-46615425D01*
X130776997Y-46572988D01*
X130819747Y-46531125D01*
X130825620Y-46524024D01*
X130982275Y-46331945D01*
X131015364Y-46282141D01*
X131049174Y-46232763D01*
X131053557Y-46224657D01*
X131169920Y-46005809D01*
X131192724Y-45950483D01*
X131216280Y-45895522D01*
X131219005Y-45886719D01*
X131290644Y-45649438D01*
X131302263Y-45590758D01*
X131314700Y-45532248D01*
X131315663Y-45523083D01*
X131339850Y-45276405D01*
X131339850Y-45276402D01*
X131343000Y-45244419D01*
X131343000Y-39624000D01*
X146275807Y-39624000D01*
X146279001Y-39656429D01*
X146279000Y-56101581D01*
X146275807Y-56134000D01*
X146288550Y-56263383D01*
X146326290Y-56387793D01*
X146387575Y-56502450D01*
X146391738Y-56507522D01*
X146470052Y-56602948D01*
X146570550Y-56685425D01*
X146685207Y-56746710D01*
X146809617Y-56784450D01*
X146939000Y-56797193D01*
X146971419Y-56794000D01*
X159479581Y-56794000D01*
X159512000Y-56797193D01*
X159544419Y-56794000D01*
X159641383Y-56784450D01*
X159765793Y-56746710D01*
X159880450Y-56685425D01*
X159980948Y-56602948D01*
X160063425Y-56502450D01*
X160124710Y-56387793D01*
X160162450Y-56263383D01*
X160175193Y-56134000D01*
X160172000Y-56101581D01*
X160172000Y-39656419D01*
X160175193Y-39624000D01*
X184375807Y-39624000D01*
X184379001Y-39656429D01*
X184379000Y-56101581D01*
X184375807Y-56134000D01*
X184388550Y-56263383D01*
X184426290Y-56387793D01*
X184487575Y-56502450D01*
X184491738Y-56507522D01*
X184570052Y-56602948D01*
X184670550Y-56685425D01*
X184785207Y-56746710D01*
X184909617Y-56784450D01*
X185039000Y-56797193D01*
X185071419Y-56794000D01*
X197579581Y-56794000D01*
X197612000Y-56797193D01*
X197644419Y-56794000D01*
X197741383Y-56784450D01*
X197865793Y-56746710D01*
X197980450Y-56685425D01*
X198080948Y-56602948D01*
X198163425Y-56502450D01*
X198224710Y-56387793D01*
X198262450Y-56263383D01*
X198275193Y-56134000D01*
X198272000Y-56101581D01*
X198272000Y-39656419D01*
X198275193Y-39624000D01*
X198262450Y-39494617D01*
X198224710Y-39370207D01*
X198163425Y-39255550D01*
X198080948Y-39155052D01*
X197980450Y-39072575D01*
X197865793Y-39011290D01*
X197741383Y-38973550D01*
X197644419Y-38964000D01*
X197612000Y-38960807D01*
X197579581Y-38964000D01*
X194384963Y-38964000D01*
X194353806Y-38967069D01*
X194352772Y-38966378D01*
X194165561Y-38888833D01*
X193966818Y-38849300D01*
X193764182Y-38849300D01*
X193565439Y-38888833D01*
X193378228Y-38966378D01*
X193230500Y-39065087D01*
X193082772Y-38966378D01*
X192895561Y-38888833D01*
X192696818Y-38849300D01*
X192494182Y-38849300D01*
X192295439Y-38888833D01*
X192108228Y-38966378D01*
X191960500Y-39065087D01*
X191812772Y-38966378D01*
X191625561Y-38888833D01*
X191426818Y-38849300D01*
X191224182Y-38849300D01*
X191025439Y-38888833D01*
X190838228Y-38966378D01*
X190690500Y-39065087D01*
X190542772Y-38966378D01*
X190355561Y-38888833D01*
X190156818Y-38849300D01*
X189954182Y-38849300D01*
X189755439Y-38888833D01*
X189568228Y-38966378D01*
X189420500Y-39065087D01*
X189272772Y-38966378D01*
X189085561Y-38888833D01*
X188886818Y-38849300D01*
X188684182Y-38849300D01*
X188485439Y-38888833D01*
X188298228Y-38966378D01*
X188296601Y-38967465D01*
X188261418Y-38964000D01*
X185071419Y-38964000D01*
X185039000Y-38960807D01*
X185006581Y-38964000D01*
X184909617Y-38973550D01*
X184785207Y-39011290D01*
X184670550Y-39072575D01*
X184570052Y-39155052D01*
X184487575Y-39255550D01*
X184426290Y-39370207D01*
X184388550Y-39494617D01*
X184375807Y-39624000D01*
X160175193Y-39624000D01*
X160162450Y-39494617D01*
X160124710Y-39370207D01*
X160063425Y-39255550D01*
X159980948Y-39155052D01*
X159880450Y-39072575D01*
X159765793Y-39011290D01*
X159641383Y-38973550D01*
X159544419Y-38964000D01*
X159512000Y-38960807D01*
X159479581Y-38964000D01*
X156284963Y-38964000D01*
X156253806Y-38967069D01*
X156252772Y-38966378D01*
X156065561Y-38888833D01*
X155866818Y-38849300D01*
X155664182Y-38849300D01*
X155465439Y-38888833D01*
X155278228Y-38966378D01*
X155130500Y-39065087D01*
X154982772Y-38966378D01*
X154795561Y-38888833D01*
X154596818Y-38849300D01*
X154394182Y-38849300D01*
X154195439Y-38888833D01*
X154008228Y-38966378D01*
X153860500Y-39065087D01*
X153712772Y-38966378D01*
X153525561Y-38888833D01*
X153326818Y-38849300D01*
X153124182Y-38849300D01*
X152925439Y-38888833D01*
X152738228Y-38966378D01*
X152590500Y-39065087D01*
X152442772Y-38966378D01*
X152255561Y-38888833D01*
X152056818Y-38849300D01*
X151854182Y-38849300D01*
X151655439Y-38888833D01*
X151468228Y-38966378D01*
X151320500Y-39065087D01*
X151172772Y-38966378D01*
X150985561Y-38888833D01*
X150786818Y-38849300D01*
X150584182Y-38849300D01*
X150385439Y-38888833D01*
X150198228Y-38966378D01*
X150196601Y-38967465D01*
X150161418Y-38964000D01*
X146971419Y-38964000D01*
X146939000Y-38960807D01*
X146906581Y-38964000D01*
X146809617Y-38973550D01*
X146685207Y-39011290D01*
X146570550Y-39072575D01*
X146470052Y-39155052D01*
X146387575Y-39255550D01*
X146326290Y-39370207D01*
X146288550Y-39494617D01*
X146275807Y-39624000D01*
X131343000Y-39624000D01*
X131343000Y-33079358D01*
X131412831Y-33009527D01*
X131652976Y-33396768D01*
X132146877Y-33657391D01*
X132682133Y-33816651D01*
X133238174Y-33868428D01*
X133793632Y-33810731D01*
X134327161Y-33645778D01*
X134793024Y-33396768D01*
X135033170Y-33009525D01*
X135001420Y-32977775D01*
X153796580Y-32977775D01*
X154036726Y-33365018D01*
X154530627Y-33625641D01*
X155065883Y-33784901D01*
X155621924Y-33836678D01*
X156177382Y-33778981D01*
X156710911Y-33614028D01*
X157176774Y-33365018D01*
X157416920Y-32977775D01*
X155606750Y-31167605D01*
X153796580Y-32977775D01*
X135001420Y-32977775D01*
X133223000Y-31199355D01*
X133208858Y-31213498D01*
X133029253Y-31033893D01*
X133043395Y-31019750D01*
X133029253Y-31005608D01*
X133208858Y-30826003D01*
X133223000Y-30840145D01*
X133237143Y-30826003D01*
X133416748Y-31005608D01*
X133402605Y-31019750D01*
X135212775Y-32829920D01*
X135600018Y-32589774D01*
X135860641Y-32095873D01*
X136019901Y-31560617D01*
X136071678Y-31004576D01*
X136013981Y-30449118D01*
X135849028Y-29915589D01*
X135600018Y-29449726D01*
X135212777Y-29209581D01*
X135282608Y-29139750D01*
X153578892Y-29139750D01*
X153616973Y-29177831D01*
X153229732Y-29417976D01*
X152969109Y-29911877D01*
X152809849Y-30447133D01*
X152758072Y-31003174D01*
X152815769Y-31558632D01*
X152980722Y-32092161D01*
X153229732Y-32558024D01*
X153616975Y-32798170D01*
X155427145Y-30988000D01*
X155413003Y-30973858D01*
X155592608Y-30794253D01*
X155606750Y-30808395D01*
X155620893Y-30794253D01*
X155800498Y-30973858D01*
X155786355Y-30988000D01*
X157596525Y-32798170D01*
X157983768Y-32558024D01*
X158244391Y-32064123D01*
X158403651Y-31528867D01*
X158455428Y-30972826D01*
X158397731Y-30417368D01*
X158232778Y-29883839D01*
X157983768Y-29417976D01*
X157596527Y-29177831D01*
X157634608Y-29139750D01*
X163448471Y-29139750D01*
X163845295Y-29178659D01*
X164195958Y-29284530D01*
X164519375Y-29456494D01*
X164803234Y-29688004D01*
X165036715Y-29970236D01*
X165210933Y-30292445D01*
X165319252Y-30642364D01*
X165360750Y-31037193D01*
X165360751Y-37370419D01*
X165363552Y-37398855D01*
X165363497Y-37406682D01*
X165364396Y-37415853D01*
X165390304Y-37662357D01*
X165402339Y-37720986D01*
X165413542Y-37779716D01*
X165416206Y-37788538D01*
X165489501Y-38025314D01*
X165512681Y-38080457D01*
X165535089Y-38135920D01*
X165539415Y-38144054D01*
X165539417Y-38144059D01*
X165539420Y-38144064D01*
X165657303Y-38362086D01*
X165690738Y-38411654D01*
X165723509Y-38461735D01*
X165729334Y-38468876D01*
X165887327Y-38659856D01*
X165929762Y-38701995D01*
X165971625Y-38744745D01*
X165978726Y-38750618D01*
X166170803Y-38907273D01*
X166220625Y-38940374D01*
X166269987Y-38974173D01*
X166278093Y-38978556D01*
X166496941Y-39094919D01*
X166552229Y-39117707D01*
X166607225Y-39141279D01*
X166616028Y-39144003D01*
X166853309Y-39215643D01*
X166911996Y-39227264D01*
X166970502Y-39239700D01*
X166979665Y-39240663D01*
X166979667Y-39240663D01*
X167226345Y-39264850D01*
X167226358Y-39264850D01*
X167258331Y-39267999D01*
X175419419Y-39268001D01*
X175447865Y-39265199D01*
X175455686Y-39265254D01*
X175464857Y-39264354D01*
X175711360Y-39238445D01*
X175769949Y-39226418D01*
X175828714Y-39215209D01*
X175837536Y-39212545D01*
X176074313Y-39139251D01*
X176129451Y-39116073D01*
X176184923Y-39093661D01*
X176193054Y-39089337D01*
X176193058Y-39089335D01*
X176193061Y-39089333D01*
X176411090Y-38971445D01*
X176460656Y-38938011D01*
X176510734Y-38905242D01*
X176517875Y-38899417D01*
X176708856Y-38741425D01*
X176750997Y-38698988D01*
X176793747Y-38657125D01*
X176799620Y-38650024D01*
X176956275Y-38457945D01*
X176989364Y-38408141D01*
X177023174Y-38358763D01*
X177027557Y-38350657D01*
X177143920Y-38131809D01*
X177166724Y-38076483D01*
X177190280Y-38021522D01*
X177193005Y-38012719D01*
X177264644Y-37775438D01*
X177276263Y-37716758D01*
X177288700Y-37658248D01*
X177289663Y-37649083D01*
X177313850Y-37402405D01*
X177313850Y-37402402D01*
X177317000Y-37370419D01*
X177317000Y-31052029D01*
X177355909Y-30655205D01*
X177461780Y-30304542D01*
X177633744Y-29981125D01*
X177865254Y-29697266D01*
X178147486Y-29463785D01*
X178469695Y-29289567D01*
X178819614Y-29181248D01*
X179214443Y-29139750D01*
X201172142Y-29139750D01*
X201241973Y-29209581D01*
X200854732Y-29449726D01*
X200594109Y-29943627D01*
X200434849Y-30478883D01*
X200383072Y-31034924D01*
X200440769Y-31590382D01*
X200605722Y-32123911D01*
X200854732Y-32589774D01*
X201241975Y-32829920D01*
X203052145Y-31019750D01*
X203038003Y-31005608D01*
X203217608Y-30826003D01*
X203231750Y-30840145D01*
X203245893Y-30826003D01*
X203425498Y-31005608D01*
X203411355Y-31019750D01*
X203425498Y-31033893D01*
X203245893Y-31213498D01*
X203231750Y-31199355D01*
X201421580Y-33009525D01*
X201661726Y-33396768D01*
X202155627Y-33657391D01*
X202690883Y-33816651D01*
X203246924Y-33868428D01*
X203802382Y-33810731D01*
X204335911Y-33645778D01*
X204801774Y-33396768D01*
X205041919Y-33009527D01*
X205111751Y-33079359D01*
X205111751Y-78966391D01*
X205041919Y-79036223D01*
X204801774Y-78648982D01*
X204307873Y-78388359D01*
X203772617Y-78229099D01*
X203216576Y-78177322D01*
X202661118Y-78235019D01*
X202127589Y-78399972D01*
X201661726Y-78648982D01*
X201421580Y-79036225D01*
X203231750Y-80846395D01*
X203245893Y-80832253D01*
X203425498Y-81011858D01*
X203411355Y-81026000D01*
X203425498Y-81040143D01*
X203245893Y-81219748D01*
X203231750Y-81205605D01*
X201421580Y-83015775D01*
X201661726Y-83403018D01*
X202155627Y-83663641D01*
X202690883Y-83822901D01*
X203246924Y-83874678D01*
X203802382Y-83816981D01*
X204335911Y-83652028D01*
X204801774Y-83403018D01*
X205041919Y-83015777D01*
X205111751Y-83085609D01*
X205111750Y-136116392D01*
X205041919Y-136186223D01*
X204801774Y-135798982D01*
X204307873Y-135538359D01*
X203772617Y-135379099D01*
X203216576Y-135327322D01*
X202661118Y-135385019D01*
X202127589Y-135549972D01*
X201661726Y-135798982D01*
X201421580Y-136186225D01*
X203231750Y-137996395D01*
X203245893Y-137982253D01*
X203425498Y-138161858D01*
X203411355Y-138176000D01*
X203425498Y-138190143D01*
X203245893Y-138369748D01*
X203231750Y-138355605D01*
X201421580Y-140165775D01*
X201661726Y-140553018D01*
X202155627Y-140813641D01*
X202690883Y-140972901D01*
X203246924Y-141024678D01*
X203802382Y-140966981D01*
X204335911Y-140802028D01*
X204801774Y-140553018D01*
X205041919Y-140165777D01*
X205111750Y-140235608D01*
X205111750Y-157547642D01*
X205041919Y-157617473D01*
X204801774Y-157230232D01*
X204307873Y-156969609D01*
X203772617Y-156810349D01*
X203216576Y-156758572D01*
X202661118Y-156816269D01*
X202127589Y-156981222D01*
X201661726Y-157230232D01*
X201421580Y-157617475D01*
X203231750Y-159427645D01*
X203245893Y-159413503D01*
X203425498Y-159593108D01*
X203411355Y-159607250D01*
X203425498Y-159621393D01*
X203245893Y-159800998D01*
X203231750Y-159786855D01*
X203217608Y-159800998D01*
X203038003Y-159621393D01*
X203052145Y-159607250D01*
X201241975Y-157797080D01*
X200854732Y-158037226D01*
X200594109Y-158531127D01*
X200434849Y-159066383D01*
X200383072Y-159622424D01*
X200440769Y-160177882D01*
X200605722Y-160711411D01*
X200854732Y-161177274D01*
X201241973Y-161417419D01*
X201172142Y-161487250D01*
X164810108Y-161487250D01*
X164740277Y-161417419D01*
X165127518Y-161177274D01*
X165388141Y-160683373D01*
X165547401Y-160148117D01*
X165599178Y-159592076D01*
X165541481Y-159036618D01*
X165376528Y-158503089D01*
X165127518Y-158037226D01*
X164740275Y-157797080D01*
X162930105Y-159607250D01*
X162944248Y-159621393D01*
X162764643Y-159800998D01*
X162750500Y-159786855D01*
X162736358Y-159800998D01*
X162556753Y-159621393D01*
X162570895Y-159607250D01*
X160760725Y-157797080D01*
X160373482Y-158037226D01*
X160112859Y-158531127D01*
X159953599Y-159066383D01*
X159901822Y-159622424D01*
X159959519Y-160177882D01*
X160124472Y-160711411D01*
X160373482Y-161177274D01*
X160760723Y-161417419D01*
X160690892Y-161487250D01*
X102897608Y-161487250D01*
X102827777Y-161417419D01*
X103215018Y-161177274D01*
X103475641Y-160683373D01*
X103634901Y-160148117D01*
X103686678Y-159592076D01*
X103628981Y-159036618D01*
X103464028Y-158503089D01*
X103215018Y-158037226D01*
X102827775Y-157797080D01*
X101017605Y-159607250D01*
X101031748Y-159621393D01*
X100852143Y-159800998D01*
X100838000Y-159786855D01*
X100823858Y-159800998D01*
X100644253Y-159621393D01*
X100658395Y-159607250D01*
X98848225Y-157797080D01*
X98460982Y-158037226D01*
X98200359Y-158531127D01*
X98041099Y-159066383D01*
X97989322Y-159622424D01*
X98047019Y-160177882D01*
X98211972Y-160711411D01*
X98460982Y-161177274D01*
X98848223Y-161417419D01*
X98778392Y-161487250D01*
X62416358Y-161487250D01*
X62346527Y-161417419D01*
X62733768Y-161177274D01*
X62994391Y-160683373D01*
X63153651Y-160148117D01*
X63205428Y-159592076D01*
X63147731Y-159036618D01*
X62982778Y-158503089D01*
X62733768Y-158037226D01*
X62346525Y-157797080D01*
X60536355Y-159607250D01*
X60550498Y-159621393D01*
X60370893Y-159800998D01*
X60356750Y-159786855D01*
X60342608Y-159800998D01*
X60163003Y-159621393D01*
X60177145Y-159607250D01*
X60163003Y-159593108D01*
X60342608Y-159413503D01*
X60356750Y-159427645D01*
X62166920Y-157617475D01*
X99027830Y-157617475D01*
X100838000Y-159427645D01*
X102648170Y-157617475D01*
X160940330Y-157617475D01*
X162750500Y-159427645D01*
X164560670Y-157617475D01*
X164320524Y-157230232D01*
X163826623Y-156969609D01*
X163291367Y-156810349D01*
X162735326Y-156758572D01*
X162179868Y-156816269D01*
X161646339Y-156981222D01*
X161180476Y-157230232D01*
X160940330Y-157617475D01*
X102648170Y-157617475D01*
X102408024Y-157230232D01*
X101914123Y-156969609D01*
X101378867Y-156810349D01*
X100822826Y-156758572D01*
X100267368Y-156816269D01*
X99733839Y-156981222D01*
X99267976Y-157230232D01*
X99027830Y-157617475D01*
X62166920Y-157617475D01*
X61926774Y-157230232D01*
X61432873Y-156969609D01*
X60897617Y-156810349D01*
X60341576Y-156758572D01*
X59786118Y-156816269D01*
X59252589Y-156981222D01*
X58786726Y-157230232D01*
X58546581Y-157617473D01*
X58476750Y-157547642D01*
X58476750Y-140235608D01*
X58546581Y-140165777D01*
X58786726Y-140553018D01*
X59280627Y-140813641D01*
X59815883Y-140972901D01*
X60371924Y-141024678D01*
X60927382Y-140966981D01*
X61460911Y-140802028D01*
X61649920Y-140701000D01*
X64599807Y-140701000D01*
X64603000Y-140733419D01*
X64603001Y-154668571D01*
X64599807Y-154701000D01*
X64612550Y-154830383D01*
X64650290Y-154954793D01*
X64711575Y-155069450D01*
X64794052Y-155169948D01*
X64894550Y-155252425D01*
X65009207Y-155313710D01*
X65133617Y-155351450D01*
X65230581Y-155361000D01*
X65263000Y-155364193D01*
X65295419Y-155361000D01*
X79230581Y-155361000D01*
X79263000Y-155364193D01*
X79295419Y-155361000D01*
X79392383Y-155351450D01*
X79516793Y-155313710D01*
X79631450Y-155252425D01*
X79731948Y-155169948D01*
X79814425Y-155069450D01*
X79875710Y-154954793D01*
X79913450Y-154830383D01*
X79926193Y-154701000D01*
X79923000Y-154668581D01*
X79923000Y-140733419D01*
X79926193Y-140701000D01*
X83649807Y-140701000D01*
X83653000Y-140733419D01*
X83653001Y-154668571D01*
X83649807Y-154701000D01*
X83662550Y-154830383D01*
X83700290Y-154954793D01*
X83761575Y-155069450D01*
X83844052Y-155169948D01*
X83944550Y-155252425D01*
X84059207Y-155313710D01*
X84183617Y-155351450D01*
X84280581Y-155361000D01*
X84313000Y-155364193D01*
X84345419Y-155361000D01*
X98280581Y-155361000D01*
X98313000Y-155364193D01*
X98345419Y-155361000D01*
X98442383Y-155351450D01*
X98566793Y-155313710D01*
X98681450Y-155252425D01*
X98781948Y-155169948D01*
X98864425Y-155069450D01*
X98925710Y-154954793D01*
X98963450Y-154830383D01*
X98976193Y-154701000D01*
X98973000Y-154668581D01*
X98973000Y-140733419D01*
X98976193Y-140701000D01*
X102699807Y-140701000D01*
X102703000Y-140733419D01*
X102703001Y-154668571D01*
X102699807Y-154701000D01*
X102712550Y-154830383D01*
X102750290Y-154954793D01*
X102811575Y-155069450D01*
X102894052Y-155169948D01*
X102994550Y-155252425D01*
X103109207Y-155313710D01*
X103233617Y-155351450D01*
X103330581Y-155361000D01*
X103363000Y-155364193D01*
X103395419Y-155361000D01*
X117330581Y-155361000D01*
X117363000Y-155364193D01*
X117395419Y-155361000D01*
X117492383Y-155351450D01*
X117616793Y-155313710D01*
X117731450Y-155252425D01*
X117831948Y-155169948D01*
X117914425Y-155069450D01*
X117975710Y-154954793D01*
X118013450Y-154830383D01*
X118026193Y-154701000D01*
X118023000Y-154668581D01*
X118023000Y-140733419D01*
X118026193Y-140701000D01*
X118013450Y-140571617D01*
X117975710Y-140447207D01*
X117914425Y-140332550D01*
X117831948Y-140232052D01*
X117751190Y-140165775D01*
X120459080Y-140165775D01*
X120699226Y-140553018D01*
X121193127Y-140813641D01*
X121728383Y-140972901D01*
X122284424Y-141024678D01*
X122839882Y-140966981D01*
X123373411Y-140802028D01*
X123562420Y-140701000D01*
X126512307Y-140701000D01*
X126515500Y-140733419D01*
X126515501Y-154668571D01*
X126512307Y-154701000D01*
X126525050Y-154830383D01*
X126562790Y-154954793D01*
X126624075Y-155069450D01*
X126706552Y-155169948D01*
X126807050Y-155252425D01*
X126921707Y-155313710D01*
X127046117Y-155351450D01*
X127143081Y-155361000D01*
X127175500Y-155364193D01*
X127207919Y-155361000D01*
X160193081Y-155361000D01*
X160225500Y-155364193D01*
X160257919Y-155361000D01*
X160354883Y-155351450D01*
X160479293Y-155313710D01*
X160593950Y-155252425D01*
X160694448Y-155169948D01*
X160776925Y-155069450D01*
X160838210Y-154954793D01*
X160875950Y-154830383D01*
X160888693Y-154701000D01*
X160885500Y-154668581D01*
X160885500Y-140733419D01*
X160888693Y-140701000D01*
X164612307Y-140701000D01*
X164615500Y-140733419D01*
X164615501Y-154668571D01*
X164612307Y-154701000D01*
X164625050Y-154830383D01*
X164662790Y-154954793D01*
X164724075Y-155069450D01*
X164806552Y-155169948D01*
X164907050Y-155252425D01*
X165021707Y-155313710D01*
X165146117Y-155351450D01*
X165243081Y-155361000D01*
X165275500Y-155364193D01*
X165307919Y-155361000D01*
X179243081Y-155361000D01*
X179275500Y-155364193D01*
X179307919Y-155361000D01*
X179404883Y-155351450D01*
X179529293Y-155313710D01*
X179643950Y-155252425D01*
X179744448Y-155169948D01*
X179826925Y-155069450D01*
X179888210Y-154954793D01*
X179925950Y-154830383D01*
X179938693Y-154701000D01*
X179935500Y-154668581D01*
X179935500Y-140733419D01*
X179938693Y-140701000D01*
X179925950Y-140571617D01*
X179888210Y-140447207D01*
X179826925Y-140332550D01*
X179744448Y-140232052D01*
X179643950Y-140149575D01*
X179529293Y-140088290D01*
X179404883Y-140050550D01*
X179307919Y-140041000D01*
X179275500Y-140037807D01*
X179243081Y-140041000D01*
X165307919Y-140041000D01*
X165275500Y-140037807D01*
X165243081Y-140041000D01*
X165146117Y-140050550D01*
X165021707Y-140088290D01*
X164907050Y-140149575D01*
X164806552Y-140232052D01*
X164724075Y-140332550D01*
X164662790Y-140447207D01*
X164625050Y-140571617D01*
X164612307Y-140701000D01*
X160888693Y-140701000D01*
X160875950Y-140571617D01*
X160838210Y-140447207D01*
X160776925Y-140332550D01*
X160694448Y-140232052D01*
X160593950Y-140149575D01*
X160479293Y-140088290D01*
X160354883Y-140050550D01*
X160257919Y-140041000D01*
X160225500Y-140037807D01*
X160193081Y-140041000D01*
X159791000Y-140041000D01*
X159791000Y-139533419D01*
X159794193Y-139501000D01*
X159781450Y-139371617D01*
X159743710Y-139247207D01*
X159682425Y-139132550D01*
X159599948Y-139032052D01*
X159499450Y-138949575D01*
X159384793Y-138888290D01*
X159260383Y-138850550D01*
X159163419Y-138841000D01*
X159131000Y-138837807D01*
X159098581Y-138841000D01*
X152132919Y-138841000D01*
X152100500Y-138837807D01*
X152068081Y-138841000D01*
X151971117Y-138850550D01*
X151846707Y-138888290D01*
X151732050Y-138949575D01*
X151631552Y-139032052D01*
X151549075Y-139132550D01*
X151487790Y-139247207D01*
X151450050Y-139371617D01*
X151437307Y-139501000D01*
X151440500Y-139533420D01*
X151440500Y-140041000D01*
X135960500Y-140041000D01*
X135960500Y-139533419D01*
X135963693Y-139501000D01*
X135950950Y-139371617D01*
X135913210Y-139247207D01*
X135851925Y-139132550D01*
X135769448Y-139032052D01*
X135668950Y-138949575D01*
X135554293Y-138888290D01*
X135429883Y-138850550D01*
X135332919Y-138841000D01*
X135300500Y-138837807D01*
X135268081Y-138841000D01*
X128302419Y-138841000D01*
X128270000Y-138837807D01*
X128237581Y-138841000D01*
X128140617Y-138850550D01*
X128016207Y-138888290D01*
X127901550Y-138949575D01*
X127801052Y-139032052D01*
X127718575Y-139132550D01*
X127657290Y-139247207D01*
X127619550Y-139371617D01*
X127606807Y-139501000D01*
X127610000Y-139533420D01*
X127610000Y-140041000D01*
X127207919Y-140041000D01*
X127175500Y-140037807D01*
X127143081Y-140041000D01*
X127046117Y-140050550D01*
X126921707Y-140088290D01*
X126807050Y-140149575D01*
X126706552Y-140232052D01*
X126624075Y-140332550D01*
X126562790Y-140447207D01*
X126525050Y-140571617D01*
X126512307Y-140701000D01*
X123562420Y-140701000D01*
X123839274Y-140553018D01*
X124079420Y-140165775D01*
X122269250Y-138355605D01*
X120459080Y-140165775D01*
X117751190Y-140165775D01*
X117731450Y-140149575D01*
X117616793Y-140088290D01*
X117492383Y-140050550D01*
X117395419Y-140041000D01*
X117363000Y-140037807D01*
X117330581Y-140041000D01*
X103395419Y-140041000D01*
X103363000Y-140037807D01*
X103330581Y-140041000D01*
X103233617Y-140050550D01*
X103109207Y-140088290D01*
X102994550Y-140149575D01*
X102894052Y-140232052D01*
X102811575Y-140332550D01*
X102750290Y-140447207D01*
X102712550Y-140571617D01*
X102699807Y-140701000D01*
X98976193Y-140701000D01*
X98963450Y-140571617D01*
X98925710Y-140447207D01*
X98864425Y-140332550D01*
X98781948Y-140232052D01*
X98681450Y-140149575D01*
X98566793Y-140088290D01*
X98442383Y-140050550D01*
X98345419Y-140041000D01*
X98313000Y-140037807D01*
X98280581Y-140041000D01*
X84345419Y-140041000D01*
X84313000Y-140037807D01*
X84280581Y-140041000D01*
X84183617Y-140050550D01*
X84059207Y-140088290D01*
X83944550Y-140149575D01*
X83844052Y-140232052D01*
X83761575Y-140332550D01*
X83700290Y-140447207D01*
X83662550Y-140571617D01*
X83649807Y-140701000D01*
X79926193Y-140701000D01*
X79913450Y-140571617D01*
X79875710Y-140447207D01*
X79814425Y-140332550D01*
X79731948Y-140232052D01*
X79631450Y-140149575D01*
X79516793Y-140088290D01*
X79392383Y-140050550D01*
X79295419Y-140041000D01*
X79263000Y-140037807D01*
X79230581Y-140041000D01*
X65295419Y-140041000D01*
X65263000Y-140037807D01*
X65230581Y-140041000D01*
X65133617Y-140050550D01*
X65009207Y-140088290D01*
X64894550Y-140149575D01*
X64794052Y-140232052D01*
X64711575Y-140332550D01*
X64650290Y-140447207D01*
X64612550Y-140571617D01*
X64599807Y-140701000D01*
X61649920Y-140701000D01*
X61926774Y-140553018D01*
X62166920Y-140165775D01*
X60356750Y-138355605D01*
X60342608Y-138369748D01*
X60163003Y-138190143D01*
X60177145Y-138176000D01*
X60536355Y-138176000D01*
X62346525Y-139986170D01*
X62733768Y-139746024D01*
X62994391Y-139252123D01*
X63153651Y-138716867D01*
X63202602Y-138191174D01*
X119420572Y-138191174D01*
X119478269Y-138746632D01*
X119643222Y-139280161D01*
X119892232Y-139746024D01*
X120279475Y-139986170D01*
X122089645Y-138176000D01*
X122448855Y-138176000D01*
X124259025Y-139986170D01*
X124646268Y-139746024D01*
X124906891Y-139252123D01*
X125066151Y-138716867D01*
X125117928Y-138160826D01*
X125060231Y-137605368D01*
X124895278Y-137071839D01*
X124646268Y-136605976D01*
X124259025Y-136365830D01*
X122448855Y-138176000D01*
X122089645Y-138176000D01*
X120279475Y-136365830D01*
X119892232Y-136605976D01*
X119631609Y-137099877D01*
X119472349Y-137635133D01*
X119420572Y-138191174D01*
X63202602Y-138191174D01*
X63205428Y-138160826D01*
X63147731Y-137605368D01*
X62982778Y-137071839D01*
X62733768Y-136605976D01*
X62346525Y-136365830D01*
X60536355Y-138176000D01*
X60177145Y-138176000D01*
X60163003Y-138161858D01*
X60342608Y-137982253D01*
X60356750Y-137996395D01*
X62166920Y-136186225D01*
X61926774Y-135798982D01*
X61432873Y-135538359D01*
X60897617Y-135379099D01*
X60341576Y-135327322D01*
X59786118Y-135385019D01*
X59252589Y-135549972D01*
X58786726Y-135798982D01*
X58546581Y-136186223D01*
X58476750Y-136116392D01*
X58476750Y-121651000D01*
X64599807Y-121651000D01*
X64603000Y-121683419D01*
X64603001Y-135618571D01*
X64599807Y-135651000D01*
X64612550Y-135780383D01*
X64650290Y-135904793D01*
X64711575Y-136019450D01*
X64794052Y-136119948D01*
X64894550Y-136202425D01*
X65009207Y-136263710D01*
X65133617Y-136301450D01*
X65230581Y-136311000D01*
X65263000Y-136314193D01*
X65295419Y-136311000D01*
X79230581Y-136311000D01*
X79263000Y-136314193D01*
X79295419Y-136311000D01*
X79392383Y-136301450D01*
X79516793Y-136263710D01*
X79631450Y-136202425D01*
X79731948Y-136119948D01*
X79814425Y-136019450D01*
X79875710Y-135904793D01*
X79913450Y-135780383D01*
X79926193Y-135651000D01*
X79923000Y-135618581D01*
X79923000Y-121683419D01*
X79926193Y-121651000D01*
X83649807Y-121651000D01*
X83653000Y-121683419D01*
X83653001Y-135618571D01*
X83649807Y-135651000D01*
X83662550Y-135780383D01*
X83700290Y-135904793D01*
X83761575Y-136019450D01*
X83844052Y-136119948D01*
X83944550Y-136202425D01*
X84059207Y-136263710D01*
X84183617Y-136301450D01*
X84280581Y-136311000D01*
X84313000Y-136314193D01*
X84345419Y-136311000D01*
X98280581Y-136311000D01*
X98313000Y-136314193D01*
X98345419Y-136311000D01*
X98442383Y-136301450D01*
X98566793Y-136263710D01*
X98681450Y-136202425D01*
X98781948Y-136119948D01*
X98864425Y-136019450D01*
X98925710Y-135904793D01*
X98963450Y-135780383D01*
X98976193Y-135651000D01*
X98973000Y-135618581D01*
X98973000Y-121683419D01*
X98976193Y-121651000D01*
X102699807Y-121651000D01*
X102703000Y-121683419D01*
X102703001Y-135618571D01*
X102699807Y-135651000D01*
X102712550Y-135780383D01*
X102750290Y-135904793D01*
X102811575Y-136019450D01*
X102894052Y-136119948D01*
X102994550Y-136202425D01*
X103109207Y-136263710D01*
X103233617Y-136301450D01*
X103330581Y-136311000D01*
X103363000Y-136314193D01*
X103395419Y-136311000D01*
X117330581Y-136311000D01*
X117363000Y-136314193D01*
X117395419Y-136311000D01*
X117492383Y-136301450D01*
X117616793Y-136263710D01*
X117731450Y-136202425D01*
X117751189Y-136186225D01*
X120459080Y-136186225D01*
X122269250Y-137996395D01*
X124079420Y-136186225D01*
X123839274Y-135798982D01*
X123345373Y-135538359D01*
X122810117Y-135379099D01*
X122254076Y-135327322D01*
X121698618Y-135385019D01*
X121165089Y-135549972D01*
X120699226Y-135798982D01*
X120459080Y-136186225D01*
X117751189Y-136186225D01*
X117831948Y-136119948D01*
X117914425Y-136019450D01*
X117975710Y-135904793D01*
X118013450Y-135780383D01*
X118026193Y-135651000D01*
X118023000Y-135618581D01*
X118023000Y-121683419D01*
X118026193Y-121651000D01*
X126512307Y-121651000D01*
X126515500Y-121683419D01*
X126515501Y-135618571D01*
X126512307Y-135651000D01*
X126525050Y-135780383D01*
X126562790Y-135904793D01*
X126624075Y-136019450D01*
X126706552Y-136119948D01*
X126807050Y-136202425D01*
X126921707Y-136263710D01*
X127046117Y-136301450D01*
X127143081Y-136311000D01*
X127175500Y-136314193D01*
X127207919Y-136311000D01*
X141143081Y-136311000D01*
X141175500Y-136314193D01*
X141207919Y-136311000D01*
X141304883Y-136301450D01*
X141429293Y-136263710D01*
X141543950Y-136202425D01*
X141644448Y-136119948D01*
X141726925Y-136019450D01*
X141788210Y-135904793D01*
X141825950Y-135780383D01*
X141838693Y-135651000D01*
X141835500Y-135618581D01*
X141835500Y-121683419D01*
X141838693Y-121651000D01*
X145562307Y-121651000D01*
X145565500Y-121683419D01*
X145565501Y-135618571D01*
X145562307Y-135651000D01*
X145575050Y-135780383D01*
X145612790Y-135904793D01*
X145674075Y-136019450D01*
X145756552Y-136119948D01*
X145857050Y-136202425D01*
X145971707Y-136263710D01*
X146096117Y-136301450D01*
X146193081Y-136311000D01*
X146225500Y-136314193D01*
X146257919Y-136311000D01*
X160193081Y-136311000D01*
X160225500Y-136314193D01*
X160257919Y-136311000D01*
X160354883Y-136301450D01*
X160479293Y-136263710D01*
X160593950Y-136202425D01*
X160694448Y-136119948D01*
X160776925Y-136019450D01*
X160838210Y-135904793D01*
X160875950Y-135780383D01*
X160888693Y-135651000D01*
X160885500Y-135618581D01*
X160885500Y-121683419D01*
X160888693Y-121651000D01*
X164612307Y-121651000D01*
X164615500Y-121683419D01*
X164615501Y-135618571D01*
X164612307Y-135651000D01*
X164625050Y-135780383D01*
X164662790Y-135904793D01*
X164724075Y-136019450D01*
X164806552Y-136119948D01*
X164907050Y-136202425D01*
X165021707Y-136263710D01*
X165146117Y-136301450D01*
X165243081Y-136311000D01*
X165275500Y-136314193D01*
X165307919Y-136311000D01*
X179243081Y-136311000D01*
X179275500Y-136314193D01*
X179307919Y-136311000D01*
X179404883Y-136301450D01*
X179529293Y-136263710D01*
X179643950Y-136202425D01*
X179744448Y-136119948D01*
X179826925Y-136019450D01*
X179888210Y-135904793D01*
X179925950Y-135780383D01*
X179938693Y-135651000D01*
X179935500Y-135618581D01*
X179935500Y-122745500D01*
X182462307Y-122745500D01*
X182465500Y-122777918D01*
X182465499Y-129743591D01*
X182462307Y-129776000D01*
X182465499Y-129808412D01*
X182465499Y-129808418D01*
X182475049Y-129905382D01*
X182512789Y-130029792D01*
X182574074Y-130144449D01*
X182656551Y-130244948D01*
X182757049Y-130327425D01*
X182871706Y-130388710D01*
X182996116Y-130426450D01*
X183125499Y-130439193D01*
X183157927Y-130435999D01*
X183665500Y-130436000D01*
X183665501Y-145916001D01*
X183157912Y-145916000D01*
X183125499Y-145912808D01*
X183093090Y-145916000D01*
X183093081Y-145916000D01*
X182996117Y-145925550D01*
X182871707Y-145963290D01*
X182757050Y-146024575D01*
X182757048Y-146024576D01*
X182757049Y-146024576D01*
X182656551Y-146107053D01*
X182574074Y-146207551D01*
X182512789Y-146322208D01*
X182475049Y-146446618D01*
X182465499Y-146543582D01*
X182465499Y-146543591D01*
X182462307Y-146576000D01*
X182465499Y-146608412D01*
X182465501Y-153574071D01*
X182462307Y-153606500D01*
X182475050Y-153735883D01*
X182512790Y-153860293D01*
X182574075Y-153974950D01*
X182656552Y-154075448D01*
X182757050Y-154157925D01*
X182871707Y-154219210D01*
X182996117Y-154256950D01*
X183093081Y-154266500D01*
X183093088Y-154266500D01*
X183125500Y-154269692D01*
X183157909Y-154266500D01*
X183665501Y-154266500D01*
X183665501Y-154668571D01*
X183662307Y-154701000D01*
X183675050Y-154830383D01*
X183712790Y-154954793D01*
X183774075Y-155069450D01*
X183856552Y-155169948D01*
X183957050Y-155252425D01*
X184071707Y-155313710D01*
X184196117Y-155351450D01*
X184293081Y-155361000D01*
X184325500Y-155364193D01*
X184357919Y-155361000D01*
X198293081Y-155361000D01*
X198325500Y-155364193D01*
X198357919Y-155361000D01*
X198454883Y-155351450D01*
X198579293Y-155313710D01*
X198693950Y-155252425D01*
X198794448Y-155169948D01*
X198876925Y-155069450D01*
X198938210Y-154954793D01*
X198975950Y-154830383D01*
X198988693Y-154701000D01*
X198985500Y-154668581D01*
X198985500Y-138191174D01*
X200383072Y-138191174D01*
X200440769Y-138746632D01*
X200605722Y-139280161D01*
X200854732Y-139746024D01*
X201241975Y-139986170D01*
X203052145Y-138176000D01*
X201241975Y-136365830D01*
X200854732Y-136605976D01*
X200594109Y-137099877D01*
X200434849Y-137635133D01*
X200383072Y-138191174D01*
X198985500Y-138191174D01*
X198985500Y-121683419D01*
X198988693Y-121651000D01*
X198975950Y-121521617D01*
X198938210Y-121397207D01*
X198876925Y-121282550D01*
X198794448Y-121182052D01*
X198693950Y-121099575D01*
X198579293Y-121038290D01*
X198454883Y-121000550D01*
X198357919Y-120991000D01*
X198325500Y-120987807D01*
X198293081Y-120991000D01*
X184357919Y-120991000D01*
X184325500Y-120987807D01*
X184293081Y-120991000D01*
X184196117Y-121000550D01*
X184071707Y-121038290D01*
X183957050Y-121099575D01*
X183856552Y-121182052D01*
X183774075Y-121282550D01*
X183712790Y-121397207D01*
X183675050Y-121521617D01*
X183662307Y-121651000D01*
X183665500Y-121683420D01*
X183665500Y-122085500D01*
X183157927Y-122085501D01*
X183125499Y-122082307D01*
X182996117Y-122095050D01*
X182871707Y-122132790D01*
X182757050Y-122194075D01*
X182757048Y-122194076D01*
X182757049Y-122194076D01*
X182656551Y-122276553D01*
X182574074Y-122377051D01*
X182512789Y-122491708D01*
X182475049Y-122616118D01*
X182462307Y-122745500D01*
X179935500Y-122745500D01*
X179935500Y-121683419D01*
X179938693Y-121651000D01*
X179925950Y-121521617D01*
X179888210Y-121397207D01*
X179826925Y-121282550D01*
X179744448Y-121182052D01*
X179643950Y-121099575D01*
X179529293Y-121038290D01*
X179404883Y-121000550D01*
X179307919Y-120991000D01*
X179275500Y-120987807D01*
X179243081Y-120991000D01*
X165307919Y-120991000D01*
X165275500Y-120987807D01*
X165243081Y-120991000D01*
X165146117Y-121000550D01*
X165021707Y-121038290D01*
X164907050Y-121099575D01*
X164806552Y-121182052D01*
X164724075Y-121282550D01*
X164662790Y-121397207D01*
X164625050Y-121521617D01*
X164612307Y-121651000D01*
X160888693Y-121651000D01*
X160875950Y-121521617D01*
X160838210Y-121397207D01*
X160776925Y-121282550D01*
X160694448Y-121182052D01*
X160593950Y-121099575D01*
X160479293Y-121038290D01*
X160354883Y-121000550D01*
X160257919Y-120991000D01*
X160225500Y-120987807D01*
X160193081Y-120991000D01*
X146257919Y-120991000D01*
X146225500Y-120987807D01*
X146193081Y-120991000D01*
X146096117Y-121000550D01*
X145971707Y-121038290D01*
X145857050Y-121099575D01*
X145756552Y-121182052D01*
X145674075Y-121282550D01*
X145612790Y-121397207D01*
X145575050Y-121521617D01*
X145562307Y-121651000D01*
X141838693Y-121651000D01*
X141825950Y-121521617D01*
X141788210Y-121397207D01*
X141726925Y-121282550D01*
X141644448Y-121182052D01*
X141543950Y-121099575D01*
X141429293Y-121038290D01*
X141304883Y-121000550D01*
X141207919Y-120991000D01*
X141175500Y-120987807D01*
X141143081Y-120991000D01*
X127207919Y-120991000D01*
X127175500Y-120987807D01*
X127143081Y-120991000D01*
X127046117Y-121000550D01*
X126921707Y-121038290D01*
X126807050Y-121099575D01*
X126706552Y-121182052D01*
X126624075Y-121282550D01*
X126562790Y-121397207D01*
X126525050Y-121521617D01*
X126512307Y-121651000D01*
X118026193Y-121651000D01*
X118013450Y-121521617D01*
X117975710Y-121397207D01*
X117914425Y-121282550D01*
X117831948Y-121182052D01*
X117731450Y-121099575D01*
X117616793Y-121038290D01*
X117492383Y-121000550D01*
X117395419Y-120991000D01*
X117363000Y-120987807D01*
X117330581Y-120991000D01*
X103395419Y-120991000D01*
X103363000Y-120987807D01*
X103330581Y-120991000D01*
X103233617Y-121000550D01*
X103109207Y-121038290D01*
X102994550Y-121099575D01*
X102894052Y-121182052D01*
X102811575Y-121282550D01*
X102750290Y-121397207D01*
X102712550Y-121521617D01*
X102699807Y-121651000D01*
X98976193Y-121651000D01*
X98963450Y-121521617D01*
X98925710Y-121397207D01*
X98864425Y-121282550D01*
X98781948Y-121182052D01*
X98681450Y-121099575D01*
X98566793Y-121038290D01*
X98442383Y-121000550D01*
X98345419Y-120991000D01*
X98313000Y-120987807D01*
X98280581Y-120991000D01*
X84345419Y-120991000D01*
X84313000Y-120987807D01*
X84280581Y-120991000D01*
X84183617Y-121000550D01*
X84059207Y-121038290D01*
X83944550Y-121099575D01*
X83844052Y-121182052D01*
X83761575Y-121282550D01*
X83700290Y-121397207D01*
X83662550Y-121521617D01*
X83649807Y-121651000D01*
X79926193Y-121651000D01*
X79913450Y-121521617D01*
X79875710Y-121397207D01*
X79814425Y-121282550D01*
X79731948Y-121182052D01*
X79631450Y-121099575D01*
X79516793Y-121038290D01*
X79392383Y-121000550D01*
X79295419Y-120991000D01*
X79263000Y-120987807D01*
X79230581Y-120991000D01*
X65295419Y-120991000D01*
X65263000Y-120987807D01*
X65230581Y-120991000D01*
X65133617Y-121000550D01*
X65009207Y-121038290D01*
X64894550Y-121099575D01*
X64794052Y-121182052D01*
X64711575Y-121282550D01*
X64650290Y-121397207D01*
X64612550Y-121521617D01*
X64599807Y-121651000D01*
X58476750Y-121651000D01*
X58476750Y-106996867D01*
X77434390Y-106996867D01*
X77434390Y-107379133D01*
X77508966Y-107754055D01*
X77655254Y-108107224D01*
X77867630Y-108425067D01*
X78137933Y-108695370D01*
X78455776Y-108907746D01*
X78808945Y-109054034D01*
X79183867Y-109128610D01*
X79566133Y-109128610D01*
X79941055Y-109054034D01*
X80294224Y-108907746D01*
X80612067Y-108695370D01*
X80882370Y-108425067D01*
X81094746Y-108107224D01*
X81241034Y-107754055D01*
X81315610Y-107379133D01*
X81315610Y-106996867D01*
X89372390Y-106996867D01*
X89372390Y-107379133D01*
X89446966Y-107754055D01*
X89593254Y-108107224D01*
X89805630Y-108425067D01*
X90075933Y-108695370D01*
X90393776Y-108907746D01*
X90746945Y-109054034D01*
X91121867Y-109128610D01*
X91504133Y-109128610D01*
X91879055Y-109054034D01*
X92232224Y-108907746D01*
X92550067Y-108695370D01*
X92820370Y-108425067D01*
X93032746Y-108107224D01*
X93179034Y-107754055D01*
X93253610Y-107379133D01*
X93253610Y-106996867D01*
X101310390Y-106996867D01*
X101310390Y-107379133D01*
X101384966Y-107754055D01*
X101531254Y-108107224D01*
X101743630Y-108425067D01*
X102013933Y-108695370D01*
X102331776Y-108907746D01*
X102684945Y-109054034D01*
X103059867Y-109128610D01*
X103442133Y-109128610D01*
X103817055Y-109054034D01*
X104170224Y-108907746D01*
X104488067Y-108695370D01*
X104758370Y-108425067D01*
X104970746Y-108107224D01*
X105117034Y-107754055D01*
X105191610Y-107379133D01*
X105191610Y-106996867D01*
X105117034Y-106621945D01*
X104970746Y-106268776D01*
X104758370Y-105950933D01*
X104488067Y-105680630D01*
X104170224Y-105468254D01*
X103817055Y-105321966D01*
X103442133Y-105247390D01*
X103059867Y-105247390D01*
X102684945Y-105321966D01*
X102331776Y-105468254D01*
X102013933Y-105680630D01*
X101743630Y-105950933D01*
X101531254Y-106268776D01*
X101384966Y-106621945D01*
X101310390Y-106996867D01*
X93253610Y-106996867D01*
X93179034Y-106621945D01*
X93032746Y-106268776D01*
X92820370Y-105950933D01*
X92550067Y-105680630D01*
X92232224Y-105468254D01*
X91879055Y-105321966D01*
X91504133Y-105247390D01*
X91121867Y-105247390D01*
X90746945Y-105321966D01*
X90393776Y-105468254D01*
X90075933Y-105680630D01*
X89805630Y-105950933D01*
X89593254Y-106268776D01*
X89446966Y-106621945D01*
X89372390Y-106996867D01*
X81315610Y-106996867D01*
X81241034Y-106621945D01*
X81094746Y-106268776D01*
X80882370Y-105950933D01*
X80612067Y-105680630D01*
X80294224Y-105468254D01*
X79941055Y-105321966D01*
X79566133Y-105247390D01*
X79183867Y-105247390D01*
X78808945Y-105321966D01*
X78455776Y-105468254D01*
X78137933Y-105680630D01*
X77867630Y-105950933D01*
X77655254Y-106268776D01*
X77508966Y-106621945D01*
X77434390Y-106996867D01*
X58476750Y-106996867D01*
X58476750Y-102601000D01*
X126512307Y-102601000D01*
X126515500Y-102633419D01*
X126515501Y-116568571D01*
X126512307Y-116601000D01*
X126525050Y-116730383D01*
X126562790Y-116854793D01*
X126624075Y-116969450D01*
X126706552Y-117069948D01*
X126807050Y-117152425D01*
X126921707Y-117213710D01*
X127046117Y-117251450D01*
X127143081Y-117261000D01*
X127175500Y-117264193D01*
X127207919Y-117261000D01*
X141143081Y-117261000D01*
X141175500Y-117264193D01*
X141207919Y-117261000D01*
X141304883Y-117251450D01*
X141429293Y-117213710D01*
X141543950Y-117152425D01*
X141644448Y-117069948D01*
X141726925Y-116969450D01*
X141788210Y-116854793D01*
X141825950Y-116730383D01*
X141838693Y-116601000D01*
X141835500Y-116568581D01*
X141835500Y-102633419D01*
X141838693Y-102601000D01*
X145562307Y-102601000D01*
X145565500Y-102633419D01*
X145565501Y-116568571D01*
X145562307Y-116601000D01*
X145575050Y-116730383D01*
X145612790Y-116854793D01*
X145674075Y-116969450D01*
X145756552Y-117069948D01*
X145857050Y-117152425D01*
X145971707Y-117213710D01*
X146096117Y-117251450D01*
X146193081Y-117261000D01*
X146225500Y-117264193D01*
X146257919Y-117261000D01*
X160193081Y-117261000D01*
X160225500Y-117264193D01*
X160257919Y-117261000D01*
X160354883Y-117251450D01*
X160479293Y-117213710D01*
X160593950Y-117152425D01*
X160694448Y-117069948D01*
X160776925Y-116969450D01*
X160838210Y-116854793D01*
X160875950Y-116730383D01*
X160888693Y-116601000D01*
X160885500Y-116568581D01*
X160885500Y-102633419D01*
X160888693Y-102601000D01*
X164612307Y-102601000D01*
X164615500Y-102633419D01*
X164615501Y-116568571D01*
X164612307Y-116601000D01*
X164625050Y-116730383D01*
X164662790Y-116854793D01*
X164724075Y-116969450D01*
X164806552Y-117069948D01*
X164907050Y-117152425D01*
X165021707Y-117213710D01*
X165146117Y-117251450D01*
X165243081Y-117261000D01*
X165275500Y-117264193D01*
X165307919Y-117261000D01*
X179243081Y-117261000D01*
X179275500Y-117264193D01*
X179307919Y-117261000D01*
X179404883Y-117251450D01*
X179529293Y-117213710D01*
X179643950Y-117152425D01*
X179744448Y-117069948D01*
X179826925Y-116969450D01*
X179888210Y-116854793D01*
X179925950Y-116730383D01*
X179938693Y-116601000D01*
X179935500Y-116568581D01*
X179935500Y-102633419D01*
X179938693Y-102601000D01*
X179925950Y-102471617D01*
X179888210Y-102347207D01*
X179826925Y-102232550D01*
X179744448Y-102132052D01*
X179643950Y-102049575D01*
X179529293Y-101988290D01*
X179404883Y-101950550D01*
X179307919Y-101941000D01*
X179275500Y-101937807D01*
X179243081Y-101941000D01*
X165307919Y-101941000D01*
X165275500Y-101937807D01*
X165243081Y-101941000D01*
X165146117Y-101950550D01*
X165021707Y-101988290D01*
X164907050Y-102049575D01*
X164806552Y-102132052D01*
X164724075Y-102232550D01*
X164662790Y-102347207D01*
X164625050Y-102471617D01*
X164612307Y-102601000D01*
X160888693Y-102601000D01*
X160875950Y-102471617D01*
X160838210Y-102347207D01*
X160776925Y-102232550D01*
X160694448Y-102132052D01*
X160593950Y-102049575D01*
X160479293Y-101988290D01*
X160354883Y-101950550D01*
X160257919Y-101941000D01*
X160225500Y-101937807D01*
X160193081Y-101941000D01*
X146257919Y-101941000D01*
X146225500Y-101937807D01*
X146193081Y-101941000D01*
X146096117Y-101950550D01*
X145971707Y-101988290D01*
X145857050Y-102049575D01*
X145756552Y-102132052D01*
X145674075Y-102232550D01*
X145612790Y-102347207D01*
X145575050Y-102471617D01*
X145562307Y-102601000D01*
X141838693Y-102601000D01*
X141825950Y-102471617D01*
X141788210Y-102347207D01*
X141726925Y-102232550D01*
X141644448Y-102132052D01*
X141543950Y-102049575D01*
X141429293Y-101988290D01*
X141304883Y-101950550D01*
X141207919Y-101941000D01*
X141175500Y-101937807D01*
X141143081Y-101941000D01*
X127207919Y-101941000D01*
X127175500Y-101937807D01*
X127143081Y-101941000D01*
X127046117Y-101950550D01*
X126921707Y-101988290D01*
X126807050Y-102049575D01*
X126706552Y-102132052D01*
X126624075Y-102232550D01*
X126562790Y-102347207D01*
X126525050Y-102471617D01*
X126512307Y-102601000D01*
X58476750Y-102601000D01*
X58476750Y-83085608D01*
X58546581Y-83015777D01*
X58786726Y-83403018D01*
X59280627Y-83663641D01*
X59815883Y-83822901D01*
X60371924Y-83874678D01*
X60927382Y-83816981D01*
X61460911Y-83652028D01*
X61649920Y-83551000D01*
X64599807Y-83551000D01*
X64603000Y-83583419D01*
X64603001Y-97518571D01*
X64599807Y-97551000D01*
X64612550Y-97680383D01*
X64650290Y-97804793D01*
X64711575Y-97919450D01*
X64794052Y-98019948D01*
X64894550Y-98102425D01*
X65009207Y-98163710D01*
X65133617Y-98201450D01*
X65230581Y-98211000D01*
X65263000Y-98214193D01*
X65295419Y-98211000D01*
X79230581Y-98211000D01*
X79263000Y-98214193D01*
X79295419Y-98211000D01*
X79392383Y-98201450D01*
X79516793Y-98163710D01*
X79631450Y-98102425D01*
X79731948Y-98019948D01*
X79814425Y-97919450D01*
X79875710Y-97804793D01*
X79913450Y-97680383D01*
X79926193Y-97551000D01*
X79923000Y-97518581D01*
X79923000Y-83583419D01*
X79926193Y-83551000D01*
X83649807Y-83551000D01*
X83653000Y-83583419D01*
X83653001Y-97518571D01*
X83649807Y-97551000D01*
X83662550Y-97680383D01*
X83700290Y-97804793D01*
X83761575Y-97919450D01*
X83844052Y-98019948D01*
X83944550Y-98102425D01*
X84059207Y-98163710D01*
X84183617Y-98201450D01*
X84280581Y-98211000D01*
X84313000Y-98214193D01*
X84345419Y-98211000D01*
X98280581Y-98211000D01*
X98313000Y-98214193D01*
X98345419Y-98211000D01*
X98442383Y-98201450D01*
X98566793Y-98163710D01*
X98681450Y-98102425D01*
X98781948Y-98019948D01*
X98864425Y-97919450D01*
X98925710Y-97804793D01*
X98963450Y-97680383D01*
X98976193Y-97551000D01*
X98973000Y-97518581D01*
X98973000Y-83583419D01*
X98976193Y-83551000D01*
X102699807Y-83551000D01*
X102703000Y-83583419D01*
X102703001Y-97518571D01*
X102699807Y-97551000D01*
X102712550Y-97680383D01*
X102750290Y-97804793D01*
X102811575Y-97919450D01*
X102894052Y-98019948D01*
X102994550Y-98102425D01*
X103109207Y-98163710D01*
X103233617Y-98201450D01*
X103330581Y-98211000D01*
X103363000Y-98214193D01*
X103395419Y-98211000D01*
X117330581Y-98211000D01*
X117363000Y-98214193D01*
X117395419Y-98211000D01*
X117492383Y-98201450D01*
X117616793Y-98163710D01*
X117731450Y-98102425D01*
X117831948Y-98019948D01*
X117914425Y-97919450D01*
X117975710Y-97804793D01*
X118013450Y-97680383D01*
X118026193Y-97551000D01*
X118023000Y-97518581D01*
X118023000Y-83583419D01*
X118026193Y-83551000D01*
X126512307Y-83551000D01*
X126515500Y-83583419D01*
X126515501Y-97518571D01*
X126512307Y-97551000D01*
X126525050Y-97680383D01*
X126562790Y-97804793D01*
X126624075Y-97919450D01*
X126706552Y-98019948D01*
X126807050Y-98102425D01*
X126921707Y-98163710D01*
X127046117Y-98201450D01*
X127143081Y-98211000D01*
X127175500Y-98214193D01*
X127207919Y-98211000D01*
X141143081Y-98211000D01*
X141175500Y-98214193D01*
X141207919Y-98211000D01*
X141304883Y-98201450D01*
X141429293Y-98163710D01*
X141543950Y-98102425D01*
X141644448Y-98019948D01*
X141726925Y-97919450D01*
X141788210Y-97804793D01*
X141825950Y-97680383D01*
X141838693Y-97551000D01*
X141835500Y-97518581D01*
X141835500Y-83583419D01*
X141838693Y-83551000D01*
X145562307Y-83551000D01*
X145565500Y-83583419D01*
X145565501Y-97518571D01*
X145562307Y-97551000D01*
X145575050Y-97680383D01*
X145612790Y-97804793D01*
X145674075Y-97919450D01*
X145756552Y-98019948D01*
X145857050Y-98102425D01*
X145971707Y-98163710D01*
X146096117Y-98201450D01*
X146193081Y-98211000D01*
X146225500Y-98214193D01*
X146257919Y-98211000D01*
X160193081Y-98211000D01*
X160225500Y-98214193D01*
X160257919Y-98211000D01*
X160354883Y-98201450D01*
X160479293Y-98163710D01*
X160593950Y-98102425D01*
X160694448Y-98019948D01*
X160776925Y-97919450D01*
X160838210Y-97804793D01*
X160875950Y-97680383D01*
X160888693Y-97551000D01*
X160885500Y-97518581D01*
X160885500Y-83583419D01*
X160888693Y-83551000D01*
X164612307Y-83551000D01*
X164615500Y-83583419D01*
X164615501Y-97518571D01*
X164612307Y-97551000D01*
X164625050Y-97680383D01*
X164662790Y-97804793D01*
X164724075Y-97919450D01*
X164806552Y-98019948D01*
X164907050Y-98102425D01*
X165021707Y-98163710D01*
X165146117Y-98201450D01*
X165243081Y-98211000D01*
X165275500Y-98214193D01*
X165307919Y-98211000D01*
X179243081Y-98211000D01*
X179275500Y-98214193D01*
X179307919Y-98211000D01*
X179404883Y-98201450D01*
X179529293Y-98163710D01*
X179643950Y-98102425D01*
X179744448Y-98019948D01*
X179826925Y-97919450D01*
X179888210Y-97804793D01*
X179925950Y-97680383D01*
X179938693Y-97551000D01*
X179935500Y-97518581D01*
X179935500Y-84645500D01*
X182462307Y-84645500D01*
X182465500Y-84677918D01*
X182465499Y-91643591D01*
X182462307Y-91676000D01*
X182465499Y-91708412D01*
X182465499Y-91708418D01*
X182475049Y-91805382D01*
X182512789Y-91929792D01*
X182574074Y-92044449D01*
X182656551Y-92144948D01*
X182757049Y-92227425D01*
X182871706Y-92288710D01*
X182996116Y-92326450D01*
X183125499Y-92339193D01*
X183157927Y-92335999D01*
X183665500Y-92336000D01*
X183665501Y-107816001D01*
X183157912Y-107816000D01*
X183125499Y-107812808D01*
X183093090Y-107816000D01*
X183093081Y-107816000D01*
X182996117Y-107825550D01*
X182871707Y-107863290D01*
X182757050Y-107924575D01*
X182757048Y-107924576D01*
X182757049Y-107924576D01*
X182656551Y-108007053D01*
X182574074Y-108107551D01*
X182512789Y-108222208D01*
X182475049Y-108346618D01*
X182465499Y-108443582D01*
X182465499Y-108443591D01*
X182462307Y-108476000D01*
X182465499Y-108508412D01*
X182465501Y-115474071D01*
X182462307Y-115506500D01*
X182475050Y-115635883D01*
X182512790Y-115760293D01*
X182574075Y-115874950D01*
X182656552Y-115975448D01*
X182757050Y-116057925D01*
X182871707Y-116119210D01*
X182996117Y-116156950D01*
X183093081Y-116166500D01*
X183093088Y-116166500D01*
X183125500Y-116169692D01*
X183157909Y-116166500D01*
X183665501Y-116166500D01*
X183665501Y-116568571D01*
X183662307Y-116601000D01*
X183675050Y-116730383D01*
X183712790Y-116854793D01*
X183774075Y-116969450D01*
X183856552Y-117069948D01*
X183957050Y-117152425D01*
X184071707Y-117213710D01*
X184196117Y-117251450D01*
X184293081Y-117261000D01*
X184325500Y-117264193D01*
X184357919Y-117261000D01*
X198293081Y-117261000D01*
X198325500Y-117264193D01*
X198357919Y-117261000D01*
X198454883Y-117251450D01*
X198579293Y-117213710D01*
X198693950Y-117152425D01*
X198794448Y-117069948D01*
X198876925Y-116969450D01*
X198938210Y-116854793D01*
X198975950Y-116730383D01*
X198988693Y-116601000D01*
X198985500Y-116568581D01*
X198985500Y-83583419D01*
X198988693Y-83551000D01*
X198975950Y-83421617D01*
X198938210Y-83297207D01*
X198876925Y-83182550D01*
X198794448Y-83082052D01*
X198693950Y-82999575D01*
X198579293Y-82938290D01*
X198454883Y-82900550D01*
X198357919Y-82891000D01*
X198325500Y-82887807D01*
X198293081Y-82891000D01*
X184357919Y-82891000D01*
X184325500Y-82887807D01*
X184293081Y-82891000D01*
X184196117Y-82900550D01*
X184071707Y-82938290D01*
X183957050Y-82999575D01*
X183856552Y-83082052D01*
X183774075Y-83182550D01*
X183712790Y-83297207D01*
X183675050Y-83421617D01*
X183662307Y-83551000D01*
X183665500Y-83583420D01*
X183665500Y-83985500D01*
X183157927Y-83985501D01*
X183125499Y-83982307D01*
X182996117Y-83995050D01*
X182871707Y-84032790D01*
X182757050Y-84094075D01*
X182757048Y-84094076D01*
X182757049Y-84094076D01*
X182656551Y-84176553D01*
X182574074Y-84277051D01*
X182512789Y-84391708D01*
X182475049Y-84516118D01*
X182462307Y-84645500D01*
X179935500Y-84645500D01*
X179935500Y-83583419D01*
X179938693Y-83551000D01*
X179925950Y-83421617D01*
X179888210Y-83297207D01*
X179826925Y-83182550D01*
X179744448Y-83082052D01*
X179643950Y-82999575D01*
X179529293Y-82938290D01*
X179404883Y-82900550D01*
X179307919Y-82891000D01*
X179275500Y-82887807D01*
X179243081Y-82891000D01*
X165307919Y-82891000D01*
X165275500Y-82887807D01*
X165243081Y-82891000D01*
X165146117Y-82900550D01*
X165021707Y-82938290D01*
X164907050Y-82999575D01*
X164806552Y-83082052D01*
X164724075Y-83182550D01*
X164662790Y-83297207D01*
X164625050Y-83421617D01*
X164612307Y-83551000D01*
X160888693Y-83551000D01*
X160875950Y-83421617D01*
X160838210Y-83297207D01*
X160776925Y-83182550D01*
X160694448Y-83082052D01*
X160593950Y-82999575D01*
X160479293Y-82938290D01*
X160354883Y-82900550D01*
X160257919Y-82891000D01*
X160225500Y-82887807D01*
X160193081Y-82891000D01*
X146257919Y-82891000D01*
X146225500Y-82887807D01*
X146193081Y-82891000D01*
X146096117Y-82900550D01*
X145971707Y-82938290D01*
X145857050Y-82999575D01*
X145756552Y-83082052D01*
X145674075Y-83182550D01*
X145612790Y-83297207D01*
X145575050Y-83421617D01*
X145562307Y-83551000D01*
X141838693Y-83551000D01*
X141825950Y-83421617D01*
X141788210Y-83297207D01*
X141726925Y-83182550D01*
X141644448Y-83082052D01*
X141543950Y-82999575D01*
X141429293Y-82938290D01*
X141304883Y-82900550D01*
X141207919Y-82891000D01*
X141175500Y-82887807D01*
X141143081Y-82891000D01*
X127207919Y-82891000D01*
X127175500Y-82887807D01*
X127143081Y-82891000D01*
X127046117Y-82900550D01*
X126921707Y-82938290D01*
X126807050Y-82999575D01*
X126706552Y-83082052D01*
X126624075Y-83182550D01*
X126562790Y-83297207D01*
X126525050Y-83421617D01*
X126512307Y-83551000D01*
X118026193Y-83551000D01*
X118013450Y-83421617D01*
X117975710Y-83297207D01*
X117914425Y-83182550D01*
X117831948Y-83082052D01*
X117731450Y-82999575D01*
X117616793Y-82938290D01*
X117492383Y-82900550D01*
X117395419Y-82891000D01*
X117363000Y-82887807D01*
X117330581Y-82891000D01*
X103395419Y-82891000D01*
X103363000Y-82887807D01*
X103330581Y-82891000D01*
X103233617Y-82900550D01*
X103109207Y-82938290D01*
X102994550Y-82999575D01*
X102894052Y-83082052D01*
X102811575Y-83182550D01*
X102750290Y-83297207D01*
X102712550Y-83421617D01*
X102699807Y-83551000D01*
X98976193Y-83551000D01*
X98963450Y-83421617D01*
X98925710Y-83297207D01*
X98864425Y-83182550D01*
X98781948Y-83082052D01*
X98681450Y-82999575D01*
X98566793Y-82938290D01*
X98442383Y-82900550D01*
X98345419Y-82891000D01*
X98313000Y-82887807D01*
X98280581Y-82891000D01*
X84345419Y-82891000D01*
X84313000Y-82887807D01*
X84280581Y-82891000D01*
X84183617Y-82900550D01*
X84059207Y-82938290D01*
X83944550Y-82999575D01*
X83844052Y-83082052D01*
X83761575Y-83182550D01*
X83700290Y-83297207D01*
X83662550Y-83421617D01*
X83649807Y-83551000D01*
X79926193Y-83551000D01*
X79913450Y-83421617D01*
X79875710Y-83297207D01*
X79814425Y-83182550D01*
X79731948Y-83082052D01*
X79631450Y-82999575D01*
X79516793Y-82938290D01*
X79392383Y-82900550D01*
X79295419Y-82891000D01*
X79263000Y-82887807D01*
X79230581Y-82891000D01*
X65295419Y-82891000D01*
X65263000Y-82887807D01*
X65230581Y-82891000D01*
X65133617Y-82900550D01*
X65009207Y-82938290D01*
X64894550Y-82999575D01*
X64794052Y-83082052D01*
X64711575Y-83182550D01*
X64650290Y-83297207D01*
X64612550Y-83421617D01*
X64599807Y-83551000D01*
X61649920Y-83551000D01*
X61926774Y-83403018D01*
X62166920Y-83015775D01*
X60356750Y-81205605D01*
X60342608Y-81219748D01*
X60163003Y-81040143D01*
X60177145Y-81026000D01*
X60536355Y-81026000D01*
X62346525Y-82836170D01*
X62733768Y-82596024D01*
X62994391Y-82102123D01*
X63153651Y-81566867D01*
X63202602Y-81041174D01*
X200383072Y-81041174D01*
X200440769Y-81596632D01*
X200605722Y-82130161D01*
X200854732Y-82596024D01*
X201241975Y-82836170D01*
X203052145Y-81026000D01*
X201241975Y-79215830D01*
X200854732Y-79455976D01*
X200594109Y-79949877D01*
X200434849Y-80485133D01*
X200383072Y-81041174D01*
X63202602Y-81041174D01*
X63205428Y-81010826D01*
X63147731Y-80455368D01*
X62982778Y-79921839D01*
X62733768Y-79455976D01*
X62346525Y-79215830D01*
X60536355Y-81026000D01*
X60177145Y-81026000D01*
X60163003Y-81011858D01*
X60342608Y-80832253D01*
X60356750Y-80846395D01*
X62166920Y-79036225D01*
X61926774Y-78648982D01*
X61432873Y-78388359D01*
X60897617Y-78229099D01*
X60341576Y-78177322D01*
X59786118Y-78235019D01*
X59252589Y-78399972D01*
X58786726Y-78648982D01*
X58546581Y-79036223D01*
X58476750Y-78966392D01*
X58476750Y-64501000D01*
X64599807Y-64501000D01*
X64603000Y-64533419D01*
X64603001Y-78468571D01*
X64599807Y-78501000D01*
X64612550Y-78630383D01*
X64650290Y-78754793D01*
X64711575Y-78869450D01*
X64794052Y-78969948D01*
X64894550Y-79052425D01*
X65009207Y-79113710D01*
X65133617Y-79151450D01*
X65230581Y-79161000D01*
X65263000Y-79164193D01*
X65295419Y-79161000D01*
X79230581Y-79161000D01*
X79263000Y-79164193D01*
X79295419Y-79161000D01*
X79392383Y-79151450D01*
X79516793Y-79113710D01*
X79631450Y-79052425D01*
X79731948Y-78969948D01*
X79814425Y-78869450D01*
X79875710Y-78754793D01*
X79913450Y-78630383D01*
X79926193Y-78501000D01*
X79923000Y-78468581D01*
X79923000Y-64533419D01*
X79926193Y-64501000D01*
X83649807Y-64501000D01*
X83653000Y-64533419D01*
X83653001Y-78468571D01*
X83649807Y-78501000D01*
X83662550Y-78630383D01*
X83700290Y-78754793D01*
X83761575Y-78869450D01*
X83844052Y-78969948D01*
X83944550Y-79052425D01*
X84059207Y-79113710D01*
X84183617Y-79151450D01*
X84280581Y-79161000D01*
X84313000Y-79164193D01*
X84345419Y-79161000D01*
X98280581Y-79161000D01*
X98313000Y-79164193D01*
X98345419Y-79161000D01*
X98442383Y-79151450D01*
X98566793Y-79113710D01*
X98681450Y-79052425D01*
X98781948Y-78969948D01*
X98864425Y-78869450D01*
X98925710Y-78754793D01*
X98963450Y-78630383D01*
X98976193Y-78501000D01*
X98973000Y-78468581D01*
X98973000Y-64533419D01*
X98976193Y-64501000D01*
X102699807Y-64501000D01*
X102703000Y-64533419D01*
X102703001Y-78468571D01*
X102699807Y-78501000D01*
X102712550Y-78630383D01*
X102750290Y-78754793D01*
X102811575Y-78869450D01*
X102894052Y-78969948D01*
X102994550Y-79052425D01*
X103109207Y-79113710D01*
X103233617Y-79151450D01*
X103330581Y-79161000D01*
X103363000Y-79164193D01*
X103395419Y-79161000D01*
X117330581Y-79161000D01*
X117363000Y-79164193D01*
X117395419Y-79161000D01*
X117492383Y-79151450D01*
X117616793Y-79113710D01*
X117731450Y-79052425D01*
X117831948Y-78969948D01*
X117914425Y-78869450D01*
X117975710Y-78754793D01*
X118013450Y-78630383D01*
X118026193Y-78501000D01*
X118023000Y-78468581D01*
X118023000Y-64533419D01*
X118026193Y-64501000D01*
X118013450Y-64371617D01*
X117975710Y-64247207D01*
X117914425Y-64132550D01*
X117831948Y-64032052D01*
X117751190Y-63965775D01*
X120459080Y-63965775D01*
X120699226Y-64353018D01*
X121193127Y-64613641D01*
X121728383Y-64772901D01*
X122284424Y-64824678D01*
X122839882Y-64766981D01*
X123373411Y-64602028D01*
X123562420Y-64501000D01*
X126512307Y-64501000D01*
X126515500Y-64533419D01*
X126515501Y-78468571D01*
X126512307Y-78501000D01*
X126525050Y-78630383D01*
X126562790Y-78754793D01*
X126624075Y-78869450D01*
X126706552Y-78969948D01*
X126807050Y-79052425D01*
X126921707Y-79113710D01*
X127046117Y-79151450D01*
X127143081Y-79161000D01*
X127175500Y-79164193D01*
X127207919Y-79161000D01*
X141143081Y-79161000D01*
X141175500Y-79164193D01*
X141207919Y-79161000D01*
X141304883Y-79151450D01*
X141429293Y-79113710D01*
X141543950Y-79052425D01*
X141644448Y-78969948D01*
X141726925Y-78869450D01*
X141788210Y-78754793D01*
X141825950Y-78630383D01*
X141838693Y-78501000D01*
X141835500Y-78468581D01*
X141835500Y-64533419D01*
X141838693Y-64501000D01*
X145562307Y-64501000D01*
X145565500Y-64533419D01*
X145565501Y-78468571D01*
X145562307Y-78501000D01*
X145575050Y-78630383D01*
X145612790Y-78754793D01*
X145674075Y-78869450D01*
X145756552Y-78969948D01*
X145857050Y-79052425D01*
X145971707Y-79113710D01*
X146096117Y-79151450D01*
X146193081Y-79161000D01*
X146225500Y-79164193D01*
X146257919Y-79161000D01*
X160193081Y-79161000D01*
X160225500Y-79164193D01*
X160257919Y-79161000D01*
X160354883Y-79151450D01*
X160479293Y-79113710D01*
X160593950Y-79052425D01*
X160694448Y-78969948D01*
X160776925Y-78869450D01*
X160838210Y-78754793D01*
X160875950Y-78630383D01*
X160888693Y-78501000D01*
X160885500Y-78468581D01*
X160885500Y-64533419D01*
X160888693Y-64501000D01*
X164612307Y-64501000D01*
X164615500Y-64533419D01*
X164615501Y-78468571D01*
X164612307Y-78501000D01*
X164625050Y-78630383D01*
X164662790Y-78754793D01*
X164724075Y-78869450D01*
X164806552Y-78969948D01*
X164907050Y-79052425D01*
X165021707Y-79113710D01*
X165146117Y-79151450D01*
X165243081Y-79161000D01*
X165275500Y-79164193D01*
X165307919Y-79161000D01*
X179243081Y-79161000D01*
X179275500Y-79164193D01*
X179307919Y-79161000D01*
X179404883Y-79151450D01*
X179529293Y-79113710D01*
X179643950Y-79052425D01*
X179744448Y-78969948D01*
X179826925Y-78869450D01*
X179888210Y-78754793D01*
X179925950Y-78630383D01*
X179938693Y-78501000D01*
X179935500Y-78468581D01*
X179935500Y-64533419D01*
X179938693Y-64501000D01*
X183662307Y-64501000D01*
X183665500Y-64533419D01*
X183665501Y-78468571D01*
X183662307Y-78501000D01*
X183675050Y-78630383D01*
X183712790Y-78754793D01*
X183774075Y-78869450D01*
X183856552Y-78969948D01*
X183957050Y-79052425D01*
X184071707Y-79113710D01*
X184196117Y-79151450D01*
X184293081Y-79161000D01*
X184325500Y-79164193D01*
X184357919Y-79161000D01*
X198293081Y-79161000D01*
X198325500Y-79164193D01*
X198357919Y-79161000D01*
X198454883Y-79151450D01*
X198579293Y-79113710D01*
X198693950Y-79052425D01*
X198794448Y-78969948D01*
X198876925Y-78869450D01*
X198938210Y-78754793D01*
X198975950Y-78630383D01*
X198988693Y-78501000D01*
X198985500Y-78468581D01*
X198985500Y-64533419D01*
X198988693Y-64501000D01*
X198975950Y-64371617D01*
X198938210Y-64247207D01*
X198876925Y-64132550D01*
X198794448Y-64032052D01*
X198693950Y-63949575D01*
X198579293Y-63888290D01*
X198454883Y-63850550D01*
X198357919Y-63841000D01*
X198325500Y-63837807D01*
X198293081Y-63841000D01*
X184357919Y-63841000D01*
X184325500Y-63837807D01*
X184293081Y-63841000D01*
X184196117Y-63850550D01*
X184071707Y-63888290D01*
X183957050Y-63949575D01*
X183856552Y-64032052D01*
X183774075Y-64132550D01*
X183712790Y-64247207D01*
X183675050Y-64371617D01*
X183662307Y-64501000D01*
X179938693Y-64501000D01*
X179925950Y-64371617D01*
X179888210Y-64247207D01*
X179826925Y-64132550D01*
X179744448Y-64032052D01*
X179643950Y-63949575D01*
X179529293Y-63888290D01*
X179404883Y-63850550D01*
X179307919Y-63841000D01*
X179275500Y-63837807D01*
X179243081Y-63841000D01*
X165307919Y-63841000D01*
X165275500Y-63837807D01*
X165243081Y-63841000D01*
X165146117Y-63850550D01*
X165021707Y-63888290D01*
X164907050Y-63949575D01*
X164806552Y-64032052D01*
X164724075Y-64132550D01*
X164662790Y-64247207D01*
X164625050Y-64371617D01*
X164612307Y-64501000D01*
X160888693Y-64501000D01*
X160875950Y-64371617D01*
X160838210Y-64247207D01*
X160776925Y-64132550D01*
X160694448Y-64032052D01*
X160593950Y-63949575D01*
X160479293Y-63888290D01*
X160354883Y-63850550D01*
X160257919Y-63841000D01*
X160225500Y-63837807D01*
X160193081Y-63841000D01*
X146257919Y-63841000D01*
X146225500Y-63837807D01*
X146193081Y-63841000D01*
X146096117Y-63850550D01*
X145971707Y-63888290D01*
X145857050Y-63949575D01*
X145756552Y-64032052D01*
X145674075Y-64132550D01*
X145612790Y-64247207D01*
X145575050Y-64371617D01*
X145562307Y-64501000D01*
X141838693Y-64501000D01*
X141825950Y-64371617D01*
X141788210Y-64247207D01*
X141726925Y-64132550D01*
X141644448Y-64032052D01*
X141543950Y-63949575D01*
X141429293Y-63888290D01*
X141304883Y-63850550D01*
X141207919Y-63841000D01*
X141175500Y-63837807D01*
X141143081Y-63841000D01*
X127207919Y-63841000D01*
X127175500Y-63837807D01*
X127143081Y-63841000D01*
X127046117Y-63850550D01*
X126921707Y-63888290D01*
X126807050Y-63949575D01*
X126706552Y-64032052D01*
X126624075Y-64132550D01*
X126562790Y-64247207D01*
X126525050Y-64371617D01*
X126512307Y-64501000D01*
X123562420Y-64501000D01*
X123839274Y-64353018D01*
X124079420Y-63965775D01*
X122269250Y-62155605D01*
X120459080Y-63965775D01*
X117751190Y-63965775D01*
X117731450Y-63949575D01*
X117616793Y-63888290D01*
X117492383Y-63850550D01*
X117395419Y-63841000D01*
X117363000Y-63837807D01*
X117330581Y-63841000D01*
X103395419Y-63841000D01*
X103363000Y-63837807D01*
X103330581Y-63841000D01*
X103233617Y-63850550D01*
X103109207Y-63888290D01*
X102994550Y-63949575D01*
X102894052Y-64032052D01*
X102811575Y-64132550D01*
X102750290Y-64247207D01*
X102712550Y-64371617D01*
X102699807Y-64501000D01*
X98976193Y-64501000D01*
X98963450Y-64371617D01*
X98925710Y-64247207D01*
X98864425Y-64132550D01*
X98781948Y-64032052D01*
X98681450Y-63949575D01*
X98566793Y-63888290D01*
X98442383Y-63850550D01*
X98345419Y-63841000D01*
X98313000Y-63837807D01*
X98280581Y-63841000D01*
X84345419Y-63841000D01*
X84313000Y-63837807D01*
X84280581Y-63841000D01*
X84183617Y-63850550D01*
X84059207Y-63888290D01*
X83944550Y-63949575D01*
X83844052Y-64032052D01*
X83761575Y-64132550D01*
X83700290Y-64247207D01*
X83662550Y-64371617D01*
X83649807Y-64501000D01*
X79926193Y-64501000D01*
X79913450Y-64371617D01*
X79875710Y-64247207D01*
X79814425Y-64132550D01*
X79731948Y-64032052D01*
X79631450Y-63949575D01*
X79516793Y-63888290D01*
X79392383Y-63850550D01*
X79295419Y-63841000D01*
X79263000Y-63837807D01*
X79230581Y-63841000D01*
X65295419Y-63841000D01*
X65263000Y-63837807D01*
X65230581Y-63841000D01*
X65133617Y-63850550D01*
X65009207Y-63888290D01*
X64894550Y-63949575D01*
X64794052Y-64032052D01*
X64711575Y-64132550D01*
X64650290Y-64247207D01*
X64612550Y-64371617D01*
X64599807Y-64501000D01*
X58476750Y-64501000D01*
X58476750Y-61991174D01*
X119420572Y-61991174D01*
X119478269Y-62546632D01*
X119643222Y-63080161D01*
X119892232Y-63546024D01*
X120279475Y-63786170D01*
X122089645Y-61976000D01*
X122448855Y-61976000D01*
X124259025Y-63786170D01*
X124646268Y-63546024D01*
X124906891Y-63052123D01*
X125066151Y-62516867D01*
X125117928Y-61960826D01*
X125060231Y-61405368D01*
X124895278Y-60871839D01*
X124646268Y-60405976D01*
X124259025Y-60165830D01*
X122448855Y-61976000D01*
X122089645Y-61976000D01*
X120279475Y-60165830D01*
X119892232Y-60405976D01*
X119631609Y-60899877D01*
X119472349Y-61435133D01*
X119420572Y-61991174D01*
X58476750Y-61991174D01*
X58476750Y-59986225D01*
X120459080Y-59986225D01*
X122269250Y-61796395D01*
X124079420Y-59986225D01*
X123839274Y-59598982D01*
X123345373Y-59338359D01*
X122810117Y-59179099D01*
X122254076Y-59127322D01*
X121698618Y-59185019D01*
X121165089Y-59349972D01*
X120699226Y-59598982D01*
X120459080Y-59986225D01*
X58476750Y-59986225D01*
X58476750Y-57003694D01*
X108232807Y-57003694D01*
X108232807Y-57423306D01*
X108314669Y-57834854D01*
X108475248Y-58222525D01*
X108708371Y-58571419D01*
X109005081Y-58868129D01*
X109353975Y-59101252D01*
X109741646Y-59261831D01*
X110153194Y-59343693D01*
X110572806Y-59343693D01*
X110984354Y-59261831D01*
X111372025Y-59101252D01*
X111720919Y-58868129D01*
X112017629Y-58571419D01*
X112250752Y-58222525D01*
X112411331Y-57834854D01*
X112493193Y-57423306D01*
X112493193Y-57003694D01*
X112411331Y-56592146D01*
X112250752Y-56204475D01*
X112017629Y-55855581D01*
X111720919Y-55558871D01*
X111372025Y-55325748D01*
X110984354Y-55165169D01*
X110572806Y-55083307D01*
X110153194Y-55083307D01*
X109741646Y-55165169D01*
X109353975Y-55325748D01*
X109005081Y-55558871D01*
X108708371Y-55855581D01*
X108475248Y-56204475D01*
X108314669Y-56592146D01*
X108232807Y-57003694D01*
X58476750Y-57003694D01*
X58476750Y-35926000D01*
X64599807Y-35926000D01*
X64603000Y-35958419D01*
X64603001Y-49893571D01*
X64599807Y-49926000D01*
X64612550Y-50055383D01*
X64650290Y-50179793D01*
X64711575Y-50294450D01*
X64794052Y-50394948D01*
X64894550Y-50477425D01*
X65009207Y-50538710D01*
X65133617Y-50576450D01*
X65230581Y-50586000D01*
X65263000Y-50589193D01*
X65295419Y-50586000D01*
X79230581Y-50586000D01*
X79263000Y-50589193D01*
X79295419Y-50586000D01*
X79392383Y-50576450D01*
X79516793Y-50538710D01*
X79631450Y-50477425D01*
X79731948Y-50394948D01*
X79814425Y-50294450D01*
X79875710Y-50179793D01*
X79913450Y-50055383D01*
X79926193Y-49926000D01*
X79923000Y-49893581D01*
X79923000Y-35958419D01*
X79926193Y-35926000D01*
X83649807Y-35926000D01*
X83653000Y-35958419D01*
X83653001Y-49893571D01*
X83649807Y-49926000D01*
X83662550Y-50055383D01*
X83700290Y-50179793D01*
X83761575Y-50294450D01*
X83844052Y-50394948D01*
X83944550Y-50477425D01*
X84059207Y-50538710D01*
X84183617Y-50576450D01*
X84280581Y-50586000D01*
X84313000Y-50589193D01*
X84345419Y-50586000D01*
X98280581Y-50586000D01*
X98313000Y-50589193D01*
X98345419Y-50586000D01*
X98442383Y-50576450D01*
X98566793Y-50538710D01*
X98681450Y-50477425D01*
X98781948Y-50394948D01*
X98864425Y-50294450D01*
X98925710Y-50179793D01*
X98963450Y-50055383D01*
X98976193Y-49926000D01*
X98973000Y-49893581D01*
X98973000Y-35958419D01*
X98976193Y-35926000D01*
X102699807Y-35926000D01*
X102703000Y-35958419D01*
X102703001Y-49893571D01*
X102699807Y-49926000D01*
X102712550Y-50055383D01*
X102750290Y-50179793D01*
X102811575Y-50294450D01*
X102894052Y-50394948D01*
X102994550Y-50477425D01*
X103109207Y-50538710D01*
X103233617Y-50576450D01*
X103330581Y-50586000D01*
X103363000Y-50589193D01*
X103395419Y-50586000D01*
X117330581Y-50586000D01*
X117363000Y-50589193D01*
X117395419Y-50586000D01*
X117492383Y-50576450D01*
X117616793Y-50538710D01*
X117731450Y-50477425D01*
X117831948Y-50394948D01*
X117914425Y-50294450D01*
X117975710Y-50179793D01*
X118013450Y-50055383D01*
X118026193Y-49926000D01*
X118023000Y-49893581D01*
X118023000Y-35958419D01*
X118026193Y-35926000D01*
X118013450Y-35796617D01*
X117975710Y-35672207D01*
X117914425Y-35557550D01*
X117831948Y-35457052D01*
X117731450Y-35374575D01*
X117616793Y-35313290D01*
X117492383Y-35275550D01*
X117395419Y-35266000D01*
X117363000Y-35262807D01*
X117330581Y-35266000D01*
X103395419Y-35266000D01*
X103363000Y-35262807D01*
X103330581Y-35266000D01*
X103233617Y-35275550D01*
X103109207Y-35313290D01*
X102994550Y-35374575D01*
X102894052Y-35457052D01*
X102811575Y-35557550D01*
X102750290Y-35672207D01*
X102712550Y-35796617D01*
X102699807Y-35926000D01*
X98976193Y-35926000D01*
X98963450Y-35796617D01*
X98925710Y-35672207D01*
X98864425Y-35557550D01*
X98781948Y-35457052D01*
X98681450Y-35374575D01*
X98566793Y-35313290D01*
X98442383Y-35275550D01*
X98345419Y-35266000D01*
X98313000Y-35262807D01*
X98280581Y-35266000D01*
X84345419Y-35266000D01*
X84313000Y-35262807D01*
X84280581Y-35266000D01*
X84183617Y-35275550D01*
X84059207Y-35313290D01*
X83944550Y-35374575D01*
X83844052Y-35457052D01*
X83761575Y-35557550D01*
X83700290Y-35672207D01*
X83662550Y-35796617D01*
X83649807Y-35926000D01*
X79926193Y-35926000D01*
X79913450Y-35796617D01*
X79875710Y-35672207D01*
X79814425Y-35557550D01*
X79731948Y-35457052D01*
X79631450Y-35374575D01*
X79516793Y-35313290D01*
X79392383Y-35275550D01*
X79295419Y-35266000D01*
X79263000Y-35262807D01*
X79230581Y-35266000D01*
X65295419Y-35266000D01*
X65263000Y-35262807D01*
X65230581Y-35266000D01*
X65133617Y-35275550D01*
X65009207Y-35313290D01*
X64894550Y-35374575D01*
X64794052Y-35457052D01*
X64711575Y-35557550D01*
X64650290Y-35672207D01*
X64612550Y-35796617D01*
X64599807Y-35926000D01*
X58476750Y-35926000D01*
X58476750Y-33015858D01*
X58514831Y-32977777D01*
X58754976Y-33365018D01*
X59248877Y-33625641D01*
X59784133Y-33784901D01*
X60340174Y-33836678D01*
X60895632Y-33778981D01*
X61429161Y-33614028D01*
X61895024Y-33365018D01*
X62135170Y-32977775D01*
X60325000Y-31167605D01*
X60310858Y-31181748D01*
X60131253Y-31002143D01*
X60145395Y-30988000D01*
X60131253Y-30973858D01*
X60310858Y-30794253D01*
X60325000Y-30808395D01*
X60339143Y-30794253D01*
X60518748Y-30973858D01*
X60504605Y-30988000D01*
X62314775Y-32798170D01*
X62702018Y-32558024D01*
X62962641Y-32064123D01*
X63121901Y-31528867D01*
X63173678Y-30972826D01*
X63115981Y-30417368D01*
X62951028Y-29883839D01*
X62702018Y-29417976D01*
X62314777Y-29177831D01*
X62352858Y-29139750D01*
X115478892Y-29139750D01*
X115516973Y-29177831D01*
M02*
