G04 #@! TF.GenerationSoftware,KiCad,Pcbnew,5.1.5*
G04 #@! TF.CreationDate,2019-12-12T01:12:10+09:00*
G04 #@! TF.ProjectId,Navpad_top-32u4,4e617670-6164-45f7-946f-702d33327534,rev?*
G04 #@! TF.SameCoordinates,Original*
G04 #@! TF.FileFunction,Profile,NP*
%FSLAX46Y46*%
G04 Gerber Fmt 4.6, Leading zero omitted, Abs format (unit mm)*
G04 Created by KiCad (PCBNEW 5.1.5) date 2019-12-12 01:12:10*
%MOMM*%
%LPD*%
G04 APERTURE LIST*
%ADD10C,0.050000*%
G04 APERTURE END LIST*
D10*
X197104000Y-40148539D02*
X194422001Y-40148539D01*
X188233618Y-40148539D02*
X185547000Y-40148539D01*
X185547000Y-40148539D02*
X185547000Y-55626000D01*
X197104000Y-55626000D02*
X197104000Y-40148539D01*
X185547000Y-55626000D02*
X197104000Y-55626000D01*
X159004000Y-55626000D02*
X159004000Y-40148539D01*
X147447000Y-55626000D02*
X159004000Y-55626000D01*
X147447000Y-40148539D02*
X147447000Y-55626000D01*
X159004000Y-40148539D02*
X156322001Y-40148539D01*
X150133618Y-40148538D02*
G75*
G03X150128999Y-39624000I-766617J255539D01*
G01*
X156317382Y-39624000D02*
X159512000Y-39624000D01*
X150133618Y-40148539D02*
X147447000Y-40148539D01*
X146939000Y-39624000D02*
X150128999Y-39624000D01*
X156317382Y-39624001D02*
G75*
G03X156322001Y-40148539I766617J-255539D01*
G01*
X194417382Y-39624001D02*
G75*
G03X194422001Y-40148539I766617J-255539D01*
G01*
X194417382Y-39624000D02*
X197612000Y-39624000D01*
X188233618Y-40148538D02*
G75*
G03X188228999Y-39624000I-766617J255539D01*
G01*
X111823500Y-57213500D02*
G75*
G03X111823500Y-57213500I-1460500J0D01*
G01*
X176657000Y-37338000D02*
X176657000Y-31019750D01*
X176657000Y-37338000D02*
G75*
G02X175387001Y-38608001I-1270000J-1D01*
G01*
X167290750Y-38608000D02*
X175387001Y-38608001D01*
X166020750Y-31019750D02*
X166020750Y-37338000D01*
X167290750Y-38608000D02*
G75*
G02X166020750Y-37338000I0J1270000D01*
G01*
X130683000Y-45212000D02*
G75*
G02X129413001Y-46482001I-1270000J-1D01*
G01*
X121316750Y-46482000D02*
G75*
G02X120046750Y-45212000I0J1270000D01*
G01*
X130683000Y-45212000D02*
X130683000Y-31019750D01*
X121316750Y-46482000D02*
X129413001Y-46482001D01*
X120046750Y-31019750D02*
X120046750Y-45212000D01*
X163480750Y-28479750D02*
X133223000Y-28479750D01*
X176657000Y-31019750D02*
G75*
G02X179197000Y-28479750I2540000J0D01*
G01*
X163480750Y-28479750D02*
G75*
G02X166020750Y-31019750I0J-2540000D01*
G01*
X130683000Y-31019750D02*
G75*
G02X133223000Y-28479750I2540000J0D01*
G01*
X117506750Y-28479750D02*
X60356750Y-28479750D01*
X117506750Y-28479750D02*
G75*
G02X120046750Y-31019750I0J-2540000D01*
G01*
X203231750Y-28479750D02*
X179197000Y-28479750D01*
X205771750Y-159607250D02*
X205771750Y-31019750D01*
X60356750Y-162147250D02*
X203231750Y-162147250D01*
X57816750Y-31019750D02*
X57816750Y-159607250D01*
X104521000Y-107188000D02*
G75*
G03X104521000Y-107188000I-1270000J0D01*
G01*
X92583000Y-107188000D02*
G75*
G03X92583000Y-107188000I-1270000J0D01*
G01*
X80645000Y-107188000D02*
G75*
G03X80645000Y-107188000I-1270000J0D01*
G01*
X185039000Y-56134000D02*
X185039000Y-39624000D01*
X197612000Y-56134000D02*
X185039000Y-56134000D01*
X185039000Y-39624000D02*
X188228999Y-39624000D01*
X197612000Y-39624000D02*
X197612000Y-56134000D01*
X146939000Y-56134000D02*
X146939000Y-39624000D01*
X159512000Y-56134000D02*
X146939000Y-56134000D01*
X159512000Y-39624000D02*
X159512000Y-56134000D01*
X165275500Y-154701000D02*
X179275500Y-154701000D01*
X179275500Y-140701000D02*
X165275500Y-140701000D01*
X165275500Y-140701000D02*
X165275500Y-154701000D01*
X179275500Y-154701000D02*
X179275500Y-140701000D01*
X184325500Y-91676001D02*
X184325500Y-108476001D01*
X198325500Y-83551000D02*
X184325500Y-83551000D01*
X183125500Y-115506500D02*
X184325500Y-115506500D01*
X198325500Y-116601000D02*
X198325500Y-83551000D01*
X184325500Y-115506500D02*
X184325500Y-116601000D01*
X184325500Y-116601000D02*
X198325500Y-116601000D01*
X183125500Y-115506500D02*
X183125499Y-108476000D01*
X183125499Y-108476000D02*
X184325500Y-108476001D01*
X184325500Y-83551000D02*
X184325500Y-84645499D01*
X183125499Y-91676000D02*
X184325500Y-91676001D01*
X183125499Y-84645500D02*
X184325500Y-84645499D01*
X183125499Y-91676000D02*
X183125499Y-84645500D01*
X184325500Y-129776001D02*
X184325500Y-146576001D01*
X198325500Y-121651000D02*
X184325500Y-121651000D01*
X183125500Y-153606500D02*
X184325500Y-153606500D01*
X198325500Y-154701000D02*
X198325500Y-121651000D01*
X184325500Y-153606500D02*
X184325500Y-154701000D01*
X184325500Y-154701000D02*
X198325500Y-154701000D01*
X183125500Y-153606500D02*
X183125499Y-146576000D01*
X183125499Y-146576000D02*
X184325500Y-146576001D01*
X184325500Y-121651000D02*
X184325500Y-122745499D01*
X183125499Y-129776000D02*
X184325500Y-129776001D01*
X183125499Y-122745500D02*
X184325500Y-122745499D01*
X183125499Y-129776000D02*
X183125499Y-122745500D01*
X152100500Y-140701000D02*
X135300500Y-140701000D01*
X152100500Y-139501000D02*
X152100500Y-140701000D01*
X160225500Y-140701000D02*
X159131000Y-140701000D01*
X152100500Y-139501000D02*
X159131000Y-139501000D01*
X159131000Y-139501000D02*
X159131000Y-140701000D01*
X135300500Y-139501000D02*
X135300500Y-140701000D01*
X128270000Y-139501000D02*
X135300500Y-139501000D01*
X128270000Y-139501000D02*
X128270000Y-140701000D01*
X128270000Y-140701000D02*
X127175500Y-140701000D01*
X160225500Y-154701000D02*
X160225500Y-140701000D01*
X127175500Y-154701000D02*
X160225500Y-154701000D01*
X127175500Y-140701000D02*
X127175500Y-154701000D01*
X117363000Y-154701000D02*
X117363000Y-140701000D01*
X103363000Y-140701000D02*
X103363000Y-154701000D01*
X117363000Y-140701000D02*
X103363000Y-140701000D01*
X103363000Y-154701000D02*
X117363000Y-154701000D01*
X98313000Y-154701000D02*
X98313000Y-140701000D01*
X84313000Y-140701000D02*
X84313000Y-154701000D01*
X98313000Y-140701000D02*
X84313000Y-140701000D01*
X84313000Y-154701000D02*
X98313000Y-154701000D01*
X79263000Y-154701000D02*
X79263000Y-140701000D01*
X65263000Y-140701000D02*
X65263000Y-154701000D01*
X79263000Y-140701000D02*
X65263000Y-140701000D01*
X65263000Y-154701000D02*
X79263000Y-154701000D01*
X79263000Y-135651000D02*
X79263000Y-121651000D01*
X65263000Y-121651000D02*
X65263000Y-135651000D01*
X79263000Y-121651000D02*
X65263000Y-121651000D01*
X65263000Y-135651000D02*
X79263000Y-135651000D01*
X98313000Y-135651000D02*
X98313000Y-121651000D01*
X84313000Y-121651000D02*
X84313000Y-135651000D01*
X98313000Y-121651000D02*
X84313000Y-121651000D01*
X84313000Y-135651000D02*
X98313000Y-135651000D01*
X117363000Y-135651000D02*
X117363000Y-121651000D01*
X103363000Y-121651000D02*
X103363000Y-135651000D01*
X117363000Y-121651000D02*
X103363000Y-121651000D01*
X103363000Y-135651000D02*
X117363000Y-135651000D01*
X141175500Y-135651000D02*
X141175500Y-121651000D01*
X127175500Y-121651000D02*
X127175500Y-135651000D01*
X141175500Y-121651000D02*
X127175500Y-121651000D01*
X127175500Y-135651000D02*
X141175500Y-135651000D01*
X160225500Y-135651000D02*
X160225500Y-121651000D01*
X146225500Y-121651000D02*
X146225500Y-135651000D01*
X160225500Y-121651000D02*
X146225500Y-121651000D01*
X146225500Y-135651000D02*
X160225500Y-135651000D01*
X179275500Y-135651000D02*
X179275500Y-121651000D01*
X165275500Y-121651000D02*
X165275500Y-135651000D01*
X179275500Y-121651000D02*
X165275500Y-121651000D01*
X165275500Y-135651000D02*
X179275500Y-135651000D01*
X179275500Y-116601000D02*
X179275500Y-102601000D01*
X165275500Y-102601000D02*
X165275500Y-116601000D01*
X179275500Y-102601000D02*
X165275500Y-102601000D01*
X165275500Y-116601000D02*
X179275500Y-116601000D01*
X160225500Y-116601000D02*
X160225500Y-102601000D01*
X146225500Y-102601000D02*
X146225500Y-116601000D01*
X160225500Y-102601000D02*
X146225500Y-102601000D01*
X146225500Y-116601000D02*
X160225500Y-116601000D01*
X141175500Y-116601000D02*
X141175500Y-102601000D01*
X127175500Y-102601000D02*
X127175500Y-116601000D01*
X141175500Y-102601000D02*
X127175500Y-102601000D01*
X127175500Y-116601000D02*
X141175500Y-116601000D01*
X79263000Y-97551000D02*
X79263000Y-83551000D01*
X65263000Y-83551000D02*
X65263000Y-97551000D01*
X79263000Y-83551000D02*
X65263000Y-83551000D01*
X65263000Y-97551000D02*
X79263000Y-97551000D01*
X98313000Y-97551000D02*
X98313000Y-83551000D01*
X84313000Y-83551000D02*
X84313000Y-97551000D01*
X98313000Y-83551000D02*
X84313000Y-83551000D01*
X84313000Y-97551000D02*
X98313000Y-97551000D01*
X117363000Y-97551000D02*
X117363000Y-83551000D01*
X103363000Y-83551000D02*
X103363000Y-97551000D01*
X117363000Y-83551000D02*
X103363000Y-83551000D01*
X103363000Y-97551000D02*
X117363000Y-97551000D01*
X141175500Y-97551000D02*
X141175500Y-83551000D01*
X127175500Y-83551000D02*
X127175500Y-97551000D01*
X141175500Y-83551000D02*
X127175500Y-83551000D01*
X127175500Y-97551000D02*
X141175500Y-97551000D01*
X160225500Y-97551000D02*
X160225500Y-83551000D01*
X146225500Y-83551000D02*
X146225500Y-97551000D01*
X160225500Y-83551000D02*
X146225500Y-83551000D01*
X146225500Y-97551000D02*
X160225500Y-97551000D01*
X179275500Y-97551000D02*
X179275500Y-83551000D01*
X165275500Y-83551000D02*
X165275500Y-97551000D01*
X179275500Y-83551000D02*
X165275500Y-83551000D01*
X165275500Y-97551000D02*
X179275500Y-97551000D01*
X198325500Y-78501000D02*
X198325500Y-64501000D01*
X184325500Y-64501000D02*
X184325500Y-78501000D01*
X198325500Y-64501000D02*
X184325500Y-64501000D01*
X184325500Y-78501000D02*
X198325500Y-78501000D01*
X179275500Y-78501000D02*
X179275500Y-64501000D01*
X165275500Y-64501000D02*
X165275500Y-78501000D01*
X179275500Y-64501000D02*
X165275500Y-64501000D01*
X165275500Y-78501000D02*
X179275500Y-78501000D01*
X160225500Y-78501000D02*
X160225500Y-64501000D01*
X146225500Y-64501000D02*
X146225500Y-78501000D01*
X160225500Y-64501000D02*
X146225500Y-64501000D01*
X146225500Y-78501000D02*
X160225500Y-78501000D01*
X141175500Y-78501000D02*
X141175500Y-64501000D01*
X127175500Y-64501000D02*
X127175500Y-78501000D01*
X141175500Y-64501000D02*
X127175500Y-64501000D01*
X127175500Y-78501000D02*
X141175500Y-78501000D01*
X117363000Y-78501000D02*
X117363000Y-64501000D01*
X103363000Y-64501000D02*
X103363000Y-78501000D01*
X117363000Y-64501000D02*
X103363000Y-64501000D01*
X103363000Y-78501000D02*
X117363000Y-78501000D01*
X98313000Y-78501000D02*
X98313000Y-64501000D01*
X84313000Y-64501000D02*
X84313000Y-78501000D01*
X98313000Y-64501000D02*
X84313000Y-64501000D01*
X84313000Y-78501000D02*
X98313000Y-78501000D01*
X65263000Y-78501000D02*
X79263000Y-78501000D01*
X79263000Y-64501000D02*
X65263000Y-64501000D01*
X65263000Y-64501000D02*
X65263000Y-78501000D01*
X79263000Y-78501000D02*
X79263000Y-64501000D01*
X103363000Y-49926000D02*
X117363000Y-49926000D01*
X117363000Y-35926000D02*
X103363000Y-35926000D01*
X117363000Y-49926000D02*
X117363000Y-35926000D01*
X103363000Y-35926000D02*
X103363000Y-49926000D01*
X84313000Y-49926000D02*
X98313000Y-49926000D01*
X98313000Y-49926000D02*
X98313000Y-35926000D01*
X98313000Y-35926000D02*
X84313000Y-35926000D01*
X84313000Y-35926000D02*
X84313000Y-49926000D01*
X79263000Y-35926000D02*
X65263000Y-35926000D01*
X79263000Y-49926000D02*
X79263000Y-35926000D01*
X65263000Y-49926000D02*
X79263000Y-49926000D01*
X65263000Y-35926000D02*
X65263000Y-49926000D01*
X203231750Y-28479750D02*
G75*
G02X205771750Y-31019750I0J-2540000D01*
G01*
X57816750Y-31019750D02*
G75*
G02X60356750Y-28479750I2540000J0D01*
G01*
X205771750Y-159607250D02*
G75*
G02X203231750Y-162147250I-2540000J0D01*
G01*
X60356750Y-162147250D02*
G75*
G02X57816750Y-159607250I0J2540000D01*
G01*
M02*
